<?xml version="1.0" encoding="utf-8"?>
<!-- Generator: Adobe Illustrator 24.0.1, SVG Export Plug-In . SVG Version: 6.00 Build 0)  -->
<svg version="1.1" id="Capa_1" xmlns="http://www.w3.org/2000/svg" xmlns:xlink="http://www.w3.org/1999/xlink" x="0px" y="0px"
	 viewBox="0 0 368.4 368.4" style="enable-background:new 0 0 368.4 368.4;" xml:space="preserve">
<style type="text/css">
	.st0{fill:#4A4A4A;}
</style>
<g>
	<path class="st0" d="M262.8,44.7h37.4c-3.8,3.9-3.8,10.2,0.1,14c2,2,4.5,2.9,7.1,2.9c2.6,0,5.1-1,7.1-2.9l17-17
		c3.9-3.9,3.9-10.2,0-14.1l-17-17c-3.9-3.9-10.2-3.9-14.1,0c-3.9,3.9-3.9,10.1-0.1,14h-37.4c-5.5,0-10,4.5-10,10
		C252.8,40.2,257.3,44.7,262.8,44.7z"/>
	<path class="st0" d="M324.3,82.1H287c3.8-3.9,3.8-10.2-0.1-14c-3.9-3.9-10.2-3.9-14.1,0l-17,17c-3.9,3.9-3.9,10.2,0,14.1l17,17
		c2,2,4.5,2.9,7.1,2.9s5.1-1,7.1-2.9c3.9-3.9,3.9-10.1,0.1-14h37.4c5.5,0,10-4.5,10-10C334.3,86.6,329.9,82.1,324.3,82.1z"/>
	<path class="st0" d="M279.4,154.2c-5.6,0-11.2,1.1-16.5,3.1c-7.4-14.4-22.3-24.3-39.6-24.3c-6.2,0-12,1.2-17.3,3.3
		c-7.5-14-22.3-23.6-39.2-23.6c-4.3,0-8.4,0.6-12.4,1.7c0-4,0-8.1,0-12.2l0-41.7c0-11.5,0-16.7,0-19.2h0c0-22.3-20.3-41.2-44.2-41.2
		C85.6,0,65.7,20,65.7,44.5V180c-16.4,5.5-30.8,20.6-31.4,42.2c-1,33.8,1.8,76.5,31.9,107.4c25.4,26.1,65.1,38.8,121.5,38.8
		c50.7,0,88.2-14.9,111.4-44.3c16.3-20.7,25-48.5,25-80.5l-0.1-45C323.9,174.1,303.9,154.2,279.4,154.2z M187.6,348.4
		c-119.3,0-135.2-60.5-133.4-125.6c0.4-15.7,14-25,25-25v28.8c0,3.6,2.5,4,3.3,4s3.2-0.4,3.2-4c0-3.5,0-182.1,0-182.1
		c0-13.5,11-24.5,24.5-24.5c12.4,0,24.2,9.6,24.2,21.2c0,0-0.1,89.9-0.1,112c0,0,0,0.1,0,0.1v4.6c0,2.2,1.8,4,4,4c2.2,0,4-1.8,4-4
		v-1.2c0.2-13.3,11.1-24.1,24.5-24.1c13.5,0,24.5,11,24.5,24.5l0,17.7c0,2.2,1.8,3.9,3.9,3.9c2.2,0,3.9-1.8,3.9-3.9l0-1
		c0-12.3,12-20.9,24.3-20.9c13.5,0,24.4,11,24.4,24.5l0,17.9c0,2.1,1.7,3.8,3.8,3.8s3.8-1.7,3.8-3.8l0-1.4c0-11.2,12.1-19.8,24-19.8
		c13.5,0,24.5,11,24.5,24.5l0.1,45C304,285.4,287.7,348.4,187.6,348.4z"/>
</g>
</svg>
