<svg xmlns="http://www.w3.org/2000/svg" width="23" height="23" viewBox="0 0 23 23">
  <metadata><?xpacket begin="﻿" id="W5M0MpCehiHzreSzNTczkc9d"?>
<x:xmpmeta xmlns:x="adobe:ns:meta/" x:xmptk="Adobe XMP Core 5.6-c138 79.159824, 2016/09/14-01:09:01        ">
   <rdf:RDF xmlns:rdf="http://www.w3.org/1999/02/22-rdf-syntax-ns#">
      <rdf:Description rdf:about=""/>
   </rdf:RDF>
</x:xmpmeta>
                                                                                                    
                                                                                                    
                                                                                                    
                                                                                                    
                                                                                                    
                                                                                                    
                                                                                                    
                                                                                                    
                                                                                                    
                                                                                                    
                                                                                                    
                                                                                                    
                                                                                                    
                                                                                                    
                                                                                                    
                                                                                                    
                                                                                                    
                                                                                                    
                                                                                                    
                                                                                                    
                           
<?xpacket end="w"?></metadata>
<defs>
    <style>
      .cls-1 {
        fill: #ff9d00;
        fill-rule: evenodd;
      }
    </style>
  </defs>
  <path class="cls-1" d="M1084.5,430a11.5,11.5,0,1,1,11.5-11.5A11.5,11.5,0,0,1,1084.5,430Zm-2.01-4.133h4.02v-4.132h-4.02v4.132Zm-5.36-2.755h1.34v2.755h1.34v-2.755h1.34v-1.377h-4.02v1.377Zm4.14-10.811-2,.019-2.15,4.235h1.44l1.34-2.823v5.647l1.37,0.009V412.3Zm9.43,1.431a1.386,1.386,0,0,0-1.35-1.412h-5.4a1.386,1.386,0,0,0-1.35,1.412v4.235a1.386,1.386,0,0,0,1.35,1.412h5.4a1.386,1.386,0,0,0,1.35-1.412v-4.235Zm1.17,8h-4.02v4.132h1.34v-2.755h1.34v2.755h1.34v-4.132Zm-7.92-8h5.4v4.235h-5.4v-4.235Zm-0.12,9.38h1.34v1.378h-1.34v-1.378Z" transform="translate(-1073 -407)"/>
</svg>
