<svg xmlns="http://www.w3.org/2000/svg" width="22" height="20" viewBox="0 0 22 20">
  <metadata><?xpacket begin="﻿" id="W5M0MpCehiHzreSzNTczkc9d"?>
<x:xmpmeta xmlns:x="adobe:ns:meta/" x:xmptk="Adobe XMP Core 5.6-c138 79.159824, 2016/09/14-01:09:01        ">
   <rdf:RDF xmlns:rdf="http://www.w3.org/1999/02/22-rdf-syntax-ns#">
      <rdf:Description rdf:about=""/>
   </rdf:RDF>
</x:xmpmeta>
                                                                                                    
                                                                                                    
                                                                                                    
                                                                                                    
                                                                                                    
                                                                                                    
                                                                                                    
                                                                                                    
                                                                                                    
                                                                                                    
                                                                                                    
                                                                                                    
                                                                                                    
                                                                                                    
                                                                                                    
                                                                                                    
                                                                                                    
                                                                                                    
                                                                                                    
                                                                                                    
                           
<?xpacket end="w"?></metadata>
<defs>
    <style>
      .cls-1 {
        fill-rule: evenodd;
      }
    </style>
  </defs>
  <path id="Forma_1" data-name="Forma 1" class="cls-1" d="M261.083,424.087h-2.441a3.239,3.239,0,0,0-6.118,0H240.917a0.871,0.871,0,1,0,0,1.739h11.607a3.239,3.239,0,0,0,6.118,0h2.441A0.871,0.871,0,1,0,261.083,424.087Zm-5.5,2.174a1.306,1.306,0,1,1,1.375-1.3A1.343,1.343,0,0,1,255.583,426.261Zm5.5-16.087h-2.441a3.239,3.239,0,0,0-6.118,0H240.917a0.871,0.871,0,1,0,0,1.739h11.607a3.239,3.239,0,0,0,6.118,0h2.441A0.871,0.871,0,1,0,261.083,410.174Zm-5.5,2.174a1.306,1.306,0,1,1,1.375-1.3A1.343,1.343,0,0,1,255.583,412.348Zm5.5,4.782H249.476a3.24,3.24,0,0,0-6.118,0h-2.441a0.871,0.871,0,1,0,0,1.74h2.441a3.239,3.239,0,0,0,6.118,0h11.607A0.871,0.871,0,1,0,261.083,417.13ZM246.417,419.3a1.306,1.306,0,1,1,1.375-1.3A1.342,1.342,0,0,1,246.417,419.3Z" transform="translate(-240 -408)"/>
</svg>
