<svg xmlns="http://www.w3.org/2000/svg" width="17" height="23" viewBox="0 0 17 23">
  <path fill="#f84c3a" fill-rule="evenodd" d="M799.531,429.972l7.824-5.228,8.017,5.18a0.7,0.7,0,0,0,.387,0,0.6,0.6,0,0,0,.241-0.24V407.336a0.44,0.44,0,0,0-.1-0.192,0.721,0.721,0,0,0-.241-0.144H799.338a0.4,0.4,0,0,0-.193.1,0.761,0.761,0,0,0-.145.24v22.348a0.724,0.724,0,0,0,.242.288A0.409,0.409,0,0,0,799.531,429.972Zm10-13.189,2.077-2.11h-2.994l-0.193-.048-0.1-.144-1.014-2.3-0.966,2.158a0.567,0.567,0,0,1-.145.192,1.119,1.119,0,0,1-.241.144h-2.946l2.076,2.062a0.755,0.755,0,0,1,.048.192,1.131,1.131,0,0,1,0,.192l-0.531,2.829,2.56-1.774a0.413,0.413,0,0,1,.193-0.048,0.721,0.721,0,0,1,.193.048l2.463,1.774-0.531-2.829a0.826,0.826,0,0,1,0-.192A0.5,0.5,0,0,1,809.528,416.783Z" transform="translate(-799 -407)"/>
</svg>
