<svg xmlns="http://www.w3.org/2000/svg" width="20" height="20" viewBox="0 0 20 20"><defs><style>.cls-1{fill-rule:evenodd;}</style></defs><title>топ 10 20x20-2</title><path fill="#ffffff" class="cls-1" d="M154,250a10,10,0,1,1,10-10A10,10,0,0,1,154,250Zm0-19a9,9,0,1,0,9,9A9,9,0,0,0,154,231Zm4,13h-1v2h-1v-3h3v3h-1Zm0-3h-5a1,1,0,0,1-1-1V236a1,1,0,0,1,1-1h5a1,1,0,0,1,1,1V240A1,1,0,0,1,158,241Zm0-5h-5v4h5Zm-8,10h-1v-2h-1v-1h3v1h-1Zm0-10-1,2h-1l1.56-3H151v6h-1Zm5,10h-3v-3h3Zm-1-2h-1v1h1Z" transform="translate(-144 -230)"/></svg>
