<svg xmlns="http://www.w3.org/2000/svg" width="25" height="23" viewBox="0 0 25 23">
    <path fill="#ff730e" fill-rule="evenodd" d="M954.062,409.781A1.956,1.956,0,1,1,952,411.734,2.01,2.01,0,0,1,954.062,409.781Zm20.876,0a1.956,1.956,0,1,1-2.063,1.953A2.01,2.01,0,0,1,974.938,409.781ZM964.469,407A2.362,2.362,0,1,1,962,409.359,2.416,2.416,0,0,1,964.469,407Zm8.416,18.282H956.167a0.611,0.611,0,0,1-.417-0.4l-1.979-11.129,0.208-1.291,0.625,1.242a8.1,8.1,0,0,0,1.146,2.384,7.332,7.332,0,0,0,1.719,1.59,5.161,5.161,0,0,0,2.448.447,4.2,4.2,0,0,0,1.927-.993,8.725,8.725,0,0,0,1.406-2.335,17.526,17.526,0,0,0,.833-3.13s0.791-.6.834-0.646a3.585,3.585,0,0,1,.052.7,11.889,11.889,0,0,0,1.979,4.719,5.17,5.17,0,0,0,1.51,1.391,3.546,3.546,0,0,0,1.823.3,3.777,3.777,0,0,0,2.656-1.341,8.625,8.625,0,0,0,1.511-3.13l0.364-.546,0.417,0.6-1.979,11.078a0.583,0.583,0,0,1-.1.3A0.867,0.867,0,0,1,972.885,425.282Zm-16.729,1.78h16.688V430H956.156v-2.938Z" transform="translate(-952 -407)"/>
</svg>
