<svg width="48" height="49" viewBox="0 0 48 49" fill="none" xmlns="http://www.w3.org/2000/svg"><rect y=".5" width="48" height="48" rx="24" fill="#EEF6FC"/><path d="M24.002 9c2.12 0 2.787 1.513 3.346 3.024.234.641 5.744 15.654 5.91 16.105.044.125.014.332-.18.406-.196.074-3.059 1.181-3.217 1.24a.307.307 0 01-.393-.184c-.06-.156-1.248-3.428-1.381-3.794H19.92c-.13.366-1.332 3.645-1.385 3.794a.303.303 0 01-.395.185c-.169-.067-3.042-1.174-3.214-1.24a.32.32 0 01-.182-.407c.202-.562 5.629-15.334 5.905-16.105C21.189 10.536 21.878 9 24.002 9zM14.31 35.863a.312.312 0 00-.309.315v3.509a.31.31 0 00.309.313h19.379a.31.31 0 00.312-.313v-3.509a.313.313 0 00-.312-.315h-19.38zm9.674-21.96l-2.76 8.247h5.566l-2.77-8.248h-.036z" fill="#EE2A23"/></svg>