<svg width="48" height="49" viewBox="0 0 48 49" fill="none" xmlns="http://www.w3.org/2000/svg"><rect y=".5" width="48" height="48" rx="24" fill="#EEF6FC"/><path d="M33.203 16.234H13.797A1.8 1.8 0 0012 18.031V30.97a1.8 1.8 0 001.797 1.797h19.406A1.8 1.8 0 0035 30.97V18.03a1.8 1.8 0 00-1.797-1.797z" fill="#5D647F"/><path d="M19.906 23.422h-4.312a.719.719 0 01-.719-.719v-2.875a.72.72 0 01.719-.719h4.312a.72.72 0 01.719.72v2.874a.719.719 0 01-.719.719z" fill="#FFD100"/><path d="M17.39 28.094h-1.796a.719.719 0 01-.719-.719v-.36c0-.396.322-.718.719-.718h1.797c.397 0 .718.322.718.719v.359a.719.719 0 01-.718.719zm4.673 0h-1.797a.719.719 0 01-.72-.719v-.36a.72.72 0 01.72-.718h1.797c.396 0 .718.322.718.719v.359a.719.719 0 01-.718.719zm4.671 0h-1.797a.719.719 0 01-.718-.719v-.36c0-.396.322-.718.718-.718h1.797a.72.72 0 01.72.719v.359a.719.719 0 01-.72.719zm4.672 0H29.61a.719.719 0 01-.718-.719v-.36c0-.396.321-.718.718-.718h1.797a.72.72 0 01.719.719v.359a.719.719 0 01-.719.719z" fill="#B8BAC0"/><path d="M22.422 30.25h-7.188a.36.36 0 110-.719h7.188a.36.36 0 010 .719zm4.672 0h-3.235a.36.36 0 110-.719h3.235a.36.36 0 010 .719z" fill="#8A8895"/><path d="M28.531 22.703a2.156 2.156 0 110-2.875" fill="#FF4F19"/><path d="M20.625 21.625h-3.594v-.719h3.594v-.718h-3.594v-1.079h-.718v4.313h.718v-1.078h3.594v-.719z" fill="#FF9500"/><path d="M29.969 23.422a2.156 2.156 0 100-4.313 2.156 2.156 0 000 4.313z" fill="#FFD100"/></svg>