<svg width="48" height="49" viewBox="0 0 48 49" fill="none" xmlns="http://www.w3.org/2000/svg"><rect y=".5" width="48" height="48" rx="24" fill="#EEF6FC"/><path d="M14 39.88l3.552-2.74 3.56 2.74 3.562-2.74 3.186 2.74 3.57-2.74L35 39.88V13.4a4.565 4.565 0 00-4.565-4.565h-11.87A4.565 4.565 0 0014 13.4v26.48z" fill="url(#paint0_linear_753_763)"/><path d="M14 38.583l3.552-2.739 3.56 2.74 3.562-2.74 3.186 2.74 3.57-2.74 3.57 2.74V8H14v30.583z" fill="#fff"/><path d="M32.206 15.53H20.218v1.825h11.988V15.53zm0 3.652H20.218v1.826h11.988v-1.826zm0 3.651H20.218v1.826h11.988v-1.826zm0 5.936H23.87v1.826h8.336v-1.826zM18.711 15.53h-2.346v1.825h2.346V15.53zm0 3.652h-2.346v1.826h2.346v-1.826zm0 3.651h-2.346v1.826h2.346v-1.826z" fill="#F1F5F9"/><path d="M32.206 14.698H20.218v1.826h11.988v-1.826zm0 3.652H20.218v1.827h11.988V18.35zm0 3.652H20.218v1.826h11.988v-1.826zm0 5.936H23.87v1.826h8.336v-1.826zm-13.495-13.24h-2.346v1.826h2.346v-1.826zm0 3.652h-2.346v1.827h2.346V18.35zm0 3.652h-2.346v1.826h2.346v-1.826z" fill="#A7C1DB"/><defs><linearGradient id="paint0_linear_753_763" x1="24.5" y1="34.474" x2="24.5" y2="42.518" gradientUnits="userSpaceOnUse"><stop stop-color="#F1F5F9"/><stop offset="1" stop-color="#A7C1DB"/></linearGradient></defs></svg>