<svg width="88" height="28" viewBox="0 0 88 28" fill="none" xmlns="http://www.w3.org/2000/svg"><g clip-path="url(#clip0_79_50)"><path d="M87.93 22.302h-3.32a3.797 3.797 0 01-.56 2.37 2.29 2.29 0 01-1.84.659 2.441 2.441 0 01-2.09-.91 4.637 4.637 0 01-.69-2.829v-4.698a4.997 4.997 0 01.64-2.819 2.2 2.2 0 011.93-.91 2.58 2.58 0 012 .67 3.56 3.56 0 01.6 2.35H88v-.07a5.286 5.286 0 00-1.51-4.22A6.511 6.511 0 0082 10.507a5.822 5.822 0 00-4.38 1.68A6.556 6.556 0 0076 16.914v4.688a6.375 6.375 0 001.68 4.719 6.15 6.15 0 004.53 1.669 6.001 6.001 0 004.29-1.4 5.337 5.337 0 001.5-4.208l-.07-.08zm-50.26-5.008l.07.02V28h3.31V11.016h-3.31l-5.39 10.736-.07-.01V11.016h-3.29V28h3.29l5.39-10.706zM47.42 28V17.384l.07-.01L50.54 28h2.22l3.06-10.706.07.02V28h3.28V11.016h-4.32l-3.19 12.606h-.07l-3.16-12.606h-4.29V28h3.28zm14.73-.01a4.57 4.57 0 003.52-2.17c.92-1.452 1.37-3.838 1.35-7.157v-5.078h3.68V27.99H74V10.996H63.68v7.657a21.02 21.02 0 01-.4 5.368 1.75 1.75 0 01-1.8 1.4h-.4v2.569h1.07z" fill="#152F46"/><path fill-rule="evenodd" clip-rule="evenodd" d="M16 27.99H0V9.996l16 6.438V27.99z" fill="#EC1C24"/><path fill-rule="evenodd" clip-rule="evenodd" d="M22 27.99H6V6.098L22 0v27.99z" fill="#EDEDED"/><path fill-rule="evenodd" clip-rule="evenodd" d="M6 12.425l10 4.14V27.99H6V12.426z" fill="#00ADEE"/></g><defs><clipPath id="clip0_79_50"><path fill="#fff" d="M0 0h88v28H0z"/></clipPath></defs></svg>