<svg width="24" height="24" viewBox="0 0 24 24" fill="none" xmlns="http://www.w3.org/2000/svg"><path d="M0 12C0 5.373 5.373 0 12 0s12 5.373 12 12-5.373 12-12 12S0 18.627 0 12z" fill="#F00075"/><path fill-rule="evenodd" clip-rule="evenodd" d="M12 5.6c-1.738 0-1.956.008-2.638.039-.682.03-1.147.139-1.554.297-.42.163-.778.382-1.134.738a3.142 3.142 0 00-.738 1.134c-.159.407-.267.872-.298 1.553-.03.683-.038.9-.038 2.639 0 1.738.008 1.956.039 2.638.03.682.139 1.147.297 1.554.164.42.382.778.738 1.133.356.356.713.576 1.133.739.408.158.873.266 1.554.297.683.031.9.039 2.639.039 1.738 0 1.956-.008 2.638-.039.681-.03 1.147-.139 1.554-.297a3.13 3.13 0 001.133-.739c.356-.355.575-.712.739-1.133.157-.407.265-.873.297-1.554.03-.682.039-.9.039-2.638s-.008-1.956-.039-2.639c-.032-.681-.14-1.146-.297-1.553a3.141 3.141 0 00-.739-1.134 3.128 3.128 0 00-1.133-.738c-.408-.158-.873-.266-1.555-.297-.683-.031-.9-.04-2.639-.04h.003zm-.213 1.153h.214c1.708 0 1.91.006 2.586.037.624.028.962.133 1.188.22.299.116.512.255.736.479.224.224.362.437.478.736.088.225.192.564.22 1.188.032.675.038.877.038 2.585s-.006 1.911-.037 2.586c-.029.624-.133.962-.22 1.188a1.98 1.98 0 01-.48.735 1.98 1.98 0 01-.735.479c-.225.088-.564.192-1.188.22-.675.03-.878.038-2.586.038-1.71 0-1.912-.007-2.587-.038-.624-.029-.962-.133-1.188-.22a1.982 1.982 0 01-.736-.48 1.985 1.985 0 01-.479-.735c-.088-.225-.192-.564-.22-1.188-.031-.674-.037-.877-.037-2.586 0-1.71.006-1.91.037-2.586.028-.624.132-.962.22-1.188a1.98 1.98 0 01.479-.736 1.98 1.98 0 01.736-.479c.226-.088.564-.192 1.188-.22.59-.027.82-.035 2.012-.036v.001h.361zm2.862 1.83zM12 8.714a3.287 3.287 0 100 6.574 3.287 3.287 0 000-6.574zM14.134 12a2.133 2.133 0 10-4.267 0 2.133 2.133 0 004.267 0z" fill="#fff"/></svg>