<svg width="40" height="24" viewBox="0 0 40 24" fill="none" xmlns="http://www.w3.org/2000/svg"><path d="M22.329 12c0 3.703-2.968 6.706-6.629 6.706-3.66 0-6.629-3.003-6.629-6.706 0-3.704 2.968-6.706 6.63-6.706 3.66 0 6.628 3.002 6.628 6.706z" fill="#ED0006"/><path d="M30.928 12c0 3.703-2.967 6.706-6.628 6.706S17.67 15.703 17.67 12c0-3.704 2.969-6.706 6.63-6.706 3.66 0 6.628 3.002 6.628 6.706z" fill="#0099DF"/><path fill-rule="evenodd" clip-rule="evenodd" d="M20 6.896a6.723 6.723 0 012.329 5.103 6.723 6.723 0 01-2.33 5.104A6.723 6.723 0 0117.672 12c0-2.043.904-3.874 2.329-5.103z" fill="#6C6BBD"/></svg>