<svg width="40" height="24" viewBox="0 0 40 24" fill="none" xmlns="http://www.w3.org/2000/svg"><path fill-rule="evenodd" clip-rule="evenodd" d="M19.986 18.088A7.775 7.775 0 0114.876 20C10.526 20 7 16.418 7 12s3.526-8 7.876-8c1.95 0 3.734.72 5.11 1.911A7.774 7.774 0 0125.095 4c4.35 0 7.876 3.582 7.876 8s-3.526 8-7.876 8c-1.95 0-3.734-.72-5.11-1.912z" fill="#ED0006"/><path fill-rule="evenodd" clip-rule="evenodd" d="M19.924 18.14A8.033 8.033 0 0022.752 12c0-2.467-1.1-4.673-2.828-6.14A7.917 7.917 0 0125.032 4C29.432 4 33 7.582 33 12s-3.567 8-7.968 8a7.917 7.917 0 01-5.108-1.86z" fill="#F9A000"/><path fill-rule="evenodd" clip-rule="evenodd" d="M19.986 5.91a8.034 8.034 0 012.767 6.088 8.034 8.034 0 01-2.767 6.088 8.034 8.034 0 01-2.767-6.089 8.034 8.034 0 012.767-6.088z" fill="#FF5E00"/></svg>