<svg width="48" height="49" viewBox="0 0 48 49" fill="none" xmlns="http://www.w3.org/2000/svg"><rect y=".5" width="48" height="48" rx="24" fill="#EEF6FC"/><path fill-rule="evenodd" clip-rule="evenodd" d="M23.986 31.088A7.775 7.775 0 0118.876 33C14.526 33 11 29.418 11 25c0-4.417 3.526-8 7.876-8 1.95 0 3.734.72 5.11 1.911A7.774 7.774 0 0129.095 17c4.35 0 7.876 3.582 7.876 8s-3.526 8-7.876 8c-1.95 0-3.734-.72-5.11-1.912z" fill="#ED0006"/><path fill-rule="evenodd" clip-rule="evenodd" d="M23.924 31.14A8.033 8.033 0 0026.752 25c0-2.467-1.1-4.673-2.828-6.14A7.917 7.917 0 0129.032 17c4.4 0 7.968 3.582 7.968 8s-3.567 8-7.968 8a7.917 7.917 0 01-5.108-1.86z" fill="#F9A000"/><path fill-rule="evenodd" clip-rule="evenodd" d="M23.986 18.91a8.033 8.033 0 012.767 6.088 8.034 8.034 0 01-2.767 6.088 8.034 8.034 0 01-2.767-6.089 8.034 8.034 0 012.767-6.088z" fill="#FF5E00"/></svg>