<svg width="83" height="26" viewBox="0 0 83 26" fill="none" xmlns="http://www.w3.org/2000/svg"><path d="M70 25c6.627 0 12-5.373 12-12S76.627 1 70 1 58 6.373 58 13s5.373 12 12 12z" fill="url(#paint0_linear_416_519)" stroke="#fff"/><path d="M68.882 9.5L63 16l5.354-3.066L71.15 16 77 9.5l-5.294 3.012L68.882 9.5z" fill="#fff"/><path d="M51 1c6.627 0 12 5.373 12 12s-5.373 12-12 12-12-5.373-12-12S44.373 1 51 1z" fill="#7F4DA0" stroke="#fff"/><path d="M54.197 11.48c-.058-.475-.204-.847-.463-1.177-.336-.425-.765-.679-1.401-.83-.414-.1-.582-.089-.732.048-.14.128-.167.385-.06.552.075.12.162.164.402.211.32.06.542.136.744.251.428.247.627.634.648 1.26.01.293.035.383.138.488.19.19.529.153.672-.075.053-.086.061-.123.067-.323a3.164 3.164 0 00-.015-.406z" fill="#fff"/><path d="M55.872 12.014c-.084-1.453-.653-2.622-1.67-3.444a4.706 4.706 0 00-2.024-.934c-.278-.056-.79-.1-.878-.075a.54.54 0 00-.252.195.53.53 0 00-.02.398c.075.19.217.257.613.292a3.79 3.79 0 011.718.586c.543.362.975.857 1.255 1.438.242.5.39 1.22.386 1.865-.001.233.035.365.129.461a.43.43 0 00.53.082c.202-.106.249-.292.213-.864zm1.854 5.594a1.596 1.596 0 00-.142-.285c-.298-.45-1.902-1.705-2.702-2.115-.457-.235-.796-.313-1.047-.24-.27.076-.412.202-.864.764-.183.225-.37.436-.42.47a1.104 1.104 0 01-.535.154c-.395-.003-1.113-.259-1.665-.596-.428-.26-.978-.728-1.4-1.19-.497-.543-.835-1.023-1.103-1.563-.346-.695-.433-1.12-.289-1.43.035-.079.083-.162.104-.188.022-.024.244-.206.49-.406.484-.384.562-.472.652-.735.113-.334.083-.676-.093-1.02a14.61 14.61 0 00-.743-1.198c-.339-.484-1.182-1.518-1.35-1.658-.303-.246-.692-.289-1.12-.123-.453.176-1.3.859-1.663 1.335-.327.432-.452.738-.471 1.141-.017.332.011.47.187.895 1.371 3.33 3.417 5.989 6.229 8.1 1.468 1.103 2.99 1.942 4.57 2.516.922.335 1.322.351 1.793.076.2-.118.692-.624.967-.991.454-.612.622-.895.67-1.12a1.29 1.29 0 00-.055-.593z" fill="#fff"/><path d="M57.578 12.347a6.615 6.615 0 00-.458-2.247c-.284-.739-.573-1.221-1.117-1.874-.515-.612-.914-.96-1.548-1.35-.885-.541-1.962-.9-3.168-1.05-.411-.053-.504-.05-.63.035-.245.16-.242.557.003.714.082.05.154.069.483.112.505.068.83.132 1.215.237 1.512.413 2.674 1.258 3.451 2.511.65 1.045.92 2.09.882 3.425-.013.452-.004.53.066.64.132.201.48.241.659.074.11-.102.132-.18.154-.565a9.81 9.81 0 00.008-.662z" fill="#fff"/><path d="M32 25c6.627 0 12-5.373 12-12S38.627 1 32 1 20 6.373 20 13s5.373 12 12 12z" fill="#25D366" stroke="#fff"/><path fill-rule="evenodd" clip-rule="evenodd" d="M32.395 19.676h-.003a7.13 7.13 0 01-3.41-.868L25.2 19.8l1.012-3.697a7.122 7.122 0 01-.952-3.568c0-3.934 3.202-7.135 7.135-7.135a7.09 7.09 0 015.048 2.093 7.092 7.092 0 012.088 5.048c-.002 3.933-3.201 7.134-7.136 7.135zm-3.237-2.16l.216.129c.911.54 1.955.826 3.019.826h.002a5.94 5.94 0 005.931-5.93 5.895 5.895 0 00-1.735-4.196 5.89 5.89 0 00-4.193-1.74 5.94 5.94 0 00-5.934 5.93c0 1.121.314 2.213.907 3.157l.141.224-.599 2.189 2.245-.589zm6.588-3.439c.124.06.208.1.244.16.045.075.045.432-.104.849-.148.416-.86.796-1.203.847a2.442 2.442 0 01-1.123-.07 10.254 10.254 0 01-1.017-.376c-1.671-.722-2.8-2.342-3.014-2.648a1.765 1.765 0 00-.031-.044l-.002-.002c-.094-.126-.726-.97-.726-1.842 0-.822.403-1.252.589-1.45l.035-.038a.655.655 0 01.475-.223c.119 0 .238.001.342.006h.04c.104 0 .233 0 .361.306l.197.478c.153.374.323.787.353.846.044.09.074.194.015.313l-.026.05a1.013 1.013 0 01-.153.247l-.091.11c-.061.075-.123.15-.176.202-.09.09-.182.186-.078.364.104.179.462.763.992 1.235a4.58 4.58 0 001.316.832l.117.053c.178.09.283.075.387-.044.104-.12.445-.52.564-.7.119-.178.238-.148.401-.089.164.06 1.04.491 1.219.58.034.018.067.034.097.048z" fill="#FDFDFD"/><path d="M13 25c6.627 0 12-5.373 12-12S19.627 1 13 1 1 6.373 1 13s5.373 12 12 12z" fill="url(#paint1_linear_416_519)" stroke="#fff"/><path d="M5.47 13.587c1.402-.773 2.968-1.418 4.43-2.066 2.518-1.061 5.045-2.105 7.598-3.076.496-.166 1.389-.327 1.476.409-.048 1.041-.245 2.077-.38 3.113-.343 2.277-.74 4.547-1.127 6.817-.133.757-1.08 1.148-1.686.664-1.457-.984-2.925-1.958-4.363-2.965-.47-.479-.034-1.166.387-1.508 1.2-1.182 2.472-2.186 3.609-3.43.307-.74-.6-.116-.899.075-1.642 1.132-3.244 2.333-4.976 3.327-.884.487-1.915.071-2.8-.2-.792-.329-1.954-.66-1.27-1.16z" fill="#fff"/><defs><linearGradient id="paint0_linear_416_519" x1="59.339" y1="2.622" x2="59.339" y2="23.944" gradientUnits="userSpaceOnUse"><stop stop-color="#00C6FF"/><stop offset="1" stop-color="#0068FF"/></linearGradient><linearGradient id="paint1_linear_416_519" x1="10.001" y1="2.001" x2="4.001" y2="16" gradientUnits="userSpaceOnUse"><stop stop-color="#37AEE2"/><stop offset="1" stop-color="#1E96C8"/></linearGradient></defs></svg>