<svg width="48" height="49" viewBox="0 0 48 49" fill="none" xmlns="http://www.w3.org/2000/svg"><rect y=".5" width="48" height="48" rx="24" fill="#EEF6FC"/><path d="M39.146 19.57H31.93c.42 2.382 2.733 4.624 5.255 4.624h5.746c.07-.21.07-.56.07-.77 0-2.103-1.752-3.855-3.854-3.855z" fill="url(#paint0_linear_695_651)"/><path d="M32.56 24.613v5.816h3.503v-3.083h3.083c1.682 0 3.153-1.191 3.644-2.733H32.56zM20.229 19.57v10.79h3.083s.77 0 1.19-.77c2.103-4.135 2.733-5.396 2.733-5.396h.42v6.166h3.504V19.57h-3.083s-.77.07-1.191.77c-1.752 3.574-2.733 5.395-2.733 5.395h-.42V19.57h-3.503zM5.514 30.43V19.64h3.503s.981 0 1.542 1.541c1.401 4.064 1.541 4.625 1.541 4.625s.28-.981 1.542-4.625c.56-1.541 1.541-1.541 1.541-1.541h3.504v10.79h-3.504v-5.816h-.42L12.8 30.43h-1.542l-1.962-5.816h-.42v5.816H5.514z" fill="#4FAD50"/><defs><linearGradient id="paint0_linear_695_651" x1="31.917" y1="21.915" x2="42.975" y2="21.915" gradientUnits="userSpaceOnUse"><stop stop-color="#27B1E6"/><stop offset="1" stop-color="#148ACA"/></linearGradient></defs></svg>