<svg width="40" height="24" viewBox="0 0 40 24" fill="none" xmlns="http://www.w3.org/2000/svg"><path d="M31.122 7.943H25.73c.314 1.78 2.041 3.455 3.925 3.455h4.292c.052-.157.052-.42.052-.576 0-1.57-1.308-2.879-2.878-2.879z" fill="url(#paint0_linear_700_680)"/><path d="M26.202 11.71v4.345h2.616v-2.303h2.303c1.256 0 2.356-.89 2.722-2.041h-7.641zm-9.211-3.767v8.06h2.303s.576 0 .89-.575c1.57-3.088 2.04-4.03 2.04-4.03h.315v4.605h2.617v-8.06h-2.303s-.576.053-.89.576c-1.308 2.67-2.04 4.03-2.04 4.03h-.315V7.943h-2.617zM6 16.056v-8.06h2.617s.733 0 1.151 1.152c1.047 3.035 1.152 3.454 1.152 3.454s.209-.733 1.151-3.454c.419-1.152 1.152-1.152 1.152-1.152h2.616v8.06h-2.617v-4.344h-.313l-1.466 4.344h-1.151l-1.466-4.344h-.314v4.344H6z" fill="#4FAD50"/><defs><linearGradient id="paint0_linear_700_680" x1="25.722" y1="9.695" x2="33.982" y2="9.695" gradientUnits="userSpaceOnUse"><stop stop-color="#27B1E6"/><stop offset="1" stop-color="#148ACA"/></linearGradient></defs></svg>