<svg width="48" height="49" viewBox="0 0 48 49" fill="none" xmlns="http://www.w3.org/2000/svg"><rect y=".5" width="48" height="48" rx="24" fill="#EEF6FC"/><path d="M34.881 17.58c0 .138 0 .276-.138.414-1.105 5.523-4.694 7.317-9.388 7.317h-2.347c-.552 0-1.105.415-1.105.967l-1.242 7.731-.276 2.21c0 .413.276.69.552.69h4.28c.552 0 .966-.415.966-.829v-.276l.829-4.97v-.276c.138-.552.552-.829.966-.829h.69c4.142 0 7.318-1.656 8.146-6.488.414-2.071.138-3.728-.828-4.833-.277-.276-.69-.552-1.105-.828z" fill="#2199D6"/><path d="M33.776 17.166c-.138 0-.276-.138-.552-.138-.138 0-.414-.138-.552-.138-.69-.138-1.381-.138-2.071-.138H24.25c-.138 0-.276 0-.414.138-.276.138-.553.414-.553.69l-1.38 8.56v.276c.138-.552.552-.966 1.104-.966h2.347c4.694 0 8.284-1.933 9.388-7.317 0-.139 0-.277.139-.415l-.829-.414c-.138-.138-.276-.138-.276-.138z" fill="#252C5E"/><path d="M23.284 17.58c0-.275.276-.552.552-.69.138 0 .276-.138.414-.138h6.35c.691 0 1.52 0 2.072.138.138 0 .414 0 .552.138.138 0 .276.138.552.138.138 0 .138 0 .276.139l.829.414c.276-2.071 0-3.452-1.105-4.694-1.242-1.381-3.451-1.933-6.213-1.933h-8.145c-.552 0-1.105.414-1.105.966L15 33.32c0 .415.276.829.69.829h4.97l1.243-8.008 1.38-8.56z" fill="#263577"/></svg>