<svg width="48" height="49" viewBox="0 0 48 49" fill="none" xmlns="http://www.w3.org/2000/svg"><rect y=".5" width="48" height="48" rx="24" fill="#EEF6FC"/><path d="M17.803 11h11.72c.996 0 1.803.807 1.803 1.803v22.539c0 .995-.807 1.803-1.803 1.803h-11.72A1.803 1.803 0 0116 35.342V12.803c0-.996.807-1.803 1.803-1.803z" fill="#35495E"/><path d="M19.28 12.352a.45.45 0 01.428.309l.141.425a.906.906 0 00.857.618h5.914a.906.906 0 00.856-.618l.141-.425a.45.45 0 01.428-.31h1.478c.248.001.45.203.45.451v22.539a.45.45 0 01-.45.45h-11.72a.452.452 0 01-.45-.45V12.802a.45.45 0 01.45-.45h1.477z" fill="#90BAE1"/><path d="M25.918 12.802a.447.447 0 01-.451-.45.474.474 0 01.13-.32.472.472 0 01.64 0 .457.457 0 010 .64.475.475 0 01-.32.13z" fill="#A5A5A4"/></svg>