<svg width="48" height="49" viewBox="0 0 48 49" fill="none" xmlns="http://www.w3.org/2000/svg"><rect y=".5" width="48" height="48" rx="24" fill="#EEF6FC"/><path fill-rule="evenodd" clip-rule="evenodd" d="M11 24.49c0 6.843 5.704 12.424 12.767 12.424.867 0 1.733-.075 2.73-.16 1.11-.095 2.382-.204 3.993-.239 2.445 0 5.093.864 8.013 3.388.272.266.68-.066.407-.398-2.92-3.521-5.568-4.186-8.216-4.784-3.26-.73-4.958-2.458-6.112-4.45-.204-.4-.34-.333-.34.198-.068.798 0 1.528.136 2.26h-.407c-4.618 0-8.421-3.721-8.421-8.239 0-4.518 3.803-8.238 8.42-8.238 4.618 0 8.421 3.72 8.421 8.238 0 .266 0 .598-.068.93-.679-.133-1.833-.133-2.716-.066-.34 0-.34.133-.068.2 2.716.53 4.618 2.192 5.093 5.248 0 .133.068.133.136.066 1.087-1.86 1.766-4.053 1.766-6.378 0-6.91-5.705-12.49-12.767-12.49C16.704 12 11 17.647 11 24.49zm21.36 4.09c.526.226.752.978.752 1.354.075.601-.076.902-.301.902-.226 0-.526-.226-.827-.752-.301-.526-.451-1.053-.301-1.354.226-.15.451-.225.677-.15zm-3.083 2.33c.3 0 .677.151 1.053.452.601.526.827 1.128.526 1.579-.15.225-.526.376-.827.376-.376 0-.752-.15-.977-.376-.602-.526-.752-1.278-.376-1.73.075-.15.3-.3.601-.3z" fill="#F28A1A"/></svg>