<svg width="16" height="15" viewBox="0 0 16 15" fill="none" xmlns="http://www.w3.org/2000/svg">
<path fill-rule="evenodd" clip-rule="evenodd" d="M2.72729 3.40936C2.72729 3.0328 3.03256 2.72754 3.40911 2.72754H6.13639C6.51294 2.72754 6.8182 3.0328 6.8182 3.40936V6.13663C6.8182 6.51319 6.51294 6.81845 6.13639 6.81845H3.40911C3.03256 6.81845 2.72729 6.51319 2.72729 6.13663V3.40936ZM4.09093 4.09118V5.45481H5.45457V4.09118H4.09093Z" fill="#434343"/>
<path fill-rule="evenodd" clip-rule="evenodd" d="M2.72729 8.86346C2.72729 8.4869 3.03256 8.18164 3.40911 8.18164H6.13639C6.51294 8.18164 6.8182 8.4869 6.8182 8.86346V11.5907C6.8182 11.9673 6.51294 12.2725 6.13639 12.2725H3.40911C3.03256 12.2725 2.72729 11.9673 2.72729 11.5907V8.86346ZM4.09093 9.54528V10.9089H5.45457V9.54528H4.09093Z" fill="#434343"/>
<path fill-rule="evenodd" clip-rule="evenodd" d="M12.2727 6.13654C12.2727 6.5131 11.9674 6.81836 11.5909 6.81836H8.86361C8.48706 6.81836 8.1818 6.5131 8.1818 6.13654V3.40927C8.1818 3.03271 8.48706 2.72745 8.86361 2.72745H11.5909C11.9674 2.72745 12.2727 3.03271 12.2727 3.40927V6.13654ZM10.9091 5.45472V4.09109H9.54543V5.45472H10.9091Z" fill="#434343"/>
<path d="M10.7093 9.7456C10.9756 10.0119 10.9756 10.4436 10.7093 10.7098C10.4431 10.9761 10.0114 10.9761 9.74511 10.7098C9.47884 10.4436 9.47884 10.0119 9.74511 9.7456C10.0114 9.47933 10.4431 9.47933 10.7093 9.7456Z" fill="#434343"/>
<path d="M9.3457 8.38134C9.61197 8.6476 9.61197 9.07931 9.3457 9.34558C9.07944 9.61184 8.64773 9.61184 8.38146 9.34558C8.1152 9.07931 8.1152 8.6476 8.38146 8.38134C8.64773 8.11507 9.07944 8.11507 9.3457 8.38134Z" fill="#434343"/>
<path d="M9.3457 11.1089C9.61197 11.3751 9.61197 11.8069 9.3457 12.0731C9.07944 12.3394 8.64773 12.3394 8.38146 12.0731C8.1152 11.8069 8.1152 11.3751 8.38146 11.1089C8.64773 10.8426 9.07944 10.8426 9.3457 11.1089Z" fill="#434343"/>
<path d="M12.073 11.1089C12.3393 11.3751 12.3393 11.8069 12.073 12.0731C11.8067 12.3394 11.375 12.3394 11.1088 12.0731C10.8425 11.8069 10.8425 11.3751 11.1088 11.1089C11.375 10.8426 11.8067 10.8426 12.073 11.1089Z" fill="#434343"/>
<path fill-rule="evenodd" clip-rule="evenodd" d="M10.2273 0.681818C10.2273 0.30526 10.5326 0 10.9091 0H12.9546C14.0845 0 15 0.915488 15 2.04545V4.41682C15 4.79338 14.6948 5.09864 14.3182 5.09864C13.9416 5.09864 13.6364 4.79338 13.6364 4.41682V2.04545C13.6364 1.6686 13.3314 1.36364 12.9546 1.36364H10.9091C10.5326 1.36364 10.2273 1.05838 10.2273 0.681818Z" fill="#434343"/>
<path fill-rule="evenodd" clip-rule="evenodd" d="M0 2.04545C0 0.915488 0.915488 0 2.04545 0H4.41682C4.79338 0 5.09864 0.30526 5.09864 0.681818C5.09864 1.05838 4.79338 1.36364 4.41682 1.36364H2.04545C1.6686 1.36364 1.36364 1.6686 1.36364 2.04545V4.41682C1.36364 4.79338 1.05838 5.09864 0.681818 5.09864C0.30526 5.09864 0 4.79338 0 4.41682V2.04545Z" fill="#434343"/>
<path fill-rule="evenodd" clip-rule="evenodd" d="M0.681818 9.5459C1.05838 9.5459 1.36364 9.85116 1.36364 10.2277V12.955C1.36364 13.3318 1.6686 13.6368 2.04545 13.6368H4.41682C4.79338 13.6368 5.09864 13.9421 5.09864 14.3186C5.09864 14.6952 4.79338 15.0004 4.41682 15.0004H2.04545C0.915488 15.0004 0 14.085 0 12.955V10.2277C0 9.85116 0.30526 9.5459 0.681818 9.5459Z" fill="#434343"/>
<path fill-rule="evenodd" clip-rule="evenodd" d="M14.3181 9.5459C14.6947 9.5459 15 9.85116 15 10.2277V12.955C15 14.085 14.0845 15.0004 12.9545 15.0004H10.2272C9.85067 15.0004 9.54541 14.6952 9.54541 14.3186C9.54541 13.9421 9.85067 13.6368 10.2272 13.6368H12.9545C13.3314 13.6368 13.6363 13.3318 13.6363 12.955V10.2277C13.6363 9.85116 13.9416 9.5459 14.3181 9.5459Z" fill="#434343"/>
<path d="M12.073 8.38134C12.3393 8.6476 12.3393 9.07931 12.073 9.34558C11.8067 9.61184 11.375 9.61184 11.1088 9.34558C10.8425 9.07931 10.8425 8.6476 11.1088 8.38134C11.375 8.11507 11.8067 8.11507 12.073 8.38134Z" fill="#434343"/>
</svg>
