<svg width="48" height="48" viewBox="0 0 48 48" fill="none" xmlns="http://www.w3.org/2000/svg">
<g clip-path="url(#clip0_50_65)">
<path d="M48 24C48 10.7452 37.2548 0 24 0C10.7452 0 0 10.7452 0 24C0 37.2548 10.7452 48 24 48C37.2548 48 48 37.2548 48 24Z" fill="#EEF6FC"/>
<path fill-rule="evenodd" clip-rule="evenodd" d="M17 18C17 17.4477 17.4477 17 18 17H22C22.5523 17 23 17.4477 23 18V22C23 22.5523 22.5523 23 22 23H18C17.4477 23 17 22.5523 17 22V18ZM19 19V21H21V19H19Z" fill="#434343"/>
<path fill-rule="evenodd" clip-rule="evenodd" d="M17 26C17 25.4477 17.4477 25 18 25H22C22.5523 25 23 25.4477 23 26V30C23 30.5523 22.5523 31 22 31H18C17.4477 31 17 30.5523 17 30V26ZM19 27V29H21V27H19Z" fill="#434343"/>
<path fill-rule="evenodd" clip-rule="evenodd" d="M31 22C31 22.5523 30.5523 23 30 23H26C25.4477 23 25 22.5523 25 22V18C25 17.4477 25.4477 17 26 17H30C30.5523 17 31 17.4477 31 18V22ZM29 21V19H27V21H29Z" fill="#434343"/>
<path d="M28.7071 27.2929C29.0976 27.6834 29.0976 28.3166 28.7071 28.7071C28.3166 29.0976 27.6834 29.0976 27.2929 28.7071C26.9024 28.3166 26.9024 27.6834 27.2929 27.2929C27.6834 26.9024 28.3166 26.9024 28.7071 27.2929Z" fill="#434343"/>
<path d="M26.7071 25.2929C27.0976 25.6834 27.0976 26.3166 26.7071 26.7071C26.3166 27.0976 25.6834 27.0976 25.2929 26.7071C24.9024 26.3166 24.9024 25.6834 25.2929 25.2929C25.6834 24.9024 26.3166 24.9024 26.7071 25.2929Z" fill="#434343"/>
<path d="M26.7071 29.2929C27.0976 29.6834 27.0976 30.3166 26.7071 30.7071C26.3166 31.0976 25.6834 31.0976 25.2929 30.7071C24.9024 30.3166 24.9024 29.6834 25.2929 29.2929C25.6834 28.9024 26.3166 28.9024 26.7071 29.2929Z" fill="#434343"/>
<path d="M30.7071 29.2929C31.0976 29.6834 31.0976 30.3166 30.7071 30.7071C30.3166 31.0976 29.6834 31.0976 29.2929 30.7071C28.9024 30.3166 28.9024 29.6834 29.2929 29.2929C29.6834 28.9024 30.3166 28.9024 30.7071 29.2929Z" fill="#434343"/>
<path fill-rule="evenodd" clip-rule="evenodd" d="M28 14C28 13.4477 28.4477 13 29 13H32C33.6573 13 35 14.3427 35 16V19.478C35 20.0303 34.5523 20.478 34 20.478C33.4477 20.478 33 20.0303 33 19.478V16C33 15.4473 32.5527 15 32 15H29C28.4477 15 28 14.5523 28 14Z" fill="#434343"/>
<path fill-rule="evenodd" clip-rule="evenodd" d="M13 16C13 14.3427 14.3427 13 16 13H19.478C20.0303 13 20.478 13.4477 20.478 14C20.478 14.5523 20.0303 15 19.478 15H16C15.4473 15 15 15.4473 15 16V19.478C15 20.0303 14.5523 20.478 14 20.478C13.4477 20.478 13 20.0303 13 19.478V16Z" fill="#434343"/>
<path fill-rule="evenodd" clip-rule="evenodd" d="M14 27C14.5523 27 15 27.4477 15 28V32C15 32.5527 15.4473 33 16 33H19.478C20.0303 33 20.478 33.4477 20.478 34C20.478 34.5523 20.0303 35 19.478 35H16C14.3427 35 13 33.6573 13 32V28C13 27.4477 13.4477 27 14 27Z" fill="#434343"/>
<path fill-rule="evenodd" clip-rule="evenodd" d="M34 27C34.5523 27 35 27.4477 35 28V32C35 33.6573 33.6573 35 32 35H28C27.4477 35 27 34.5523 27 34C27 33.4477 27.4477 33 28 33H32C32.5527 33 33 32.5527 33 32V28C33 27.4477 33.4477 27 34 27Z" fill="#434343"/>
<path d="M30.7071 25.2929C31.0976 25.6834 31.0976 26.3166 30.7071 26.7071C30.3166 27.0976 29.6834 27.0976 29.2929 26.7071C28.9024 26.3166 28.9024 25.6834 29.2929 25.2929C29.6834 24.9024 30.3166 24.9024 30.7071 25.2929Z" fill="#434343"/>
</g>
<defs>
<clipPath id="clip0_50_65">
<rect width="48" height="48" fill="white"/>
</clipPath>
</defs>
</svg>
