<svg width="48" height="49" viewBox="0 0 48 49" fill="none" xmlns="http://www.w3.org/2000/svg"><rect y=".5" width="48" height="48" rx="24" fill="#EEF6FC"/><g clip-path="url(#clip0_207_2999)"><path d="M36.908 14.354a16.45 16.45 0 011.934 3.252l-14.7 10.982-6.144-3.902V19.99l6.144 3.903 12.766-9.539z" fill="#21A038"/><path d="M11.728 24.354c0-.21.005-.42.015-.628L8.02 23.54a16.501 16.501 0 001.206 7.074 16.364 16.364 0 003.5 5.302l2.642-2.676a12.544 12.544 0 01-2.695-4.075 12.68 12.68 0 01-.945-4.812z" fill="url(#paint0_linear_207_2999)"/><path d="M24.139 11.778c.207 0 .414.008.62.018l.186-3.775a15.908 15.908 0 00-6.983 1.222 16.08 16.08 0 00-5.235 3.548l2.641 2.677a12.355 12.355 0 014.022-2.732 12.225 12.225 0 014.749-.958z" fill="url(#paint1_linear_207_2999)"/><path d="M24.139 36.932c-.208 0-.415 0-.621-.017l-.187 3.773a15.898 15.898 0 006.982-1.221 16.072 16.072 0 005.231-3.549l-2.636-2.675a12.363 12.363 0 01-4.021 2.731 12.228 12.228 0 01-4.748.958z" fill="url(#paint2_linear_207_2999)"/><path d="M31.134 13.972l3.137-2.344A15.933 15.933 0 0024.133 8v3.777c2.5-.003 4.94.762 7 2.195z" fill="url(#paint3_linear_207_2999)"/><path d="M40.276 24.355a16.67 16.67 0 00-.253-2.931l-3.474 2.594v.337a12.666 12.666 0 01-1.067 5.1 12.538 12.538 0 01-3.021 4.221l2.505 2.806a16.306 16.306 0 003.927-5.492 16.498 16.498 0 001.383-6.635z" fill="#21A038"/><path d="M24.139 36.932c-1.735 0-3.45-.368-5.034-1.081a12.392 12.392 0 01-4.165-3.062l-2.768 2.538a16.104 16.104 0 005.419 3.98 15.913 15.913 0 006.548 1.402v-3.777z" fill="url(#paint4_linear_207_2999)"/><path d="M15.816 15.033l-2.504-2.806a16.304 16.304 0 00-3.928 5.491A16.498 16.498 0 008 24.354h3.728a12.7 12.7 0 011.067-5.1 12.538 12.538 0 013.021-4.221z" fill="url(#paint5_linear_207_2999)"/></g><defs><linearGradient id="paint0_linear_207_2999" x1="13.481" y1="35.445" x2="9.31" y2="23.547" gradientUnits="userSpaceOnUse"><stop offset=".14" stop-color="#F1E813"/><stop offset=".3" stop-color="#E6E418"/><stop offset=".58" stop-color="#C9DA26"/><stop offset=".89" stop-color="#A2CC39"/></linearGradient><linearGradient id="paint1_linear_207_2999" x1="13.791" y1="13.459" x2="24.318" y2="9.501" gradientUnits="userSpaceOnUse"><stop offset=".06" stop-color="#0FA7DF"/><stop offset=".54" stop-color="#0098F8"/><stop offset=".92" stop-color="#0290EA"/></linearGradient><linearGradient id="paint2_linear_207_2999" x1="23.086" y1="38.429" x2="34.965" y2="35.781" gradientUnits="userSpaceOnUse"><stop offset=".12" stop-color="#A2CC39"/><stop offset=".28" stop-color="#86C239"/><stop offset=".87" stop-color="#219F38"/></linearGradient><linearGradient id="paint3_linear_207_2999" x1="23.358" y1="9.265" x2="33.524" y2="12.361" gradientUnits="userSpaceOnUse"><stop offset=".06" stop-color="#0290EA"/><stop offset=".79" stop-color="#0C89CA"/></linearGradient><linearGradient id="paint4_linear_207_2999" x1="13.107" y1="34.867" x2="24.183" y2="38.952" gradientUnits="userSpaceOnUse"><stop offset=".13" stop-color="#F1E813"/><stop offset=".3" stop-color="#EAE616"/><stop offset=".53" stop-color="#D8DF1F"/><stop offset=".8" stop-color="#BAD52D"/><stop offset=".98" stop-color="#A2CC39"/></linearGradient><linearGradient id="paint5_linear_207_2999" x1="9.389" y1="24.811" x2="13.925" y2="13.169" gradientUnits="userSpaceOnUse"><stop offset=".07" stop-color="#A2CC39"/><stop offset=".26" stop-color="#81C45E"/><stop offset=".92" stop-color="#0FA7DF"/></linearGradient><clipPath id="clip0_207_2999"><path fill="#fff" transform="translate(8 8)" d="M0 0h32v33H0z"/></clipPath></defs></svg>