<svg width="24" height="24" viewBox="0 0 24 24" fill="none" xmlns="http://www.w3.org/2000/svg"><path d="M12 24c6.627 0 12-5.373 12-12S18.627 0 12 0 0 5.373 0 12s5.373 12 12 12z" fill="#28A8EA"/><path fill-rule="evenodd" clip-rule="evenodd" d="M9.322 11.82a3.197 3.197 0 01-.984-1.071 3.037 3.037 0 01-.337-1.48 2.713 2.713 0 01.608-1.792 3.652 3.652 0 011.584-1.092 5.948 5.948 0 012.073-.36c.462-.004.924.032 1.38.11.326.051.647.137.957.254.284.1.541.269.748.494.153.184.235.42.232.663a.989.989 0 01-.243.691.81.81 0 01-.612.263 1.073 1.073 0 01-.455-.105 8.077 8.077 0 00-1.082-.408 3.814 3.814 0 00-1.042-.134 2.323 2.323 0 00-1.306.344 1.107 1.107 0 00-.394.43 1.15 1.15 0 00-.127.577 1.03 1.03 0 00.27.708c.21.223.457.406.73.538.305.156.761.364 1.368.623.067.021.132.048.196.08a9.603 9.603 0 011.693.898c.422.284.779.661 1.043 1.104.26.466.39.996.376 1.533a3.153 3.153 0 01-.521 1.848 3.108 3.108 0 01-1.458 1.116 5.973 5.973 0 01-2.192.368 6.72 6.72 0 01-2.987-.582c-.24-.11-.452-.28-.615-.493a1.134 1.134 0 01-.2-.672.902.902 0 01.262-.683.95.95 0 01.678-.247c.277.004.548.076.792.21.303.157.543.274.718.352a3.437 3.437 0 001.415.287c.473.035.943-.094 1.337-.367a1.21 1.21 0 00.343-.448 1.25 1.25 0 00.107-.56c.001-.273-.1-.537-.282-.736a3.008 3.008 0 00-.83-.622 19.75 19.75 0 00-1.545-.728 9.467 9.467 0 01-1.698-.91z" fill="#fff"/></svg>