<svg width="48" height="49" viewBox="0 0 48 49" fill="none" xmlns="http://www.w3.org/2000/svg"><rect y=".5" width="48" height="48" rx="24" fill="#EEF6FC"/><path d="M31.563 38.136H15.438A.438.438 0 0115 37.7V13.38h17V37.7a.438.438 0 01-.438.437z" fill="#857E87"/><path d="M15.437 10.138a.437.437 0 00-.437.437v3.563h17v-3.563a.438.438 0 00-.438-.437H15.438z" fill="#857E87"/><path d="M24.743 25.762v-3.674c0-.077.08-.139.177-.139h4.896c.098 0 .177.062.177.14v3.673h-5.25z" fill="#E8E8E8"/><path d="M29.993 20.387h-13v-7.416c0-.322.197-.583.438-.583h12.125c.241 0 .437.26.437.583v7.416z" fill="#D3EFFD"/></svg>