<svg width="24" height="24" viewBox="0 0 24 24" fill="none" xmlns="http://www.w3.org/2000/svg"><path d="M12 0c6.627 0 12 5.373 12 12s-5.373 12-12 12S0 18.627 0 12 5.373 0 12 0z" fill="#7F4DA0"/><path d="M15.197 10.48c-.058-.475-.204-.847-.463-1.177-.336-.425-.765-.679-1.401-.83-.415-.1-.582-.089-.732.048-.14.128-.167.385-.06.552.075.12.162.164.402.211.32.06.542.136.744.251.428.247.627.634.648 1.26.01.293.035.383.138.488.19.19.529.153.672-.075.053-.086.061-.123.067-.323a3.201 3.201 0 00-.015-.406z" fill="#fff"/><path d="M16.872 11.014c-.084-1.453-.652-2.622-1.67-3.444a4.706 4.706 0 00-2.024-.934c-.278-.056-.79-.1-.878-.075a.539.539 0 00-.252.195.53.53 0 00-.02.398c.075.19.217.257.613.292a3.79 3.79 0 011.718.586c.543.362.976.857 1.255 1.438.242.5.39 1.22.386 1.865-.001.233.035.365.129.461.141.148.348.18.53.083.202-.107.249-.293.213-.865zm1.854 5.594a1.592 1.592 0 00-.142-.285c-.298-.45-1.902-1.705-2.702-2.115-.457-.235-.796-.313-1.047-.24-.27.076-.412.202-.865.764-.182.225-.369.436-.419.47a1.105 1.105 0 01-.535.154c-.395-.003-1.113-.259-1.665-.596-.429-.26-.978-.728-1.4-1.19-.497-.543-.836-1.023-1.103-1.563-.346-.695-.434-1.12-.29-1.43a1.15 1.15 0 01.105-.188c.021-.024.244-.206.49-.406.483-.384.562-.472.652-.735.113-.334.083-.676-.093-1.02A14.22 14.22 0 008.97 7.03c-.34-.484-1.182-1.518-1.35-1.658-.304-.246-.692-.29-1.12-.123-.453.175-1.3.859-1.663 1.335-.327.432-.452.738-.471 1.141-.017.332.011.47.187.894 1.37 3.33 3.417 5.99 6.228 8.1 1.469 1.104 2.992 1.943 4.571 2.517.922.335 1.322.351 1.793.076.2-.119.692-.624.966-.991.455-.612.623-.895.67-1.12a1.289 1.289 0 00-.054-.593z" fill="#fff"/><path d="M18.578 11.347A6.615 6.615 0 0018.12 9.1c-.285-.739-.574-1.221-1.118-1.874-.515-.611-.914-.96-1.548-1.35-.885-.541-1.962-.9-3.168-1.05-.411-.053-.504-.05-.63.035-.245.16-.242.557.003.714.082.05.154.069.483.112.505.068.83.132 1.215.237 1.512.413 2.674 1.258 3.451 2.512.65 1.045.92 2.09.882 3.424-.013.452-.003.531.066.64.132.201.48.241.659.074.11-.102.132-.18.154-.565.01-.202.012-.5.008-.662z" fill="#fff"/></svg>