<svg width="40" height="24" viewBox="0 0 40 24" fill="none" xmlns="http://www.w3.org/2000/svg"><path fill-rule="evenodd" clip-rule="evenodd" d="M11.775 17.131H8.928L6.793 9.044c-.102-.372-.317-.701-.633-.856-.79-.39-1.66-.7-2.61-.856V7.02h4.587c.633 0 1.107.468 1.187 1.011l1.107 5.834 2.846-6.845h2.768l-4.27 10.111zm5.853 0h-2.689l2.214-10.11h2.69l-2.215 10.11zm5.693-7.31c.08-.544.554-.856 1.108-.856a5.042 5.042 0 012.61.467l.475-2.177a6.85 6.85 0 00-2.452-.468c-2.61 0-4.509 1.4-4.509 3.344 0 1.48 1.345 2.256 2.295 2.723 1.027.467 1.423.778 1.344 1.245 0 .7-.792 1.01-1.582 1.01-.95 0-1.899-.233-2.768-.622l-.474 2.178c.949.388 1.976.545 2.926.545 2.926.076 4.745-1.323 4.745-3.423 0-2.645-3.718-2.8-3.718-3.966zm13.129 7.31l-2.135-10.11H32.02c-.474 0-.95.31-1.108.777l-3.953 9.333h2.768l.552-1.477h3.402l.316 1.477h2.452zm-4.033-7.388l.79 3.81h-2.214l1.424-3.81z" fill="#172B85"/></svg>