<svg width="48" height="49" viewBox="0 0 48 49" fill="none" xmlns="http://www.w3.org/2000/svg"><rect y=".5" width="48" height="48" rx="24" fill="#EEF6FC"/><path fill-rule="evenodd" clip-rule="evenodd" d="M14.533 30.907h-3.277l-2.457-9.31c-.117-.428-.365-.806-.73-.985a10.725 10.725 0 00-3.003-.985v-.358h5.28c.728 0 1.274.538 1.365 1.163l1.275 6.715 3.276-7.878h3.186l-4.915 11.638zm6.737 0h-3.095l2.548-11.638h3.096l-2.55 11.638zm6.553-8.415c.091-.626.637-.985 1.275-.985 1.002-.09 2.093.09 3.004.537l.547-2.506A7.884 7.884 0 0029.826 19c-3.004 0-5.19 1.612-5.19 3.85 0 1.701 1.548 2.595 2.641 3.133 1.183.537 1.638.896 1.547 1.432 0 .806-.911 1.164-1.82 1.164-1.093 0-2.186-.268-3.186-.717l-.547 2.508c1.093.446 2.276.626 3.369.626 3.368.089 5.461-1.522 5.461-3.939 0-3.044-4.28-3.223-4.28-4.564zm15.11 8.415l-2.457-11.638h-2.64c-.546 0-1.092.358-1.274.895L32.01 30.906h3.186l.636-1.7h3.915l.364 1.7h2.822zm-4.641-8.505l.91 4.386h-2.55l1.64-4.386z" fill="#172B85"/></svg>