<svg width="24" height="24" viewBox="0 0 24 24" fill="none" xmlns="http://www.w3.org/2000/svg"><circle cx="12" cy="12" r="12" fill="#4680C2"/><path fill-rule="evenodd" clip-rule="evenodd" d="M19.616 7.66c.119-.372 0-.643-.525-.643h-1.745c-.44 0-.643.237-.762.491 0 0-.897 2.168-2.15 3.574-.407.406-.593.542-.814.542-.118 0-.27-.136-.27-.508V7.644c0-.44-.136-.644-.509-.644h-2.744c-.27 0-.44.203-.44.407 0 .423.627.525.694 1.71v2.575c0 .559-.101.66-.321.66-.593 0-2.033-2.185-2.897-4.675C6.964 7.188 6.795 7 6.354 7H4.593C4.085 7 4 7.237 4 7.491c0 .458.593 2.761 2.76 5.81 1.44 2.083 3.49 3.2 5.336 3.2 1.118 0 1.253-.253 1.253-.677V14.25c0-.508.102-.593.458-.593.254 0 .711.136 1.744 1.135 1.186 1.186 1.389 1.728 2.05 1.728h1.744c.508 0 .745-.254.61-.745-.153-.492-.728-1.203-1.474-2.05-.406-.474-1.016-1-1.202-1.253-.254-.339-.187-.475 0-.78-.017 0 2.117-3.014 2.337-4.03z" fill="#fff"/></svg>