<svg width="48" height="49" viewBox="0 0 48 49" fill="none" xmlns="http://www.w3.org/2000/svg"><rect y=".5" width="48" height="48" rx="24" fill="#EEF6FC"/><path fill-rule="evenodd" clip-rule="evenodd" d="M23.446 10c2.268 0 4.416.512 6.33 1.42.3.139.6.29.9.459l-1.33 1.153-1.998-2.002-3.372 2.915-2.003-2.119-6.282 5.488 4.027 4.3-1.582 1.35 3.966 4.308-1.573 1.345 5.668 6.115 3.365-3.002 2.909 3.217a15.51 15.51 0 01-1.903 1.225A14.69 14.69 0 0123.446 38C15.489 38 9 31.71 9 24c0-7.711 6.49-14 14.446-14zm-2.633 13.115l3.435-2.998 3.093 3.33-3.434 2.996-3.094-3.328zm5.878 2.755l-3.436 2.997 3.094 3.33 3.435-2.998-3.093-3.33zm-8.336-8.44l3.435-2.997 3.093 3.329-3.436 2.997-3.092-3.33zm8.88-3.862l-2.576 2.248 2.32 2.498 2.576-2.249-2.32-2.497zm2 12.545l2.578-2.248 2.32 2.497-2.577 2.248-2.32-2.497zm4.844 2.795l-2.576 2.249 2.32 2.496 2.576-2.248-2.32-2.497zm-1.538-9.31l1.718-1.499 1.546 1.665-1.717 1.498-1.547-1.664zm-.477-6.444l-1.718 1.498 1.546 1.665 1.718-1.498-1.546-1.665zm2.672 11.39l1.718-1.499L38 24.71l-1.717 1.5-1.547-1.665zm-5.127-5.956l-2.576 2.249 2.32 2.496 2.576-2.248-2.32-2.497z" fill="#0068A3"/></svg>