<svg width="24" height="24" viewBox="0 0 24 24" fill="none" xmlns="http://www.w3.org/2000/svg"><path d="M12 24c6.627 0 12-5.373 12-12S18.627 0 12 0 0 5.373 0 12s5.373 12 12 12z" fill="#25D366"/><path fill-rule="evenodd" clip-rule="evenodd" d="M12.396 18.676h-.003c-1.195 0-2.368-.3-3.41-.868L5.2 18.8l1.012-3.698a7.123 7.123 0 01-.952-3.567c0-3.934 3.202-7.135 7.136-7.135 1.908 0 3.7.744 5.047 2.093a7.092 7.092 0 012.088 5.048c-.002 3.933-3.201 7.134-7.135 7.135zm-3.238-2.16l.216.129c.911.54 1.955.826 3.02.826h.002a5.94 5.94 0 005.93-5.93 5.895 5.895 0 00-1.735-4.197 5.89 5.89 0 00-4.193-1.739 5.94 5.94 0 00-5.933 5.93c0 1.121.313 2.213.906 3.157l.141.224-.599 2.189 2.245-.59zm6.588-3.439c.124.06.208.1.244.16.045.075.045.432-.104.848-.148.417-.86.797-1.203.848a2.442 2.442 0 01-1.123-.07 10.223 10.223 0 01-1.017-.376c-1.67-.722-2.8-2.342-3.014-2.648l-.031-.044-.002-.002c-.094-.126-.726-.97-.726-1.842 0-.822.403-1.252.589-1.45l.035-.038a.655.655 0 01.475-.223 7.079 7.079 0 01.382.007c.104 0 .233-.002.361.305.05.118.121.294.197.478.153.374.323.787.353.846.044.09.074.194.015.313a.466.466 0 00-.025.05c-.045.091-.078.159-.154.247l-.091.11c-.061.075-.123.15-.176.202-.09.09-.182.186-.078.364.104.179.462.763.992 1.235.57.509 1.065.723 1.316.832l.117.053c.179.09.283.075.387-.044.104-.12.445-.521.564-.7.119-.178.238-.148.401-.089.164.06 1.04.491 1.219.58l.097.048z" fill="#FDFDFD"/></svg>