<svg 
 xmlns="http://www.w3.org/2000/svg"
 xmlns:xlink="http://www.w3.org/1999/xlink"
 width="8px" height="6px">
<path fill-rule="evenodd"  fill="rgb(6, 90, 155)"
 d="M7.759,1.381 L4.734,4.538 C4.696,4.632 4.642,4.721 4.568,4.797 C4.409,4.964 4.197,5.034 3.988,5.022 C3.778,5.034 3.566,4.965 3.406,4.798 C3.332,4.721 3.277,4.631 3.240,4.536 L0.215,1.381 C-0.083,1.070 -0.083,0.567 0.215,0.257 C0.512,-0.054 0.995,-0.054 1.293,0.257 L3.988,3.067 L6.682,0.258 C6.979,-0.053 7.462,-0.053 7.759,0.258 C8.057,0.568 8.057,1.071 7.759,1.381 Z"/>
</svg>