<svg id="Layer_1" data-name="Layer 1" xmlns="http://www.w3.org/2000/svg" viewBox="0 0 600 600"><defs><style>.cls-1,.cls-10{fill:#fff;}.cls-1,.cls-11,.cls-12,.cls-19,.cls-2,.cls-20,.cls-21,.cls-3,.cls-5,.cls-6,.cls-7,.cls-8{fill-rule:evenodd;}.cls-2,.cls-4{fill:#152e45;}.cls-3{fill:#d4efff;}.cls-5{fill:#8ddbff;}.cls-6{fill:#1c3ab0;}.cls-7,.cls-9{fill:#f40f48;}.cls-8{fill:#1d3bb0;}.cls-11{fill:#582b28;}.cls-12{fill:#78d6ff;}.cls-13{fill:#ed1e24;}.cls-14{fill:#231f20;}.cls-15{fill:#ea4335;}.cls-16{fill:#fbbc05;}.cls-17{fill:#4285f4;}.cls-18{fill:#34a853;}.cls-19{fill:#ec1c24;}.cls-20{fill:#00adee;}.cls-21{fill:#d53537;}.cls-22{fill:#ff8b2c;}</style></defs><title>Схема 6</title><g id="_2" data-name="2"><path class="cls-1" d="M443.3,353.9C464.6,292.6,413,240.5,393,223.6c-56.1-47.3-151.7-61.5-195.5-25.3-61.1,50.5-27.6,204.6,71.6,232.5C330.9,448.1,421.1,417.5,443.3,353.9Z"/><path class="cls-2" d="M242.1,203c-19.1,9.5-31.4,20.8-39.8,31.9-36.7,48.9-28.8,133.2,22.4,176.6,26,22,58.9,29.7,86.9,28.6,28.2-1,65.7-11.5,92.2-42.6,19.7-23.2,29.7-55,28-92.9-1.7-35.9-12.3-59.8-26.1-76.2C366.2,181.4,291.3,178.5,242.1,203Z"/><path class="cls-1" d="M74.2,563.7c34.8,24.7,77.6,6.1,92-1.8,40.5-22.1,67.4-73.6,52.7-105.9-20.6-45.1-124.5-57.8-160.8-7.1C35.5,480.5,38,538.1,74.2,563.7Z"/><path class="cls-3" d="M39.4,510.7c8.5,42.4,112.2,73.9,154.2,33.3,15.7-15.1,23.8-41.4,16.7-65.2-10.6-35.3-50.9-50.9-80.5-50.5C78.1,429.1,33,478.8,39.4,510.7Z"/><path class="cls-1" d="M53.3,386.3c40,12.5,74-17.7,85-29.4,30.8-32.8,40-88.8,16.4-114.3C121.8,206.9,21.3,226.4,3.1,284.5-8.2,320.5,11.8,373.3,53.3,386.3Z"/><path class="cls-3" d="M165.5,314.7c3.7-38.4-30.3-63.4-43.1-71.1C86.6,222,33.9,224.2,15.1,250.4-11.1,286.9,26,373.9,82.3,379.3,117.4,382.7,161.6,354.6,165.5,314.7Z"/><path class="cls-1" d="M55.4,131.4c10.7,34.6,46,54.4,77.9,55.3,44.8,1.3,88.2-34.2,90-76,2.1-50.1-56.1-95.7-107.8-82.2C73.3,39.5,42,87.9,55.4,131.4Z"/><path class="cls-3" d="M63.7,48.5C41.7,80.3,81.5,174.4,139.8,174c45.3-.3,87.5-57.4,77.5-94C203.4,29.2,87.8,13.5,63.7,48.5Z"/><path class="cls-1" d="M508.6,569.3c39.6-16.3,44.9-58.8,45.2-73.9,1-42.4-30.8-87.4-66.9-90.6-50.4-4.4-114.5,72.3-88.1,124.4C415.3,561.6,467.5,586.2,508.6,569.3Z"/><path class="cls-3" d="M392.6,508.9C399,541.4,490,584.4,531.2,538c26.6-29.9,24.8-88,1.4-106.7C493.7,400.3,384.8,469.3,392.6,508.9Z"/><path class="cls-4" d="M419.5,525.3H551.7a14.38,14.38,0,0,1,14.4,14.3h0a14.32,14.32,0,0,1-14.4,14.3H419.5a14.38,14.38,0,0,1-14.4-14.3h0A14.38,14.38,0,0,1,419.5,525.3Z"/><path class="cls-1" d="M427.4,538.1a4.14,4.14,0,0,0,.5-1.9,2.72,2.72,0,0,0-.9-2.4,5.25,5.25,0,0,0-3-.6c-1.7,0-3,0-4,.1v11.6c1,.1,2.5.1,4.5.1a4.92,4.92,0,0,0,2.9-.6,3,3,0,0,0,.8-2.4,3.42,3.42,0,0,0-.5-2.2,2.43,2.43,0,0,0-1.8-.9v-.1A2.13,2.13,0,0,0,427.4,538.1Zm-5.4-3.3h1.9a3,3,0,0,1,1.6.3,1.48,1.48,0,0,1,.4,1.3,1.57,1.57,0,0,1-.4,1.3,2,2,0,0,1-1.5.3h-2v-3.2Zm0,4.8h2a2.15,2.15,0,0,1,1.6.4,2,2,0,0,1,.4,1.5,1.79,1.79,0,0,1-.4,1.4,2.22,2.22,0,0,1-1.6.3h-2.2l.2-3.6Zm17.2-6.3h-2.1l-4.3,7.6a3.51,3.51,0,0,0-.6,1.4h-.1a7.57,7.57,0,0,0,.1-1.5v-7.5h-2v11.6h2.1l4.3-7.6a8.43,8.43,0,0,0,.6-1.4h.1a7.57,7.57,0,0,0-.1,1.5V545h2V533.3Zm11.2,10v-10H446a2.79,2.79,0,0,0-1.8.6,2.34,2.34,0,0,0-.7,1.7,24.44,24.44,0,0,1-1.5,7.6h-1.2v4.2h1.4l.2-2.5h7.8l.2,2.5h1.4v-4.2Zm-6.5,0a11.24,11.24,0,0,0,1-3.1,30.06,30.06,0,0,0,.5-4.2,1.14,1.14,0,0,1,.3-.8.78.78,0,0,1,.8-.2h1.8v8.3Zm12.4-.1c-.2,0-.5,0-.6-.2a1.88,1.88,0,0,1-.2-.8v-2.6h4.6V538h-4.6v-2a1.2,1.2,0,0,1,.2-.8.73.73,0,0,1,.6-.2h4.4l.1-1.6c-1-.1-2.7-.1-5-.1a3,3,0,0,0-1.8.6,1.91,1.91,0,0,0-.6,1.6v7.3a2.27,2.27,0,0,0,.6,1.6,2.79,2.79,0,0,0,1.8.6c2.3,0,4,0,5-.1l-.1-1.6-4.4-.1Zm7-8.8c-.7.9-1,2.4-1,4.7s.3,3.9,1,4.7a4.61,4.61,0,0,0,3.6,1.3c1.7,0,3-.4,3.6-1.3a8.61,8.61,0,0,0,1-4.7c0-2.3-.3-3.9-1-4.7a4.61,4.61,0,0,0-3.6-1.3C465.2,533.1,464,533.5,463.3,534.4Zm5.6,1.4a10.63,10.63,0,0,1,0,6.6,2.55,2.55,0,0,1-3.6.3l-.3-.3a10.63,10.63,0,0,1,0-6.6,2.66,2.66,0,0,1,3.7-.3C468.8,535.6,468.9,535.7,468.9,535.8Zm11.1,9.1h2.2l-3-6,2.8-5.6h-2.2l-2.4,4.9h-.3l-2.3-4.9h-2.1l2.8,5.6-3,6h2.2l2.5-5.2h.3Zm4-10.6c-.7.9-1,2.4-1,4.7s.3,3.9,1,4.7a4.61,4.61,0,0,0,3.6,1.3c1.7,0,3-.4,3.6-1.3a8.61,8.61,0,0,0,1-4.7c0-2.3-.3-3.9-1-4.7a5.63,5.63,0,0,0-7.2,0Zm5.6,1.4a10.63,10.63,0,0,1,0,6.6,2.55,2.55,0,0,1-3.6.3l-.3-.3a10.63,10.63,0,0,1,0-6.6,2.66,2.66,0,0,1,3.7-.3C489.4,535.6,489.5,535.7,489.6,535.7Zm9,7.5a1.82,1.82,0,0,1-1.9-.9,10.32,10.32,0,0,1,0-6.5,2.08,2.08,0,0,1,1.9-.9,28.12,28.12,0,0,1,3,.1l.2-1.6a11.7,11.7,0,0,0-3.2-.4,4.47,4.47,0,0,0-3.6,1.4c-.7.9-1,2.5-1,4.7a8.86,8.86,0,0,0,1,4.7,4,4,0,0,0,3.6,1.3,13.93,13.93,0,0,0,3.5-.4l-.2-1.6c-1.1.1-2.2.1-3.3.1Zm13.4-10h-9v1.9h3.5v9.8h2.1v-9.8h3.5l-.1-1.9Zm10.5,0h-2.1l-4.3,7.6a5.91,5.91,0,0,0-.6,1.4h-.1a7.57,7.57,0,0,0,.1-1.5v-7.5h-2v11.6h2.1l4.3-7.6c.2-.5.4-.9.6-1.4h.1a7.57,7.57,0,0,0-.1,1.5v7.6h2V533.2Zm9.1,0v4.6h-4.5v-4.6h-2v11.6h2v-5.3h4.5v5.3h2.1V533.2Zm6.6,11.6V536a1.08,1.08,0,0,1,.2-.8.78.78,0,0,1,.8-.2h4l.1-1.6c-1-.1-2.6-.1-4.8-.1a2,2,0,0,0-1.6.7,2.84,2.84,0,0,0-.7,1.7v9.2h2Zm15.5-11.6h-2.1l-4.3,7.6a5.91,5.91,0,0,0-.6,1.4h-.1a7.57,7.57,0,0,0,.1-1.5v-7.5h-2v11.6h2.1l4.3-7.6c.2-.5.4-.9.6-1.4h.1a7.57,7.57,0,0,0-.1,1.5v7.6h2V533.2Z"/><path class="cls-4" d="M41.9,526.3H200a14.38,14.38,0,0,1,14.4,14.3h0A14.47,14.47,0,0,1,200,555H41.9a14.38,14.38,0,0,1-14.4-14.3h0a14.4,14.4,0,0,1,14.4-14.4Z"/><path class="cls-1" d="M599.2,287.3c-6.5-39-46.8-54.8-61.4-59.1-41.1-12-92.7,4-104.4,34.8C417.1,306,476.8,382.4,534,373,569.5,367.1,605.9,327.7,599.2,287.3Z"/><path class="cls-3" d="M466.9,349.5c29.4,20.8,65.4,5.1,77.6-1.5,34.1-18.7,56.8-62,44.4-89.3-17.3-38-105-48.7-135.6-6C434.3,279.3,436.4,327.8,466.9,349.5Z"/><path class="cls-4" d="M474.6,333.3h76.5A25.78,25.78,0,0,1,576.9,359v.1h0a25.71,25.71,0,0,1-25.8,25.7H474.6a25.78,25.78,0,0,1-25.8-25.7h0a25.86,25.86,0,0,1,25.8-25.8Z"/><path class="cls-1" d="M480.2,343.6H471v1.8h3.6v9.8h2.1v-9.8h3.6Zm2.2,1.1c-.7.9-1.1,2.4-1.1,4.7s.4,3.9,1.1,4.7a4.7,4.7,0,0,0,3.7,1.3c1.8,0,3.1-.4,3.8-1.3s1-2.4,1-4.7-.4-3.9-1-4.7-2-1.3-3.8-1.3a4.7,4.7,0,0,0-3.7,1.3Zm5.8,1.4a10.63,10.63,0,0,1,0,6.6,2.81,2.81,0,0,1-3.9.2l-.2-.2a10.63,10.63,0,0,1,0-6.6,2.69,2.69,0,0,1,3.8-.2c.2.1.2.2.3.2Zm12.6,2.4a4.14,4.14,0,0,0,.5-1.9,2.72,2.72,0,0,0-.9-2.4,5.58,5.58,0,0,0-3.1-.6c-1.8,0-3.1,0-4.1.1v11.6c1.1.1,2.6.1,4.6.1a5.25,5.25,0,0,0,3-.6,3,3,0,0,0,.9-2.4,3.42,3.42,0,0,0-.5-2.2,2.14,2.14,0,0,0-1.8-.9v-.1a1.91,1.91,0,0,0,1.4-.7Zm-5.6-3.3h1.9a4.15,4.15,0,0,1,1.6.3,2.31,2.31,0,0,1,0,2.6,2,2,0,0,1-1.5.3h-2.1l.1-3.2Zm0,4.8h2.1a3.29,3.29,0,0,1,1.7.4,2.69,2.69,0,0,1,.5,1.5,1.79,1.79,0,0,1-.4,1.4,3.17,3.17,0,0,1-1.6.4h-2.2l-.1-3.7Zm15.8,5.3h2.2l-3.5-11a.76.76,0,0,0-.8-.6h-2.1a.76.76,0,0,0-.8.6l-3.5,11h2.2l1-3.3H510Zm-4.8-5,1.2-4,.3-1h.5c0,.1.1.4.2,1l1.2,4Zm10.5,5v-4.4a18.48,18.48,0,0,0,2.3.1,4.28,4.28,0,0,0,2.9-.8,4.4,4.4,0,0,0,.8-3,4.12,4.12,0,0,0-.9-3,4.83,4.83,0,0,0-3.1-.8c-1.8,0-3.2,0-4.2.1v11.6Zm0-10h2a2,2,0,0,1,1.5.4,3.07,3.07,0,0,1,0,3.2,2,2,0,0,1-1.5.4h-2v-4Zm10.1-1.6h-2.1v11.6h0c1,.1,2.5.1,4.4.1a4.43,4.43,0,0,0,2.9-.8,5.34,5.34,0,0,0,0-5.7,5.12,5.12,0,0,0-3.2-.8h-2v-4.4Zm7.9,0v11.6h2.1V343.7Zm-7.9,6h2a1.91,1.91,0,0,1,1.5.4,2.93,2.93,0,0,1,.4,1.6,1.5,1.5,0,0,1-1,1.9h0a1.7,1.7,0,0,1-1,0h-2l.1-3.9Zm24-1.2a3.2,3.2,0,0,0,.5-1.9,2.72,2.72,0,0,0-.9-2.4,5.75,5.75,0,0,0-3.1-.6c-1.8,0-3.2,0-4.1.1v11.6c1.1.1,2.6.1,4.6.1a5.25,5.25,0,0,0,3-.6,2.72,2.72,0,0,0,.9-2.4,4.19,4.19,0,0,0-.5-2.2,2.43,2.43,0,0,0-1.8-.9v-.1a1.62,1.62,0,0,0,1.4-.7Zm-5.6-3.3h2a2.88,2.88,0,0,1,1.6.3,2.31,2.31,0,0,1,0,2.6,2,2,0,0,1-1.5.3h-2.2l.1-3.2Zm0,4.8h2.2a2.54,2.54,0,0,1,1.7.4,2.69,2.69,0,0,1,.5,1.5,1.79,1.79,0,0,1-.4,1.4,2.32,2.32,0,0,1-1.6.3h-2.2l-.2-3.6Zm-69,23.1a2,2,0,0,1-2-.9,10.32,10.32,0,0,1,0-6.5,2.15,2.15,0,0,1,2-.9,30.09,30.09,0,0,1,3.1.1l.2-1.6a12.67,12.67,0,0,0-3.4-.4,4.68,4.68,0,0,0-3.7,1.4,10.59,10.59,0,0,0,0,9.4,4.29,4.29,0,0,0,3.7,1.3,14.72,14.72,0,0,0,3.6-.4l-.2-1.6A17.65,17.65,0,0,1,476.2,373.1Zm5.9-8.8c-.7.9-1.1,2.4-1.1,4.7s.4,3.9,1.1,4.7a6.06,6.06,0,0,0,7.5,0c.8-.9,1.1-2.4,1.1-4.7s-.4-3.9-1.1-4.7a5,5,0,0,0-3.8-1.3C484,363,482.8,363.4,482.1,364.3Zm5.8,1.4a10.63,10.63,0,0,1,0,6.6,2.67,2.67,0,0,1-4,0,10.63,10.63,0,0,1,0-6.6,2.15,2.15,0,0,1,2-.9A2,2,0,0,1,487.9,365.7Zm13.7,7.4v-10h-2.1v10H495v-10h-2.1v11.6h8.5l.2,2.5h1.5v-4.1Zm3-.5a1.42,1.42,0,0,0-.2.6v.9a.73.73,0,0,0,.2.6,1.42,1.42,0,0,0,.6.2h.6a.73.73,0,0,0,.6-.2,1.42,1.42,0,0,0,.2-.6v-1a.73.73,0,0,0-.2-.6,1.42,1.42,0,0,0-.6-.2h-.6A1.63,1.63,0,0,0,504.6,372.6Zm12.2.5a2,2,0,0,1-2-.9,10.32,10.32,0,0,1,0-6.5,2.25,2.25,0,0,1,2-.9,30.09,30.09,0,0,1,3.1.1l.2-1.6a12.42,12.42,0,0,0-3.3-.4,4.68,4.68,0,0,0-3.7,1.4A7.9,7.9,0,0,0,512,369c0,2.2.3,3.8,1.1,4.7a4.5,4.5,0,0,0,3.7,1.3,14.72,14.72,0,0,0,3.6-.4l-.2-1.6c-1.1,0-2.2.1-3.4.1Zm8.3-.1a.76.76,0,0,1-.8-1v-2.6h4.8v-1.6h-4.8v-2a1.2,1.2,0,0,1,.2-.8.73.73,0,0,1,.6-.2h4.6l.1-1.6c-1-.1-2.7-.1-5.1-.1a2.79,2.79,0,0,0-1.8.6,2,2,0,0,0-.7,1.6v7.3a2,2,0,0,0,.7,1.6,3,3,0,0,0,1.8.6c2.4,0,4.1,0,5.1-.1l-.1-1.6-4.6-.1Zm15.1-9.9H531v1.8h3.5v9.8h2.1v-9.8h3.6v-1.8Zm9.4,0c-1-.1-2.4-.1-4.2-.1a4.55,4.55,0,0,0-3,.8,3.22,3.22,0,0,0-.9,2.6,3.14,3.14,0,0,0,.5,2.1,2.23,2.23,0,0,0,1.7.9v.1a2,2,0,0,0-1.7,1.7l-1,3.5h2.2l.9-3.5a1.38,1.38,0,0,1,1.3-1.1h2v4.6h2.1l.1-11.6Zm-4.1,5.4a2.1,2.1,0,0,1-1.5-.5,2,2,0,0,1-.4-1.5,2.3,2.3,0,0,1,.4-1.4,2.6,2.6,0,0,1,1.5-.4h2v3.8Zm13.5,6.3h2.2l-3.1-6,2.9-5.6h-2.2l-2.4,4.9H556l-2.4-4.9h-2.2l2.9,5.6-3.1,6h2.2l2.6-5.2h.3Z"/><path class="cls-1" d="M381.2,132c11.5,37.1,52.8,47.2,67.6,49.4,41.6,6.3,89.7-16.1,97-47.6,10.1-44-58-110.4-112.5-93.7C399.5,50.4,369.3,93.5,381.2,132Z"/><path class="cls-3" d="M393.4,116.5c9,37.7,49.5,50.4,64.1,53.6,41,9,90.4-10.2,99.8-41.1,13-43.1-50.5-113.8-105.8-100.7C417.1,36.5,384.1,77.4,393.4,116.5Z"/><path class="cls-2" d="M428.8,136H538.4a14.55,14.55,0,0,1,0,29.1H428.8a14.55,14.55,0,1,1,0-29.1Z"/><path class="cls-1" d="M430.9,144.8v11.6H433v-10h4.6v10h2.1V144.8Zm12.1,1.1c-.7.9-1,2.4-1,4.7s.4,3.9,1,4.7,2,1.3,3.8,1.3,3-.4,3.8-1.3,1.1-2.4,1.1-4.7-.4-3.9-1.1-4.7a5,5,0,0,0-3.8-1.3C445,144.6,443.7,145,443,145.9Zm5.8,1.4a11,11,0,0,1,0,6.7,2.81,2.81,0,0,1-3.9.2l-.2-.2a11,11,0,0,1,0-6.7,2.81,2.81,0,0,1,3.9-.2C448.7,147.1,448.7,147.2,448.8,147.3Zm14.2-2.5h-2.2l-4.4,7.6a5.91,5.91,0,0,0-.6,1.4h-.1a7.57,7.57,0,0,0,.1-1.5v-7.5h-2v11.6h2.1l4.4-7.7a4.24,4.24,0,0,0,.6-1.4h.1a7.57,7.57,0,0,0-.1,1.5v7.6h2l.1-11.6Zm7,10a2,2,0,0,1-2-.9,10.32,10.32,0,0,1,0-6.5,2.25,2.25,0,0,1,2-.9,30.09,30.09,0,0,1,3.1.1l.2-1.6a12.67,12.67,0,0,0-3.4-.4,4.6,4.6,0,0,0-3.7,1.3c-.7.9-1.1,2.4-1.1,4.7s.4,3.8,1.1,4.7a4.68,4.68,0,0,0,3.7,1.4,14.72,14.72,0,0,0,3.6-.4l-.2-1.6C472.3,154.7,471.1,154.8,470,154.8Zm10.7-4.7a3,3,0,0,0,1.7-1.8,38.16,38.16,0,0,0,1.3-3.6h-2.1v.2a14.24,14.24,0,0,0-.5,1.6,6.94,6.94,0,0,1-.5,1.3,4.7,4.7,0,0,1-.6.9c-.2.2-.4.5-.7.6a2.92,2.92,0,0,1-.9.2h-1a5.7,5.7,0,0,0,.1-1.3v-3.4h-2.1v11.7h2.1v-4.1c0-.4-.1-.8-.1-1.1h1a1.7,1.7,0,0,1,.7.1,2.94,2.94,0,0,1,1.5,1.4,39.06,39.06,0,0,1,1.3,3.7h2.2l-.3-1a21.38,21.38,0,0,0-1.6-3.9,2.84,2.84,0,0,0-2.1-1.2v-.1a1.42,1.42,0,0,0,.6-.2Zm5.6-4.3c-.7.9-1,2.4-1,4.7s.4,3.9,1,4.7a4.7,4.7,0,0,0,3.7,1.3c1.7,0,3.1-.4,3.8-1.3s1.1-2.4,1.1-4.7-.4-3.9-1.1-4.7a5,5,0,0,0-3.8-1.3A4.7,4.7,0,0,0,486.3,145.8Zm5.8,1.4a11,11,0,0,1,0,6.7,2.81,2.81,0,0,1-3.9.2l-.2-.2a11,11,0,0,1,0-6.7,2.81,2.81,0,0,1,3.9-.2Zm12.6,2.3a3.2,3.2,0,0,0,.5-1.9,2.72,2.72,0,0,0-.9-2.4,5.58,5.58,0,0,0-3.1-.6c-1.8,0-3.1,0-4.1.1v11.6c1.1.1,2.6.1,4.6.1a5.25,5.25,0,0,0,3-.6,2.72,2.72,0,0,0,.9-2.4,3.42,3.42,0,0,0-.5-2.2,2.14,2.14,0,0,0-1.8-.9v-.1a1.33,1.33,0,0,0,1.4-.7Zm-5.6-3.2H501a4.15,4.15,0,0,1,1.6.3,2.31,2.31,0,0,1,0,2.6,2,2,0,0,1-1.5.3H499l.1-3.2Zm0,4.8h2.1a2.54,2.54,0,0,1,1.7.4,3,3,0,0,1,0,3,2.32,2.32,0,0,1-1.6.3h-2.2v-3.7Zm17.8-6.4h-2.2l-4.4,7.6a3.51,3.51,0,0,0-.6,1.4h-.1a7.57,7.57,0,0,0,.1-1.5v-7.5h-2v11.6h2.1l4.4-7.7a3.51,3.51,0,0,0,.6-1.4h.1a7.57,7.57,0,0,0-.1,1.5v7.6h2l.1-11.6Zm8,5.4a3,3,0,0,0,1.7-1.8,38.16,38.16,0,0,0,1.3-3.6h-2.1v.2a14.24,14.24,0,0,0-.5,1.6,6.94,6.94,0,0,1-.5,1.3,4.7,4.7,0,0,1-.6.9,1.34,1.34,0,0,1-.7.6,2.92,2.92,0,0,1-.9.2h-1a5.7,5.7,0,0,0,.1-1.3v-3.4h-2.1v11.6h2.1v-4.1c0-.4-.1-.8-.1-1.1h1a1.7,1.7,0,0,1,.7.1,2.94,2.94,0,0,1,1.5,1.4,39.06,39.06,0,0,1,1.3,3.7h2.2a6.21,6.21,0,0,1-.3-1,21.38,21.38,0,0,0-1.6-3.9,2.84,2.84,0,0,0-2.1-1.2v-.1a.66.66,0,0,0,.6-.1Zm14.2-5.4H537l-4.4,7.6a5.91,5.91,0,0,0-.6,1.4h-.1a7.57,7.57,0,0,0,.1-1.5v-7.5h-2v11.6h2.2l4.4-7.7a4.24,4.24,0,0,0,.6-1.4h.1a7.57,7.57,0,0,0-.1,1.5v7.6h2l-.1-11.6Z"/><path class="cls-4" d="M97.6,135.4H198a14.38,14.38,0,0,1,14.4,14.3h0A14.32,14.32,0,0,1,198,164H97.6a14.38,14.38,0,0,1-14.4-14.3h0a14.32,14.32,0,0,1,14.4-14.3Z"/><path class="cls-4" d="M46.8,341.2h84.6a14.38,14.38,0,0,1,14.4,14.3h0a14.47,14.47,0,0,1-14.4,14.4H46.8a14.38,14.38,0,0,1-14.4-14.3h0a14.47,14.47,0,0,1,14.4-14.4Z"/><path class="cls-1" d="M509.9,42.6H427.3a6.06,6.06,0,0,0-6.1,6.1h0v51.8a6.06,6.06,0,0,0,6.1,6.1h82.6a6.06,6.06,0,0,0,6.1-6.1h0V48.7a6.06,6.06,0,0,0-6.1-6.1Z"/><path class="cls-5" d="M517.7,42.6H510a6.06,6.06,0,0,1,6.1,6.1h0v51.8a6.12,6.12,0,0,1-6.1,6.1h7.7a6.36,6.36,0,0,0,6.3-6.4V49A6.36,6.36,0,0,0,517.7,42.6Z"/><path class="cls-5" d="M429.1,50.3V99.4h79.7V50.3Z"/><path class="cls-1" d="M434.5,55.2V72.5h32.6V55.2Z"/><path class="cls-6" d="M472.3,55.4v3h31.2v-3Z"/><path class="cls-6" d="M472.3,62.3v3h31.2v-3Z"/><path class="cls-6" d="M472.3,69.2v3h31.2v-3Z"/><path class="cls-6" d="M434.5,92.5v3h68.9v-3Z"/><path class="cls-7" d="M434.5,77.5V88.8h68.9V77.5Z"/><path class="cls-6" d="M430.1,98.4h77.6v-47H430.1Zm78.7,2H429.1a.94.94,0,0,1-1-1h0V50.3a.94.94,0,0,1,1-1h79.7a.94.94,0,0,1,1,1h0V99.4a1.08,1.08,0,0,1-1,1Z"/><path class="cls-1" d="M410.2,106.6v3.5a7.49,7.49,0,0,0,3.2,6.1h0a6.59,6.59,0,0,0,4.1,1.2H497a7.36,7.36,0,0,0,7.4-7.3h0v-3.5Z"/><path class="cls-5" d="M504.4,106.6v3.5a7.3,7.3,0,0,1-7.4,7.3h24.2a7.43,7.43,0,0,0,7.4-7.3v-3.5Z"/><path class="cls-6" d="M527.6,110.1a6.27,6.27,0,0,1-6.3,6.3H502.5l.2-.2.7-.7a2.65,2.65,0,0,1,.5-.6,2.62,2.62,0,0,0,.5-.9,3.33,3.33,0,0,1,.3-.6c.1-.3.3-.7.4-1.1.1-.2.1-.4.2-.6a11,11,0,0,0,.2-1.8v-2.4h22.2l-.1,2.6Zm-116.4,0v-2.4h92.1v2.4a6.27,6.27,0,0,1-6.3,6.3H417.5A6.4,6.4,0,0,1,411.2,110.1Zm11-9.6V48.7a5.12,5.12,0,0,1,5.1-5.1h82.6a5.12,5.12,0,0,1,5.1,5.1h0v51.8a5.12,5.12,0,0,1-5.1,5.1H427.3a5.19,5.19,0,0,1-5.1-5.1Zm95.5-56.9a5.34,5.34,0,0,1,5.3,5.3v51.3a5.34,5.34,0,0,1-5.3,5.3H515a7,7,0,0,0,2.2-5.1V48.7a7,7,0,0,0-2.2-5.1Zm11,62h-5.9a7.19,7.19,0,0,0,2.3-5.3V49a7.38,7.38,0,0,0-7.4-7.4H427.4a7.15,7.15,0,0,0-7.2,7.1v51.8a7,7,0,0,0,2.2,5.1H410.2a.94.94,0,0,0-1,1h0v3.5a8.3,8.3,0,0,0,8.4,8.3H521.3a8.37,8.37,0,0,0,8.4-8.3h0v-3.5a1.08,1.08,0,0,0-1-1Z"/><path class="cls-5" d="M481.3,68.8a16.9,16.9,0,1,0-.1,23.9l.1-.1h0a16.87,16.87,0,0,0,0-23.8Z"/><path class="cls-1" d="M511,111,490.7,95.4a26.66,26.66,0,0,1-6.7,6.7l15.6,20.2a8.21,8.21,0,0,0,11.4,1.5,8.09,8.09,0,0,0,1.6-11.2l-.1-.1A5.36,5.36,0,0,0,511,111Z"/><path class="cls-1" d="M487.7,62.5a26,26,0,1,0-.1,36.7l.1-.1h0a25.77,25.77,0,0,0,.1-36.5A.1.1,0,0,1,487.7,62.5Z"/><path class="cls-7" d="M454.7,71.5c0,3-2.4,6-2.4,9,0,3.3,2.4,6.7,2.4,9.9h29.7c0-3.2,1.9-6.2,1.9-9.5s-1.9-6.4-1.9-9.5Z"/><path class="cls-6" d="M511,122.4a7,7,0,0,1-10,0,4.35,4.35,0,0,1-.6-.7l-15-19.3a28.14,28.14,0,0,0,5.5-5.4l19.4,14.9a7,7,0,0,1,1.4,9.8.1.1,0,0,1-.1.1C511.4,121.9,511.2,122.2,511,122.4Zm-28.5-20.6a25.1,25.1,0,0,1-30.9-3.5A24.9,24.9,0,1,1,490.4,94a10.38,10.38,0,0,1-1.2,1.7,15.46,15.46,0,0,1-2.4,2.7,29.77,29.77,0,0,1-2.7,2.3A6.45,6.45,0,0,1,482.5,101.8Zm29.1,8.4-19.5-15a27.41,27.41,0,1,0-8.4,8.2l15,19.4a8.74,8.74,0,0,0,6.6,3.5h.6a9.07,9.07,0,0,0,9.1-9.1h0v-.6a8.25,8.25,0,0,0-3.4-6.4Z"/><path class="cls-8" d="M469.3,64.9a15.88,15.88,0,1,0,11.2,4.6A16.16,16.16,0,0,0,469.3,64.9Zm0,33.8a18,18,0,1,1,18-17.9A17.63,17.63,0,0,1,482,93.4,17.86,17.86,0,0,1,469.3,98.7Z"/><path class="cls-1" d="M51.2,212.3v45h48v-45Z"/><path class="cls-5" d="M51.2,220.7v2.9h48v-2.9Z"/><path class="cls-1" d="M51.2,212.3v8.4h48v-8.4Z"/><path class="cls-5" d="M99.2,212.3v8.4H104v-8.4Z"/><path class="cls-5" d="M99.2,220.7v36.6H104V220.7Z"/><path class="cls-7" d="M87.4,215.4a1,1,0,1,0,1,1h0A1,1,0,0,0,87.4,215.4Z"/><path class="cls-7" d="M91,215.4a1,1,0,1,0,1,1h0A1,1,0,0,0,91,215.4Z"/><path class="cls-7" d="M94.5,215.4a1,1,0,1,0,1,1h0A1,1,0,0,0,94.5,215.4Z"/><path class="cls-1" d="M19.4,273.2v45h48v-45Z"/><path class="cls-5" d="M19.4,281.6v2.9h48v-2.9Z"/><path class="cls-1" d="M19.4,273.2v8.4h48v-8.4Z"/><path class="cls-5" d="M67.4,273.2v8.4h4.8v-8.4Z"/><path class="cls-5" d="M67.4,281.6v36.6h4.8V281.6Z"/><circle class="cls-9" cx="55.6" cy="277.4" r="1"/><circle class="cls-9" cx="59.2" cy="277.4" r="1"/><circle class="cls-9" cx="62.7" cy="277.4" r="1"/><path class="cls-1" d="M83.3,273.2v45h48v-45Z"/><path class="cls-5" d="M83.3,281.6v2.9h48v-2.9Z"/><path class="cls-1" d="M83.3,273.2v8.4h48v-8.4Z"/><path class="cls-5" d="M131.3,273.2v8.4h4.8v-8.4Z"/><path class="cls-5" d="M131.3,281.6v36.6h4.8V281.6Z"/><circle class="cls-9" cx="119.5" cy="277.4" r="1"/><circle class="cls-9" cx="123.1" cy="277.4" r="1"/><circle class="cls-9" cx="126.6" cy="277.4" r="1"/><path class="cls-6" d="M71.2,280.6H68.5v-6.4h2.7Zm0,36.7H68.5V282.7h2.7Zm-4.8-36.7h-46v-6.4h46Zm0,36.7h-46V282.7h46Zm5.8-45H45v-1H43v1H19.4a.94.94,0,0,0-1,1h0v45a.94.94,0,0,0,1,1H72.2a.94.94,0,0,0,1-1h0v-45A1,1,0,0,0,72.2,272.3Z"/><path class="cls-6" d="M135.1,280.6h-2.7v-6.4h2.7Zm0,36.7h-2.7V282.7h2.7Zm-4.8-36.7h-46v-6.4h46Zm0,36.7h-46V282.7h46Zm5.8-45H112.2v-1h-2v1H83.3a.94.94,0,0,0-1,1h0v45a.94.94,0,0,0,1,1h52.8a.94.94,0,0,0,1-1h0v-45A1,1,0,0,0,136.1,272.3Z"/><path class="cls-6" d="M45,266.9h1v-2H44a.94.94,0,0,0-1,1h0v2h2Z"/><path class="cls-6" d="M88.1,264.9H83.9v2h4.2Z"/><path class="cls-6" d="M96.5,264.9H92.3v2h4.2Z"/><path class="cls-6" d="M105,264.9h-4.2v2H105Z"/><path class="cls-6" d="M54.4,264.9H50.2v2h4.2Z"/><path class="cls-6" d="M75.5,266.9h4.2v-2H75.5Z"/><path class="cls-6" d="M62.8,264.9H58.6v2h4.2Z"/><path class="cls-6" d="M71.3,264.9H67.1v2h4.2Z"/><path class="cls-6" d="M110.2,267.9h2v-2a.94.94,0,0,0-1-1h-2v2h1Z"/><path class="cls-6" d="M100.2,256.3V221.7H103v34.6Zm-48-34.6h46v34.6h-46Zm46-8.4v6.4h-46v-6.4Zm4.8,6.3h-2.7v-6.4H103Zm1-8.4H51.2a.94.94,0,0,0-1,1h0v45a.94.94,0,0,0,1,1H76.6v4h2v-4H104a.94.94,0,0,0,1-1h0v-45a1,1,0,0,0-1-1Z"/><path class="cls-5" d="M57.3,226.1v11.6H74.4V226.1Z"/><path class="cls-6" d="M77.1,226.3v2H93.5v-2Z"/><path class="cls-6" d="M77.1,230.9v2H93.5v-2Z"/><path class="cls-6" d="M77.1,235.5v2H93.5v-2Z"/><path class="cls-6" d="M57.3,251.1v2H93.5v-2Z"/><path class="cls-7" d="M57.3,241.1v7.6H93.5v-7.6Z"/><path class="cls-5" d="M26,287.4v25H36.3v-25Z"/><path class="cls-7" d="M39.7,287.4v9.2h22v-9.2Z"/><path class="cls-6" d="M39.7,298.9v2h22v-2Z"/><path class="cls-6" d="M39.7,303.4v2h22v-2Z"/><path class="cls-6" d="M39.7,307.9v2h22v-2Z"/><path class="cls-5" d="M89.6,287.4v11.4h35.3V287.4Z"/><path class="cls-7" d="M89.6,301.8v10.7h10V301.8Z"/><path class="cls-6" d="M102.2,301.9v2h22.7v-2Z"/><path class="cls-6" d="M102.2,306.1v2h22.7v-2Z"/><path class="cls-6" d="M102.2,310.2v2h22.7v-2Z"/><path class="cls-7" d="M488.1,265.6v5.2h60.7v-5.2Z"/><ellipse class="cls-9" cx="508.2" cy="310" rx="6" ry="5.9"/><ellipse class="cls-9" cx="529.7" cy="310" rx="6" ry="5.9"/><circle class="cls-10" cx="508.2" cy="310" r="2.2"/><circle class="cls-10" cx="529.7" cy="310" r="2.3"/><path class="cls-6" d="M508.2,308.7a1.3,1.3,0,1,0,1.3,1.3h0A1.32,1.32,0,0,0,508.2,308.7Zm0,4.5a3.2,3.2,0,1,1,3.2-3.2h0a3.22,3.22,0,0,1-3.2,3.2Z"/><path class="cls-6" d="M529.7,308.7A1.3,1.3,0,1,0,531,310h0a1.32,1.32,0,0,0-1.3-1.3Zm0,4.5a3.2,3.2,0,1,1,3.2-3.2h0a3.22,3.22,0,0,1-3.2,3.2Z"/><path class="cls-1" d="M527.5,241.4A21.5,21.5,0,0,1,547,221a21.17,21.17,0,0,0-23,19.1c0,.4-.1.9-.1,1.3a21.21,21.21,0,0,0,6.6,16.1,15.66,15.66,0,0,1,5,11.5v.9H539V269a15.66,15.66,0,0,0-5-11.5A20.77,20.77,0,0,1,527.5,241.4Z"/><path class="cls-5" d="M468.1,247.3v5.3h10.1v-5.3Z"/><path class="cls-6" d="M547.8,269.9H489v-3.3h58.8v3.3Zm-6.1,14h-6.4l2.2-12.1H545ZM538,297.6h-5.2l2.2-11.7h6.2Zm-38.7-25.8,2.2,12.1h-6.3l-3.3-12.1Zm9.1,0,1.1,12.1h-6l-2.2-12.1Zm9.1,12.1h-6.1l-1.1-12.1h7.2Zm7.9,0h-6V271.8h7.1Zm1.9,0,1.1-12.1h7.1l-2.2,12.1Zm-.2,1.9H533l-2.2,11.7h-4.7Zm-7.7,0h5.8l-1.1,11.7h-4.8l.1-11.7Zm-7.8,0h5.9v11.7h-4.8ZM504,297.6h-5.1l-3.2-11.7h6.2Zm-.2-11.8h5.8l1.1,11.7H506Zm9.3,24.2a5,5,0,1,1-5-5,5,5,0,0,1,5,5Zm21.5,0a5,5,0,1,1-5-5,4.89,4.89,0,0,1,5,5Zm-57.4-58.4H469v-3.4h8.2Zm71.6,13H489.5l-4.1-15a1,1,0,0,0-.9-.7h-5.4v-1.7a1,1,0,0,0-1-1H468a.94.94,0,0,0-1,1v5.3a.94.94,0,0,0,1,1h10.1a1.08,1.08,0,0,0,1-1v-1.7h4.6l3.8,13.9a.91.91,0,0,0-.4.8v5.2a.92.92,0,0,0,1,.9h1.8l2.1,7.9h0l6.7,24.6a1,1,0,0,0,.9.7h3.7a6.93,6.93,0,0,0,9.5,10.1,6.83,6.83,0,0,0,.3-9.7l-.3-.3h12a6.93,6.93,0,0,0,9.5,10.1,6.83,6.83,0,0,0,.3-9.7l-.3-.3h2.8v-1.9H500.2l-1-3.6h39.3a1,1,0,0,0,.9-.7l7.3-27h1.8a1,1,0,0,0,1-.9v-5.2a.73.73,0,0,0-.7-1.1Z"/><path class="cls-11" d="M541.1,255.3v14.6H543V255.3Z"/><path class="cls-6" d="M546.9,205.6V214h1.9v-8.4Z"/><path class="cls-6" d="M559.7,207.5l-3.4,7.6,1.8.8,3.4-7.6Z"/><path class="cls-6" d="M536.3,207.5l-1.7.8,3.4,7.6,1.7-.8Z"/><path class="cls-6" d="M492,260.3v1.9h3.2v-1.9Z"/><path class="cls-6" d="M497.7,260.3v1.9h3.2v-1.9Z"/><path class="cls-6" d="M503.3,260.3v1.9h3.2v-1.9Z"/><path class="cls-6" d="M509,260.3v1.9h3.2v-1.9Z"/><path class="cls-6" d="M514.6,260.3v1.9h3.2v-1.9Z"/><path class="cls-6" d="M520.2,260.3v1.9h3.2v-1.9Z"/><path class="cls-6" d="M525.9,260.3v1.9H529v-1.9Z"/><path class="cls-1" d="M541.3,283.1v4.5h9.1v-4.5Z"/><path class="cls-1" d="M544.2,221a21.45,21.45,0,0,0-20.3,20.4,21.21,21.21,0,0,0,6.6,16.1,15.66,15.66,0,0,1,5,11.5v.9H555V269a16.37,16.37,0,0,1,5.1-11.6A21.18,21.18,0,0,0,544.2,221Z"/><path class="cls-1" d="M533.8,269.9v5.6a7.62,7.62,0,0,0,7.7,7.6h7.6a7.75,7.75,0,0,0,7.7-7.6h0v-5.6Z"/><path class="cls-5" d="M550.4,283.1v4.5H555v-4.5Z"/><path class="cls-5" d="M551.3,221h-6.1a21.22,21.22,0,0,1,14.9,36.5,16.37,16.37,0,0,0-5.1,11.6v.9h7.1v-.9a16.37,16.37,0,0,1,5.1-11.6,21.28,21.28,0,0,0,.5-30,20.86,20.86,0,0,0-16.4-6.5Z"/><path class="cls-5" d="M556.7,269.9v5.6a7.6,7.6,0,0,1-7.6,7.6h7.4a7.75,7.75,0,0,0,7.7-7.6h0v-5.6Z"/><path class="cls-6" d="M561.1,268.9H556v-1.5c0-.3.1-.5.1-.8s.1-.5.1-.7a3.09,3.09,0,0,1,.2-.8,6.37,6.37,0,0,1,.2-.7c.1-.2.2-.5.3-.7a1.45,1.45,0,0,0,.2-.7c0-.3.2-.5.4-.8a3.29,3.29,0,0,0,.3-.6,9.22,9.22,0,0,1,.5-.8,3.21,3.21,0,0,0,.3-.5,4.43,4.43,0,0,1,.7-.9,1.38,1.38,0,0,0,.3-.4,12,12,0,0,1,1.1-1.2,22.26,22.26,0,0,0,6.8-15.9,15.48,15.48,0,0,0-.1-2.2,5,5,0,0,0-.2-1.2,3.08,3.08,0,0,1-.1-.9,8.33,8.33,0,0,0-.4-1.5,1.42,1.42,0,0,0-.2-.6c-.2-.5-.4-1.1-.6-1.6l-.2-.4c-.2-.5-.5-1.1-.7-1.6-.1-.1-.1-.3-.2-.4l-.9-1.5a.52.52,0,0,1-.2-.4c-.3-.5-.7-.9-1-1.4a1.38,1.38,0,0,1-.3-.4c-.4-.4-.8-.9-1.2-1.3-.1-.1-.2-.2-.2-.3l-.1-.1-.3-.3c-.3-.3-.6-.5-.8-.7l-.4-.4a14.63,14.63,0,0,0-1.3-.9l-.3-.2-1.5-.9-.2-.1a11.94,11.94,0,0,0-1.6-.8,20.39,20.39,0,0,1,18.1,22.3,20.1,20.1,0,0,1-6.1,12.5A17.63,17.63,0,0,0,561.1,268.9Zm2.1,1.9v4.7a6.7,6.7,0,0,1-6.7,6.7h-2a4.35,4.35,0,0,1,.7-.6h0a10,10,0,0,0,1-1.1l.1-.2a5.39,5.39,0,0,0,.7-1.3.35.35,0,0,1,.1-.2,7.37,7.37,0,0,0,.4-1.4v-.2a8.75,8.75,0,0,0,.2-1.6v-4.7ZM554,286.7h-2.6v-2.6H554Zm-11.8-2.6h7.2v2.6h-7.2Zm-7.5-8.6v-4.7h21v4.7a6.7,6.7,0,0,1-6.7,6.7h-7.6a6.7,6.7,0,0,1-6.7-6.7Zm-3.6-18.7a20.25,20.25,0,0,1-.6-28.7,19.91,19.91,0,0,1,13.8-6.2h1a20.39,20.39,0,0,1,9.6,2.4h0a15.05,15.05,0,0,1,1.7,1l.1.1a14.31,14.31,0,0,1,1.5,1.1l.2.2c.4.4.9.7,1.3,1.1l.3.3a12,12,0,0,1,1.1,1.2l.2.3c.3.4.7.9,1,1.3.1.1.1.2.2.3a6.38,6.38,0,0,1,.8,1.4c0,.1.1.2.2.3.2.5.5,1,.7,1.5,0,.1.1.3.1.4a8.8,8.8,0,0,1,.5,1.5,1.09,1.09,0,0,1,.1.5,7,7,0,0,1,.3,1.4,2.77,2.77,0,0,1,.1.9,5.16,5.16,0,0,0,.2,1.1,14.08,14.08,0,0,1,.1,2,19.89,19.89,0,0,1-6.2,14.5c-.4.4-.8.9-1.2,1.3a1.38,1.38,0,0,0-.3.4c-.3.3-.5.7-.8,1-.1.2-.2.3-.3.5a8.79,8.79,0,0,0-.6,1l-.3.6a9,9,0,0,1-.5.9,2.12,2.12,0,0,0-.3.7l-.3.9a6.37,6.37,0,0,1-.2.7,2.39,2.39,0,0,0-.2.9c0,.3-.1.5-.1.7s-.1.6-.1.9v1.6h-7.8V255.7l.3.3a2.43,2.43,0,0,0,3.2,0l1-.8a.75.75,0,0,1,.9,0l1.2-1.5a2.57,2.57,0,0,0-3.3,0l-1,.8a.75.75,0,0,1-.9,0l-1-.8a2.43,2.43,0,0,0-3.2,0l-1,.8a.75.75,0,0,1-.9,0l-1-.8a2.43,2.43,0,0,0-3.2,0l1.2,1.5a.75.75,0,0,1,.9,0l1,.8a2.7,2.7,0,0,0,3.2,0l.7-.6v13.4h-7.8a17.39,17.39,0,0,0-5.6-12Zm43.5-14.6A22.24,22.24,0,0,0,552.3,220h-8.1a22.21,22.21,0,0,0-14.4,38.2,14.7,14.7,0,0,1,4.7,10.7h-.8a.94.94,0,0,0-1,1v5.6a8.61,8.61,0,0,0,7.5,8.5v3.7a.94.94,0,0,0,1,1H555a.94.94,0,0,0,1-1v-3.6h.6a8.6,8.6,0,0,0,8.6-8.6v-5.6a.94.94,0,0,0-1-1H563a15.25,15.25,0,0,1,4.8-10.8,22.26,22.26,0,0,0,6.8-15.9Z"/><path class="cls-1" d="M152.5,59.1a17.09,17.09,0,0,0-3.1.3,19.42,19.42,0,0,0,.2-2.4,27.75,27.75,0,0,0-55.5,0h0a28,28,0,0,0,1.3,8.1,20,20,0,1,0-7.9,39.2,18.1,18.1,0,0,0,4,.4h61a22.8,22.8,0,1,0,0-45.6Z"/><path class="cls-1" d="M153.7,59.2v.2l1.2-.2Z"/><path class="cls-5" d="M171.8,59.1a15.26,15.26,0,0,0-3,.3A19.42,19.42,0,0,0,169,57a27.78,27.78,0,0,0-27.8-27.7H121.9A27.85,27.85,0,0,1,149.7,57h0c0,.8-.2,1.6-.2,2.4a15.53,15.53,0,0,1,3.1-.3,22.8,22.8,0,1,1,0,45.6h19.3a22.8,22.8,0,1,0-.1-45.6Z"/><path class="cls-6" d="M171.8,103.6h-9.5a17.4,17.4,0,0,0,3.3-1.8,24.5,24.5,0,0,0,10.7-17.7,16.2,16.2,0,0,0,.1-2.2,23.8,23.8,0,0,0-13.5-21.4h6l.5-.1a19.42,19.42,0,0,1,2.4-.2,21.7,21.7,0,0,1,0,43.4ZM72.5,84.7a19,19,0,0,1,19-19,16.37,16.37,0,0,1,3.8.4,1,1,0,0,0,1.2-.8h0v-.5A25.51,25.51,0,0,1,95.2,57a26.7,26.7,0,1,1,53.4,0c0,.5-.1.9-.1,1.4,0,.3-.1.6-.1.9a1,1,0,0,0,1,1.1h.2l.5-.1a19.42,19.42,0,0,1,2.4-.2,21.75,21.75,0,1,1,.9,43.5H91.5a18.91,18.91,0,0,1-19-18.9Zm60.3-54.3h8.4A26.7,26.7,0,0,1,168,57c0,.4-.1.9-.1,1.3H156.3a24.33,24.33,0,0,0-3.8-.3c-.6,0-1.2.1-1.8.1a4.48,4.48,0,0,0,.1-1.1,21.75,21.75,0,0,0-.1-2.6A29.19,29.19,0,0,0,136,32l-.7-.4a14.17,14.17,0,0,0-1.8-.8l-.5-.3Zm39,27.6c-.6,0-1.2.1-1.8.1,0-.4.1-.8.1-1.1a28.72,28.72,0,0,0-28.8-28.7H122A28.89,28.89,0,0,0,93,57a25.17,25.17,0,0,0,.9,6.7,21.08,21.08,0,1,0-2.5,42h80.3a23.85,23.85,0,0,0,.1-47.7Z"/><path class="cls-1" d="M146.2,99.5a2.9,2.9,0,0,0-2.9-2.9H128.1l4.6-8,.5-2.4a3.66,3.66,0,0,0-2.8-4.3,3.57,3.57,0,0,0-3.8,1.6L123.9,88l-10.7,7.4v22.5l5.3,1.9h21.6a2.9,2.9,0,1,0,0-5.8h1a2.9,2.9,0,1,0,0-5.8h1.1a2.9,2.9,0,1,0,0-5.8h1.1a2.78,2.78,0,0,0,2.9-2.9Z"/><path class="cls-5" d="M103.3,94.9v24.5h10V94.9Z"/><path class="cls-6" d="M140.1,118.8H118.7l-4.4-1.6V96l10.3-7.1.3-.3,2.8-4.5a2.52,2.52,0,0,1,4.6,1.9l-.5,2.3-4.5,7.8a1,1,0,0,0,.4,1.4h0a.9.9,0,0,0,.5.1h15.2a1.85,1.85,0,1,1,.1,3.7h-5.4v2.1h4.3a1.88,1.88,0,0,1,1.7,2,1.92,1.92,0,0,1-1.7,1.7H137v2.1h4.3a1.86,1.86,0,0,1,.3,3.7h-5.8v2.2h4.3a1.86,1.86,0,0,1,.3,3.7Zm-28-.5h-7.8V96h7.8v22.3Zm34.1-13a3.58,3.58,0,0,0-.9-2.4,3.94,3.94,0,0,0,1.2-5.5,3.86,3.86,0,0,0-3.3-1.8H130l3.7-6.4a.37.37,0,0,0,.1-.3l.5-2.4a4.68,4.68,0,0,0-3.5-5.6,4.79,4.79,0,0,0-5,2.1l-2.7,4.3-9.5,6.6c-.1,0-.3-.1-.4-.1h-10a1.11,1.11,0,0,0-1.1,1.1v24.5a1.11,1.11,0,0,0,1.1,1.1h10a1.06,1.06,0,0,0,1-.9l3.9,1.4c.1,0,.2.1.4.1h21.6a4,4,0,0,0,4-4,3.41,3.41,0,0,0-.9-2.4,3.83,3.83,0,0,0,1.4-5.3h0a1.38,1.38,0,0,0-.3-.4,5.37,5.37,0,0,0,1.9-3.7Z"/><path class="cls-1" d="M106.9,98v2.7h2.7V98Z"/><path class="cls-7" d="M144.5,77.8a4.1,4.1,0,1,0,0,8.2,4.06,4.06,0,0,0,4.1-4.1h0a4.06,4.06,0,0,0-4.1-4.1Z"/><circle class="cls-9" cx="160.9" cy="74.7" r="4.1"/><path class="cls-7" d="M160.9,85a4.1,4.1,0,1,0,4.1,4.1V89h0A4.1,4.1,0,0,0,160.9,85Z"/><path class="cls-6" d="M160.9,92.2a2.89,2.89,0,0,1-2.9-3.1,3,3,0,0,1,3.1-2.9,2.9,2.9,0,0,1,2.9,2.9,3.08,3.08,0,0,1-2.9,3.1Zm-16.4-7.3a3,3,0,1,1,.2-6,3,3,0,0,1,2.9,3h0A3,3,0,0,1,144.5,84.9Zm16.4-13.3a3,3,0,1,1-3,3A3,3,0,0,1,160.9,71.6Zm0,12.4a5.09,5.09,0,0,0-4.4,2.6l-7-3.1a4.57,4.57,0,0,0,.1-2.6l7.1-3.2a5.24,5.24,0,1,0,1.3-7.3,5.23,5.23,0,0,0-2.2,5.3l-7.1,3.2a5.21,5.21,0,1,0-1.1,7.4,6.47,6.47,0,0,0,.9-.8l7.4,3.3a1.27,1.27,0,0,1-.1.6,5.2,5.2,0,0,0,10.4,0,5.42,5.42,0,0,0-5.3-5.4Z"/><path class="cls-1" d="M132.5,48.3a5.78,5.78,0,0,0-11,2.4v.2H107.9c1.2,6.2,8.9,8.3,8.9,8.3l-8.9,4.5c21.7,2.9,23.6-5.8,23.5-9.1a7.2,7.2,0,0,0,1.5-2.7l3-1.7Z"/><path class="cls-6" d="M111.6,63.1c9.7.8,14.3-1.1,16.4-3a6.85,6.85,0,0,0,2.4-5.4,1.14,1.14,0,0,1,.3-.8,4.77,4.77,0,0,0,1.2-2.2,1.16,1.16,0,0,1,.5-.7l1.4-.8-1.8-1a1,1,0,0,1-.4-.5,4.63,4.63,0,0,0-6.2-2.3,4.59,4.59,0,0,0-2.7,4.2,1.61,1.61,0,0,1-.3.9,1.23,1.23,0,0,1-.8.4H109.4c1.8,4.5,7.7,6.2,7.7,6.3a1,1,0,0,1,.7,1.3h0a1.79,1.79,0,0,1-.5.7Zm4.3,2.3a57.6,57.6,0,0,1-8.2-.6,1,1,0,0,1-.9-1.2h0a1.56,1.56,0,0,1,.6-.8l6.8-3.5c-2.6-1.2-6.4-3.7-7.3-8.3a1,1,0,0,1,.8-1.2h12.8a6.87,6.87,0,0,1,7.7-5.9,6.63,6.63,0,0,1,5.1,3.6l3.1,1.8a1,1,0,0,1,.4,1.4h0a.78.78,0,0,1-.4.4l-2.6,1.5a7,7,0,0,1-1.3,2.4,9.37,9.37,0,0,1-3.1,6.6c-2.8,2.6-7.3,3.8-13.5,3.8Z"/><path class="cls-5" d="M84.3,75.2V88.6h2.6v4.1l6-4.2h12.5V75.2Z"/><path class="cls-6" d="M85.4,87.6H88v3.2l4.6-3.2h11.8V76.3h-19V87.6Zm.4,7.2V89.7H83.2V74.2h23.2V89.7H93.2Z"/><path class="cls-1" d="M88.3,80.5v2.6H91V80.5Z"/><path class="cls-1" d="M93.5,80.5v2.6h2.7V80.5Z"/><path class="cls-1" d="M98.8,80.5v2.6h2.7V80.5Z"/><path class="cls-1" d="M498.4,497.9v15.2h5.5l2-15.2Z"/><path class="cls-1" d="M435.3,422v71h85.8V422Z"/><path class="cls-1" d="M454.7,422v71h46.9V422Z"/><path class="cls-5" d="M454.7,422v71h4V422Z"/><path class="cls-5" d="M521.1,422v71h8.5V422Z"/><path class="cls-7" d="M470.4,448.1v24.4l21.2-12.2Z"/><path class="cls-6" d="M471.3,449.7v21.4l18.6-10.7Zm-.9,23.8a.9.9,0,0,1-.9-.9h0V448.1a.9.9,0,0,1,.9-.9h0c.2,0,.3,0,.4.1L492,459.5a.84.84,0,0,1,.3,1.2h0c-.1.1-.2.3-.3.3l-21.2,12.2c-.1.2-.2.3-.4.3Z"/><path class="cls-6" d="M528.7,492.1H522V422.9h6.7Zm-8.5,0H502.6V422.9h17.6Zm-84-69.2h17.7v69.2H436.3Zm64.5,0v69.2h-45V422.9Zm28.9-1.8H435.3a.9.9,0,0,0-.9.9h0v71a.9.9,0,0,0,.9.9h94.3a.9.9,0,0,0,.9-.9h0V422a.9.9,0,0,0-.9-.9Z"/><path class="cls-12" d="M440.6,427.5v6h8.7v-6Z"/><path class="cls-12" d="M440.6,440.9v6h8.7v-6Z"/><path class="cls-12" d="M440.6,454.3v6h8.7v-6Z"/><path class="cls-12" d="M440.6,467.7v6h8.7v-6Z"/><path class="cls-12" d="M440.6,481.1v6h8.7v-6Z"/><path class="cls-6" d="M441.5,432.7h7v-4.2h-7Zm7.8,1.8h-8.7a.9.9,0,0,1-.9-.9h0v-6a.9.9,0,0,1,.9-.9h8.7a.9.9,0,0,1,.9.9h0v6a.9.9,0,0,1-.9.9Z"/><path class="cls-6" d="M441.5,446.1h7v-4.2h-7Zm7.8,1.8h-8.7a.9.9,0,0,1-.9-.9h0v-6a.9.9,0,0,1,.9-.9h8.7a.9.9,0,0,1,.9.9h0v6a.9.9,0,0,1-.9.9Z"/><path class="cls-6" d="M441.5,459.5h7v-4.2h-7Zm7.8,1.8h-8.7a.9.9,0,0,1-.9-.9h0v-6a.9.9,0,0,1,.9-.9h8.7a.9.9,0,0,1,.9.9h0v6a.9.9,0,0,1-.9.9Z"/><path class="cls-6" d="M441.5,472.9h7v-4.2h-7Zm7.8,1.8h-8.7a.9.9,0,0,1-.9-.9h0v-6a.9.9,0,0,1,.9-.9h8.7a.9.9,0,0,1,.9.9h0v6a.9.9,0,0,1-.9.9Z"/><path class="cls-12" d="M507,427.5v6h8.7v-6Z"/><path class="cls-12" d="M507,440.9v6h8.7v-6Z"/><path class="cls-12" d="M507,454.3v6h8.7v-6Z"/><path class="cls-12" d="M507,467.7v6h8.7v-6Z"/><path class="cls-6" d="M507.9,432.7h7v-4.2h-7v4.2Zm7.8,1.8H507a.9.9,0,0,1-.9-.9h0v-6a.9.9,0,0,1,.9-.9h8.7a.9.9,0,0,1,.9.9h0v6a.9.9,0,0,1-.9.9Z"/><path class="cls-6" d="M507.9,446.1h7v-4.2h-7v4.2Zm7.8,1.8H507a.9.9,0,0,1-.9-.9h0v-6a.9.9,0,0,1,.9-.9h8.7a.9.9,0,0,1,.9.9h0v6a.84.84,0,0,1-.9.9Z"/><path class="cls-6" d="M507.9,459.5h7v-4.2h-7v4.2Zm7.8,1.8H507a.9.9,0,0,1-.9-.9h0v-6a.9.9,0,0,1,.9-.9h8.7a.9.9,0,0,1,.9.9h0v6a.84.84,0,0,1-.9.9Z"/><path class="cls-6" d="M507.9,472.9h7v-4.2h-7v4.2Zm7.8,1.8H507a.9.9,0,0,1-.9-.9h0v-6a.9.9,0,0,1,.9-.9h8.7a.9.9,0,0,1,.9.9h0v6a.84.84,0,0,1-.9.9Z"/><path class="cls-6" d="M441.5,486.3h7v-4.2h-7Zm7.8,1.7h-8.7a.9.9,0,0,1-.9-.9h0v-6a.9.9,0,0,1,.9-.9h8.7a.9.9,0,0,1,.9.9h0v6a.9.9,0,0,1-.9.9Z"/><path class="cls-5" d="M491.7,481.1v16.8h14.5V481.1Z"/><path class="cls-1" d="M506.2,481.1v16.8l26.6,8.6V472.6Z"/><path class="cls-6" d="M533.7,494.8v-9.3a4.62,4.62,0,0,1,4.3,5A4.55,4.55,0,0,1,533.7,494.8Zm-1.8,10.5-24.8-8V481.8l24.8-8Zm-28.8,6.9h-3.8V498.8h5.5ZM492.6,482h12.8v15H492.6Zm47.3,8.2a6.4,6.4,0,0,0-6.2-6.4V472.6a.9.9,0,0,0-.9-.9h-.3l-26.4,8.5H491.7a.9.9,0,0,0-.9.9h0v16.8a.9.9,0,0,0,.9.9h5.8v14.3a.9.9,0,0,0,.9.9h5.5a1,1,0,0,0,.9-.8l1.9-14.2,25.9,8.4h.3a.9.9,0,0,0,.9-.9h0v-9.9a6.53,6.53,0,0,0,6.1-6.4Z"/><path class="cls-5" d="M50.8,443.1a7.36,7.36,0,0,0-7.4,7.3h0v19.1a7.38,7.38,0,0,0,7.4,7.4H62.4V443.1Z"/><path class="cls-5" d="M62.4,443.1v33.8h6V443.1Z"/><path class="cls-1" d="M38,455.6v9h5.4v-9Z"/><path class="cls-1" d="M60.3,477H50.6l9,25.4h6.6Z"/><path class="cls-1" d="M66.2,477H60.3l5.9,25.4h5.9Z"/><path class="cls-6" d="M67,501.4l-5.5-23.5h4L71,501.4ZM52,477.9h7.7l5.4,23.5H60.3Zm-7.6-8.3V450.5a6.44,6.44,0,0,1,6.4-6.4H61.4v32H50.6a6.36,6.36,0,0,1-6.2-6.5Zm-5.4-6v-7.1h3.6v7.1Zm28.4,12.5H63.3v-32h4.1Zm5.6,26-5.6-24.2h1a.9.9,0,0,0,.9-.9h0V443.1a.9.9,0,0,0-.9-.9H50.8a8.28,8.28,0,0,0-8.3,8.3v4.2H38a.9.9,0,0,0-.9.9h0v9a.9.9,0,0,0,.9.9h4.5v4.2a8.25,8.25,0,0,0,7.5,8.2l8.8,24.8a.87.87,0,0,0,.9.6H72.2a.9.9,0,0,0,.9-.9h0C73,502.2,73,502.2,73,502.1Z"/><path class="cls-1" d="M62.4,448.5v23c2.6.3,21.4,3.1,35.1,16.1V432.5C83.8,445.4,65,448.2,62.4,448.5Z"/><path class="cls-5" d="M97.4,429.1v62h8.2v-62Z"/><path class="cls-5" d="M105.6,429.1v62h6.6v-62Z"/><path class="cls-6" d="M111.3,490.2h-4.8V430h4.8ZM98.3,430h6.4v60.2H98.4Zm-1.8,55.6c-12.7-11.1-29.1-14.2-33.2-14.8V449.3c4.1-.6,20.5-3.7,33.2-14.8Zm15.7-57.5H97.4a.9.9,0,0,0-.9.9h0v3C83,444.6,64.3,447.3,62.2,447.6a.88.88,0,0,0-.8.9v23a.88.88,0,0,0,.8.9c2.1.3,20.7,3,34.3,15.6v3a.9.9,0,0,0,.9.9h14.8a.9.9,0,0,0,.9-.9h0V429.1a1.06,1.06,0,0,0-.9-1Z"/><path class="cls-1" d="M110.9,450.6h-5.2v15.7h5.2a7.85,7.85,0,1,0,.5-15.7Z"/><path class="cls-1" d="M105.6,450.6v15.7a7.85,7.85,0,1,0,.5-15.7Z"/><path class="cls-6" d="M110.9,465.3a8.71,8.71,0,0,0,1.8-12.1h0a7.28,7.28,0,0,0-1.8-1.7,6.9,6.9,0,0,1,0,13.8Zm-4.4,0V451.5a7,7,0,0,1,0,13.8Zm4.4-15.7h-5.2a.9.9,0,0,0-.9.9h0v15.7a.9.9,0,0,0,.9.9h5.2a8.81,8.81,0,0,0,.6-17.6A1.27,1.27,0,0,1,110.9,449.6Z"/><path class="cls-13" d="M150.9,457.5h-1.6c-2.4,0-4.8-1.8-4.8-6.2,0-4.6,2.2-6.5,4.5-6.5h1.9v12.7Zm2.5-15.1h-4.2c-4.2,0-7.7,3.1-7.7,9.2a7.84,7.84,0,0,0,4.8,7.7l-5.7,10.2a.37.37,0,0,0,.3.6h2.6c.2,0,.4-.1.4-.3l5.2-10H151v10a.32.32,0,0,0,.3.3h2.3a.27.27,0,0,0,.3-.3V442.7a.55.55,0,0,0-.5-.3"/><path class="cls-14" d="M167.3,451.6H165a.27.27,0,0,0-.3.3V459h-4.3v-7.1a.27.27,0,0,0-.3-.3h-2.3c-.1,0-.3.1-.3.2h0v18a.27.27,0,0,0,.3.3h2.3a.32.32,0,0,0,.3-.3h0v-8.6h4.3v8.6c0,.1.1.3.2.3h2.4a.32.32,0,0,0,.3-.3h0v-18c0-.1-.1-.2-.3-.2h0"/><path class="cls-14" d="M219.9,469l-.3-1.3c0-.1-.1-.1-.2-.1a11.71,11.71,0,0,1-2.6.4c-2.8,0-4.2-2.7-4.2-7,0-3.8,1.1-7.5,3.1-7.5a3.34,3.34,0,0,1,2.2,1.1c.1.1.2.2.3.1s.2-.1.3-.3l1-1.6a.37.37,0,0,0,.1-.3c0-.1-.1-.3-.4-.4a6.92,6.92,0,0,0-3.4-.9c-3.5,0-6.2,4.1-6.2,10.6,0,5.6,2.6,8.8,6.3,8.8a7.76,7.76,0,0,0,3.9-1.2.6.6,0,0,0,.1-.4"/><path class="cls-14" d="M203.8,460l4.4-8.1a.19.19,0,0,0-.1-.3h-2.2a1,1,0,0,0-1.1.7l-3.3,6.9a1.56,1.56,0,0,1-.6.8v-8.1c0-.1-.1-.3-.2-.3h-2.4c-.1,0-.2.1-.2.3v18c0,.1.1.2.2.3h2.4c.1,0,.2-.1.2-.3v-9.3l.3.3,4.2,8.7a.88.88,0,0,0,1,.5h2.4c.1,0,.2-.1.1-.3l-5.1-9.8"/><path class="cls-14" d="M178.5,467.8h-5.4c1.9-3.2,2.6-6.8,2.9-11.3.1-1,.1-2,.1-2.6h2.4Zm4,0H182c-.6,0-.7-.2-.7-.7V451.8c0-.2-.1-.3-.2-.3h-7.4c-.1,0-.3.1-.3.2h0V453c0,4.5-.3,10.2-2.6,14.6H170a.27.27,0,0,0-.3.3v5.4c0,.1.1.3.2.3h1.8a.63.63,0,0,0,.6-.5v-3h7.9v3.4c0,.1.1.3.2.3h1.9c.2,0,.4-.2.4-.6v-5.1c.1-.1-.1-.3-.2-.3h0"/><path class="cls-14" d="M189.6,459.2c-.9,0-2.2.1-2.2.1a3.75,3.75,0,0,1,.1-1.1c.3-3.1,1.1-4.7,2.4-4.7s1.9,1.6,2.1,4.5v1.2Zm.4-8c-4,0-5.8,5-5.8,10.5s2.5,8.9,6.2,8.9a7.63,7.63,0,0,0,4.2-1.2c.1-.1.2-.2.1-.3l-.3-1.2c0-.1-.1-.2-.3-.2h0a8.63,8.63,0,0,1-2.8.4c-2.9,0-4.2-2.5-4.2-5.7v-.9a20.87,20.87,0,0,0,2.3.2h5.4v-1.6c.3-5.8-1.7-8.9-4.8-8.9"/><path class="cls-15" d="M173,502.3a8.55,8.55,0,1,1-8.6-8.5h.1A8.37,8.37,0,0,1,173,502Zm-3.7,0a4.81,4.81,0,1,0-9.6.6,4.81,4.81,0,0,0,9.6-.5Z"/><path class="cls-16" d="M191.4,502.3a8.55,8.55,0,1,1-8.6-8.5h.1a8.37,8.37,0,0,1,8.5,8.2Zm-3.8,0a4.81,4.81,0,1,0-9.6.6,4.81,4.81,0,0,0,9.6-.5c.1,0,.1-.1,0-.1Z"/><path class="cls-17" d="M209,494.3v15.2c0,6.2-3.7,8.8-8.1,8.8a8.08,8.08,0,0,1-7.5-5l3.2-1.4a4.64,4.64,0,0,0,4.3,3c2.8,0,4.5-1.7,4.5-5v-1.2h-.1a5.51,5.51,0,0,1-4.5,1.9,8.46,8.46,0,0,1,0-16.9,6.36,6.36,0,0,1,4.5,1.9h.1v-1.4l3.6.1Zm-3.3,8c0-3-2-5.1-4.5-5.1a5.12,5.12,0,0,0,0,10.2c2.5,0,4.5-2.1,4.5-5.1Z"/><path class="cls-18" d="M214.8,485.4v24.8h-3.6V485.4Z"/><path class="cls-15" d="M229,505.1l2.9,1.9a8.43,8.43,0,0,1-7.1,3.8,8.2,8.2,0,0,1-8.4-8.1v-.3c0-5,3.6-8.5,8-8.5s6.6,3.5,7.3,5.4l.4,1L220.7,505a4.52,4.52,0,0,0,4.1,2.6A5.24,5.24,0,0,0,229,505.1Zm-8.9-3.1,7.6-3.1a3.18,3.18,0,0,0-3.1-1.8,4.7,4.7,0,0,0-4.5,4.9Z"/><path class="cls-17" d="M142.2,500.1v-3.6h12.1a15,15,0,0,1,.2,2.2,11.85,11.85,0,0,1-3.1,8.4,12.14,12.14,0,0,1-9.2,3.7,13.1,13.1,0,0,1,0-26.2h0a13,13,0,0,1,9,3.6l-2.5,2.5a9.23,9.23,0,0,0-6.5-2.6,9.55,9.55,0,1,0,0,19.1,9.28,9.28,0,0,0,6.7-2.6,7.31,7.31,0,0,0,1.9-4.4Z"/><path class="cls-2" d="M334.7,260.3H265.1a18,18,0,0,1-18-18h0a18,18,0,0,1,18-18h69.6a18,18,0,0,1,18,18h0A18.05,18.05,0,0,1,334.7,260.3Z"/><path class="cls-19" d="M276.5,251.8H262.1V236.7l14.4,5.4Z"/><path class="cls-1" d="M281.5,251.8H267.4V233.5l14.1-5.1Z"/><path class="cls-20" d="M267.5,238.7l9,3.4v9.7h-9Z"/><path class="cls-10" d="M295.8,236.7h2.9v15.1h-2.9v-9.5h-.1l-4.8,9.5H288V236.7h2.9v9.5h.1Z"/><path class="cls-10" d="M307.6,247.9h0l2.9-11.2h3.8v15.1h-2.9v-9.5h-.1l-2.7,9.5h-2l-2.7-9.4h-.1v9.4h-2.9V236.7h3.8Z"/><path class="cls-10" d="M327.5,236.7v15.1h-2.9V239h-3.3v4.5c0,2.9-.4,5.1-1.2,6.4a4,4,0,0,1-3.7,1.9H316v-2.3h.4a1.54,1.54,0,0,0,1.6-1.2,25.92,25.92,0,0,0,.4-4.8v-6.8Z"/><path class="cls-10" d="M339.7,247.1h0a4.28,4.28,0,0,1-4.9,4.9,5.25,5.25,0,0,1-3.9-1.4,5.57,5.57,0,0,1-1.4-4.1V242a5.57,5.57,0,0,1,1.4-4.1,4.68,4.68,0,0,1,3.7-1.4,5.27,5.27,0,0,1,3.8,1.2,4.88,4.88,0,0,1,1.3,3.6v.1h-2.8a2.88,2.88,0,0,0-.5-2,2.72,2.72,0,0,0-1.7-.6,1.94,1.94,0,0,0-1.6.8,4,4,0,0,0-.5,2.4v4.5a3.35,3.35,0,0,0,.6,2.4,2.34,2.34,0,0,0,1.8.8,1.91,1.91,0,0,0,1.6-.6,3.51,3.51,0,0,0,.5-2Z"/><path class="cls-21" d="M183.9,299c-18.6.2-14,0-32.6-.6l-3.3-.1,6.1-6.9c1.1-1.3.1-4.4-1.1-3.2l-10,10.1a2.16,2.16,0,0,0-.5,1.7,2.74,2.74,0,0,0,.2,3c4.1,3.7,8.2,7.4,12.4,11,1.3,1.1,2.4-2.1,1.1-3.3-3.4-3-6.7-6-10.1-8.9,17.7.6,12.3.9,30,.8C194.7,302.6,202.5,298.8,183.9,299Z"/><path class="cls-21" d="M428.7,307.5c18.6-.2,14,0,32.6.6l3.4.1-6.1,6.9c-1.1,1.3-.1,4.4,1.1,3.2l10-10.1a2.16,2.16,0,0,0,.5-1.7,2.57,2.57,0,0,0-.2-2.9c-4.1-3.7-8.2-7.4-12.4-11-1.3-1.1-2.4,2.1-1.1,3.2l10.1,8.9c-17.7-.6-12.3-.9-30-.8C418,303.9,410.2,307.7,428.7,307.5Z"/><path class="cls-21" d="M232.6,204.3c-17.8-17.4-13.4-13.2-30.6-31.2l-3.1-3.3,10.7,1c2,.2,3.2-3,1.2-3.3L194.1,165a1.81,1.81,0,0,0-1.7.7,2.1,2.1,0,0,0-1.9,2.2c1.3,6.5,2.6,13,4,19.5.4,2,3.8.7,3.4-1.2l-3.3-15.9c16.4,17.2,11.1,12.3,28,29.1C240.3,217,250.4,221.8,232.6,204.3Z"/><path class="cls-21" d="M388.7,208.7c17.8-17.4,13.4-13.2,30.6-31.3l3.1-3.3-10.7.9c-2,.2-3.2-3-1.2-3.3l16.7-2.4a1.81,1.81,0,0,1,1.7.7,2.1,2.1,0,0,1,1.9,2.2c-1.3,6.5-2.6,13-4,19.5-.4,2-3.8.7-3.4-1.2l3.3-15.9c-16.4,17.2-11.1,12.3-28,29.1C381,221.4,370.9,226.1,388.7,208.7Z"/><path class="cls-21" d="M378.4,413.5c17.7,17.3,13.3,13.1,30.3,31l3.1,3.2-10.6-.9c-2-.2-3.2,3-1.2,3.2l16.6,2.3a1.9,1.9,0,0,0,1.7-.7,2.1,2.1,0,0,0,1.9-2.2c-1.3-6.5-2.6-12.9-3.9-19.4-.4-2-3.7-.7-3.3,1.2,1.1,5.3,2.2,10.5,3.2,15.8-16.3-17.1-11-12.2-27.8-28.8C370.7,400.9,360.7,396.2,378.4,413.5Z"/><path class="cls-21" d="M225,402.2c-17.7,17.3-13.3,13.1-30.3,31-1,1.1-2.1,2.1-3.1,3.2l10.6-.9c2-.2,3.2,3,1.2,3.2L186.8,441a1.9,1.9,0,0,1-1.7-.7,2.1,2.1,0,0,1-1.9-2.2c1.3-6.5,2.6-12.9,3.9-19.4.4-2,3.7-.7,3.3,1.2-1.1,5.3-2.2,10.5-3.2,15.8,16.3-17.1,11-12.2,27.8-28.8C232.6,389.6,242.6,385,225,402.2Z"/><path class="cls-10" d="M46.3,534.3a2.14,2.14,0,0,1,1.6,2.4,4,4,0,0,1-.4,2,1.76,1.76,0,0,1-1.3.9v.1a2.16,2.16,0,0,1,1.6.9,4.14,4.14,0,0,1,.4,2.1,3,3,0,0,1-.9,2.5,4.56,4.56,0,0,1-2.9.8,27.48,27.48,0,0,1-3.8-.3l.1-1.6c1.3.1,2.4.1,3.2.1a5.21,5.21,0,0,0,1.4-.2,1.06,1.06,0,0,0,.7-.6,3.59,3.59,0,0,0,.2-1.1,2,2,0,0,0-.4-1.4,2.2,2.2,0,0,0-1.6-.4H42v-1.6h2.2a2.68,2.68,0,0,0,1.1-.2c.3-.1.4-.3.5-.6a2.79,2.79,0,0,0,.1-1,2,2,0,0,0-.2-.9.92.92,0,0,0-.6-.4,4.12,4.12,0,0,0-1.2-.1,26.28,26.28,0,0,0-3,.1l-.1-1.6a21.59,21.59,0,0,1,3.5-.3A8.78,8.78,0,0,1,46.3,534.3Z"/><path class="cls-10" d="M60.8,534.4a1.89,1.89,0,0,1,1.2,1.1,6.34,6.34,0,0,1,.4,2.3,5,5,0,0,1-.4,2.3,1.89,1.89,0,0,1-1.2,1.1,6.46,6.46,0,0,1-2.2.3,17,17,0,0,1-2.3-.1v4.4H54.2V534.2a10.87,10.87,0,0,1,1.8-.1h2.4A7.8,7.8,0,0,1,60.8,534.4Zm-1.3,5.3a.9.9,0,0,0,.6-.6,3.7,3.7,0,0,0,0-2.4.9.9,0,0,0-.6-.6,3.73,3.73,0,0,0-1.2-.2h-2v4h2C58.8,539.8,59.2,539.8,59.5,539.7Z"/><path class="cls-10" d="M71.6,544.2l.1,1.6a15.48,15.48,0,0,1-2.2.1H66.6a2.44,2.44,0,0,1-1.8-.6,2.18,2.18,0,0,1-.7-1.6v-7.3a1.86,1.86,0,0,1,.7-1.6,2.44,2.44,0,0,1,1.8-.6h2.9c.8,0,1.5.1,2.2.1l-.1,1.6H67a.85.85,0,0,0-.6.2,1.29,1.29,0,0,0-.2.8v2H71v1.6H66.3v2.6a1.55,1.55,0,0,0,.2.8.85.85,0,0,0,.6.2h4.5Z"/><path class="cls-10" d="M80.1,540.5a5,5,0,0,1,1,1.4c.3.6.6,1.6,1.1,2.9l.3,1H80.3l-.2-.6c-.4-1.3-.8-2.3-1-2.8a4.85,4.85,0,0,0-.9-1.3,2,2,0,0,0-1.4-.5h-1a4.48,4.48,0,0,1,.1,1.1v4.1H73.8V534.2h2.1v3.4a6.15,6.15,0,0,1-.1,1.3h1a2,2,0,0,0,1.4-.5,3.39,3.39,0,0,0,.9-1.4c.2-.6.6-1.5,1-2.8h2.1c0,.1-.1.2-.1.3s-.1.2-.1.4a23.55,23.55,0,0,1-1,2.7,3.88,3.88,0,0,1-1,1.4,2.63,2.63,0,0,1-1.5.7v.1A2.64,2.64,0,0,1,80.1,540.5Z"/><path class="cls-10" d="M92.8,545.8H90.7v-10H88.9a1.14,1.14,0,0,0-.8.3,1,1,0,0,0-.3.8c-.2,1.9-.3,3.3-.4,4.2a8.44,8.44,0,0,1-.6,2.4,3.52,3.52,0,0,1-1.3,1.8,2.88,2.88,0,0,1-1.9.6h-.4l-.2-1.6a2.32,2.32,0,0,0,1-.4,1.46,1.46,0,0,0,.6-.9,7.75,7.75,0,0,0,.6-2.3c.1-.9.3-2.2.4-4.1a2.54,2.54,0,0,1,.8-1.8,2.61,2.61,0,0,1,1.8-.6h4.5l.1,11.6Z"/><path class="cls-10" d="M101.6,542.6H97.3l-1,3.3H94.1l3.5-11c0-.2.1-.3.3-.4a.76.76,0,0,1,.5-.2h2.1c.2,0,.3.1.5.2a1.38,1.38,0,0,1,.3.4l3.5,11h-2.2Zm-.5-1.8-1.2-4a4.33,4.33,0,0,1-.1-.5,1.09,1.09,0,0,1-.1-.5h-.5l-.3,1-1.2,4Z"/><path class="cls-10" d="M118.3,535.1l.5,10.8h-2l-.4-9.9H116l-2,7.7a.8.8,0,0,1-.9.7h-1.6a.8.8,0,0,1-.9-.7l-2-7.7h-.3l-.4,9.9h-2.1l.4-10.8a.74.74,0,0,1,.8-.8h2.2c.5,0,.7.2.9.7l1.7,6.3c.1.4.2,1,.3,1.6h.3l.1-.5a4.33,4.33,0,0,0,.1-.5,1.42,1.42,0,0,1,.2-.6l1.6-6.3a.8.8,0,0,1,.9-.7h2.2C118,534.3,118.2,534.5,118.3,535.1Z"/><path class="cls-10" d="M129.9,534.3v11.6h-2.1v-5.3h-4.6v5.3h-2.1V534.3h2.1v4.6h4.6v-4.6Z"/><path class="cls-10" d="M139,539a1.89,1.89,0,0,1,1.2,1.1,6.25,6.25,0,0,1,0,4.4,1.89,1.89,0,0,1-1.2,1.1,6.08,6.08,0,0,1-2.2.3h-2.5c-.6,0-1.2-.1-1.9-.1h-.1V534.2h2.1v4.4h2A11.84,11.84,0,0,1,139,539Zm-1.2,5.1c.3-.1.4-.3.5-.6a3.73,3.73,0,0,0,.2-1.2,4.12,4.12,0,0,0-.1-1.2.9.9,0,0,0-.6-.6,3.73,3.73,0,0,0-1.2-.2h-2v3.9h2A3.78,3.78,0,0,0,137.8,544.1Zm6.8-9.8v11.6h-2.1V534.3Z"/><path class="cls-10" d="M154.6,544.2l.1,1.6a15.48,15.48,0,0,1-2.2.1h-2.9a2.44,2.44,0,0,1-1.8-.6,2.18,2.18,0,0,1-.7-1.6v-7.3a1.86,1.86,0,0,1,.7-1.6,2.44,2.44,0,0,1,1.8-.6h2.9c.8,0,1.5.1,2.2.1l-.1,1.6H150a.85.85,0,0,0-.6.2,1.29,1.29,0,0,0-.2.8v2h4.7v1.6h-4.7v2.6a1.55,1.55,0,0,0,.2.8.85.85,0,0,0,.6.2h4.6Z"/><path class="cls-10" d="M166.6,534.1l1.5.3-.2,1.6c-1-.1-2-.1-3.1-.1a2.08,2.08,0,0,0-1.5.4,2.42,2.42,0,0,0-.8,1.3,8.63,8.63,0,0,0-.2,2.5,14.73,14.73,0,0,0,.2,2.5,2.08,2.08,0,0,0,2.3,1.7h1.9c.5,0,1-.1,1.5-.1l.2,1.6a4.15,4.15,0,0,1-1.6.3,11.52,11.52,0,0,1-2,.1,5.55,5.55,0,0,1-2.8-.6,3.24,3.24,0,0,1-1.5-1.9,10.84,10.84,0,0,1-.5-3.5,10.4,10.4,0,0,1,.5-3.5,3.24,3.24,0,0,1,1.5-1.9,5.55,5.55,0,0,1,2.8-.6A12.13,12.13,0,0,1,166.6,534.1Z"/><path class="cls-10" d="M177.5,544.2l.1,1.6a15.48,15.48,0,0,1-2.2.1h-2.9a2.44,2.44,0,0,1-1.8-.6,2.18,2.18,0,0,1-.7-1.6v-7.3a1.86,1.86,0,0,1,.7-1.6,2.44,2.44,0,0,1,1.8-.6h2.9c.8,0,1.5.1,2.2.1l-.1,1.6H173a.85.85,0,0,0-.6.2,1.29,1.29,0,0,0-.2.8v2h4.7v1.6h-4.7v2.6a1.55,1.55,0,0,0,.2.8.85.85,0,0,0,.6.2h4.5Z"/><path class="cls-10" d="M188,536.1h-3.6v9.8h-2.1v-9.8h-3.5v-1.8H188v1.8Z"/><path class="cls-10" d="M198.8,545.8h-2v-7.6a8.08,8.08,0,0,1,.1-1.5h-.1a6.45,6.45,0,0,1-.6,1.4l-4.4,7.6h-2.1V534.1h2v7.5a6.62,6.62,0,0,1-.1,1.5h.1a14.67,14.67,0,0,1,.6-1.4l4.4-7.6h2.2l-.1,11.7Z"/><path class="cls-10" d="M56.2,357.1v1.4l-1.4.2h0v2.6h-2v-2.6H48.3a1.28,1.28,0,0,1-1-.4,1.8,1.8,0,0,1-.4-.9,1.27,1.27,0,0,1,.1-.6l3-6.9h2l-2.9,6.6c0,.1-.1.2-.1.3s.1.3.4.3h3.2v-3.2l.3-1.9h1.6v5h1.7v.1Z"/><path class="cls-10" d="M63.3,349.9a2.55,2.55,0,0,1,1.2.8,3.41,3.41,0,0,1,.4,1.6,4,4,0,0,1-.4,2,1.6,1.6,0,0,1-1.3.9v.1a2,2,0,0,1,1.5.9,4.14,4.14,0,0,1,.4,2.1,3.18,3.18,0,0,1-.9,2.5,4.37,4.37,0,0,1-2.9.8,28.69,28.69,0,0,1-3.8-.3l.1-1.6c1.3.1,2.4.1,3.1.1a3.92,3.92,0,0,0,1.3-.2,1.06,1.06,0,0,0,.7-.6,3.09,3.09,0,0,0,.2-1.1,2,2,0,0,0-.4-1.4,2.08,2.08,0,0,0-1.5-.4H59v-1.5h2.1a2.68,2.68,0,0,0,1.1-.2,1,1,0,0,0,.5-.6,2.48,2.48,0,0,0,.1-.9,2,2,0,0,0-.2-.9.92.92,0,0,0-.6-.4,4.12,4.12,0,0,0-1.2-.1,26.28,26.28,0,0,0-3,.1l-.1-1.6a20.41,20.41,0,0,1,3.4-.3A4.84,4.84,0,0,1,63.3,349.9Z"/><path class="cls-10" d="M74.3,357h-3v2.8H69.8V357H66.9v-1.5h2.9v-2.8h1.5v2.8h3Z"/><path class="cls-10" d="M86.1,349.7a8,8,0,0,1,1.5.3l-.2,1.6c-1-.1-2-.1-3.1-.1a2.41,2.41,0,0,0-1.5.4,2.14,2.14,0,0,0-.8,1.2,15.73,15.73,0,0,0,0,5,1.55,1.55,0,0,0,.8,1.2,3,3,0,0,0,1.5.4h1.9c.5,0,1-.1,1.4-.1l.2,1.6a4,4,0,0,1-1.5.3,11.52,11.52,0,0,1-2,.1,4.91,4.91,0,0,1-2.7-.6,3.24,3.24,0,0,1-1.5-1.9,15.51,15.51,0,0,1,0-7,3.24,3.24,0,0,1,1.5-1.9,5.4,5.4,0,0,1,2.7-.6A12.13,12.13,0,0,0,86.1,349.7Z"/><path class="cls-10" d="M95.7,358H91.5l-.9,3.2H88.5l3.4-10.9c0-.2.1-.3.3-.4a.75.75,0,0,1,.5-.1h2a.9.9,0,0,1,.5.1,1.38,1.38,0,0,1,.3.4l3.4,10.9H96.8Zm-.5-1.7-1.1-3.9a4.33,4.33,0,0,1-.1-.5,1.09,1.09,0,0,1-.1-.5h-.4l-.3,1-1.1,3.9Z"/><path class="cls-10" d="M109.1,361.3h-2v-7.5a6.6,6.6,0,0,1,.1-1.4h-.1a6.45,6.45,0,0,1-.6,1.4l-4.3,7.5h-2.1V349.9h2v7.4a7.08,7.08,0,0,1-.1,1.5h.1a14.67,14.67,0,0,1,.6-1.4l4.3-7.5h2.1Zm-1.8-14.7v.2a2,2,0,0,1-.7,1.6,3.31,3.31,0,0,1-3.8,0,1.86,1.86,0,0,1-.7-1.6v-.2h1.4c0,.9.4,1.4,1.2,1.4a1.22,1.22,0,0,0,.9-.3,1.49,1.49,0,0,0,.3-1h1.4Z"/><path class="cls-10" d="M119.8,351.6h-3.5v9.6h-2.1v-9.6h-3.5v-1.8h9.1Z"/><path class="cls-10" d="M127.5,358h-4.2l-.9,3.2h-2.1l3.4-10.9c0-.2.1-.3.3-.4a.75.75,0,0,1,.5-.1h2a.9.9,0,0,1,.5.1,1.38,1.38,0,0,1,.3.4l3.4,10.9h-2.1Zm-.5-1.7-1.1-3.9a4.33,4.33,0,0,1-.1-.5,1.09,1.09,0,0,1-.1-.5h-.4l-.3,1-1.1,3.9Z"/><path class="cls-10" d="M103.4,145.6H98.7l-.1,2.5,1.5.2a4.63,4.63,0,0,1,3,1.1,3.42,3.42,0,0,1,.9,2.6,4.55,4.55,0,0,1-.8,2.7,3.75,3.75,0,0,1-3,1,17.33,17.33,0,0,1-3.7-.4l.2-1.7a15.87,15.87,0,0,0,2.9.3,6.05,6.05,0,0,0,1.5-.2,1.41,1.41,0,0,0,.7-.6,3.73,3.73,0,0,0,.2-1.2,2.13,2.13,0,0,0-.3-1.2,1.93,1.93,0,0,0-.9-.5,17.78,17.78,0,0,0-2-.3l-1.1-.1a.55.55,0,0,1-.5-.3,1.42,1.42,0,0,1-.2-.6l.3-5h6.5Z"/><path class="cls-10" d="M115.7,143.8l1.5.3-.2,1.6c-1-.1-2-.1-3.1-.1a2.08,2.08,0,0,0-2.3,1.7,15.73,15.73,0,0,0,0,5,2.08,2.08,0,0,0,2.3,1.7h1.9c.5,0,1-.1,1.5-.1l.2,1.6a4.15,4.15,0,0,1-1.6.3,11.52,11.52,0,0,1-2,.1,5.55,5.55,0,0,1-2.8-.6,3.24,3.24,0,0,1-1.5-1.9,10.84,10.84,0,0,1-.5-3.5,10.4,10.4,0,0,1,.5-3.5,3.24,3.24,0,0,1,1.5-1.9,5.55,5.55,0,0,1,2.8-.6A3.78,3.78,0,0,1,115.7,143.8Z"/><path class="cls-10" d="M126.2,144.2a3.35,3.35,0,0,1,1.5,1.8,13.21,13.21,0,0,1,0,7.2,2.77,2.77,0,0,1-1.5,1.8,6.83,6.83,0,0,1-5.6,0,3.35,3.35,0,0,1-1.5-1.8,13.21,13.21,0,0,1,0-7.2,2.77,2.77,0,0,1,1.5-1.8,5.55,5.55,0,0,1,2.8-.6A6.48,6.48,0,0,1,126.2,144.2Zm-4.3,1.6a2.42,2.42,0,0,0-.8,1.3,8.63,8.63,0,0,0-.2,2.5,14.73,14.73,0,0,0,.2,2.5,2.08,2.08,0,0,0,2.3,1.7,2.08,2.08,0,0,0,1.5-.4,2.42,2.42,0,0,0,.8-1.3,8.63,8.63,0,0,0,.2-2.5,14.73,14.73,0,0,0-.2-2.5,2.08,2.08,0,0,0-2.3-1.7A5.41,5.41,0,0,0,121.9,145.8Z"/><path class="cls-10" d="M140.3,153.8v4.1h-1.5l-.2-2.5h-8.3V143.9h2.1v9.9h4.4v-9.9h2.1v9.9Z"/><path class="cls-10" d="M143.7,153.3a.85.85,0,0,1,.2.6v.9a.71.71,0,0,1-.8.8h-.6a.71.71,0,0,1-.8-.8v-.9a.71.71,0,0,1,.8-.8h.6A.85.85,0,0,1,143.7,153.3Z"/><path class="cls-10" d="M155.9,143.8l1.5.3-.2,1.6c-1-.1-2-.1-3.1-.1a2.08,2.08,0,0,0-2.3,1.7,15.72,15.72,0,0,0,0,5,2.08,2.08,0,0,0,2.3,1.7H156c.5,0,1-.1,1.5-.1l.2,1.6a4.15,4.15,0,0,1-1.6.3,11.52,11.52,0,0,1-2,.1,5.55,5.55,0,0,1-2.8-.6,3.24,3.24,0,0,1-1.5-1.9,10.84,10.84,0,0,1-.5-3.5,10.4,10.4,0,0,1,.5-3.5,3.24,3.24,0,0,1,1.5-1.9,5.55,5.55,0,0,1,2.8-.6A3.78,3.78,0,0,1,155.9,143.8Z"/><path class="cls-10" d="M166.8,153.7l.1,1.6a15.48,15.48,0,0,1-2.2.1h-2.9a2.44,2.44,0,0,1-1.8-.6,2.18,2.18,0,0,1-.7-1.6V146a1.86,1.86,0,0,1,.7-1.6,2.44,2.44,0,0,1,1.8-.6h2.9c.8,0,1.5.1,2.2.1l-.1,1.6h-4.5a.85.85,0,0,0-.6.2,1.29,1.29,0,0,0-.2.8v2h4.7v1.6h-4.7v2.6a1.55,1.55,0,0,0,.2.8.85.85,0,0,0,.6.2Z"/><path class="cls-10" d="M177.1,145.7h-3.6v9.7h-2.1v-9.7H168v-1.8h9.2v1.8Z"/><path class="cls-10" d="M186.1,153.7l.1,1.6a15.48,15.48,0,0,1-2.2.1h-2.9a2.44,2.44,0,0,1-1.8-.6,2.18,2.18,0,0,1-.7-1.6V146a1.86,1.86,0,0,1,.7-1.6,2.44,2.44,0,0,1,1.8-.6H184c.8,0,1.5.1,2.2.1l-.1,1.6h-4.5a.85.85,0,0,0-.6.2,1.29,1.29,0,0,0-.2.8v2h4.7v1.6h-4.7v2.6a1.55,1.55,0,0,0,.2.8.85.85,0,0,0,.6.2Z"/><path class="cls-10" d="M197.4,155.4h-2v-7.5a8.08,8.08,0,0,1,.1-1.5h-.1a6.45,6.45,0,0,1-.6,1.4l-4.4,7.6h-2.1V143.9h2v7.4a6.62,6.62,0,0,1-.1,1.5h.1a14.67,14.67,0,0,1,.6-1.4l4.3-7.6h2.1l.1,11.6Zm-1.9-14.8v.2a2,2,0,0,1-.7,1.6,2.88,2.88,0,0,1-1.9.6,2.71,2.71,0,0,1-1.9-.6,2.36,2.36,0,0,1-.7-1.6v-.2h1.4c0,.9.4,1.4,1.2,1.4a1,1,0,0,0,.9-.4,1.61,1.61,0,0,0,.3-1.1l1.4.1Z"/><path class="cls-22" d="M248.17,311.5h-5.45V290.72h-8.67V311.5h-5.44V286.78h19.56Z"/><path class="cls-22" d="M268.14,287.17a4.73,4.73,0,0,1,2.74,2.44,11.62,11.62,0,0,1,.83,4.91,12.5,12.5,0,0,1-.79,4.94,4.53,4.53,0,0,1-2.56,2.45,13.79,13.79,0,0,1-4.93.7,37.74,37.74,0,0,1-4.66-.28v9.17h-5.48V286.78c1.41-.15,2.74-.24,4-.27s3.06-.06,5.42-.06A16,16,0,0,1,268.14,287.17Zm-3.33,10.89a1.92,1.92,0,0,0,1.09-1.14,6.75,6.75,0,0,0,.33-2.4,6.68,6.68,0,0,0-.33-2.4,1.94,1.94,0,0,0-1.09-1.15,5.94,5.94,0,0,0-2.24-.32h-3.8v7.77h3.8A6.23,6.23,0,0,0,264.81,298.06Z"/><path class="cls-22" d="M291.36,287.46a6.79,6.79,0,0,1,3.3,3.92,30,30,0,0,1,0,15.51,6.81,6.81,0,0,1-3.3,3.93,17.87,17.87,0,0,1-12.56,0,6.83,6.83,0,0,1-3.28-3.91,30.14,30.14,0,0,1,0-15.55,6.78,6.78,0,0,1,3.28-3.9,17.72,17.72,0,0,1,12.56,0Zm-9.23,4a4.24,4.24,0,0,0-1.47,2.54,30.76,30.76,0,0,0,0,10.25,4.21,4.21,0,0,0,1.47,2.54,6.07,6.07,0,0,0,5.88,0,4.21,4.21,0,0,0,1.47-2.54,30.76,30.76,0,0,0,0-10.25,4.24,4.24,0,0,0-1.47-2.54,6.14,6.14,0,0,0-5.88,0Z"/><path class="cls-22" d="M322.12,307.56v9.35h-3.87l-.4-5.41H301.44l-.43,5.41h-3.87v-9.35h2.62a39.81,39.81,0,0,0,2.13-7.29,76.34,76.34,0,0,0,1.1-8.33,5.4,5.4,0,0,1,1.72-3.75,5.73,5.73,0,0,1,4-1.41h10.14v20.78Zm-8.67,0V290.72h-3.19a2.14,2.14,0,0,0-1.56.48,2.51,2.51,0,0,0-.56,1.63,68.07,68.07,0,0,1-1.14,8.55,26.18,26.18,0,0,1-2.12,6.18Z"/><path class="cls-22" d="M338.85,305h-8.49l-1.79,6.49H323l7.13-23.29a1.67,1.67,0,0,1,.68-1,2,2,0,0,1,1.22-.39h5.16a2,2,0,0,1,1.23.37,1.65,1.65,0,0,1,.66,1.06l7.13,23.29h-5.55Zm-1.18-4.22-2.08-7.56c-.29-1.2-.45-2-.5-2.33h-1l-.54,2.33-2.08,7.56Z"/><path class="cls-22" d="M365.07,291.22h-7.38V311.5h-5.48V291.22h-7.38v-4.44h20.24Z"/><path class="cls-22" d="M382.77,296.68a4.88,4.88,0,0,1,2.78,2.46,14.15,14.15,0,0,1,0,9.55,4.77,4.77,0,0,1-2.56,2.4,13,13,0,0,1-4.68.69c-2.44,0-4.34,0-5.71,0s-2.77-.11-4.18-.23h-.14V286.78h5.45V296h3.65A15.65,15.65,0,0,1,382.77,296.68Zm-3.13,10.57a1.7,1.7,0,0,0,1-1.09,8,8,0,0,0,.27-2.4,8.15,8.15,0,0,0-.27-2.4,2,2,0,0,0-1-1.2,5.13,5.13,0,0,0-2.24-.38h-3.65v7.78h3.65A6,6,0,0,0,379.64,307.25Z"/><path class="cls-22" d="M215.84,328.53V346.1H212v-7.84h-6.19v7.84h-3.87V328.53h3.87v6.72H212v-6.72Z"/><path class="cls-22" d="M231.17,343.07l.15,2.85c-1,.12-2.21.19-3.46.22s-2.82,0-4.69,0a4,4,0,0,1-2.8-1,3.34,3.34,0,0,1-1-2.58V332a3.31,3.31,0,0,1,1.06-2.59,4,4,0,0,1,2.78-1c1.87,0,3.43,0,4.69,0s2.41.09,3.46.21l-.15,2.88H224.4a1.21,1.21,0,0,0-.92.3,1.46,1.46,0,0,0-.28,1v2.67h7v2.8h-7v3.39a1.45,1.45,0,0,0,.28,1,1.18,1.18,0,0,0,.92.31Z"/><path class="cls-22" d="M250.54,343.3v6.64h-2.75l-.28-3.84H235.85l-.3,3.84H232.8V343.3h1.85a27.65,27.65,0,0,0,1.52-5.18,53.6,53.6,0,0,0,.78-5.92,3.85,3.85,0,0,1,1.22-2.66,4.09,4.09,0,0,1,2.87-1h7.21V343.3Zm-6.16,0v-12h-2.27a1.5,1.5,0,0,0-1.1.35,1.78,1.78,0,0,0-.4,1.16,48.77,48.77,0,0,1-.81,6.07,18.48,18.48,0,0,1-1.51,4.39Z"/><path class="cls-22" d="M265.47,338.37a5.75,5.75,0,0,1,.83,3.35,5.35,5.35,0,0,1-.61,2.79,3.38,3.38,0,0,1-1.89,1.39,11.71,11.71,0,0,1-3.43.4c-1.82,0-3.25,0-4.28,0s-2.09-.08-3.16-.16V328.53c.95-.08,1.89-.14,2.83-.16s2.2,0,3.79,0a13.63,13.63,0,0,1,3.69.39,3.16,3.16,0,0,1,1.91,1.39,5.56,5.56,0,0,1,.59,2.8,4.93,4.93,0,0,1-.71,2.89,3.07,3.07,0,0,1-2.35,1.13V337A3.63,3.63,0,0,1,265.47,338.37Zm-3.69-6.28a1.25,1.25,0,0,0-.8-.65,5.68,5.68,0,0,0-1.63-.18h-2.62v4.45h2.85a3,3,0,0,0,1.92-.46,2.34,2.34,0,0,0,.52-1.8A3,3,0,0,0,261.78,332.09Zm-.41,11.09a1.33,1.33,0,0,0,.82-.7,3.65,3.65,0,0,0,.24-1.5,4.11,4.11,0,0,0-.26-1.65,1.44,1.44,0,0,0-.85-.79,5.5,5.5,0,0,0-1.72-.26h-2.87v5.1h2.95A5.49,5.49,0,0,0,261.37,343.18Z"/><path class="cls-22" d="M283.66,346.1h-3.72V335.61a12.53,12.53,0,0,1,.23-2.37H280a13.71,13.71,0,0,1-1,2.32l-5.93,10.54h-3.84V328.53h3.69v10.31a16.1,16.1,0,0,1-.21,2.45h.16a17.63,17.63,0,0,1,1-2.29l5.94-10.47h3.84Z"/><path class="cls-22" d="M305.46,338a6,6,0,0,1,1.51,2.29c.39,1,.95,2.67,1.66,5a6.09,6.09,0,0,1,.26.79h-4.08a5.71,5.71,0,0,0-.19-.59,6.17,6.17,0,0,1-.19-.61c-.64-2-1.13-3.38-1.45-4.18a5.09,5.09,0,0,0-1.08-1.79,2.26,2.26,0,0,0-1.62-.57h-1.17a7.85,7.85,0,0,1,.21,1.68v6.06H295.6V340a8.46,8.46,0,0,1,.2-1.68h-1.24a2.16,2.16,0,0,0-1.58.57,5.27,5.27,0,0,0-1.07,1.76c-.33.79-.81,2.17-1.45,4.14l-.41,1.27H286l.3-1c.7-2.29,1.24-3.92,1.64-4.9a6,6,0,0,1,1.49-2.25,4.53,4.53,0,0,1,2.52-1v-.11a4.21,4.21,0,0,1-2.3-.93,5.29,5.29,0,0,1-1.35-2c-.35-.83-.81-2.18-1.39-4.05l-.43-1.4h4c0,.11.11.38.25.82.56,1.75,1,3,1.3,3.79A5.41,5.41,0,0,0,293,335a2,2,0,0,0,1.53.64h1.24a12,12,0,0,1-.2-2.09v-5h3.72v5a11.46,11.46,0,0,1-.18,2.09h1.12a2.07,2.07,0,0,0,1.55-.63,5.26,5.26,0,0,0,1.07-1.79c.3-.78.74-2,1.3-3.77l.28-.87h3.94l-.4,1.3c-.58,1.9-1.05,3.28-1.4,4.13a5.25,5.25,0,0,1-1.37,2,4.21,4.21,0,0,1-2.3.93V337A4.54,4.54,0,0,1,305.46,338Z"/><path class="cls-22" d="M325.64,346.1h-3.72V335.61a12.53,12.53,0,0,1,.23-2.37H322a13.71,13.71,0,0,1-1,2.32l-5.93,10.54H311.2V328.53h3.7v10.31a16.1,16.1,0,0,1-.21,2.45h.15a17.85,17.85,0,0,1,1-2.29l5.93-10.47h3.85Z"/><path class="cls-22" d="M348.6,330l.66,16.12H345.6L345,331.56h-.46l-2.65,10.87a1.43,1.43,0,0,1-1.55,1.25h-2.55a1.49,1.49,0,0,1-1.6-1.25l-2.67-10.87h-.44l-.51,14.54H329l.64-16.12a1.31,1.31,0,0,1,1.45-1.45h3.74a1.45,1.45,0,0,1,1.53,1.25l2.14,8.76c.08.35.15.67.19.94s.08.49.11.66l.16.87h.33l.15-.87.12-.66a9.21,9.21,0,0,1,.19-.94l2.11-8.76a1.46,1.46,0,0,1,1.58-1.25h3.74A1.33,1.33,0,0,1,348.6,330Z"/><path class="cls-22" d="M363.91,329a4.78,4.78,0,0,1,2.34,2.78,21.2,21.2,0,0,1,0,11,4.83,4.83,0,0,1-2.34,2.79,12.68,12.68,0,0,1-8.92,0,4.83,4.83,0,0,1-2.33-2.78,21.27,21.27,0,0,1,0-11A4.81,4.81,0,0,1,355,329a12.54,12.54,0,0,1,8.92,0Zm-6.55,2.85a3.05,3.05,0,0,0-1.05,1.81,22.23,22.23,0,0,0,0,7.28,3,3,0,0,0,1.05,1.8,4.3,4.3,0,0,0,4.17,0,3,3,0,0,0,1.05-1.8,22.23,22.23,0,0,0,0-7.28,3.05,3.05,0,0,0-1.05-1.81,4.3,4.3,0,0,0-4.17,0Z"/><path class="cls-22" d="M379.67,328.36a16.69,16.69,0,0,1,2.38.45l-.33,2.91c-1.37-.09-3-.13-4.94-.13a3.43,3.43,0,0,0-2,.51,2.82,2.82,0,0,0-1,1.73,20.39,20.39,0,0,0,0,7,2.79,2.79,0,0,0,1,1.73,3.43,3.43,0,0,0,2,.51c1.29,0,2.31,0,3.07,0s1.5-.09,2.23-.19l.33,2.87a14.83,14.83,0,0,1-2.51.55,24.76,24.76,0,0,1-3.12.16,9.17,9.17,0,0,1-4.35-.87,5.1,5.1,0,0,1-2.32-2.85,20.59,20.59,0,0,1,0-10.72,5,5,0,0,1,2.32-2.85,9,9,0,0,1,4.35-.88A25,25,0,0,1,379.67,328.36Z"/><path class="cls-22" d="M398,331.69h-5.24V346.1h-3.9V331.69h-5.24v-3.16H398Z"/><path class="cls-22" d="M410.54,335.57a3.48,3.48,0,0,1,2,1.75,10,10,0,0,1,0,6.78,3.31,3.31,0,0,1-1.82,1.71,9.12,9.12,0,0,1-3.32.49c-1.73,0-3.08,0-4.06,0s-2-.08-3-.16h-.1V328.53h3.87v6.52h2.6A11.35,11.35,0,0,1,410.54,335.57Zm-2.23,7.51a1.19,1.19,0,0,0,.71-.77,5.65,5.65,0,0,0,.19-1.71,5.79,5.79,0,0,0-.19-1.71,1.37,1.37,0,0,0-.71-.85,3.61,3.61,0,0,0-1.59-.27h-2.6v5.53h2.6A4.27,4.27,0,0,0,408.31,343.08Z"/><path class="cls-22" d="M238.07,360.6a18.66,18.66,0,0,1,2.38.46l-.34,2.9c-1.37-.08-3-.13-4.93-.13a3.39,3.39,0,0,0-2,.51,2.81,2.81,0,0,0-1,1.73,21.15,21.15,0,0,0,0,7,2.81,2.81,0,0,0,1,1.73,3.39,3.39,0,0,0,2,.51c1.29,0,2.31,0,3.06,0a20.31,20.31,0,0,0,2.23-.19l.33,2.88a16.79,16.79,0,0,1-2.51.55,24.59,24.59,0,0,1-3.11.16,9.06,9.06,0,0,1-4.36-.88,5,5,0,0,1-2.31-2.85,20.31,20.31,0,0,1,0-10.72,5,5,0,0,1,2.31-2.85,9.18,9.18,0,0,1,4.36-.88A27.64,27.64,0,0,1,238.07,360.6Z"/><path class="cls-22" d="M253.87,361.06a3.38,3.38,0,0,1,1.95,1.73,8.31,8.31,0,0,1,.59,3.49,8.85,8.85,0,0,1-.56,3.51,3.29,3.29,0,0,1-1.82,1.75,9.91,9.91,0,0,1-3.5.49,27.75,27.75,0,0,1-3.31-.2v6.52h-3.9V360.78c1-.1,2-.17,2.84-.19s2.18,0,3.86,0A11.38,11.38,0,0,1,253.87,361.06Zm-2.36,7.74a1.39,1.39,0,0,0,.77-.82,4.68,4.68,0,0,0,.23-1.7,4.74,4.74,0,0,0-.23-1.71,1.37,1.37,0,0,0-.77-.81,4.38,4.38,0,0,0-1.59-.23h-2.7v5.52h2.7A4.54,4.54,0,0,0,251.51,368.8Z"/><path class="cls-22" d="M268.5,373.74h-6l-1.28,4.61h-4l5.07-16.55a1.24,1.24,0,0,1,.48-.74,1.43,1.43,0,0,1,.87-.28h3.66a1.44,1.44,0,0,1,.88.27,1.19,1.19,0,0,1,.47.75l5.07,16.55h-4Zm-.84-3-1.48-5.37c-.2-.85-.32-1.4-.35-1.65h-.69l-.38,1.65-1.48,5.37Z"/><path class="cls-22" d="M284,361a3.09,3.09,0,0,1,1.87,1.39,5.66,5.66,0,0,1,.57,2.8,5,5,0,0,1-.71,2.89,3,3,0,0,1-2.29,1.13v.1a3.53,3.53,0,0,1,2.72,1.34A5.73,5.73,0,0,1,287,374a5.34,5.34,0,0,1-.6,2.78,3.23,3.23,0,0,1-1.85,1.39,11.19,11.19,0,0,1-3.36.41,33.35,33.35,0,0,1-3.73-.18,18.84,18.84,0,0,1-3-.58l.28-2.68a37,37,0,0,0,5.7.49,4.5,4.5,0,0,0,1.56-.21,1.31,1.31,0,0,0,.76-.7,3.67,3.67,0,0,0,.23-1.46,4.26,4.26,0,0,0-.24-1.61,1.38,1.38,0,0,0-.8-.77,4.54,4.54,0,0,0-1.61-.22l-3.38-.05v-2.67l3.36-.05a2.68,2.68,0,0,0,1.8-.45,2.29,2.29,0,0,0,.49-1.72,2.24,2.24,0,0,0-.52-1.73,3.18,3.18,0,0,0-1.95-.43,48.08,48.08,0,0,0-5,.33l-.3-2.8a23.35,23.35,0,0,1,2.53-.37c.86-.08,1.87-.11,3-.11A13.16,13.16,0,0,1,284,361Z"/><path class="cls-22" d="M303.07,360.78l-4.3,13a13.44,13.44,0,0,1-1.15,2.69,4.33,4.33,0,0,1-1.54,1.58,4.62,4.62,0,0,1-2.35.55,16.66,16.66,0,0,1-1.86-.13c-.7-.09-1.28-.18-1.76-.28l.44-2.75c.23,0,.52,0,.86,0l1,0a4.83,4.83,0,0,0,1.22-.12,1.39,1.39,0,0,0,.71-.47,3.73,3.73,0,0,0,.54-1l.18-.56h-.92a2.19,2.19,0,0,1-1.46-.44,2.76,2.76,0,0,1-.81-1.32l-3.61-10.82h4l2.78,9.29a.44.44,0,0,0,.16.22.46.46,0,0,0,.29.09h.64l3-9.6Z"/><path class="cls-22" d="M323,370.62a5.73,5.73,0,0,1,.83,3.35,5.33,5.33,0,0,1-.61,2.78,3.29,3.29,0,0,1-1.89,1.39,11.66,11.66,0,0,1-3.43.41c-1.82,0-3.25,0-4.28,0s-2.09-.08-3.16-.16V360.78c.95-.08,1.9-.14,2.83-.17s2.2,0,3.79,0a13.63,13.63,0,0,1,3.69.39,3.12,3.12,0,0,1,1.91,1.39,5.53,5.53,0,0,1,.59,2.8,5,5,0,0,1-.71,2.89,3.1,3.1,0,0,1-2.35,1.13v.1A3.63,3.63,0,0,1,323,370.62Zm-3.69-6.29a1.32,1.32,0,0,0-.8-.65,5.68,5.68,0,0,0-1.63-.18h-2.62V368h2.85a3,3,0,0,0,1.92-.46,2.38,2.38,0,0,0,.52-1.81A3.1,3.1,0,0,0,319.3,364.33Zm-.41,11.1a1.34,1.34,0,0,0,.82-.7,3.65,3.65,0,0,0,.24-1.5,4.19,4.19,0,0,0-.26-1.66,1.5,1.5,0,0,0-.85-.79,5.55,5.55,0,0,0-1.72-.25h-2.87v5.09h2.95A5.55,5.55,0,0,0,318.89,375.43Z"/><path class="cls-22" d="M338.41,375.32l.15,2.85c-1.05.12-2.21.19-3.46.21s-2.82,0-4.69,0a4,4,0,0,1-2.8-.95,3.33,3.33,0,0,1-1-2.59V364.24a3.31,3.31,0,0,1,1.05-2.58,4,4,0,0,1,2.79-1c1.87,0,3.43,0,4.69,0s2.41.1,3.46.22l-.15,2.87h-6.78a1.19,1.19,0,0,0-.91.31,1.41,1.41,0,0,0-.28,1v2.68h7v2.8h-7V374a1.46,1.46,0,0,0,.28,1,1.19,1.19,0,0,0,.91.31Z"/><path class="cls-22" d="M349.89,361a3.09,3.09,0,0,1,1.87,1.39,5.66,5.66,0,0,1,.57,2.8,5,5,0,0,1-.71,2.89,3,3,0,0,1-2.29,1.13v.1a3.53,3.53,0,0,1,2.72,1.34,5.81,5.81,0,0,1,.81,3.35,5.45,5.45,0,0,1-.59,2.78,3.23,3.23,0,0,1-1.85,1.39,11.19,11.19,0,0,1-3.36.41,33.23,33.23,0,0,1-3.73-.18,18.84,18.84,0,0,1-3-.58l.28-2.68a37,37,0,0,0,5.7.49,4.39,4.39,0,0,0,1.55-.21,1.3,1.3,0,0,0,.77-.7,3.67,3.67,0,0,0,.23-1.46,4.26,4.26,0,0,0-.24-1.61,1.4,1.4,0,0,0-.81-.77,4.44,4.44,0,0,0-1.6-.22l-3.39-.05v-2.67l3.36-.05a2.69,2.69,0,0,0,1.81-.45,2.34,2.34,0,0,0,.49-1.72A2.2,2.2,0,0,0,348,364a3.13,3.13,0,0,0-1.94-.43,47.91,47.91,0,0,0-5,.33l-.3-2.8a23.35,23.35,0,0,1,2.53-.37c.86-.08,1.87-.11,3-.11A13.16,13.16,0,0,1,349.89,361Z"/><path class="cls-22" d="M372.16,375.54v6.65h-2.75l-.28-3.84H357.47l-.3,3.84h-2.75v-6.65h1.86a28.17,28.17,0,0,0,1.51-5.18,53.41,53.41,0,0,0,.78-5.91,3.83,3.83,0,0,1,1.22-2.66,4.09,4.09,0,0,1,2.88-1h7.2v14.76Zm-6.16,0v-12h-2.27a1.51,1.51,0,0,0-1.1.34,1.81,1.81,0,0,0-.4,1.16,48.5,48.5,0,0,1-.81,6.07,18.76,18.76,0,0,1-1.5,4.39Z"/><path class="cls-22" d="M386.24,375.32l.15,2.85c-1.05.12-2.2.19-3.46.21s-2.82,0-4.68,0a4,4,0,0,1-2.8-.95,3.33,3.33,0,0,1-1.05-2.59V364.24a3.28,3.28,0,0,1,1.06-2.58,4,4,0,0,1,2.79-1c1.86,0,3.42,0,4.68,0s2.41.1,3.46.22l-.15,2.87h-6.77a1.21,1.21,0,0,0-.92.31,1.41,1.41,0,0,0-.28,1v2.68h7v2.8h-7V374a1.46,1.46,0,0,0,.28,1,1.21,1.21,0,0,0,.92.31Z"/></g></svg>