<?xml version="1.0" encoding="utf-8"?>
<!-- Generator: Adobe Illustrator 25.0.0, SVG Export Plug-In . SVG Version: 6.00 Build 0)  -->
<svg version="1.1" id="Layer_1" xmlns="http://www.w3.org/2000/svg" xmlns:xlink="http://www.w3.org/1999/xlink" x="0px" y="0px"
	 viewBox="0 0 1080 607" style="enable-background:new 0 0 1080 607;" xml:space="preserve">
<style type="text/css">
	.st0{fill:none;}
	.st1{fill-rule:evenodd;clip-rule:evenodd;fill:url(#SVGID_1_);}
	.st2{fill:none;stroke:url(#SVGID_2_);stroke-width:3;}
	.st3{clip-path:url(#SVGID_4_);}
	.st4{opacity:0.5;fill:url(#SVGID_5_);enable-background:new    ;}
	.st5{fill:#D2E4FF;}
	.st6{fill:#233862;}
	.st7{opacity:0.6;fill:#FFFFFF;enable-background:new    ;}
	.st8{fill:#2B478B;}
	.st9{fill:#FFA412;}
	.st10{fill:#E27F2B;}
	.st11{fill:#D9935C;}
	.st12{fill:#CB7D45;}
	.st13{fill:#E9F3FE;}
	.st14{fill:#BED4F4;}
	.st15{fill:#AFCDFB;}
	.st16{fill:#152E45;}
	.st17{fill:none;stroke:url(#SVGID_6_);stroke-width:3;}
	.st18{clip-path:url(#SVGID_8_);}
	.st19{opacity:0.3;fill:url(#SVGID_9_);enable-background:new    ;}
	.st20{opacity:0.5;fill:#D5E5FB;enable-background:new    ;}
	.st21{opacity:0.5;}
	.st22{opacity:0.5;fill:#CBDEF4;enable-background:new    ;}
	.st23{fill:#B1DBA5;}
	.st24{fill:#BFE8B5;}
	.st25{fill:#F8FCFF;}
	.st26{fill:#A8D29F;}
	.st27{fill:#ED9F4A;}
	.st28{fill:#F9DDBF;}
	.st29{fill:#FFF3E9;}
	.st30{fill:#EFCDAF;}
	.st31{fill:#F99746;}
	.st32{fill:#D3A784;}
	.st33{fill:#FFFFFF;}
	.st34{fill:#FFB27D;}
	.st35{fill:#F2CCAA;}
	.st36{fill:#E8945B;}
	.st37{fill:#EBF3FA;}
	.st38{fill:#ED7D2B;}
	.st39{fill:#17467F;}
	.st40{fill:#0C2442;}
	.st41{fill-rule:evenodd;clip-rule:evenodd;fill:url(#SVGID_10_);}
	.st42{fill:#00AAFF;}
	.st43{fill:#97CF26;}
	.st44{fill:#FF6163;}
	.st45{fill:#A169F7;}
	.st46{fill-rule:evenodd;clip-rule:evenodd;fill:url(#SVGID_11_);}
	.st47{fill-rule:evenodd;clip-rule:evenodd;fill:url(#SVGID_12_);}
	.st48{fill-rule:evenodd;clip-rule:evenodd;fill:url(#SVGID_13_);}
	.st49{fill-rule:evenodd;clip-rule:evenodd;fill:url(#SVGID_14_);}
	.st50{fill-rule:evenodd;clip-rule:evenodd;fill:#152E45;}
	.st51{fill:#4A88C0;}
	.st52{fill:#223C4E;}
	.st53{fill:#FF0000;}
	.st54{fill:url(#SVGID_15_);}
	.st55{opacity:0.8;fill:url(#SVGID_16_);enable-background:new    ;}
	.st56{fill:url(#SVGID_17_);}
	.st57{fill:url(#SVGID_18_);}
	.st58{fill:url(#SVGID_19_);}
	.st59{fill:url(#SVGID_20_);}
	.st60{fill:url(#SVGID_21_);}
	.st61{fill:url(#SVGID_22_);}
</style>
<rect y="0" class="st0" width="1080" height="607"/>
<linearGradient id="SVGID_1_" gradientUnits="userSpaceOnUse" x1="935.4518" y1="605.6025" x2="830.0309" y2="407.2242" gradientTransform="matrix(1 0 0 -1 0 608)">
	<stop  offset="0" style="stop-color:#E4F5FF"/>
	<stop  offset="1" style="stop-color:#B4E2FD"/>
</linearGradient>
<path class="st1" d="M939,185.6c-11.3,4.8-33.6,13-59.9,16.1c-26.3,3.1-56.3,1.2-83.1-13.8c-55.4-31.1-59.3-100.8-24.8-139
	c13.8-15.3,34.3-25.9,58-32.4c23.7-6.4,50.3-8.6,76.3-7.1c26,1.5,51.1,6.8,71.6,15c20.6,8.3,36.3,19.5,43.9,32.8
	c10.8,18.9,6.6,43.8-8.9,67.9C996.7,149.3,970.5,171.9,939,185.6z M1023.6,55.8c23.2,40.5-19.4,104.7-83.4,132.5
	c-22.8,9.8-90.4,33.1-145.7,2.2C737.3,158.4,733.3,86.4,769,46.9C826.4-16.4,991.2-0.6,1023.6,55.8z"/>
<linearGradient id="SVGID_2_" gradientUnits="userSpaceOnUse" x1="983.181" y1="396.6634" x2="883.69" y2="207.2314" gradientTransform="matrix(1 0 0 -1 0 608)">
	<stop  offset="0" style="stop-color:#E4F5FF"/>
	<stop  offset="1" style="stop-color:#B4E2FD"/>
</linearGradient>
<path class="st2" d="M999.6,388.4c-30.2,9.8-66.9,13.1-100.1,7.3c-11.8-2.1-34.1-7.2-55.3-18c-21.2-10.7-41-26.9-48.2-51
	c-7.4-24.9,1.9-50.4,20.3-71.2c18.4-20.8,45.6-36.6,73.4-41.9c44.5-8.4,92.6,10.1,126.9,37.9c17.1,13.9,30.8,30,38.8,46
	c8,16.1,10.4,31.9,5.3,45.4C1053.3,362.5,1029.9,378.6,999.6,388.4z"/>
<g>
	<defs>
		<path id="SVGID_3_" d="M999.6,388.4c-30.2,9.8-66.9,13.1-100.1,7.3c-11.8-2.1-34.1-7.2-55.3-18c-21.2-10.7-41-26.9-48.2-51
			c-7.4-24.9,1.9-50.4,20.3-71.2c18.4-20.8,45.6-36.6,73.4-41.9c44.5-8.4,92.6,10.1,126.9,37.9c17.1,13.9,30.8,30,38.8,46
			c8,16.1,10.4,31.9,5.3,45.4C1053.3,362.5,1029.9,378.6,999.6,388.4z"/>
	</defs>
	<clipPath id="SVGID_4_">
		<use xlink:href="#SVGID_3_"  style="overflow:visible;"/>
	</clipPath>
	<g class="st3">
		
			<linearGradient id="SVGID_5_" gradientUnits="userSpaceOnUse" x1="890.4071" y1="342.1164" x2="810.4071" y2="120.3964" gradientTransform="matrix(1 0 0 -1 0 608)">
			<stop  offset="0" style="stop-color:#E4F5FF"/>
			<stop  offset="1" style="stop-color:#B4E2FD"/>
		</linearGradient>
		<path class="st4" d="M706.6,471.3c0,0-41.2-1-58.9-26c-31.9-45.4-17.5-85.2,39.3-82.2c63.6,3.3,55.8-137.3,165.9-69.6
			c23.9,14.7,77.1-16.2,98.4,48.2c5.1,15.3,43,16.4,67.6,28.6c38.5,19.2,27.6,101.4-8.8,101.7C973.7,472.3,706.6,471.3,706.6,471.3z
			"/>
		<path class="st5" d="M1096.1,154.1l2.4,0.8l-67.3-46l-157,47.2l-0.8,47h-3.6c-2.1,0-3.9,1.7-3.9,3.9v3.9c0,2.1,1.8,3.9,3.9,3.9
			h12.5c2.1,0,3.9-1.8,3.9-3.9v-3.9c0-2.1-1.8-3.9-3.9-3.9h-6.1l29.5-31.8h106v414.5h25.8V171.5h21.9v9c0,2.1,1.8,3.9,3.9,3.9h32.8
			c2.1,0,3.9-1.8,3.9-3.9V158C1100,155.8,1098.3,154.1,1096.1,154.1z M875.7,200.5l0.8-28.5l26.3-0.5L875.7,200.5z M1063.3,154.1
			c-1.9,0-3.5,1.4-3.8,3.2h-181l152.4-45.9l63.3,42.6H1063.3z"/>
		<path class="st5" d="M850.1,253.4v-2.5h5.5v-16.5h4.5v16.5h11.4v-16.5h4.5v16.5h12.5v-16.5h4.5v16.5h11.4v-16.5h4.5v16.5h6v2.5h-6
			v8h6v2.5h-6v8h6v2.5h-6v8h6v2.5h-6v8h6v2.5h-6v8h6v2.5h-6v6.5h6v2.5h-6v8h6v2.5h-6v8h6v2.5h-6v8.1h6v2.5h-6v8h6v2.5h-6v8h6v2.5h-6
			v7.6h6v2.5h-6v8h6v2.5h-6v8h6v2.5h-6v8h6v2.5h-6v8h6v2.5h-6v8h6v2.5h-6v6.5h6v2.5h-6v8h6v2.5h-6v8h6v2.5h-6v8h6v2.5h-6v8h6v2.5h-6
			v8h6v2.5h-6v7.2h6v2.5h-6v8h6v2.5h-6v8h6v2.5h-6v8h6v2.5h-6v8h6v2.5h-6v8h6v2.5h-6v6.5h6v2.5h-6v8h6v2.5h-6v8h6v2.5h-64.9v-2.5
			h5.5v-7.7h-5.5V571h5.5v-8h-5.5v-2.5h5.5v-6.5h-5.5v-2.5h5.5v-8h-5.5v-2.5h5.5v-8h-5.5v-2.5h5.5v-8h-5.5v-2.5h5.5v-8h-5.5v-2.5
			h5.5v-8h-5.5v-2.5h5.5v-7.2h-5.5v-2.5h5.5v-8h-5.5v-2.5h5.5v-8h-5.5v-2.5h5.5v-8h-5.5v-2.5h5.5v-8h-5.5v-2.5h5.5v-8h-5.5v-2.5h5.5
			v-6.5h-5.5v-2.5h5.5v-8.1h-5.5v-2.5h5.5v-8h-5.5v-2.5h5.5v-8h-5.5v-2.5h5.5v-8h-5.5v-2.5h5.5v-8.1h-5.5v-2.5h5.5v-7.6h-5.5V365
			h5.5v-8h-5.5v-2.5h5.5v-8h-5.5V344h5.5v-8h-5.5v-2.5h5.5v-8h-5.5V323h5.5v-8h-5.5v-2.5h5.5v-6.5h-5.5v-2.5h5.5v-8h-5.5v-2.5h5.5
			v-8h-5.5v-2.5h5.5v-8h-5.5v-2.5h5.5v-8.1h-5.5v-2.5h5.5v-8H850.1z M876.1,253.4v8h12.5v-8H876.1z M888.6,571v-8h-12.5v8H888.6z
			 M876.1,573.4v8h12.5v-8H876.1z M888.6,560.4v-6.5h-12.5v6.5H888.6z M888.6,551.4v-8h-12.5v8H888.6z M888.6,540.9v-8h-12.5v8
			H888.6z M888.6,530.4v-8h-12.5v8H888.6z M888.6,519.9v-8h-12.5v8H888.6z M888.6,509.4v-8h-12.5v8H888.6z M888.6,498.9v-7.2h-12.5
			v7.2H888.6z M888.6,489.2v-8h-12.5v8H888.6z M888.6,478.7v-8h-12.5v8H888.6z M888.6,468.2v-8h-12.5v8H888.6z M888.6,457.7v-8
			h-12.5v8H888.6z M888.6,447.2v-8h-12.5v8H888.6z M888.6,436.7v-6.5h-12.5v6.5H888.6z M888.6,427.7v-8h-12.5v8H888.6z M888.6,417.2
			v-8h-12.5v8H888.6z M888.6,406.7v-8h-12.5v8H888.6z M888.6,396.1v-8h-12.5v8H888.6z M888.6,385.6v-8h-12.5v8L888.6,385.6
			L888.6,385.6z M888.6,375.1v-7.6h-12.5v7.6H888.6z M888.6,365v-8h-12.5v8H888.6z M888.6,354.5v-8h-12.5v8H888.6z M888.6,344v-8
			h-12.5v8H888.6z M888.6,333.4v-8h-12.5v8H888.6z M888.6,322.9v-8h-12.5v8H888.6z M888.6,312.4v-6.5h-12.5v6.5H888.6z M888.6,303.4
			v-8h-12.5v8H888.6z M888.6,292.9v-8h-12.5v8H888.6z M888.6,282.4v-8h-12.5v8H888.6z M888.6,271.9v-8h-12.5v8H888.6z M904.6,253.4
			h-11.4v8h11.4V253.4z M904.6,263.9h-11.4v8h11.4V263.9z M904.6,274.4h-11.4v8h11.4V274.4z M904.6,284.9h-11.4v8h11.4V284.9z
			 M904.6,295.4h-11.4v8h11.4V295.4z M904.6,305.9h-11.4v6.5h11.4V305.9z M904.6,314.9h-11.4v8h11.4V314.9z M904.6,325.4h-11.4v8
			h11.4V325.4z M904.6,335.9h-11.4v8h11.4V335.9z M904.6,346.4h-11.4v8h11.4V346.4z M904.6,356.9h-11.4v8h11.4V356.9z M904.6,367.5
			h-11.4v7.6h11.4V367.5z M904.6,377.6h-11.4v8h11.4V377.6z M904.6,388.1h-11.4v8h11.4V388.1z M904.6,398.6h-11.4v8h11.4V398.6z
			 M904.6,409.2h-11.4v8h11.4V409.2z M904.6,419.7h-11.4v8h11.4V419.7z M904.6,430.2h-11.4v6.5h11.4V430.2z M904.6,439.1h-11.4v8
			h11.4V439.1z M904.6,449.7h-11.4v8h11.4V449.7z M904.6,460.2h-11.4v8h11.4V460.2z M904.6,470.7h-11.4v8h11.4V470.7z M904.6,481.2
			h-11.4v8h11.4V481.2z M904.6,491.7h-11.4v7.2h11.4V491.7z M904.6,501.4h-11.4v8h11.4V501.4z M904.6,511.9h-11.4v8h11.4V511.9z
			 M904.6,522.4h-11.4v8h11.4V522.4z M904.6,532.9h-11.4v8h11.4V532.9z M904.6,543.4h-11.4v8h11.4V543.4z M904.6,553.9h-11.4v6.5
			h11.4V553.9z M904.6,562.9h-11.4v8h11.4V562.9z M904.6,573.4h-11.4v8h11.4V573.4z M860.1,581.5h11.4v-8h-11.4V581.5z M860.1,571
			h11.4v-8h-11.4V571z M860.1,560.4h11.4v-6.5h-11.4V560.4z M860.1,551.4h11.4v-8h-11.4V551.4z M860.1,540.9h11.4v-8h-11.4V540.9z
			 M860.1,530.4h11.4v-8h-11.4V530.4z M860.1,519.9h11.4v-8h-11.4V519.9z M860.1,509.4h11.4v-8h-11.4V509.4z M860.1,498.9h11.4v-7.2
			h-11.4V498.9z M860.1,489.2h11.4v-8h-11.4V489.2z M860.1,478.7h11.4v-8h-11.4V478.7z M860.1,468.2h11.4v-8h-11.4V468.2z
			 M860.1,457.7h11.4v-8h-11.4V457.7z M860.1,447.2h11.4v-8h-11.4V447.2z M860.1,436.7h11.4v-6.5h-11.4V436.7z M860.1,427.7h11.4v-8
			h-11.4V427.7z M860.1,417.2h11.4v-8h-11.4V417.2z M860.1,406.7h11.4v-8h-11.4V406.7z M860.1,396.1h11.4v-8h-11.4V396.1z
			 M860.1,385.6h11.4v-8h-11.4V385.6z M860.1,375.1h11.4v-7.6h-11.4V375.1z M860.1,365h11.4v-8h-11.4V365z M860.1,354.5h11.4v-8
			h-11.4V354.5z M860.1,344h11.4v-8h-11.4V344z M860.1,333.4h11.4v-8h-11.4V333.4z M860.1,322.9h11.4v-8h-11.4V322.9z M860.1,312.4
			h11.4v-6.5h-11.4V312.4z M860.1,303.4h11.4v-8h-11.4V303.4z M860.1,292.9h11.4v-8h-11.4V292.9z M860.1,282.4h11.4v-8h-11.4V282.4z
			 M860.1,271.9h11.4v-8h-11.4V271.9z M860.1,261.4h11.4v-8h-11.4V261.4z"/>
		<path class="st6" d="M1056.7,458.6l29.4-68h53.6l1.8,120h-65.2l-19.6-28.1V458.6z"/>
		<path class="st7" d="M1061,501.1l-13.8-2.2l51.7-114.8l13.8,2.2L1061,501.1z"/>
		<path class="st8" d="M994.7,454.8l26.8-63.1h64.6l-28.7,69.3L994.7,454.8z"/>
		<path class="st7" d="M990.6,458.6l-12.9-5.5l70.7-82.5l12.9,5.5L990.6,458.6z"/>
		<path class="st7" d="M1001.7,463.3l-4.1-1.8l70.6-82.5l4.1,1.8L1001.7,463.3z"/>
		<path class="st7" d="M1027.7,474.2l-12.9-5.4l70.6-82.5l12.9,5.4L1027.7,474.2z"/>
		<path class="st9" d="M1018.9,388.8l-28.5,67.5l7.7-2.7l25.4-59.9h57.9l2-4.9H1018.9z"/>
		<path class="st10" d="M1147.7,453.6v-64.8h-64.6l-27.4,64.8H888l-10.8,14.8l-10.1,40h284.3v-54.9H1147.7z M1127,505.5h-39.4
			l-24.6-29.7v-22.2l24.7-59.9h46.8v52.4c0,4.1-3.4,7.5-7.5,7.5V505.5z"/>
		<path class="st9" d="M1084.7,389.1h-70c-1.5,0-2.8-1.2-2.8-2.8c0-1.5,1.2-2.8,2.8-2.8h70c1.6,0,2.8,1.2,2.8,2.8
			C1087.5,387.9,1086.2,389.1,1084.7,389.1z"/>
		<path class="st9" d="M885,352.9c3.6,11.1,23.4,30.4,26.2,32.3c0,0,4.6-7.7,3.7-12c-0.7-3.5-8.5-16-11.1-22.2
			c-0.1-0.3-0.3-0.6-0.4-0.9c-0.4-0.9-0.5-1.7-0.5-2.1c0.1-1.3,4.3-4.6,9.2-8.4c6.3-5,13.8-11,15.1-15.2c2.2-7.4,9.6-36.5,9.6-36.5
			s-18.5,4-23.7,8.6c-5.2,4.6-27.6,43-28.6,52.8C884.3,350.3,884.5,351.5,885,352.9z"/>
		<path class="st11" d="M885,352.9c3.6,11.1,23.4,30.4,26.2,32.3c0,0,4.6-7.7,3.7-12c-0.8-3.7-9.3-17.4-11.5-23.1
			C900.1,349.5,892.4,348.8,885,352.9z"/>
		<path class="st11" d="M936.8,285.2v2.3c0,0-0.6,7.1,8.1,8.1c8.7,1,15.3-2.1,15.1-7.6c-0.8-4.2-1.6-7.8-1.7-11.3
			c0-1.3,0.1-2.7,0.3-4.2l-16.9-0.3l-5,0.8L936.8,285.2z"/>
		<path class="st12" d="M936.7,273l0.1,12.2c1.8,0.8,3.8,1.3,6.1,1.3c7.8,0,12.8-5.7,15.4-9.8c0-1.3,0.1-2.7,0.3-4.2l-16.9-0.3
			L936.7,273z"/>
		<path class="st8" d="M937.9,490.2c-0.5,3-0.9,5.4-1,7.2c-1.2,24-20.2,78.9-23.6,80.2c-5.3,2-13.5-2.2-17.9-3.6
			c-1.8-0.6-3-2.4-2.6-4.2c9.4-43.2,12.9-105.5,14.1-142.3c0.6-18.6,3.8-31.4,3.8-31.4s46.3-12.3,46.6,3.3
			C957.6,413.1,942,467.3,937.9,490.2z"/>
		<path class="st6" d="M937.9,490.2l-30.9-62.8c0.6-18.6,3.8-31.4,3.8-31.4s46.3-12.4,46.6,3.3C957.6,413.1,942,467.3,937.9,490.2z"
			/>
		<path class="st8" d="M927.6,399.3l24.5,177.4c0,0,10.8,2.6,19.1,0.5c0,0,7.2-94.4,6.6-117.2c-0.6-22.8,5.2-61-1.3-65.3
			C970,390.6,927.6,399.3,927.6,399.3z"/>
		<path class="st9" d="M909.4,399.6c0,0,12.5,7.3,30.6,7.1c7.1-0.1,13.2-0.6,18.5-1.4c14.5-2.2,21.9-6.2,21.8-7.7
			c0-1.4-0.1-5.9-0.3-7.8c-2.3-26.7-1.1-47.3-4.2-62.9c0-0.2-0.1-0.4-0.1-0.6c-4.1-19.8-10.6-31.2-13.8-35.8c-1.2-1.7-1.9-2.5-2-2.5
			c0,3.7-7.9,6.9-14.3,6.5c-5.4-0.3-8.9-4.5-8.9-6.7c-0.4,0-24.4,16.6-24.4,32.1C912.3,389.1,908.1,399.7,909.4,399.6z"/>
		<path class="st10" d="M958.5,405.1c0,0.1,0,0.2,0,0.2c14.5-2.2,21.9-6.2,21.8-7.7c0-1.4-0.1-5.9-0.3-7.8
			c-2.3-26.6-1.1-47.3-4.2-62.9C968.1,337.1,952.4,363.8,958.5,405.1z"/>
		<path class="st13" d="M918.6,372l2,6.5l2,6.5l84.3-25.4c0.1,0,0.2,0,0.3,0c0.1,0,0.2-0.1,0.3-0.2c1.1-0.7,1.2-3.5,0.4-6.6
			c0-0.2-0.1-0.3-0.1-0.5c-1-3.3-2.8-5.8-4.1-5.8c-0.1,0-0.2,0-0.3,0c-0.1,0-0.2,0.1-0.3,0.1L918.6,372z"/>
		<path class="st14" d="M920.6,378.5l2,6.5l84.3-25.4c0.1,0,0.2,0,0.3,0c0.1,0,0.2-0.1,0.3-0.2c1.1-0.7,1.2-3.5,0.4-6.6
			c-3.4,2.6-19.9,14-48,19.6C930.9,378.1,921.9,378.5,920.6,378.5z"/>
		<path class="st15" d="M918.5,372c1.4-0.4,3.4,2.2,4.5,5.8c1.1,3.6,0.8,6.9-0.6,7.3c-1.4,0.4-3.4-2.2-4.5-5.8
			C916.8,375.6,917.1,372.4,918.5,372z"/>
		<path class="st13" d="M1002.4,344.3l9.9-1.6c0.1-0.1,0.2-0.1,0.3-0.1c0.1,0,0.2,0,0.3,0c1.4,0.2,2.8,2.9,3.4,6.3
			c0,0.2,0.1,0.4,0.1,0.5c0.2,1.5,0.2,2.9,0,4.1c-0.2,1.2-0.6,2.1-1.2,2.4c0,0,0,0,0,0c-0.1,0.1-0.2,0.1-0.3,0.1c-0.1,0-0.2,0-0.3,0
			l-87,14.1l-1.1-6.7l-1.1-6.7L1002.4,344.3z"/>
		<path class="st14" d="M966.3,362.5c18.6-1.2,28.5-11,36.1-18.3l9.9-1.6c0.1-0.1,0.2-0.1,0.3-0.1c0.1,0,0.2,0,0.3,0
			c1.4,0.2,2.8,2.9,3.4,6.3c0,0.2,0.1,0.4,0.1,0.5c0.2,1.5,0.2,2.9,0,4.1c-0.5,1.3-1,2.2-1.2,2.4c0,0,0,0,0,0
			c-0.1,0.1-0.2,0.1-0.3,0.1c-0.1,0-0.2,0-0.3,0l-87,14.1l-1.1-6.7C927.8,363.6,936.7,364.4,966.3,362.5z"/>
		<path class="st15" d="M925.2,356.7c1.4-0.2,3.1,2.6,3.7,6.3c0.6,3.7-0.1,6.9-1.6,7.1c-1.4,0.2-3.1-2.6-3.7-6.3
			C923,360.1,923.8,356.9,925.2,356.7z"/>
		<path class="st11" d="M956.1,382.3c20.2-3.2,33.5-11.6,39-15.7c1.9-1.4,2.8-2.3,2.8-2.3c10.3-21.7-8.3-59.8-11.8-66.3
			c-3.7-7-26.2-10-26.2-10s3.6,10.6,5,24.4c1.4,13.8,16.4,40.6,15.8,42.9c-0.2,0.6-2,1.7-4.6,3.3c-7.8,4.4-23,11.6-23.9,13.3
			C951,374.1,956.1,382.3,956.1,382.3z"/>
		<path class="st11" d="M952.2,371.8c0,0-11.3-4.5-14-2.7c-2.8,1.9-7.4,4.6-7.4,6.5c0,1.9,5.8,6.8,10.7,8.3
			c4.9,1.5,14.5-1.6,14.5-1.6L952.2,371.8z"/>
		<path class="st9" d="M964.9,312.4c1.4,13.8,16.4,40.6,15.8,42.9c-0.2,0.6-2,1.8-4.6,3.3c0.2,0,0.3,0,0.5,0c11.8-0.5,17.1,6,18.5,8
			c1.9-1.4,2.8-2.3,2.8-2.3c10.3-21.7-8.4-59.8-11.8-66.3c-3.7-7-26.2-10-26.2-10S963.6,298.6,964.9,312.4z"/>
		<path class="st11" d="M935.7,278.9c0,0,21.7,4.4,24.2-9.2c2.5-13.5,7-22.1-6.7-25.4c-13.7-3.4-17.4,1.3-19.3,5.6
			C931.9,254.2,930.1,277.4,935.7,278.9z"/>
		<path class="st16" d="M959.4,273.7c0,0,4.2-9,7.7-12.9c3.5-4,1.6-23.8-13.5-23.2c-15.1,0.6-20.5,11.4-20.6,13.5
			c-0.2,2.1,12.1,0.5,15.4,3.2c3.3,2.7,0.2,7.1,4,8.7c3.8,1.6,6.8,1.6,6.2,5.1C957.9,271.5,959.4,273.7,959.4,273.7z"/>
		<path class="st9" d="M954.8,228.3c4.3,1.1,7.5,2.8,10,4.9c0.2,0.2,0.5,0.4,0.7,0.6c9,8.5,5.4,22.1,5.4,22.1s-1.2,3.4-2,4.7
			c-0.8,1.3-12.7-0.2-13.3-2.8c-0.6-2.6-3-5.2-3-5.2s-12.5-0.9-13.4-0.9c-2.8-0.2-10.9-3-10.9-3
			C928.4,248.1,932.9,222.8,954.8,228.3z"/>
		<path class="st10" d="M920.9,246.2c1.5-0.4,4.1-0.8,8.3-0.9c0,0,3.5,2.9,10.6,5.2c3.3-4.2,12.8-14.2,25.1-17.2c0,0,0.1,0,0.1,0
			c0.3,0.3,0.4,0.4,0.6,0.7c0.1,0.1,0.1,0.1,0.2,0.2c-10,1.8-19.5,13-22.8,17.2c2.8,0.7,6,1.2,9.7,1.5c0,0-21.9,0.4-31.9-4.8
			C919.9,247.5,920,246.4,920.9,246.2z"/>
		<path class="st10" d="M898.6,345.5c0.4,2.3,1.7,4.7,5.2,5.5c-0.1-0.3-0.3-0.6-0.4-0.9c-0.4-0.9-0.5-1.7-0.5-2.1
			c0.1-1.3,4.3-4.6,9.2-8.4c0.4-2.2,1.4-8.7,0-13.8C910.4,319.4,898.1,342.9,898.6,345.5z"/>
		<path class="st10" d="M978.5,357c0,0,15.1-1.2,20,7.5c0,0-0.4,3-3.3,2.1c0,0-12.7-8.7-19-8C976.1,358.5,977.1,357,978.5,357z"/>
		<path class="st10" d="M903.8,351c0,0-7.8,0.3-17.6,4.6c0,0-2.2-2.2-1.3-3.4C885.7,351,899.5,346.6,903.8,351z"/>
	</g>
</g>
<linearGradient id="SVGID_6_" gradientUnits="userSpaceOnUse" x1="923.0382" y1="198.488" x2="815.0622" y2="9.6389" gradientTransform="matrix(1 0 0 -1 0 608)">
	<stop  offset="0" style="stop-color:#E4F5FF"/>
	<stop  offset="1" style="stop-color:#B4E2FD"/>
</linearGradient>
<path class="st17" d="M959,569.2L959,569.2c-33.2,33.3-86.7,34.7-133.6,21.6c-23.4-6.5-45-16.7-61.4-28.1
	c-16.5-11.5-27.4-24-29.9-35.3c-1.5-6.8-0.2-14.4,3.5-22.4c3.7-8,9.8-16.4,17.7-24.8c15.8-16.7,38.8-33.3,64.2-46.6
	c25.4-13.3,53.2-23.4,78.5-27.4c25.4-4,48-1.7,63.6,9.3c18.7,13.2,28.9,40.7,29,70.6C990.6,516,980.5,547.7,959,569.2z"/>
<g>
	<defs>
		<path id="SVGID_7_" d="M732.7,527.8c10.6,47.4,159.8,110.3,227.4,42.5c43.6-43.6,40.7-128.6,2.3-155.9
			C898.5,369.1,719.8,469.9,732.7,527.8z"/>
	</defs>
	<clipPath id="SVGID_8_">
		<use xlink:href="#SVGID_7_"  style="overflow:visible;"/>
	</clipPath>
	<g class="st18">
		
			<linearGradient id="SVGID_9_" gradientUnits="userSpaceOnUse" x1="925.4418" y1="154.8188" x2="812.7267" y2="-74.7742" gradientTransform="matrix(1 0 0 -1 0 608)">
			<stop  offset="0" style="stop-color:#E4F5FF"/>
			<stop  offset="1" style="stop-color:#B4E2FD"/>
		</linearGradient>
		<path class="st19" d="M1035.9,599.6c-1,9.4-3.8,17.9-7.1,24.9c-0.3,0.6-0.5,1.2-0.8,1.7c0,0.1-0.1,0.2-0.1,0.3
			c-2.4,4.9-5.1,8.9-7.1,12.1c-1.2,1.9-5.4,5.7-13.9,10.4c-0.9,0.5-1.8,1-2.8,1.5c-17.4,8.9-49.9,20.1-106.1,26.1
			c-45.3,4.9-130,4.3-173.3-9.9c-11.9-3.9-25.5-21.3-25.5-21.3c-1.1-2.2-2.2-4.3-3.1-6.3c-0.1-0.2-0.2-0.4-0.3-0.5
			c-0.5-1-0.9-2.1-1.4-3.1c0,0,0,0,0-0.1c-0.3-0.9-0.6-1.8-0.8-2.7c-0.1-0.5-0.3-1.1-0.4-1.6c-0.6-2.6-1-5-1-7.3c0-0.4,0-0.8,0-1.2
			c0-1.2,0.1-2.4,0.2-3.6c0.1-0.8,0.2-1.6,0.4-2.4c0-0.1,0-0.2,0.1-0.3c0.2-0.8,0.3-1.6,0.6-2.3c0.1-0.2,0.1-0.4,0.2-0.7
			c0.2-0.7,0.4-1.4,0.7-2.1c0,0,0-0.1,0-0.1c0.5-1.3,1-2.5,1.6-3.7c0.9-1.8,1.9-3.6,2.9-5.3c1.5-2.5,3.1-4.9,4.7-7.4
			c5.3-8.5,10.2-17.9,8.7-32c-0.3-2.7-0.8-5.7-1.6-8.8c-0.9-3.4-1.6-6.8-2-10c-2-13.9-0.5-26.4,3.7-37.3c0.9-2.3,1.9-4.6,3-6.8
			c4.1-8,9.7-15,16.4-21c5.7-5.1,12.2-9.5,19.2-13c3.3-1.7,6.7-3.1,10.1-4.4c4.6-1.7,9.4-3.1,14.2-4.1c31-6.5,64.5,1.6,81.2,27.2
			c22.1,33.8,55.6,38.9,70.2,34.7c3.1-0.9,6.1-1.7,9.3-2.4c19-4.4,39-5.3,58.6,6.7c0,0,0,0,0,0c0,0,0,0,0,0c1.7,1,3.4,2.1,5,3.4
			c0.6,0.4,1.2,0.9,1.8,1.4c1.1,0.9,2.3,1.8,3.5,2.8c3.8,3.3,7.5,7.1,11.3,11.5c0.5,0.6,1,1.2,1.5,1.9c0.3,0.3,0.5,0.6,0.8,0.9
			c0.8,0.9,1.5,1.9,2.2,2.9c0.6,0.9,1.3,1.7,1.9,2.6c2.1,2.9,3.9,5.9,5.5,8.8c1.5,2.8,2.8,5.7,3.9,8.5c0.1,0.2,0.2,0.4,0.2,0.7
			c0.1,0.1,0.1,0.3,0.1,0.4c0.6,1.6,1.1,3.2,1.6,4.8c0.2,0.8,0.4,1.5,0.6,2.3c0.4,1.5,0.7,2.9,0.9,4.3
			C1036.5,587.3,1036.6,593.6,1035.9,599.6z"/>
		<path class="st20" d="M1119.3,536.7c1.2,6.6,1.3,13,0.7,18.9c-1,9.4-3.8,17.9-7.1,24.9c-0.3,0.6-0.5,1.2-0.8,1.7
			c0,0.1-0.1,0.2-0.1,0.3c-2.4,4.9-5.1,8.9-7.2,12.1c-1.3,2.1-6.3,6.5-16.7,11.8l-108.7,0.4v-0.4l-107.9,0.4h-9.3V537h9.2v-15.5
			h18.4v13.2h5.6v-24.4h1.2v-1.7h0.2v1.7h4.4v-1.7h0.2v1.7h6.3v-1.7h0.2v1.7h4v-1.7h0.2v1.7h1.6V533h6.2v-3.7l7.3,0v-6h1.5v-1.2h0.2
			v1.2h5.7h1.1v-1.2h0.2v1.2h1.4v11.9h8.7v4.4h4.9v-2.5h4.5V527h2.2v-4.7h0.3v4.7h5.4v-8.8h0.5v8.8h3.6v-0.1v-1.1v-1.1v-1.8v-1.1
			v-1.8v-1.1v-1.8V516v-1.8v-1.5v-1.8v-1.2h1.1v-1.3h0.2v1.3h7.9v-1.3h0.2v1.3h1.4v9.2h1h0v-1.8h0V516h0v-1.8h0V513h0v-1.8h0h9.5
			h1.6c0.1,0.1,0.2,0.1,0.3,0.1v10.1h7v13.2h5.6v-24.4h1.2v-1.7h0.2v1.7h4.4v-1.7h0.2v1.7h6.3v-1.7h0.2v1.7h4v-1.7h0.2v1.7h1.6V533
			h6.2v-3.7l7.3,0v-6h1.5v-1.2h0.2v1.2h5.7h1.1v-1.2h0.2v1.2h1.4v11.9h8.7v4.4h4.9v-2.5h4.5V527h2.2v-4.7h0.3v4.7h5.4v-8.8h0.5v8.8
			h3.6v-0.1v-1.1v-1.1v-1.8v-1.1v-1.8v-1.1v-1.8V516v-1.8v-1.5v-1.8v-1.2h1.1v-1.3h0.2v1.3h7.8v-1.3h0.2v1.3h1.4v9.2h1h0h0v-1.8h0
			V516h0v-1.8h0V513h0v-1.8h0h9.5h1.6c0.1,0.1,0.2,0.1,0.2,0.1v10.1h11.7v13.2h5.6V525c0.7,1.7,1.2,3.4,1.7,5.1
			c0.2,0.8,0.4,1.5,0.6,2.3C1118.7,533.8,1119,535.2,1119.3,536.7z"/>
		<g class="st21">
			<path class="st22" d="M909.2,510.2h-13.7v3.9h13.7V510.2z"/>
			<path class="st22" d="M909.2,516h-13.7v3.9h13.7V516z"/>
			<path class="st22" d="M909.2,522.1h-13.7v3.9h13.7V522.1z"/>
			<path class="st22" d="M909.2,528.3h-13.7v3.9h13.7V528.3z"/>
			<path class="st22" d="M909.2,534.2h-13.7v3.9h13.7V534.2z"/>
			<g class="st21">
				<path class="st22" d="M974.6,509.7h-7v2.3h7V509.7z"/>
				<path class="st22" d="M974.6,513.3h-7v2.3h7V513.3z"/>
				<path class="st22" d="M974.6,517h-7v2.3h7V517z"/>
				<path class="st22" d="M974.6,520.8h-7v2.3h7V520.8z"/>
				<path class="st22" d="M974.6,524.4h-7v2.3h7V524.4z"/>
			</g>
			<g class="st21">
				<path class="st22" d="M974.6,528.4h-7v2.3h7V528.4z"/>
				<path class="st22" d="M974.6,532h-7v2.3h7V532z"/>
				<path class="st22" d="M974.6,535.7h-7v2.3h7V535.7z"/>
				<path class="st22" d="M974.6,539.4h-7v2.3h7V539.4z"/>
				<path class="st22" d="M974.6,543h-7v2.3h7V543z"/>
			</g>
			<g class="st21">
				<path class="st22" d="M987.5,511.3h-8v2.3h8V511.3z"/>
				<path class="st22" d="M987.5,514.9h-8v2.3h8V514.9z"/>
				<path class="st22" d="M987.5,518.6h-8v2.3h8V518.6z"/>
				<path class="st22" d="M987.5,522.3h-8v2.3h8V522.3z"/>
				<path class="st22" d="M987.5,525.9h-8v2.3h8V525.9z"/>
			</g>
			<g class="st21">
				<path class="st22" d="M987.5,529.7h-8v2.3h8V529.7z"/>
				<path class="st22" d="M987.5,533.3h-8v2.3h8V533.3z"/>
				<path class="st22" d="M987.5,537h-8v2.3h8V537z"/>
				<path class="st22" d="M987.5,540.7h-8v2.3h8V540.7z"/>
				<path class="st22" d="M987.5,544.3h-8v2.3h8V544.3z"/>
			</g>
			<g class="st21">
				<path class="st22" d="M987.5,548.5h-8v2.3h8V548.5z"/>
				<path class="st22" d="M987.5,552.1h-8v2.3h8V552.1z"/>
				<path class="st22" d="M987.5,555.8h-8v2.3h8V555.8z"/>
				<path class="st22" d="M987.5,559.5h-8v2.3h8V559.5z"/>
				<path class="st22" d="M987.5,563.1h-8v2.3h8V563.1z"/>
			</g>
		</g>
		<path class="st23" d="M1059.4,568.3c0,0-19-1.9-24.9,9.2c-6,11-24.1-8.6-34.8-10c-10.7-1.4-22.2,6.1-23,11.4
			c-0.8,5.3-32.5-9.4-48.4,14.9l131.3-0.4L1059.4,568.3z"/>
		<path class="st24" d="M1111.9,582.5c-2.1,4.3-4.5,7.9-6.4,10.9c-0.3,0.4-0.5,0.8-0.8,1.2c-1.4,2.1-6.5,6.8-17.5,12.2
			c-17.6,8.8-50,19.7-105.3,25.7c-21.7,2.4-52.6,3.4-83.6,2.3c-1.1,0-2.2-0.1-3.3-0.1c-0.9,0-1.7-0.1-2.6-0.1
			c-1.4-0.1-2.7-0.1-4.1-0.2c-1.6-0.1-3.1-0.2-4.7-0.3c-0.9-0.1-1.7-0.1-2.6-0.2c-27.6-1.7-53.9-5.3-72.5-11.4
			c-11.9-3.9-25.5-21.3-25.5-21.3c-1.8-3.5-3.4-6.8-4.8-10c0,0,0,0,0-0.1c-0.3-0.9-0.6-1.8-0.8-2.7c14.9-0.5,44.3-0.6,81.5,4.3
			C908.6,599.6,1062.9,577.7,1111.9,582.5z"/>
		<path class="st25" d="M915.2,490.4c0,0,2.5-5.2,8.6-4.6c0,0,8.8-8.6,18.1-1.1c0,0,10-1.9,17.3,1.6c4.9,2.3,6.5,4.7,6.5,4.7
			L915.2,490.4z"/>
		<path class="st25" d="M882.5,467.9c0,0,3-5.9,10.3-5.3c0,0,10.5-9.9,21.7-1.3c0,0,11.9-2.1,20.8,1.8c5.9,2.6,7.8,5.4,7.8,5.4
			L882.5,467.9z"/>
		<path class="st26" d="M917.4,595H780c-0.1-0.2-0.2-0.4-0.3-0.5c-0.5-1-0.9-2.1-1.4-3.1c0,0,0,0,0-0.1c-0.3-0.9-0.6-1.8-0.8-2.7
			c-0.1-0.5-0.3-1.1-0.4-1.6c-0.6-2.6-1-5-1-7.3c0-0.4,0-0.8,0-1.2c0-1.2,0.1-2.3,0.2-3.4c0.1-0.9,0.2-1.7,0.4-2.6
			c0-0.1,0-0.2,0.1-0.3c0.1-0.7,0.3-1.5,0.5-2.2c0.1-0.2,0.1-0.5,0.2-0.7c0.2-0.7,0.4-1.5,0.7-2.2c0,0,0.1,0,0.1,0
			c16.6,3.2,33.6-6.4,54.1-2.3c25.5,5.1,33.7,23.9,41.9,21.1C882.2,583.3,916.8,583.3,917.4,595z"/>
		<path class="st27" d="M1049.9,534.2l-14.7,30.3h-44.7l23.3-30.2L1049.9,534.2z"/>
		<path class="st28" d="M1051.2,534.2l-14.7,30.3h-44.7l23.3-30.2L1051.2,534.2z"/>
		<path class="st28" d="M1036.4,564.5v40.4l-44.6,0.1v-40.5H1036.4z"/>
		<path class="st29" d="M993.8,563.1c-4.5,0-8.1,3.6-8.1,8.1v32.4h16V571C1001.7,566.7,998.2,563.1,993.8,563.1z"/>
		<path class="st28" d="M1000.6,571.1v0.3h-13.8v-0.1c0-3.9,3.1-7,7-7C997.6,564.3,1000.6,567.4,1000.6,571.1z"/>
		<path class="st30" d="M993.8,564c-4,0-7.3,3.3-7.3,7.3v0.3h14.4v-0.6C1000.9,567.2,997.7,564,993.8,564z M987.1,571.1
			c0.1-1.9,0.9-3.5,2.2-4.7c0.1-0.1,0.3-0.3,0.4-0.4c1.1-0.9,2.6-1.4,4.1-1.4c1.5,0,2.8,0.5,3.9,1.3c0.2,0.1,0.3,0.2,0.5,0.4
			c1.3,1.2,2.2,2.9,2.2,4.9L987.1,571.1L987.1,571.1z"/>
		<path class="st30" d="M998.3,566l-0.2,0.2l-3.6,4.9l-0.4,0.6h-0.3l-0.5-0.6l-4.1-4.7l-0.2-0.2l0.4-0.4l0.2,0.2l4.2,4.9l3.8-5.1
			l0.2-0.2L998.3,566z"/>
		<path class="st30" d="M1002.9,572.4h-17.7v1.3h17.7V572.4z"/>
		<path class="st30" d="M1000.6,602.4h-13.7V575h13.7V602.4z M987,602.3h13.4v-27.2H987V602.3z"/>
		<path class="st26" d="M915.7,607.3c0,0-3.7-10.1-6.2-9.2C906.9,598.9,915.7,607.3,915.7,607.3z"/>
		<path class="st31" d="M951.4,574.1h-31.1v13.7h31.1V574.1z"/>
		<path class="st32" d="M924.3,607.5L924.3,607.5c-0.2,0-0.3-0.1-0.3-0.3l1.7-19.5h1.2l-2.3,19.4
			C924.6,607.3,924.5,607.5,924.3,607.5z"/>
		<path class="st32" d="M947.2,607.5L947.2,607.5c0.2,0,0.3-0.1,0.3-0.3l-1.7-19.5h-1.2l2.3,19.4C946.9,607.3,947,607.5,947.2,607.5
			z"/>
		<path class="st33" d="M924.8,582.7l0.6-0.7c0.5,0.5,1.1,0.7,1.8,0.7c0.6,0,1-0.3,1-0.7c0-0.4-0.2-0.6-1.3-0.9
			c-1.2-0.3-1.9-0.7-1.9-1.7c0-1,0.8-1.7,2-1.7c0.8,0,1.5,0.3,2.1,0.7l-0.5,0.8c-0.5-0.4-1-0.6-1.6-0.6c-0.6,0-0.9,0.3-0.9,0.7
			c0,0.4,0.3,0.6,1.4,0.9c1.2,0.3,1.8,0.7,1.8,1.7c0,1.1-0.8,1.7-2.1,1.7C926.3,583.6,925.5,583.3,924.8,582.7z"/>
		<path class="st33" d="M932.3,577.8h0.9l2.5,5.8h-1.1l-0.6-1.4h-2.7l-0.6,1.4h-1L932.3,577.8z M933.8,581.3l-1-2.3l-1,2.3H933.8z"
			/>
		<path class="st33" d="M936.8,577.8h1v4.8h3v0.9h-4V577.8L936.8,577.8z"/>
		<path class="st33" d="M941.9,577.8h4.3v0.9h-3.2v1.5h2.9v0.9h-2.9v1.5h3.3v0.9h-4.3L941.9,577.8L941.9,577.8z"/>
		<path class="st31" d="M951.4,574.1l4.3,7.2l-4.3,6.5V574.1z"/>
		<path class="st16" d="M883.1,485c-7.9-9.2-7.1-16.8-6.8-23.9c0.2-7.1-4.9-27.7-22.5-25.6c0,0-4.6-1.9-10.4,1.1
			c-10.5,5.4-31.3,48.4-22.7,61.6c1.7,2.6,4.5,4,8.7,3.8c1.3-0.1,2.6-0.3,4.1-0.6c-0.2-0.4,0.6-1.1,2-1.6c0.4-0.2,0.8-0.3,1.3-0.5
			c0.7-0.2,1.4-0.4,2.3-0.6c0.4-0.1,0.8-0.2,1.3-0.2c7.2-1.1,17.6,0.7,17.9,14.2c0,0,4-0.1,9.2-0.9c2-0.3,4.3-0.7,6.5-1.3
			c1-0.2,1.9-0.5,2.9-0.8c2.7-0.9,5.2-2,7.3-3.4C890,502.3,892.2,495.8,883.1,485z"/>
		<path class="st34" d="M911.3,525.2c0,0,3.1-4.7,5.6-4.8c2.5-0.1,7.1-1.4,6.8-0.5c-0.4,0.9-3.2,1-3.5,1.6c-0.3,0.6,4.3,1.4,5.6,1.5
			c1.3,0.1,4.3,0,4.3,0.7c-0.1,0.7-5.5,3.3-9.3,3c-3.8-0.4-8.5,1.1-8.5,1.1L911.3,525.2z"/>
		<path class="st34" d="M930,523.6c0,0.1-0.3,0.4-0.9,0.7c0,0,0-0.1,0-0.1l0,0c0,0,0,0,0-0.1c-0.1-0.2-0.2-0.3-0.3-0.5l-0.1-0.1
			c-0.1-0.2-0.3-0.3-0.4-0.5C929.3,523.1,930.1,523.3,930,523.6z"/>
		<path class="st28" d="M866.5,526.7c0,0,1.7,3.3,4.7,7.2c3.7,4.6,9.4,9.9,16.5,11c3.4,0.5,6.7-0.2,9.8-1.6c0,0,0,0,0,0
			c8.7-3.9,15.2-12.7,15.2-12.7c1.5-4.2-1-7-1-7s-17.5,3.9-19.2,3.1c-1.7-0.8-11.4-28.9-13.7-32.4c-2.3-3.5-10.2-5.3-10.2-5.3
			L866.5,526.7z"/>
		<path class="st35" d="M871.2,533.9c3.7,4.6,9.4,9.9,16.5,11c3.4,0.5,6.7-0.2,9.8-1.6c-0.3,0-9,1.1-12.5-5.1
			c-3.5-6.3-7.3-16.3-12.6-13C870.3,526.7,870.4,530.3,871.2,533.9z"/>
		<path class="st34" d="M825,569.6c6.2-13.9,10-17.8,9.2-22.1c-0.5-3.2,1.6-59.7,1.6-59.7c0.7-0.2,2.2-0.4,3-0.6
			c2.5-0.6,4.6-2.3,5.5-4.8c1.1-2.9,1.9-7.3,1.9-12.7l0.8,0.2l13.3,2.6c0,0-0.3,4.2-0.3,8.1c0,0,0,0.1,0,0.1c0,3.4,2.2,6.5,5.5,7.4
			c1.7,0.5,3.1,0.9,3.1,0.9s4.9,13.9,5.8,28.3c0.9,14.3-8.9,20.5,0.1,49.2C883.7,595.7,821.6,577.2,825,569.6z"/>
		<path class="st36" d="M860.3,472.5c0,0-0.3,4.2-0.3,8.1c-7.4-0.2-11.4-7-13-10.8L860.3,472.5z"/>
		<path class="st34" d="M862.8,476.2c0,0-17.6,0.3-17.6-10.7c0-11-2.3-18.3,8.9-19c11.2-0.7,13.4,3.5,14.3,7.2
			C869.4,457.4,867.4,475.9,862.8,476.2z"/>
		<path class="st16" d="M862.2,446.3c0,0-4.8,12.9-12.2,14.8c-7.4,1.9-10.6-0.1-10.6-0.1s5.7-4.5,6.9-12.4
			C846.2,448.6,858.5,440.2,862.2,446.3z"/>
		<path class="st16" d="M861,447.3c0,0,3.6,1.3,5.1,3.9c1.4,2.5,2.7,5.9,2.4,10.1c0,0,3.6-8.7-0.5-13.7
			C863.6,442.4,861,447.3,861,447.3z"/>
		<path class="st37" d="M859,469.4c0,0,1.2,1.6,3.6,1.5c2-0.1,2.7-1.8,2.7-1.8S861.7,468.2,859,469.4z"/>
		<path class="st28" d="M827.4,512.8c0,0,0.1,8.3,0.5,15.9c0.3,5,0.8,9.7,1.5,11.3c1.8,4.2,3.8,4.8,3.8,4.8l15.8,3.9l5.5,1.4
			l17.5-5.2c0,0,8-22.2,4.8-34.7c-3.2-12.5-8.1-21.2-8.1-21.2s-14.3,14-32.8-1.2l-4.2,0.8L827.4,512.8z"/>
		<path class="st35" d="M827.9,528.7c0.3,5,0.8,9.7,1.5,11.3c1.8,4.2,3.8,4.8,3.8,4.8l15.8,3.9l6.8-2c0,0-22.8-3.5-20.3-23.1
			L827.9,528.7z"/>
		<path class="st38" d="M874.6,633.5c-8.8-0.7-17.5-1.5-25.8-2.6c-2.3-0.3-4.6-0.6-6.9-1c0.1-9.5,0.5-18,1.3-24.2
			c1.2-8.9,2.1-17.4,2.7-25c1-12.5,1.4-22.6,1.5-28.1c0.1-2.1,0.1-3.5,0.1-4.1c0-0.1,0-0.2,0-0.2c0-0.1,0-0.1,0-0.1h23.4
			c0,0,0.3,1,0.9,2.8c2.2,7.1,7.9,26,8.3,33.3C880.3,588,877.8,609.1,874.6,633.5z"/>
		<path class="st31" d="M866.9,578.9c-0.6,1-1.1,2-1.7,3c-7.9,14.7-13.3,34.4-16.4,49c-2.3-0.3-4.6-0.6-6.9-1
			c-8.9-1.3-17.3-3-24.7-4.9c0.7-9.8,1.1-21.5,1.6-31.2c0.2-4.7,0.4-8.9,0.6-12.2c0.1-1.7,0.2-3.2,0.4-4.4c0.2-1.9,0.7-3.8,1.3-5.9
			c0.2-0.7,0.5-1.4,0.8-2.1c1.5-4,3.7-8.1,5.8-11.6c1.8-3,3.5-5.6,4.7-7.4c1.1-1.7,1.9-2.6,1.9-2.6l6.5,0.6l1.1,0.1l5.6,0.5l1.4,0.1
			l0.1,0l7.8,0.7l3.3,0.3l1.2,0.1l3.5,0.3c0,0,0.2,0.8,0.5,2.2c0,0.1,0,0.2,0.1,0.3c0.1,0.3,0.1,0.7,0.2,1
			C867,560.3,869.5,574.6,866.9,578.9z"/>
		<path class="st33" d="M859.4,469.7c0,0,0.3,1.3,3.5,1.1c0,0,2.7-0.2,2.6-1.6C865.5,469.2,862.9,468.2,859.4,469.7z"/>
		<path class="st16" d="M872.3,544.1c0,0-3.5,2.7-10.4,2.9c-8.2,0.2-28.7-2.1-28.7-2.1s-0.9,2.5-0.9,5.2c0,0,24.9,6.3,39.4,0.9
			C871.8,551,873.6,547.5,872.3,544.1z"/>
		<path class="st33" d="M860.7,548.3h1c0.1-0.1,0.1-0.3,0.2-0.4L860.7,548.3z M860.7,548.3h1c0.1-0.1,0.1-0.3,0.2-0.4L860.7,548.3z
			 M860.7,548.3h1c0.1-0.1,0.1-0.3,0.2-0.4L860.7,548.3z M860.7,548.3h1c0.1-0.1,0.1-0.3,0.2-0.4L860.7,548.3z M867.4,548.3
			c-0.2-0.7-0.6-1.2-1.1-1.7c0,0-0.1,0-0.1-0.1c-0.6-0.6-1.5-0.9-2.4-0.9c-1.1,0-2.1,0.5-2.8,1.4c-0.3,0.4-0.5,0.8-0.7,1.3
			c0,0,0,0.1,0,0.1c-0.1,0.4-0.2,0.9-0.2,1.3c0,0,0,0.1,0,0.1c0,1.3,0.5,2.4,1.3,3.2c0.7,0.7,1.5,1.1,2.5,1.1c0.6,0,1.2-0.2,1.7-0.5
			c0.5-0.3,1-0.7,1.3-1.3c0.5-0.7,0.7-1.6,0.7-2.5C867.6,549.3,867.5,548.8,867.4,548.3z M864.6,552.7c-0.2,0.1-0.5,0.1-0.7,0.1
			c-0.1,0-0.1,0-0.2,0c-1.3-0.1-2.3-1.4-2.3-3v0c0-0.6,0.1-1.1,0.4-1.5c0.1-0.1,0.1-0.3,0.2-0.4c0.3-0.5,0.8-0.8,1.3-1
			c0.2-0.1,0.4-0.1,0.7-0.1c0.1,0,0.2,0,0.3,0c0.2,0,0.4,0.1,0.7,0.2c0.5,0.2,0.9,0.7,1.2,1.2c0.2,0.5,0.4,1,0.4,1.6
			c0,1-0.4,1.9-1.1,2.5C865.1,552.5,864.9,552.6,864.6,552.7z M860.7,548.3h1c0.1-0.1,0.1-0.3,0.2-0.4L860.7,548.3z M860.7,548.3h1
			c0.1-0.1,0.1-0.3,0.2-0.4L860.7,548.3z M860.7,548.3h1c0.1-0.1,0.1-0.3,0.2-0.4L860.7,548.3z"/>
		<path class="st16" d="M801.3,590l39.3,8.5l4.7-22l-39.3-8.5L801.3,590z"/>
		<path class="st39" d="M845.3,576.5c0,0-11,9.2-23.2,6c-12.2-3.2-16.1-14.5-16.1-14.5L845.3,576.5z"/>
		<path class="st39" d="M840.6,573c-0.2-0.1-0.5-0.1-0.7-0.1c-0.1,0-0.3,0-0.4,0c-1,0.2-1.7,1-1.8,1.9c0,0.1,0,0.1,0,0.2
			c0,1.2,1,2.2,2.2,2.2c1,0,1.8-0.6,2.1-1.5c0.1-0.2,0.1-0.5,0.1-0.7C842,574.1,841.4,573.3,840.6,573z M839.9,576.5
			c-0.8,0-1.5-0.7-1.5-1.5c0,0,0,0,0-0.1c0-0.8,0.7-1.4,1.5-1.4c0.8,0,1.5,0.7,1.5,1.5c0,0.2,0,0.4-0.1,0.5
			C841,576.1,840.5,576.5,839.9,576.5z"/>
		<path class="st40" d="M840.6,573.4c0-0.4,2.3-36.2,1.9-56.3c-0.2-10.6-1.9-18-3.2-22.4c-1.5-4.8-3.5-6.7-3.6-6.8l-0.8,0.2
			c0.1,0.1,6.1,9.1,6.5,29.1c0.4,20.1-1.8,55.9-1.9,56.2L840.6,573.4z"/>
		<path class="st34" d="M830.5,571.4c0.2,0.1,0.4,0.2,0.6,0.4c0.6,0.3,2.4,1.1,2.9,1.1c1.3,0.1,0.9,1-0.3,1.2
			c-0.3,0-0.9-0.1-1.1-0.1c0.6,1.5,1.1,3.7,1.2,7.1c0,0,0.2,2.6-2,0.9c-1.4-1.2-1.4-2.2-3.4-3.9c-2-1.7-2.8-4.5-2.2-6.3l-1.1-2.2
			l3.7-1.5l1.1,2.7C830,571,830.2,571.3,830.5,571.4z"/>
		<path class="st28" d="M834.8,488c0,0-9.1,1.3-11.5,4.3c-2.3,2.9-17.1,43.4-14.6,50.5c2.5,7.1,3.7,16.7,9.6,23.3
			c1.9,2.2,4.7,4.1,6.5,4.3c1.6,0.1,3.7-1.1,4.3-1.5c0.1-0.1,0.1-0.2,0.1-0.3c-0.4-2.5-4.6-29.9-3.2-32.4
			c1.4-2.6,11.6-13.4,12.4-19.2C839.1,511.3,834.8,488,834.8,488z"/>
		<path class="st16" d="M934.5,527.8L934.5,527.8c-0.2-0.7-0.6-1.3-1.2-1.8c-1-0.9-2.3-1.1-3.6-0.9c-0.1,0-0.2,0.1-0.3,0.1
			c-0.2,0.1-0.4,0.1-0.6,0.2c-0.5,0.2-1,0.6-1.4,1.1c-0.1,0.1-0.1,0.2-0.2,0.3c0,0-0.1,0.1-0.1,0.1c-0.4,0.5-0.6,1.2-0.7,1.8
			c0,0.1,0,0.2,0,0.3c0,0,0,0,0,0c0,0.2,0,0.2,0,0.3c0,0.2,0,0.4,0.1,0.6c0.2,1,0.7,1.8,1.4,2.5c1.3,1.1,3.2,1.3,4.7,0.4
			c0.4-0.2,0.9-0.5,1.2-1c0.3-0.4,0.6-0.9,0.7-1.3C934.8,529.6,934.8,528.7,934.5,527.8z M929.3,528.2c-0.3,0.4-0.8,0.4-1.1,0.2
			c-0.1,0-0.1-0.1-0.1-0.1c0,0-0.1-0.1-0.1-0.2c-0.1-0.1-0.2-0.2-0.2-0.3l0,0c-0.1-0.3,0-0.5,0.2-0.8c0.1-0.2,0.3-0.3,0.5-0.3l0,0
			c0,0,0.1,0,0.1,0c0.1,0,0.3,0,0.5,0.1c0,0,0.1,0,0.1,0c0.2,0.1,0.3,0.3,0.3,0.4C929.6,527.7,929.5,528,929.3,528.2z"/>
		<path class="st16" d="M934.2,533.1l1.1,0.9l0.3,1.3l0.9,0.8l1-1.2l0.5,0.4l-1,1.2l0.4,0.3l0.2-0.3l0.7,0.6l0.4-0.5l0.5,0.4
			l-0.7,0.8l0.7,0.5l0.9,0l0.4-0.5l0.7,0.6l1.1-1.4l-8.4-6.9l-1.9,2.3l1.5,1.3L934.2,533.1z"/>
		<path class="st16" d="M925.8,529.5c0-0.2-0.1-0.4-0.1-0.6c-0.3-1.1-0.9-2-1.9-2.6c-0.3-0.2-0.7-0.4-1.1-0.5
			c-0.1,0-0.2-0.1-0.4-0.1c-0.2,0-0.4-0.1-0.6-0.1c-0.9,0-1.8,0.3-2.5,0.8c-0.8,0.5-1.3,1.3-1.6,2.3c-0.4,1.7,0.2,3.5,1.6,4.4l0,0
			c0.4,0.3,0.9,0.5,1.4,0.6c0.5,0.1,1,0.2,1.5,0.1c1.6-0.2,3.1-1.4,3.5-3.1C925.8,530.5,925.8,530,925.8,529.5z M922.1,528.3
			c-0.5-0.1-0.8-0.6-0.6-1.1c0.1-0.3,0.2-0.4,0.5-0.5c0,0,0.1-0.1,0.2-0.1c0,0,0,0,0,0c0,0,0.1,0,0.2,0c0.1,0,0.2,0,0.2,0
			c0.5,0.1,0.7,0.6,0.6,1.1c0,0.2-0.2,0.4-0.4,0.5C922.6,528.4,922.3,528.4,922.1,528.3z"/>
		<path class="st16" d="M919.7,534.8l-0.4,1.4l-1.1,0.8l-0.3,1.2l1.5,0.4l-0.2,0.6l-1.5-0.4l-0.1,0.5l0.4,0.1l-0.3,0.9l0.7,0.2
			l-0.1,0.6l-1-0.3l-0.2,0.8l0.4,0.8l0.7,0.2l-0.2,0.9l1.7,0.5l2.8-10.5l-2.9-0.8l-0.5,1.9L919.7,534.8z"/>
		<path class="st31" d="M927.4,522.3L927.4,522.3c-0.2-0.1-0.3-0.2-0.5-0.2c-0.2-0.1-0.5-0.2-0.8-0.2c-0.1-0.1-0.2,0-0.3-0.1
			c-0.9-0.1-1.8,0.2-2.5,0.7c0,0,0,0,0,0l0,0c-0.9,0.6-1.5,1.6-1.5,2.8l0,0.3c0.2,0,0.4,0,0.6,0.1c0-0.1,0-0.2,0-0.3
			c0.1-1.3,0.8-2.3,1.9-2.7c0.4-0.2,0.9-0.3,1.5-0.3c0.2,0,0.4,0,0.5,0.1h0c0.1,0,0.2,0,0.3,0.1c0.3,0.1,0.5,0.2,0.7,0.3
			c0,0,0,0,0.1,0c0.1,0,0.1,0,0.2,0c0,0,0.1,0,0.1,0c0.1,0,0.1,0,0.2,0c0.1,0,0.1,0,0.2,0c0.1,0,0.1,0,0.2,0c0.1,0,0.1,0,0.1,0
			C928.1,522.8,927.7,522.5,927.4,522.3z M929.4,525.2c0-0.3-0.1-0.6-0.2-0.9c0,0,0,0-0.1,0c0,0,0,0-0.1,0c-0.1,0.1-0.2,0.1-0.3,0.2
			c-0.1,0-0.1,0.1-0.1,0.1c0.1,0.3,0.2,0.5,0.2,0.8c0,0.1,0,0.3,0,0.4c0,0.1,0,0.1,0,0.2c0,0.3-0.1,0.5-0.1,0.7l0,0
			c-0.1,0.4-0.4,0.8-0.7,1l0,0c0,0.1,0.1,0.2,0.2,0.3c0,0.1,0.1,0.1,0.1,0.2c0,0,0.1,0.1,0.1,0.1c0.2-0.2,0.3-0.4,0.5-0.6l0,0
			c0.2-0.2,0.3-0.5,0.4-0.8l0,0c0-0.1,0.1-0.1,0-0.2c0.1-0.3,0.1-0.5,0.1-0.8c0-0.1,0-0.3,0-0.4
			C929.4,525.4,929.4,525.3,929.4,525.2z M926.4,528.8c-0.2,0.1-0.5,0.1-0.7,0.1h-0.3c-0.9-0.1-1.7-0.5-2.3-1.2
			c-0.3-0.3-0.5-0.7-0.6-1.1c-0.1,0-0.2,0-0.2,0c0,0-0.1,0-0.2,0c0,0,0,0,0,0c-0.1,0-0.1,0-0.2,0c0,0,0,0,0,0.1
			c0.2,0.5,0.4,1,0.8,1.4l0,0c0.7,0.7,1.5,1.2,2.6,1.2c0.2,0,0.3,0,0.5,0c0.1,0,0.2,0,0.3,0l0,0c0.1,0,0.2,0,0.3-0.1
			c0-0.1,0-0.2,0-0.3C926.4,529,926.5,528.8,926.4,528.8z"/>
	</g>
</g>
<linearGradient id="SVGID_10_" gradientUnits="userSpaceOnUse" x1="227.4673" y1="602.5488" x2="119.3283" y2="408.3705" gradientTransform="matrix(1 0 0 -1 0 608)">
	<stop  offset="0" style="stop-color:#E4F5FF"/>
	<stop  offset="1" style="stop-color:#B4E2FD"/>
</linearGradient>
<path class="st41" d="M233.8,22.7L233.8,22.7c-30.6-11.8-67.8-15.2-101-11c-33.3,4.2-61.8,16-75.7,33.9l0,0
	c-19.2,24.7-12.7,64,11.5,97.9c24,33.7,64.6,60.7,111,60.4h0c29-0.1,61.2-10.9,86.6-28.3c25.4-17.4,43.2-41.1,44.6-66.8
	c1.3-24.6-12.1-43.9-29-58.4C264.9,36.1,244.8,26.9,233.8,22.7z M179.7,207C84.5,207.5,14,96.3,54.9,43.8
	C84.1,6.1,172.7-4.1,234.9,19.9c22.2,8.5,81.8,37.3,79,89.2C311,163,239.1,206.7,179.7,207z"/>
<path d="M217.9,81.1h-7.1v26.1h7.1V81.1z"/>
<path d="M200.6,81.1l-7,19l-7-19h-7.1l9.6,26.2h1.9h5.2h1.9l9.6-26.2H200.6z"/>
<path d="M243.1,86.8v-5.7h-8.5v-7.2h-7.1v7.2h-5.6v5.8h5.6v11.2c0,5.8,2.9,9.7,10.3,9.7c1.8,0,3.7-0.4,5.4-1l-0.9-5.7
	c-1,0.3-2,0.4-3.1,0.4c-2.1,0-4.6-0.9-4.6-3.8V86.8H243.1z"/>
<path d="M174.2,107.2h7.7l-14.1-38.3h-5.5l-14.1,38.3h7.7l2.7-7.3h13.1L174.2,107.2z M160.6,94.2l4.4-12l4.4,12H160.6z"/>
<path d="M259.5,80.4c-2.7,0.1-5.3,0.9-7.5,2.5c-2.2,1.5-3.9,3.7-4.9,6.2c-1,2.5-1.2,5.3-0.7,7.9c0.6,2.6,1.9,5,3.8,6.9
	c1.9,1.9,4.4,3.2,7,3.7c2.6,0.5,5.4,0.2,7.9-0.8c2.5-1,4.6-2.8,6.1-5c1.5-2.2,2.3-4.9,2.3-7.6c0-1.8-0.4-3.6-1.1-5.3
	c-0.7-1.7-1.7-3.2-3.1-4.5c-1.3-1.3-2.8-2.3-4.5-3C263.1,80.7,261.3,80.4,259.5,80.4z M259.5,101.2c-1.4,0-2.7-0.5-3.9-1.3
	c-1.1-0.8-2-1.9-2.5-3.2c-0.5-1.3-0.6-2.7-0.3-4.1c0.3-1.4,1-2.6,2-3.6c1-1,2.3-1.6,3.6-1.9c1.4-0.3,2.8-0.1,4.1,0.4
	c1.3,0.5,2.4,1.4,3.1,2.6c0.8,1.2,1.2,2.5,1.2,3.9c0,1.9-0.8,3.7-2.1,5C263.2,100.5,261.4,101.3,259.5,101.2z"/>
<path d="M218.9,73.4c0,0.9-0.3,1.8-0.8,2.6c-0.5,0.8-1.2,1.3-2.1,1.7c-0.8,0.3-1.8,0.4-2.7,0.3s-1.7-0.6-2.4-1.3
	c-0.6-0.6-1.1-1.5-1.3-2.4c-0.2-0.9-0.1-1.8,0.3-2.7c0.3-0.8,0.9-1.6,1.7-2.1c0.8-0.5,1.6-0.8,2.6-0.8c1.2,0,2.4,0.5,3.3,1.3
	C218.5,71.1,218.9,72.2,218.9,73.4z"/>
<path class="st42" d="M106.1,73c0,2.4-0.7,4.7-2,6.7c-1.3,2-3.2,3.5-5.4,4.4s-4.6,1.1-7,0.7c-2.3-0.5-4.5-1.6-6.2-3.3
	c-1.7-1.7-2.8-3.8-3.3-6.2c-0.5-2.3-0.2-4.8,0.7-7c0.9-2.2,2.5-4.1,4.4-5.4c2-1.3,4.3-2,6.7-2c1.6,0,3.1,0.3,4.6,0.9
	c1.5,0.6,2.8,1.5,3.9,2.6c1.1,1.1,2,2.4,2.6,3.9C105.8,69.9,106.1,71.5,106.1,73"/>
<path class="st43" d="M136.1,100.5c0,2.9-0.9,5.7-2.5,8.1c-1.6,2.4-3.9,4.3-6.6,5.4c-2.7,1.1-5.6,1.4-8.4,0.8c-2.8-0.6-5.4-2-7.5-4
	c-2-2-3.4-4.7-4-7.5c-0.6-2.8-0.3-5.8,0.8-8.4c1.1-2.7,3-5,5.4-6.6c2.4-1.6,5.2-2.5,8.1-2.5c1.9,0,3.8,0.4,5.6,1.1
	c1.8,0.7,3.4,1.8,4.7,3.2s2.4,3,3.2,4.7C135.8,96.7,136.2,98.6,136.1,100.5"/>
<path class="st44" d="M130.9,73c0,1.9-0.6,3.7-1.6,5.2c-1,1.5-2.5,2.7-4.2,3.5c-1.7,0.7-3.6,0.9-5.4,0.5c-1.8-0.4-3.5-1.3-4.8-2.6
	c-1.3-1.3-2.2-3-2.6-4.8c-0.4-1.8-0.2-3.7,0.5-5.4c0.7-1.7,1.9-3.2,3.5-4.2c1.5-1,3.4-1.6,5.2-1.6c1.2,0,2.5,0.2,3.6,0.7
	c1.1,0.5,2.2,1.2,3.1,2c0.9,0.9,1.6,1.9,2,3.1C130.7,70.6,130.9,71.8,130.9,73"/>
<path class="st45" d="M100.9,100.5c0,1.3-0.4,2.7-1.1,3.8c-0.7,1.1-1.8,2-3.1,2.5c-1.2,0.5-2.6,0.6-3.9,0.4
	c-1.3-0.3-2.5-0.9-3.5-1.9c-1-1-1.6-2.2-1.9-3.5c-0.3-1.3-0.1-2.7,0.4-3.9s1.4-2.3,2.5-3.1c1.1-0.7,2.4-1.1,3.8-1.1
	c0.9,0,1.8,0.2,2.6,0.5c0.8,0.3,1.6,0.8,2.2,1.5c0.6,0.6,1.1,1.4,1.5,2.2C100.7,98.7,100.9,99.6,100.9,100.5"/>
<linearGradient id="SVGID_11_" gradientUnits="userSpaceOnUse" x1="188.2077" y1="409.1003" x2="94.0317" y2="219.2142" gradientTransform="matrix(1 0 0 -1 0 608)">
	<stop  offset="0" style="stop-color:#E4F5FF"/>
	<stop  offset="1" style="stop-color:#B4E2FD"/>
</linearGradient>
<path class="st46" d="M22.1,233.5L22.1,233.5c-8.7,9.3-11.6,23.4-9,40c2.6,16.5,10.7,35.1,23.2,52.4c25,34.8,67.2,64.2,117.1,63.9h0
	c38.8-0.2,76.4-18.3,102.2-42.2c12.9-11.9,22.7-25.2,28.2-38.3c5.5-13,6.7-25.6,2.7-36.4c-5.7-15.1-21.9-28.2-44.9-38.5
	c-22.8-10.2-51.4-17.4-80.7-21.2c-29.3-3.8-59.1-4.1-84.1-0.7C51.5,215.9,31.9,223,22.1,233.5L22.1,233.5z M289.4,271.8
	C306.9,319,232.8,392.7,153.4,393C51,393.6-18.9,272.3,19.8,231.3C62,186.1,264.9,206.4,289.4,271.8z"/>
<linearGradient id="SVGID_12_" gradientUnits="userSpaceOnUse" x1="241.9072" y1="204.9006" x2="137.1862" y2="23.7616" gradientTransform="matrix(1 0 0 -1 0 608)">
	<stop  offset="0" style="stop-color:#E4F5FF"/>
	<stop  offset="1" style="stop-color:#B4E2FD"/>
</linearGradient>
<path class="st47" d="M278.5,558.2L278.5,558.2c21.5-20.6,32.7-56.5,22.9-89.1c-7.3-24-24.7-41.4-45.8-52.7
	c-21-11.4-45.4-16.6-66-16.4c-35.9,0.6-69.7,18-93.4,40.9c-11.8,11.4-21.1,24.2-26.8,36.7c-5.7,12.6-7.8,24.7-5.7,35.2 M189.6,397
	c42.2-0.5,99.6,21.4,114.7,71.3c10.1,33.7-1.4,70.8-23.7,92.1c-59.8,57.4-207.5,12.8-219.7-47C51.7,468.3,115.9,398.2,189.6,397z
	 M63.8,512.8c2.8,13.9,13.6,27.3,29.8,38.8c16.1,11.4,37.2,20.7,59.9,26.3c45.6,11.3,96.1,7.9,124.9-19.7"/>
<linearGradient id="SVGID_13_" gradientUnits="userSpaceOnUse" x1="653.5986" y1="470.8253" x2="400.3706" y2="107.8252" gradientTransform="matrix(1 0 0 -1 0 608)">
	<stop  offset="0" style="stop-color:#E4F5FF"/>
	<stop  offset="1" style="stop-color:#B4E2FD"/>
</linearGradient>
<path class="st48" d="M412,137.9L412,137.9c-34.3,15.7-56.3,34.5-71.3,52.8c-65.6,80.9-51.6,220.6,40.3,292.5
	c46.6,36.4,105.7,49.3,156,47.5h0l0,0c50.7-1.6,118-19.1,165.5-70.6c35.2-38.4,53.2-91,50.1-153.9c-3.1-59.7-22.2-99.2-46.7-126.3
	c-35.3-38.8-86.5-59.6-140.2-65.5C512,108.5,456.2,117.5,412,137.9z M708.1,177.9c25.1,27.6,44.4,67.8,47.5,128.1
	c3.1,63.7-15.1,117.1-50.9,156.1c-48.2,52.3-116.4,69.9-167.6,71.6c-50.9,1.9-110.7-11.2-158-48.1
	c-93.2-72.9-107.4-214.5-40.8-296.8c15.3-18.7,37.6-37.8,72.4-53.7C500.1,93.9,636.3,98.8,708.1,177.9z"/>
<linearGradient id="SVGID_14_" gradientUnits="userSpaceOnUse" x1="653.5986" y1="482.4413" x2="400.3706" y2="119.4413" gradientTransform="matrix(1 0 0 -1 0 608)">
	<stop  offset="0" style="stop-color:#E4F5FF"/>
	<stop  offset="1" style="stop-color:#B4E2FD"/>
</linearGradient>
<path class="st49" d="M410.7,123.5c-34.7,15.9-57,35-72.4,53.7C271.7,259.4,285.9,401,379.1,474c47.3,36.9,107.1,49.9,158,48.1
	c51.2-1.6,119.4-19.3,167.6-71.6c35.8-39,54-92.5,50.9-156.1c-3.1-60.3-22.4-100.5-47.5-128.1C636.3,87.2,500.1,82.3,410.7,123.5z"
	/>
<path class="st16" d="M375.9,358.2c1,0,1.9,0.1,3,0.2c1.1,0.2,2,0.4,2.8,0.7l-0.5,2.6c-1.1,0-2.7-0.1-4.7-0.1
	c-1.2,0-2.1,0.2-2.7,0.5c-0.6,0.3-1.1,0.9-1.4,1.6c-0.3,0.7-0.4,1.8-0.4,3.2c0,1.4,0.1,2.5,0.4,3.3c0.3,0.8,0.8,1.3,1.4,1.6
	c0.7,0.3,1.6,0.5,2.7,0.5c1.8,0,3.5-0.1,5-0.3l0.4,2.7c-1.7,0.7-3.7,1-6.1,1c-2,0-3.6-0.3-4.8-0.9c-1.2-0.6-2-1.5-2.6-2.8
	c-0.5-1.3-0.8-3-0.8-5.2s0.3-3.9,0.8-5.2c0.5-1.3,1.4-2.2,2.6-2.8C372.2,358.5,373.8,358.2,375.9,358.2z"/>
<path class="st16" d="M393.7,358.2c2.2,0,3.7,0.4,4.8,1.3c1,0.9,1.5,2.4,1.5,4.5v11.3h-3.3l-0.4-2.5c-0.7,0.8-1.7,1.5-2.7,2.1
	c-1.1,0.6-2.3,0.8-3.6,0.8c-1.6,0-2.8-0.4-3.8-1.3c-1-0.9-1.5-2.1-1.5-3.6v-1.7c0-1.3,0.4-2.4,1.3-3.1c0.9-0.7,2.1-1.1,3.6-1.1h6.3
	v-1c0-0.7-0.1-1.1-0.3-1.5c-0.2-0.3-0.5-0.6-0.9-0.7c-0.4-0.1-1.1-0.2-1.9-0.2c-1.7,0-4.1,0.1-7,0.3l-0.4-2.9
	c1.2-0.2,2.6-0.4,4.2-0.6C391.2,358.3,392.6,358.2,393.7,358.2z M388.7,370.3c0,0.7,0.2,1.2,0.5,1.6c0.3,0.3,0.9,0.5,1.7,0.5
	c0.7,0,1.5-0.2,2.3-0.5c0.9-0.3,1.7-0.8,2.6-1.5v-2.6h-5.3c-0.7,0-1.1,0.2-1.4,0.5c-0.2,0.3-0.4,0.8-0.4,1.4V370.3z"/>
<path class="st16" d="M420,375.3h-3.7v-9.6c0-0.5,0-1.1,0.1-1.6l0.1-0.9h-0.1c-0.2,0.6-0.6,1.3-1.2,2.2l-7.2,9.9h-3.4v-16.7h3.7v9.7
	c0,0.8,0,1.6-0.1,2.3h0.1c0.4-0.8,0.8-1.5,1.2-2.1l7.2-10h3.4V375.3z M417.6,351.2l0,0.5c0,1.3-0.5,2.4-1.5,3.2
	c-1,0.9-2.3,1.3-3.9,1.3c-1.7,0-3-0.4-4-1.3c-1-0.9-1.5-1.9-1.5-3.2l0-0.5h2.9c0,1.9,0.8,2.9,2.5,2.9c0.8,0,1.4-0.2,1.8-0.7
	c0.4-0.5,0.6-1.2,0.6-2.1H417.6z"/>
<path class="st16" d="M438.7,361.9H433v13.4h-4.1v-13.4h-5.7v-3.3h15.5V361.9z"/>
<path class="st16" d="M449.3,358.2c2,0,3.6,0.3,4.8,0.9c1.2,0.6,2.1,1.5,2.6,2.8c0.5,1.3,0.8,3,0.8,5.1c0,2.2-0.3,3.9-0.8,5.1
	c-0.5,1.3-1.4,2.2-2.6,2.8c-1.2,0.6-2.8,0.9-4.8,0.9s-3.6-0.3-4.8-0.9c-1.2-0.6-2-1.5-2.6-2.8c-0.5-1.3-0.8-3-0.8-5.1
	c0-2.2,0.3-3.9,0.8-5.1c0.5-1.3,1.4-2.2,2.6-2.8C445.6,358.5,447.3,358.2,449.3,358.2z M449.3,361.5c-1,0-1.8,0.2-2.4,0.5
	c-0.5,0.3-0.9,0.9-1.2,1.7c-0.2,0.8-0.3,1.9-0.3,3.4c0,1.5,0.1,2.6,0.3,3.4c0.2,0.8,0.6,1.3,1.2,1.6c0.5,0.3,1.3,0.5,2.4,0.5
	s1.8-0.2,2.4-0.5c0.6-0.3,1-0.9,1.2-1.6c0.2-0.8,0.4-1.9,0.4-3.4c0-1.5-0.1-2.6-0.4-3.4c-0.2-0.8-0.6-1.3-1.2-1.7
	C451.1,361.6,450.3,361.5,449.3,361.5z"/>
<path class="st16" d="M472.5,366.8c1.5,0.1,2.6,0.5,3.2,1.3c0.7,0.7,1,1.8,1,3.2c0,1.1-0.2,2-0.7,2.7c-0.5,0.6-1.2,1.1-2.1,1.3
	c-1,0.2-2.3,0.4-4,0.4c-3.5,0-6.3-0.1-8.4-0.2v-16.7c1.8-0.1,4.3-0.2,7.4-0.2c1.8,0,3.3,0.1,4.2,0.4c1,0.2,1.8,0.7,2.2,1.3
	c0.5,0.6,0.7,1.5,0.7,2.7c0,1.2-0.3,2.1-0.9,2.7c-0.6,0.6-1.5,1-2.7,1.1V366.8z M465.4,361.5v3.9h3.7c1.2,0,2-0.1,2.4-0.4
	c0.5-0.3,0.7-0.8,0.7-1.6c0-0.7-0.2-1.2-0.7-1.4c-0.5-0.3-1.4-0.4-2.7-0.4H465.4z M469.2,372.5c1.3,0,2.1-0.1,2.6-0.4
	c0.5-0.3,0.7-0.9,0.7-1.7c0-0.8-0.3-1.4-0.8-1.7c-0.5-0.3-1.4-0.5-2.7-0.5h-3.7v4.4H469.2z"/>
<path class="st16" d="M503.5,375.3h-3.7v-9.6c0-0.5,0-1.1,0.1-1.6l0.1-0.9h-0.1c-0.2,0.6-0.6,1.3-1.2,2.2l-7.2,9.9H488v-16.7h3.7
	v9.7c0,0.8,0,1.6-0.1,2.3h0.1c0.4-0.8,0.8-1.5,1.2-2.1l7.2-10h3.4V375.3z"/>
<path class="st16" d="M531.2,375.3h-3.7v-9.6c0-0.5,0-1.1,0.1-1.6l0.1-0.9h-0.1c-0.2,0.6-0.6,1.3-1.2,2.2l-7.2,9.9h-3.4v-16.7h3.7
	v9.7c0,0.8,0,1.6-0.1,2.3h0.1c0.4-0.8,0.8-1.5,1.2-2.1l7.2-10h3.4V375.3z"/>
<path class="st16" d="M543.4,358.2c1,0,1.9,0.1,3,0.2c1.1,0.2,2,0.4,2.8,0.7l-0.5,2.6c-1.1,0-2.7-0.1-4.7-0.1
	c-1.2,0-2.1,0.2-2.7,0.5c-0.6,0.3-1.1,0.9-1.4,1.6c-0.3,0.7-0.4,1.8-0.4,3.2c0,1.4,0.1,2.5,0.4,3.3c0.3,0.8,0.8,1.3,1.4,1.6
	c0.7,0.3,1.6,0.5,2.7,0.5c1.8,0,3.5-0.1,5-0.3l0.4,2.7c-1.7,0.7-3.7,1-6.1,1c-2,0-3.6-0.3-4.8-0.9c-1.2-0.6-2-1.5-2.5-2.8
	c-0.5-1.3-0.8-3-0.8-5.2s0.3-3.9,0.8-5.2c0.5-1.3,1.4-2.2,2.6-2.8C539.8,358.5,541.4,358.2,543.4,358.2z"/>
<path class="st16" d="M566.9,361.9h-5.7v13.4h-4.1v-13.4h-5.7v-3.3h15.5V361.9z"/>
<path class="st16" d="M577.5,358.2c2,0,3.6,0.3,4.8,0.9c1.2,0.6,2.1,1.5,2.6,2.8c0.5,1.3,0.8,3,0.8,5.1c0,2.2-0.3,3.9-0.8,5.1
	c-0.5,1.3-1.4,2.2-2.6,2.8c-1.2,0.6-2.8,0.9-4.8,0.9c-2,0-3.6-0.3-4.8-0.9c-1.2-0.6-2-1.5-2.6-2.8c-0.5-1.3-0.8-3-0.8-5.1
	c0-2.2,0.3-3.9,0.8-5.1c0.5-1.3,1.4-2.2,2.6-2.8C573.8,358.5,575.5,358.2,577.5,358.2z M577.5,361.5c-1,0-1.8,0.2-2.4,0.5
	c-0.5,0.3-0.9,0.9-1.2,1.7c-0.2,0.8-0.3,1.9-0.3,3.4c0,1.5,0.1,2.6,0.3,3.4c0.2,0.8,0.6,1.3,1.2,1.6c0.5,0.3,1.3,0.5,2.4,0.5
	c1,0,1.8-0.2,2.4-0.5c0.6-0.3,1-0.9,1.2-1.6c0.2-0.8,0.4-1.9,0.4-3.4c0-1.5-0.1-2.6-0.4-3.4c-0.2-0.8-0.6-1.3-1.2-1.7
	C579.3,361.6,578.5,361.5,577.5,361.5z"/>
<path class="st16" d="M603.6,358.7v16.7h-4.1v-6.5c-1,0.3-2,0.6-3.1,0.7c-1.1,0.2-2,0.3-2.8,0.3c-1.6,0-2.7-0.3-3.5-0.9
	c-0.7-0.6-1.1-1.6-1.1-2.8v-7.4h4.1v6.1c0,0.7,0.1,1.2,0.4,1.5c0.3,0.3,0.8,0.4,1.5,0.4c1.5,0,3-0.3,4.6-0.9v-7.1H603.6z"/>
<path class="st16" d="M623.8,358.7v16.7h-4V368h-7.3v7.3h-4.1v-16.7h4.1v6.3h7.3v-6.3H623.8z"/>
<path class="st16" d="M644,375.3h-3.7v-9.6c0-0.5,0-1.1,0.1-1.6l0.1-0.9h-0.1c-0.2,0.6-0.6,1.3-1.2,2.2l-7.2,9.9h-3.4v-16.7h3.7v9.7
	c0,0.8,0,1.6-0.1,2.3h0.1c0.4-0.8,0.8-1.5,1.2-2.1l7.2-10h3.4V375.3z"/>
<path class="st16" d="M657.6,366.7c1.3,0.2,2.2,0.5,2.9,1c0.7,0.5,1.3,1.3,1.7,2.3c0.5,1,1.1,2.8,2,5.3h-4.3
	c-0.8-2.2-1.3-3.8-1.7-4.6c-0.4-0.9-0.8-1.5-1.4-1.9c-0.5-0.4-1.2-0.6-2.2-0.6h-1.9c0.1,0.6,0.2,1.1,0.2,1.5v5.7h-4.1v-16.7h4.1v4.6
	c0,0.6-0.1,1.3-0.2,1.9h1.7c1,0,1.7-0.2,2.2-0.6c0.6-0.4,1-1,1.4-1.9c0.4-0.9,0.9-2.2,1.5-4h4.2c-0.8,2.3-1.4,4-1.8,4.9
	c-0.4,0.9-0.9,1.6-1.6,2.1c-0.6,0.5-1.5,0.8-2.7,1V366.7z"/>
<path class="st16" d="M674.9,358.2c2,0,3.6,0.3,4.8,0.9c1.2,0.6,2.1,1.5,2.6,2.8c0.5,1.3,0.8,3,0.8,5.1c0,2.2-0.3,3.9-0.8,5.1
	c-0.5,1.3-1.4,2.2-2.6,2.8c-1.2,0.6-2.8,0.9-4.8,0.9c-2,0-3.6-0.3-4.8-0.9c-1.2-0.6-2-1.5-2.6-2.8c-0.5-1.3-0.8-3-0.8-5.1
	c0-2.2,0.3-3.9,0.8-5.1c0.5-1.3,1.4-2.2,2.6-2.8C671.2,358.5,672.8,358.2,674.9,358.2z M674.9,361.5c-1,0-1.8,0.2-2.4,0.5
	c-0.5,0.3-0.9,0.9-1.2,1.7c-0.2,0.8-0.3,1.9-0.3,3.4c0,1.5,0.1,2.6,0.3,3.4c0.2,0.8,0.6,1.3,1.2,1.6c0.5,0.3,1.3,0.5,2.4,0.5
	c1,0,1.8-0.2,2.4-0.5c0.6-0.3,1-0.9,1.2-1.6c0.2-0.8,0.4-1.9,0.4-3.4c0-1.5-0.1-2.6-0.4-3.4c-0.2-0.8-0.6-1.3-1.2-1.7
	C676.7,361.6,675.9,361.5,674.9,361.5z"/>
<path class="st16" d="M698,366.8c1.5,0.1,2.6,0.5,3.2,1.3c0.7,0.7,1,1.8,1,3.2c0,1.1-0.2,2-0.7,2.7c-0.5,0.6-1.2,1.1-2.1,1.3
	c-1,0.2-2.3,0.4-4,0.4c-3.5,0-6.3-0.1-8.4-0.2v-16.7c1.8-0.1,4.3-0.2,7.4-0.2c1.8,0,3.3,0.1,4.2,0.4c1,0.2,1.8,0.7,2.2,1.3
	c0.5,0.6,0.7,1.5,0.7,2.7c0,1.2-0.3,2.1-0.9,2.7c-0.6,0.6-1.5,1-2.7,1.1V366.8z M690.9,361.5v3.9h3.7c1.2,0,2-0.1,2.4-0.4
	c0.5-0.3,0.7-0.8,0.7-1.6c0-0.7-0.2-1.2-0.7-1.4c-0.5-0.3-1.4-0.4-2.7-0.4H690.9z M694.7,372.5c1.3,0,2.1-0.1,2.6-0.4
	c0.5-0.3,0.7-0.9,0.7-1.7c0-0.8-0.3-1.4-0.8-1.7c-0.5-0.3-1.4-0.5-2.7-0.5h-3.7v4.4H694.7z"/>
<path class="st16" d="M429.5,407.8c1.5,0.1,2.6,0.5,3.2,1.3c0.7,0.7,1,1.8,1,3.2c0,1.1-0.2,2-0.7,2.7c-0.5,0.6-1.2,1.1-2.1,1.3
	c-1,0.2-2.3,0.4-4,0.4c-3.5,0-6.3-0.1-8.4-0.2v-16.7c1.8-0.1,4.3-0.2,7.4-0.2c1.8,0,3.3,0.1,4.2,0.4c1,0.2,1.8,0.7,2.2,1.3
	c0.5,0.6,0.7,1.5,0.7,2.7c0,1.2-0.3,2.1-0.9,2.7c-0.6,0.6-1.5,1-2.7,1.1V407.8z M422.4,402.5v3.9h3.7c1.2,0,2-0.1,2.4-0.4
	c0.5-0.3,0.7-0.8,0.7-1.6c0-0.7-0.2-1.2-0.7-1.4c-0.5-0.3-1.4-0.4-2.7-0.4H422.4z M426.2,413.5c1.3,0,2.1-0.1,2.6-0.4
	c0.5-0.3,0.7-0.9,0.7-1.7c0-0.8-0.3-1.4-0.8-1.7c-0.5-0.3-1.4-0.5-2.7-0.5h-3.7v4.4H426.2z"/>
<path class="st16" d="M452.5,399.2c2,0,3.6,0.3,4.8,0.9c1.2,0.6,2.1,1.5,2.6,2.8c0.5,1.3,0.8,3,0.8,5.1c0,2.2-0.3,3.9-0.8,5.1
	c-0.5,1.3-1.4,2.2-2.6,2.8c-1.2,0.6-2.8,0.9-4.8,0.9c-2,0-3.6-0.3-4.8-0.9c-1.2-0.6-2-1.5-2.6-2.8c-0.5-1.3-0.8-3-0.8-5.1
	c0-2.2,0.3-3.9,0.8-5.1c0.5-1.3,1.4-2.2,2.6-2.8C448.9,399.5,450.5,399.2,452.5,399.2z M452.5,402.5c-1,0-1.8,0.2-2.4,0.5
	c-0.5,0.3-0.9,0.9-1.2,1.7c-0.2,0.8-0.3,1.9-0.3,3.4c0,1.5,0.1,2.6,0.3,3.4c0.2,0.8,0.6,1.3,1.2,1.6c0.5,0.3,1.3,0.5,2.4,0.5
	c1,0,1.8-0.2,2.4-0.5c0.6-0.3,1-0.9,1.2-1.6c0.2-0.8,0.4-1.9,0.4-3.4c0-1.5-0.1-2.6-0.4-3.4c-0.2-0.8-0.6-1.3-1.2-1.7
	C454.4,402.6,453.6,402.5,452.5,402.5z"/>
<path class="st16" d="M481.7,413.2v8H479l-0.3-4.9h-12.9l-0.3,4.9h-2.7v-8h2c0.6-1.4,1.1-2.9,1.5-4.5c0.3-1.5,0.6-3.2,0.7-5
	c0.2-2.7,1.8-4,4.7-4h7.4v13.5H481.7z M475.3,413.2v-10.5h-2.7c-0.6,0-1,0.1-1.4,0.4c-0.3,0.3-0.5,0.7-0.5,1.3
	c-0.2,1.8-0.4,3.4-0.8,4.8c-0.3,1.4-0.8,2.7-1.4,3.9H475.3z"/>
<path class="st16" d="M500.5,399.7v16.7h-4V409h-7.3v7.3h-4.1v-16.7h4.1v6.3h7.3v-6.3H500.5z"/>
<path class="st16" d="M512.7,399.2c2,0,3.6,0.3,4.8,0.9c1.2,0.6,2.1,1.5,2.6,2.8c0.5,1.3,0.8,3,0.8,5.1c0,2.2-0.3,3.9-0.8,5.1
	c-0.5,1.3-1.4,2.2-2.6,2.8c-1.2,0.6-2.8,0.9-4.8,0.9c-2,0-3.6-0.3-4.8-0.9c-1.2-0.6-2-1.5-2.6-2.8c-0.5-1.3-0.8-3-0.8-5.1
	c0-2.2,0.3-3.9,0.8-5.1c0.5-1.3,1.4-2.2,2.6-2.8C509.1,399.5,510.7,399.2,512.7,399.2z M512.7,402.5c-1,0-1.8,0.2-2.4,0.5
	c-0.5,0.3-0.9,0.9-1.2,1.7c-0.2,0.8-0.3,1.9-0.3,3.4c0,1.5,0.1,2.6,0.3,3.4c0.2,0.8,0.6,1.3,1.2,1.6c0.5,0.3,1.3,0.5,2.4,0.5
	c1,0,1.8-0.2,2.4-0.5c0.6-0.3,1-0.9,1.2-1.6c0.2-0.8,0.4-1.9,0.4-3.4c0-1.5-0.1-2.6-0.4-3.4c-0.2-0.8-0.6-1.3-1.2-1.7
	C514.6,402.6,513.8,402.5,512.7,402.5z"/>
<path class="st16" d="M544.5,399.7c1,0,1.5,0.5,1.5,1.5l0.6,15.2h-3.8l-0.5-13.6h-0.5l-3.2,10.3c-0.2,0.9-0.8,1.3-1.6,1.3h-2.7
	c-0.8,0-1.3-0.4-1.6-1.3l-3.2-10.3h-0.5l-0.5,13.6h-3.7l0.6-15.2c0-1,0.5-1.5,1.5-1.5h3.9c0.8,0,1.3,0.4,1.5,1.3l2.6,8.3
	c0.2,0.4,0.4,1.2,0.6,2.4h0.4c0.2-1,0.4-1.9,0.5-2.4l2.6-8.3c0.2-0.9,0.8-1.3,1.6-1.3H544.5z"/>
<path class="st16" d="M578.1,399.7c1,0,1.5,0.5,1.5,1.5l0.6,15.2h-3.8l-0.5-13.6h-0.5l-3.2,10.3c-0.2,0.9-0.8,1.3-1.6,1.3h-2.7
	c-0.8,0-1.3-0.4-1.6-1.3l-3.2-10.3h-0.5l-0.5,13.6h-3.7l0.6-15.2c0-1,0.5-1.5,1.5-1.5h3.9c0.8,0,1.3,0.4,1.5,1.3l2.6,8.3
	c0.2,0.4,0.4,1.2,0.6,2.4h0.4c0.2-1,0.4-1.9,0.5-2.4l2.6-8.3c0.2-0.9,0.8-1.3,1.6-1.3H578.1z"/>
<path class="st16" d="M592.7,413.4c1.7,0,3.7-0.1,6-0.4l0.4,2.7c-0.8,0.4-1.9,0.7-3.1,0.9c-1.3,0.2-2.5,0.3-3.7,0.3
	c-2,0-3.7-0.3-4.9-0.9c-1.2-0.6-2.1-1.5-2.7-2.8c-0.5-1.3-0.8-3-0.8-5.1c0-2.2,0.3-3.9,0.8-5.2c0.6-1.3,1.4-2.2,2.6-2.7
	c1.2-0.6,2.7-0.9,4.7-0.9c2.7,0,4.6,0.5,5.7,1.5c1.2,1,1.8,2.4,1.8,4.3c0,1.5-0.3,2.7-1.1,3.5c-0.7,0.8-1.8,1.2-3.3,1.2h-6.8
	c0.1,1,0.3,1.8,0.6,2.3c0.3,0.5,0.8,0.9,1.4,1.1C590.8,413.3,591.7,413.4,592.7,413.4z M592.1,402.4c-1,0-1.8,0.1-2.3,0.4
	c-0.5,0.2-0.9,0.7-1.2,1.3c-0.2,0.6-0.4,1.5-0.4,2.7h5.7c0.6,0,1-0.2,1.2-0.5c0.2-0.4,0.3-0.8,0.3-1.4c0-0.9-0.2-1.5-0.7-1.9
	C594.2,402.6,593.3,402.4,592.1,402.4z"/>
<path class="st16" d="M610.7,399.2c1,0,1.9,0.1,3,0.2c1.1,0.2,2,0.4,2.8,0.7l-0.5,2.6c-1.1,0-2.7-0.1-4.7-0.1
	c-1.2,0-2.1,0.2-2.7,0.5c-0.6,0.3-1.1,0.9-1.4,1.6c-0.3,0.7-0.4,1.8-0.4,3.2c0,1.4,0.1,2.5,0.4,3.3c0.3,0.8,0.8,1.3,1.4,1.6
	c0.7,0.3,1.6,0.5,2.7,0.5c1.8,0,3.5-0.1,5-0.3l0.4,2.7c-1.7,0.7-3.7,1-6.1,1c-2,0-3.6-0.3-4.8-0.9c-1.2-0.6-2-1.5-2.5-2.8
	c-0.5-1.3-0.8-3-0.8-5.2s0.3-3.9,0.8-5.2c0.5-1.3,1.4-2.2,2.6-2.8C607.1,399.5,608.7,399.2,610.7,399.2z"/>
<path class="st16" d="M634.3,402.9h-5.7v13.4h-4.1v-13.4h-5.7v-3.3h15.5V402.9z"/>
<path class="st16" d="M645.4,413.4c1.7,0,3.7-0.1,6-0.4l0.4,2.7c-0.8,0.4-1.9,0.7-3.1,0.9c-1.3,0.2-2.5,0.3-3.7,0.3
	c-2,0-3.7-0.3-4.9-0.9c-1.2-0.6-2.1-1.5-2.7-2.8c-0.5-1.3-0.8-3-0.8-5.1c0-2.2,0.3-3.9,0.8-5.2c0.6-1.3,1.4-2.2,2.6-2.7
	c1.2-0.6,2.7-0.9,4.7-0.9c2.7,0,4.6,0.5,5.7,1.5c1.2,1,1.8,2.4,1.8,4.3c0,1.5-0.3,2.7-1.1,3.5c-0.7,0.8-1.8,1.2-3.3,1.2H641
	c0.1,1,0.3,1.8,0.6,2.3c0.3,0.5,0.8,0.9,1.4,1.1C643.6,413.3,644.4,413.4,645.4,413.4z M644.8,402.4c-1,0-1.8,0.1-2.3,0.4
	c-0.5,0.2-0.9,0.7-1.2,1.3c-0.2,0.6-0.4,1.5-0.4,2.7h5.7c0.6,0,1-0.2,1.2-0.5c0.2-0.4,0.3-0.8,0.3-1.4c0-0.9-0.2-1.5-0.7-1.9
	C646.9,402.6,646.1,402.4,644.8,402.4z"/>
<path class="st50" d="M459.8,250.6h34.4l0.8-18.8h-54.7l-2.3,38.1c-0.1,2.1,0.5,3.9,1.8,5.4c1.4,1.5,3.1,2.5,5.3,2.8l15.2,1.9
	c4.3,0.3,7.3,1.1,9,2.3c1.7,1.1,2.4,3.1,2.2,5.9c-0.2,1.9-0.6,3.4-1.3,4.5c-0.7,1-2,1.8-3.8,2.3c-1.7,0.5-4.2,0.7-7.4,0.7
	c-3.6,0-10.9-0.2-21.9-0.7l-2.2,19.5c12.2,1.5,22.5,2.2,31,2.2c21.1,0,31.6-9.2,31.6-27.5c0-7.3-1.7-13.5-5.1-18.6
	c-3.4-5.2-9.4-8.3-17.9-9.3l-15.5-2.1L459.8,250.6z M437.2,312.8c11.3,1.3,20.9,1.9,28.8,1.9c10.3,0,17.6-2.2,22.4-6.4
	c4.7-4.1,7.2-10.3,7.2-19.1c0-6.9-1.6-12.8-4.8-17.5c-3-4.5-8.3-7.4-16.5-8.4l0,0l-17.4-2.3l1-12.4h34.3l0.7-14.8h-50.7L440,270
	c-0.1,1.6,0.4,2.9,1.3,4c1,1.1,2.4,1.9,4.1,2.1l15.2,1.9c4.3,0.3,7.7,1.1,9.9,2.6c2.5,1.7,3.3,4.5,3,7.7c-0.2,2.1-0.7,4-1.7,5.4
	c-1.1,1.6-2.8,2.5-4.9,3.1c-2,0.6-4.6,0.8-7.9,0.8c-3.5,0-10.2-0.2-20.1-0.6L437.2,312.8z M533,249.7L533,249.7c1.8-1.5,4.4-2,7.3-2
	c3,0,5.7,0.5,7.5,2c2,1.6,3,4.4,3.5,7.8c0.6,3.5,0.9,8.9,0.9,16.2c0,7.3-0.3,12.7-0.9,16.2c-0.5,3.4-1.5,6.2-3.5,7.8
	c-1.8,1.5-4.5,2-7.5,2c-2.9,0-5.5-0.5-7.3-2l0,0l0,0c-1.8-1.5-2.8-4.4-3.3-7.7l0,0l0,0c-0.5-3.5-0.7-8.9-0.7-16.1
	c0-7.3,0.2-12.7,0.7-16.1l0,0l0,0C530.3,254,531.2,251.2,533,249.7L533,249.7z M546.7,296c1.4-1,2.3-3.2,2.8-6.5
	c0.6-3.3,0.8-8.6,0.8-15.9s-0.3-12.5-0.8-15.9c-0.5-3.3-1.4-5.5-2.8-6.5c-1.3-1-3.4-1.6-6.3-1.6c-2.7,0-4.8,0.5-6,1.6
	c-1.2,1-2.1,3.2-2.7,6.5c-0.5,3.3-0.7,8.6-0.7,15.9s0.2,12.5,0.7,15.9c0.6,3.3,1.5,5.5,2.7,6.5c1.3,1,3.3,1.6,6,1.6
	C543.3,297.5,545.4,297,546.7,296z M560.9,235.9c-4.8-2.5-11.5-3.8-20.4-3.8c-8.9,0-15.6,1.3-20.2,3.8c-4.6,2.4-7.9,6.4-10.1,12.2
	c-2.1,5.9-3.3,14.3-3.3,25.5c0,11.1,1.1,19.6,3.3,25.5c2.1,5.8,5.5,9.8,10.1,12.2c4.7,2.5,11.4,3.8,20.2,3.8
	c8.9,0,15.6-1.3,20.4-3.8c4.7-2.4,8.1-6.4,10.2-12.2c2.1-5.9,3.3-14.3,3.3-25.5c0-11.1-1.1-19.6-3.3-25.5
	C568.9,242.3,565.5,238.3,560.9,235.9z M621.4,269.2v-19.1h-18.5v19.1h-19.2V288h19.2v19.1h18.5V288h19.2v-18.8H621.4z M638.6,271.2
	h-19.2v-19.1h-14.5v19.1h-19.2V286h19.2v19.1h14.5V286h19.2V271.2z M561.8,234.1c-5.2-2.7-12.3-4-21.3-4c-9,0-16.1,1.3-21.2,4
	c-5.1,2.7-8.8,7.1-11,13.3c-2.3,6.2-3.4,14.9-3.4,26.1c0,11.2,1.1,19.9,3.4,26.1c2.3,6.2,5.9,10.6,11,13.3c5.1,2.7,12.1,4,21.2,4
	c9,0,16.1-1.3,21.3-4c5.2-2.7,8.9-7.1,11.1-13.3c2.3-6.2,3.4-14.9,3.4-26.1c0-11.2-1.1-19.9-3.4-26.1
	C570.7,241.2,567,236.8,561.8,234.1z"/>
<path class="st16" d="M489.1,245.6h-34.4l-0.7,8.7l15.5,2.1c8.6,1,14.5,4.2,17.9,9.3c3.4,5.2,5.1,11.4,5.1,18.6
	c0,18.3-10.5,27.5-31.6,27.5c-8.5,0-18.8-0.7-31-2.2l2.2-19.5c11,0.5,18.3,0.7,21.9,0.7c3.2,0,5.7-0.2,7.4-0.7
	c1.8-0.5,3-1.2,3.8-2.3c0.7-1,1.2-2.5,1.3-4.5c0.2-2.8-0.5-4.8-2.2-5.9c-1.7-1.2-4.7-2-9-2.3l-15.2-1.9c-2.2-0.3-4-1.2-5.3-2.8
	c-1.3-1.5-1.9-3.3-1.8-5.4l2.3-38.1H490L489.1,245.6z"/>
<path class="st16" d="M535.5,225.1c9,0,16.1,1.3,21.3,4c5.2,2.7,8.9,7.1,11.1,13.3c2.3,6.2,3.4,14.9,3.4,26.1
	c0,11.2-1.1,19.9-3.4,26.1c-2.3,6.2-6,10.6-11.1,13.3c-5.2,2.7-12.3,4-21.3,4c-9,0-16.1-1.3-21.2-4c-5.1-2.7-8.8-7.1-11-13.3
	c-2.3-6.2-3.4-14.9-3.4-26.1c0-11.2,1.1-19.9,3.4-26.1c2.3-6.2,5.9-10.6,11-13.3C519.4,226.5,526.5,225.1,535.5,225.1z M535.4,244.6
	c-2.7,0-4.8,0.5-6,1.6c-1.2,1-2.1,3.2-2.7,6.5c-0.5,3.3-0.7,8.6-0.7,15.9s0.2,12.5,0.7,15.9c0.6,3.3,1.5,5.5,2.7,6.5
	c1.3,1,3.3,1.6,6,1.6c2.9,0,5-0.5,6.3-1.6c1.4-1,2.3-3.2,2.8-6.5c0.6-3.3,0.8-8.6,0.8-15.9s-0.3-12.5-0.8-15.9
	c-0.5-3.3-1.4-5.5-2.8-6.5C540.4,245.1,538.3,244.6,535.4,244.6z"/>
<path class="st16" d="M635.6,283h-19.2v19.1h-18.5V283h-19.2v-18.8h19.2v-19.1h18.5v19.1h19.2V283z"/>
<path class="st50" d="M687.2,178.2l79.3-45.8l1.5,2.6l-79.3,45.8L687.2,178.2z"/>
<path class="st50" d="M689.8,178.5l15.4,4.1l-0.8,2.9l-18.3-4.9l4.9-18.3l2.9,0.8L689.8,178.5z"/>
<path class="st50" d="M682.8,449.4l79.3,45.8l1.5-2.6l-79.3-45.8L682.8,449.4z"/>
<path class="st50" d="M685.4,449.2l15.4-4.1l-0.8-2.9l-18.3,4.9l4.9,18.3l2.9-0.8L685.4,449.2z"/>
<path class="st50" d="M719.1,301.6h91.6v-3h-91.6V301.6z"/>
<path class="st50" d="M721.2,300.1l11.3-11.3l-2.1-2.1L717,300.1l13.4,13.4l2.1-2.1L721.2,300.1z"/>
<path class="st50" d="M376.3,177.4L297,131.6l-1.5,2.6l79.3,45.8L376.3,177.4z"/>
<path class="st50" d="M373.7,177.7l-15.4,4.1l0.8,2.9l18.3-4.9l-4.9-18.3l-2.9,0.8L373.7,177.7z"/>
<path class="st50" d="M368.7,434.2L289.4,480l-1.5-2.6l79.3-45.8L368.7,434.2z"/>
<path class="st50" d="M366.1,433.9l-15.4-4.1l0.8-2.9l18.3,4.9l-4.9,18.3l-2.9-0.8L366.1,433.9z"/>
<path class="st50" d="M339.5,301.6h-91.6v-3h91.6V301.6z"/>
<path class="st50" d="M337.4,300.1l-11.3-11.3l2.1-2.1l13.4,13.4l-13.4,13.4l-2.1-2.1L337.4,300.1z"/>
<path class="st51" d="M72.6,243.2c1.7-0.2,3.4-0.3,5.1-0.1c1,0.4,2,0.9,2.8,1.7c0.8,0.8,1.4,1.7,1.8,2.7c0.4,1,0.6,2.1,0.5,3.2
	s-0.4,2.2-0.9,3.1c-2.1,3.8-4.3,7.6-6.5,11.4c-0.5-0.2-0.7-0.8-1-1.2c-1.8-3.2-3.7-6.5-5.5-9.7c-0.7-1.1-1-2.3-1.1-3.6
	c-0.1-1.3,0.2-2.5,0.7-3.7C69.4,245.3,70.8,243.9,72.6,243.2L72.6,243.2z M74.6,246.9c-0.6,0.1-1.1,0.4-1.5,0.7s-0.8,0.8-1,1.4
	c-0.2,0.5-0.3,1.1-0.2,1.7c0.1,0.6,0.3,1.1,0.6,1.5c0.3,0.5,0.8,0.8,1.3,1c0.5,0.2,1.1,0.3,1.7,0.3c0.6,0,1.1-0.2,1.6-0.5
	c0.5-0.3,0.9-0.7,1.1-1.2c0.3-0.6,0.4-1.2,0.4-1.8c-0.1-0.6-0.3-1.2-0.7-1.7c-0.4-0.5-0.9-0.9-1.5-1.1
	C75.9,246.9,75.3,246.8,74.6,246.9L74.6,246.9z"/>
<path class="st51" d="M66.4,266.8c2.2,1.8,3.9,4,6,5.9c0-1.8,0-3.6,0-5.4c1.9,0,3.8,0,5.6,0c0.1,3.6-0.1,7.3,0.1,10.9
	c1.4,1.8,3,3.5,4.7,5c-2,1.9-3.9,3.9-5.7,6.1h-0.5V289c-0.7-1-1.6-1.9-2.5-2.7c-2.5-2.6-5.1-5.1-7.6-7.7c-3.5,3.6-7.1,7-10.5,10.7
	h-0.2c-1.7-2.1-3.7-4.1-5.8-5.9v-0.6h0.3c1.2-1,2.3-2,3.3-3.1C57.8,275.4,62,271,66.4,266.8z"/>
<path class="st52" d="M127.1,288.6c4.1-7.3,7.9-14.7,12-21.9c0.9,1.2,1.7,2.5,2.4,3.9c3.4,5.9,6.5,12,9.7,18h-6.1l-1.4-3
	c-2.9,0-5.9-0.1-8.8,0c-1,0.6-0.9,2.2-1.8,3C131.1,288.6,129.1,288.5,127.1,288.6z M136.6,281.4h5c-0.8-1.8-1.6-3.6-2.5-5.4
	C138.3,277.8,137.4,279.6,136.6,281.4L136.6,281.4z"/>
<path class="st52" d="M154.7,266.5c5,4,9.8,8.2,14.8,12.2c0-3.8,0-7.6,0-11.4h5.1c0,7.3,0,14.5,0,21.8c-1.3-0.8-2.6-1.8-3.8-2.8
	c-3.7-2.9-7.4-5.8-11-8.8v11h-5.1C154.7,281.2,154.6,273.9,154.7,266.5z"/>
<path class="st52" d="M96.6,270.4c2.3-2.2,5.4-3.4,8.6-3.5c3.2-0.1,6.3,1.1,8.7,3.1c-0.9,1.3-1.8,2.6-2.8,3.9
	c-2.2-1.4-4.9-2.7-7.6-2c-1.3,0.4-2.5,1.2-3.3,2.3c-0.8,1.1-1.1,2.5-1,3.9c0,1.4,0.5,2.7,1.4,3.8c0.9,1.1,2.1,1.8,3.4,2.1
	c2.7,0.4,5.4-0.2,7.7-1.7l2.4,3.6c-2.2,1.8-5,3-7.9,3.3h-2.6c-2.1-0.2-4.1-0.9-5.8-2.1c-1.2-1-2.3-2.2-3-3.6
	c-0.7-1.4-1.2-2.9-1.3-4.5c-0.1-1.6,0.1-3.2,0.6-4.7C94.6,272.9,95.5,271.6,96.6,270.4L96.6,270.4z"/>
<path class="st52" d="M118.4,267.3h5.7c0,7.1,0,14.2,0,21.3c-1.9,0-3.8,0-5.7,0C118.4,281.6,118.4,274.5,118.4,267.3z"/>
<path class="st52" d="M188.3,267.3c3.7,0.1,7.4-0.3,11.1,0.4c2.9,0.6,5.9,2.5,6.4,5.6c0.3,1.5,0.1,3-0.6,4.4
	c-0.7,1.4-1.8,2.4-3.2,3.1c1.5,2.6,2.9,5.2,4.4,7.8c-2,0-4.1,0-6.1,0c-1.1-2.1-2.3-4.1-3.4-6.2c-0.9,0.1-1.9,0.2-2.9,0.3
	c0,2,0,4,0,6c-1.9,0-3.8,0-5.7,0C188.3,281.5,188.3,274.4,188.3,267.3z M193.9,271.5v7.2c1.9,0.1,3.8-0.3,5.5-1.2
	c0.4-0.4,0.8-0.8,1-1.3c0.2-0.5,0.3-1.1,0.2-1.6c-0.1-0.6-0.3-1.1-0.6-1.5c-0.3-0.5-0.8-0.8-1.3-1.1
	C197.2,271.5,195.5,271.3,193.9,271.5L193.9,271.5z"/>
<path class="st52" d="M210.4,267.3h5.7c0,3.4,0,6.8,0,10.1c-0.1,1.9,0.3,3.8,1,5.5c1.1,1.9,3.6,2.1,5.5,1.5c2.1-0.8,2.6-3.4,2.7-5.4
	c0-3.9,0-7.8,0-11.7h5.7v0.2c-0.1,3.4,0,6.9,0,10.3c0,2.3-0.5,4.5-1.4,6.6c-0.7,1.3-1.7,2.4-3,3.2c-1.3,0.8-2.7,1.3-4.2,1.4
	c-3.2,0.3-6.8,0-9.2-2.4c-2.4-2.4-2.9-5.4-3-8.4C210.4,274.6,210.5,270.9,210.4,267.3z"/>
<path class="st52" d="M178.8,283.9h5.1v4.8h-5.1V283.9z"/>
<path d="M167,447.6h-3.7c-0.1,0-0.1,0-0.2,0c-0.1,0-0.1,0.1-0.2,0.1c0,0-0.1,0.1-0.1,0.2c0,0.1,0,0.1,0,0.2v11.1H156v-11.1
	c0-0.1,0-0.1,0-0.2c0-0.1-0.1-0.1-0.1-0.2c0,0-0.1-0.1-0.2-0.1c-0.1,0-0.1,0-0.2,0H152c-0.1,0-0.1,0-0.2,0c-0.1,0-0.1,0.1-0.2,0.1
	c0,0-0.1,0.1-0.1,0.2c0,0.1,0,0.1,0,0.2v28.4c0,0.1,0,0.1,0,0.2c0,0.1,0.1,0.1,0.1,0.2c0,0,0.1,0.1,0.2,0.1c0.1,0,0.1,0,0.2,0h3.7
	c0.1,0,0.1,0,0.2,0c0.1,0,0.1-0.1,0.2-0.1c0,0,0.1-0.1,0.1-0.2c0-0.1,0-0.1,0-0.2v-13.6h6.8v13.6c0,0.1,0,0.1,0,0.2
	c0,0.1,0.1,0.1,0.1,0.2c0,0,0.1,0.1,0.2,0.1c0.1,0,0.1,0,0.2,0h3.8c0.1,0,0.1,0,0.2,0c0.1,0,0.1-0.1,0.2-0.1c0,0,0.1-0.1,0.1-0.2
	s0-0.1,0-0.2v-28.4C167.5,447.8,167.4,447.6,167,447.6L167,447.6z M250.6,473c0-0.2-0.1-0.2-0.3-0.2c-1.6,0-11.1,4.5-11.1-10.4
	c0-6.5,2.5-15.7,8.4-10.2c0.1,0.1,0.1,0.1,0.2,0.1c0.1,0,0.2,0,0.3,0c0.2,0,0.3-0.2,0.5-0.5l1.6-2.6c0.1-0.1,0.1-0.1,0.1-0.2
	c0-0.1,0-0.2,0-0.2c0-0.3-0.3-0.5-0.6-0.6c-10.2-5.1-15.5,4.3-15.5,15.3c0,14.3,10.4,16.3,16.3,11.9c0.1-0.1,0.2-0.2,0.2-0.3
	s0.1-0.2,0.1-0.4L250.6,473L250.6,473z M225.3,460.7l7.1-12.9c0,0,0-0.1,0.1-0.1c0,0,0-0.1,0-0.1c0,0,0-0.1-0.1-0.1
	s-0.1-0.1-0.1-0.1h-3.6c-1.1,0-1.4,0.3-1.7,1.1s-5.6,11.8-6.2,12.2v-12.8c0-0.1-0.2-0.5-0.3-0.5h-3.9c-0.2,0-0.3,0.2-0.3,0.5v28.5
	c0,0.2,0.2,0.5,0.3,0.5h3.9c0.3,0,0.3-0.2,0.3-0.5v-14.7c0.5,0.3,7,13.8,7.1,14.3c0.2,0.3,0.4,0.5,0.7,0.7s0.6,0.2,1,0.2h3.9
	c0.3,0,0.3-0.2,0.2-0.5L225.3,460.7L225.3,460.7z M191.3,473.2h-0.8c-0.9,0-1.1-0.3-1.1-1.1v-24.2c0-0.3-0.1-0.5-0.3-0.5h-11.9
	c-0.1,0-0.1,0-0.2,0c-0.1,0-0.1,0.1-0.2,0.1c0,0-0.1,0.1-0.1,0.2c0,0.1,0,0.1,0,0.2c0,6.5,0.2,17.4-4.2,25.3h-1.2
	c-0.1,0-0.1,0-0.2,0c-0.1,0-0.1,0.1-0.2,0.1c0,0-0.1,0.1-0.1,0.2c0,0.1,0,0.1,0,0.2v8.5c0,0.1,0.1,0.2,0.1,0.3
	c0.1,0.1,0.2,0.1,0.3,0.1h2.8c0.1,0,0.2,0,0.4-0.1c0.1,0,0.2-0.1,0.3-0.2c0.1-0.1,0.2-0.2,0.2-0.3c0-0.1,0.1-0.2,0.1-0.4V477h12.5
	v5.3c0,0.1,0.1,0.2,0.1,0.3c0.1,0.1,0.2,0.1,0.3,0.1h3.2c0.2,0,0.4-0.1,0.6-0.3c0.1-0.2,0.2-0.4,0.2-0.6v-8.1
	C191.8,473.4,191.7,473.2,191.3,473.2L191.3,473.2z M184.8,473.2h-8.7c2.5-4,4.8-10.5,4.8-22h3.9V473.2z M203.4,446.9
	c-6.3,0-9.3,7.9-9.3,16.6c0,14.3,9.9,16.4,16.7,12.2c0.3-0.2,0.3-0.3,0.3-0.5l-0.5-2c0-0.2-0.2-0.3-0.5-0.3
	c-2.5,0-11.1,4.3-11.1-9.8c4.1,0.4,8.3,0.5,12.4,0.3C211.4,456.3,210.6,446.9,203.4,446.9L203.4,446.9z M199.2,459.8
	c0-11.3,7.4-13.5,7.4-0.3C204.2,459.4,201.7,459.5,199.2,459.8L199.2,459.8z"/>
<path class="st53" d="M144.7,433.1H138c-6.7,0-12.4,4.9-12.4,14.6c-0.1,2.6,0.6,5.1,1.9,7.3c1.4,2.2,3.3,3.9,5.7,4.9l-9,16.2
	c-0.1,0.1-0.1,0.2-0.1,0.3c0,0.1,0,0.2,0.1,0.3c0.1,0.1,0.1,0.2,0.2,0.2c0.1,0.1,0.2,0.1,0.3,0.1h4.2c0.2,0,0.3,0,0.5-0.1
	c0.1-0.1,0.2-0.2,0.3-0.3l8.2-15.8h2.9v15.8c0,0.1,0.1,0.2,0.1,0.3c0.1,0.1,0.2,0.1,0.3,0.1h3.8c0.1,0,0.1,0,0.2,0
	c0.1,0,0.1-0.1,0.2-0.1c0,0,0.1-0.1,0.1-0.2c0-0.1,0-0.1,0-0.2v-42.8C145.3,433.2,145.1,433.1,144.7,433.1z M140.8,456.9h-2.5
	c-10.7,0-9.9-20.2-0.5-20.2h3.2v20.2H140.8z"/>
<path d="M115.3,493.7v7.3h5.7v-7.3h1.4v16.1H121v-7.5h-5.7v7.5h-1.4v-16.1H115.3z"/>
<path d="M127,501.2c0,6.5,2.2,7.6,4.1,7.6c0.8,0,1.7-0.2,2.4-0.6l0.3,1.1c-0.9,0.5-2,0.8-3,0.8c-3.5,0-5.3-3.3-5.3-8.2
	c0-5.1,1.8-8.4,4.8-8.4c2.9,0,4.1,3.9,4.1,6.8v1H127z M132.9,500c0-4-1.6-5.3-2.7-5.3c-1.9,0-2.9,2.7-3.1,5.3H132.9z"/>
<path d="M145.8,493.7v14.8h1.3l-0.1,5.5h-1.1l-0.1-4.2H137l-0.1,4.2h-1.1l-0.2-5.5h0.9c0.7-1.1,1.3-2.3,1.7-3.5
	c0.6-2.1,0.9-4.2,0.9-6.3v-5H145.8z M140.3,498c0.1,2.5-0.2,4.9-0.9,7.3c-0.3,1.1-0.8,2.2-1.5,3.2h6.3V495h-4V498z"/>
<path d="M150,493.8c1-0.2,1.9-0.3,2.9-0.3c2.6,0,5.3,0.9,5.3,4c0,0.9-0.4,1.8-1,2.5c-0.6,0.7-1.4,1.2-2.3,1.4l0,0
	c1.1,0.1,2.1,0.5,2.8,1.3c0.7,0.8,1.1,1.8,1.1,2.9c0,3.4-3.1,4.6-6,4.6c-1,0-1.9,0-2.9-0.2L150,493.8z M151.5,508.7
	c0.5,0.1,1,0.1,1.5,0.2c2.3,0,4.5-0.8,4.5-3.3s-2.6-3.5-4.8-3.5h-1.1L151.5,508.7z M151.5,500.8h1.3c1.6,0,4-1.2,4-3.2
	c0-2.2-1.9-2.9-3.9-2.9c-0.5,0-1,0.1-1.4,0.1V500.8z"/>
<path d="M163.5,493.7v6.8c0,2.7,0,4.8-0.2,7.9c0.8-2.4,1.9-5,2.8-7.2l2.9-7.5h1.8v16.1h-1.4v-6.3c0-3.6,0-5.6,0.2-8.2
	c-0.6,2.2-1.4,4.3-2.2,6.2c-0.6,1.5-2.2,5.4-3.5,8.5h-1.8v-16.2H163.5z"/>
<path d="M175.1,493.7l4.8,7.4h0.5v-7.4h1.4v7.4h0.5l4.8-7.4h1.7l-5.3,7.5c1.1,0.2,2.1,0.7,2.9,1.5c0.8,0.8,1.3,1.8,1.4,2.9
	c0.3,1.4,0.7,2.8,1.3,4.2h-1.4c-0.5-1.1-0.9-2.2-1.1-3.4c-0.9-3.5-2.4-4.3-4.5-4.3h-0.2v7.6h-1.4v-7.6h-0.2c-3,0-3.6,1.2-4.6,4.5
	c-0.3,1.1-0.6,2.1-1.1,3.2h-1.4c0.5-1.3,0.9-2.6,1.3-4c0.7-2.3,1.9-4.3,4.2-4.7l-5.3-7.5L175.1,493.7z"/>
<path d="M192.8,493.7v6.8c0,2.7,0,4.8-0.2,7.9c0.8-2.4,1.9-5,2.8-7.2l2.9-7.5h1.8v16.1h-1.4v-6.3c0-3.6,0-5.6,0.2-8.2
	c-0.6,2.2-1.4,4.3-2.2,6.2c-0.6,1.5-2.2,5.4-3.5,8.5h-1.8v-16.2H192.8z"/>
<path d="M204.5,493.7h1.6l2.7,8.3c0.7,2.2,1.1,3.5,1.7,5.4c0.6-2.1,0.9-3.2,1.6-5.4l2.7-8.3h1.6l1.1,16.1h-1.4l-0.4-7.7
	c-0.1-2.5-0.2-3.9-0.3-6.7h-0.1c-0.5,1.9-1,3.6-1.7,5.9l-2.7,8.6H210l-2.6-8.1c-0.8-2.5-1.3-4.3-1.8-6.3h-0.1c0,2.1-0.1,4.2-0.2,7
	l-0.4,7.5h-1.4L204.5,493.7z"/>
<path d="M229.5,501.8c0,5.9-2.4,8.3-4.8,8.3c-2.5,0-4.8-2.4-4.8-8.3c0-5.9,2.4-8.3,4.9-8.3S229.5,495.8,229.5,501.8z M221.6,501.8
	c0,2.6,0.5,7,3.3,7c2.8,0,3.2-4.4,3.2-7c0-2.6-0.5-7.1-3.3-7.1C222,494.7,221.5,499.2,221.6,501.8L221.6,501.8z"/>
<path d="M239.8,509.3c-0.8,0.5-1.7,0.7-2.6,0.7c-3.2,0-5.4-2.9-5.4-8.2c0-4.4,2-8.3,5.7-8.3c0.8,0,1.5,0.2,2.2,0.6l-0.5,1.3
	c-0.6-0.3-1.3-0.5-2-0.5c-2.9,0-4,3.8-4,7.1c0,4.3,1.6,6.8,4.1,6.8c0.7,0,1.4-0.2,2-0.5L239.8,509.3z"/>
<path d="M250.3,493.7v1.3h-3.7v14.8h-1.4V495h-3.7v-1.3H250.3z"/>
<path d="M253.7,493.7v6c0.6,0,1.1-0.1,1.5-0.1c3.2,0,5.9,1.6,5.9,5c0,0.7-0.1,1.4-0.4,2.1c-0.3,0.7-0.7,1.2-1.2,1.7
	c-1.2,1.1-2.8,1.6-4.5,1.6c-0.9,0-1.8-0.1-2.7-0.2v-16.1H253.7z M253.7,508.6c0.4,0.1,0.9,0.1,1.3,0.1c2.5,0,4.5-1.3,4.5-4
	c0-2.7-2.1-3.9-4.6-3.9c-0.4,0-0.8,0-1.2,0.1V508.6z"/>
<path d="M907.9,102.4c-1.2,2.2-2.7,2-4.5,2v7.3c1.2,0.2,2.4,0.3,3.6,0.3c1.7,0.1,3.4-0.4,4.9-1.4c1.4-1,2.6-2.3,3.2-4
	c1.8-3.9,2-11,2.9-18.8h8.4v23.4h8.1V80.9h-23.8C909.7,91,909.2,100,907.9,102.4z"/>
<path d="M887.2,80.2c-3.5-0.1-7,1.1-9.7,3.4c-2.7,2.3-4.4,5.5-4.9,9h-4.2V80.9h-8.1v30.4h8.1V99.6h4.2c0.5,3.5,2.2,6.7,4.9,9
	c2.7,2.3,6.2,3.5,9.7,3.4c8.8,0,14.8-6.4,14.8-15.9C902.1,86.6,896,80.2,887.2,80.2z M887.2,104.7c-4.2,0-7-3.2-7-8.6
	c0-5.4,2.8-8.6,7-8.6s7,3.2,7,8.6C894.2,101.5,891.4,104.7,887.2,104.7z"/>
<path d="M953.3,80.2c-3.9,0-7.7,0.5-11.5,1.6V89c3.3-1.1,6.8-1.6,10.4-1.6c6.7,0,7.4,3.4,7.4,4.9v0.5c-2.2-0.3-4.5-0.5-6.8-0.5
	c-11.2,0-13.5,5.8-13.5,9.8c0,4,2.5,9.8,11.3,9.8c1.7,0,3.5-0.3,5.1-1c1.6-0.7,3.1-1.7,4.2-3h0.3v3.2h7.4v-17
	C967.7,88.9,966.5,80.2,953.3,80.2z M959.7,101.9c-0.8,1.1-1.9,1.9-3.1,2.5c-1.2,0.6-2.5,0.8-3.9,0.8c-3.1,0-4.5-1.3-4.5-3.2
	c0-1.9,1.6-3.7,7-3.7h4.6L959.7,101.9L959.7,101.9z"/>
<radialGradient id="SVGID_15_" cx="-452.4512" cy="1294.0698" r="1" gradientTransform="matrix(70.0896 0 0 -70.0896 32558.1816 90748.5312)" gradientUnits="userSpaceOnUse">
	<stop  offset="0.23" style="stop-color:#00FFFE"/>
	<stop  offset="0.3" style="stop-color:#11F3FE"/>
	<stop  offset="0.46" style="stop-color:#3ED3FE"/>
	<stop  offset="0.67" style="stop-color:#86A0FF"/>
	<stop  offset="0.94" style="stop-color:#E95AFF"/>
	<stop  offset="0.95" style="stop-color:#F055FF"/>
</radialGradient>
<path class="st54" d="M818.1,110.7C820.3,104,824,97.9,829,93c5-5,11-8.7,17.7-10.9c0.2-0.1,0.4-0.2,0.6-0.3
	c0.2-0.1,0.3-0.3,0.4-0.5c0.1-0.2,0.2-0.4,0.2-0.7c0-0.2,0-0.5-0.1-0.7c-0.1-0.3-0.2-0.5-0.4-0.7c-0.2-0.2-0.4-0.3-0.7-0.4
	c-6.7-2.2-12.8-5.9-17.7-10.9c-5-5-8.7-11-10.9-17.7c-0.1-0.2-0.2-0.4-0.3-0.6c-0.1-0.2-0.3-0.3-0.5-0.4c-0.2-0.1-0.4-0.2-0.7-0.2
	c-0.2,0-0.5,0-0.7,0.1c-0.3,0.1-0.5,0.2-0.7,0.4c-0.2,0.2-0.3,0.4-0.4,0.7c-2.2,6.7-5.9,12.7-10.9,17.7c-5,5-11,8.7-17.7,10.9
	c-0.2,0.1-0.4,0.2-0.6,0.3c-0.2,0.2-0.3,0.3-0.4,0.5c-0.1,0.2-0.2,0.4-0.2,0.7c0,0.2,0,0.5,0.1,0.7c0.1,0.3,0.2,0.5,0.4,0.7
	c0.2,0.2,0.4,0.3,0.7,0.4c6.7,2.2,12.7,5.9,17.7,10.9c5,5,8.7,11,10.9,17.7c0.1,0.2,0.2,0.4,0.3,0.6c0.1,0.2,0.3,0.3,0.5,0.4
	c0.2,0.1,0.4,0.2,0.7,0.2c0.2,0,0.5,0,0.7-0.1c0.3-0.1,0.5-0.2,0.7-0.4C817.8,111.2,818,110.9,818.1,110.7L818.1,110.7z"/>
<radialGradient id="SVGID_16_" cx="-447.409" cy="1286.4241" r="1" gradientTransform="matrix(39.5997 0 0 -39.5997 18554.918 51026.6406)" gradientUnits="userSpaceOnUse">
	<stop  offset="0" style="stop-color:#053BF2"/>
	<stop  offset="9.000000e-02" style="stop-color:#0F3CF3;stop-opacity:0.91"/>
	<stop  offset="0.25" style="stop-color:#2B3FF4;stop-opacity:0.75"/>
	<stop  offset="0.45" style="stop-color:#5844F7;stop-opacity:0.55"/>
	<stop  offset="0.69" style="stop-color:#964BFA;stop-opacity:0.31"/>
	<stop  offset="0.96" style="stop-color:#E454FE;stop-opacity:4.000000e-02"/>
	<stop  offset="1" style="stop-color:#F055FF;stop-opacity:0"/>
</radialGradient>
<path class="st55" d="M786.2,82.1c6.7,2.2,12.7,5.9,17.7,10.9c5,5,8.7,11,10.9,17.7c0.1,0.2,0.2,0.4,0.3,0.6
	c0.1,0.2,0.3,0.3,0.5,0.4c0.2,0.1,0.4,0.2,0.7,0.2c0.2,0,0.5,0,0.7-0.1c0.3-0.1,0.5-0.2,0.7-0.4c0.2-0.2,0.3-0.4,0.4-0.7
	C820.3,104,824,97.9,829,93c5-5,11-8.7,17.7-10.9c-6.4,2.1-17.3,3.8-30.2,3.8C803.5,85.9,792.6,84.2,786.2,82.1z"/>
<linearGradient id="SVGID_17_" gradientUnits="userSpaceOnUse" x1="879.7772" y1="478.8169" x2="862.4432" y2="431.7809" gradientTransform="matrix(1 0 0 -1 0 608)">
	<stop  offset="0" style="stop-color:#E4F5FF"/>
	<stop  offset="1" style="stop-color:#B4E2FD"/>
</linearGradient>
<path class="st56" d="M839,132h64c6.1,0,11,4.9,11,11v20c0,6.1-4.9,11-11,11h-64c-6.1,0-11-4.9-11-11v-20
	C828,136.9,832.9,132,839,132z"/>
<path class="st16" d="M860.6,145.9c1.5,0,2.7,0.2,3.5,0.6c0.8,0.4,1.4,1.2,1.8,2.2c0.4,1,0.6,2.5,0.6,4.3c0,1.9-0.2,3.3-0.6,4.3
	c-0.4,1-1,1.8-1.8,2.2c-0.8,0.4-2,0.6-3.5,0.6c-1.3,0-2.4-0.2-3.2-0.6c-0.8-0.4-1.3-1-1.7-1.9c-0.4-0.9-0.6-2.2-0.6-3.8h-2.6v6h-3.1
	v-13.6h3.1v5.6h2.6c0.1-1.5,0.3-2.7,0.7-3.5c0.4-0.8,1-1.4,1.7-1.8C858.3,146.1,859.3,145.9,860.6,145.9z M860.6,157.8
	c0.7,0,1.2-0.1,1.6-0.4c0.4-0.3,0.6-0.8,0.8-1.4c0.2-0.7,0.2-1.6,0.3-2.9c0-1.2-0.1-2.2-0.3-2.9s-0.4-1.1-0.8-1.4
	c-0.4-0.3-0.9-0.4-1.6-0.4c-0.7,0-1.2,0.1-1.6,0.4s-0.6,0.8-0.8,1.4c-0.1,0.7-0.2,1.6-0.2,2.9c0,1.3,0.1,2.2,0.2,2.9
	c0.2,0.7,0.4,1.1,0.8,1.4C859.4,157.7,859.9,157.8,860.6,157.8z M879.4,160h-3.1v-11.6h-1.8c-0.8,0-1.2,0.4-1.3,1.2
	c-0.2,2.1-0.3,3.6-0.5,4.7c-0.1,1.1-0.4,2-0.7,2.8c-0.7,2-2,3-3.9,3c-0.2,0-0.4,0-0.7,0l-0.2-2.4c0.5-0.1,0.9-0.2,1.2-0.5
	c0.3-0.2,0.6-0.5,0.7-1c0.3-0.7,0.5-1.6,0.6-2.6c0.1-1,0.3-2.5,0.5-4.5c0.1-1,0.4-1.7,0.9-2.2s1.3-0.8,2.3-0.8h5.8V160H879.4z
	 M889.7,156.4H885l-1,3.6h-3.1l4-13c0.1-0.2,0.2-0.4,0.4-0.6c0.2-0.1,0.4-0.2,0.7-0.2h2.9c0.3,0,0.5,0.1,0.7,0.2
	c0.2,0.1,0.3,0.3,0.4,0.6l4,13h-3.1L889.7,156.4z M889,154l-1.2-4.2c-0.2-0.7-0.3-1.1-0.3-1.3H887l-0.3,1.3l-1.2,4.2H889z"/>
<linearGradient id="SVGID_18_" gradientUnits="userSpaceOnUse" x1="930.7351" y1="265.654" x2="924.3451" y2="213.007" gradientTransform="matrix(1 0 0 -1 0 608)">
	<stop  offset="0" style="stop-color:#E4F5FF"/>
	<stop  offset="1" style="stop-color:#B4E2FD"/>
</linearGradient>
<path class="st57" d="M808,348h239c6.1,0,11,4.9,11,11v20c0,6.1-4.9,11-11,11H808c-6.1,0-11-4.9-11-11v-20
	C797,352.9,801.9,348,808,348z"/>
<path class="st16" d="M823.6,367.8c1.3,0,2.3,0.1,3,0.4c0.7,0.3,1.3,0.7,1.6,1.3s0.5,1.4,0.5,2.5c0,1.2-0.2,2.1-0.6,2.7
	c-0.4,0.6-0.9,1-1.6,1.2c-0.7,0.2-1.7,0.3-2.9,0.3c-1.9,0-3.6-0.1-5.1-0.2h-0.1v-13.8c1.5-0.1,3.1-0.1,4.7-0.1c1.3,0,2.9,0,4.7,0.1
	l-0.2,2.3h-6.1v3.3H823.6L823.6,367.8z M823.6,373.8c0.6,0,1-0.1,1.3-0.2c0.3-0.1,0.5-0.3,0.6-0.6s0.2-0.7,0.2-1.2s-0.1-1-0.2-1.2
	c-0.1-0.3-0.3-0.5-0.6-0.6c-0.3-0.1-0.7-0.2-1.3-0.2h-2.1v4H823.6L823.6,373.8z M838.3,372.4h-4.7l-1,3.6h-3.1l4-13
	c0.1-0.2,0.2-0.4,0.4-0.6c0.2-0.1,0.4-0.2,0.7-0.2h2.9c0.3,0,0.5,0.1,0.7,0.2s0.3,0.3,0.4,0.6l4,13h-3.1L838.3,372.4z M837.6,370
	l-1.2-4.2c-0.2-0.7-0.3-1.1-0.3-1.3h-0.5l-0.3,1.3l-1.2,4.2H837.6z M847.6,362c1.2,0,2.2,0.1,2.8,0.3c0.7,0.2,1.2,0.6,1.5,1.1
	c0.3,0.5,0.5,1.3,0.5,2.2c0,1-0.2,1.8-0.6,2.3c-0.4,0.5-1,0.8-1.8,0.9v0.1c1,0.1,1.7,0.4,2.1,1.1c0.4,0.6,0.6,1.5,0.6,2.6
	c0,0.9-0.2,1.7-0.5,2.2s-0.8,0.9-1.4,1.1c-0.7,0.2-1.5,0.3-2.6,0.3c-1.1,0-2.1,0-2.9-0.1s-1.6-0.2-2.3-0.5l0.2-2.1
	c1.6,0.3,3.1,0.4,4.5,0.4c0.5,0,0.9-0.1,1.2-0.2c0.3-0.1,0.5-0.3,0.6-0.5c0.1-0.3,0.2-0.7,0.2-1.2s-0.1-1-0.2-1.3
	c-0.1-0.3-0.3-0.5-0.6-0.6c-0.3-0.1-0.7-0.2-1.3-0.2h-2.7v-2.1h2.6c0.7,0,1.2-0.1,1.4-0.3c0.3-0.2,0.4-0.7,0.4-1.4
	c0-0.7-0.1-1.1-0.4-1.4c-0.3-0.2-0.8-0.3-1.5-0.3c-1,0-2.4,0.1-3.9,0.3l-0.2-2.2c0.7-0.1,1.3-0.2,2-0.3
	C845.9,362.1,846.7,362,847.6,362z M860.2,367.3c1.3,0,2.3,0.1,3,0.4c0.7,0.3,1.2,0.7,1.5,1.4c0.3,0.6,0.5,1.5,0.5,2.7
	c0,1.1-0.2,2-0.5,2.7c-0.3,0.6-0.8,1.1-1.4,1.3c-0.6,0.3-1.5,0.4-2.6,0.4c-1.3,0-2.4,0-3.2,0s-1.5-0.1-2.3-0.1h-0.1v-13.8h3v5.1h2.1
	V367.3z M870.2,362.2V376h-3v-13.8H870.2z M860.2,373.8c0.6,0,1-0.1,1.2-0.2c0.3-0.1,0.4-0.3,0.5-0.6c0.1-0.3,0.2-0.7,0.2-1.3
	c0-0.6,0-1-0.1-1.3c-0.1-0.3-0.3-0.5-0.6-0.7c-0.3-0.1-0.7-0.2-1.2-0.2h-2v4.3H860.2L860.2,373.8z M881.2,362c1.2,0,2.2,0.1,2.8,0.3
	c0.7,0.2,1.2,0.6,1.5,1.1s0.5,1.3,0.5,2.2c0,1-0.2,1.8-0.6,2.3c-0.4,0.5-1,0.8-1.8,0.9v0.1c1,0.1,1.7,0.4,2.1,1.1
	c0.4,0.6,0.6,1.5,0.6,2.6c0,0.9-0.2,1.7-0.5,2.2s-0.8,0.9-1.4,1.1c-0.7,0.2-1.5,0.3-2.6,0.3c-1.1,0-2.1,0-2.9-0.1
	c-0.8-0.1-1.6-0.2-2.3-0.5l0.2-2.1c1.6,0.3,3.1,0.4,4.5,0.4c0.5,0,0.9-0.1,1.2-0.2c0.3-0.1,0.5-0.3,0.6-0.5c0.1-0.3,0.2-0.7,0.2-1.2
	s-0.1-1-0.2-1.3c-0.1-0.3-0.3-0.5-0.6-0.6s-0.7-0.2-1.3-0.2h-2.7v-2.1h2.6c0.7,0,1.2-0.1,1.4-0.3c0.3-0.2,0.4-0.7,0.4-1.4
	c0-0.7-0.1-1.1-0.4-1.4c-0.3-0.2-0.8-0.3-1.5-0.3c-1,0-2.4,0.1-3.9,0.3l-0.2-2.2c0.7-0.1,1.3-0.2,2-0.3
	C879.5,362.1,880.3,362,881.2,362z M896.2,372.4h-4.7l-1,3.6h-3.1l4-13c0.1-0.2,0.2-0.4,0.4-0.6c0.2-0.1,0.4-0.2,0.7-0.2h2.9
	c0.3,0,0.5,0.1,0.7,0.2c0.2,0.1,0.3,0.3,0.4,0.6l4,13h-3.1L896.2,372.4z M895.5,370l-1.2-4.2c-0.2-0.7-0.3-1.1-0.3-1.3h-0.5
	l-0.3,1.3L892,370H895.5z M906.9,362c0.9,0,1.7,0,2.3,0.1c0.6,0.1,1.2,0.2,1.9,0.4l-0.3,2.3c-1.1-0.1-2.4-0.1-3.9-0.1
	c-0.7,0-1.2,0.1-1.6,0.4c-0.4,0.3-0.6,0.7-0.8,1.4c-0.1,0.6-0.2,1.6-0.2,2.7c0,1.2,0.1,2.1,0.2,2.7c0.2,0.6,0.4,1.1,0.8,1.4
	c0.4,0.3,0.9,0.4,1.6,0.4c1,0,1.8,0,2.4,0c0.6,0,1.2-0.1,1.8-0.2l0.3,2.3c-0.7,0.2-1.3,0.3-2,0.4c-0.7,0.1-1.5,0.1-2.4,0.1
	c-1.4,0-2.6-0.2-3.4-0.7c-0.8-0.5-1.4-1.2-1.8-2.2c-0.4-1-0.6-2.4-0.6-4.2c0-1.8,0.2-3.2,0.6-4.2c0.4-1,1-1.8,1.8-2.2
	C904.3,362.2,905.5,362,906.9,362z M923.5,364.7h-4.1V376h-3.1v-11.3h-4.1v-2.5h11.3V364.7L923.5,364.7z M930.6,362
	c1.3,0,2.3,0.1,3,0.4c0.7,0.3,1.2,0.7,1.5,1.4c0.3,0.6,0.5,1.6,0.5,2.7c0,1.2-0.1,2.1-0.4,2.8c-0.3,0.7-0.8,1.1-1.4,1.4
	c-0.7,0.3-1.6,0.4-2.7,0.4c-0.9,0-1.7-0.1-2.6-0.2v5.1h-3.1v-13.8c0.8-0.1,1.5-0.1,2.2-0.1C928.2,362,929.3,362,930.6,362z
	 M930.5,368.7c0.5,0,1-0.1,1.2-0.2c0.3-0.1,0.5-0.3,0.6-0.6c0.1-0.3,0.2-0.8,0.2-1.3c0-0.6-0.1-1-0.2-1.3c-0.1-0.3-0.3-0.5-0.6-0.6
	c-0.3-0.1-0.7-0.2-1.2-0.2h-2.1v4.3L930.5,368.7L930.5,368.7z M943.1,361.9c1.5,0,2.7,0.2,3.5,0.6c0.9,0.4,1.5,1.2,1.8,2.2
	c0.4,1,0.6,2.5,0.6,4.3s-0.2,3.3-0.6,4.3c-0.4,1-1,1.8-1.8,2.2c-0.8,0.4-2,0.6-3.5,0.6s-2.7-0.2-3.5-0.6c-0.8-0.4-1.5-1.2-1.8-2.2
	c-0.4-1-0.6-2.5-0.6-4.3s0.2-3.3,0.6-4.3c0.4-1,1-1.8,1.8-2.2C940.4,362.2,941.6,361.9,943.1,361.9z M943.1,364.4
	c-0.7,0-1.3,0.1-1.6,0.4c-0.4,0.3-0.7,0.8-0.8,1.4c-0.2,0.7-0.2,1.6-0.2,2.9c0,1.2,0.1,2.2,0.2,2.9c0.2,0.7,0.4,1.1,0.8,1.4
	c0.4,0.3,0.9,0.4,1.6,0.4c0.7,0,1.3-0.1,1.6-0.4c0.4-0.3,0.7-0.8,0.8-1.4c0.2-0.7,0.2-1.6,0.2-2.9c0-1.2-0.1-2.2-0.2-2.9
	c-0.2-0.7-0.4-1.1-0.8-1.4C944.3,364.5,943.8,364.4,943.1,364.4z M962.7,376h-2.9v-8.2c0-0.6,0.1-1.2,0.2-1.9h-0.1
	c-0.2,0.6-0.5,1.2-0.8,1.8l-4.7,8.3h-3v-13.8h2.9v8.1c0,0.6-0.1,1.2-0.2,1.9h0.1c0.2-0.5,0.4-1.1,0.8-1.8l4.7-8.2h3V376z
	 M960.4,358.1c0,0.1,0,0.2,0,0.3c0,0.5-0.1,1-0.4,1.4c-0.3,0.4-0.7,0.7-1.2,1c-0.5,0.2-1.1,0.4-1.7,0.4c-0.7,0-1.3-0.1-1.8-0.4
	c-0.5-0.3-0.9-0.6-1.2-1c-0.3-0.4-0.4-0.9-0.4-1.4c0-0.1,0-0.2,0-0.3h2c-0.1,1.1,0.4,1.6,1.3,1.6s1.4-0.5,1.3-1.6H960.4z
	 M983.6,373.8v5.2h-2.1l-0.2-3h-15.7v-13.8h3v11.6h3.8v-11.6h3v11.6h3.8v-11.6h3v11.6H983.6L983.6,373.8z M996.9,376H994v-8.2
	c0-0.6,0.1-1.2,0.2-1.9H994c-0.2,0.6-0.5,1.2-0.8,1.8l-4.7,8.3h-3v-13.8h2.9v8.1c0,0.6-0.1,1.2-0.2,1.9h0.1c0.2-0.5,0.4-1.1,0.8-1.8
	l4.7-8.2h3V376H996.9z M1006,368.8c0.8,0.1,1.5,0.4,2,0.8s0.9,1,1.2,1.7c0.3,0.7,0.8,2,1.3,3.7l0.3,0.9h-3.2l-0.2-0.7
	c-0.5-1.6-0.9-2.8-1.2-3.5c-0.3-0.7-0.6-1.2-1-1.5c-0.4-0.3-0.9-0.5-1.6-0.5h-1c0.1,0.5,0.2,0.9,0.2,1.3v4.8h-3V362h3v3.9
	c0,0.5,0,1.1-0.2,1.6h0.9c0.7,0,1.2-0.2,1.6-0.6c0.4-0.4,0.7-0.9,1-1.6c0.2-0.7,0.6-1.8,1.1-3.4h3.1l-0.3,1.1
	c-0.5,1.5-0.9,2.5-1.1,3.2c-0.3,0.7-0.6,1.2-1.1,1.6C1007.3,368.4,1006.7,368.7,1006,368.8z M1017.7,361.9c1.5,0,2.7,0.2,3.5,0.6
	s1.5,1.2,1.8,2.2c0.4,1,0.6,2.5,0.6,4.3s-0.2,3.3-0.6,4.3s-1,1.8-1.8,2.2s-2,0.6-3.5,0.6s-2.7-0.2-3.5-0.6s-1.5-1.2-1.8-2.2
	c-0.3-1-0.6-2.5-0.6-4.3s0.2-3.3,0.6-4.3c0.4-1,1-1.8,1.8-2.2C1015.1,362.2,1016.2,361.9,1017.7,361.9z M1017.7,364.4
	c-0.7,0-1.3,0.1-1.6,0.4c-0.4,0.3-0.7,0.8-0.8,1.4c-0.2,0.7-0.2,1.6-0.2,2.9c0,1.2,0.1,2.2,0.2,2.9c0.2,0.7,0.4,1.1,0.8,1.4
	c0.4,0.3,0.9,0.4,1.6,0.4s1.2-0.1,1.6-0.4c0.4-0.3,0.7-0.8,0.8-1.4c0.2-0.7,0.2-1.6,0.2-2.9c0-1.2-0.1-2.2-0.2-2.9
	c-0.2-0.7-0.4-1.1-0.8-1.4C1019,364.5,1018.4,364.4,1017.7,364.4z M1033.6,368.9c1,0.1,1.8,0.4,2.2,1.1c0.4,0.6,0.7,1.5,0.7,2.6
	c0,0.9-0.2,1.7-0.5,2.2s-0.8,0.9-1.5,1.1c-0.7,0.2-1.6,0.3-2.7,0.3c-1.4,0-2.5,0-3.4,0c-0.8,0-1.6-0.1-2.5-0.1v-13.8
	c0.8-0.1,1.5-0.1,2.2-0.1c0.7,0,1.7,0,3,0c1.2,0,2.2,0.1,2.9,0.3s1.2,0.6,1.5,1.1s0.5,1.3,0.5,2.2c0,1-0.2,1.8-0.6,2.3
	C1035.1,368.4,1034.5,368.7,1033.6,368.9z M1033.1,366.1c0-0.5-0.1-0.8-0.2-1.1s-0.3-0.4-0.6-0.5c-0.3-0.1-0.7-0.1-1.3-0.1h-2v3.5
	h2.2c0.7,0,1.2-0.1,1.5-0.4C1033,367.2,1033.1,366.8,1033.1,366.1z M1031.3,373.9c0.6,0,1,0,1.3-0.1c0.3-0.1,0.5-0.3,0.6-0.6
	c0.1-0.3,0.2-0.7,0.2-1.2c0-0.6-0.1-1-0.2-1.3c-0.1-0.3-0.4-0.5-0.7-0.6s-0.8-0.2-1.3-0.2h-2.2v4H1031.3L1031.3,373.9z"/>
<linearGradient id="SVGID_19_" gradientUnits="userSpaceOnUse" x1="868.4023" y1="66.476" x2="860.6954" y2="14.187" gradientTransform="matrix(1 0 0 -1 0 608)">
	<stop  offset="0" style="stop-color:#E4F5FF"/>
	<stop  offset="1" style="stop-color:#B4E2FD"/>
</linearGradient>
<path class="st58" d="M768,547h193c6.1,0,11,4.9,11,11v20c0,6.1-4.9,11-11,11H768c-6.1,0-11-4.9-11-11v-20
	C757,551.9,761.9,547,768,547z"/>
<path class="st16" d="M783.6,566.8c1.3,0,2.3,0.1,3,0.4c0.7,0.3,1.3,0.7,1.6,1.3s0.5,1.4,0.5,2.5c0,1.2-0.2,2.1-0.6,2.7
	c-0.4,0.6-0.9,1-1.6,1.2c-0.7,0.2-1.7,0.3-2.9,0.3c-1.9,0-3.6-0.1-5.1-0.2h-0.1v-13.8c1.5-0.1,3.1-0.1,4.7-0.1c1.3,0,2.9,0,4.7,0.1
	l-0.2,2.3h-6.1v3.3H783.6z M783.6,572.8c0.6,0,1-0.1,1.3-0.2c0.3-0.1,0.5-0.3,0.6-0.6s0.2-0.7,0.2-1.2s-0.1-1-0.2-1.2
	c-0.1-0.3-0.3-0.5-0.6-0.6c-0.3-0.1-0.7-0.2-1.3-0.2h-2.1v4H783.6z M798.3,571.4h-4.7l-1,3.6h-3.1l4-13c0.1-0.2,0.2-0.4,0.4-0.6
	c0.2-0.1,0.4-0.2,0.7-0.2h2.9c0.3,0,0.5,0.1,0.7,0.2c0.2,0.1,0.3,0.3,0.4,0.6l4,13h-3.1L798.3,571.4z M797.6,569l-1.2-4.2
	c-0.2-0.7-0.3-1.1-0.3-1.3h-0.5l-0.3,1.3l-1.2,4.2H797.6z M807.6,561c1.2,0,2.2,0.1,2.8,0.3c0.7,0.2,1.2,0.6,1.5,1.1
	c0.3,0.5,0.5,1.3,0.5,2.2c0,1-0.2,1.8-0.6,2.3c-0.4,0.5-1,0.8-1.8,0.9v0.1c1,0.1,1.7,0.4,2.1,1.1c0.4,0.6,0.6,1.5,0.6,2.6
	c0,0.9-0.2,1.7-0.5,2.2s-0.8,0.9-1.4,1.1c-0.7,0.2-1.5,0.3-2.6,0.3c-1.1,0-2.1,0-2.9-0.1c-0.8-0.1-1.6-0.2-2.3-0.5l0.2-2.1
	c1.6,0.3,3.1,0.4,4.5,0.4c0.5,0,0.9-0.1,1.2-0.2c0.3-0.1,0.5-0.3,0.6-0.5c0.1-0.3,0.2-0.7,0.2-1.2s-0.1-1-0.2-1.3s-0.3-0.5-0.6-0.6
	c-0.3-0.1-0.7-0.2-1.3-0.2h-2.7v-2.1h2.6c0.7,0,1.2-0.1,1.4-0.3c0.3-0.2,0.4-0.7,0.4-1.4c0-0.7-0.1-1.1-0.4-1.4
	c-0.3-0.2-0.8-0.3-1.5-0.3c-1,0-2.4,0.1-3.9,0.3l-0.2-2.2c0.7-0.1,1.3-0.2,2-0.3C805.9,561.1,806.7,561,807.6,561z M820.2,566.3
	c1.3,0,2.3,0.1,3,0.4s1.2,0.7,1.5,1.4c0.3,0.6,0.5,1.5,0.5,2.7c0,1.1-0.2,2-0.5,2.7c-0.3,0.6-0.8,1.1-1.4,1.3
	c-0.6,0.3-1.5,0.4-2.6,0.4c-1.3,0-2.4,0-3.2,0s-1.5-0.1-2.3-0.1h-0.1v-13.8h3v5.1h2.1V566.3z M830.2,561.2V575h-3v-13.8H830.2z
	 M820.2,572.8c0.6,0,1-0.1,1.2-0.2c0.3-0.1,0.4-0.3,0.5-0.6c0.1-0.3,0.2-0.7,0.2-1.3c0-0.6,0-1-0.1-1.3c-0.1-0.3-0.3-0.5-0.6-0.7
	c-0.3-0.1-0.7-0.2-1.2-0.2h-2v4.3H820.2z M842.7,561c1.3,0,2.3,0.1,3,0.4c0.7,0.3,1.2,0.7,1.5,1.4c0.3,0.6,0.5,1.6,0.5,2.7
	c0,1.2-0.1,2.1-0.4,2.8s-0.8,1.1-1.4,1.4c-0.7,0.3-1.6,0.4-2.7,0.4c-0.9,0-1.7-0.1-2.6-0.2v5.1h-3.1v-13.8c0.8-0.1,1.5-0.1,2.2-0.1
	C840.3,561,841.3,561,842.7,561z M842.6,567.7c0.5,0,1-0.1,1.2-0.2c0.3-0.1,0.5-0.3,0.6-0.6c0.1-0.3,0.2-0.8,0.2-1.3
	c0-0.6-0.1-1-0.2-1.3c-0.1-0.3-0.3-0.5-0.6-0.6c-0.3-0.1-0.7-0.2-1.2-0.2h-2.1v4.3L842.6,567.7L842.6,567.7z M861.1,575h-2.9v-8.2
	c0-0.6,0.1-1.2,0.2-1.9h-0.1c-0.2,0.6-0.5,1.2-0.8,1.8l-4.7,8.3h-3v-13.8h2.9v8.1c0,0.6-0.1,1.2-0.2,1.9h0.1
	c0.2-0.5,0.4-1.1,0.8-1.8l4.7-8.2h3V575z M873.1,572.6l0.1,2.2c-0.8,0.1-1.7,0.1-2.7,0.2c-1,0-2.2,0-3.7,0c-0.9,0-1.7-0.2-2.2-0.7
	s-0.8-1.2-0.8-2v-8.4c0-0.9,0.3-1.5,0.8-2c0.6-0.5,1.3-0.8,2.2-0.8c1.5,0,2.7,0,3.7,0s1.9,0.1,2.7,0.2l-0.1,2.3h-5.3
	c-0.3,0-0.6,0.1-0.7,0.2c-0.1,0.2-0.2,0.4-0.2,0.8v2.1h5.5v2.2h-5.5v2.7c0,0.4,0.1,0.6,0.2,0.8c0.1,0.2,0.4,0.2,0.7,0.2H873.1z
	 M886.2,575h-3.1v-11.6h-1.8c-0.8,0-1.2,0.4-1.3,1.2c-0.2,2.1-0.3,3.6-0.5,4.7c-0.1,1.1-0.4,2-0.7,2.8c-0.7,2-2,3-3.9,3
	c-0.2,0-0.4,0-0.7,0l-0.2-2.4c0.5-0.1,0.9-0.2,1.2-0.5c0.3-0.2,0.6-0.5,0.7-1c0.3-0.7,0.5-1.6,0.6-2.6s0.3-2.5,0.5-4.5
	c0.1-1,0.4-1.7,0.9-2.2s1.3-0.8,2.3-0.8h5.8V575H886.2z M899.3,563.7h-4.1V575h-3.1v-11.3H888v-2.5h11.3V563.7z M906.3,560.9
	c1.5,0,2.7,0.2,3.5,0.6c0.9,0.4,1.5,1.2,1.8,2.2c0.4,1,0.6,2.5,0.6,4.3c0,1.9-0.2,3.3-0.6,4.3c-0.4,1-1,1.8-1.8,2.2s-2,0.6-3.5,0.6
	s-2.7-0.2-3.5-0.6s-1.5-1.2-1.8-2.2c-0.4-1-0.6-2.5-0.6-4.3s0.2-3.3,0.6-4.3s1-1.8,1.8-2.2C903.7,561.2,904.8,560.9,906.3,560.9z
	 M906.3,563.4c-0.7,0-1.3,0.1-1.6,0.4c-0.4,0.3-0.7,0.8-0.8,1.4c-0.2,0.7-0.2,1.6-0.2,2.9c0,1.2,0.1,2.2,0.2,2.9
	c0.2,0.7,0.4,1.1,0.8,1.4c0.4,0.3,0.9,0.4,1.6,0.4s1.3-0.1,1.6-0.4c0.4-0.3,0.7-0.8,0.8-1.4c0.2-0.7,0.2-1.6,0.2-2.9
	c0-1.2-0.1-2.2-0.2-2.9c-0.2-0.7-0.4-1.1-0.8-1.4C907.6,563.5,907,563.4,906.3,563.4z M919.9,561c1.3,0,2.3,0.1,3,0.4
	c0.7,0.3,1.2,0.7,1.5,1.4c0.3,0.6,0.5,1.6,0.5,2.7c0,1.2-0.1,2.1-0.4,2.8s-0.8,1.1-1.4,1.4c-0.7,0.3-1.6,0.4-2.7,0.4
	c-0.9,0-1.7-0.1-2.6-0.2v5.1h-3.1v-13.8c0.8-0.1,1.5-0.1,2.2-0.1C917.5,561,918.5,561,919.9,561z M919.8,567.7c0.5,0,1-0.1,1.2-0.2
	c0.3-0.1,0.5-0.3,0.6-0.6c0.1-0.3,0.2-0.8,0.2-1.3c0-0.6-0.1-1-0.2-1.3c-0.1-0.3-0.3-0.5-0.6-0.6c-0.3-0.1-0.7-0.2-1.2-0.2h-2.1v4.3
	L919.8,567.7L919.8,567.7z M932.3,560.9c1.5,0,2.7,0.2,3.5,0.6c0.9,0.4,1.5,1.2,1.8,2.2c0.4,1,0.6,2.5,0.6,4.3
	c0,1.9-0.2,3.3-0.6,4.3c-0.4,1-1,1.8-1.8,2.2s-2,0.6-3.5,0.6s-2.7-0.2-3.5-0.6s-1.5-1.2-1.8-2.2c-0.4-1-0.6-2.5-0.6-4.3
	s0.2-3.3,0.6-4.3s1-1.8,1.8-2.2S930.8,560.9,932.3,560.9z M932.3,563.4c-0.7,0-1.3,0.1-1.6,0.4c-0.4,0.3-0.7,0.8-0.8,1.4
	c-0.2,0.7-0.2,1.6-0.2,2.9c0,1.2,0.1,2.2,0.2,2.9c0.2,0.7,0.4,1.1,0.8,1.4c0.4,0.3,0.9,0.4,1.6,0.4s1.3-0.1,1.6-0.4
	c0.4-0.3,0.7-0.8,0.8-1.4c0.2-0.7,0.2-1.6,0.2-2.9c0-1.2-0.1-2.2-0.2-2.9c-0.2-0.7-0.4-1.1-0.8-1.4
	C933.6,563.5,933,563.4,932.3,563.4z M948.2,567.9c1,0.1,1.8,0.4,2.2,1.1c0.4,0.6,0.7,1.5,0.7,2.6c0,0.9-0.2,1.7-0.5,2.2
	c-0.3,0.5-0.8,0.9-1.5,1.1c-0.7,0.2-1.6,0.3-2.7,0.3c-1.4,0-2.5,0-3.4,0c-0.8,0-1.6-0.1-2.5-0.1v-13.8c0.7-0.1,1.5-0.1,2.2-0.1
	s1.7,0,3,0c1.2,0,2.2,0.1,2.9,0.3c0.7,0.2,1.2,0.6,1.5,1.1c0.3,0.5,0.5,1.3,0.5,2.2c0,1-0.2,1.8-0.6,2.3
	C949.7,567.4,949.1,567.7,948.2,567.9z M947.7,565.1c0-0.5-0.1-0.8-0.2-1.1s-0.3-0.4-0.6-0.5c-0.3-0.1-0.7-0.1-1.3-0.1h-2.1v3.5h2.2
	c0.7,0,1.2-0.1,1.5-0.4C947.6,566.2,947.7,565.8,947.7,565.1z M945.9,572.9c0.6,0,1,0,1.3-0.1c0.3-0.1,0.5-0.3,0.6-0.6
	c0.1-0.3,0.2-0.7,0.2-1.2c0-0.6-0.1-1-0.2-1.3c-0.1-0.3-0.4-0.5-0.7-0.6c-0.3-0.1-0.8-0.2-1.3-0.2h-2.3v4H945.9L945.9,572.9z"/>
<linearGradient id="SVGID_20_" gradientUnits="userSpaceOnUse" x1="180.424" y1="483.831" x2="165.762" y2="434.791" gradientTransform="matrix(1 0 0 -1 0 608)">
	<stop  offset="0" style="stop-color:#E4F5FF"/>
	<stop  offset="1" style="stop-color:#B4E2FD"/>
</linearGradient>
<path class="st59" d="M131,128h84c6.1,0,11,4.9,11,11v20c0,6.1-4.9,11-11,11h-84c-6.1,0-11-4.9-11-11v-20
	C120,132.9,124.9,128,131,128z"/>
<path class="st16" d="M148.9,152.4h-4.7l-1,3.6H140l4-13c0.1-0.2,0.2-0.4,0.4-0.6c0.2-0.1,0.4-0.2,0.7-0.2h2.9
	c0.3,0,0.5,0.1,0.7,0.2c0.2,0.1,0.3,0.3,0.4,0.6l4,13H150L148.9,152.4z M148.2,150l-1.2-4.2c-0.2-0.7-0.3-1.1-0.3-1.3h-0.5l-0.3,1.3
	l-1.1,4.2H148.2z M162.1,148.9c1,0.1,1.8,0.4,2.2,1.1c0.4,0.6,0.7,1.5,0.7,2.6c0,0.9-0.2,1.7-0.5,2.2s-0.8,0.9-1.5,1.1
	c-0.7,0.2-1.6,0.3-2.7,0.3c-1.4,0-2.5,0-3.4,0c-0.8,0-1.6-0.1-2.5-0.1v-13.9c0.7-0.1,1.5-0.1,2.2-0.1c0.7,0,1.7,0,3,0
	c1.2,0,2.2,0.1,2.9,0.3c0.7,0.2,1.2,0.6,1.5,1.1s0.5,1.3,0.5,2.2c0,1-0.2,1.8-0.6,2.3C163.6,148.4,162.9,148.7,162.1,148.9z
	 M161.6,146.1c0-0.5-0.1-0.8-0.2-1.1c-0.1-0.3-0.3-0.4-0.6-0.5s-0.7-0.1-1.3-0.1h-2.1v3.5h2.2c0.7,0,1.2-0.1,1.5-0.4
	C161.4,147.2,161.6,146.8,161.6,146.1z M159.7,153.9c0.6,0,1,0,1.3-0.1c0.3-0.1,0.5-0.3,0.6-0.6c0.1-0.3,0.2-0.7,0.2-1.2
	c0-0.6-0.1-1-0.2-1.3c-0.1-0.3-0.4-0.5-0.7-0.6c-0.3-0.1-0.8-0.2-1.3-0.2h-2.3v4H159.7L159.7,153.9z M178.6,156h-2.9v-8.2
	c0-0.6,0.1-1.2,0.2-1.9h-0.1c-0.2,0.6-0.5,1.2-0.8,1.8l-4.7,8.3h-3v-13.8h2.9v8.1c0,0.6-0.1,1.2-0.2,1.9h0.1
	c0.2-0.5,0.4-1.1,0.8-1.8l4.7-8.2h3V156z M191.7,144.7h-4.1V156h-3.1v-11.3h-4.1v-2.5h11.3V144.7L191.7,144.7z M198.7,141.9
	c1.5,0,2.7,0.2,3.5,0.6c0.9,0.4,1.5,1.2,1.8,2.2c0.4,1,0.6,2.5,0.6,4.3c0,1.9-0.2,3.3-0.6,4.3s-1,1.8-1.8,2.2s-2,0.6-3.5,0.6
	s-2.7-0.2-3.5-0.6s-1.5-1.2-1.8-2.2c-0.4-1-0.6-2.5-0.6-4.3c0-1.9,0.2-3.3,0.6-4.3c0.4-1,1-1.8,1.8-2.2S197.2,141.9,198.7,141.9z
	 M198.7,144.4c-0.7,0-1.3,0.1-1.6,0.4c-0.4,0.3-0.7,0.8-0.8,1.4c-0.2,0.7-0.2,1.6-0.2,2.9c0,1.2,0.1,2.2,0.2,2.9
	c0.2,0.7,0.4,1.1,0.8,1.4c0.4,0.3,0.9,0.4,1.6,0.4s1.3-0.1,1.6-0.4c0.4-0.3,0.7-0.8,0.8-1.4c0.2-0.7,0.2-1.6,0.2-2.9
	c0-1.2-0.1-2.2-0.2-2.9c-0.2-0.7-0.4-1.1-0.8-1.4C200,144.5,199.4,144.4,198.7,144.4z"/>
<linearGradient id="SVGID_21_" gradientUnits="userSpaceOnUse" x1="159.0532" y1="302.3929" x2="143.1492" y2="254.2199" gradientTransform="matrix(1 0 0 -1 0 608)">
	<stop  offset="0" style="stop-color:#E4F5FF"/>
	<stop  offset="1" style="stop-color:#B4E2FD"/>
</linearGradient>
<path class="st60" d="M114,309h74c6.1,0,11,4.9,11,11v20c0,6.1-4.9,11-11,11h-74c-6.1,0-11-4.9-11-11v-20
	C103,313.9,107.9,309,114,309z"/>
<path class="st16" d="M136.8,334.8v5.2h-2.2l-0.2-3h-10v-13.8h3v11.6h4.6v-11.6h3.1v11.6H136.8L136.8,334.8z M150,337h-2.9v-8.2
	c0-0.6,0.1-1.2,0.2-1.9h-0.1c-0.2,0.6-0.5,1.2-0.8,1.8l-4.7,8.3h-3v-13.8h2.9v8.1c0,0.6-0.1,1.2-0.2,1.9h0.1
	c0.2-0.5,0.4-1.1,0.8-1.8l4.7-8.2h3V337z M160.3,333.4h-4.7l-1,3.6h-3.1l4-13c0.1-0.2,0.2-0.4,0.4-0.6c0.2-0.1,0.4-0.2,0.7-0.2h2.9
	c0.3,0,0.5,0.1,0.7,0.2s0.3,0.3,0.4,0.6l4,13h-3.1L160.3,333.4z M159.7,331l-1.2-4.2c-0.2-0.7-0.3-1.1-0.3-1.3h-0.5l-0.3,1.3
	l-1.2,4.2H159.7z M176.9,323.2V337h-3.1v-6.2h-4.9v6.2h-3v-13.8h3v5.3h4.9v-5.3H176.9z"/>
<linearGradient id="SVGID_22_" gradientUnits="userSpaceOnUse" x1="176.7202" y1="86.529" x2="169.3732" y2="34.137" gradientTransform="matrix(1 0 0 -1 0 608)">
	<stop  offset="0" style="stop-color:#E4F5FF"/>
	<stop  offset="1" style="stop-color:#B4E2FD"/>
</linearGradient>
<path class="st61" d="M71,527h204c6.1,0,11,4.9,11,11v20c0,6.1-4.9,11-11,11H71c-6.1,0-11-4.9-11-11v-20C60,531.9,64.9,527,71,527z"
	/>
<path class="st16" d="M86.1,541c1.3,0,2.3,0,3,0c0.7,0,1.4,0.1,2.2,0.1V555h-3v-5.3h-2c-0.4,0-0.7,0.1-0.9,0.3s-0.4,0.5-0.5,0.9
	l-1,4.1h-3.2l1.1-4.2c0.1-0.7,0.4-1.1,0.8-1.4c0.4-0.3,0.8-0.5,1.3-0.6v-0.1c-0.9-0.1-1.6-0.5-2-1c-0.4-0.6-0.6-1.4-0.6-2.5
	c0-1,0.2-1.8,0.5-2.4c0.3-0.6,0.9-1,1.6-1.3C83.9,541.2,84.9,541,86.1,541z M88.2,547.4v-4h-2.1c-0.5,0-0.9,0.1-1.2,0.2
	c-0.3,0.1-0.5,0.3-0.6,0.6s-0.2,0.7-0.2,1.2c0,0.8,0.1,1.3,0.4,1.6c0.3,0.3,0.8,0.5,1.6,0.5L88.2,547.4L88.2,547.4z M95.6,552
	c0.4,0,0.7,0.1,0.8,0.2c0.2,0.1,0.2,0.4,0.2,0.8v1c0,0.4-0.1,0.7-0.2,0.8c-0.1,0.1-0.4,0.2-0.8,0.2h-0.8c-0.4,0-0.7-0.1-0.8-0.2
	c-0.1-0.2-0.2-0.4-0.2-0.8v-1c0-0.4,0.1-0.7,0.2-0.8c0.2-0.1,0.4-0.2,0.8-0.2H95.6z M110,541.2V555h-3v-6.2h-4.9v6.2h-3v-13.8h3v5.3
	h4.9v-5.3H110z M122.1,552.6l0.1,2.2c-0.8,0.1-1.7,0.1-2.7,0.2c-1,0-2.2,0-3.7,0c-0.9,0-1.7-0.2-2.2-0.7s-0.8-1.2-0.8-2v-8.4
	c0-0.9,0.3-1.5,0.8-2c0.6-0.5,1.3-0.8,2.2-0.8c1.5,0,2.7,0,3.7,0s1.9,0.1,2.7,0.2l-0.1,2.3h-5.3c-0.3,0-0.6,0.1-0.7,0.2
	c-0.1,0.2-0.2,0.4-0.2,0.8v2.1h5.5v2.2h-5.5v2.7c0,0.4,0.1,0.6,0.2,0.8c0.1,0.2,0.4,0.2,0.7,0.2H122.1z M137.3,552.8v5.2h-2.2
	l-0.2-3h-9.2l-0.2,3h-2.2v-5.2h1.5c0.5-1.3,0.9-2.6,1.2-4.1c0.3-1.4,0.5-3,0.6-4.7c0.1-0.9,0.4-1.6,1-2.1s1.3-0.8,2.3-0.8h5.7v11.6
	L137.3,552.8L137.3,552.8z M132.4,552.8v-9.4h-1.8c-0.4,0-0.7,0.1-0.9,0.3s-0.3,0.5-0.3,0.9c-0.2,1.9-0.4,3.5-0.6,4.8
	c-0.3,1.2-0.7,2.4-1.2,3.4H132.4z M146.8,547.9c1,0.1,1.8,0.4,2.2,1.1c0.4,0.6,0.7,1.5,0.7,2.6c0,0.9-0.2,1.7-0.5,2.2
	s-0.8,0.9-1.5,1.1c-0.7,0.2-1.6,0.3-2.7,0.3c-1.4,0-2.5,0-3.4,0c-0.8,0-1.6-0.1-2.5-0.1v-13.8c0.7-0.1,1.5-0.1,2.2-0.1s1.7,0,3,0
	c1.2,0,2.2,0.1,2.9,0.3s1.2,0.6,1.5,1.1s0.5,1.3,0.5,2.2c0,1-0.2,1.8-0.6,2.3C148.3,547.4,147.7,547.7,146.8,547.9z M146.3,545.1
	c0-0.5-0.1-0.8-0.2-1.1c-0.1-0.3-0.3-0.4-0.6-0.5s-0.7-0.1-1.3-0.1h-2.1v3.5h2.2c0.7,0,1.2-0.1,1.5-0.4
	C146.2,546.2,146.3,545.8,146.3,545.1z M144.5,552.9c0.6,0,1,0,1.3-0.1c0.3-0.1,0.5-0.3,0.6-0.6c0.1-0.3,0.2-0.7,0.2-1.2
	c0-0.6-0.1-1-0.2-1.3c-0.1-0.3-0.4-0.5-0.7-0.6c-0.3-0.1-0.8-0.2-1.3-0.2h-2.3v4H144.5L144.5,552.9z M163.3,555h-2.9v-8.2
	c0-0.6,0.1-1.2,0.2-1.9h-0.1c-0.2,0.6-0.5,1.2-0.8,1.8L155,555h-3v-13.8h2.9v8.1c0,0.6-0.1,1.2-0.2,1.9h0.1c0.2-0.5,0.4-1.1,0.8-1.8
	l4.7-8.2h3V555z M178.4,547.8c0.9,0.1,1.5,0.4,2,0.8c0.5,0.4,0.9,1,1.2,1.8c0.3,0.8,0.8,2.1,1.3,3.9c0.1,0.2,0.1,0.4,0.2,0.6h-3.2
	c0-0.1-0.1-0.3-0.2-0.5c-0.1-0.2-0.1-0.3-0.1-0.5c-0.5-1.6-0.9-2.7-1.1-3.3c-0.3-0.6-0.5-1.1-0.9-1.4c-0.3-0.3-0.7-0.5-1.3-0.5h-0.9
	c0.1,0.5,0.2,0.9,0.2,1.3v4.8h-2.9V550c0-0.4,0.1-0.8,0.2-1.3h-1c-0.5,0-0.9,0.2-1.2,0.5s-0.6,0.8-0.8,1.4c-0.3,0.6-0.6,1.7-1.1,3.2
	l-0.3,1h-3.2l0.2-0.8c0.5-1.8,1-3.1,1.3-3.8c0.3-0.8,0.7-1.4,1.2-1.8c0.5-0.4,1.1-0.7,2-0.8v-0.1c-0.8-0.1-1.4-0.3-1.8-0.7
	c-0.4-0.4-0.8-0.9-1.1-1.6c-0.3-0.7-0.6-1.7-1.1-3.2l-0.3-1.1h3.1c0,0.1,0.1,0.3,0.2,0.6c0.4,1.4,0.8,2.4,1,3s0.5,1.1,0.8,1.4
	c0.3,0.3,0.7,0.5,1.2,0.5h1c-0.1-0.6-0.2-1.1-0.2-1.6v-3.9h2.9v3.9c0,0.6,0,1.1-0.1,1.6h0.9c0.5,0,0.9-0.2,1.2-0.5
	c0.3-0.3,0.6-0.8,0.8-1.4s0.6-1.6,1-3l0.2-0.7h3.1l-0.3,1c-0.5,1.5-0.8,2.6-1.1,3.2c-0.3,0.6-0.6,1.2-1.1,1.6
	C179.8,547.4,179.2,547.7,178.4,547.8z M196.3,555h-2.9v-8.2c0-0.6,0.1-1.2,0.2-1.9h-0.1c-0.2,0.6-0.5,1.2-0.8,1.8L188,555h-3v-13.8
	h2.9v8.1c0,0.6-0.1,1.2-0.2,1.9h0.1c0.2-0.5,0.4-1.1,0.8-1.8l4.7-8.2h3V555L196.3,555z M213.2,541.2c0.7,0,1.1,0.4,1.1,1.1l0.5,12.7
	H212l-0.4-11.4h-0.4l-2.1,8.5c-0.1,0.7-0.5,1-1.2,1h-2c-0.7,0-1.1-0.3-1.3-1l-2.1-8.5h-0.3l-0.4,11.4h-2.9l0.5-12.7
	c0-0.8,0.4-1.1,1.1-1.1h2.9c0.6,0,1,0.3,1.2,1l1.7,6.9c0.1,0.3,0.1,0.5,0.1,0.7s0.1,0.4,0.1,0.5l0.1,0.7h0.3l0.1-0.7
	c0-0.1,0.1-0.3,0.1-0.5s0.1-0.5,0.2-0.7l1.7-6.9c0.1-0.7,0.6-1,1.2-1H213.2z M222.9,540.9c1.5,0,2.7,0.2,3.5,0.6
	c0.9,0.4,1.5,1.2,1.8,2.2c0.4,1,0.6,2.5,0.6,4.3c0,1.9-0.2,3.3-0.6,4.3c-0.4,1-1,1.8-1.8,2.2c-0.8,0.4-2,0.6-3.5,0.6
	s-2.7-0.2-3.5-0.6c-0.8-0.4-1.5-1.2-1.8-2.2c-0.4-1-0.6-2.5-0.6-4.3s0.2-3.3,0.6-4.3c0.4-1,1-1.8,1.8-2.2
	C220.2,541.1,221.4,540.9,222.9,540.9z M222.9,543.4c-0.7,0-1.3,0.1-1.6,0.4c-0.4,0.3-0.7,0.8-0.8,1.4c-0.1,0.6-0.2,1.6-0.2,2.9
	c0,1.2,0.1,2.2,0.2,2.9s0.4,1.1,0.8,1.4c0.4,0.3,0.9,0.4,1.6,0.4c0.7,0,1.3-0.1,1.6-0.4c0.4-0.3,0.7-0.8,0.8-1.4
	c0.2-0.7,0.2-1.6,0.2-2.9c0-1.2-0.1-2.2-0.2-2.9c-0.2-0.7-0.4-1.1-0.8-1.4S223.6,543.4,222.9,543.4z M236.5,541c0.9,0,1.7,0,2.3,0.1
	c0.6,0.1,1.2,0.2,1.9,0.4l-0.3,2.3c-1.1-0.1-2.4-0.1-3.9-0.1c-0.7,0-1.2,0.1-1.6,0.4c-0.4,0.3-0.6,0.7-0.8,1.4
	c-0.1,0.6-0.2,1.6-0.2,2.7c0,1.2,0.1,2.1,0.2,2.7c0.2,0.6,0.4,1.1,0.8,1.4c0.4,0.3,0.9,0.4,1.6,0.4c1,0,1.8,0,2.4,0
	c0.6,0,1.2-0.1,1.8-0.2l0.3,2.3c-0.7,0.2-1.3,0.3-2,0.4c-0.7,0.1-1.5,0.1-2.4,0.1c-1.4,0-2.6-0.2-3.4-0.7s-1.4-1.2-1.8-2.2
	c-0.4-1-0.6-2.4-0.6-4.2s0.2-3.2,0.6-4.2c0.4-1,1-1.8,1.8-2.2C233.9,541.2,235,541,236.5,541z M253.1,543.7H249V555h-3.1v-11.3h-4.1
	v-2.5h11.3V543.7L253.1,543.7z M260,546.3c1.3,0,2.3,0.1,3,0.4s1.2,0.7,1.5,1.4c0.3,0.6,0.5,1.5,0.5,2.7c0,1.1-0.2,2-0.5,2.7
	c-0.3,0.6-0.8,1.1-1.4,1.3c-0.6,0.3-1.5,0.4-2.6,0.4c-1.4,0-2.4,0-3.2,0c-0.8,0-1.5-0.1-2.3-0.1h-0.1v-13.8h3v5.1h2.1V546.3z
	 M260,552.8c0.6,0,1-0.1,1.2-0.2c0.3-0.1,0.5-0.3,0.6-0.6c0.1-0.3,0.2-0.7,0.2-1.3c0-0.6-0.1-1-0.2-1.3c-0.1-0.3-0.3-0.5-0.6-0.7
	c-0.3-0.1-0.7-0.2-1.2-0.2h-2v4.3H260z"/>
</svg>
