<svg id="Layer_1" data-name="Layer 1" xmlns="http://www.w3.org/2000/svg" viewBox="0 0 600 600"><defs><style>.cls-1,.cls-10{fill:#fff;}.cls-1,.cls-11,.cls-12,.cls-19,.cls-2,.cls-20,.cls-21,.cls-3,.cls-5,.cls-6,.cls-7,.cls-8{fill-rule:evenodd;}.cls-2,.cls-4{fill:#152e45;}.cls-3{fill:#d4efff;}.cls-5{fill:#8ddbff;}.cls-6{fill:#1c3ab0;}.cls-7,.cls-9{fill:#f40f48;}.cls-8{fill:#1d3bb0;}.cls-11{fill:#582b28;}.cls-12{fill:#78d6ff;}.cls-13{fill:#ed1e24;}.cls-14{fill:#231f20;}.cls-15{fill:#ea4335;}.cls-16{fill:#fbbc05;}.cls-17{fill:#4285f4;}.cls-18{fill:#34a853;}.cls-19{fill:#ec1c24;}.cls-20{fill:#00adee;}.cls-21{fill:#d53537;}.cls-22{fill:#ff8b2c;}</style></defs><title>Схема 6</title><g id="_2" data-name="2"><path class="cls-1" d="M443.3,353.12c21.3-61.3-30.3-113.4-50.3-130.3-56.1-47.3-151.7-61.5-195.5-25.3C136.4,248,169.9,402.12,269.1,430,330.9,447.32,421.1,416.72,443.3,353.12Z"/><path class="cls-2" d="M242.1,202.22c-19.1,9.5-31.4,20.8-39.8,31.9-36.7,48.9-28.8,133.2,22.4,176.6,26,22,58.9,29.7,86.9,28.6,28.2-1,65.7-11.5,92.2-42.6,19.7-23.2,29.7-55,28-92.9-1.7-35.9-12.3-59.8-26.1-76.2C366.2,180.62,291.3,177.72,242.1,202.22Z"/><path class="cls-1" d="M74.2,562.92c34.8,24.7,77.6,6.1,92-1.8,40.5-22.1,67.4-73.6,52.7-105.9-20.6-45.1-124.5-57.8-160.8-7.1C35.5,479.72,38,537.32,74.2,562.92Z"/><path class="cls-3" d="M39.4,509.92c8.5,42.4,112.2,73.9,154.2,33.3,15.7-15.1,23.8-41.4,16.7-65.2-10.6-35.3-50.9-50.9-80.5-50.5C78.1,428.32,33,478,39.4,509.92Z"/><path class="cls-1" d="M53.3,385.52c40,12.5,74-17.7,85-29.4,30.8-32.8,40-88.8,16.4-114.3-32.9-35.7-133.4-16.2-151.6,41.9C-8.2,319.72,11.8,372.52,53.3,385.52Z"/><path class="cls-3" d="M165.5,313.92c3.7-38.4-30.3-63.4-43.1-71.1-35.8-21.6-88.5-19.4-107.3,6.8-26.2,36.5,10.9,123.5,67.2,128.9C117.4,381.92,161.6,353.82,165.5,313.92Z"/><path class="cls-1" d="M55.4,130.62c10.7,34.6,46,54.4,77.9,55.3,44.8,1.3,88.2-34.2,90-76,2.1-50.1-56.1-95.7-107.8-82.2C73.3,38.72,42,87.12,55.4,130.62Z"/><path class="cls-3" d="M63.7,47.72c-22,31.8,17.8,125.9,76.1,125.5,45.3-.3,87.5-57.4,77.5-94C203.4,28.42,87.8,12.72,63.7,47.72Z"/><path class="cls-1" d="M508.6,568.52c39.6-16.3,44.9-58.8,45.2-73.9,1-42.4-30.8-87.4-66.9-90.6-50.4-4.4-114.5,72.3-88.1,124.4C415.3,560.82,467.5,585.42,508.6,568.52Z"/><path class="cls-3" d="M392.6,508.12c6.4,32.5,97.4,75.5,138.6,29.1,26.6-29.9,24.8-88,1.4-106.7C493.7,399.52,384.8,468.52,392.6,508.12Z"/><path class="cls-4" d="M419.5,524.52H551.7a14.38,14.38,0,0,1,14.4,14.3h0a14.32,14.32,0,0,1-14.4,14.3H419.5a14.38,14.38,0,0,1-14.4-14.3h0A14.38,14.38,0,0,1,419.5,524.52Z"/><path class="cls-1" d="M427.4,537.32a4.14,4.14,0,0,0,.5-1.9,2.72,2.72,0,0,0-.9-2.4,5.25,5.25,0,0,0-3-.6c-1.7,0-3,0-4,.1v11.6c1,.1,2.5.1,4.5.1a4.92,4.92,0,0,0,2.9-.6,3,3,0,0,0,.8-2.4,3.42,3.42,0,0,0-.5-2.2,2.43,2.43,0,0,0-1.8-.9V538A2.13,2.13,0,0,0,427.4,537.32ZM422,534h1.9a3,3,0,0,1,1.6.3,1.48,1.48,0,0,1,.4,1.3,1.57,1.57,0,0,1-.4,1.3,2,2,0,0,1-1.5.3h-2V534Zm0,4.8h2a2.15,2.15,0,0,1,1.6.4,2,2,0,0,1,.4,1.5,1.79,1.79,0,0,1-.4,1.4,2.22,2.22,0,0,1-1.6.3h-2.2l.2-3.6Zm17.2-6.3h-2.1l-4.3,7.6a3.51,3.51,0,0,0-.6,1.4h-.1a7.57,7.57,0,0,0,.1-1.5v-7.5h-2v11.6h2.1l4.3-7.6a8.43,8.43,0,0,0,.6-1.4h.1a7.57,7.57,0,0,0-.1,1.5v7.6h2v-11.7Zm11.2,10v-10H446a2.79,2.79,0,0,0-1.8.6,2.34,2.34,0,0,0-.7,1.7,24.44,24.44,0,0,1-1.5,7.6h-1.2v4.2h1.4l.2-2.5h7.8l.2,2.5h1.4v-4.2Zm-6.5,0a11.24,11.24,0,0,0,1-3.1,30.06,30.06,0,0,0,.5-4.2,1.14,1.14,0,0,1,.3-.8.78.78,0,0,1,.8-.2h1.8v8.3Zm12.4-.1c-.2,0-.5,0-.6-.2a1.88,1.88,0,0,1-.2-.8v-2.6h4.6v-1.6h-4.6v-2a1.2,1.2,0,0,1,.2-.8.73.73,0,0,1,.6-.2h4.4l.1-1.6c-1-.1-2.7-.1-5-.1a3,3,0,0,0-1.8.6,1.91,1.91,0,0,0-.6,1.6V542a2.27,2.27,0,0,0,.6,1.6,2.79,2.79,0,0,0,1.8.6c2.3,0,4,0,5-.1l-.1-1.6-4.4-.1Zm7-8.8c-.7.9-1,2.4-1,4.7s.3,3.9,1,4.7a4.61,4.61,0,0,0,3.6,1.3c1.7,0,3-.4,3.6-1.3a8.61,8.61,0,0,0,1-4.7c0-2.3-.3-3.9-1-4.7a4.61,4.61,0,0,0-3.6-1.3C465.2,532.32,464,532.72,463.3,533.62Zm5.6,1.4a10.63,10.63,0,0,1,0,6.6,2.55,2.55,0,0,1-3.6.3l-.3-.3a10.63,10.63,0,0,1,0-6.6,2.66,2.66,0,0,1,3.7-.3C468.8,534.82,468.9,534.92,468.9,535Zm11.1,9.1h2.2l-3-6,2.8-5.6h-2.2l-2.4,4.9h-.3l-2.3-4.9h-2.1l2.8,5.6-3,6h2.2l2.5-5.2h.3Zm4-10.6c-.7.9-1,2.4-1,4.7s.3,3.9,1,4.7a4.61,4.61,0,0,0,3.6,1.3c1.7,0,3-.4,3.6-1.3a8.61,8.61,0,0,0,1-4.7c0-2.3-.3-3.9-1-4.7a5.63,5.63,0,0,0-7.2,0Zm5.6,1.4a10.63,10.63,0,0,1,0,6.6,2.55,2.55,0,0,1-3.6.3l-.3-.3a10.63,10.63,0,0,1,0-6.6,2.66,2.66,0,0,1,3.7-.3C489.4,534.82,489.5,534.92,489.6,534.92Zm9,7.5a1.82,1.82,0,0,1-1.9-.9,10.32,10.32,0,0,1,0-6.5,2.08,2.08,0,0,1,1.9-.9,28.12,28.12,0,0,1,3,.1l.2-1.6a11.7,11.7,0,0,0-3.2-.4,4.47,4.47,0,0,0-3.6,1.4c-.7.9-1,2.5-1,4.7a8.86,8.86,0,0,0,1,4.7,4,4,0,0,0,3.6,1.3,13.93,13.93,0,0,0,3.5-.4l-.2-1.6c-1.1.1-2.2.1-3.3.1Zm13.4-10h-9v1.9h3.5v9.8h2.1v-9.8h3.5l-.1-1.9Zm10.5,0h-2.1l-4.3,7.6a5.91,5.91,0,0,0-.6,1.4h-.1a7.57,7.57,0,0,0,.1-1.5v-7.5h-2V544h2.1l4.3-7.6c.2-.5.4-.9.6-1.4h.1a7.57,7.57,0,0,0-.1,1.5v7.6h2v-11.7Zm9.1,0V537h-4.5v-4.6h-2V544h2v-5.3h4.5V544h2.1v-11.6Zm6.6,11.6v-8.8a1.08,1.08,0,0,1,.2-.8.78.78,0,0,1,.8-.2h4l.1-1.6c-1-.1-2.6-.1-4.8-.1a2,2,0,0,0-1.6.7,2.84,2.84,0,0,0-.7,1.7v9.2h2Zm15.5-11.6h-2.1l-4.3,7.6a5.91,5.91,0,0,0-.6,1.4h-.1a7.57,7.57,0,0,0,.1-1.5v-7.5h-2V544h2.1l4.3-7.6c.2-.5.4-.9.6-1.4h.1a7.57,7.57,0,0,0-.1,1.5v7.6h2v-11.7Z"/><path class="cls-4" d="M41.9,525.52H200a14.38,14.38,0,0,1,14.4,14.3h0a14.47,14.47,0,0,1-14.4,14.4H41.9a14.38,14.38,0,0,1-14.4-14.3h0a14.4,14.4,0,0,1,14.4-14.4Z"/><path class="cls-1" d="M599.2,286.52c-6.5-39-46.8-54.8-61.4-59.1-41.1-12-92.7,4-104.4,34.8-16.3,43,43.4,119.4,100.6,110C569.5,366.32,605.9,326.92,599.2,286.52Z"/><path class="cls-3" d="M466.9,348.72c29.4,20.8,65.4,5.1,77.6-1.5,34.1-18.7,56.8-62,44.4-89.3-17.3-38-105-48.7-135.6-6C434.3,278.52,436.4,327,466.9,348.72Z"/><path class="cls-4" d="M474.6,332.52h76.5a25.78,25.78,0,0,1,25.8,25.7v.1h0A25.71,25.71,0,0,1,551.1,384H474.6a25.78,25.78,0,0,1-25.8-25.7h0a25.86,25.86,0,0,1,25.8-25.8Z"/><path class="cls-1" d="M480.2,342.82H471v1.8h3.6v9.8h2.1v-9.8h3.6Zm2.2,1.1c-.7.9-1.1,2.4-1.1,4.7s.4,3.9,1.1,4.7a4.7,4.7,0,0,0,3.7,1.3c1.8,0,3.1-.4,3.8-1.3s1-2.4,1-4.7-.4-3.9-1-4.7-2-1.3-3.8-1.3a4.7,4.7,0,0,0-3.7,1.3Zm5.8,1.4a10.63,10.63,0,0,1,0,6.6,2.81,2.81,0,0,1-3.9.2l-.2-.2a10.63,10.63,0,0,1,0-6.6,2.69,2.69,0,0,1,3.8-.2c.2.1.2.2.3.2Zm12.6,2.4a4.14,4.14,0,0,0,.5-1.9,2.72,2.72,0,0,0-.9-2.4,5.58,5.58,0,0,0-3.1-.6c-1.8,0-3.1,0-4.1.1v11.6c1.1.1,2.6.1,4.6.1a5.25,5.25,0,0,0,3-.6,3,3,0,0,0,.9-2.4,3.42,3.42,0,0,0-.5-2.2,2.14,2.14,0,0,0-1.8-.9v-.1a1.91,1.91,0,0,0,1.4-.7Zm-5.6-3.3h1.9a4.15,4.15,0,0,1,1.6.3,2.31,2.31,0,0,1,0,2.6,2,2,0,0,1-1.5.3h-2.1l.1-3.2Zm0,4.8h2.1a3.29,3.29,0,0,1,1.7.4,2.69,2.69,0,0,1,.5,1.5,1.79,1.79,0,0,1-.4,1.4,3.17,3.17,0,0,1-1.6.4h-2.2l-.1-3.7Zm15.8,5.3h2.2l-3.5-11a.76.76,0,0,0-.8-.6h-2.1a.76.76,0,0,0-.8.6l-3.5,11h2.2l1-3.3H510Zm-4.8-5,1.2-4,.3-1h.5c0,.1.1.4.2,1l1.2,4Zm10.5,5v-4.4a18.48,18.48,0,0,0,2.3.1,4.28,4.28,0,0,0,2.9-.8,4.4,4.4,0,0,0,.8-3,4.12,4.12,0,0,0-.9-3,4.83,4.83,0,0,0-3.1-.8c-1.8,0-3.2,0-4.2.1v11.6Zm0-10h2a2,2,0,0,1,1.5.4,3.07,3.07,0,0,1,0,3.2,2,2,0,0,1-1.5.4h-2v-4Zm10.1-1.6h-2.1v11.6h0c1,.1,2.5.1,4.4.1a4.43,4.43,0,0,0,2.9-.8,5.34,5.34,0,0,0,0-5.7,5.12,5.12,0,0,0-3.2-.8h-2v-4.4Zm7.9,0v11.6h2.1v-11.6Zm-7.9,6h2a1.91,1.91,0,0,1,1.5.4,2.93,2.93,0,0,1,.4,1.6,1.5,1.5,0,0,1-1,1.9h0a1.7,1.7,0,0,1-1,0h-2l.1-3.9Zm24-1.2a3.2,3.2,0,0,0,.5-1.9,2.72,2.72,0,0,0-.9-2.4,5.75,5.75,0,0,0-3.1-.6c-1.8,0-3.2,0-4.1.1v11.6c1.1.1,2.6.1,4.6.1a5.25,5.25,0,0,0,3-.6,2.72,2.72,0,0,0,.9-2.4,4.19,4.19,0,0,0-.5-2.2,2.43,2.43,0,0,0-1.8-.9v-.1a1.62,1.62,0,0,0,1.4-.7Zm-5.6-3.3h2a2.88,2.88,0,0,1,1.6.3,2.31,2.31,0,0,1,0,2.6,2,2,0,0,1-1.5.3h-2.2l.1-3.2Zm0,4.8h2.2a2.54,2.54,0,0,1,1.7.4,2.69,2.69,0,0,1,.5,1.5,1.79,1.79,0,0,1-.4,1.4,2.32,2.32,0,0,1-1.6.3h-2.2l-.2-3.6Zm-69,23.1a2,2,0,0,1-2-.9,10.32,10.32,0,0,1,0-6.5,2.15,2.15,0,0,1,2-.9,30.09,30.09,0,0,1,3.1.1l.2-1.6a12.67,12.67,0,0,0-3.4-.4,4.68,4.68,0,0,0-3.7,1.4,10.59,10.59,0,0,0,0,9.4,4.29,4.29,0,0,0,3.7,1.3,14.72,14.72,0,0,0,3.6-.4l-.2-1.6A17.65,17.65,0,0,1,476.2,372.32Zm5.9-8.8c-.7.9-1.1,2.4-1.1,4.7s.4,3.9,1.1,4.7a6.06,6.06,0,0,0,7.5,0c.8-.9,1.1-2.4,1.1-4.7s-.4-3.9-1.1-4.7a5,5,0,0,0-3.8-1.3C484,362.22,482.8,362.62,482.1,363.52Zm5.8,1.4a10.63,10.63,0,0,1,0,6.6,2.67,2.67,0,0,1-4,0,10.63,10.63,0,0,1,0-6.6,2.15,2.15,0,0,1,2-.9A2,2,0,0,1,487.9,364.92Zm13.7,7.4v-10h-2.1v10H495v-10h-2.1v11.6h8.5l.2,2.5h1.5v-4.1Zm3-.5a1.42,1.42,0,0,0-.2.6v.9a.73.73,0,0,0,.2.6,1.42,1.42,0,0,0,.6.2h.6a.73.73,0,0,0,.6-.2,1.42,1.42,0,0,0,.2-.6v-1a.73.73,0,0,0-.2-.6,1.42,1.42,0,0,0-.6-.2h-.6A1.63,1.63,0,0,0,504.6,371.82Zm12.2.5a2,2,0,0,1-2-.9,10.32,10.32,0,0,1,0-6.5,2.25,2.25,0,0,1,2-.9,30.09,30.09,0,0,1,3.1.1l.2-1.6a12.42,12.42,0,0,0-3.3-.4,4.68,4.68,0,0,0-3.7,1.4,7.9,7.9,0,0,0-1.1,4.7c0,2.2.3,3.8,1.1,4.7a4.5,4.5,0,0,0,3.7,1.3,14.72,14.72,0,0,0,3.6-.4l-.2-1.6c-1.1,0-2.2.1-3.4.1Zm8.3-.1a.76.76,0,0,1-.8-1v-2.6h4.8V367h-4.8v-2a1.2,1.2,0,0,1,.2-.8.73.73,0,0,1,.6-.2h4.6l.1-1.6c-1-.1-2.7-.1-5.1-.1a2.79,2.79,0,0,0-1.8.6,2,2,0,0,0-.7,1.6v7.3a2,2,0,0,0,.7,1.6,3,3,0,0,0,1.8.6c2.4,0,4.1,0,5.1-.1l-.1-1.6-4.6-.1Zm15.1-9.9H531v1.8h3.5v9.8h2.1v-9.8h3.6v-1.8Zm9.4,0c-1-.1-2.4-.1-4.2-.1a4.55,4.55,0,0,0-3,.8,3.22,3.22,0,0,0-.9,2.6,3.14,3.14,0,0,0,.5,2.1,2.23,2.23,0,0,0,1.7.9v.1a2,2,0,0,0-1.7,1.7l-1,3.5h2.2l.9-3.5a1.38,1.38,0,0,1,1.3-1.1h2v4.6h2.1l.1-11.6Zm-4.1,5.4a2.1,2.1,0,0,1-1.5-.5,2,2,0,0,1-.4-1.5,2.3,2.3,0,0,1,.4-1.4,2.6,2.6,0,0,1,1.5-.4h2v3.8ZM559,374h2.2l-3.1-6,2.9-5.6h-2.2l-2.4,4.9H556l-2.4-4.9h-2.2l2.9,5.6-3.1,6h2.2l2.6-5.2h.3Z"/><path class="cls-1" d="M381.2,131.22c11.5,37.1,52.8,47.2,67.6,49.4,41.6,6.3,89.7-16.1,97-47.6,10.1-44-58-110.4-112.5-93.7C399.5,49.62,369.3,92.72,381.2,131.22Z"/><path class="cls-3" d="M393.4,115.72c9,37.7,49.5,50.4,64.1,53.6,41,9,90.4-10.2,99.8-41.1,13-43.1-50.5-113.8-105.8-100.7C417.1,35.72,384.1,76.62,393.4,115.72Z"/><path class="cls-2" d="M428.8,135.22H538.4a14.55,14.55,0,0,1,0,29.1H428.8a14.55,14.55,0,1,1,0-29.1Z"/><path class="cls-1" d="M430.9,144v11.6H433v-10h4.6v10h2.1V144Zm12.1,1.1c-.7.9-1,2.4-1,4.7s.4,3.9,1,4.7,2,1.3,3.8,1.3,3-.4,3.8-1.3,1.1-2.4,1.1-4.7-.4-3.9-1.1-4.7a5,5,0,0,0-3.8-1.3C445,143.82,443.7,144.22,443,145.12Zm5.8,1.4a11,11,0,0,1,0,6.7,2.81,2.81,0,0,1-3.9.2l-.2-.2a11,11,0,0,1,0-6.7,2.81,2.81,0,0,1,3.9-.2C448.7,146.32,448.7,146.42,448.8,146.52ZM463,144h-2.2l-4.4,7.6a5.91,5.91,0,0,0-.6,1.4h-.1a7.57,7.57,0,0,0,.1-1.5V144h-2v11.6h2.1l4.4-7.7a4.24,4.24,0,0,0,.6-1.4h.1a7.57,7.57,0,0,0-.1,1.5v7.6h2L463,144Zm7,10a2,2,0,0,1-2-.9,10.32,10.32,0,0,1,0-6.5,2.25,2.25,0,0,1,2-.9,30.09,30.09,0,0,1,3.1.1l.2-1.6a12.67,12.67,0,0,0-3.4-.4,4.6,4.6,0,0,0-3.7,1.3c-.7.9-1.1,2.4-1.1,4.7s.4,3.8,1.1,4.7a4.68,4.68,0,0,0,3.7,1.4,14.72,14.72,0,0,0,3.6-.4l-.2-1.6C472.3,153.92,471.1,154,470,154Zm10.7-4.7a3,3,0,0,0,1.7-1.8,38.16,38.16,0,0,0,1.3-3.6h-2.1v.2a14.24,14.24,0,0,0-.5,1.6,6.94,6.94,0,0,1-.5,1.3,4.7,4.7,0,0,1-.6.9c-.2.2-.4.5-.7.6a2.92,2.92,0,0,1-.9.2h-1a5.7,5.7,0,0,0,.1-1.3V144h-2.1v11.7h2.1v-4.1c0-.4-.1-.8-.1-1.1h1a1.7,1.7,0,0,1,.7.1,2.94,2.94,0,0,1,1.5,1.4,39.06,39.06,0,0,1,1.3,3.7h2.2l-.3-1a21.38,21.38,0,0,0-1.6-3.9,2.84,2.84,0,0,0-2.1-1.2v-.1a1.42,1.42,0,0,0,.6-.2Zm5.6-4.3c-.7.9-1,2.4-1,4.7s.4,3.9,1,4.7a4.7,4.7,0,0,0,3.7,1.3c1.7,0,3.1-.4,3.8-1.3s1.1-2.4,1.1-4.7-.4-3.9-1.1-4.7a5,5,0,0,0-3.8-1.3A4.7,4.7,0,0,0,486.3,145Zm5.8,1.4a11,11,0,0,1,0,6.7,2.81,2.81,0,0,1-3.9.2l-.2-.2a11,11,0,0,1,0-6.7,2.81,2.81,0,0,1,3.9-.2Zm12.6,2.3a3.2,3.2,0,0,0,.5-1.9,2.72,2.72,0,0,0-.9-2.4,5.58,5.58,0,0,0-3.1-.6c-1.8,0-3.1,0-4.1.1v11.6c1.1.1,2.6.1,4.6.1a5.25,5.25,0,0,0,3-.6,2.72,2.72,0,0,0,.9-2.4,3.42,3.42,0,0,0-.5-2.2,2.14,2.14,0,0,0-1.8-.9v-.1a1.33,1.33,0,0,0,1.4-.7Zm-5.6-3.2H501a4.15,4.15,0,0,1,1.6.3,2.31,2.31,0,0,1,0,2.6,2,2,0,0,1-1.5.3H499l.1-3.2Zm0,4.8h2.1a2.54,2.54,0,0,1,1.7.4,3,3,0,0,1,0,3,2.32,2.32,0,0,1-1.6.3h-2.2v-3.7Zm17.8-6.4h-2.2l-4.4,7.6a3.51,3.51,0,0,0-.6,1.4h-.1a7.57,7.57,0,0,0,.1-1.5v-7.5h-2v11.6h2.1l4.4-7.7a3.51,3.51,0,0,0,.6-1.4h.1a7.57,7.57,0,0,0-.1,1.5v7.6h2l.1-11.6Zm8,5.4a3,3,0,0,0,1.7-1.8,38.16,38.16,0,0,0,1.3-3.6h-2.1v.2a14.24,14.24,0,0,0-.5,1.6,6.94,6.94,0,0,1-.5,1.3,4.7,4.7,0,0,1-.6.9,1.34,1.34,0,0,1-.7.6,2.92,2.92,0,0,1-.9.2h-1a5.7,5.7,0,0,0,.1-1.3V144h-2.1v11.6h2.1v-4.1c0-.4-.1-.8-.1-1.1h1a1.7,1.7,0,0,1,.7.1,2.94,2.94,0,0,1,1.5,1.4,39.06,39.06,0,0,1,1.3,3.7h2.2a6.21,6.21,0,0,1-.3-1,21.38,21.38,0,0,0-1.6-3.9,2.84,2.84,0,0,0-2.1-1.2v-.1a.66.66,0,0,0,.6-.1Zm14.2-5.4H537l-4.4,7.6a5.91,5.91,0,0,0-.6,1.4h-.1a7.57,7.57,0,0,0,.1-1.5v-7.5h-2v11.6h2.2l4.4-7.7a4.24,4.24,0,0,0,.6-1.4h.1a7.57,7.57,0,0,0-.1,1.5v7.6h2l-.1-11.6Z"/><path class="cls-4" d="M97.6,134.62H198a14.38,14.38,0,0,1,14.4,14.3h0a14.32,14.32,0,0,1-14.4,14.3H97.6a14.38,14.38,0,0,1-14.4-14.3h0a14.32,14.32,0,0,1,14.4-14.3Z"/><path class="cls-4" d="M46.8,340.42h84.6a14.38,14.38,0,0,1,14.4,14.3h0a14.47,14.47,0,0,1-14.4,14.4H46.8a14.38,14.38,0,0,1-14.4-14.3h0a14.47,14.47,0,0,1,14.4-14.4Z"/><path class="cls-1" d="M509.9,41.82H427.3a6.06,6.06,0,0,0-6.1,6.1h0v51.8a6.06,6.06,0,0,0,6.1,6.1h82.6a6.06,6.06,0,0,0,6.1-6.1h0V47.92a6.06,6.06,0,0,0-6.1-6.1Z"/><path class="cls-5" d="M517.7,41.82H510a6.06,6.06,0,0,1,6.1,6.1h0v51.8a6.12,6.12,0,0,1-6.1,6.1h7.7a6.36,6.36,0,0,0,6.3-6.4V48.22A6.36,6.36,0,0,0,517.7,41.82Z"/><path class="cls-5" d="M429.1,49.52v49.1h79.7V49.52Z"/><path class="cls-1" d="M434.5,54.42v17.3h32.6V54.42Z"/><path class="cls-6" d="M472.3,54.62v3h31.2v-3Z"/><path class="cls-6" d="M472.3,61.52v3h31.2v-3Z"/><path class="cls-6" d="M472.3,68.42v3h31.2v-3Z"/><path class="cls-6" d="M434.5,91.72v3h68.9v-3Z"/><path class="cls-7" d="M434.5,76.72V88h68.9V76.72Z"/><path class="cls-6" d="M430.1,97.62h77.6v-47H430.1Zm78.7,2H429.1a.94.94,0,0,1-1-1h0V49.52a.94.94,0,0,1,1-1h79.7a.94.94,0,0,1,1,1h0v49.1a1.08,1.08,0,0,1-1,1Z"/><path class="cls-1" d="M410.2,105.82v3.5a7.49,7.49,0,0,0,3.2,6.1h0a6.59,6.59,0,0,0,4.1,1.2H497a7.36,7.36,0,0,0,7.4-7.3h0v-3.5Z"/><path class="cls-5" d="M504.4,105.82v3.5a7.3,7.3,0,0,1-7.4,7.3h24.2a7.43,7.43,0,0,0,7.4-7.3v-3.5Z"/><path class="cls-6" d="M527.6,109.32a6.27,6.27,0,0,1-6.3,6.3H502.5l.2-.2.7-.7a2.65,2.65,0,0,1,.5-.6,2.62,2.62,0,0,0,.5-.9,3.33,3.33,0,0,1,.3-.6c.1-.3.3-.7.4-1.1.1-.2.1-.4.2-.6a11,11,0,0,0,.2-1.8v-2.4h22.2l-.1,2.6Zm-116.4,0v-2.4h92.1v2.4a6.27,6.27,0,0,1-6.3,6.3H417.5A6.4,6.4,0,0,1,411.2,109.32Zm11-9.6V47.92a5.12,5.12,0,0,1,5.1-5.1h82.6a5.12,5.12,0,0,1,5.1,5.1h0v51.8a5.12,5.12,0,0,1-5.1,5.1H427.3a5.19,5.19,0,0,1-5.1-5.1Zm95.5-56.9a5.34,5.34,0,0,1,5.3,5.3v51.3a5.34,5.34,0,0,1-5.3,5.3H515a7,7,0,0,0,2.2-5.1V47.92a7,7,0,0,0-2.2-5.1Zm11,62h-5.9a7.19,7.19,0,0,0,2.3-5.3V48.22a7.38,7.38,0,0,0-7.4-7.4H427.4a7.15,7.15,0,0,0-7.2,7.1v51.8a7,7,0,0,0,2.2,5.1H410.2a.94.94,0,0,0-1,1h0v3.5a8.3,8.3,0,0,0,8.4,8.3H521.3a8.37,8.37,0,0,0,8.4-8.3h0v-3.5a1.08,1.08,0,0,0-1-1Z"/><path class="cls-5" d="M481.3,68a16.9,16.9,0,1,0-.1,23.9l.1-.1h0a16.87,16.87,0,0,0,0-23.8Z"/><path class="cls-1" d="M511,110.22l-20.3-15.6a26.66,26.66,0,0,1-6.7,6.7l15.6,20.2A8.21,8.21,0,0,0,511,123a8.09,8.09,0,0,0,1.6-11.2l-.1-.1A5.36,5.36,0,0,0,511,110.22Z"/><path class="cls-1" d="M487.7,61.72a26,26,0,1,0-.1,36.7l.1-.1h0a25.77,25.77,0,0,0,.1-36.5A.1.1,0,0,1,487.7,61.72Z"/><path class="cls-7" d="M454.7,70.72c0,3-2.4,6-2.4,9,0,3.3,2.4,6.7,2.4,9.9h29.7c0-3.2,1.9-6.2,1.9-9.5s-1.9-6.4-1.9-9.5Z"/><path class="cls-6" d="M511,121.62a7,7,0,0,1-10,0,4.35,4.35,0,0,1-.6-.7l-15-19.3a28.14,28.14,0,0,0,5.5-5.4l19.4,14.9a7,7,0,0,1,1.4,9.8.1.1,0,0,1-.1.1C511.4,121.12,511.2,121.42,511,121.62ZM482.5,101a25.1,25.1,0,0,1-30.9-3.5,24.9,24.9,0,1,1,38.8-4.3,10.38,10.38,0,0,1-1.2,1.7,15.46,15.46,0,0,1-2.4,2.7,29.77,29.77,0,0,1-2.7,2.3A6.45,6.45,0,0,1,482.5,101Zm29.1,8.4-19.5-15a27.41,27.41,0,1,0-8.4,8.2l15,19.4a8.74,8.74,0,0,0,6.6,3.5h.6a9.07,9.07,0,0,0,9.1-9.1h0v-.6a8.25,8.25,0,0,0-3.4-6.4Z"/><path class="cls-8" d="M469.3,64.12a15.88,15.88,0,1,0,11.2,4.6A16.16,16.16,0,0,0,469.3,64.12Zm0,33.8a18,18,0,1,1,18-17.9,17.63,17.63,0,0,1-5.3,12.6A17.86,17.86,0,0,1,469.3,97.92Z"/><path class="cls-1" d="M51.2,211.52v45h48v-45Z"/><path class="cls-5" d="M51.2,219.92v2.9h48v-2.9Z"/><path class="cls-1" d="M51.2,211.52v8.4h48v-8.4Z"/><path class="cls-5" d="M99.2,211.52v8.4H104v-8.4Z"/><path class="cls-5" d="M99.2,219.92v36.6H104v-36.6Z"/><path class="cls-7" d="M87.4,214.62a1,1,0,1,0,1,1h0A1,1,0,0,0,87.4,214.62Z"/><path class="cls-7" d="M91,214.62a1,1,0,1,0,1,1h0A1,1,0,0,0,91,214.62Z"/><path class="cls-7" d="M94.5,214.62a1,1,0,1,0,1,1h0A1,1,0,0,0,94.5,214.62Z"/><path class="cls-1" d="M19.4,272.42v45h48v-45Z"/><path class="cls-5" d="M19.4,280.82v2.9h48v-2.9Z"/><path class="cls-1" d="M19.4,272.42v8.4h48v-8.4Z"/><path class="cls-5" d="M67.4,272.42v8.4h4.8v-8.4Z"/><path class="cls-5" d="M67.4,280.82v36.6h4.8v-36.6Z"/><circle class="cls-9" cx="55.6" cy="276.62" r="1"/><circle class="cls-9" cx="59.2" cy="276.62" r="1"/><circle class="cls-9" cx="62.7" cy="276.62" r="1"/><path class="cls-1" d="M83.3,272.42v45h48v-45Z"/><path class="cls-5" d="M83.3,280.82v2.9h48v-2.9Z"/><path class="cls-1" d="M83.3,272.42v8.4h48v-8.4Z"/><path class="cls-5" d="M131.3,272.42v8.4h4.8v-8.4Z"/><path class="cls-5" d="M131.3,280.82v36.6h4.8v-36.6Z"/><circle class="cls-9" cx="119.5" cy="276.62" r="1"/><circle class="cls-9" cx="123.1" cy="276.62" r="1"/><circle class="cls-9" cx="126.6" cy="276.62" r="1"/><path class="cls-6" d="M71.2,279.82H68.5v-6.4h2.7Zm0,36.7H68.5v-34.6h2.7Zm-4.8-36.7h-46v-6.4h46Zm0,36.7h-46v-34.6h46Zm5.8-45H45v-1H43v1H19.4a.94.94,0,0,0-1,1h0v45a.94.94,0,0,0,1,1H72.2a.94.94,0,0,0,1-1h0v-45A1,1,0,0,0,72.2,271.52Z"/><path class="cls-6" d="M135.1,279.82h-2.7v-6.4h2.7Zm0,36.7h-2.7v-34.6h2.7Zm-4.8-36.7h-46v-6.4h46Zm0,36.7h-46v-34.6h46Zm5.8-45H112.2v-1h-2v1H83.3a.94.94,0,0,0-1,1h0v45a.94.94,0,0,0,1,1h52.8a.94.94,0,0,0,1-1h0v-45A1,1,0,0,0,136.1,271.52Z"/><path class="cls-6" d="M45,266.12h1v-2H44a.94.94,0,0,0-1,1h0v2h2Z"/><path class="cls-6" d="M88.1,264.12H83.9v2h4.2Z"/><path class="cls-6" d="M96.5,264.12H92.3v2h4.2Z"/><path class="cls-6" d="M105,264.12h-4.2v2H105Z"/><path class="cls-6" d="M54.4,264.12H50.2v2h4.2Z"/><path class="cls-6" d="M75.5,266.12h4.2v-2H75.5Z"/><path class="cls-6" d="M62.8,264.12H58.6v2h4.2Z"/><path class="cls-6" d="M71.3,264.12H67.1v2h4.2Z"/><path class="cls-6" d="M110.2,267.12h2v-2a.94.94,0,0,0-1-1h-2v2h1Z"/><path class="cls-6" d="M100.2,255.52v-34.6H103v34.6Zm-48-34.6h46v34.6h-46Zm46-8.4v6.4h-46v-6.4Zm4.8,6.3h-2.7v-6.4H103Zm1-8.4H51.2a.94.94,0,0,0-1,1h0v45a.94.94,0,0,0,1,1H76.6v4h2v-4H104a.94.94,0,0,0,1-1h0v-45a1,1,0,0,0-1-1Z"/><path class="cls-5" d="M57.3,225.32v11.6H74.4v-11.6Z"/><path class="cls-6" d="M77.1,225.52v2H93.5v-2Z"/><path class="cls-6" d="M77.1,230.12v2H93.5v-2Z"/><path class="cls-6" d="M77.1,234.72v2H93.5v-2Z"/><path class="cls-6" d="M57.3,250.32v2H93.5v-2Z"/><path class="cls-7" d="M57.3,240.32v7.6H93.5v-7.6Z"/><path class="cls-5" d="M26,286.62v25H36.3v-25Z"/><path class="cls-7" d="M39.7,286.62v9.2h22v-9.2Z"/><path class="cls-6" d="M39.7,298.12v2h22v-2Z"/><path class="cls-6" d="M39.7,302.62v2h22v-2Z"/><path class="cls-6" d="M39.7,307.12v2h22v-2Z"/><path class="cls-5" d="M89.6,286.62V298h35.3v-11.4Z"/><path class="cls-7" d="M89.6,301v10.7h10V301Z"/><path class="cls-6" d="M102.2,301.12v2h22.7v-2Z"/><path class="cls-6" d="M102.2,305.32v2h22.7v-2Z"/><path class="cls-6" d="M102.2,309.42v2h22.7v-2Z"/><path class="cls-7" d="M488.1,264.82V270h60.7v-5.2Z"/><ellipse class="cls-9" cx="508.2" cy="309.22" rx="6" ry="5.9"/><ellipse class="cls-9" cx="529.7" cy="309.22" rx="6" ry="5.9"/><circle class="cls-10" cx="508.2" cy="309.22" r="2.2"/><circle class="cls-10" cx="529.7" cy="309.22" r="2.3"/><path class="cls-6" d="M508.2,307.92a1.3,1.3,0,1,0,1.3,1.3h0A1.32,1.32,0,0,0,508.2,307.92Zm0,4.5a3.2,3.2,0,1,1,3.2-3.2h0a3.22,3.22,0,0,1-3.2,3.2Z"/><path class="cls-6" d="M529.7,307.92a1.3,1.3,0,1,0,1.3,1.3h0a1.32,1.32,0,0,0-1.3-1.3Zm0,4.5a3.2,3.2,0,1,1,3.2-3.2h0a3.22,3.22,0,0,1-3.2,3.2Z"/><path class="cls-1" d="M527.5,240.62a21.5,21.5,0,0,1,19.5-20.4,21.17,21.17,0,0,0-23,19.1c0,.4-.1.9-.1,1.3a21.21,21.21,0,0,0,6.6,16.1,15.66,15.66,0,0,1,5,11.5v.9H539v-.9a15.66,15.66,0,0,0-5-11.5A20.77,20.77,0,0,1,527.5,240.62Z"/><path class="cls-5" d="M468.1,246.52v5.3h10.1v-5.3Z"/><path class="cls-6" d="M547.8,269.12H489v-3.3h58.8v3.3Zm-6.1,14h-6.4l2.2-12.1H545Zm-3.7,13.7h-5.2l2.2-11.7h6.2ZM499.3,271l2.2,12.1h-6.3L491.9,271Zm9.1,0,1.1,12.1h-6L501.3,271Zm9.1,12.1h-6.1L510.3,271h7.2Zm7.9,0h-6V271h7.1Zm1.9,0,1.1-12.1h7.1l-2.2,12.1Zm-.2,1.9H533l-2.2,11.7h-4.7Zm-7.7,0h5.8l-1.1,11.7h-4.8l.1-11.7Zm-7.8,0h5.9v11.7h-4.8Zm-7.6,11.8h-5.1l-3.2-11.7h6.2Zm-.2-11.8h5.8l1.1,11.7H506Zm9.3,24.2a5,5,0,1,1-5-5,5,5,0,0,1,5,5Zm21.5,0a5,5,0,1,1-5-5,4.89,4.89,0,0,1,5,5Zm-57.4-58.4H469v-3.4h8.2Zm71.6,13H489.5l-4.1-15a1,1,0,0,0-.9-.7h-5.4v-1.7a1,1,0,0,0-1-1H468a.94.94,0,0,0-1,1v5.3a.94.94,0,0,0,1,1h10.1a1.08,1.08,0,0,0,1-1V250h4.6l3.8,13.9a.91.91,0,0,0-.4.8v5.2a.92.92,0,0,0,1,.9h1.8l2.1,7.9h0l6.7,24.6a1,1,0,0,0,.9.7h3.7a6.93,6.93,0,0,0,9.5,10.1,6.83,6.83,0,0,0,.3-9.7l-.3-.3h12a6.93,6.93,0,0,0,9.5,10.1,6.83,6.83,0,0,0,.3-9.7l-.3-.3h2.8v-1.9H500.2l-1-3.6h39.3a1,1,0,0,0,.9-.7l7.3-27h1.8a1,1,0,0,0,1-.9v-5.2a.73.73,0,0,0-.7-1.1Z"/><path class="cls-11" d="M541.1,254.52v14.6H543v-14.6Z"/><path class="cls-6" d="M546.9,204.82v8.4h1.9v-8.4Z"/><path class="cls-6" d="M559.7,206.72l-3.4,7.6,1.8.8,3.4-7.6Z"/><path class="cls-6" d="M536.3,206.72l-1.7.8,3.4,7.6,1.7-.8Z"/><path class="cls-6" d="M492,259.52v1.9h3.2v-1.9Z"/><path class="cls-6" d="M497.7,259.52v1.9h3.2v-1.9Z"/><path class="cls-6" d="M503.3,259.52v1.9h3.2v-1.9Z"/><path class="cls-6" d="M509,259.52v1.9h3.2v-1.9Z"/><path class="cls-6" d="M514.6,259.52v1.9h3.2v-1.9Z"/><path class="cls-6" d="M520.2,259.52v1.9h3.2v-1.9Z"/><path class="cls-6" d="M525.9,259.52v1.9H529v-1.9Z"/><path class="cls-1" d="M541.3,282.32v4.5h9.1v-4.5Z"/><path class="cls-1" d="M544.2,220.22a21.45,21.45,0,0,0-20.3,20.4,21.21,21.21,0,0,0,6.6,16.1,15.66,15.66,0,0,1,5,11.5v.9H555v-.9a16.37,16.37,0,0,1,5.1-11.6,21.18,21.18,0,0,0-15.9-36.4Z"/><path class="cls-1" d="M533.8,269.12v5.6a7.62,7.62,0,0,0,7.7,7.6h7.6a7.75,7.75,0,0,0,7.7-7.6h0v-5.6Z"/><path class="cls-5" d="M550.4,282.32v4.5H555v-4.5Z"/><path class="cls-5" d="M551.3,220.22h-6.1a21.22,21.22,0,0,1,14.9,36.5,16.37,16.37,0,0,0-5.1,11.6v.9h7.1v-.9a16.37,16.37,0,0,1,5.1-11.6,21.28,21.28,0,0,0,.5-30,20.86,20.86,0,0,0-16.4-6.5Z"/><path class="cls-5" d="M556.7,269.12v5.6a7.6,7.6,0,0,1-7.6,7.6h7.4a7.75,7.75,0,0,0,7.7-7.6h0v-5.6Z"/><path class="cls-6" d="M561.1,268.12H556v-1.5c0-.3.1-.5.1-.8s.1-.5.1-.7a3.09,3.09,0,0,1,.2-.8,6.37,6.37,0,0,1,.2-.7c.1-.2.2-.5.3-.7a1.45,1.45,0,0,0,.2-.7c0-.3.2-.5.4-.8a3.29,3.29,0,0,0,.3-.6,9.22,9.22,0,0,1,.5-.8,3.21,3.21,0,0,0,.3-.5,4.43,4.43,0,0,1,.7-.9,1.38,1.38,0,0,0,.3-.4,12,12,0,0,1,1.1-1.2,22.26,22.26,0,0,0,6.8-15.9,15.48,15.48,0,0,0-.1-2.2,5,5,0,0,0-.2-1.2,3.08,3.08,0,0,1-.1-.9,8.33,8.33,0,0,0-.4-1.5,1.42,1.42,0,0,0-.2-.6c-.2-.5-.4-1.1-.6-1.6l-.2-.4c-.2-.5-.5-1.1-.7-1.6-.1-.1-.1-.3-.2-.4l-.9-1.5a.52.52,0,0,1-.2-.4c-.3-.5-.7-.9-1-1.4a1.38,1.38,0,0,1-.3-.4c-.4-.4-.8-.9-1.2-1.3-.1-.1-.2-.2-.2-.3l-.1-.1-.3-.3c-.3-.3-.6-.5-.8-.7l-.4-.4a14.63,14.63,0,0,0-1.3-.9l-.3-.2-1.5-.9-.2-.1a11.94,11.94,0,0,0-1.6-.8,20.39,20.39,0,0,1,18.1,22.3,20.1,20.1,0,0,1-6.1,12.5A17.63,17.63,0,0,0,561.1,268.12Zm2.1,1.9v4.7a6.7,6.7,0,0,1-6.7,6.7h-2a4.35,4.35,0,0,1,.7-.6h0a10,10,0,0,0,1-1.1l.1-.2a5.39,5.39,0,0,0,.7-1.3.35.35,0,0,1,.1-.2,7.37,7.37,0,0,0,.4-1.4v-.2a8.75,8.75,0,0,0,.2-1.6v-4.7Zm-9.2,15.9h-2.6v-2.6H554Zm-11.8-2.6h7.2v2.6h-7.2Zm-7.5-8.6V270h21v4.7a6.7,6.7,0,0,1-6.7,6.7h-7.6a6.7,6.7,0,0,1-6.7-6.7ZM531.1,256a20.25,20.25,0,0,1-.6-28.7,19.91,19.91,0,0,1,13.8-6.2h1a20.39,20.39,0,0,1,9.6,2.4h0a15.05,15.05,0,0,1,1.7,1l.1.1a14.31,14.31,0,0,1,1.5,1.1l.2.2c.4.4.9.7,1.3,1.1l.3.3a12,12,0,0,1,1.1,1.2l.2.3c.3.4.7.9,1,1.3.1.1.1.2.2.3a6.38,6.38,0,0,1,.8,1.4c0,.1.1.2.2.3.2.5.5,1,.7,1.5,0,.1.1.3.1.4a8.8,8.8,0,0,1,.5,1.5,1.09,1.09,0,0,1,.1.5,7,7,0,0,1,.3,1.4,2.77,2.77,0,0,1,.1.9,5.16,5.16,0,0,0,.2,1.1,14.08,14.08,0,0,1,.1,2,19.89,19.89,0,0,1-6.2,14.5c-.4.4-.8.9-1.2,1.3a1.38,1.38,0,0,0-.3.4c-.3.3-.5.7-.8,1-.1.2-.2.3-.3.5a8.79,8.79,0,0,0-.6,1l-.3.6a9,9,0,0,1-.5.9,2.12,2.12,0,0,0-.3.7l-.3.9a6.37,6.37,0,0,1-.2.7,2.39,2.39,0,0,0-.2.9c0,.3-.1.5-.1.7s-.1.6-.1.9V268h-7.8v-13.1l.3.3a2.43,2.43,0,0,0,3.2,0l1-.8a.75.75,0,0,1,.9,0l1.2-1.5a2.57,2.57,0,0,0-3.3,0l-1,.8a.75.75,0,0,1-.9,0l-1-.8a2.43,2.43,0,0,0-3.2,0l-1,.8a.75.75,0,0,1-.9,0l-1-.8a2.43,2.43,0,0,0-3.2,0l1.2,1.5a.75.75,0,0,1,.9,0l1,.8a2.7,2.7,0,0,0,3.2,0l.7-.6V268h-7.8a17.39,17.39,0,0,0-5.6-12Zm43.5-14.6a22.24,22.24,0,0,0-22.3-22.2h-8.1a22.21,22.21,0,0,0-14.4,38.2,14.7,14.7,0,0,1,4.7,10.7h-.8a.94.94,0,0,0-1,1v5.6a8.61,8.61,0,0,0,7.5,8.5v3.7a.94.94,0,0,0,1,1H555a.94.94,0,0,0,1-1v-3.6h.6a8.6,8.6,0,0,0,8.6-8.6v-5.6a.94.94,0,0,0-1-1H563a15.25,15.25,0,0,1,4.8-10.8,22.26,22.26,0,0,0,6.8-15.9Z"/><path class="cls-1" d="M152.5,58.32a17.09,17.09,0,0,0-3.1.3,19.42,19.42,0,0,0,.2-2.4,27.75,27.75,0,0,0-55.5,0h0a28,28,0,0,0,1.3,8.1,20,20,0,1,0-7.9,39.2,18.1,18.1,0,0,0,4,.4h61a22.8,22.8,0,1,0,0-45.6Z"/><path class="cls-1" d="M153.7,58.42v.2l1.2-.2Z"/><path class="cls-5" d="M171.8,58.32a15.26,15.26,0,0,0-3,.3,19.42,19.42,0,0,0,.2-2.4,27.78,27.78,0,0,0-27.8-27.7H121.9a27.85,27.85,0,0,1,27.8,27.7h0c0,.8-.2,1.6-.2,2.4a15.53,15.53,0,0,1,3.1-.3,22.8,22.8,0,1,1,0,45.6h19.3a22.8,22.8,0,1,0-.1-45.6Z"/><path class="cls-6" d="M171.8,102.82h-9.5a17.4,17.4,0,0,0,3.3-1.8,24.5,24.5,0,0,0,10.7-17.7,16.2,16.2,0,0,0,.1-2.2,23.8,23.8,0,0,0-13.5-21.4h6l.5-.1a19.42,19.42,0,0,1,2.4-.2,21.7,21.7,0,0,1,0,43.4ZM72.5,83.92a19,19,0,0,1,19-19,16.37,16.37,0,0,1,3.8.4,1,1,0,0,0,1.2-.8h0V64a25.51,25.51,0,0,1-1.3-7.8,26.7,26.7,0,1,1,53.4,0c0,.5-.1.9-.1,1.4,0,.3-.1.6-.1.9a1,1,0,0,0,1,1.1h.2l.5-.1a19.42,19.42,0,0,1,2.4-.2,21.75,21.75,0,1,1,.9,43.5H91.5a18.91,18.91,0,0,1-19-18.9Zm60.3-54.3h8.4A26.7,26.7,0,0,1,168,56.22c0,.4-.1.9-.1,1.3H156.3a24.33,24.33,0,0,0-3.8-.3c-.6,0-1.2.1-1.8.1a4.48,4.48,0,0,0,.1-1.1,21.75,21.75,0,0,0-.1-2.6A29.19,29.19,0,0,0,136,31.22l-.7-.4a14.17,14.17,0,0,0-1.8-.8l-.5-.3Zm39,27.6c-.6,0-1.2.1-1.8.1,0-.4.1-.8.1-1.1a28.72,28.72,0,0,0-28.8-28.7H122a28.89,28.89,0,0,0-29,28.7,25.17,25.17,0,0,0,.9,6.7,21.08,21.08,0,1,0-2.5,42h80.3a23.85,23.85,0,0,0,.1-47.7Z"/><path class="cls-1" d="M146.2,98.72a2.9,2.9,0,0,0-2.9-2.9H128.1l4.6-8,.5-2.4a3.66,3.66,0,0,0-2.8-4.3,3.57,3.57,0,0,0-3.8,1.6l-2.7,4.5-10.7,7.4v22.5l5.3,1.9h21.6a2.9,2.9,0,1,0,0-5.8h1a2.9,2.9,0,1,0,0-5.8h1.1a2.9,2.9,0,1,0,0-5.8h1.1a2.78,2.78,0,0,0,2.9-2.9Z"/><path class="cls-5" d="M103.3,94.12v24.5h10V94.12Z"/><path class="cls-6" d="M140.1,118H118.7l-4.4-1.6V95.22l10.3-7.1.3-.3,2.8-4.5a2.52,2.52,0,0,1,4.6,1.9l-.5,2.3-4.5,7.8a1,1,0,0,0,.4,1.4h0a.9.9,0,0,0,.5.1h15.2a1.85,1.85,0,1,1,.1,3.7h-5.4v2.1h4.3a1.88,1.88,0,0,1,1.7,2,1.92,1.92,0,0,1-1.7,1.7H137v2.1h4.3a1.86,1.86,0,0,1,.3,3.7h-5.8v2.2h4.3a1.86,1.86,0,0,1,.3,3.7Zm-28-.5h-7.8V95.22h7.8v22.3Zm34.1-13a3.58,3.58,0,0,0-.9-2.4,3.94,3.94,0,0,0,1.2-5.5,3.86,3.86,0,0,0-3.3-1.8H130l3.7-6.4a.37.37,0,0,0,.1-.3l.5-2.4a4.68,4.68,0,0,0-3.5-5.6,4.79,4.79,0,0,0-5,2.1l-2.7,4.3-9.5,6.6c-.1,0-.3-.1-.4-.1h-10a1.11,1.11,0,0,0-1.1,1.1v24.5a1.11,1.11,0,0,0,1.1,1.1h10a1.06,1.06,0,0,0,1-.9l3.9,1.4c.1,0,.2.1.4.1h21.6a4,4,0,0,0,4-4,3.41,3.41,0,0,0-.9-2.4,3.83,3.83,0,0,0,1.4-5.3h0a1.38,1.38,0,0,0-.3-.4,5.37,5.37,0,0,0,1.9-3.7Z"/><path class="cls-1" d="M106.9,97.22v2.7h2.7v-2.7Z"/><path class="cls-7" d="M144.5,77a4.1,4.1,0,1,0,0,8.2,4.06,4.06,0,0,0,4.1-4.1h0a4.06,4.06,0,0,0-4.1-4.1Z"/><circle class="cls-9" cx="160.9" cy="73.92" r="4.1"/><path class="cls-7" d="M160.9,84.22a4.1,4.1,0,1,0,4.1,4.1v-.1h0A4.1,4.1,0,0,0,160.9,84.22Z"/><path class="cls-6" d="M160.9,91.42a2.89,2.89,0,0,1-2.9-3.1,3,3,0,0,1,3.1-2.9,2.9,2.9,0,0,1,2.9,2.9,3.08,3.08,0,0,1-2.9,3.1Zm-16.4-7.3a3,3,0,1,1,.2-6,3,3,0,0,1,2.9,3h0A3,3,0,0,1,144.5,84.12Zm16.4-13.3a3,3,0,1,1-3,3A3,3,0,0,1,160.9,70.82Zm0,12.4a5.09,5.09,0,0,0-4.4,2.6l-7-3.1a4.57,4.57,0,0,0,.1-2.6l7.1-3.2a5.24,5.24,0,1,0,1.3-7.3,5.23,5.23,0,0,0-2.2,5.3l-7.1,3.2a5.21,5.21,0,1,0-1.1,7.4,6.47,6.47,0,0,0,.9-.8l7.4,3.3a1.27,1.27,0,0,1-.1.6,5.2,5.2,0,0,0,10.4,0,5.42,5.42,0,0,0-5.3-5.4Z"/><path class="cls-1" d="M132.5,47.52a5.78,5.78,0,0,0-11,2.4v.2H107.9c1.2,6.2,8.9,8.3,8.9,8.3l-8.9,4.5c21.7,2.9,23.6-5.8,23.5-9.1a7.2,7.2,0,0,0,1.5-2.7l3-1.7Z"/><path class="cls-6" d="M111.6,62.32c9.7.8,14.3-1.1,16.4-3a6.85,6.85,0,0,0,2.4-5.4,1.14,1.14,0,0,1,.3-.8,4.77,4.77,0,0,0,1.2-2.2,1.16,1.16,0,0,1,.5-.7l1.4-.8-1.8-1a1,1,0,0,1-.4-.5,4.63,4.63,0,0,0-6.2-2.3,4.59,4.59,0,0,0-2.7,4.2,1.61,1.61,0,0,1-.3.9,1.23,1.23,0,0,1-.8.4H109.4c1.8,4.5,7.7,6.2,7.7,6.3a1,1,0,0,1,.7,1.3h0a1.79,1.79,0,0,1-.5.7Zm4.3,2.3a57.6,57.6,0,0,1-8.2-.6,1,1,0,0,1-.9-1.2h0a1.56,1.56,0,0,1,.6-.8l6.8-3.5c-2.6-1.2-6.4-3.7-7.3-8.3a1,1,0,0,1,.8-1.2h12.8a6.87,6.87,0,0,1,7.7-5.9,6.63,6.63,0,0,1,5.1,3.6l3.1,1.8a1,1,0,0,1,.4,1.4h0a.78.78,0,0,1-.4.4l-2.6,1.5a7,7,0,0,1-1.3,2.4,9.37,9.37,0,0,1-3.1,6.6c-2.8,2.6-7.3,3.8-13.5,3.8Z"/><path class="cls-5" d="M84.3,74.42v13.4h2.6v4.1l6-4.2h12.5V74.42Z"/><path class="cls-6" d="M85.4,86.82H88V90l4.6-3.2h11.8V75.52h-19v11.3Zm.4,7.2v-5.1H83.2V73.42h23.2v15.5H93.2Z"/><path class="cls-1" d="M88.3,79.72v2.6H91v-2.6Z"/><path class="cls-1" d="M93.5,79.72v2.6h2.7v-2.6Z"/><path class="cls-1" d="M98.8,79.72v2.6h2.7v-2.6Z"/><path class="cls-1" d="M498.4,497.12v15.2h5.5l2-15.2Z"/><path class="cls-1" d="M435.3,421.22v71h85.8v-71Z"/><path class="cls-1" d="M454.7,421.22v71h46.9v-71Z"/><path class="cls-5" d="M454.7,421.22v71h4v-71Z"/><path class="cls-5" d="M521.1,421.22v71h8.5v-71Z"/><path class="cls-7" d="M470.4,447.32v24.4l21.2-12.2Z"/><path class="cls-6" d="M471.3,448.92v21.4l18.6-10.7Zm-.9,23.8a.9.9,0,0,1-.9-.9h0v-24.5a.9.9,0,0,1,.9-.9h0c.2,0,.3,0,.4.1l21.2,12.2a.84.84,0,0,1,.3,1.2h0c-.1.1-.2.3-.3.3l-21.2,12.2c-.1.2-.2.3-.4.3Z"/><path class="cls-6" d="M528.7,491.32H522v-69.2h6.7Zm-8.5,0H502.6v-69.2h17.6Zm-84-69.2h17.7v69.2H436.3Zm64.5,0v69.2h-45v-69.2Zm28.9-1.8H435.3a.9.9,0,0,0-.9.9h0v71a.9.9,0,0,0,.9.9h94.3a.9.9,0,0,0,.9-.9h0v-71a.9.9,0,0,0-.9-.9Z"/><path class="cls-12" d="M440.6,426.72v6h8.7v-6Z"/><path class="cls-12" d="M440.6,440.12v6h8.7v-6Z"/><path class="cls-12" d="M440.6,453.52v6h8.7v-6Z"/><path class="cls-12" d="M440.6,466.92v6h8.7v-6Z"/><path class="cls-12" d="M440.6,480.32v6h8.7v-6Z"/><path class="cls-6" d="M441.5,431.92h7v-4.2h-7Zm7.8,1.8h-8.7a.9.9,0,0,1-.9-.9h0v-6a.9.9,0,0,1,.9-.9h8.7a.9.9,0,0,1,.9.9h0v6a.9.9,0,0,1-.9.9Z"/><path class="cls-6" d="M441.5,445.32h7v-4.2h-7Zm7.8,1.8h-8.7a.9.9,0,0,1-.9-.9h0v-6a.9.9,0,0,1,.9-.9h8.7a.9.9,0,0,1,.9.9h0v6a.9.9,0,0,1-.9.9Z"/><path class="cls-6" d="M441.5,458.72h7v-4.2h-7Zm7.8,1.8h-8.7a.9.9,0,0,1-.9-.9h0v-6a.9.9,0,0,1,.9-.9h8.7a.9.9,0,0,1,.9.9h0v6a.9.9,0,0,1-.9.9Z"/><path class="cls-6" d="M441.5,472.12h7v-4.2h-7Zm7.8,1.8h-8.7a.9.9,0,0,1-.9-.9h0v-6a.9.9,0,0,1,.9-.9h8.7a.9.9,0,0,1,.9.9h0v6a.9.9,0,0,1-.9.9Z"/><path class="cls-12" d="M507,426.72v6h8.7v-6Z"/><path class="cls-12" d="M507,440.12v6h8.7v-6Z"/><path class="cls-12" d="M507,453.52v6h8.7v-6Z"/><path class="cls-12" d="M507,466.92v6h8.7v-6Z"/><path class="cls-6" d="M507.9,431.92h7v-4.2h-7v4.2Zm7.8,1.8H507a.9.9,0,0,1-.9-.9h0v-6a.9.9,0,0,1,.9-.9h8.7a.9.9,0,0,1,.9.9h0v6a.9.9,0,0,1-.9.9Z"/><path class="cls-6" d="M507.9,445.32h7v-4.2h-7v4.2Zm7.8,1.8H507a.9.9,0,0,1-.9-.9h0v-6a.9.9,0,0,1,.9-.9h8.7a.9.9,0,0,1,.9.9h0v6a.84.84,0,0,1-.9.9Z"/><path class="cls-6" d="M507.9,458.72h7v-4.2h-7v4.2Zm7.8,1.8H507a.9.9,0,0,1-.9-.9h0v-6a.9.9,0,0,1,.9-.9h8.7a.9.9,0,0,1,.9.9h0v6a.84.84,0,0,1-.9.9Z"/><path class="cls-6" d="M507.9,472.12h7v-4.2h-7v4.2Zm7.8,1.8H507a.9.9,0,0,1-.9-.9h0v-6a.9.9,0,0,1,.9-.9h8.7a.9.9,0,0,1,.9.9h0v6a.84.84,0,0,1-.9.9Z"/><path class="cls-6" d="M441.5,485.52h7v-4.2h-7Zm7.8,1.7h-8.7a.9.9,0,0,1-.9-.9h0v-6a.9.9,0,0,1,.9-.9h8.7a.9.9,0,0,1,.9.9h0v6a.9.9,0,0,1-.9.9Z"/><path class="cls-5" d="M491.7,480.32v16.8h14.5v-16.8Z"/><path class="cls-1" d="M506.2,480.32v16.8l26.6,8.6v-33.9Z"/><path class="cls-6" d="M533.7,494v-9.3a4.62,4.62,0,0,1,4.3,5A4.55,4.55,0,0,1,533.7,494Zm-1.8,10.5-24.8-8V481l24.8-8Zm-28.8,6.9h-3.8V498h5.5Zm-10.5-30.2h12.8v15H492.6Zm47.3,8.2a6.4,6.4,0,0,0-6.2-6.4v-11.2a.9.9,0,0,0-.9-.9h-.3l-26.4,8.5H491.7a.9.9,0,0,0-.9.9h0v16.8a.9.9,0,0,0,.9.9h5.8v14.3a.9.9,0,0,0,.9.9h5.5a1,1,0,0,0,.9-.8l1.9-14.2,25.9,8.4h.3a.9.9,0,0,0,.9-.9h0v-9.9a6.53,6.53,0,0,0,6.1-6.4Z"/><path class="cls-5" d="M50.8,442.32a7.36,7.36,0,0,0-7.4,7.3h0v19.1a7.38,7.38,0,0,0,7.4,7.4H62.4v-33.8Z"/><path class="cls-5" d="M62.4,442.32v33.8h6v-33.8Z"/><path class="cls-1" d="M38,454.82v9h5.4v-9Z"/><path class="cls-1" d="M60.3,476.22H50.6l9,25.4h6.6Z"/><path class="cls-1" d="M66.2,476.22H60.3l5.9,25.4h5.9Z"/><path class="cls-6" d="M67,500.62l-5.5-23.5h4l5.5,23.5Zm-15-23.5h7.7l5.4,23.5H60.3Zm-7.6-8.3v-19.1a6.44,6.44,0,0,1,6.4-6.4H61.4v32H50.6a6.36,6.36,0,0,1-6.2-6.5Zm-5.4-6v-7.1h3.6v7.1Zm28.4,12.5H63.3v-32h4.1Zm5.6,26-5.6-24.2h1a.9.9,0,0,0,.9-.9h0v-33.9a.9.9,0,0,0-.9-.9H50.8a8.28,8.28,0,0,0-8.3,8.3v4.2H38a.9.9,0,0,0-.9.9h0v9a.9.9,0,0,0,.9.9h4.5v4.2a8.25,8.25,0,0,0,7.5,8.2l8.8,24.8a.87.87,0,0,0,.9.6H72.2a.9.9,0,0,0,.9-.9h0C73,501.42,73,501.42,73,501.32Z"/><path class="cls-1" d="M62.4,447.72v23c2.6.3,21.4,3.1,35.1,16.1v-55.1C83.8,444.62,65,447.42,62.4,447.72Z"/><path class="cls-5" d="M97.4,428.32v62h8.2v-62Z"/><path class="cls-5" d="M105.6,428.32v62h6.6v-62Z"/><path class="cls-6" d="M111.3,489.42h-4.8v-60.2h4.8Zm-13-60.2h6.4v60.2H98.4Zm-1.8,55.6c-12.7-11.1-29.1-14.2-33.2-14.8v-21.5c4.1-.6,20.5-3.7,33.2-14.8Zm15.7-57.5H97.4a.9.9,0,0,0-.9.9h0v3c-13.5,12.6-32.2,15.3-34.3,15.6a.88.88,0,0,0-.8.9v23a.88.88,0,0,0,.8.9c2.1.3,20.7,3,34.3,15.6v3a.9.9,0,0,0,.9.9h14.8a.9.9,0,0,0,.9-.9h0v-61.9a1.06,1.06,0,0,0-.9-1Z"/><path class="cls-1" d="M110.9,449.82h-5.2v15.7h5.2a7.85,7.85,0,1,0,.5-15.7Z"/><path class="cls-1" d="M105.6,449.82v15.7a7.85,7.85,0,1,0,.5-15.7Z"/><path class="cls-6" d="M110.9,464.52a8.71,8.71,0,0,0,1.8-12.1h0a7.28,7.28,0,0,0-1.8-1.7,6.9,6.9,0,1,1,0,13.8Zm-4.4,0v-13.8a7,7,0,0,1,0,13.8Zm4.4-15.7h-5.2a.9.9,0,0,0-.9.9h0v15.7a.9.9,0,0,0,.9.9h5.2a8.81,8.81,0,0,0,.6-17.6A1.27,1.27,0,0,1,110.9,448.82Z"/><path class="cls-13" d="M150.9,456.72h-1.6c-2.4,0-4.8-1.8-4.8-6.2,0-4.6,2.2-6.5,4.5-6.5h1.9v12.7Zm2.5-15.1h-4.2c-4.2,0-7.7,3.1-7.7,9.2a7.84,7.84,0,0,0,4.8,7.7l-5.7,10.2a.37.37,0,0,0,.3.6h2.6c.2,0,.4-.1.4-.3l5.2-10H151v10a.32.32,0,0,0,.3.3h2.3a.27.27,0,0,0,.3-.3v-27.1a.55.55,0,0,0-.5-.3"/><path class="cls-14" d="M167.3,450.82H165a.27.27,0,0,0-.3.3v7.1h-4.3v-7.1a.27.27,0,0,0-.3-.3h-2.3c-.1,0-.3.1-.3.2h0v18a.27.27,0,0,0,.3.3h2.3a.32.32,0,0,0,.3-.3h0v-8.6h4.3V469c0,.1.1.3.2.3h2.4a.32.32,0,0,0,.3-.3h0V451c0-.1-.1-.2-.3-.2h0"/><path class="cls-14" d="M219.9,468.22l-.3-1.3c0-.1-.1-.1-.2-.1a11.71,11.71,0,0,1-2.6.4c-2.8,0-4.2-2.7-4.2-7,0-3.8,1.1-7.5,3.1-7.5a3.34,3.34,0,0,1,2.2,1.1c.1.1.2.2.3.1s.2-.1.3-.3l1-1.6a.37.37,0,0,0,.1-.3c0-.1-.1-.3-.4-.4a6.92,6.92,0,0,0-3.4-.9c-3.5,0-6.2,4.1-6.2,10.6,0,5.6,2.6,8.8,6.3,8.8a7.76,7.76,0,0,0,3.9-1.2.6.6,0,0,0,.1-.4"/><path class="cls-14" d="M203.8,459.22l4.4-8.1a.19.19,0,0,0-.1-.3h-2.2a1,1,0,0,0-1.1.7l-3.3,6.9a1.56,1.56,0,0,1-.6.8v-8.1c0-.1-.1-.3-.2-.3h-2.4c-.1,0-.2.1-.2.3v18c0,.1.1.2.2.3h2.4c.1,0,.2-.1.2-.3v-9.3l.3.3,4.2,8.7a.88.88,0,0,0,1,.5h2.4c.1,0,.2-.1.1-.3l-5.1-9.8"/><path class="cls-14" d="M178.5,467h-5.4c1.9-3.2,2.6-6.8,2.9-11.3.1-1,.1-2,.1-2.6h2.4Zm4,0H182c-.6,0-.7-.2-.7-.7V451c0-.2-.1-.3-.2-.3h-7.4c-.1,0-.3.1-.3.2h0v1.3c0,4.5-.3,10.2-2.6,14.6H170a.27.27,0,0,0-.3.3v5.4c0,.1.1.3.2.3h1.8a.63.63,0,0,0,.6-.5v-3h7.9v3.4c0,.1.1.3.2.3h1.9c.2,0,.4-.2.4-.6v-5.1c.1-.1-.1-.3-.2-.3h0"/><path class="cls-14" d="M189.6,458.42c-.9,0-2.2.1-2.2.1a3.75,3.75,0,0,1,.1-1.1c.3-3.1,1.1-4.7,2.4-4.7s1.9,1.6,2.1,4.5v1.2Zm.4-8c-4,0-5.8,5-5.8,10.5s2.5,8.9,6.2,8.9a7.63,7.63,0,0,0,4.2-1.2c.1-.1.2-.2.1-.3l-.3-1.2c0-.1-.1-.2-.3-.2h0a8.63,8.63,0,0,1-2.8.4c-2.9,0-4.2-2.5-4.2-5.7v-.9a20.87,20.87,0,0,0,2.3.2h5.4v-1.6c.3-5.8-1.7-8.9-4.8-8.9"/><path class="cls-15" d="M173,501.52a8.55,8.55,0,1,1-8.6-8.5h.1a8.37,8.37,0,0,1,8.5,8.2Zm-3.7,0a4.81,4.81,0,0,0-9.6.6,4.81,4.81,0,0,0,9.6-.5Z"/><path class="cls-16" d="M191.4,501.52a8.55,8.55,0,1,1-8.6-8.5h.1a8.37,8.37,0,0,1,8.5,8.2Zm-3.8,0a4.81,4.81,0,0,0-9.6.6,4.81,4.81,0,0,0,9.6-.5c.1,0,.1-.1,0-.1Z"/><path class="cls-17" d="M209,493.52v15.2c0,6.2-3.7,8.8-8.1,8.8a8.08,8.08,0,0,1-7.5-5l3.2-1.4a4.64,4.64,0,0,0,4.3,3c2.8,0,4.5-1.7,4.5-5v-1.2h-.1a5.51,5.51,0,0,1-4.5,1.9,8.46,8.46,0,0,1,0-16.9,6.36,6.36,0,0,1,4.5,1.9h.1v-1.4l3.6.1Zm-3.3,8c0-3-2-5.1-4.5-5.1a5.12,5.12,0,0,0,0,10.2c2.5,0,4.5-2.1,4.5-5.1Z"/><path class="cls-18" d="M214.8,484.62v24.8h-3.6v-24.8Z"/><path class="cls-15" d="M229,504.32l2.9,1.9a8.43,8.43,0,0,1-7.1,3.8,8.2,8.2,0,0,1-8.4-8.1v-.3c0-5,3.6-8.5,8-8.5s6.6,3.5,7.3,5.4l.4,1-11.4,4.7a4.52,4.52,0,0,0,4.1,2.6A5.24,5.24,0,0,0,229,504.32Zm-8.9-3.1,7.6-3.1a3.18,3.18,0,0,0-3.1-1.8,4.7,4.7,0,0,0-4.5,4.9Z"/><path class="cls-17" d="M142.2,499.32v-3.6h12.1a15,15,0,0,1,.2,2.2,11.85,11.85,0,0,1-3.1,8.4,12.14,12.14,0,0,1-9.2,3.7,13.1,13.1,0,0,1,0-26.2h0a13,13,0,0,1,9,3.6l-2.5,2.5a9.23,9.23,0,0,0-6.5-2.6,9.55,9.55,0,1,0,0,19.1,9.28,9.28,0,0,0,6.7-2.6,7.31,7.31,0,0,0,1.9-4.4Z"/><path class="cls-2" d="M334.7,259.52H265.1a18,18,0,0,1-18-18h0a18,18,0,0,1,18-18h69.6a18,18,0,0,1,18,18h0A18.05,18.05,0,0,1,334.7,259.52Z"/><path class="cls-19" d="M276.5,251H262.1v-15.1l14.4,5.4Z"/><path class="cls-1" d="M281.5,251H267.4v-18.3l14.1-5.1Z"/><path class="cls-20" d="M267.5,237.92l9,3.4V251h-9Z"/><path class="cls-10" d="M295.8,235.92h2.9V251h-2.9v-9.5h-.1l-4.8,9.5H288v-15.1h2.9v9.5h.1Z"/><path class="cls-10" d="M307.6,247.12h0l2.9-11.2h3.8V251h-2.9v-9.5h-.1l-2.7,9.5h-2l-2.7-9.4h-.1V251h-2.9v-15.1h3.8Z"/><path class="cls-10" d="M327.5,235.92V251h-2.9v-12.8h-3.3v4.5c0,2.9-.4,5.1-1.2,6.4a4,4,0,0,1-3.7,1.9H316v-2.3h.4a1.54,1.54,0,0,0,1.6-1.2,25.92,25.92,0,0,0,.4-4.8v-6.8Z"/><path class="cls-10" d="M339.7,246.32h0a4.28,4.28,0,0,1-4.9,4.9,5.25,5.25,0,0,1-3.9-1.4,5.57,5.57,0,0,1-1.4-4.1v-4.5a5.57,5.57,0,0,1,1.4-4.1,4.68,4.68,0,0,1,3.7-1.4,5.27,5.27,0,0,1,3.8,1.2,4.88,4.88,0,0,1,1.3,3.6v.1h-2.8a2.88,2.88,0,0,0-.5-2,2.72,2.72,0,0,0-1.7-.6,1.94,1.94,0,0,0-1.6.8,4,4,0,0,0-.5,2.4v4.5a3.35,3.35,0,0,0,.6,2.4,2.34,2.34,0,0,0,1.8.8,1.91,1.91,0,0,0,1.6-.6,3.51,3.51,0,0,0,.5-2Z"/><path class="cls-21" d="M183.9,298.22c-18.6.2-14,0-32.6-.6l-3.3-.1,6.1-6.9c1.1-1.3.1-4.4-1.1-3.2l-10,10.1a2.16,2.16,0,0,0-.5,1.7,2.74,2.74,0,0,0,.2,3c4.1,3.7,8.2,7.4,12.4,11,1.3,1.1,2.4-2.1,1.1-3.3-3.4-3-6.7-6-10.1-8.9,17.7.6,12.3.9,30,.8C194.7,301.82,202.5,298,183.9,298.22Z"/><path class="cls-21" d="M428.7,306.72c18.6-.2,14,0,32.6.6l3.4.1-6.1,6.9c-1.1,1.3-.1,4.4,1.1,3.2l10-10.1a2.16,2.16,0,0,0,.5-1.7,2.57,2.57,0,0,0-.2-2.9c-4.1-3.7-8.2-7.4-12.4-11-1.3-1.1-2.4,2.1-1.1,3.2l10.1,8.9c-17.7-.6-12.3-.9-30-.8C418,303.12,410.2,306.92,428.7,306.72Z"/><path class="cls-21" d="M232.6,203.52c-17.8-17.4-13.4-13.2-30.6-31.2l-3.1-3.3,10.7,1c2,.2,3.2-3,1.2-3.3l-16.7-2.5a1.81,1.81,0,0,0-1.7.7,2.1,2.1,0,0,0-1.9,2.2c1.3,6.5,2.6,13,4,19.5.4,2,3.8.7,3.4-1.2l-3.3-15.9c16.4,17.2,11.1,12.3,28,29.1C240.3,216.22,250.4,221,232.6,203.52Z"/><path class="cls-21" d="M388.7,207.92c17.8-17.4,13.4-13.2,30.6-31.3l3.1-3.3-10.7.9c-2,.2-3.2-3-1.2-3.3l16.7-2.4a1.81,1.81,0,0,1,1.7.7,2.1,2.1,0,0,1,1.9,2.2c-1.3,6.5-2.6,13-4,19.5-.4,2-3.8.7-3.4-1.2l3.3-15.9c-16.4,17.2-11.1,12.3-28,29.1C381,220.62,370.9,225.32,388.7,207.92Z"/><path class="cls-21" d="M378.4,412.72c17.7,17.3,13.3,13.1,30.3,31l3.1,3.2-10.6-.9c-2-.2-3.2,3-1.2,3.2l16.6,2.3a1.9,1.9,0,0,0,1.7-.7,2.1,2.1,0,0,0,1.9-2.2c-1.3-6.5-2.6-12.9-3.9-19.4-.4-2-3.7-.7-3.3,1.2,1.1,5.3,2.2,10.5,3.2,15.8-16.3-17.1-11-12.2-27.8-28.8C370.7,400.12,360.7,395.42,378.4,412.72Z"/><path class="cls-21" d="M225,401.42c-17.7,17.3-13.3,13.1-30.3,31-1,1.1-2.1,2.1-3.1,3.2l10.6-.9c2-.2,3.2,3,1.2,3.2l-16.6,2.3a1.9,1.9,0,0,1-1.7-.7,2.1,2.1,0,0,1-1.9-2.2c1.3-6.5,2.6-12.9,3.9-19.4.4-2,3.7-.7,3.3,1.2-1.1,5.3-2.2,10.5-3.2,15.8,16.3-17.1,11-12.2,27.8-28.8C232.6,388.82,242.6,384.22,225,401.42Z"/><path class="cls-10" d="M46.3,533.52a2.14,2.14,0,0,1,1.6,2.4,4,4,0,0,1-.4,2,1.76,1.76,0,0,1-1.3.9v.1a2.16,2.16,0,0,1,1.6.9,4.14,4.14,0,0,1,.4,2.1,3,3,0,0,1-.9,2.5,4.56,4.56,0,0,1-2.9.8,27.48,27.48,0,0,1-3.8-.3l.1-1.6c1.3.1,2.4.1,3.2.1a5.21,5.21,0,0,0,1.4-.2,1.06,1.06,0,0,0,.7-.6,3.59,3.59,0,0,0,.2-1.1,2,2,0,0,0-.4-1.4,2.2,2.2,0,0,0-1.6-.4H42v-1.6h2.2a2.68,2.68,0,0,0,1.1-.2c.3-.1.4-.3.5-.6a2.79,2.79,0,0,0,.1-1,2,2,0,0,0-.2-.9.92.92,0,0,0-.6-.4,4.12,4.12,0,0,0-1.2-.1,26.28,26.28,0,0,0-3,.1l-.1-1.6a21.59,21.59,0,0,1,3.5-.3A8.78,8.78,0,0,1,46.3,533.52Z"/><path class="cls-10" d="M60.8,533.62a1.89,1.89,0,0,1,1.2,1.1,6.34,6.34,0,0,1,.4,2.3,5,5,0,0,1-.4,2.3,1.89,1.89,0,0,1-1.2,1.1,6.46,6.46,0,0,1-2.2.3,17,17,0,0,1-2.3-.1V545H54.2v-11.6a10.87,10.87,0,0,1,1.8-.1h2.4A7.8,7.8,0,0,1,60.8,533.62Zm-1.3,5.3a.9.9,0,0,0,.6-.6,3.7,3.7,0,0,0,0-2.4.9.9,0,0,0-.6-.6,3.73,3.73,0,0,0-1.2-.2h-2v4h2C58.8,539,59.2,539,59.5,538.92Z"/><path class="cls-10" d="M71.6,543.42l.1,1.6a15.48,15.48,0,0,1-2.2.1H66.6a2.44,2.44,0,0,1-1.8-.6,2.18,2.18,0,0,1-.7-1.6v-7.3a1.86,1.86,0,0,1,.7-1.6,2.44,2.44,0,0,1,1.8-.6h2.9c.8,0,1.5.1,2.2.1l-.1,1.6H67a.85.85,0,0,0-.6.2,1.29,1.29,0,0,0-.2.8v2H71v1.6H66.3v2.6a1.55,1.55,0,0,0,.2.8.85.85,0,0,0,.6.2h4.5Z"/><path class="cls-10" d="M80.1,539.72a5,5,0,0,1,1,1.4c.3.6.6,1.6,1.1,2.9l.3,1H80.3l-.2-.6c-.4-1.3-.8-2.3-1-2.8a4.85,4.85,0,0,0-.9-1.3,2,2,0,0,0-1.4-.5h-1a4.48,4.48,0,0,1,.1,1.1V545H73.8v-11.6h2.1v3.4a6.15,6.15,0,0,1-.1,1.3h1a2,2,0,0,0,1.4-.5,3.39,3.39,0,0,0,.9-1.4c.2-.6.6-1.5,1-2.8h2.1c0,.1-.1.2-.1.3s-.1.2-.1.4a23.55,23.55,0,0,1-1,2.7,3.88,3.88,0,0,1-1,1.4,2.63,2.63,0,0,1-1.5.7v.1A2.64,2.64,0,0,1,80.1,539.72Z"/><path class="cls-10" d="M92.8,545H90.7V535H88.9a1.14,1.14,0,0,0-.8.3,1,1,0,0,0-.3.8c-.2,1.9-.3,3.3-.4,4.2a8.44,8.44,0,0,1-.6,2.4,3.52,3.52,0,0,1-1.3,1.8,2.88,2.88,0,0,1-1.9.6h-.4l-.2-1.6a2.32,2.32,0,0,0,1-.4,1.46,1.46,0,0,0,.6-.9,7.75,7.75,0,0,0,.6-2.3c.1-.9.3-2.2.4-4.1a2.54,2.54,0,0,1,.8-1.8,2.61,2.61,0,0,1,1.8-.6h4.5l.1,11.6Z"/><path class="cls-10" d="M101.6,541.82H97.3l-1,3.3H94.1l3.5-11c0-.2.1-.3.3-.4a.76.76,0,0,1,.5-.2h2.1c.2,0,.3.1.5.2a1.38,1.38,0,0,1,.3.4l3.5,11h-2.2Zm-.5-1.8-1.2-4a4.33,4.33,0,0,1-.1-.5,1.09,1.09,0,0,1-.1-.5h-.5l-.3,1-1.2,4Z"/><path class="cls-10" d="M118.3,534.32l.5,10.8h-2l-.4-9.9H116l-2,7.7a.8.8,0,0,1-.9.7h-1.6a.8.8,0,0,1-.9-.7l-2-7.7h-.3l-.4,9.9h-2.1l.4-10.8a.74.74,0,0,1,.8-.8h2.2c.5,0,.7.2.9.7l1.7,6.3c.1.4.2,1,.3,1.6h.3l.1-.5a4.33,4.33,0,0,0,.1-.5,1.42,1.42,0,0,1,.2-.6l1.6-6.3a.8.8,0,0,1,.9-.7h2.2C118,533.52,118.2,533.72,118.3,534.32Z"/><path class="cls-10" d="M129.9,533.52v11.6h-2.1v-5.3h-4.6v5.3h-2.1v-11.6h2.1v4.6h4.6v-4.6Z"/><path class="cls-10" d="M139,538.22a1.89,1.89,0,0,1,1.2,1.1,6.25,6.25,0,0,1,0,4.4,1.89,1.89,0,0,1-1.2,1.1,6.08,6.08,0,0,1-2.2.3h-2.5c-.6,0-1.2-.1-1.9-.1h-.1v-11.6h2.1v4.4h2A11.84,11.84,0,0,1,139,538.22Zm-1.2,5.1c.3-.1.4-.3.5-.6a3.73,3.73,0,0,0,.2-1.2,4.12,4.12,0,0,0-.1-1.2.9.9,0,0,0-.6-.6,3.73,3.73,0,0,0-1.2-.2h-2v3.9h2A3.78,3.78,0,0,0,137.8,543.32Zm6.8-9.8v11.6h-2.1v-11.6Z"/><path class="cls-10" d="M154.6,543.42l.1,1.6a15.48,15.48,0,0,1-2.2.1h-2.9a2.44,2.44,0,0,1-1.8-.6,2.18,2.18,0,0,1-.7-1.6v-7.3a1.86,1.86,0,0,1,.7-1.6,2.44,2.44,0,0,1,1.8-.6h2.9c.8,0,1.5.1,2.2.1l-.1,1.6H150a.85.85,0,0,0-.6.2,1.29,1.29,0,0,0-.2.8v2h4.7v1.6h-4.7v2.6a1.55,1.55,0,0,0,.2.8.85.85,0,0,0,.6.2h4.6Z"/><path class="cls-10" d="M166.6,533.32l1.5.3-.2,1.6c-1-.1-2-.1-3.1-.1a2.08,2.08,0,0,0-1.5.4,2.42,2.42,0,0,0-.8,1.3,8.63,8.63,0,0,0-.2,2.5,14.73,14.73,0,0,0,.2,2.5,2.08,2.08,0,0,0,2.3,1.7h1.9c.5,0,1-.1,1.5-.1l.2,1.6a4.15,4.15,0,0,1-1.6.3,11.52,11.52,0,0,1-2,.1,5.55,5.55,0,0,1-2.8-.6,3.24,3.24,0,0,1-1.5-1.9,10.84,10.84,0,0,1-.5-3.5,10.4,10.4,0,0,1,.5-3.5A3.24,3.24,0,0,1,162,534a5.55,5.55,0,0,1,2.8-.6A12.13,12.13,0,0,1,166.6,533.32Z"/><path class="cls-10" d="M177.5,543.42l.1,1.6a15.48,15.48,0,0,1-2.2.1h-2.9a2.44,2.44,0,0,1-1.8-.6,2.18,2.18,0,0,1-.7-1.6v-7.3a1.86,1.86,0,0,1,.7-1.6,2.44,2.44,0,0,1,1.8-.6h2.9c.8,0,1.5.1,2.2.1l-.1,1.6H173a.85.85,0,0,0-.6.2,1.29,1.29,0,0,0-.2.8v2h4.7v1.6h-4.7v2.6a1.55,1.55,0,0,0,.2.8.85.85,0,0,0,.6.2h4.5Z"/><path class="cls-10" d="M188,535.32h-3.6v9.8h-2.1v-9.8h-3.5v-1.8H188v1.8Z"/><path class="cls-10" d="M198.8,545h-2v-7.6a8.08,8.08,0,0,1,.1-1.5h-.1a6.45,6.45,0,0,1-.6,1.4l-4.4,7.6h-2.1v-11.6h2v7.5a6.62,6.62,0,0,1-.1,1.5h.1a14.67,14.67,0,0,1,.6-1.4l4.4-7.6h2.2l-.1,11.7Z"/><path class="cls-10" d="M56.2,356.32v1.4l-1.4.2h0v2.6h-2v-2.6H48.3a1.28,1.28,0,0,1-1-.4,1.8,1.8,0,0,1-.4-.9,1.27,1.27,0,0,1,.1-.6l3-6.9h2l-2.9,6.6c0,.1-.1.2-.1.3s.1.3.4.3h3.2v-3.2l.3-1.9h1.6v5h1.7v.1Z"/><path class="cls-10" d="M63.3,349.12a2.55,2.55,0,0,1,1.2.8,3.41,3.41,0,0,1,.4,1.6,4,4,0,0,1-.4,2,1.6,1.6,0,0,1-1.3.9v.1a2,2,0,0,1,1.5.9,4.14,4.14,0,0,1,.4,2.1,3.18,3.18,0,0,1-.9,2.5,4.37,4.37,0,0,1-2.9.8,28.69,28.69,0,0,1-3.8-.3l.1-1.6c1.3.1,2.4.1,3.1.1a3.92,3.92,0,0,0,1.3-.2,1.06,1.06,0,0,0,.7-.6,3.09,3.09,0,0,0,.2-1.1,2,2,0,0,0-.4-1.4,2.08,2.08,0,0,0-1.5-.4H59v-1.5h2.1a2.68,2.68,0,0,0,1.1-.2,1,1,0,0,0,.5-.6,2.48,2.48,0,0,0,.1-.9,2,2,0,0,0-.2-.9.92.92,0,0,0-.6-.4,4.12,4.12,0,0,0-1.2-.1,26.28,26.28,0,0,0-3,.1l-.1-1.6a20.41,20.41,0,0,1,3.4-.3A4.84,4.84,0,0,1,63.3,349.12Z"/><path class="cls-10" d="M74.3,356.22h-3V359H69.8v-2.8H66.9v-1.5h2.9v-2.8h1.5v2.8h3Z"/><path class="cls-10" d="M86.1,348.92a8,8,0,0,1,1.5.3l-.2,1.6c-1-.1-2-.1-3.1-.1a2.41,2.41,0,0,0-1.5.4,2.14,2.14,0,0,0-.8,1.2,15.73,15.73,0,0,0,0,5,1.55,1.55,0,0,0,.8,1.2,3,3,0,0,0,1.5.4h1.9c.5,0,1-.1,1.4-.1l.2,1.6a4,4,0,0,1-1.5.3,11.52,11.52,0,0,1-2,.1,4.91,4.91,0,0,1-2.7-.6,3.24,3.24,0,0,1-1.5-1.9,15.51,15.51,0,0,1,0-7,3.24,3.24,0,0,1,1.5-1.9,5.4,5.4,0,0,1,2.7-.6A12.13,12.13,0,0,0,86.1,348.92Z"/><path class="cls-10" d="M95.7,357.22H91.5l-.9,3.2H88.5l3.4-10.9c0-.2.1-.3.3-.4a.75.75,0,0,1,.5-.1h2a.9.9,0,0,1,.5.1,1.38,1.38,0,0,1,.3.4l3.4,10.9H96.8Zm-.5-1.7-1.1-3.9a4.33,4.33,0,0,1-.1-.5,1.09,1.09,0,0,1-.1-.5h-.4l-.3,1-1.1,3.9Z"/><path class="cls-10" d="M109.1,360.52h-2V353a6.6,6.6,0,0,1,.1-1.4h-.1a6.45,6.45,0,0,1-.6,1.4l-4.3,7.5h-2.1v-11.4h2v7.4a7.08,7.08,0,0,1-.1,1.5h.1a14.67,14.67,0,0,1,.6-1.4l4.3-7.5h2.1Zm-1.8-14.7v.2a2,2,0,0,1-.7,1.6,3.31,3.31,0,0,1-3.8,0,1.86,1.86,0,0,1-.7-1.6v-.2h1.4c0,.9.4,1.4,1.2,1.4a1.22,1.22,0,0,0,.9-.3,1.49,1.49,0,0,0,.3-1h1.4Z"/><path class="cls-10" d="M119.8,350.82h-3.5v9.6h-2.1v-9.6h-3.5V349h9.1Z"/><path class="cls-10" d="M127.5,357.22h-4.2l-.9,3.2h-2.1l3.4-10.9c0-.2.1-.3.3-.4a.75.75,0,0,1,.5-.1h2a.9.9,0,0,1,.5.1,1.38,1.38,0,0,1,.3.4l3.4,10.9h-2.1Zm-.5-1.7-1.1-3.9a4.33,4.33,0,0,1-.1-.5,1.09,1.09,0,0,1-.1-.5h-.4l-.3,1-1.1,3.9Z"/><path class="cls-10" d="M103.4,144.82H98.7l-.1,2.5,1.5.2a4.63,4.63,0,0,1,3,1.1,3.42,3.42,0,0,1,.9,2.6,4.55,4.55,0,0,1-.8,2.7,3.75,3.75,0,0,1-3,1,17.33,17.33,0,0,1-3.7-.4l.2-1.7a15.87,15.87,0,0,0,2.9.3,6.05,6.05,0,0,0,1.5-.2,1.41,1.41,0,0,0,.7-.6,3.73,3.73,0,0,0,.2-1.2,2.13,2.13,0,0,0-.3-1.2,1.93,1.93,0,0,0-.9-.5,17.78,17.78,0,0,0-2-.3l-1.1-.1a.55.55,0,0,1-.5-.3,1.42,1.42,0,0,1-.2-.6l.3-5h6.5Z"/><path class="cls-10" d="M115.7,143l1.5.3-.2,1.6c-1-.1-2-.1-3.1-.1a2.08,2.08,0,0,0-2.3,1.7,15.73,15.73,0,0,0,0,5,2.08,2.08,0,0,0,2.3,1.7h1.9c.5,0,1-.1,1.5-.1l.2,1.6a4.15,4.15,0,0,1-1.6.3,11.52,11.52,0,0,1-2,.1,5.55,5.55,0,0,1-2.8-.6,3.24,3.24,0,0,1-1.5-1.9,10.84,10.84,0,0,1-.5-3.5,10.4,10.4,0,0,1,.5-3.5,3.24,3.24,0,0,1,1.5-1.9,5.55,5.55,0,0,1,2.8-.6A3.78,3.78,0,0,1,115.7,143Z"/><path class="cls-10" d="M126.2,143.42a3.35,3.35,0,0,1,1.5,1.8,13.21,13.21,0,0,1,0,7.2,2.77,2.77,0,0,1-1.5,1.8,6.83,6.83,0,0,1-5.6,0,3.35,3.35,0,0,1-1.5-1.8,13.21,13.21,0,0,1,0-7.2,2.77,2.77,0,0,1,1.5-1.8,5.55,5.55,0,0,1,2.8-.6A6.48,6.48,0,0,1,126.2,143.42Zm-4.3,1.6a2.42,2.42,0,0,0-.8,1.3,8.63,8.63,0,0,0-.2,2.5,14.73,14.73,0,0,0,.2,2.5,2.08,2.08,0,0,0,2.3,1.7,2.08,2.08,0,0,0,1.5-.4,2.42,2.42,0,0,0,.8-1.3,8.63,8.63,0,0,0,.2-2.5,14.73,14.73,0,0,0-.2-2.5,2.08,2.08,0,0,0-2.3-1.7A5.41,5.41,0,0,0,121.9,145Z"/><path class="cls-10" d="M140.3,153v4.1h-1.5l-.2-2.5h-8.3v-11.5h2.1V153h4.4v-9.9h2.1V153Z"/><path class="cls-10" d="M143.7,152.52a.85.85,0,0,1,.2.6v.9a.71.71,0,0,1-.8.8h-.6a.71.71,0,0,1-.8-.8v-.9a.71.71,0,0,1,.8-.8h.6A.85.85,0,0,1,143.7,152.52Z"/><path class="cls-10" d="M155.9,143l1.5.3-.2,1.6c-1-.1-2-.1-3.1-.1a2.08,2.08,0,0,0-2.3,1.7,15.72,15.72,0,0,0,0,5,2.08,2.08,0,0,0,2.3,1.7H156c.5,0,1-.1,1.5-.1l.2,1.6a4.15,4.15,0,0,1-1.6.3,11.52,11.52,0,0,1-2,.1,5.55,5.55,0,0,1-2.8-.6,3.24,3.24,0,0,1-1.5-1.9,10.84,10.84,0,0,1-.5-3.5,10.4,10.4,0,0,1,.5-3.5,3.24,3.24,0,0,1,1.5-1.9,5.55,5.55,0,0,1,2.8-.6A3.78,3.78,0,0,1,155.9,143Z"/><path class="cls-10" d="M166.8,152.92l.1,1.6a15.48,15.48,0,0,1-2.2.1h-2.9a2.44,2.44,0,0,1-1.8-.6,2.18,2.18,0,0,1-.7-1.6v-7.2a1.86,1.86,0,0,1,.7-1.6,2.44,2.44,0,0,1,1.8-.6h2.9c.8,0,1.5.1,2.2.1l-.1,1.6h-4.5a.85.85,0,0,0-.6.2,1.29,1.29,0,0,0-.2.8v2h4.7v1.6h-4.7v2.6a1.55,1.55,0,0,0,.2.8.85.85,0,0,0,.6.2Z"/><path class="cls-10" d="M177.1,144.92h-3.6v9.7h-2.1v-9.7H168v-1.8h9.2v1.8Z"/><path class="cls-10" d="M186.1,152.92l.1,1.6a15.48,15.48,0,0,1-2.2.1h-2.9a2.44,2.44,0,0,1-1.8-.6,2.18,2.18,0,0,1-.7-1.6v-7.2a1.86,1.86,0,0,1,.7-1.6,2.44,2.44,0,0,1,1.8-.6H184c.8,0,1.5.1,2.2.1l-.1,1.6h-4.5a.85.85,0,0,0-.6.2,1.29,1.29,0,0,0-.2.8v2h4.7v1.6h-4.7v2.6a1.55,1.55,0,0,0,.2.8.85.85,0,0,0,.6.2Z"/><path class="cls-10" d="M197.4,154.62h-2v-7.5a8.08,8.08,0,0,1,.1-1.5h-.1a6.45,6.45,0,0,1-.6,1.4l-4.4,7.6h-2.1v-11.5h2v7.4a6.62,6.62,0,0,1-.1,1.5h.1a14.67,14.67,0,0,1,.6-1.4l4.3-7.6h2.1l.1,11.6Zm-1.9-14.8v.2a2,2,0,0,1-.7,1.6,2.88,2.88,0,0,1-1.9.6,2.71,2.71,0,0,1-1.9-.6,2.36,2.36,0,0,1-.7-1.6v-.2h1.4c0,.9.4,1.4,1.2,1.4a1,1,0,0,0,.9-.4,1.61,1.61,0,0,0,.3-1.1l1.4.1Z"/><path class="cls-22" d="M267.71,283.54a24.73,24.73,0,0,1,3.34.65l-.46,4.08c-1.93-.12-4.25-.18-6.94-.18a4.87,4.87,0,0,0-2.83.71,4,4,0,0,0-1.41,2.44,29.49,29.49,0,0,0,0,9.8,4,4,0,0,0,1.41,2.43,4.79,4.79,0,0,0,2.83.72c1.81,0,3.25,0,4.31-.06a27,27,0,0,0,3.13-.27l.46,4.05a22,22,0,0,1-3.52.77,35.51,35.51,0,0,1-4.38.23,12.82,12.82,0,0,1-6.12-1.23,7.15,7.15,0,0,1-3.26-4,28.85,28.85,0,0,1,0-15.06,7.11,7.11,0,0,1,3.26-4,12.81,12.81,0,0,1,6.12-1.24A36.79,36.79,0,0,1,267.71,283.54Z"/><path class="cls-22" d="M298.1,304.54v9.34h-3.86l-.4-5.4H277.46l-.43,5.4h-3.87v-9.34h2.62a38.7,38.7,0,0,0,2.12-7.28A75.94,75.94,0,0,0,279,289a5.41,5.41,0,0,1,1.71-3.74,5.73,5.73,0,0,1,4.05-1.42h10.12v20.75Zm-8.66,0V287.73h-3.18a2.14,2.14,0,0,0-1.56.48,2.46,2.46,0,0,0-.55,1.63,69.34,69.34,0,0,1-1.15,8.53,26.38,26.38,0,0,1-2.11,6.17Z"/><path class="cls-22" d="M314.81,302h-8.48l-1.79,6.48H299l7.12-23.26a1.65,1.65,0,0,1,.68-1,2,2,0,0,1,1.21-.4h5.16a2,2,0,0,1,1.23.38,1.63,1.63,0,0,1,.66,1.05l7.12,23.26H316.6Zm-1.18-4.22-2.08-7.55c-.28-1.19-.45-2-.5-2.32h-1l-.54,2.32-2.08,7.55Z"/><path class="cls-22" d="M341,288.23h-7.37v20.25h-5.48V288.23h-7.37v-4.44H341Z"/><path class="cls-22" d="M358.67,293.69a4.81,4.81,0,0,1,2.77,2.45,10.93,10.93,0,0,1,.85,4.79,11,11,0,0,1-.83,4.74,4.75,4.75,0,0,1-2.55,2.4,12.94,12.94,0,0,1-4.67.7c-2.44,0-4.34,0-5.71-.06s-2.76-.11-4.17-.23h-.14V283.79h5.44V293h3.65A15.55,15.55,0,0,1,358.67,293.69Zm-3.13,10.55a1.72,1.72,0,0,0,1-1.09,7.92,7.92,0,0,0,.27-2.4,8.15,8.15,0,0,0-.27-2.4,2,2,0,0,0-1-1.19,5.08,5.08,0,0,0-2.23-.38h-3.65v7.76h3.65A6.23,6.23,0,0,0,355.54,304.24Z"/><path class="cls-22" d="M214.52,326.78v17.94h-4v-8h-6.32v8h-3.95V326.78h3.95v6.86h6.32v-6.86Z"/><path class="cls-22" d="M230.17,341.62l.16,2.91c-1.08.13-2.26.2-3.54.23s-2.88,0-4.78,0a4.06,4.06,0,0,1-2.86-1,3.37,3.37,0,0,1-1.07-2.64V330.31a3.38,3.38,0,0,1,1.08-2.64,4.09,4.09,0,0,1,2.85-1c1.9,0,3.5,0,4.78,0s2.46.1,3.54.22l-.16,2.94h-6.92a1.2,1.2,0,0,0-.93.31,1.47,1.47,0,0,0-.29,1V334h7.15v2.86H222v3.46a1.52,1.52,0,0,0,.29,1,1.2,1.2,0,0,0,.93.31Z"/><path class="cls-22" d="M250,341.86v6.78h-2.81l-.29-3.92H235l-.31,3.92h-2.81v-6.78h1.9a28.83,28.83,0,0,0,1.55-5.29,56.06,56.06,0,0,0,.79-6.05,4,4,0,0,1,1.25-2.72,4.21,4.21,0,0,1,2.94-1h7.36v15.08Zm-6.29,0V329.64h-2.32a1.52,1.52,0,0,0-1.13.35,1.79,1.79,0,0,0-.4,1.18,52.3,52.3,0,0,1-.83,6.2,19.16,19.16,0,0,1-1.54,4.49Z"/><path class="cls-22" d="M265.21,336.83a5.82,5.82,0,0,1,.84,3.41,5.46,5.46,0,0,1-.62,2.85,3.4,3.4,0,0,1-1.93,1.42,11.78,11.78,0,0,1-3.51.41c-1.85,0-3.31,0-4.36,0s-2.14-.09-3.23-.17V326.78c1-.09,1.93-.15,2.89-.17s2.24,0,3.87,0a13.77,13.77,0,0,1,3.77.4,3.21,3.21,0,0,1,1.95,1.42,5.64,5.64,0,0,1,.6,2.86,5,5,0,0,1-.73,2.95,3.14,3.14,0,0,1-2.39,1.16v.1A3.72,3.72,0,0,1,265.21,336.83Zm-3.77-6.43a1.34,1.34,0,0,0-.82-.66,5.89,5.89,0,0,0-1.67-.18h-2.67v4.55h2.91a3,3,0,0,0,2-.47,2.42,2.42,0,0,0,.53-1.85A3.21,3.21,0,0,0,261.44,330.4ZM261,341.74a1.33,1.33,0,0,0,.83-.72,3.56,3.56,0,0,0,.25-1.53,4.33,4.33,0,0,0-.26-1.69A1.51,1.51,0,0,0,261,337a5.74,5.74,0,0,0-1.76-.26h-2.93v5.2h3A5.85,5.85,0,0,0,261,341.74Z"/><path class="cls-22" d="M283.78,344.72H280V334a13,13,0,0,1,.23-2.41H280a15.51,15.51,0,0,1-1,2.36L273,344.72H269V326.78h3.77v10.53a16.7,16.7,0,0,1-.21,2.49h.16a17.81,17.81,0,0,1,1-2.34l6.06-10.68h3.92Z"/><path class="cls-22" d="M306.05,336.44a6,6,0,0,1,1.54,2.34c.41,1,1,2.72,1.7,5.13a6.52,6.52,0,0,1,.26.81h-4.16c-.05-.19-.12-.39-.19-.6a5.1,5.1,0,0,1-.2-.63c-.66-2-1.15-3.45-1.48-4.27a5.08,5.08,0,0,0-1.11-1.82,2.27,2.27,0,0,0-1.65-.59h-1.19a8.12,8.12,0,0,1,.2,1.72v6.19H296v-6.19a8.19,8.19,0,0,1,.21-1.72h-1.28a2.22,2.22,0,0,0-1.61.59,5.35,5.35,0,0,0-1.09,1.79c-.33.81-.82,2.22-1.48,4.23l-.42,1.3h-4.16l.31-1q1.07-3.51,1.68-5a6.15,6.15,0,0,1,1.52-2.3,4.76,4.76,0,0,1,2.57-1v-.11a4.36,4.36,0,0,1-2.35-.94,5.55,5.55,0,0,1-1.38-2c-.35-.85-.82-2.23-1.41-4.13l-.45-1.43h4c0,.1.13.38.26.83.58,1.78,1,3.08,1.33,3.87a5.61,5.61,0,0,0,1.09,1.85,2.1,2.1,0,0,0,1.56.65h1.28a11.63,11.63,0,0,1-.21-2.13v-5.07h3.79v5.07a11.91,11.91,0,0,1-.18,2.13h1.15a2.09,2.09,0,0,0,1.58-.64,5.24,5.24,0,0,0,1.09-1.83c.32-.8.76-2.08,1.33-3.85l.29-.88h4l-.42,1.32c-.59,1.94-1.07,3.35-1.43,4.21a5.53,5.53,0,0,1-1.39,2.05,4.36,4.36,0,0,1-2.35.94v.11A4.62,4.62,0,0,1,306.05,336.44Z"/><path class="cls-22" d="M326.66,344.72h-3.8V334a12.16,12.16,0,0,1,.24-2.41h-.18a14.63,14.63,0,0,1-1,2.36l-6.06,10.77h-3.92V326.78h3.77v10.53a16.7,16.7,0,0,1-.21,2.49h.15a18,18,0,0,1,1.05-2.34l6.05-10.68h3.93Z"/><path class="cls-22" d="M350.11,328.26l.68,16.46H347l-.57-14.85H346L343.3,341a1.46,1.46,0,0,1-1.59,1.28h-2.6a1.52,1.52,0,0,1-1.63-1.28l-2.73-11.1h-.45l-.52,14.85h-3.71l.65-16.46a1.33,1.33,0,0,1,1.48-1.48H336a1.48,1.48,0,0,1,1.56,1.27l2.18,8.94c.09.37.16.69.2,1s.08.5.12.67l.15.89h.34l.16-.89c0-.17.07-.4.11-.67s.11-.6.2-1l2.16-8.94a1.48,1.48,0,0,1,1.61-1.27h3.82C349.57,326.78,350.06,327.27,350.11,328.26Z"/><path class="cls-22" d="M365.75,327.27a4.9,4.9,0,0,1,2.39,2.85,21.79,21.79,0,0,1,0,11.26,4.88,4.88,0,0,1-2.39,2.84,12.91,12.91,0,0,1-9.11,0,4.91,4.91,0,0,1-2.38-2.83,21.9,21.9,0,0,1,0-11.29,5,5,0,0,1,2.38-2.83,12.91,12.91,0,0,1,9.11,0Zm-6.69,2.91A3.05,3.05,0,0,0,358,332a22.42,22.42,0,0,0,0,7.43,3,3,0,0,0,1.07,1.85,4.4,4.4,0,0,0,4.26,0,3.07,3.07,0,0,0,1.07-1.85,22.42,22.42,0,0,0,0-7.43,3.1,3.1,0,0,0-1.07-1.85,4.47,4.47,0,0,0-4.26,0Z"/><path class="cls-22" d="M381.85,326.59a19.46,19.46,0,0,1,2.43.47l-.34,3c-1.41-.09-3.09-.13-5.05-.13a3.47,3.47,0,0,0-2.05.52,2.9,2.9,0,0,0-1,1.76,21.33,21.33,0,0,0,0,7.13,3,3,0,0,0,1,1.77,3.55,3.55,0,0,0,2.05.52c1.32,0,2.37,0,3.14,0a21,21,0,0,0,2.27-.2l.34,2.94a15.42,15.42,0,0,1-2.56.56,25.63,25.63,0,0,1-3.19.17,9.24,9.24,0,0,1-4.44-.9,5.2,5.2,0,0,1-2.37-2.91,20.9,20.9,0,0,1,0-11,5.2,5.2,0,0,1,2.37-2.91,9.24,9.24,0,0,1,4.44-.9A28.86,28.86,0,0,1,381.85,326.59Z"/><path class="cls-22" d="M400.53,330h-5.36v14.72h-4V330h-5.35v-3.22h14.69Z"/><path class="cls-22" d="M413.37,334a3.5,3.5,0,0,1,2,1.78,10.23,10.23,0,0,1,0,6.93,3.44,3.44,0,0,1-1.86,1.74,9.26,9.26,0,0,1-3.39.5c-1.77,0-3.15,0-4.15,0s-2-.09-3-.17h-.1V326.78h3.95v6.65h2.65A11.18,11.18,0,0,1,413.37,334Zm-2.27,7.67a1.32,1.32,0,0,0,.73-.8,6.14,6.14,0,0,0,.19-1.74,6.34,6.34,0,0,0-.19-1.74,1.48,1.48,0,0,0-.73-.87,3.76,3.76,0,0,0-1.63-.28h-2.65v5.65h2.65A4.71,4.71,0,0,0,411.1,341.64Z"/><path class="cls-22" d="M237.22,359.53a17.8,17.8,0,0,1,2.43.47l-.34,3c-1.4-.09-3.09-.13-5-.13a3.49,3.49,0,0,0-2.06.52,3,3,0,0,0-1,1.77,22,22,0,0,0,0,7.12,2.92,2.92,0,0,0,1,1.77,3.49,3.49,0,0,0,2.06.52c1.31,0,2.36,0,3.13,0a21.05,21.05,0,0,0,2.27-.19l.34,2.94a15.39,15.39,0,0,1-2.56.55,23.77,23.77,0,0,1-3.18.17,9.39,9.39,0,0,1-4.45-.89,5.19,5.19,0,0,1-2.37-2.92,21.14,21.14,0,0,1,0-10.94,5.14,5.14,0,0,1,2.37-2.91,9.26,9.26,0,0,1,4.45-.9A26.17,26.17,0,0,1,237.22,359.53Z"/><path class="cls-22" d="M253.36,360a3.39,3.39,0,0,1,2,1.77,8.4,8.4,0,0,1,.6,3.56,9.05,9.05,0,0,1-.57,3.59,3.32,3.32,0,0,1-1.86,1.78,10.29,10.29,0,0,1-3.58.5,29.07,29.07,0,0,1-3.38-.2v6.65h-4V359.71c1-.1,2-.17,2.9-.19s2.22,0,3.93,0A11.59,11.59,0,0,1,253.36,360ZM251,367.9a1.41,1.41,0,0,0,.79-.83,5.17,5.17,0,0,0,.23-1.74,5.09,5.09,0,0,0-.23-1.74,1.46,1.46,0,0,0-.79-.84,4.59,4.59,0,0,0-1.63-.23h-2.76v5.64h2.76A4.72,4.72,0,0,0,251,367.9Z"/><path class="cls-22" d="M268.3,373h-6.16l-1.3,4.7h-4.06l5.18-16.9a1.23,1.23,0,0,1,.49-.75,1.47,1.47,0,0,1,.88-.29h3.75a1.52,1.52,0,0,1,.9.27,1.25,1.25,0,0,1,.48.77l5.17,16.9h-4Zm-.86-3.07-1.51-5.49c-.2-.87-.32-1.43-.36-1.69h-.7l-.39,1.69L263,369.88Z"/><path class="cls-22" d="M284.16,359.91a3.11,3.11,0,0,1,1.91,1.41,5.78,5.78,0,0,1,.59,2.86,5,5,0,0,1-.73,2.95,3.09,3.09,0,0,1-2.34,1.16v.1a3.61,3.61,0,0,1,2.78,1.37,5.88,5.88,0,0,1,.83,3.42,5.49,5.49,0,0,1-.61,2.85,3.3,3.3,0,0,1-1.88,1.41,11.36,11.36,0,0,1-3.44.42,34.45,34.45,0,0,1-3.8-.18,18.42,18.42,0,0,1-3.06-.6l.29-2.73a37.24,37.24,0,0,0,5.82.49,5,5,0,0,0,1.59-.2,1.38,1.38,0,0,0,.78-.72,3.84,3.84,0,0,0,.23-1.49,4.14,4.14,0,0,0-.25-1.64,1.41,1.41,0,0,0-.82-.8,4.87,4.87,0,0,0-1.63-.22l-3.46,0V367l3.43-.05a2.75,2.75,0,0,0,1.85-.46,2.35,2.35,0,0,0,.49-1.75,2.29,2.29,0,0,0-.53-1.77,3.29,3.29,0,0,0-2-.44,47.6,47.6,0,0,0-5.12.34l-.32-2.86a22.45,22.45,0,0,1,2.59-.38c.88-.08,1.91-.12,3.11-.12A13.12,13.12,0,0,1,284.16,359.91Z"/><path class="cls-22" d="M303.61,359.71,299.22,373a14.7,14.7,0,0,1-1.17,2.75,4.44,4.44,0,0,1-1.58,1.61,4.68,4.68,0,0,1-2.4.56,17.32,17.32,0,0,1-1.9-.13c-.71-.09-1.31-.18-1.79-.29l.44-2.81a7.93,7.93,0,0,1,.88.06l1,0a4.54,4.54,0,0,0,1.25-.13,1.56,1.56,0,0,0,.73-.48,3.61,3.61,0,0,0,.54-1.05l.18-.57h-.93a2.28,2.28,0,0,1-1.5-.45,2.78,2.78,0,0,1-.82-1.35l-3.69-11.05h4.06l2.83,9.49a.52.52,0,0,0,.17.22.49.49,0,0,0,.3.09h.65l3.09-9.8Z"/><path class="cls-22" d="M324,369.76a5.87,5.87,0,0,1,.84,3.42,5.48,5.48,0,0,1-.62,2.85,3.38,3.38,0,0,1-1.93,1.41,11.73,11.73,0,0,1-3.51.42c-1.85,0-3.31,0-4.37,0s-2.13-.08-3.22-.17V359.71c1-.09,1.93-.14,2.89-.17s2.24,0,3.87,0a13.71,13.71,0,0,1,3.77.41,3.2,3.2,0,0,1,1.95,1.41,5.66,5.66,0,0,1,.6,2.86,4.94,4.94,0,0,1-.73,2.95,3.13,3.13,0,0,1-2.39,1.16v.1A3.75,3.75,0,0,1,324,369.76Zm-3.77-6.42a1.39,1.39,0,0,0-.82-.67,5.89,5.89,0,0,0-1.67-.18H315V367h2.92a3,3,0,0,0,2-.47,2.43,2.43,0,0,0,.53-1.84A3.18,3.18,0,0,0,320.19,363.34Zm-.42,11.33a1.31,1.31,0,0,0,.83-.71,3.62,3.62,0,0,0,.25-1.53,4.29,4.29,0,0,0-.26-1.69,1.54,1.54,0,0,0-.87-.81,5.45,5.45,0,0,0-1.76-.26H315v5.2h3A5.79,5.79,0,0,0,319.77,374.67Z"/><path class="cls-22" d="M339.7,374.56l.15,2.91c-1.07.12-2.25.19-3.53.22s-2.88,0-4.79,0a4.09,4.09,0,0,1-2.86-1,3.39,3.39,0,0,1-1.06-2.63V363.25a3.38,3.38,0,0,1,1.08-2.64,4.08,4.08,0,0,1,2.84-1c1.91,0,3.51,0,4.79,0s2.46.1,3.53.22l-.15,2.94h-6.92a1.2,1.2,0,0,0-.93.31,1.5,1.5,0,0,0-.29,1v2.73h7.15v2.86h-7.15v3.46a1.54,1.54,0,0,0,.29,1,1.24,1.24,0,0,0,.93.31Z"/><path class="cls-22" d="M351.42,359.91a3.13,3.13,0,0,1,1.92,1.41,5.79,5.79,0,0,1,.58,2.86,4.94,4.94,0,0,1-.73,2.95,3.05,3.05,0,0,1-2.34,1.16v.1a3.61,3.61,0,0,1,2.78,1.37,5.87,5.87,0,0,1,.84,3.42,5.59,5.59,0,0,1-.61,2.85,3.32,3.32,0,0,1-1.89,1.41,11.29,11.29,0,0,1-3.43.42,34.77,34.77,0,0,1-3.81-.18,18.62,18.62,0,0,1-3.06-.6l.29-2.73a37.24,37.24,0,0,0,5.82.49,4.91,4.91,0,0,0,1.59-.2,1.38,1.38,0,0,0,.78-.72,3.66,3.66,0,0,0,.23-1.49,4.36,4.36,0,0,0-.24-1.64,1.46,1.46,0,0,0-.82-.8,4.94,4.94,0,0,0-1.64-.22l-3.46,0V367l3.43-.05a2.74,2.74,0,0,0,1.85-.46,2.35,2.35,0,0,0,.49-1.75,2.25,2.25,0,0,0-.53-1.77,3.27,3.27,0,0,0-2-.44,47.6,47.6,0,0,0-5.12.34L342,360a22.13,22.13,0,0,1,2.59-.38c.87-.08,1.91-.12,3.1-.12A13.12,13.12,0,0,1,351.42,359.91Z"/><path class="cls-22" d="M374.18,374.79v6.79h-2.81l-.29-3.93H359.17l-.31,3.93h-2.81v-6.79H358a28.6,28.6,0,0,0,1.55-5.29,55.73,55.73,0,0,0,.79-6.05,3.93,3.93,0,0,1,1.25-2.71,4.14,4.14,0,0,1,2.94-1h7.36v15.08Zm-6.3,0V362.57h-2.31a1.56,1.56,0,0,0-1.13.35,1.77,1.77,0,0,0-.4,1.19,50,50,0,0,1-.84,6.2,19.07,19.07,0,0,1-1.53,4.48Z"/><path class="cls-22" d="M388.55,374.56l.16,2.91c-1.07.12-2.25.19-3.54.22s-2.87,0-4.78,0a4.07,4.07,0,0,1-2.86-1,3.4,3.4,0,0,1-1.07-2.63V363.25a3.38,3.38,0,0,1,1.08-2.64,4.09,4.09,0,0,1,2.85-1c1.91,0,3.5,0,4.78,0s2.47.1,3.54.22l-.16,2.94h-6.91a1.21,1.21,0,0,0-.94.31,1.5,1.5,0,0,0-.28,1v2.73h7.15v2.86h-7.15v3.46a1.54,1.54,0,0,0,.28,1,1.25,1.25,0,0,0,.94.31Z"/></g></svg>