<svg width="48" height="48" viewBox="0 0 48 48" fill="none" xmlns="http://www.w3.org/2000/svg">
<circle cx="24" cy="24" r="24" fill="#EEF6FC"/>
<g clip-path="url(#clip0_38_276)">
<path fill-rule="evenodd" clip-rule="evenodd" d="M26 36V31C26 30.2442 25.5033 30 24.7143 30H23.2857C22.4967 30 22 30.2442 22 31V36H14V12.7368C14 11.2253 15.2792 10 16.8571 10H31.1429C32.7208 10 34 11.2253 34 12.7368V36H26Z" fill="#005FF9"/>
<path d="M21.6667 18H20.3333C19.597 18 19 18.597 19 19.3333V20.6667C19 21.403 19.597 22 20.3333 22H21.6667C22.403 22 23 21.403 23 20.6667V19.3333C23 18.597 22.403 18 21.6667 18Z" fill="white"/>
<path d="M27.6667 18H26.3333C25.597 18 25 18.597 25 19.3333V20.6667C25 21.403 25.597 22 26.3333 22H27.6667C28.403 22 29 21.403 29 20.6667V19.3333C29 18.597 28.403 18 27.6667 18Z" fill="white"/>
<path d="M21.6667 23H20.3333C19.597 23 19 23.597 19 24.3333V25.6667C19 26.403 19.597 27 20.3333 27H21.6667C22.403 27 23 26.403 23 25.6667V24.3333C23 23.597 22.403 23 21.6667 23Z" fill="white"/>
<path d="M27.6667 23H26.3333C25.597 23 25 23.597 25 24.3333V25.6667C25 26.403 25.597 27 26.3333 27H27.6667C28.403 27 29 26.403 29 25.6667V24.3333C29 23.597 28.403 23 27.6667 23Z" fill="white"/>
<path d="M21.6667 13H20.3333C19.597 13 19 13.597 19 14.3333V15.6667C19 16.403 19.597 17 20.3333 17H21.6667C22.403 17 23 16.403 23 15.6667V14.3333C23 13.597 22.403 13 21.6667 13Z" fill="white"/>
<path d="M27.6667 13H26.3333C25.597 13 25 13.597 25 14.3333V15.6667C25 16.403 25.597 17 26.3333 17H27.6667C28.403 17 29 16.403 29 15.6667V14.3333C29 13.597 28.403 13 27.6667 13Z" fill="white"/>
<path opacity="0.3" fill-rule="evenodd" clip-rule="evenodd" d="M13.3333 36H34.6667C35.403 36 36 36.6716 36 37.5V38.1C36 38.5971 35.6418 39 35.2 39H12.8C12.3582 39 12 38.5971 12 38.1V37.5C12 36.6716 12.597 36 13.3333 36Z" fill="#005FF9"/>
</g>
<defs>
<clipPath id="clip0_38_276">
<rect width="32" height="32" fill="white" transform="translate(8 8)"/>
</clipPath>
</defs>
</svg>
