<svg id="Layer_1" data-name="Layer 1" xmlns="http://www.w3.org/2000/svg" xmlns:xlink="http://www.w3.org/1999/xlink" viewBox="0 0 256 256"><defs><style>.cls-1,.cls-5{fill:#fff;}.cls-1,.cls-19,.cls-2,.cls-20,.cls-21,.cls-23,.cls-3,.cls-37,.cls-38,.cls-6,.cls-7,.cls-8{fill-rule:evenodd;}.cls-2,.cls-4{fill:#152e45;}.cls-3{fill:#d4efff;}.cls-6{fill:#d53537;}.cls-7{fill:#3b5998;}.cls-8{fill:#45668e;}.cls-9{fill:red;}.cls-10{fill:#282828;}.cls-11{fill:#f1a13a;}.cls-12{fill:#2a5ff0;}.cls-13{fill:#5484ec;}.cls-14{fill:#58a55c;}.cls-15{fill:#606367;}.cls-16{fill:#d85140;}.cls-17{fill:#f1be42;}.cls-18{fill:#f2a746;}.cls-19{fill:#ed812b;}.cls-20{fill:url(#linear-gradient);}.cls-21{fill:#3664a8;}.cls-22{fill:#f9f9f9;}.cls-23{fill:#315efb;}.cls-24{fill:#5f01d1;}.cls-25{fill:#008373;}.cls-26{fill:#0af;}.cls-27{fill:#97cf26;}.cls-28{fill:#ff6163;}.cls-29{fill:#a169f7;}.cls-30{fill:#4a88c0;}.cls-31{fill:#223c4e;}.cls-32{fill:url(#radial-gradient);}.cls-33{opacity:0.8;isolation:isolate;fill:url(#radial-gradient-2);}.cls-34{fill:#28ac76;}.cls-35{fill:#1f5c72;}.cls-36{fill:#7ebe7c;}.cls-37{fill:#ec1c24;}.cls-38{fill:#00adee;}.cls-39{fill:#ff8b2c;}</style><linearGradient id="linear-gradient" x1="22.88" y1="134.79" x2="33.74" y2="123.94" gradientUnits="userSpaceOnUse"><stop offset="0" stop-color="#fd5"/><stop offset="0.5" stop-color="#ff543e"/><stop offset="1" stop-color="#c837ab"/></linearGradient><radialGradient id="radial-gradient" cx="76.82" cy="-6735.52" r="15.78" gradientTransform="matrix(1, 0, 0, -1, 0, -6693)" gradientUnits="userSpaceOnUse"><stop offset="0.23" stop-color="#00fffe"/><stop offset="0.3" stop-color="#11f3fe"/><stop offset="0.46" stop-color="#3ed3fe"/><stop offset="0.67" stop-color="#86a0ff"/><stop offset="0.94" stop-color="#e95aff"/><stop offset="0.95" stop-color="#f055ff"/></radialGradient><radialGradient id="radial-gradient-2" cx="74.93" cy="737.41" r="8.92" gradientTransform="translate(0 -686.57)" gradientUnits="userSpaceOnUse"><stop offset="0" stop-color="#053bf2"/><stop offset="0.09" stop-color="#0f3cf3" stop-opacity="0.91"/><stop offset="0.25" stop-color="#2b3ff4" stop-opacity="0.75"/><stop offset="0.45" stop-color="#5844f7" stop-opacity="0.55"/><stop offset="0.69" stop-color="#964bfa" stop-opacity="0.31"/><stop offset="0.96" stop-color="#e454fe" stop-opacity="0.04"/><stop offset="1" stop-color="#f055ff" stop-opacity="0"/></radialGradient></defs><g id="_3" data-name="3"><path class="cls-1" d="M181.78,156.82c8-28.39-11.36-52.65-18.94-60.48-21.05-22-57-28.61-73.45-11.74-23,23.38-10.4,95,26.86,107.9C139.5,200.44,173.41,186.3,181.78,156.82Z"/><path class="cls-2" d="M102.78,90.65a48.24,48.24,0,0,0-17,13.6c-15.7,20.9-12.3,56.8,9.6,75.3,11.1,9.4,25.1,12.7,37.1,12.2s28-4.9,39.3-18.2c8.4-9.9,12.7-23.5,11.9-39.6-.7-15.3-5.2-25.5-11.1-32.5C155.78,81.45,123.78,80.15,102.78,90.65Z"/><path class="cls-1" d="M31.18,243.45c14.8,10.5,33.1,2.6,39.2-.8,17.3-9.4,28.8-31.4,22.5-45.2-8.8-19.2-53.1-24.7-68.6-3C14.68,208.05,15.78,232.55,31.18,243.45Z"/><path class="cls-3" d="M10.41,221.9c4.18,21,55.66,36.6,76.46,16.5,7.78-7.44,11.85-20.57,8.25-32.31-5.23-17.54-25.22-25.21-39.86-25C29.58,181.46,7.16,206.09,10.41,221.9Z"/><path class="cls-1" d="M38.4,76.21c24,5.3,44.39-7.6,51-12.5,18.41-14,24-37.9,9.84-48.8C79.42-.39,19.16,8,8.34,32.81,1.6,48.11,13.54,70.61,38.4,76.21Z"/><path class="cls-3" d="M114.29,45.92C116.8,28.38,94.1,17,85.5,13.51c-24-9.84-59.16-8.88-71.68,3.1C-3.71,33.3,21,73,58.73,75.44,82.05,76.94,111.63,64.21,114.29,45.92Z"/><path class="cls-1" d="M4.81,133.76c4.44,14.8,18.93,23.2,32.06,23.6C55.32,158,73.18,142.76,74,125c.87-21.4-23.08-40.8-44.42-35.1C12.15,94.56-.69,115.26,4.81,133.76Z"/><path class="cls-3" d="M5.37,99.17c-9.54,14.79,7.72,58.42,33,58.2,19.6-.1,37.88-26.65,33.51-43.62C65.91,90.14,15.84,82.85,5.37,99.17Z"/><path class="cls-1" d="M216.48,245.85c16.9-7,19.2-25.1,19.3-31.5.4-18.1-13.1-37.3-28.5-38.6-21.5-1.9-48.8,30.8-37.6,53.1C176.68,242.65,199,253.05,216.48,245.85Z"/><path class="cls-3" d="M161.38,221.43c3.15,16.22,48.42,37.57,69,14.47,13.19-14.93,12.37-43.75.7-53.09C211.78,167.3,157.53,201.72,161.38,221.43Z"/><path class="cls-1" d="M253.93,116.55c-2.76-16.6-19.65-23.4-25.75-25.2-17.19-5.1-38.8,1.7-43.72,14.8-6.87,18.3,18.18,50.9,42.15,46.9C241.45,150.65,256.68,133.85,253.93,116.55Z"/><path class="cls-3" d="M196,146.22c13.21,8.77,29.5,2.17,35-.59,15.34-7.88,25.59-26,20-37.53-7.83-16-47.38-20.49-61.13-2.56C181.25,116.67,182.21,137.06,196,146.22Z"/><path class="cls-1" d="M156.85,50.35c5.65,15.8,26,20.1,33.22,21.1,20.42,2.7,44.18-6.9,47.76-20.3,5-18.8-28.49-47.1-55.37-40C165.85,15.55,151,34,156.85,50.35Z"/><path class="cls-3" d="M165.15,46.2c4,17.13,22.45,22.87,29,24.36,18.61,4,41.06-4.68,45.32-18.62,5.85-19.57-22.88-51.6-48-45.74C175.9,9.92,160.9,28.43,165.15,46.2Z"/><path class="cls-4" d="M157.48,231.35h84a6.49,6.49,0,0,1,6.5,6.5h0a6.55,6.55,0,0,1-6.5,6.5h-84a6.49,6.49,0,0,1-6.5-6.5h0A6.42,6.42,0,0,1,157.48,231.35Z"/><path class="cls-1" d="M164.88,236.55a2.28,2.28,0,0,0,.3-1.1,1.47,1.47,0,0,0-.5-1.4,3.66,3.66,0,0,0-1.8-.4,16.27,16.27,0,0,0-2.4.1v6.9a19.4,19.4,0,0,0,2.7.1,2.54,2.54,0,0,0,1.7-.4,1.87,1.87,0,0,0,.5-1.4,1.94,1.94,0,0,0-.3-1.3,1.43,1.43,0,0,0-1.1-.5v-.1A1.05,1.05,0,0,0,164.88,236.55Zm-3.2-1.9h1.1c.3-.1.7.1,1,.2a.78.78,0,0,1,.2.8c.1.3-.1.5-.2.8a1.34,1.34,0,0,1-.9.2h-1.2v-2Zm0,2.8h1.2a1.64,1.64,0,0,1,1,.2,1,1,0,0,1,.2.9,1.08,1.08,0,0,1-.2.8,1.64,1.64,0,0,1-1,.2h-1.3l.1-2.1Zm10.3-3.7h-1.3l-2.6,4.5a2,2,0,0,0-.4.8h-.1a2.77,2.77,0,0,0,.1-.9v-4.5h-1.2v6.9h1.3l2.6-4.5c.1-.3.3-.5.4-.8h.1a2.77,2.77,0,0,0-.1.9v4.5H172v-6.9Zm6.7,6v-6h-2.6a1.5,1.5,0,0,0-1.1.4,1.43,1.43,0,0,0-.4,1,16.35,16.35,0,0,1-.9,4.5H173v2.5h.8l.1-1.5h4.7l.1,1.5h.8v-2.5Zm-3.9,0a6,6,0,0,0,.6-1.9,21.3,21.3,0,0,0,.3-2.5.76.76,0,0,1,.2-.5.44.44,0,0,1,.5-.1h1.1v5Zm7.4-.1a.6.6,0,0,1-.4-.1.75.75,0,0,1-.1-.5v-1.6h2.8v-1h-2.8v-1.2a.9.9,0,0,1,.1-.5c.1-.1.2-.1.4-.1h2.6l.1-1a22.81,22.81,0,0,0-3-.1,1.5,1.5,0,0,0-1.1.4,1.53,1.53,0,0,0-.4,1v4.4a1.28,1.28,0,0,0,.4,1,2.1,2.1,0,0,0,1.1.4,22.81,22.81,0,0,0,3-.1l-.1-1Zm4.2-5.3a6.83,6.83,0,0,0,0,5.6,2.65,2.65,0,0,0,2.2.8,2.49,2.49,0,0,0,2.2-.8,6.83,6.83,0,0,0,0-5.6,2.65,2.65,0,0,0-2.2-.8A3.2,3.2,0,0,0,186.38,234.35Zm3.4.9a6.49,6.49,0,0,1,0,3.9,1.58,1.58,0,0,1-2.2.2l-.2-.2a6.49,6.49,0,0,1,0-3.9,1.58,1.58,0,0,1,2.2-.2C189.68,235.15,189.78,235.15,189.78,235.25Zm6.6,5.4h1.3l-1.8-3.6,1.7-3.3h-1.3l-1.4,2.9h-.2l-1.4-2.9H192l1.7,3.3-1.8,3.6h1.3l1.5-3.1h.2Zm2.4-6.3a6.83,6.83,0,0,0,0,5.6,2.65,2.65,0,0,0,2.2.8,2.49,2.49,0,0,0,2.2-.8,6.83,6.83,0,0,0,0-5.6,3.42,3.42,0,0,0-4.4,0Zm3.3.8a6.49,6.49,0,0,1,0,3.9,1.58,1.58,0,0,1-2.2.2l-.2-.2a6.49,6.49,0,0,1,0-3.9,1.58,1.58,0,0,1,2.2-.2C202,235.15,202.08,235.15,202.08,235.15Zm5.4,4.5a1,1,0,0,1-1.1-.5,6.49,6.49,0,0,1,0-3.9,1,1,0,0,1,1.1-.5,9.72,9.72,0,0,1,1.8.1l.1-1a6.48,6.48,0,0,0-1.9-.2,2.65,2.65,0,0,0-2.2.8,6.83,6.83,0,0,0,0,5.6,2.44,2.44,0,0,0,2.2.8,14.92,14.92,0,0,0,2.1-.2l-.1-1Zm8-6h-5.4v1.1h2.1v5.9h1.3v-5.8h2.1l-.1-1.2Zm6.3,0h-1.3l-2.6,4.5a5.94,5.94,0,0,0-.4.8h-.1a2.77,2.77,0,0,0,.1-.9v-4.5h-1.2v6.9h1.3l2.6-4.5a3,3,0,0,1,.4-.8h.1a2.77,2.77,0,0,0-.1.9v4.5h1.2v-6.9Zm5.5,0v2.8h-2.7v-2.8h-1.2v6.9h1.2v-3.2h2.7v3.2h1.3v-6.9Zm3.9,7v-5.3a.75.75,0,0,1,.1-.5.44.44,0,0,1,.5-.1h2.4l.1-1a21.92,21.92,0,0,0-2.9-.1,1.28,1.28,0,0,0-1,.4,2.11,2.11,0,0,0-.4,1v5.5l1.2.1Zm9.3-7h-1.3l-2.6,4.5a5.94,5.94,0,0,0-.4.8h-.1a2.77,2.77,0,0,0,.1-.9v-4.5H235v6.9h1.3l2.6-4.5a3,3,0,0,1,.4-.8h.1a2.77,2.77,0,0,0-.1.9v4.5h1.2v-6.9Z"/><path class="cls-4" d="M197.78,140.75h41.1a12.5,12.5,0,0,1,12.5,12.5h0a12.5,12.5,0,0,1-12.5,12.5h-41.1a12.5,12.5,0,0,1-12.5-12.5h0a12.44,12.44,0,0,1,12.5-12.5Z"/><path class="cls-1" d="M199.48,144.35h-5.2v1h2v5.5h1.2v-5.5h2Zm1.3.6a4.12,4.12,0,0,0-.6,2.6,3.93,3.93,0,0,0,.6,2.6,2.92,2.92,0,0,0,2.1.7,2.54,2.54,0,0,0,2.1-.7,4.12,4.12,0,0,0,.6-2.6,3.93,3.93,0,0,0-.6-2.6,3.5,3.5,0,0,0-4.2,0Zm3.2.8a5.85,5.85,0,0,1,0,3.7,1.57,1.57,0,0,1-2.2.1l-.1-.1a5.85,5.85,0,0,1,0-3.7,1.45,1.45,0,0,1,2.1-.1l.2.1Zm7.1,1.4a2,2,0,0,0,.3-1.1,1.3,1.3,0,0,0-.5-1.3,2.59,2.59,0,0,0-1.7-.3,14.84,14.84,0,0,0-2.3.1v6.5a18.58,18.58,0,0,0,2.6.1,3.23,3.23,0,0,0,1.7-.3,1.54,1.54,0,0,0,.5-1.3,1.8,1.8,0,0,0-.3-1.2,1.23,1.23,0,0,0-1-.5v-.1c.2-.3.5-.4.7-.6Zm-3.1-1.9h1.1a2.92,2.92,0,0,1,.9.2.62.62,0,0,1,.2.7.75.75,0,0,1-.2.7,1.2,1.2,0,0,1-.8.2H208v-1.8Zm0,2.7h1.2a3.55,3.55,0,0,1,1,.2,1.33,1.33,0,0,1,.3.8,1.08,1.08,0,0,1-.2.8,1.49,1.49,0,0,1-.9.2h-1.2l-.2-2Zm8.8,3H218l-2-6.2c-.1-.2-.2-.3-.4-.3h-1.1c-.2,0-.4.1-.4.3l-2,6.2h1.2l.6-1.9h2.4Zm-2.7-2.8.7-2.2.2-.6h.3a2.18,2.18,0,0,1,.1.6l.7,2.2ZM220,151v-2.5a5.7,5.7,0,0,0,1.3.1,2.15,2.15,0,0,0,1.6-.4,2.41,2.41,0,0,0,.4-1.7,2.16,2.16,0,0,0-.5-1.7,2.54,2.54,0,0,0-1.7-.4,16.27,16.27,0,0,0-2.4.1V151Zm0-5.6h1.1a1.08,1.08,0,0,1,.8.2,1.91,1.91,0,0,1,0,1.8.83.83,0,0,1-.8.2H220v-2.2Zm5.7-.9h-1.2V151h0a17,17,0,0,0,2.5.1,2.28,2.28,0,0,0,1.6-.4,3.07,3.07,0,0,0,0-3.2,2.83,2.83,0,0,0-1.8-.4h-1.1v-2.6Zm4.5,0V151h1.2v-6.5Zm-4.5,3.3h1.1a1.08,1.08,0,0,1,.8.2,1.49,1.49,0,0,1,.2.9.87.87,0,0,1-.6,1.1h0a.64.64,0,0,1-.6,0h-1.1l.2-2.2Zm13.5-.6a2,2,0,0,0,.3-1.1,1.3,1.3,0,0,0-.5-1.3,2.7,2.7,0,0,0-1.7-.3,14.17,14.17,0,0,0-2.3.1v6.5a18.58,18.58,0,0,0,2.6.1,3.23,3.23,0,0,0,1.7-.3,1.3,1.3,0,0,0,.5-1.3,2.66,2.66,0,0,0-.3-1.2,1.23,1.23,0,0,0-1-.5v-.1c.2-.3.5-.4.7-.6Zm-3.1-1.9h1.1c.3-.1.6.1.9.2a.62.62,0,0,1,.2.7.75.75,0,0,1-.2.7,1.2,1.2,0,0,1-.8.2h-1.2v-1.8Zm0,2.7h1.2c.3-.1.7.1,1,.2a1.33,1.33,0,0,1,.3.8,1.08,1.08,0,0,1-.2.8,1.49,1.49,0,0,1-.9.2h-1.2l-.2-2Zm-38.8,13a1,1,0,0,1-1.1-.5,5.85,5.85,0,0,1,0-3.7,1.17,1.17,0,0,1,1.1-.5,9.15,9.15,0,0,1,1.7.1l.1-.9a5.84,5.84,0,0,0-1.9-.2,2.46,2.46,0,0,0-2.1.8,5.93,5.93,0,0,0,0,5.2,2.38,2.38,0,0,0,2.1.7,13.55,13.55,0,0,0,2-.2l-.1-.9A9.72,9.72,0,0,1,197.28,161Zm3.3-5a4.12,4.12,0,0,0-.6,2.6,3.93,3.93,0,0,0,.6,2.6,2.92,2.92,0,0,0,2.1.7,2.54,2.54,0,0,0,2.1-.7,4.12,4.12,0,0,0,.6-2.6,3.93,3.93,0,0,0-.6-2.6,2.92,2.92,0,0,0-2.1-.7A2.54,2.54,0,0,0,200.58,156Zm3.3.8a5.85,5.85,0,0,1,0,3.7,1.46,1.46,0,0,1-2.2,0,5.85,5.85,0,0,1,0-3.7,1.17,1.17,0,0,1,1.1-.5A1.27,1.27,0,0,1,203.88,156.75Zm7.7,4.2v-5.6h-1.2V161h-2.5v-5.6h-1.2v6.5h4.8l.1,1.4h.8V161Zm1.6-.3a.37.37,0,0,0-.1.3v.5a.35.35,0,0,0,.4.4h.3a.35.35,0,0,0,.4-.4v-.6a.35.35,0,0,0-.4-.4h-.3C213.38,160.55,213.28,160.55,213.18,160.65Zm6.9.3a1.07,1.07,0,0,1-1.1-.5,5.85,5.85,0,0,1,0-3.7,1.27,1.27,0,0,1,1.1-.5,9.15,9.15,0,0,1,1.7.1l.1-.9a5.84,5.84,0,0,0-1.9-.2,2.46,2.46,0,0,0-2.1.8,5.93,5.93,0,0,0,0,5.2,2.54,2.54,0,0,0,2.1.7,13.55,13.55,0,0,0,2-.2l-.1-.9c-.5,0-1.1.1-1.8.1Zm4.7-.1a1,1,0,0,1-.3-.1.6.6,0,0,1-.1-.4v-1.5h2.7V158h-2.7v-1.1c0-.2,0-.3.1-.4a.37.37,0,0,1,.3-.1h2.6l.1-.9a21.11,21.11,0,0,0-2.9-.1,1.69,1.69,0,0,0-1,.3,1.09,1.09,0,0,0-.4.9v4.1a1.09,1.09,0,0,0,.4.9,1.93,1.93,0,0,0,1,.3,21.92,21.92,0,0,0,2.9-.1l-.1-.9Zm8.4-5.5H228v1h2v5.5h1.2v-5.5h2Zm5.3,0a15.57,15.57,0,0,0-2.4-.1,2.54,2.54,0,0,0-1.7.4,1.74,1.74,0,0,0-.5,1.5,1.8,1.8,0,0,0,.3,1.2,1.23,1.23,0,0,0,1,.5v.1a1.28,1.28,0,0,0-1,1l-.6,2h1.2l.5-2a.86.86,0,0,1,.7-.6h1.1V162h1.2l.2-6.6Zm-2.3,3a1.14,1.14,0,0,1-.8-.3.83.83,0,0,1-.2-.8,1.88,1.88,0,0,1,.2-.8,1.2,1.2,0,0,1,.8-.2h1.1v2.1Zm7.6,3.5H245l-1.7-3.4,1.6-3.1h-1.2l-1.3,2.8h-.2l-1.3-2.8h-1.4l1.6,3.1-1.7,3.4h1.2l1.5-2.9h.2Z"/><path class="cls-2" d="M171.48,61.85h61a6.5,6.5,0,1,1,0,13h-61a6.49,6.49,0,0,1-6.5-6.5,6.62,6.62,0,0,1,6.5-6.5Z"/><path class="cls-1" d="M170.38,65v6.6h1.2v-5.7h2.6v5.7h1.2V65Zm7,.6a4.47,4.47,0,0,0-.6,2.7,4.47,4.47,0,0,0,.6,2.7c.3.5,1.1.7,2.2.7a2.92,2.92,0,0,0,2.2-.7c.5-.5.6-1.4.6-2.7a4.47,4.47,0,0,0-.6-2.7,2.88,2.88,0,0,0-2.3-.7A2.54,2.54,0,0,0,177.38,65.55Zm3.3.8a6.16,6.16,0,0,1,0,3.8,1.57,1.57,0,0,1-2.2.1l-.1-.1a6.16,6.16,0,0,1,0-3.8,1.57,1.57,0,0,1,2.2-.1A.1.1,0,0,0,180.68,66.35Zm8.1-1.4h-1.3l-2.5,4.4a1.91,1.91,0,0,0-.3.8h-.1a2.77,2.77,0,0,0,.1-.9V65h-1.1v6.6h1.2l2.5-4.4a1.33,1.33,0,0,0,.3-.8h.1a2.77,2.77,0,0,0-.1.9v4.4h1.1l.1-6.7Zm4,5.7a1,1,0,0,1-1.1-.5,5.85,5.85,0,0,1,0-3.7,1.27,1.27,0,0,1,1.1-.5,10.28,10.28,0,0,1,1.8.1l.1-.9a6.15,6.15,0,0,0-1.9-.2,2.7,2.7,0,0,0-2.1.7,4.47,4.47,0,0,0-.6,2.7,4.47,4.47,0,0,0,.6,2.7,2.46,2.46,0,0,0,2.1.8,14.92,14.92,0,0,0,2.1-.2l-.1-.9A12.75,12.75,0,0,0,192.78,70.65ZM199,68a2,2,0,0,0,1-1,12.93,12.93,0,0,0,.7-2.1h-1.2V65l-.3.9c-.1.2-.2.5-.3.7s-.2.3-.3.5-.2.3-.4.3a.9.9,0,0,1-.5.1h-.6a1.7,1.7,0,0,0,.1-.7v-1.9H196v6.7h1.2v-2.4c0-.2-.1-.5-.1-.6h.6a.6.6,0,0,1,.4.1,2.36,2.36,0,0,1,.9.8c.1.3.4,1,.7,2.1H201l-.2-.6a10.2,10.2,0,0,0-.9-2.2,1.85,1.85,0,0,0-1.2-.7V68c0,.2.2.1.3,0Zm3.2-2.4a4.47,4.47,0,0,0-.6,2.7,4.47,4.47,0,0,0,.6,2.7c.3.5,1.1.7,2.1.7a2.78,2.78,0,0,0,2.2-.7,4.47,4.47,0,0,0,.6-2.7,4.47,4.47,0,0,0-.6-2.7,2.64,2.64,0,0,0-2.2-.7A2.26,2.26,0,0,0,202.18,65.55Zm3.3.8a6.16,6.16,0,0,1,0,3.8,1.57,1.57,0,0,1-2.2.1l-.1-.1a6.16,6.16,0,0,1,0-3.8,1.6,1.6,0,0,1,2.3,0Zm7.2,1.3a2,2,0,0,0,.3-1.1,1.55,1.55,0,0,0-.5-1.4,2.78,2.78,0,0,0-1.8-.3,16.27,16.27,0,0,0-2.4.1v6.6a18.58,18.58,0,0,0,2.6.1,3.23,3.23,0,0,0,1.7-.3,1.47,1.47,0,0,0,.5-1.4,1.94,1.94,0,0,0-.3-1.3,1.23,1.23,0,0,0-1-.5v-.1a.81.81,0,0,0,.9-.4Zm-3.2-1.8h1.1a2.92,2.92,0,0,1,.9.2.66.66,0,0,1,.2.7.75.75,0,0,1-.2.7,1.34,1.34,0,0,1-.9.2h-1.1v-1.8Zm0,2.7h1.2c.3-.1.7.1,1,.2a1,1,0,0,1,.2.9,1.08,1.08,0,0,1-.2.8,1.49,1.49,0,0,1-.9.2h-1.3v-2.1Zm10.2-3.7h-1.2l-2.5,4.4a1.14,1.14,0,0,0-.3.8h-.2a2.77,2.77,0,0,0,.1-.9v-4.3h-1.1v6.6h1.2l2.5-4.4a1.14,1.14,0,0,0,.3-.8h.1a2.77,2.77,0,0,0-.1.9v4.4h1.1l.1-6.7Zm4.6,3.1a2,2,0,0,0,1-1,12.93,12.93,0,0,0,.7-2.1h-1.2V65l-.3.9c-.1.2-.2.5-.3.7s-.2.3-.3.5-.2.3-.4.3a.9.9,0,0,1-.5.1h-.6a1.7,1.7,0,0,0,.1-.7v-1.9h-1.2v6.6h1.2v-2.4c0-.2-.1-.5-.1-.6h.6a.6.6,0,0,1,.4.1,2.36,2.36,0,0,1,.9.8c.1.3.4,1,.7,2.1h1.3c-.1-.1-.1-.3-.2-.6a10.2,10.2,0,0,0-.9-2.2A1.85,1.85,0,0,0,224,68v-.1c.1.3.2.2.3.1Zm8.1-3.1h-1.2l-2.5,4.4a1.91,1.91,0,0,0-.3.8h-.1a2.77,2.77,0,0,0,.1-.9v-4.3h-1.1v6.6h1.3l2.5-4.4a1.33,1.33,0,0,0,.3-.8h.1a2.77,2.77,0,0,0-.1.9v4.4h1.1l-.1-6.7Z"/><path class="cls-4" d="M10.68,231.35h106.6a6.49,6.49,0,0,1,6.5,6.5h0a6.49,6.49,0,0,1-6.5,6.5H10.68a6.49,6.49,0,0,1-6.5-6.5h0a6.49,6.49,0,0,1,6.5-6.5Z"/><path class="cls-5" d="M15.18,233.85a2.18,2.18,0,0,1,.8.5,1.69,1.69,0,0,1,.3,1,2.5,2.5,0,0,1-.3,1.3,1.56,1.56,0,0,1-.8.6v.1a1.44,1.44,0,0,1,1,.6,2.65,2.65,0,0,1,.3,1.4,1.84,1.84,0,0,1-.6,1.6,3.09,3.09,0,0,1-1.9.5,25,25,0,0,1-2.5-.2l.1-1a17,17,0,0,0,2.1.1c.4,0,.7-.1.9-.1a1,1,0,0,0,.5-.4,1.7,1.7,0,0,0,.1-.7,1.22,1.22,0,0,0-.3-.9,1.33,1.33,0,0,0-1-.3h-1.4v-1h1.4a5.64,5.64,0,0,0,.7-.1c.2-.1.3-.2.3-.4s.1-.4.1-.7a3.54,3.54,0,0,0-.1-.6,1.38,1.38,0,0,0-.4-.3,2,2,0,0,0-.8-.1,12.12,12.12,0,0,0-2,.1l-.1-1a19.53,19.53,0,0,1,2.3-.2A4.44,4.44,0,0,1,15.18,233.85Z"/><path class="cls-5" d="M24.58,234a1.14,1.14,0,0,1,.8.7,4.31,4.31,0,0,1,.3,1.5,3.06,3.06,0,0,1-.3,1.5,1.14,1.14,0,0,1-.8.7,4.64,4.64,0,0,1-1.4.2,7.57,7.57,0,0,1-1.5-.1v2.9h-1.4v-7.5a4.87,4.87,0,0,1,1.2-.1h1.6A3.2,3.2,0,0,1,24.58,234Zm-.8,3.4a.78.78,0,0,0,.4-.4,2,2,0,0,0,.1-.8c0-.3-.1-.6-.1-.8a.78.78,0,0,0-.4-.4,2,2,0,0,0-.8-.1h-1.3v2.6H23A2,2,0,0,0,23.78,237.35Z"/><path class="cls-5" d="M31.58,240.25l.1,1a6.6,6.6,0,0,1-1.4.1h-1.9a1.59,1.59,0,0,1-1.2-.4,1.39,1.39,0,0,1-.5-1v-4.7c0-.5.1-.8.5-1a1.59,1.59,0,0,1,1.2-.4h1.9c.5,0,1,.1,1.4.1l-.1,1h-3c-.2,0-.3.1-.4.1a.75.75,0,0,0-.1.5v1.3h3.1v1h-3.1v1.7a2,2,0,0,0,.1.5c.1.1.2.1.4.1l3,.1Z"/><path class="cls-5" d="M37.18,237.85a3.11,3.11,0,0,1,.7.9,16.71,16.71,0,0,1,.7,1.9l.2.7h-1.4l-.1-.4a13.61,13.61,0,0,0-.7-1.8,1.83,1.83,0,0,0-.6-.8,1.9,1.9,0,0,0-.9-.3h-.7a2,2,0,0,1,.1.7v2.7h-1.4V234h1.4v2.2a2.2,2.2,0,0,1-.1.8h.7a1.22,1.22,0,0,0,.9-.3,1.8,1.8,0,0,0,.6-.9c.1-.4.4-1,.7-1.8h1.2c0,.1-.1.1-.1.2s-.1.1-.1.3c-.29.8-.5,1.4-.7,1.8a2.18,2.18,0,0,1-.7.9,1.91,1.91,0,0,1-1,.5v.1A1.13,1.13,0,0,1,37.18,237.85Z"/><path class="cls-5" d="M45.38,241.35H44v-6.5h-1.2a.68.68,0,0,0-.7.7q-.15,1.8-.3,2.7a7.49,7.49,0,0,1-.4,1.6,3.6,3.6,0,0,1-.8,1.2,1.59,1.59,0,0,1-1.2.4h-.3l-.1-1c.3-.1.5-.1.7-.3a.92.92,0,0,0,.4-.6,6.58,6.58,0,0,0,.4-1.5c.1-.6.2-1.4.3-2.7a2.2,2.2,0,0,1,.5-1.2,1.59,1.59,0,0,1,1.2-.4h2.9v7.6Z"/><path class="cls-5" d="M51.18,239.25h-2.8l-.7,2.1h-1.4l2.3-7.2c0-.1.1-.2.2-.3a.37.37,0,0,1,.3-.1h1.4c.1,0,.2.1.3.1a.77.77,0,0,1,.2.3l2.3,7.2h-1.4Zm-.4-1.2-.8-2.6c0-.1-.1-.2-.1-.3a.49.49,0,0,1-.1-.3h-.3l-.2.7-.8,2.6,2.3-.1Z"/><path class="cls-5" d="M62,234.35l.3,7H61l-.3-6.4h-.2l-1.3,5a.63.63,0,0,1-.6.5h-1c-.3,0-.5-.1-.6-.5l-1.3-5h-.2l-.3,6.4h-1.4l.3-7a.47.47,0,0,1,.5-.5H56c.3,0,.5.1.6.5l1.1,4.1c.1.3.1.7.2,1h.2l.1-.3c0-.1.1-.2.1-.3s.1-.3.1-.4l1-4.1a.63.63,0,0,1,.6-.5h1.5C61.78,233.85,61.88,234,62,234.35Z"/><path class="cls-5" d="M69.58,233.85v7.5h-1.4V238h-3v3.4h-1.4v-7.5h1.4v3h3v-3Z"/><path class="cls-5" d="M75.48,236.85a1.14,1.14,0,0,1,.8.7,3.42,3.42,0,0,1,0,2.8,1.14,1.14,0,0,1-.8.7,4.64,4.64,0,0,1-1.4.2h-1.6c-.4,0-.8-.1-1.2-.1h-.1v-7.5h1.3v2.9h1.3C74.58,236.75,75.08,236.75,75.48,236.85Zm-.8,3.4c.2-.1.3-.2.3-.4a3.25,3.25,0,0,0,0-1.6.78.78,0,0,0-.4-.4,2,2,0,0,0-.8-.1h-1.3v2.5h2.2Zm4.4-6.4v7.5h-1.4v-7.5Z"/><path class="cls-5" d="M85.58,240.25l.1,1a6.6,6.6,0,0,1-1.4.1h-1.9a1.59,1.59,0,0,1-1.2-.4,1.39,1.39,0,0,1-.5-1v-4.7c0-.5.1-.8.5-1a1.59,1.59,0,0,1,1.2-.4h1.9c.5,0,1,.1,1.4.1l-.1,1h-3c-.2,0-.3.1-.4.1a.75.75,0,0,0-.1.5v1.3h3.1v1h-3.1v1.7a2,2,0,0,0,.1.5c.1.1.2.1.4.1l3,.1Z"/><path class="cls-5" d="M93.38,233.75c.3.1.7.1,1,.2l-.1,1a13.4,13.4,0,0,0-2-.1,1.33,1.33,0,0,0-1,.3,1.37,1.37,0,0,0-.5.8,7.12,7.12,0,0,0-.1,1.6c0,.7.1,1.2.1,1.6a1.23,1.23,0,0,0,.5.8,1.69,1.69,0,0,0,1,.3h1.2c.3,0,.7-.1,1-.1l.1,1a3.55,3.55,0,0,1-1,.2,4.89,4.89,0,0,1-1.3.1,3,3,0,0,1-1.8-.4,2.34,2.34,0,0,1-1-1.2,7.12,7.12,0,0,1-.3-2.3,6.71,6.71,0,0,1,.3-2.3,1.76,1.76,0,0,1,1-1.2,4.36,4.36,0,0,1,1.8-.4A4.48,4.48,0,0,0,93.38,233.75Z"/><path class="cls-5" d="M100.48,240.25l.1,1a6.6,6.6,0,0,1-1.4.1h-1.9a1.59,1.59,0,0,1-1.2-.4,1.39,1.39,0,0,1-.5-1v-4.7c0-.5.1-.8.5-1a1.59,1.59,0,0,1,1.2-.4h1.9c.5,0,1,.1,1.4.1l-.1,1h-2.9c-.2,0-.3.1-.4.1a.75.75,0,0,0-.1.5v1.3h3.1v1h-3.1v1.7a2,2,0,0,0,.1.5c.1.1.2.1.4.1l2.9.1Z"/><path class="cls-5" d="M107.28,235.05H105v6.4h-1.4v-6.4h-2.3v-1.2h6v1.2Z"/><path class="cls-5" d="M114.38,241.35h-1.3v-4.9a3.75,3.75,0,0,1,.1-1h-.1a3.92,3.92,0,0,1-.4.9l-2.9,4.9h-1.3v-7.5h1.3v4.9a3.08,3.08,0,0,1-.1,1h.1c.1-.3.3-.6.4-.9l2.9-4.9h1.4l-.1,7.5Z"/><path class="cls-4" d="M21.51,61.81h48.3a6.49,6.49,0,0,1,6.5,6.5h0a6.49,6.49,0,0,1-6.5,6.5H21.51a6.49,6.49,0,0,1-6.5-6.5h0a6.49,6.49,0,0,1,6.5-6.5Z"/><path class="cls-5" d="M25.91,69.41v.8l-.8.1h0v1.6h-1.2v-1.6h-2.7a1.42,1.42,0,0,1-.6-.2,1.69,1.69,0,0,1-.2-.5.76.76,0,0,1,.1-.4l1.8-4.1h1.1l-1.7,4c0,.1-.1.1-.1.2a.22.22,0,0,0,.2.2h1.9v-1.9l.2-1.1h1v3l1-.1Z"/><path class="cls-5" d="M30.21,65.11a1.16,1.16,0,0,1,.7.5,2.15,2.15,0,0,1,.2,1,3.73,3.73,0,0,1-.2,1.2.79.79,0,0,1-.8.5v.1a1.35,1.35,0,0,1,.9.5,2.36,2.36,0,0,1,.2,1.3,2.07,2.07,0,0,1-.5,1.5,2.46,2.46,0,0,1-1.7.5,21.51,21.51,0,0,1-2.3-.2l.1-1a14.16,14.16,0,0,0,1.9.1c.4,0,.6-.1.8-.1s.4-.2.4-.4a1.48,1.48,0,0,0,.1-.7,1.29,1.29,0,0,0-.2-.8,1.69,1.69,0,0,0-.9-.2h-1.2V68H29c.3,0,.5-.1.7-.1a1.38,1.38,0,0,0,.3-.4c.1-.1.1-.4.1-.5a4.33,4.33,0,0,0-.1-.5.52.52,0,0,0-.4-.2,1.48,1.48,0,0,0-.7-.1,9.72,9.72,0,0,0-1.8.1l-.1-1a15,15,0,0,1,2-.2A1.65,1.65,0,0,1,30.21,65.11Z"/><path class="cls-5" d="M36.81,69.41H35v1.7h-.9v-1.7h-1.7v-.9h1.7v-1.7H35v1.7h1.8Z"/><path class="cls-5" d="M43.91,65c.3.1.6.1.9.2l-.1,1a11.48,11.48,0,0,0-1.9-.1,2,2,0,0,0-.9.2,1.28,1.28,0,0,0-.5.7,6.18,6.18,0,0,0-.1,1.5c0,.7.1,1.1.1,1.5s.2.6.5.7a2,2,0,0,0,.9.2h1.1c.3,0,.6-.1.8-.1l.1,1a2.92,2.92,0,0,1-.9.2,4.12,4.12,0,0,1-1.2.1,2.36,2.36,0,0,1-1.6-.4,2,2,0,0,1-.9-1.1,6.19,6.19,0,0,1-.2-2.1,10.61,10.61,0,0,1,.2-2.1,2,2,0,0,1,.9-1.1,3.77,3.77,0,0,1,1.6-.4A5.74,5.74,0,0,0,43.91,65Z"/><path class="cls-5" d="M49.61,70h-2.5l-.5,1.9h-1.3l2-6.5a.22.22,0,0,1,.2-.2.37.37,0,0,1,.3-.1H49a.37.37,0,0,1,.3.1l.2.2,2,6.5h-1.3Zm-.3-1.1-.7-2.3c0-.1-.1-.2-.1-.3a.37.37,0,0,1-.1-.3h-.2l-.2.6-.7,2.3Z"/><path class="cls-5" d="M57.71,71.91h-1.2v-4.5a2.2,2.2,0,0,1,.1-.8h-.1c-.1.4-.2.7-.4.8l-2.6,4.5h-1.3v-6.8h1.2v4.4a2.48,2.48,0,0,1-.1.9h.1a5.9,5.9,0,0,1,.4-.8l2.6-4.5h1.3Zm-1.1-8.8v.1a1.28,1.28,0,0,1-.4,1,2.1,2.1,0,0,1-1.1.4,1.37,1.37,0,0,1-1.1-.4,1.05,1.05,0,0,1-.4-1v-.1h.8c0,.5.2.8.7.8a.76.76,0,0,0,.5-.2,1.07,1.07,0,0,0,.2-.6Z"/><path class="cls-5" d="M64.11,66.11H62v5.8h-1.3v-5.8h-2.1V65h5.5Z"/><path class="cls-5" d="M68.71,70h-2.5l-.5,1.9h-1.3l2-6.5a.22.22,0,0,1,.2-.2.37.37,0,0,1,.3-.1h1.2a.37.37,0,0,1,.3.1l.2.2,2,6.5h-1.2Zm-.3-1.1-.7-2.3c0-.1-.1-.2-.1-.3a.37.37,0,0,1-.1-.3h-.1l-.2.6-.7,2.3Z"/><path class="cls-4" d="M8.46,146.06h57.6a6.49,6.49,0,0,1,6.5,6.5h0a6.55,6.55,0,0,1-6.5,6.5H8.46a6.49,6.49,0,0,1-6.5-6.5H2a6.42,6.42,0,0,1,6.5-6.5Z"/><path class="cls-5" d="M11.86,150.36H9.16v1.4l.9.1a3,3,0,0,1,1.7.6,2.07,2.07,0,0,1,.5,1.5,3,3,0,0,1-.5,1.6,2.06,2.06,0,0,1-1.7.6A18.32,18.32,0,0,1,8,156l.1-1a9.85,9.85,0,0,0,1.7.2c.3,0,.6-.1.9-.1a1.38,1.38,0,0,0,.4-.3,1.48,1.48,0,0,0,.1-.7,1.45,1.45,0,0,0-.2-.7,2.19,2.19,0,0,0-.5-.3,7.47,7.47,0,0,0-1.1-.2l-.6-.1c-.1,0-.2-.1-.3-.2s-.3-.2-.3-.3l.2-2.9h3.7Z"/><path class="cls-5" d="M19,149.26c.3.1.6.1.9.2l-.1.9a10.28,10.28,0,0,0-1.8-.1,2.92,2.92,0,0,0-.9.2,4.23,4.23,0,0,0-.5.7,5.31,5.31,0,0,0-.1,1.4c0,.6.1,1.1.1,1.4s.2.6.5.7.5.2.9.2h1.1c.3,0,.6-.1.9-.1l.1.9a2.92,2.92,0,0,1-.9.2,3.75,3.75,0,0,1-1.1.1,3.51,3.51,0,0,1-1.6-.3,2,2,0,0,1-.9-1.1,5.25,5.25,0,0,1-.3-2,4.92,4.92,0,0,1,.3-2,2,2,0,0,1,.9-1.1,3.51,3.51,0,0,1,1.6-.3A2.48,2.48,0,0,0,19,149.26Z"/><path class="cls-5" d="M25,149.56a2.19,2.19,0,0,1,.9,1,7.5,7.5,0,0,1,0,4.2,1.52,1.52,0,0,1-.9,1,3.51,3.51,0,0,1-1.6.3,3.51,3.51,0,0,1-1.6-.3,2.19,2.19,0,0,1-.9-1,7.5,7.5,0,0,1,0-4.2,1.52,1.52,0,0,1,.9-1,3.51,3.51,0,0,1,1.6-.3A2.41,2.41,0,0,1,25,149.56Zm-2.5.9a4.23,4.23,0,0,0-.5.7,5.31,5.31,0,0,0-.1,1.4c0,.6.1,1.1.1,1.4s.2.6.5.7.5.2.9.2a2,2,0,0,0,.9-.2,4.23,4.23,0,0,0,.5-.7,5.31,5.31,0,0,0,.1-1.4c0-.6-.1-1.1-.1-1.4s-.2-.6-.5-.7-.5-.2-.9-.2A2.92,2.92,0,0,0,22.46,150.46Z"/><path class="cls-5" d="M33.06,155.06v2.4h-.9l-.1-1.4h-4.8v-6.6h1.2v5.7H31v-5.7h1.2v5.7A3.08,3.08,0,0,1,33.06,155.06Z"/><path class="cls-5" d="M35.06,154.76a.37.37,0,0,1,.1.3v.5a.44.44,0,0,1-.1.3.37.37,0,0,1-.3.1h-.3a.44.44,0,0,1-.3-.1.37.37,0,0,1-.1-.3v-.5a.44.44,0,0,1,.1-.3.37.37,0,0,1,.3-.1h.3A.37.37,0,0,1,35.06,154.76Z"/><path class="cls-5" d="M42.06,149.26c.3.1.6.1.9.2l-.1.9a10.28,10.28,0,0,0-1.8-.1,2.92,2.92,0,0,0-.9.2c-.3.1-.3.4-.5.7a5.31,5.31,0,0,0-.1,1.4c0,.6.1,1.1.1,1.4s.2.6.5.7.5.2.9.2h1.1c.3,0,.6-.1.9-.1l.1.9a2.92,2.92,0,0,1-.9.2,3.75,3.75,0,0,1-1.1.1,3.51,3.51,0,0,1-1.6-.3,2,2,0,0,1-.9-1.1,5.25,5.25,0,0,1-.3-2,4.92,4.92,0,0,1,.3-2,2,2,0,0,1,.9-1.1,3.51,3.51,0,0,1,1.6-.3A2.77,2.77,0,0,0,42.06,149.26Z"/><path class="cls-5" d="M48.26,155l.1.9a5.28,5.28,0,0,1-1.3.1h-1.7a1.33,1.33,0,0,1-1-.3,1.27,1.27,0,0,1-.4-.9v-4.2a1,1,0,0,1,.4-.9,1.49,1.49,0,0,1,1-.3h1.7c.5,0,.9.1,1.3.1l-.1.9h-2.6a.44.44,0,0,0-.3.1c-.1.1-.1.2-.1.5v1.1H48v.9h-2.7v1.5c0,.2.1.3.1.5a.37.37,0,0,0,.3.1l2.6-.1Z"/><path class="cls-5" d="M54.26,150.36h-2.1V156H51v-5.6H49v-1h5.3v1Z"/><path class="cls-5" d="M59.36,155l.1.9a5.28,5.28,0,0,1-1.3.1h-1.7a1.33,1.33,0,0,1-1-.3,1.27,1.27,0,0,1-.4-.9v-4.2a1,1,0,0,1,.4-.9,1.49,1.49,0,0,1,1-.3h1.7c.5,0,.9.1,1.3.1l-.1.9h-2.6a.44.44,0,0,0-.3.1c-.1.1-.1.2-.1.5v1.1h2.7v.9h-2.7v1.5c0,.2.1.3.1.5a.37.37,0,0,0,.3.1l2.6-.1Z"/><path class="cls-5" d="M65.86,156h-1.1v-4.3a3.08,3.08,0,0,1,.1-.9h-.1a6.89,6.89,0,0,1-.3.8L62,156h-1.2v-6.6h1.1v4.2a2.77,2.77,0,0,1-.1.9h.1a6.89,6.89,0,0,0,.3-.8l2.5-4.4h1.2V156Zm-1.1-8.5h0a1.16,1.16,0,0,1-.4,1,1.8,1.8,0,0,1-1.1.3,1.61,1.61,0,0,1-1.1-.3,1.49,1.49,0,0,1-.4-.9v-.1h.8c0,.5.2.8.7.8a.76.76,0,0,0,.5-.2.85.85,0,0,0,.2-.6Z"/><path class="cls-6" d="M79.65,132.55a64.34,64.34,0,0,1-8.77-.3H70l1.64-2.9c.31-.6,0-1.9-.32-1.4l-2.71,4.3a.94.94,0,0,0-.13.7,1.88,1.88,0,0,0,.07,1.3c1.07,1.6,2.21,3.2,3.34,4.7.38.5.63-.9.32-1.4-.95-1.3-1.83-2.6-2.72-3.8a54.64,54.64,0,0,0,8.08.3C82.56,134.15,84.64,132.55,79.65,132.55Z"/><path class="cls-6" d="M180.71,136.25a63.7,63.7,0,0,1,8.73.3h.94l-1.63,2.9c-.31.6,0,1.9.31,1.4l2.7-4.3a.94.94,0,0,0,.13-.7,1.63,1.63,0,0,0-.06-1.2c-1.07-1.6-2.2-3.2-3.33-4.7-.38-.5-.63.9-.32,1.4l2.7,3.8a53.92,53.92,0,0,0-8-.3C177.89,134.65,175.75,136.25,180.71,136.25Z"/><path class="cls-6" d="M94.78,98.15c-7.6-7.4-5.7-5.6-13.1-13.3l-1.3-1.4,4.6.4c.9.1,1.4-1.3.5-1.4l-7.1-1.1a.78.78,0,0,0-.7.3.81.81,0,0,0-.8.9c.6,2.8,1.1,5.5,1.7,8.3.2.9,1.6.3,1.5-.5-.5-2.3-.9-4.5-1.4-6.8,7,7.3,4.7,5.2,11.9,12.4C98.08,103.65,102.38,105.65,94.78,98.15Z"/><path class="cls-6" d="M165.38,100.05c7.6-7.4,5.7-5.6,13.1-13.4l1.3-1.4-4.6.4c-.9.1-1.4-1.3-.5-1.4l7.1-1a.78.78,0,0,1,.7.3.81.81,0,0,1,.8.9c-.6,2.8-1.1,5.5-1.7,8.3-.2.9-1.6.3-1.5-.5.5-2.3.9-4.5,1.4-6.8-7,7.3-4.7,5.2-11.9,12.4C162.08,105.45,157.78,107.45,165.38,100.05Z"/><path class="cls-6" d="M161,181.45c7.6,7.4,5.7,5.6,12.9,13.2l1.3,1.4-4.5-.4c-.9-.1-1.4,1.3-.5,1.4l7.1,1a.78.78,0,0,0,.7-.3.81.81,0,0,0,.8-.9c-.6-2.8-1.1-5.5-1.7-8.3-.2-.9-1.6-.3-1.4.5.5,2.3.9,4.5,1.4,6.7-7-7.3-4.7-5.2-11.9-12.3C157.68,176.05,153.38,174.05,161,181.45Z"/><path class="cls-6" d="M95.48,176.65c-7.6,7.4-5.7,5.6-12.9,13.2-.4.5-.9.9-1.3,1.4l4.5-.4c.9-.1,1.4,1.3.5,1.4l-7.1,1a.78.78,0,0,1-.7-.3.81.81,0,0,1-.8-.9c.6-2.8,1.1-5.5,1.7-8.3.2-.9,1.6-.3,1.4.5-.5,2.3-.9,4.5-1.4,6.7,7-7.3,4.7-5.2,11.9-12.3C98.78,171.25,103,169.25,95.48,176.65Z"/><path class="cls-7" d="M234.63,108c0,5-5,9.61-9.93,9.61s-8.34-3.19-8.34-8.15,4-9.77,9-9.77S234.63,103.05,234.63,108Z"/><path class="cls-5" d="M226.63,106.18h.76v-1.31a9.14,9.14,0,0,0-1.1-.06,1.74,1.74,0,0,0-1.83,1.94v1.16h-1.2v1.46h1.2v3.69h1.47v-3.69h1.15l.18-1.46h-1.33v-1C225.93,106.47,226,106.18,226.63,106.18Z"/><path class="cls-8" d="M221.67,124.68c0,4.93-4,7.55-8.9,7.55s-8.92-3.39-8.92-8.33,2.93-8.8,7.86-8.8S221.67,119.75,221.67,124.68Z"/><path class="cls-5" d="M215.06,124.78c-.13-.17-.09-.24,0-.39a11,11,0,0,0,1.22-2h0c.06-.19,0-.33-.27-.33h-.9a.4.4,0,0,0-.4.25,7.34,7.34,0,0,1-1.11,1.81c-.21.21-.3.28-.42.28s-.14-.07-.14-.26v-1.75c0-.23-.07-.33-.26-.33h-1.41a.22.22,0,0,0-.23.2c0,.22.32.27.35.87v1.3c0,.29-.05.34-.16.34-.31,0-1.05-1.1-1.49-2.36-.09-.25-.18-.35-.41-.35h-.9c-.26,0-.31.12-.31.25a7,7,0,0,0,1.42,2.94,3.54,3.54,0,0,0,2.75,1.62c.58,0,.65-.12.65-.34,0-1,0-1.1.24-1.1.13,0,.36.07.89.57s.72.87,1.06.87h.9c.26,0,.39-.12.32-.37A7.76,7.76,0,0,0,215.06,124.78Z"/><path class="cls-9" d="M179.72,213.8a1.36,1.36,0,0,0-.95-1,31.26,31.26,0,0,0-4.19-.23,33.2,33.2,0,0,0-4.2.23,1.38,1.38,0,0,0-.95,1,14.22,14.22,0,0,0-.22,2.58,13.7,13.7,0,0,0,.23,2.59,1.36,1.36,0,0,0,.95.95,38.28,38.28,0,0,0,8.38,0,1.34,1.34,0,0,0,.95-.95,14.64,14.64,0,0,0,0-5.17Z"/><polygon class="cls-5" points="173.51 218 176.29 216.38 173.51 214.77 173.51 218"/><path class="cls-10" d="M184.79,219.46a1.15,1.15,0,0,1-.45-.67,4.34,4.34,0,0,1-.13-1.2v-.68a3.71,3.71,0,0,1,.15-1.22,1.15,1.15,0,0,1,.48-.67,1.55,1.55,0,0,1,.85-.22,1.42,1.42,0,0,1,.84.22,1.26,1.26,0,0,1,.46.67,4,4,0,0,1,.14,1.21v.68a4.06,4.06,0,0,1-.14,1.21,1.28,1.28,0,0,1-.46.67,1.68,1.68,0,0,1-.86.21A1.49,1.49,0,0,1,184.79,219.46Zm1.19-.73a2.08,2.08,0,0,0,.09-.76v-1.46a2,2,0,0,0-.09-.74.31.31,0,0,0-.61,0,2.23,2.23,0,0,0-.09.74V218a2.72,2.72,0,0,0,.08.76.33.33,0,0,0,.62,0Z"/><path class="cls-10" d="M201.09,217.6v.24a5.85,5.85,0,0,0,0,.69.75.75,0,0,0,.11.33.38.38,0,0,0,.59-.09,1.5,1.5,0,0,0,.09-.61l.92.06a.71.71,0,0,1,0,.16,1.22,1.22,0,0,1-.36,1,1.43,1.43,0,0,1-1,.33,1.19,1.19,0,0,1-1.09-.49,2.89,2.89,0,0,1-.32-1.52v-.83a2.94,2.94,0,0,1,.32-1.55,1.27,1.27,0,0,1,1.12-.49,1.47,1.47,0,0,1,.83.2,1.1,1.1,0,0,1,.42.62,4.58,4.58,0,0,1,.11,1.17v.81Zm.14-2a.7.7,0,0,0-.11.32,5.73,5.73,0,0,0,0,.69V217h.77v-.34a6.46,6.46,0,0,0,0-.69.66.66,0,0,0-.11-.33.34.34,0,0,0-.25-.1A.31.31,0,0,0,201.23,215.62Z"/><path class="cls-10" d="M182.21,217.51l-1.2-4.35h1.05l.42,2c.11.49.19.9.24,1.24h0c0-.25.12-.66.24-1.24l.44-2h1l-1.22,4.35v2.08h-1v-2.08Z"/><path class="cls-10" d="M190.55,214.89v4.71h-.82l-.09-.58h0a1.1,1.1,0,0,1-1,.66.81.81,0,0,1-.69-.31,1.66,1.66,0,0,1-.22-1v-3.52h1.06v3.46a1.14,1.14,0,0,0,.07.44.25.25,0,0,0,.23.14.43.43,0,0,0,.26-.09.48.48,0,0,0,.19-.21v-3.74Z"/><path class="cls-10" d="M196,214.89v4.71h-.83l-.08-.58h0a1.07,1.07,0,0,1-1,.66.81.81,0,0,1-.69-.31,1.66,1.66,0,0,1-.22-1v-3.52h1.06v3.46a1,1,0,0,0,.07.44.25.25,0,0,0,.23.14.43.43,0,0,0,.26-.09.55.55,0,0,0,.19-.21v-3.74Z"/><path class="cls-10" d="M193.43,214h-1.05v5.59h-1V214h-1.06v-.85h3.14V214Z"/><path class="cls-10" d="M199.49,215.64a1.13,1.13,0,0,0-.31-.64.83.83,0,0,0-.59-.2,1,1,0,0,0-.54.16,1.13,1.13,0,0,0-.4.44h0v-2.49h-1v6.68h.87l.11-.44h0a1.12,1.12,0,0,0,.37.38,1.2,1.2,0,0,0,.54.13.83.83,0,0,0,.79-.49,3.55,3.55,0,0,0,.26-1.55v-.74A5.76,5.76,0,0,0,199.49,215.64Zm-1,1.93a5.61,5.61,0,0,1,0,.8,1,1,0,0,1-.14.42.34.34,0,0,1-.27.12.48.48,0,0,1-.24-.06.37.37,0,0,1-.18-.19V216a.6.6,0,0,1,.18-.32.41.41,0,0,1,.28-.12.27.27,0,0,1,.25.12.91.91,0,0,1,.13.43c0,.2,0,.48,0,.85Z"/><path d="M219.41,214.73v-1.57l-1.48.19v1.38h-.57V216h.57v3.53h1.48V216h1.07v-1.3Z"/><path d="M211.35,217.06a1.87,1.87,0,0,0,.74-1.48v-.27a1.91,1.91,0,0,0-2-1.9H207v6.13h1.48v-2.08H210l1,2.08h1.73Zm-.77-1.56a.7.7,0,0,1-.79.68h-1.32v-1.47h1.32a.75.75,0,0,1,.79.74Z"/><path d="M227.92,214.7h-.78v-1.56l-1.44.19v6.21h2.22a1.94,1.94,0,0,0,2-1.93v-.93A2,2,0,0,0,227.92,214.7Zm.56,2.78a.71.71,0,0,1-.77.74h-.57V216h.57a.7.7,0,0,1,.77.73Z"/><path d="M223.63,214.73v2.79c0,.46-.17.77-.63.77h0c-.46,0-.63-.31-.63-.77v-2.79H220.9v2.9a1.74,1.74,0,0,0,1.93,2h.27a1.75,1.75,0,0,0,2-2v-2.9Z"/><path d="M215.43,214.73v2.79c0,.46-.17.77-.63.77h0c-.46,0-.63-.31-.63-.77v-2.79H212.7v2.9a1.74,1.74,0,0,0,1.93,2h.27a1.75,1.75,0,0,0,2-2v-2.9Z"/><path d="M233.59,217.92a1.45,1.45,0,0,1-1.18.46.69.69,0,0,1-.74-.73v-.16h2.85v-.83a2,2,0,0,0-2.1-2,2,2,0,0,0-2.11,2v1a2,2,0,0,0,2.11,2,2.53,2.53,0,0,0,2.14-1.05Zm-1.92-1.53a.68.68,0,0,1,.71-.73h0a.69.69,0,0,1,.74.73v0h-1.49Z"/><path class="cls-11" d="M193.5,199a5.21,5.21,0,0,1,5,.51,5.28,5.28,0,0,1,1.87,2.36,5.12,5.12,0,0,1,.25,3,2,2,0,0,1-.85,1.27,1.76,1.76,0,0,1-1.41.21,1.73,1.73,0,0,1-1-.7c-.16.11-.3.25-.47.35a2.62,2.62,0,0,1-1.93.36,2.65,2.65,0,0,1-1.24-.62,2.71,2.71,0,0,1-.88-2.05,2.67,2.67,0,0,1,2.73-2.56,2.73,2.73,0,0,1,1.47.52,2.65,2.65,0,0,1,1.07,1.92c0,.39,0,.79,0,1.19a.65.65,0,0,0,.62.58.69.69,0,0,0,.66-.38,1.85,1.85,0,0,0,.18-.65,4.29,4.29,0,0,0-.21-2,4.13,4.13,0,0,0-5.77-2.28,4.15,4.15,0,0,0-.67,7,4.21,4.21,0,0,0,4.73.25c.08-.06.14,0,.18.1.18.23.41.43.57.68a5.21,5.21,0,0,1-7.46-6.91A5.28,5.28,0,0,1,193.5,199Zm1.74,3.25a1.58,1.58,0,0,0-1.24,1.54,1.57,1.57,0,0,0,3,.6,1.57,1.57,0,0,0-.82-2A1.81,1.81,0,0,0,195.24,202.29Z"/><path class="cls-12" d="M220.27,202.13a2.44,2.44,0,0,1,2.07-.68,2.47,2.47,0,0,1,2,1.48,3.49,3.49,0,0,1,.16,1.47h-3.91a1.52,1.52,0,0,0,.86.93,1.8,1.8,0,0,0,1.17,0,2.26,2.26,0,0,0,1-.55c.2.22.41.43.62.64a3.12,3.12,0,0,1-1.08.76,3,3,0,0,1-1.51.15,2.49,2.49,0,0,1-2.07-2.79A2.42,2.42,0,0,1,220.27,202.13Zm.75.59a1.31,1.31,0,0,0-.48.75h3a1.47,1.47,0,0,0-.36-.63A1.62,1.62,0,0,0,221,202.72Z"/><path class="cls-12" d="M227.29,201.46a2.5,2.5,0,0,1,1.48,4.73,2.52,2.52,0,0,1-3-.77,2.52,2.52,0,0,1,.11-3.14A2.59,2.59,0,0,1,227.29,201.46Zm.08,1a1.53,1.53,0,0,0-.48,2.76,1.53,1.53,0,0,0,2.37-1.36,1.58,1.58,0,0,0-.7-1.2A1.56,1.56,0,0,0,227.37,202.43Z"/><path class="cls-12" d="M203.67,201.54h2.45a1.59,1.59,0,0,1,.8.15,1.32,1.32,0,0,1,.66,1.41,1.58,1.58,0,0,1-.35.65,1.25,1.25,0,0,1,.58.75,1.44,1.44,0,0,1-.71,1.65,1.59,1.59,0,0,1-.86.15h-2.57Zm1,.94v.9h1.56a.45.45,0,0,0,0-.89Zm0,1.8v1.08h1.69a.54.54,0,0,0,.5-.67.52.52,0,0,0-.5-.4Z"/><path class="cls-12" d="M208.67,201.54h1v3.17l2.76-3.17h.81v4.76h-1v-3.12l-2.76,3.12h-.81Z"/><path class="cls-12" d="M214.92,201.54h3.62v3.82h.64v2h-1V206.3H214.8v1.06h-1v-2a1,1,0,0,0,.64-.15,1.16,1.16,0,0,0,.38-.67,3.67,3.67,0,0,0,.07-1Zm1,.94c0,.54,0,1.09,0,1.64a2,2,0,0,1-.47,1.24h2.17v-2.88Z"/><path d="M66,214h-.87c-.08,0-.11,0-.11.11v2.61h-1.6v-2.61a.1.1,0,0,0-.11-.11H62.5a.1.1,0,0,0-.11.11v6.64a.1.1,0,0,0,.11.11h.88c.07,0,.1,0,.1-.11v-3.19h1.6v3.19a.1.1,0,0,0,.11.11h.87c.08,0,.11,0,.11-.11v-6.64c0-.08-.07-.11-.14-.11ZM85.65,220s0,0-.07,0C85.21,220,83,221,83,217.51c0-1.52.58-3.67,2-2.39a.14.14,0,0,0,.11,0s.07,0,.11-.11l.36-.61a.14.14,0,0,0,0-.11c0-.08-.08-.11-.15-.15-2.4-1.2-3.63,1-3.63,3.6,0,3.34,2.43,3.81,3.81,2.8a.15.15,0,0,0,.07-.15l0-.44Zm-6-2.87,1.67-3a.07.07,0,0,0,0-.11h-.83c-.26,0-.33.07-.4.25s-1.31,2.77-1.45,2.87v-3s0-.11-.08-.11h-.9s-.08,0-.08.11v6.68s0,.11.08.11h.9c.08,0,.08,0,.08-.11v-3.45c.11.08,1.63,3.24,1.67,3.35a.42.42,0,0,0,.4.21h.91c.07,0,.07,0,0-.11l-2-3.67Zm-8,2.91h-.18c-.22,0-.25-.07-.25-.25V214.1c0-.07,0-.11-.08-.11H68.43a.1.1,0,0,0-.11.11c0,1.52,0,4.07-1,5.92h-.29a.1.1,0,0,0-.11.11v2a.12.12,0,0,0,.11.11h.65a.22.22,0,0,0,.22-.22v-1.13h2.94v1.24a.13.13,0,0,0,.11.11h.73a.21.21,0,0,0,.18-.22v-1.89c0-.07-.07-.11-.15-.11Zm-1.52,0h-2a9.58,9.58,0,0,0,1.13-5.16h.91V220Zm4.36-6.18c-1.49,0-2.18,1.86-2.18,3.89,0,3.34,2.32,3.85,3.92,2.87a.1.1,0,0,0,.07-.11l-.11-.47s0-.07-.1-.07c-.59,0-2.62,1-2.62-2.29a23.21,23.21,0,0,0,2.91.07c0-1.67-.22-3.89-1.89-3.89Zm-1,3.06c0-2.66,1.74-3.16,1.74-.08A11.89,11.89,0,0,0,73.59,216.9Z"/><path class="cls-9" d="M60.8,210.61H59.23c-1.56,0-2.9,1.16-2.9,3.42a3,3,0,0,0,1.78,2.87L56,220.68a.13.13,0,0,0,.11.21h1a.18.18,0,0,0,.18-.11l1.93-3.7h.69v3.7a.11.11,0,0,0,.11.11h.87a.1.1,0,0,0,.11-.11v-10C60.94,210.65,60.91,210.61,60.8,210.61Zm-.91,5.6h-.58c-2.51,0-2.33-4.73-.11-4.73h.72v4.73Z"/><path class="cls-13" d="M27,201a3.33,3.33,0,0,1,3.62-.71,3.09,3.09,0,0,1,.95.65c-.2.21-.41.41-.62.62a2.74,2.74,0,0,0-.78-.48A2.43,2.43,0,0,0,29,201a2.35,2.35,0,0,0-2.06,2.1,2.43,2.43,0,0,0,.34,1.51,2.29,2.29,0,0,0,1.36,1,2.49,2.49,0,0,0,1.38,0,1.87,1.87,0,0,0,1.13-.87,2.2,2.2,0,0,0,.25-.8H29.31c0-.29,0-.58,0-.88h3a3.45,3.45,0,0,1-.23,1.88,2.83,2.83,0,0,1-1.45,1.42,3.61,3.61,0,0,1-1.45.25,3.24,3.24,0,0,1-1.06-.22,3.29,3.29,0,0,1-1.84-1.71,3.42,3.42,0,0,1-.28-1.73A3.28,3.28,0,0,1,27,201Z"/><path class="cls-13" d="M43.17,202.64a1.82,1.82,0,0,1,1.43-.31,1.49,1.49,0,0,1,.78.44c0-.12,0-.25,0-.38h.88v3.17a4.41,4.41,0,0,1-.19,1.69,1.74,1.74,0,0,1-.9.95,2.31,2.31,0,0,1-1.42.11,2,2,0,0,1-1.36-1.17l.8-.34a1.25,1.25,0,0,0,.71.7,1.19,1.19,0,0,0,1.17-.26,1.63,1.63,0,0,0,.3-1.23,1.81,1.81,0,0,1-.41.32,1.68,1.68,0,0,1-1.3.08,2.09,2.09,0,0,1-1.25-1.22,2.5,2.5,0,0,1-.13-1.09A2.14,2.14,0,0,1,43.17,202.64Zm.9.51a1.14,1.14,0,0,0-.82.85,1.5,1.5,0,0,0,.12,1.08,1.06,1.06,0,0,0,1.16.57,1.14,1.14,0,0,0,.88-.88,1.47,1.47,0,0,0-.36-1.37A1.09,1.09,0,0,0,44.07,203.15Z"/><path class="cls-14" d="M47,200.13h.91v6.37H47Z"/><path class="cls-15" d="M55.07,206.64c.72-1.9,1.43-3.81,2.15-5.71h.83c.72,1.9,1.43,3.81,2.16,5.71-.28,0-.55,0-.82,0l-.55-1.54h-2.4c-.19.51-.37,1-.56,1.54C55.61,206.64,55.34,206.65,55.07,206.64Zm2.54-4.78-.92,2.55h1.9l-.93-2.55Z"/><path class="cls-15" d="M63.6,200.93h.73v5.71h-.7a5.28,5.28,0,0,0,0-.56,1.57,1.57,0,0,1-.81.6,1.72,1.72,0,0,1-1.37-.12,2,2,0,0,1-1-1.3,2.36,2.36,0,0,1,.2-1.65,1.9,1.9,0,0,1,1.14-.94,1.72,1.72,0,0,1,1.49.28,2.05,2.05,0,0,1,.32.34c0-.23,0-.47,0-.71Zm-1.84,2.53a1.42,1.42,0,0,0-.62,1.22,1.44,1.44,0,0,0,.45,1.11,1.2,1.2,0,0,0,1.48.1,1.43,1.43,0,0,0,.55-1,1.56,1.56,0,0,0-.4-1.24A1.18,1.18,0,0,0,61.76,203.46Z"/><path class="cls-15" d="M66.52,202.61a1.63,1.63,0,0,1,1.59.9l-.65.28a1,1,0,0,0-1.5-.34.35.35,0,0,0-.14.43.6.6,0,0,0,.4.29,11.38,11.38,0,0,1,1.26.38,1.07,1.07,0,0,1,.68,1.19,1.1,1.1,0,0,1-.54.75,2,2,0,0,1-1.36.25,1.75,1.75,0,0,1-1.33-1.08c.22-.09.43-.21.66-.28a1.17,1.17,0,0,0,.74.7,1.18,1.18,0,0,0,.72,0,.61.61,0,0,0,.36-.34.45.45,0,0,0-.18-.47,2.66,2.66,0,0,0-.9-.3,2.19,2.19,0,0,1-1-.47,1,1,0,0,1,0-1.41A1.76,1.76,0,0,1,66.52,202.61Z"/><path class="cls-16" d="M34.68,202.32a2.21,2.21,0,0,1,1.36.22,2.05,2.05,0,0,1,1,1.38,2.12,2.12,0,0,1-.24,1.56,2.08,2.08,0,0,1-1.07.89,2.22,2.22,0,0,1-1.46,0,2.08,2.08,0,0,1-1.26-1.2,2.3,2.3,0,0,1,0-1.51A2.1,2.1,0,0,1,34.68,202.32Zm.11.83a1.16,1.16,0,0,0-.88.78,1.35,1.35,0,0,0,.41,1.5,1.14,1.14,0,0,0,.89.22,1.18,1.18,0,0,0,.86-.64,1.36,1.36,0,0,0-.3-1.62A1.12,1.12,0,0,0,34.79,203.15Z"/><path class="cls-16" d="M49.48,202.64a2,2,0,0,1,1.36-.33,1.81,1.81,0,0,1,1.3.82,3.2,3.2,0,0,1,.37.74L49.69,205a1.14,1.14,0,0,0,.5.52,1.21,1.21,0,0,0,1.18-.07,1.41,1.41,0,0,0,.38-.39l.72.48a2.17,2.17,0,0,1-1,.82,2.28,2.28,0,0,1-1.13.07,2,2,0,0,1-1.35-.93,2.31,2.31,0,0,1-.17-2A2,2,0,0,1,49.48,202.64Zm.37.8a1.31,1.31,0,0,0-.31.89l1.91-.79a.89.89,0,0,0-1-.44A1.12,1.12,0,0,0,49.85,203.44Z"/><path class="cls-17" d="M39.4,202.32a2.21,2.21,0,0,1,1.36.22A2.07,2.07,0,0,1,41.81,204a2.12,2.12,0,0,1-.28,1.57,2.09,2.09,0,0,1-1,.84,2.24,2.24,0,0,1-1.49,0,2.1,2.1,0,0,1-1-.82,2.16,2.16,0,0,1-.3-1.55,2.05,2.05,0,0,1,1-1.45A2.14,2.14,0,0,1,39.4,202.32Zm.1.83a1.18,1.18,0,0,0-.88.78,1.33,1.33,0,0,0,.61,1.62,1.17,1.17,0,0,0,1.4-.3,1.37,1.37,0,0,0-.1-1.82A1.15,1.15,0,0,0,39.5,203.15Z"/><path class="cls-18" d="M20.85,214.14a5.08,5.08,0,0,1,3.73-2,6.21,6.21,0,0,1,1.14,0,5.17,5.17,0,0,1,2.8,1.41A5.23,5.23,0,0,1,30,216.17a5.53,5.53,0,0,1,.09,1.52,2.75,2.75,0,0,1-.47,1.45,1.71,1.71,0,0,1-1.37.69,1.57,1.57,0,0,1-1.16-.46c-.09-.1-.17-.2-.26-.29-.15.09-.27.22-.41.31a2.5,2.5,0,0,1-1.48.44,2.59,2.59,0,0,1-2.4-1.77,2.72,2.72,0,0,1-.11-1.2,2.62,2.62,0,0,1,.82-1.54,2.49,2.49,0,0,1,1.76-.67,2.43,2.43,0,0,1,1.31.37,2.62,2.62,0,0,1,1.19,1.66,5.08,5.08,0,0,1,.06,1.1,1.35,1.35,0,0,0,.09.69.69.69,0,0,0,.59.35.8.8,0,0,0,.57-.31,1.05,1.05,0,0,0,.17-.41,4.1,4.1,0,0,0-3.33-4.92,4.94,4.94,0,0,0-.94-.05,4.1,4.1,0,0,0-2.61,1.18A4,4,0,0,0,21,216a4.73,4.73,0,0,0-.2,1.24,4.33,4.33,0,0,0,.81,2.45,4.25,4.25,0,0,0,2,1.43,4.09,4.09,0,0,0,3.18-.22,3.65,3.65,0,0,1,.34-.18c.05,0,.08,0,.11.06s.22.27.34.4a1.28,1.28,0,0,1,.23.29c0,.05-.07.07-.1.11a5.18,5.18,0,0,1-3.07.79A4.83,4.83,0,0,1,23,222a5.13,5.13,0,0,1-2.43-2.08,5.2,5.2,0,0,1-.75-2.36c0-.24,0-.47,0-.71a4.93,4.93,0,0,1,.46-1.77A5.92,5.92,0,0,1,20.85,214.14Zm3.87,1.55A1.59,1.59,0,0,0,23.41,217a1.67,1.67,0,0,0,.11.86,1.54,1.54,0,0,0,1.38.95,1.5,1.5,0,0,0,1.15-.47,1.53,1.53,0,0,0,0-2.2A1.52,1.52,0,0,0,24.72,215.69Z"/><path class="cls-12" d="M47.6,212.87a.65.65,0,0,1,.71.61.66.66,0,0,1-.44.67,1.24,1.24,0,0,1-.43,0,.68.68,0,0,1-.43-.47.75.75,0,0,1,.05-.47A.65.65,0,0,1,47.6,212.87Z"/><path class="cls-12" d="M49.28,213h.93a2.8,2.8,0,0,1,0,.5c0,2,0,3.9,0,5.85,0,.08,0,.18-.05.24h-.91c0-1.21,0-2.42,0-3.64C49.28,215,49.27,214,49.28,213Z"/><path class="cls-12" d="M37,215.21a2.07,2.07,0,0,1,2.83.45,2.31,2.31,0,0,1,.43,1.42c0,.84,0,1.68,0,2.52a.87.87,0,0,1-.36,0c-.19,0-.38,0-.57,0s-.05-.11-.06-.16c0-.86,0-1.72,0-2.58a1.1,1.1,0,0,0-2-.65A1.26,1.26,0,0,0,37,217c0,.88,0,1.75,0,2.63H36.1v-2.7a1.14,1.14,0,0,0-1-1.1,1.15,1.15,0,0,0-.88.32,1.1,1.1,0,0,0-.32.78v2.54c0,.06,0,.12,0,.17H33a.09.09,0,0,1-.08-.11V215c.27,0,.53,0,.79,0a.26.26,0,0,1,.15,0c0,.07,0,.14,0,.21a1.76,1.76,0,0,1,1-.4,2.09,2.09,0,0,1,1.32.43c.12.09.21.2.32.3A4.59,4.59,0,0,1,37,215.21Z"/><path class="cls-12" d="M43.24,214.87c.21,0,.42,0,.63,0a1.79,1.79,0,0,1,.68.17,4.15,4.15,0,0,1,.53.32,1.67,1.67,0,0,1,0-.32c.25,0,.5,0,.76,0,.06,0,.14,0,.17.05a1.88,1.88,0,0,1,0,.34c0,1.41,0,2.82,0,4.23h-.89c-.09-.08,0-.23,0-.33a2.31,2.31,0,0,1-1,.45,3.86,3.86,0,0,1-.58,0l-.32,0a2.46,2.46,0,0,1-2-2.1,1.57,1.57,0,0,1,0-.61,2.49,2.49,0,0,1,.82-1.58A2.54,2.54,0,0,1,43.24,214.87Zm0,1a1.54,1.54,0,0,0-1.15,1.43,1.48,1.48,0,0,0,.43,1.1,1.5,1.5,0,0,0,2.07.09,1.54,1.54,0,0,0,.5-1.16,1.47,1.47,0,0,0-.25-.83,1.57,1.57,0,0,0-.86-.63A2.3,2.3,0,0,0,43.29,215.84Z"/><path class="cls-12" d="M47.16,215h1c0,1.26,0,2.53,0,3.8,0,.27,0,.54,0,.82h-1c0-1.26,0-2.53,0-3.8C47.16,215.55,47.15,215.28,47.16,215Z"/><path class="cls-7" d="M26.6,113.71c0,4.16-4.19,8.06-8.35,8.06s-7-2.68-7-6.84,3.37-8.21,7.53-8.21S26.6,109.55,26.6,113.71Z"/><path class="cls-5" d="M19.88,112.18h.63v-1.11c-.1,0-.48,0-.92,0a1.45,1.45,0,0,0-1.53,1.62v1h-1v1.24h1V118h1.23v-3.1h1l.15-1.24H19.29v-.84C19.29,112.42,19.39,112.18,19.88,112.18Z"/><path class="cls-19" d="M55.36,128.94a6.61,6.61,0,0,1-7,7c-4.16,0-8.42-2.85-8.42-7s4.2-7,8.36-7A7.34,7.34,0,0,1,55.36,128.94Z"/><path class="cls-5" d="M45.39,129.15c-.18.35,0,.51.48.8a3.11,3.11,0,0,0,1.27.36l-1.36,1.31c-.4.38.24,1,.64.62l1.07-1,1.08,1c.39.38,1-.23.64-.62l-1.37-1.31a3.23,3.23,0,0,0,1.27-.36h0c.45-.29.66-.45.48-.8s-.39-.36-.77-.08a2.48,2.48,0,0,1-2.67,0C45.78,128.78,45.49,129,45.39,129.15Z"/><path class="cls-5" d="M47.49,128.94a1.76,1.76,0,1,0-1.83-1.76A1.8,1.8,0,0,0,47.49,128.94Zm0-2.62a.87.87,0,1,1-.9.86A.88.88,0,0,1,47.49,126.32Z"/><path class="cls-8" d="M64.62,115.08c0,4.14-3.33,6.34-7.47,6.34s-7.5-2.85-7.5-7,2.47-7.4,6.61-7.4S64.62,110.94,64.62,115.08Z"/><path class="cls-5" d="M59.07,115.17c-.11-.14-.08-.21,0-.33a9,9,0,0,0,1-1.71h0c0-.16,0-.28-.23-.28h-.76a.33.33,0,0,0-.33.21,6.21,6.21,0,0,1-.93,1.52c-.18.18-.26.23-.36.23s-.12,0-.12-.21v-1.47c0-.19,0-.28-.21-.28H56a.18.18,0,0,0-.19.17c0,.18.27.22.3.73v1.09c0,.24,0,.29-.14.29-.26,0-.89-.93-1.26-2-.07-.21-.14-.29-.34-.29h-.76c-.21,0-.26.1-.26.21a5.92,5.92,0,0,0,1.2,2.47,3,3,0,0,0,2.31,1.36c.49,0,.54-.1.54-.29,0-.84,0-.92.2-.92s.31.06.76.48.6.73.89.73H60c.22,0,.33-.1.27-.31A6.64,6.64,0,0,0,59.07,115.17Z"/><path class="cls-20" d="M36.53,129.36c0,4.16-4.89,6.81-9,6.81s-7-2.65-7-6.81,3.92-6.88,8.08-6.88S36.53,125.2,36.53,129.36Z"/><path class="cls-5" d="M28.64,127.58a1.78,1.78,0,1,0,1.78,1.78A1.78,1.78,0,0,0,28.64,127.58Zm0,2.93a1.16,1.16,0,1,1,1.15-1.15A1.16,1.16,0,0,1,28.64,130.51Z"/><path class="cls-5" d="M30.07,125.91c-.64,0-2.22,0-2.86,0a2.12,2.12,0,0,0-1.45.56c-.67.67-.58,1.57-.58,2.89s-.08,2.22.58,2.88,1.58.58,2.88.58a6.53,6.53,0,0,0,2.27-.18,1.91,1.91,0,0,0,1.17-1.86c0-.63,0-2.21,0-2.85A1.91,1.91,0,0,0,30.07,125.91Zm1,5.89c-.44.43-1,.39-2.45.39s-2,0-2.45-.4-.39-1.26-.39-2.44c0-1.59-.17-2.74,1.43-2.83h1.42c1.54,0,2.75-.17,2.82,1.44,0,.36,0,.47,0,1.4C31.48,130.78,31.5,131.36,31.08,131.8Z"/><circle class="cls-5" cx="30.49" cy="127.51" r="0.42"/><path class="cls-21" d="M46.25,113.5c0,4.16-4.18,8.07-8.34,8.07s-7-2.68-7-6.84,3.38-8.21,7.54-8.21S46.25,109.34,46.25,113.5Z"/><path class="cls-22" d="M36.91,111.74a.72.72,0,0,1,.55.13.69.69,0,0,1,.21.74.67.67,0,0,1-.52.45.71.71,0,0,1-.38,0,.67.67,0,0,1-.4-.6A.66.66,0,0,1,36.91,111.74Z"/><path class="cls-22" d="M39.71,111.76a.87.87,0,0,1,.28,0,.57.57,0,0,1,.44.23.66.66,0,0,1-.4,1.07.69.69,0,0,1-.62-.2.72.72,0,0,1-.17-.39A.66.66,0,0,1,39.71,111.76Z"/><path class="cls-22" d="M35.82,114.26a.41.41,0,0,1,.55.28.45.45,0,0,1,0,.28,1.09,1.09,0,0,1-.08.15,2.15,2.15,0,0,0,1,.75,3,3,0,0,0,1,.23,3.11,3.11,0,0,0,.61,0,3,3,0,0,0,1.28-.46,1.77,1.77,0,0,0,.51-.51,1,1,0,0,1-.12-.29.41.41,0,0,1,.31-.43.52.52,0,0,1,.28,0,.39.39,0,0,1,.19.19l.81,1.39a.46.46,0,0,1,.06.28.44.44,0,0,1-.32.34.43.43,0,0,1-.33-.07,1,1,0,0,1-.21-.29c-.08-.13-.14-.27-.23-.39-.1.08-.19.19-.29.27a3.66,3.66,0,0,1-2.13.76,1.7,1.7,0,0,1-.45,0,3.53,3.53,0,0,1-2.18-.81c-.08-.06-.15-.14-.23-.21a1.34,1.34,0,0,0-.18.28,3,3,0,0,1-.19.3.39.39,0,0,1-.44.15.41.41,0,0,1-.3-.41.61.61,0,0,1,.11-.28l.72-1.22A.61.61,0,0,1,35.82,114.26Z"/><path d="M190,23.45h-.68a.08.08,0,0,0-.09.09v2.05H188V23.54a.08.08,0,0,0-.09-.09h-.66c-.05,0-.08,0-.08.09v5.22c0,.06,0,.09.08.09H188a.08.08,0,0,0,.09-.09V26.25h1.25v2.51a.08.08,0,0,0,.09.09h.68a.08.08,0,0,0,.09-.09V23.54c0-.06-.06-.09-.12-.09Zm15.42,4.69s0,0-.06,0c-.28,0-2,.82-2-1.92,0-1.2.45-2.88,1.54-1.88a.09.09,0,0,0,.08,0s.06,0,.09-.09l.28-.48a.11.11,0,0,0,0-.09c0-.06-.05-.08-.11-.11-1.89-.94-2.86.8-2.86,2.82,0,2.63,1.92,3,3,2.2a.11.11,0,0,0,.06-.11l0-.34Zm-4.68-2.26,1.31-2.37a.06.06,0,0,0,0-.09h-.65a.28.28,0,0,0-.32.2c-.06.15-1,2.17-1.14,2.26V23.51s0-.09-.06-.09h-.71s-.06,0-.06.09v5.25s0,.09.06.09h.71c.06,0,.06,0,.06-.09V26.05c.09.06,1.28,2.54,1.31,2.63a.34.34,0,0,0,.32.17h.71c.06,0,.06,0,0-.09l-1.54-2.88Zm-6.25,2.28h-.15c-.17,0-.2-.05-.2-.2V23.51c0-.06,0-.09-.05-.09h-2.2a.08.08,0,0,0-.09.09,10,10,0,0,1-.77,4.65h-.23c-.05,0-.08,0-.08.09v1.57a.09.09,0,0,0,.08.09h.52a.17.17,0,0,0,.17-.18v-.88h2.31v1a.1.1,0,0,0,.09.09h.57a.17.17,0,0,0,.14-.18V28.25c0-.06-.06-.09-.11-.09Zm-1.2,0h-1.6a7.59,7.59,0,0,0,.88-4.05h.72v4.05Zm3.42-4.85c-1.17,0-1.71,1.46-1.71,3.05,0,2.63,1.83,3,3.08,2.26.06,0,.06-.06.06-.09l-.09-.37s0-.05-.08-.05c-.46,0-2.06.8-2.06-1.8a16.69,16.69,0,0,0,2.29.06c0-1.32-.17-3.06-1.49-3.06Zm-.77,2.4c0-2.09,1.37-2.49,1.37-.06A9.87,9.87,0,0,0,196,25.71Z"/><path class="cls-9" d="M185.93,20.77h-1.22c-1.23,0-2.29.91-2.29,2.68a2.35,2.35,0,0,0,1.4,2.26l-1.66,3a.11.11,0,0,0,.09.17H183a.15.15,0,0,0,.14-.09l1.52-2.91h.54v2.91s0,.09.08.09H186a.08.08,0,0,0,.09-.09V20.88C186.05,20.8,186,20.77,185.93,20.77Zm-.71,4.4h-.46c-2,0-1.82-3.72-.08-3.72h.57v3.72Z"/><g id="Rambler"><g id="fun"><g id="rambler_ru" data-name="rambler ru"><path id="logo" class="cls-23" d="M180.77,39.42a.75.75,0,0,1-.76-.82.7.7,0,0,1,.77-.75.73.73,0,0,1,.72.78A.75.75,0,0,1,180.77,39.42Zm.07-2.26a1.38,1.38,0,0,0-.75.24c0-.09.11-.84,1.16-.84h.66l.24-.64h-.88c-1.17,0-2.05.52-2.05,2.33,0,1,.44,1.79,1.53,1.79a1.43,1.43,0,0,0,1.54-1.44A1.39,1.39,0,0,0,180.84,37.16Zm-10.57.71h-.41V36.6h.42c.29,0,.77.17.77.64S170.57,37.87,170.27,37.87Zm.06-1.95H169v4h.84V38.54h.46c.86,0,1.57-.44,1.57-1.3S171.18,35.92,170.33,35.92Zm13.93,1.24L185.33,40h-.87l-.62-1.79h0L183.21,40h-.87l1.07-2.81Zm11-1.24-2.06,5.38h-.84l2.06-5.38ZM178,37.16h.69V40h-.81V38.32l-.79,1h-.22l0,0-.77-.95V40h-.82V37.16h.7l0,0,1,1.17Zm-4.16,1.64a.6.6,0,0,1-.66.65c-.41,0-.45-.24-.45-.33s.2-.34.66-.39h.45Zm.76-.31v-.16c0-.87-.43-1.23-1.26-1.23a1.87,1.87,0,0,0-1.06.31l.22.57a1.36,1.36,0,0,1,.78-.28c.61,0,.55.49.55.49-.21,0-1.88-.09-1.88,1A1,1,0,0,0,173,40a1.08,1.08,0,0,0,.85-.34s0,.27,0,.27h.76a5.62,5.62,0,0,1,0-.63Zm15.77.93a.86.86,0,0,1,0-1.72.86.86,0,0,1,0,1.72Zm.1-2.32a1.32,1.32,0,0,0-.92.36v-.3h-.78V41.3h.81V39.69a1.28,1.28,0,0,0,.89.35,1.47,1.47,0,0,0,0-2.94Zm-4.3,1.15a.69.69,0,0,1,.72-.57.59.59,0,0,1,.65.57Zm.72-1.15a1.47,1.47,0,1,0,0,2.94,1.57,1.57,0,0,0,1.32-.64l-.59-.38a.81.81,0,0,1-.73.4.74.74,0,0,1-.76-.62h2.15s0-.12,0-.16v-.09A1.36,1.36,0,0,0,186.91,37.1Z"/></g></g></g><path class="cls-18" d="M205.66,33.87a4.14,4.14,0,0,1,3-1.66,5.79,5.79,0,0,1,.93,0,4.18,4.18,0,0,1,3.45,3.27,4.71,4.71,0,0,1,.08,1.24,2.19,2.19,0,0,1-.39,1.19,1.38,1.38,0,0,1-1.11.56,1.31,1.31,0,0,1-.95-.38,2.29,2.29,0,0,0-.21-.23,4.08,4.08,0,0,0-.33.25,2.17,2.17,0,0,1-1.21.36,2.13,2.13,0,0,1-2-1.45,2.31,2.31,0,0,1-.09-1,2.17,2.17,0,0,1,.67-1.25,2.12,2.12,0,0,1,1.44-.55,2,2,0,0,1,1.07.31,2.11,2.11,0,0,1,1,1.35,3.41,3.41,0,0,1,0,.9,1.18,1.18,0,0,0,.08.56.54.54,0,0,0,.48.28.6.6,0,0,0,.46-.25.81.81,0,0,0,.14-.33,3.36,3.36,0,0,0-.8-3,3.39,3.39,0,0,0-1.92-1.05,4.83,4.83,0,0,0-.76,0,3.26,3.26,0,0,0-2.12,1,3.44,3.44,0,0,0-.85,1.37,4.34,4.34,0,0,0-.16,1,3.5,3.5,0,0,0,.67,2,3.44,3.44,0,0,0,1.59,1.17,3.29,3.29,0,0,0,2.59-.18,1.47,1.47,0,0,1,.28-.14s.06,0,.09,0l.28.33a1.37,1.37,0,0,1,.18.24s-.05.06-.08.08a4.19,4.19,0,0,1-3.83.35,4.21,4.21,0,0,1-2-1.7,4.25,4.25,0,0,1-.61-1.92v-.58a4.21,4.21,0,0,1,.38-1.44A4.56,4.56,0,0,1,205.66,33.87Zm3.15,1.26a1.28,1.28,0,0,0-1.06,1.06,1.4,1.4,0,0,0,.08.7,1.26,1.26,0,0,0,1.13.77,1.23,1.23,0,0,0,.94-.38,1.28,1.28,0,0,0-1.09-2.15Z"/><path class="cls-12" d="M227.47,32.84a.53.53,0,0,1,.57.49.55.55,0,0,1-.35.55.87.87,0,0,1-.36,0,.54.54,0,0,1-.35-.37.58.58,0,0,1,.05-.39A.49.49,0,0,1,227.47,32.84Z"/><path class="cls-12" d="M228.83,33h.76a1.91,1.91,0,0,1,0,.41v4.77c0,.06,0,.15,0,.19h-.75c0-1,0-2,0-3C228.83,34.57,228.82,33.77,228.83,33Z"/><path class="cls-12" d="M218.81,34.74a1.78,1.78,0,0,1,.95-.3,1.67,1.67,0,0,1,1.35.67,1.85,1.85,0,0,1,.36,1.15c0,.69,0,1.37,0,2.06a.76.76,0,0,1-.3,0h-.47s0-.09,0-.14V36.1a.9.9,0,0,0-.85-.87.91.91,0,0,0-.74.34,1,1,0,0,0-.21.61v2.15h-.77v-2.2a1,1,0,0,0-.27-.63,1,1,0,0,0-.55-.27,1,1,0,0,0-.72.26.9.9,0,0,0-.26.64V38.2s0,.09,0,.14h-.72s-.07,0-.06-.08V34.6c.21,0,.43,0,.64,0a.25.25,0,0,1,.12,0c0,.06,0,.12,0,.18a1.44,1.44,0,0,1,.84-.33,1.72,1.72,0,0,1,1.07.35,3.08,3.08,0,0,1,.26.24C218.59,34.94,218.69,34.83,218.81,34.74Z"/><path class="cls-12" d="M223.91,34.47a2.9,2.9,0,0,1,.51,0,1.35,1.35,0,0,1,.56.13,3.12,3.12,0,0,1,.43.27,2.44,2.44,0,0,1,0-.27,4.26,4.26,0,0,0,.62,0c.05,0,.12,0,.14,0a1.29,1.29,0,0,1,0,.28c0,1.15,0,2.3,0,3.44h-.73c-.07-.06,0-.18,0-.27a1.85,1.85,0,0,1-.8.38,3.7,3.7,0,0,1-.47,0l-.26,0a2,2,0,0,1-1.62-1.72,1.35,1.35,0,0,1,0-.49,2,2,0,0,1,.67-1.3A2,2,0,0,1,223.91,34.47Zm0,.79a1.25,1.25,0,0,0-.94,1.16,1.25,1.25,0,0,0,1.25,1.28,1.2,1.2,0,0,0,.79-.31,1.26,1.26,0,0,0,.41-.94,1.35,1.35,0,0,0-.2-.68,1.24,1.24,0,0,0-.7-.51A1.79,1.79,0,0,0,224,35.26Z"/><path class="cls-12" d="M227.11,34.58h.78c0,1,0,2.06,0,3.1,0,.22,0,.44,0,.66h-.78c0-1,0-2.07,0-3.1C227.11,35,227.1,34.8,227.11,34.58Z"/><g id="layer1"><path id="path1139" class="cls-24" d="M175.27,48.18h1.58l.91,2.35.93-2.35h1.54l-2.31,5.56h-1.55l.63-1.47Z"/><path id="path1141" class="cls-24" d="M181.83,48.09a2,2,0,0,0-1.93,2.12,2,2,0,0,0,1.91,2.13,1.31,1.31,0,0,0,1.12-.49v.38h1.37v-4h-1.37v.37A1.38,1.38,0,0,0,181.83,48.09Zm.29,1.3a.83.83,0,1,1,0,1.65.83.83,0,0,1-.83-.81A.8.8,0,0,1,182.12,49.39Z"/><path id="path1145" class="cls-24" d="M184.78,52.23V46.39h1.44v2.17a1.33,1.33,0,0,1,1.05-.47,1.4,1.4,0,0,1,1.39,1.58v2.56h-1.43V50c0-.31-.15-.62-.49-.62a.56.56,0,0,0-.52.62v2.21Z"/><path id="path1147" class="cls-24" d="M191.12,48.09a2.13,2.13,0,1,0,2.17,2.16A2.1,2.1,0,0,0,191.12,48.09Zm0,1.31a.82.82,0,0,1,.81.83.83.83,0,0,1-.81.81.81.81,0,0,1-.81-.82A.78.78,0,0,1,191.13,49.4Z"/><path id="path1153" class="cls-24" d="M195.69,48.09a2.13,2.13,0,1,0,2.17,2.16A2.1,2.1,0,0,0,195.69,48.09Zm0,1.31a.82.82,0,0,1,.81.83.83.83,0,0,1-.81.81.81.81,0,0,1-.81-.82A.78.78,0,0,1,195.7,49.4Z"/><circle id="path1155" class="cls-24" cx="198.99" cy="51.36" r="0.96"/><path id="path1157" class="cls-24" d="M200.26,50.06h-1.72l1.53-3.67h1.71Z"/></g><g id="layer1-2" data-name="layer1"><path id="path2998" class="cls-25" d="M208.88,44.34l1.89.67v6.67l2.67-1.54-1.31-.62-.82-2.05,4.2,1.47v2.15l-4.74,2.73-1.89-1Z"/><g id="flowRoot3000"><path id="path3009" class="cls-25" d="M218.35,51.93v-5.7H220a1.74,1.74,0,0,1,1.18.37,1.18,1.18,0,0,1,.43.94,1.36,1.36,0,0,1-1,1.35h0a1.43,1.43,0,0,1,.92.44,1.32,1.32,0,0,1,.35.95,1.5,1.5,0,0,1-.52,1.19,2,2,0,0,1-1.33.45Zm.67-5.09v1.84h.68a1.29,1.29,0,0,0,.87-.27.93.93,0,0,0,.31-.74c0-.56-.36-.83-1.09-.83Zm0,2.44v2h.91a1.39,1.39,0,0,0,.91-.27,1,1,0,0,0,.32-.77c0-.67-.46-1-1.37-1Z"/><path id="path3011" class="cls-25" d="M223,47a.4.4,0,0,1-.29-.12.38.38,0,0,1-.13-.3.43.43,0,0,1,.42-.43.45.45,0,0,1,.31.12.43.43,0,0,1,.12.31.44.44,0,0,1-.12.3A.45.45,0,0,1,223,47Zm.32,5h-.65v-4h.65Z"/><path id="path3013" class="cls-25" d="M227.79,51.93h-.66V49.64c0-.86-.29-1.3-.92-1.3a1,1,0,0,0-.8.37,1.35,1.35,0,0,0-.32.93v2.29h-.66v-4h.66v.66h0a1.45,1.45,0,0,1,1.31-.75,1.22,1.22,0,0,1,1,.43,1.87,1.87,0,0,1,.36,1.24Z"/><path id="path3015" class="cls-25" d="M232.35,51.58c0,1.5-.72,2.24-2.15,2.24a2.79,2.79,0,0,1-1.29-.28l.17-.55a2.19,2.19,0,0,0,1.12.29c1,0,1.5-.52,1.5-1.59v-.44h0a1.46,1.46,0,0,1-1.37.77,1.51,1.51,0,0,1-1.22-.51,2.17,2.17,0,0,1-.46-1.46,2.51,2.51,0,0,1,.5-1.64,1.66,1.66,0,0,1,1.36-.61,1.28,1.28,0,0,1,1.19.65h0v-.56h.65Zm-.65-1.49v-.57a1.16,1.16,0,0,0-.33-.83,1,1,0,0,0-.8-.34,1.11,1.11,0,0,0-.94.44,1.94,1.94,0,0,0-.34,1.23,1.62,1.62,0,0,0,.32,1,1.15,1.15,0,0,0,1.74,0,1.47,1.47,0,0,0,.35-1Z"/></g></g><rect x="79.48" y="12.7" width="1.69" height="6.19"/><polygon points="77.08 12.7 75.43 17.21 73.77 12.7 72.08 12.7 74.36 18.9 74.81 18.9 76.05 18.9 76.5 18.9 78.77 12.7 77.08 12.7"/><path d="M87.14,14.07V12.7h-2V11H83.43v1.7H82.09v1.37h1.34v2.66c0,1.38.68,2.3,2.44,2.3a3.65,3.65,0,0,0,1.27-.25l-.2-1.34a3,3,0,0,1-.75.1c-.5,0-1.07-.22-1.07-.91V14.07Z"/><path d="M70.83,18.9h1.79L69.29,9.83H68L64.65,18.9h1.8l.64-1.73h3.1Zm-3.24-3.1,1-2.85,1,2.85Z"/><path d="M91,12.55a3.25,3.25,0,1,0,3.32,3.24A3.28,3.28,0,0,0,91,12.55m0,4.93a1.67,1.67,0,1,1,1.7-1.67A1.69,1.69,0,0,1,91,17.48"/><path d="M81.42,10.89A1.09,1.09,0,1,1,80.33,9.8a1.09,1.09,0,0,1,1.09,1.09"/><path class="cls-26" d="M54.68,10.8A2.85,2.85,0,1,1,51.83,8a2.84,2.84,0,0,1,2.85,2.85"/><path class="cls-27" d="M61.81,17.3a3.47,3.47,0,1,1-3.47-3.46,3.47,3.47,0,0,1,3.47,3.46"/><path class="cls-28" d="M60.57,10.8a2.23,2.23,0,1,1-2.23-2.23,2.23,2.23,0,0,1,2.23,2.23"/><path class="cls-29" d="M53.45,17.3a1.62,1.62,0,1,1-1.62-1.61,1.62,1.62,0,0,1,1.62,1.61"/><path class="cls-30" d="M14.61,41.24a6.36,6.36,0,0,1,1.31,0A1.92,1.92,0,0,1,17,43.93c-.54,1-1.08,1.94-1.64,2.89-.13-.06-.18-.2-.25-.31-.46-.82-.94-1.64-1.4-2.46a2,2,0,0,1-.11-1.85A1.9,1.9,0,0,1,14.61,41.24Zm.52.95a.87.87,0,0,0-.51,1.36.86.86,0,1,0,.51-1.36Z"/><path class="cls-30" d="M13,47.25c.56.45,1,1,1.54,1.49V47.37c.48,0,1,0,1.43,0,0,.92,0,1.85,0,2.77a11.16,11.16,0,0,0,1.21,1.27c-.49.52-1.05,1-1.48,1.54h-.13v-.06a4.5,4.5,0,0,0-.63-.68c-.65-.65-1.3-1.3-1.94-2-.89.91-1.82,1.78-2.68,2.71h-.06a10.89,10.89,0,0,0-1.47-1.49v-.14h.06a6.87,6.87,0,0,0,.83-.79C10.85,49.44,11.92,48.31,13,47.25Z"/><path class="cls-31" d="M28.46,52.77c1-1.84,2-3.72,3.06-5.56a7.74,7.74,0,0,1,.61,1c.86,1.5,1.65,3,2.46,4.57H33L32.68,52c-.74,0-1.49,0-2.23,0-.25.15-.23.57-.47.75C29.48,52.79,29,52.76,28.46,52.77ZM30.87,51h1.3c-.21-.46-.42-.92-.65-1.37C31.31,50,31.08,50.49,30.87,51Z"/><path class="cls-31" d="M35.46,47.17c1.27,1,2.5,2.08,3.75,3.1,0-1,0-1.93,0-2.89h1.29c0,1.84,0,3.69,0,5.53a8.11,8.11,0,0,1-1-.7L36.74,50v2.79H35.46C35.46,50.9,35.45,49,35.46,47.17Z"/><path class="cls-31" d="M20.69,48.16a3.29,3.29,0,0,1,4.39-.09c-.24.33-.47.66-.7,1a2.5,2.5,0,0,0-1.94-.52,1.5,1.5,0,0,0-1.07,1.59,1.59,1.59,0,0,0,1.22,1.5,2.88,2.88,0,0,0,2-.43l.62.91a3.79,3.79,0,0,1-2,.83h-.65A3,3,0,0,1,21,52.42,2.91,2.91,0,0,1,20.69,48.16Z"/><path class="cls-31" d="M26.24,47.38h1.43c0,1.81,0,3.61,0,5.42H26.24C26.25,51,26.24,49.18,26.24,47.38Z"/><path class="cls-31" d="M44,47.38a16.51,16.51,0,0,1,2.81.1,1.94,1.94,0,0,1,1.63,1.41,1.72,1.72,0,0,1-1,1.9c.38.66.73,1.32,1.11,2H47c-.29-.53-.59-1.05-.87-1.58l-.72.08c0,.5,0,1,0,1.52H44C44,51,44,49.18,44,47.38Zm1.43,1c0,.61,0,1.23,0,1.84A2.57,2.57,0,0,0,46.82,50a.84.84,0,0,0-.17-1.41A3.32,3.32,0,0,0,45.43,48.43Z"/><path class="cls-31" d="M49.63,47.36h1.46v2.58a3,3,0,0,0,.26,1.39,1.21,1.21,0,0,0,1.41.38c.54-.2.66-.85.69-1.36,0-1,0-2,0-3h1.47v0c0,.87,0,1.75,0,2.62a3.84,3.84,0,0,1-.35,1.68,2.21,2.21,0,0,1-1.83,1.17,2.94,2.94,0,0,1-2.33-.61,3,3,0,0,1-.76-2.13C49.62,49.22,49.64,48.29,49.63,47.36Z"/><path class="cls-31" d="M41.59,51.58H42.9v1.21H41.59Z"/><path d="M23.75,21.18h-.86c-.07,0-.1,0-.1.1v2.56H21.23V21.28c0-.07,0-.1-.11-.1H20.3c-.07,0-.1,0-.1.1v6.5c0,.07,0,.11.1.11h.86c.07,0,.1,0,.1-.11V24.66h1.56v3.12a.1.1,0,0,0,.11.11h.85a.1.1,0,0,0,.11-.11v-6.5c0-.07-.07-.1-.14-.1ZM42.92,27s0,0-.07,0c-.36,0-2.52,1-2.52-2.38,0-1.49.57-3.58,1.92-2.34a.11.11,0,0,0,.1,0s.07,0,.11-.11l.35-.6a.13.13,0,0,0,0-.11c0-.07-.07-.11-.14-.14-2.35-1.17-3.55,1-3.55,3.51,0,3.27,2.38,3.73,3.72,2.74a.14.14,0,0,0,.08-.14l0-.43ZM37.1,24.19l1.63-2.94a.07.07,0,0,0,0-.11h-.82c-.25,0-.32.07-.39.25s-1.28,2.7-1.42,2.8V21.25s0-.11-.07-.11h-.89s-.07,0-.07.11v6.53s0,.11.07.11H36c.07,0,.07,0,.07-.11V24.41c.1.07,1.6,3.16,1.63,3.26a.4.4,0,0,0,.39.22H39c.07,0,.07,0,0-.11L37.1,24.19ZM29.32,27h-.18c-.21,0-.24-.07-.24-.24V21.25c0-.07,0-.11-.08-.11H26.09a.1.1,0,0,0-.11.11c0,1.49,0,4-.95,5.78h-.29a.1.1,0,0,0-.11.11v1.95a.13.13,0,0,0,.11.11h.64a.2.2,0,0,0,.21-.21v-1.1h2.88v1.2a.11.11,0,0,0,.11.11h.71a.19.19,0,0,0,.17-.21V27.14c0-.07-.07-.11-.14-.11Zm-1.49,0h-2a9.33,9.33,0,0,0,1.1-5h.89v5Zm4.26-6C30.64,21,30,22.81,30,24.8c0,3.26,2.27,3.76,3.84,2.8a.09.09,0,0,0,.07-.1L33.76,27s0-.07-.11-.07c-.56,0-2.55,1-2.55-2.23a22.06,22.06,0,0,0,2.84.07c0-1.64-.22-3.8-1.85-3.8Zm-1,3c0-2.59,1.71-3.09,1.71-.07A13.1,13.1,0,0,0,31.13,24Z"/><path class="cls-9" d="M18.63,17.84H17.11c-1.53,0-2.84,1.13-2.84,3.34A2.91,2.91,0,0,0,16,24L14,27.67a.13.13,0,0,0,.1.22h1a.21.21,0,0,0,.18-.11l1.88-3.62h.68v3.62a.11.11,0,0,0,.1.11h.86c.07,0,.1,0,.1-.11V18C18.78,17.87,18.74,17.84,18.63,17.84Zm-.88,5.47h-.57c-2.45,0-2.27-4.62-.11-4.62h.71v4.62Z"/><path d="M11.9,31.74V33.4h1.3V31.74h.33v3.69H13.2V33.7H11.9v1.73h-.33V31.74Z"/><path d="M14.59,33.44c0,1.49.52,1.74.93,1.74a1,1,0,0,0,.56-.15l.07.26a1.27,1.27,0,0,1-.69.18c-.8,0-1.2-.76-1.2-1.87s.42-1.92,1.09-1.92.93.89.93,1.55v.21Zm1.34-.27c0-.9-.36-1.2-.63-1.2-.43,0-.66.61-.7,1.2Z"/><path d="M18.88,31.74v3.39h.29l0,1.26h-.26l0-1h-2l0,1h-.26l0-1.26h.2a3.47,3.47,0,0,0,.39-.8,4.75,4.75,0,0,0,.2-1.47V31.74Zm-1.24,1a5.27,5.27,0,0,1-.2,1.68,3.09,3.09,0,0,1-.33.74h1.44V32h-.91Z"/><path d="M19.87,31.74a4.39,4.39,0,0,1,.67-.06c.59,0,1.22.21,1.22.9a.94.94,0,0,1-.75.89h0a1,1,0,0,1,.9,1c0,.79-.7,1.05-1.38,1.05a5.52,5.52,0,0,1-.66,0Zm.33,3.44.33,0c.52,0,1-.17,1-.77s-.59-.8-1.1-.8H20.2Zm0-1.83h.3c.36,0,.92-.28.92-.73S21,32,20.53,32l-.33,0Z"/><path d="M22.94,31.74V33.3c0,.61,0,1.1,0,1.81h0c.19-.55.43-1.15.63-1.66l.65-1.71h.41v3.69H24.3V34c0-.83,0-1.28.05-1.89h0c-.15.5-.33,1-.5,1.42s-.5,1.24-.81,1.94h-.41V31.74Z"/><path d="M25.61,31.74l1.1,1.69h.11V31.74h.31v1.69h.12l1.1-1.69h.4l-1.21,1.71a1.21,1.21,0,0,1,1,1,5.64,5.64,0,0,0,.29,1h-.33a4.27,4.27,0,0,1-.26-.77c-.21-.79-.55-1-1-1h-.06v1.75h-.31V33.68h-.05c-.69,0-.82.27-1.05,1a3.54,3.54,0,0,1-.25.72h-.32a6.5,6.5,0,0,0,.29-.91c.17-.54.43-1,1-1.07l-1.21-1.71Z"/><path d="M29.66,31.74V33.3c0,.61,0,1.1,0,1.81h0c.19-.55.44-1.15.63-1.66l.66-1.71h.41v3.69H31V34c0-.83,0-1.28.05-1.89h0c-.14.5-.33,1-.5,1.42s-.5,1.24-.8,1.94h-.41V31.74Z"/><path d="M32.35,31.74h.36l.62,1.89c.16.5.26.81.38,1.24h0c.13-.47.21-.72.37-1.24l.6-1.89h.37l.26,3.69H35l-.09-1.78c0-.57-.05-.88-.06-1.54h0c-.1.42-.23.83-.39,1.35l-.63,2h-.2L33,33.57c-.19-.58-.31-1-.43-1.46h0c0,.47,0,1-.05,1.59l-.09,1.73h-.31Z"/><path d="M38.08,33.58c0,1.36-.55,1.91-1.12,1.91s-1.06-.55-1.06-1.91.54-1.9,1.12-1.9S38.08,32.22,38.08,33.58Zm-1.84,0c0,.6.12,1.61.75,1.61s.74-1,.74-1.61S37.62,32,37,32,36.24,33,36.24,33.58Z"/><path d="M40.44,35.32a1.12,1.12,0,0,1-.59.15c-.73,0-1.23-.65-1.23-1.88,0-1,.45-1.91,1.31-1.91a1,1,0,0,1,.51.13l-.11.29a.87.87,0,0,0-.45-.12c-.67,0-.92.86-.92,1.63,0,1,.36,1.57.95,1.57a.93.93,0,0,0,.46-.12Z"/><path d="M42.83,31.74V32H42v3.4h-.33V32H40.8v-.29Z"/><path d="M43.62,31.74v1.38l.34,0c.72,0,1.34.36,1.34,1.14a1.11,1.11,0,0,1-.37.87,1.52,1.52,0,0,1-1,.35,4.32,4.32,0,0,1-.62-.05V31.74Zm0,3.41.3,0c.57,0,1-.29,1-.9s-.49-.89-1.06-.89l-.27,0Z"/><path d="M90.75,54.85c-.26.49-.62.46-1,.46V57a4,4,0,0,0,.81.07,1.87,1.87,0,0,0,1.82-1.2A17.4,17.4,0,0,0,93,51.59h1.89v5.28h1.82V50H91.37A24.91,24.91,0,0,1,90.75,54.85Z"/><path d="M86.08,49.84a3.24,3.24,0,0,0-3.29,2.8h-.93V50H80v6.85h1.82V54.21h.93A3.22,3.22,0,0,0,86.08,57a3.3,3.3,0,0,0,3.35-3.59A3.3,3.3,0,0,0,86.08,49.84Zm0,5.52c-.93,0-1.57-.74-1.57-1.94s.64-2,1.57-2,1.58.74,1.58,2S87,55.36,86.08,55.36Z"/><path d="M101,49.84a8.91,8.91,0,0,0-2.59.37v1.63a7.35,7.35,0,0,1,2.34-.37c1.5,0,1.66.76,1.66,1.11v.13a10,10,0,0,0-1.52-.13c-2.51,0-3,1.31-3,2.22A2.23,2.23,0,0,0,100.38,57a2.78,2.78,0,0,0,2.1-.89h.07v.71h1.66V53C104.21,51.81,104,49.84,101,49.84Zm1.43,4.9a1.9,1.9,0,0,1-1.57.73c-.69,0-1-.3-1-.74s.35-.84,1.57-.84h1v.85Z"/><path class="cls-32" d="M70.52,56.71A10.1,10.1,0,0,1,77,50.27a.4.4,0,0,0,.25-.5.39.39,0,0,0-.25-.25,10,10,0,0,1-6.44-6.43.39.39,0,0,0-.5-.25.32.32,0,0,0-.24.25,10.07,10.07,0,0,1-6.44,6.43.4.4,0,0,0-.25.5.37.37,0,0,0,.25.25,10.08,10.08,0,0,1,6.44,6.44.38.38,0,0,0,.49.24A.4.4,0,0,0,70.52,56.71Z"/><path class="cls-33" d="M63.34,50.27a10.08,10.08,0,0,1,6.44,6.44.38.38,0,0,0,.49.24.34.34,0,0,0,.25-.24A10.1,10.1,0,0,1,77,50.27a23.42,23.42,0,0,1-6.81.85A23.32,23.32,0,0,1,63.34,50.27Z"/><path class="cls-34" d="M64.24,26.21c.05,0,.12-.07.17,0L70,29.55c0,.95,0,1.89,0,2.84H68c0-.55,0-1.11,0-1.66l-.25-.16-3.16-1.91-.24-.13c-1,.6-2,1.22-3,1.82-.2.12-.4.24-.58.37V36a2.79,2.79,0,0,0,.58,0h3c0,.68,0,1.35,0,2H58.7V31.26c0-.57,0-1.14,0-1.7Z"/><path class="cls-35" d="M92.73,30.27c.55,0,1.09,0,1.64,0-.47.43-.91.9-1.37,1.35s-1,1-1.43,1.43c.93.92,1.85,1.86,2.79,2.77-.53,0-1,0-1.58,0-.08,0-.12-.07-.17-.12-.72-.72-1.45-1.44-2.16-2.17,0,.77,0,1.53,0,2.29H89.21c0-1.84,0-3.69,0-5.53.42,0,.83,0,1.25,0,0,.77,0,1.53,0,2.29C91.2,31.79,92,31,92.73,30.27Z"/><path class="cls-35" d="M73.21,30.27c1.35,0,2.69,0,4,0,0,1.46,0,2.92,0,4.39H78c0,.65,0,1.29,0,1.93H76.86c0-.26,0-.52,0-.78H73.09c0,.26,0,.52,0,.78H72V34.66h.66a5,5,0,0,0,.5-1.35,7.2,7.2,0,0,0,.09-1.14Zm1.22,1.22c0,.46,0,.91,0,1.36A6.36,6.36,0,0,1,74,34.67h2V31.49Z"/><path class="cls-35" d="M80.15,31.67a2.18,2.18,0,0,1,1.67.31,2.31,2.31,0,0,1,.86,1.24,2.13,2.13,0,0,1-3.53,2.06,2.22,2.22,0,0,1-.66-1.54,2.46,2.46,0,0,1,.32-1.12A2.11,2.11,0,0,1,80.15,31.67Zm.16,1a1.09,1.09,0,0,0-.7.69,1.07,1.07,0,0,0,1.67,1.17,1.08,1.08,0,0,0,.36-1.1A1.07,1.07,0,0,0,80.31,32.72Z"/><path class="cls-35" d="M83.58,35.81c0-1.38,0-2.75,0-4.12h1L85.87,33l1.3-1.3h1c0,1.37,0,2.74,0,4.11H87c0-.76,0-1.52,0-2.27-.38.4-.78.78-1.16,1.17l-1.15-1.16c0,.75,0,1.5,0,2.25Z"/><path class="cls-35" d="M95.53,31.69H99c0,1.37,0,2.74,0,4.12H97.88v-3c-.4,0-.81,0-1.21,0A4.54,4.54,0,0,1,96.38,35a1.81,1.81,0,0,1-1.6.88l0-1a.86.86,0,0,0,.61-.37,2.1,2.1,0,0,0,.16-1.08Z"/><path class="cls-35" d="M100.07,31.7h1.15c0,.75,0,1.5,0,2.24.6-.75,1.22-1.49,1.83-2.24h1v4.11h-1.15V33.57l-1.83,2.24h-1Z"/><path class="cls-35" d="M105.08,31.7h1.15c0,.54,0,1.09,0,1.63.53-.55,1.07-1.08,1.61-1.63h1.5c-.68.69-1.36,1.38-2.06,2.06.7.68,1.38,1.37,2.06,2.05h-1.49c-.54-.54-1.09-1.07-1.62-1.62,0,.54,0,1.08,0,1.62h-1.15Z"/><path class="cls-36" d="M64.35,32.39H70c-.51.54-1,1.06-1.57,1.59l-.44.43H66.36V36c-.42.46-.88.89-1.32,1.34-.23.23-.45.47-.69.69,0-.68,0-1.35,0-2C64.35,34.81,64.35,33.6,64.35,32.39Z"/><path class="cls-2" d="M144.88,113.85h-34.7a9,9,0,0,1-9-9h0a9,9,0,0,1,9-9h34.7a9,9,0,0,1,9,9h0A9,9,0,0,1,144.88,113.85Z"/><path class="cls-37" d="M115.88,109.65h-7.1v-7.5l7.1,2.7Z"/><path class="cls-1" d="M118.28,109.65h-7v-9.1l7-2.6Z"/><path class="cls-38" d="M111.38,103.05l4.4,1.8v4.8h-4.4Z"/><path class="cls-5" d="M125.48,102.15h1.4v7.5h-1.4v-4.8h0l-2.3,4.8h-1.4v-7.5h1.4V107h0Z"/><path class="cls-5" d="M131.38,107.65h0l1.4-5.6h1.9v7.5h-1.4v-4.8h0l-1.4,4.8h-1.1l-1.4-4.7h0v4.7H128v-7.5h1.9Z"/><path class="cls-5" d="M141.38,102.15v7.5H140v-6.4h-1.6v2.2a6.47,6.47,0,0,1-.6,3.2,1.68,1.68,0,0,1-1.9.9h-.2v-1.2h.2a.76.76,0,0,0,.8-.6,19.53,19.53,0,0,0,.2-2.3v-3.4l4.5.1Z"/><path class="cls-5" d="M147.38,107.35h0a2.56,2.56,0,0,1-.6,1.9,2.21,2.21,0,0,1-1.9.6,2.44,2.44,0,0,1-2.7-2.7v-2.3a2.88,2.88,0,0,1,.7-2,2.64,2.64,0,0,1,1.9-.7,2.27,2.27,0,0,1,2.6,2.4H146a2.15,2.15,0,0,0-.2-1.1,1.52,1.52,0,0,0-.8-.4c-.4,0-.7.1-.8.4a1.32,1.32,0,0,0-.2,1.2v2.2a1.37,1.37,0,0,0,.4,1.2,1.49,1.49,0,0,0,.9.4.91.91,0,0,0,.8-.4,2.15,2.15,0,0,0,.2-1.1Z"/><path class="cls-39" d="M104.33,137.16h-2.45v-9.33H98v9.33H95.54v-11.1h8.79Z"/><path class="cls-39" d="M113.3,126.23a2.16,2.16,0,0,1,1.23,1.1,5.16,5.16,0,0,1,.37,2.2,5.65,5.65,0,0,1-.35,2.22,2,2,0,0,1-1.15,1.1,6.25,6.25,0,0,1-2.22.32,16.07,16.07,0,0,1-2.09-.13v4.12h-2.46v-11.1c.63-.07,1.23-.11,1.79-.12s1.38,0,2.44,0A7.41,7.41,0,0,1,113.3,126.23Zm-1.5,4.89a.83.83,0,0,0,.49-.51,4,4,0,0,0,0-2.16.88.88,0,0,0-.49-.51,2.59,2.59,0,0,0-1-.15h-1.71v3.5h1.71A3,3,0,0,0,111.8,131.12Z"/><path class="cls-39" d="M123.72,126.36a3,3,0,0,1,1.48,1.76,10.43,10.43,0,0,1,.46,3.49,10.33,10.33,0,0,1-.46,3.48,3,3,0,0,1-1.48,1.76,7.91,7.91,0,0,1-5.64,0,3.08,3.08,0,0,1-1.47-1.75,13.47,13.47,0,0,1,0-7,3.11,3.11,0,0,1,1.47-1.76,8.05,8.05,0,0,1,5.64,0Zm-4.14,1.8a1.93,1.93,0,0,0-.66,1.15,10.35,10.35,0,0,0-.19,2.3,10.47,10.47,0,0,0,.19,2.3,1.9,1.9,0,0,0,.66,1.14,2.73,2.73,0,0,0,2.64,0,1.9,1.9,0,0,0,.66-1.14,10.47,10.47,0,0,0,.19-2.3,10.35,10.35,0,0,0-.19-2.3,1.93,1.93,0,0,0-.66-1.15,2.81,2.81,0,0,0-2.64,0Z"/><path class="cls-39" d="M137.54,135.39v4.2H135.8l-.18-2.43h-7.37l-.19,2.43h-1.74v-4.2h1.18a17.49,17.49,0,0,0,.95-3.28,34.65,34.65,0,0,0,.5-3.74,2.46,2.46,0,0,1,.77-1.68,2.58,2.58,0,0,1,1.82-.63h4.55v9.33Zm-3.9,0v-7.56h-1.43a1,1,0,0,0-.7.21,1.16,1.16,0,0,0-.25.74,32.44,32.44,0,0,1-.51,3.83,12,12,0,0,1-.95,2.78Z"/><path class="cls-39" d="M145.05,134.25h-3.81l-.81,2.91h-2.51l3.2-10.46a.83.83,0,0,1,.31-.47.94.94,0,0,1,.55-.17h2.31a.89.89,0,0,1,.56.17.81.81,0,0,1,.3.47l3.2,10.46h-2.5Zm-.53-1.9-.93-3.4c-.13-.53-.21-.88-.23-1h-.43l-.24,1-.94,3.4Z"/><path class="cls-39" d="M156.83,128.05h-3.32v9.11h-2.46v-9.11h-3.31v-2h9.09Z"/><path class="cls-39" d="M164.78,130.51a2.18,2.18,0,0,1,1.24,1.1,6.32,6.32,0,0,1,0,4.29,2.15,2.15,0,0,1-1.15,1.07,5.72,5.72,0,0,1-2.1.32c-1.09,0-1.95,0-2.57,0s-1.24,0-1.87-.1h-.06v-11.1h2.44v4.12h1.64A7.07,7.07,0,0,1,164.78,130.51Zm-1.41,4.74a.76.76,0,0,0,.45-.49,3.6,3.6,0,0,0,.12-1.08,3.73,3.73,0,0,0-.12-1.08.88.88,0,0,0-.45-.53,2.21,2.21,0,0,0-1-.17h-1.64v3.49h1.64A2.82,2.82,0,0,0,163.37,135.25Z"/><path class="cls-39" d="M89.81,144.81v7.89H88.06v-3.53H85.29v3.53H83.55v-7.89h1.74v3h2.77v-3Z"/><path class="cls-39" d="M96.69,151.34l.07,1.28c-.47,0-1,.08-1.55.09l-2.11,0a1.76,1.76,0,0,1-1.25-.43,1.46,1.46,0,0,1-.47-1.16v-4.78a1.52,1.52,0,0,1,.47-1.16,1.84,1.84,0,0,1,1.25-.43l2.11,0a14.43,14.43,0,0,1,1.55.1l-.07,1.29h-3a.55.55,0,0,0-.41.14.66.66,0,0,0-.12.44V148h3.14v1.26H93.12v1.52a.7.7,0,0,0,.12.46.55.55,0,0,0,.41.14Z"/><path class="cls-39" d="M105.39,151.44v3h-1.23L104,152.7H98.8l-.14,1.72H97.43v-3h.83a12.78,12.78,0,0,0,.68-2.33,24.25,24.25,0,0,0,.35-2.66,1.73,1.73,0,0,1,.55-1.19,1.84,1.84,0,0,1,1.29-.45h3.24v6.63Zm-2.76,0v-5.37h-1a.71.71,0,0,0-.5.15.78.78,0,0,0-.17.52,24.58,24.58,0,0,1-.37,2.73,8.62,8.62,0,0,1-.67,2Z"/><path class="cls-39" d="M112.1,149.23a2.52,2.52,0,0,1,.37,1.5,2.39,2.39,0,0,1-.27,1.25,1.48,1.48,0,0,1-.85.62,5,5,0,0,1-1.54.19l-1.92,0c-.47,0-.94,0-1.42-.07v-7.89c.43,0,.85-.06,1.27-.08h1.7a6.49,6.49,0,0,1,1.66.17,1.45,1.45,0,0,1,.86.63,2.5,2.5,0,0,1,.26,1.25,2.2,2.2,0,0,1-.32,1.3,1.38,1.38,0,0,1-1.05.51v0A1.62,1.62,0,0,1,112.1,149.23Zm-1.66-2.83a.56.56,0,0,0-.36-.29,2.68,2.68,0,0,0-.73-.08h-1.18v2h1.28a1.42,1.42,0,0,0,.87-.2,1.11,1.11,0,0,0,.23-.82A1.41,1.41,0,0,0,110.44,146.4Zm-.18,5a.57.57,0,0,0,.36-.32,1.48,1.48,0,0,0,.11-.67,2,2,0,0,0-.11-.74.7.7,0,0,0-.38-.36,2.23,2.23,0,0,0-.78-.11h-1.29v2.28h1.33A2.87,2.87,0,0,0,110.26,151.39Z"/><path class="cls-39" d="M120.27,152.7H118.6V148a5.46,5.46,0,0,1,.1-1.07h-.08a5.54,5.54,0,0,1-.45,1l-2.66,4.74h-1.73v-7.89h1.66v4.63a7.61,7.61,0,0,1-.09,1.1h.07a7.06,7.06,0,0,1,.46-1l2.66-4.7h1.73Z"/><path class="cls-39" d="M130.06,149.06a2.7,2.7,0,0,1,.67,1c.18.45.43,1.2.75,2.26a2.5,2.5,0,0,1,.12.36h-1.83c0-.09-.05-.18-.09-.27a2.76,2.76,0,0,1-.08-.27c-.29-.89-.51-1.52-.66-1.88a2.19,2.19,0,0,0-.48-.8,1,1,0,0,0-.73-.26h-.52a3.63,3.63,0,0,1,.09.76v2.72h-1.67V150a3.63,3.63,0,0,1,.09-.76h-.56a1,1,0,0,0-.71.26,2.45,2.45,0,0,0-.48.79c-.14.35-.36,1-.65,1.85l-.18.58h-1.83l.13-.44c.32-1,.56-1.76.74-2.2a2.66,2.66,0,0,1,.67-1,2,2,0,0,1,1.13-.45v0a1.87,1.87,0,0,1-1-.42,2.38,2.38,0,0,1-.61-.89c-.15-.37-.36-1-.62-1.81l-.2-.63h1.78l.11.36c.25.79.45,1.36.58,1.71a2.55,2.55,0,0,0,.48.81.94.94,0,0,0,.69.28h.56a5.13,5.13,0,0,1-.09-.93v-2.23h1.67V147a5.37,5.37,0,0,1-.08.93h.5a.94.94,0,0,0,.7-.28,2.38,2.38,0,0,0,.48-.8c.13-.35.33-.92.58-1.69l.13-.39h1.77l-.18.58c-.26.85-.47,1.47-.63,1.85a2.55,2.55,0,0,1-.61.9,1.94,1.94,0,0,1-1,.42v0A2.05,2.05,0,0,1,130.06,149.06Z"/><path class="cls-39" d="M139.12,152.7h-1.67V148a5.46,5.46,0,0,1,.1-1.07h-.08a6.23,6.23,0,0,1-.44,1l-2.67,4.74h-1.72v-7.89h1.65v4.63a7.61,7.61,0,0,1-.09,1.1h.07a7.06,7.06,0,0,1,.46-1l2.66-4.7h1.73Z"/><path class="cls-39" d="M149.43,145.46l.3,7.24h-1.65l-.25-6.53h-.21l-1.19,4.88a.63.63,0,0,1-.69.56h-1.15a.67.67,0,0,1-.72-.56l-1.2-4.88h-.19l-.23,6.53h-1.63l.28-7.24c0-.43.23-.65.65-.65h1.68a.65.65,0,0,1,.69.56l1,3.93q.06.24.09.42a1.54,1.54,0,0,0,.05.3l.07.39h.14l.07-.39c0-.07,0-.17,0-.3s.05-.26.09-.42l.95-3.93a.65.65,0,0,1,.71-.56h1.68A.59.59,0,0,1,149.43,145.46Z"/><path class="cls-39" d="M156.31,145a2.17,2.17,0,0,1,1.05,1.25,9.73,9.73,0,0,1,0,4.95,2.17,2.17,0,0,1-1.05,1.25,4.63,4.63,0,0,1-2,.36,4.56,4.56,0,0,1-2-.36,2.17,2.17,0,0,1-1.05-1.25,7.6,7.6,0,0,1-.32-2.48,7.68,7.68,0,0,1,.32-2.48A2.15,2.15,0,0,1,152.3,145a4.4,4.4,0,0,1,2-.37A4.48,4.48,0,0,1,156.31,145Zm-2.95,1.28a1.34,1.34,0,0,0-.47.81,7.54,7.54,0,0,0-.13,1.63,7.65,7.65,0,0,0,.13,1.64,1.34,1.34,0,0,0,.47.81,1.57,1.57,0,0,0,.94.24,1.59,1.59,0,0,0,.94-.24,1.39,1.39,0,0,0,.47-.81,7.65,7.65,0,0,0,.13-1.64,7.54,7.54,0,0,0-.13-1.63,1.39,1.39,0,0,0-.47-.81,1.59,1.59,0,0,0-.94-.24A1.57,1.57,0,0,0,153.36,146.31Z"/><path class="cls-39" d="M163.38,144.73a7.93,7.93,0,0,1,1.07.2l-.15,1.31c-.62,0-1.35-.06-2.22-.06a1.55,1.55,0,0,0-.9.23,1.29,1.29,0,0,0-.45.78,6.89,6.89,0,0,0-.13,1.56,7.05,7.05,0,0,0,.13,1.57,1.35,1.35,0,0,0,.45.78,1.56,1.56,0,0,0,.9.22h1.38a8.26,8.26,0,0,0,1-.09l.15,1.29a6.35,6.35,0,0,1-1.13.25,10.92,10.92,0,0,1-1.4.07,4.11,4.11,0,0,1-2-.39,2.25,2.25,0,0,1-1-1.28,9.2,9.2,0,0,1,0-4.81,2.25,2.25,0,0,1,1-1.28,4,4,0,0,1,2-.4A11.22,11.22,0,0,1,163.38,144.73Z"/><path class="cls-39" d="M171.6,146.23h-2.36v6.47h-1.75v-6.47h-2.35v-1.42h6.46Z"/><path class="cls-39" d="M177.24,148a1.6,1.6,0,0,1,.89.78,3.56,3.56,0,0,1,.27,1.53,3.48,3.48,0,0,1-.27,1.52,1.44,1.44,0,0,1-.81.76,4.05,4.05,0,0,1-1.49.23l-1.83,0c-.44,0-.88,0-1.33-.07h0v-7.89h1.74v2.92h1.17A4.86,4.86,0,0,1,177.24,148Zm-1,3.37a.51.51,0,0,0,.32-.35,2.37,2.37,0,0,0,.09-.76,2.52,2.52,0,0,0-.09-.77.61.61,0,0,0-.32-.38,1.59,1.59,0,0,0-.71-.12h-1.17v2.48h1.17A1.81,1.81,0,0,0,176.24,151.34Z"/><path class="cls-39" d="M99.79,159.21a9.88,9.88,0,0,1,1.07.2l-.15,1.31q-.92-.06-2.22-.06a1.55,1.55,0,0,0-.9.23,1.29,1.29,0,0,0-.45.78,6.89,6.89,0,0,0-.13,1.56,7.05,7.05,0,0,0,.13,1.57,1.35,1.35,0,0,0,.45.78,1.56,1.56,0,0,0,.9.22h1.38a8.26,8.26,0,0,0,1-.09L101,167a6.44,6.44,0,0,1-1.12.25,11.2,11.2,0,0,1-1.41.07,4.11,4.11,0,0,1-1.95-.39,2.25,2.25,0,0,1-1-1.28,9.2,9.2,0,0,1,0-4.81,2.25,2.25,0,0,1,1-1.28,4,4,0,0,1,1.95-.4A11.22,11.22,0,0,1,99.79,159.21Z"/><path class="cls-39" d="M106.89,159.41a1.58,1.58,0,0,1,.88.78,3.84,3.84,0,0,1,.26,1.57,4,4,0,0,1-.25,1.58,1.46,1.46,0,0,1-.82.78,4.4,4.4,0,0,1-1.57.22,12.29,12.29,0,0,1-1.49-.09v2.93h-1.75v-7.89c.45,0,.88-.08,1.28-.09h1.73A5.23,5.23,0,0,1,106.89,159.41Zm-1.06,3.48a.64.64,0,0,0,.35-.37,2.14,2.14,0,0,0,.1-.76,2.2,2.2,0,0,0-.1-.77.62.62,0,0,0-.35-.36,1.9,1.9,0,0,0-.72-.11H103.9V163h1.21A1.9,1.9,0,0,0,105.83,162.89Z"/><path class="cls-39" d="M113.46,165.11h-2.71l-.57,2.07h-1.79l2.28-7.43a.55.55,0,0,1,.22-.34.65.65,0,0,1,.39-.12h1.64a.68.68,0,0,1,.4.12.53.53,0,0,1,.21.34l2.27,7.43H114Zm-.38-1.35-.66-2.41a7.6,7.6,0,0,1-.16-.75H112l-.17.75-.66,2.41Z"/><path class="cls-39" d="M120.43,159.37a1.38,1.38,0,0,1,.84.63,2.5,2.5,0,0,1,.26,1.25,2.2,2.2,0,0,1-.32,1.3,1.32,1.32,0,0,1-1,.51v.05a1.55,1.55,0,0,1,1.22.6,2.52,2.52,0,0,1,.37,1.5,2.39,2.39,0,0,1-.27,1.25,1.46,1.46,0,0,1-.83.63,5.05,5.05,0,0,1-1.51.18,16,16,0,0,1-1.67-.08,9.09,9.09,0,0,1-1.34-.26l.12-1.21a15.91,15.91,0,0,0,2.56.22,2.08,2.08,0,0,0,.7-.09.61.61,0,0,0,.34-.31,1.61,1.61,0,0,0,.11-.66,1.94,1.94,0,0,0-.11-.72.65.65,0,0,0-.36-.35,2.21,2.21,0,0,0-.72-.1l-1.52,0v-1.2l1.5,0a1.27,1.27,0,0,0,.82-.2,1.09,1.09,0,0,0,.21-.78,1,1,0,0,0-.23-.77,1.44,1.44,0,0,0-.88-.2,21.36,21.36,0,0,0-2.25.15l-.13-1.26a10.6,10.6,0,0,1,1.13-.16c.39,0,.84-.05,1.37-.05A6.2,6.2,0,0,1,120.43,159.37Z"/><path class="cls-39" d="M129,159.29l-1.93,5.85a6.19,6.19,0,0,1-.51,1.21,1.83,1.83,0,0,1-1.75,1c-.25,0-.52,0-.84-.05s-.57-.08-.79-.13l.2-1.24.39,0h.43a1.94,1.94,0,0,0,.55-.06.64.64,0,0,0,.32-.21,1.92,1.92,0,0,0,.24-.46l.08-.25H125a1,1,0,0,1-.66-.2,1.35,1.35,0,0,1-.36-.59l-1.62-4.86h1.78l1.25,4.17a.23.23,0,0,0,.07.1.2.2,0,0,0,.13,0h.29l1.36-4.31Z"/><path class="cls-39" d="M137.93,163.71a2.52,2.52,0,0,1,.37,1.5,2.39,2.39,0,0,1-.27,1.25,1.54,1.54,0,0,1-.85.63,5.32,5.32,0,0,1-1.54.18l-1.92,0c-.47,0-.94,0-1.42-.07v-7.89c.43,0,.85-.06,1.27-.08h1.7a6.49,6.49,0,0,1,1.66.17,1.45,1.45,0,0,1,.86.63,2.5,2.5,0,0,1,.26,1.25,2.2,2.2,0,0,1-.32,1.3,1.35,1.35,0,0,1-1,.51v.05A1.62,1.62,0,0,1,137.93,163.71Zm-1.66-2.83a.59.59,0,0,0-.36-.29,2.68,2.68,0,0,0-.73-.08H134v2h1.28a1.42,1.42,0,0,0,.87-.2,1.11,1.11,0,0,0,.23-.82A1.41,1.41,0,0,0,136.27,160.88Zm-.18,5a.57.57,0,0,0,.36-.32,1.48,1.48,0,0,0,.11-.67,2,2,0,0,0-.11-.74.7.7,0,0,0-.38-.36,2.23,2.23,0,0,0-.78-.11H134V166h1.33A2.87,2.87,0,0,0,136.09,165.87Z"/><path class="cls-39" d="M144.85,165.82l.07,1.28q-.71.08-1.56.09c-.56,0-1.26,0-2.1,0a1.8,1.8,0,0,1-1.26-.43,1.49,1.49,0,0,1-.47-1.16v-4.78a1.49,1.49,0,0,1,.48-1.16,1.82,1.82,0,0,1,1.25-.43l2.1,0c.57,0,1.09,0,1.56.1l-.07,1.29h-3a.53.53,0,0,0-.41.14.61.61,0,0,0-.13.44v1.2h3.15v1.26h-3.15v1.52a.63.63,0,0,0,.13.46.53.53,0,0,0,.41.14Z"/><path class="cls-39" d="M150,159.37a1.38,1.38,0,0,1,.84.63,2.51,2.51,0,0,1,.25,1.25,2.13,2.13,0,0,1-.32,1.3,1.31,1.31,0,0,1-1,.51v.05a1.57,1.57,0,0,1,1.23.6,2.59,2.59,0,0,1,.36,1.5,2.5,2.5,0,0,1-.26,1.25,1.49,1.49,0,0,1-.83.63,5.14,5.14,0,0,1-1.51.18,16,16,0,0,1-1.68-.08,9.35,9.35,0,0,1-1.34-.26l.13-1.21a15.72,15.72,0,0,0,2.56.22,2.05,2.05,0,0,0,.69-.09.63.63,0,0,0,.35-.31,1.83,1.83,0,0,0,.1-.66,1.94,1.94,0,0,0-.11-.72.59.59,0,0,0-.36-.35,2.21,2.21,0,0,0-.72-.1l-1.52,0v-1.2l1.51,0a1.22,1.22,0,0,0,.81-.2,1,1,0,0,0,.22-.78,1,1,0,0,0-.24-.77,1.38,1.38,0,0,0-.87-.2,21,21,0,0,0-2.25.15l-.14-1.26a10.43,10.43,0,0,1,1.14-.16c.38,0,.84-.05,1.36-.05A6.23,6.23,0,0,1,150,159.37Z"/><path class="cls-39" d="M160,165.92v3h-1.24l-.12-1.72h-5.24l-.13,1.72H152v-3h.84a13.62,13.62,0,0,0,.68-2.33,24.35,24.35,0,0,0,.34-2.66,1.78,1.78,0,0,1,.55-1.19,1.85,1.85,0,0,1,1.3-.45H159v6.63Zm-2.77,0v-5.37h-1a.7.7,0,0,0-.5.15.84.84,0,0,0-.18.52,22.66,22.66,0,0,1-.36,2.73,8.63,8.63,0,0,1-.68,2Z"/><path class="cls-39" d="M166.33,165.82l.07,1.28c-.47.05-1,.08-1.55.09s-1.27,0-2.11,0a1.8,1.8,0,0,1-1.26-.43,1.49,1.49,0,0,1-.46-1.16v-4.78a1.49,1.49,0,0,1,.47-1.16,1.82,1.82,0,0,1,1.25-.43l2.11,0c.56,0,1.08,0,1.55.1l-.07,1.29h-3a.53.53,0,0,0-.41.14.61.61,0,0,0-.13.44v1.2h3.15v1.26h-3.15v1.52a.63.63,0,0,0,.13.46.53.53,0,0,0,.41.14Z"/></g></svg>