<?xml version="1.0" encoding="utf-8"?>
<!-- Generator: Adobe Illustrator 25.0.0, SVG Export Plug-In . SVG Version: 6.00 Build 0)  -->
<svg version="1.1" id="Layer_1" xmlns="http://www.w3.org/2000/svg" xmlns:xlink="http://www.w3.org/1999/xlink" x="0px" y="0px"
	 viewBox="0 0 380 380" style="enable-background:new 0 0 380 380;" xml:space="preserve">
<style type="text/css">
	.st0{fill-rule:evenodd;clip-rule:evenodd;fill:none;}
	.st1{fill:url(#SVGID_1_);}
	.st2{fill-rule:evenodd;clip-rule:evenodd;fill:url(#SVGID_2_);}
	.st3{fill-rule:evenodd;clip-rule:evenodd;fill:url(#SVGID_3_);}
	.st4{fill-rule:evenodd;clip-rule:evenodd;fill:url(#SVGID_4_);}
	.st5{clip-path:url(#SVGID_6_);}
	.st6{opacity:0.3;fill:url(#SVGID_7_);enable-background:new    ;}
	.st7{opacity:0.5;fill:#D5E5FB;enable-background:new    ;}
	.st8{opacity:0.5;}
	.st9{opacity:0.5;fill:#CBDEF4;enable-background:new    ;}
	.st10{fill:#B1DBA5;}
	.st11{fill:#BFE8B5;}
	.st12{fill:#F8FCFF;}
	.st13{fill:#A8D29F;}
	.st14{fill:#ED9F4A;}
	.st15{fill:#F9DDBF;}
	.st16{fill:#FFF3E9;}
	.st17{fill:#EFCDAF;}
	.st18{fill:#F99746;}
	.st19{fill:#D3A784;}
	.st20{fill:#FFFFFF;}
	.st21{fill:#152E45;}
	.st22{fill:#FFB27D;}
	.st23{fill:#F2CCAA;}
	.st24{fill:#E8945B;}
	.st25{fill:#EBF3FA;}
	.st26{fill:#ED7D2B;}
	.st27{fill:#17467F;}
	.st28{fill:#0C2442;}
	.st29{fill-rule:evenodd;clip-rule:evenodd;fill:url(#SVGID_8_);}
	.st30{fill:url(#SVGID_9_);}
	.st31{opacity:0.8;fill:url(#SVGID_10_);enable-background:new    ;}
	.st32{fill-rule:evenodd;clip-rule:evenodd;fill:url(#SVGID_11_);}
	.st33{clip-path:url(#SVGID_13_);}
	.st34{opacity:0.5;fill:url(#SVGID_14_);enable-background:new    ;}
	.st35{fill:#D2E4FF;}
	.st36{fill:#2B478B;}
	.st37{opacity:0.6;fill:#FFFFFF;enable-background:new    ;}
	.st38{fill:#FFA412;}
	.st39{fill:#E27F2B;}
	.st40{fill:#4A75CB;}
	.st41{fill:#233862;}
	.st42{fill:#D9935C;}
	.st43{fill:#CB7D45;}
	.st44{fill:#E9F3FE;}
	.st45{fill:#BED4F4;}
	.st46{fill:#AFCDFB;}
	.st47{fill-rule:evenodd;clip-rule:evenodd;fill:url(#SVGID_15_);}
	.st48{fill-rule:evenodd;clip-rule:evenodd;fill:url(#SVGID_16_);}
	.st49{fill-rule:evenodd;clip-rule:evenodd;fill:#152E45;}
	.st50{fill:#00AAFF;}
	.st51{fill:#97CF26;}
	.st52{fill:#FF6163;}
	.st53{fill:#A169F7;}
	.st54{fill:#4A88C0;}
	.st55{fill:#223C4E;}
	.st56{fill:#FF0000;}
	.st57{fill:url(#SVGID_17_);}
	.st58{fill:url(#SVGID_18_);}
	.st59{fill:url(#SVGID_19_);}
	.st60{fill:url(#SVGID_20_);}
	.st61{fill:url(#SVGID_21_);}
	.st62{fill:url(#SVGID_22_);}
</style>
<rect class="st0" width="380" height="380"/>
<linearGradient id="SVGID_1_" gradientUnits="userSpaceOnUse" x1="116.6332" y1="115.4064" x2="56.8231" y2="12.2584" gradientTransform="matrix(1 0 0 -1 0 382)">
	<stop  offset="0" style="stop-color:#E4F5FF"/>
	<stop  offset="1" style="stop-color:#B4E2FD"/>
</linearGradient>
<path class="st1" d="M93.4,371.3c-9.6,0-19.2-1.3-27.6-3.5c-13.1-3.3-25.4-8.7-34.6-15.3c-9.9-7-16-15.1-17.6-23.2
	c-1.3-6.2-0.1-13.5,3.3-21.1c3.4-7.4,8.8-14.8,15.6-21.5c15.2-14.8,35-23.4,54.3-23.7c12.9-0.2,26.9,3.3,38.3,9.5
	c13.6,7.4,22.9,18.2,26.8,31.2c5.6,18.1,0,39.7-13.5,52.5C126.9,367.3,110.1,371.3,93.4,371.3z M87.8,265c-0.3,0-0.6,0-1,0
	c-18.7,0.3-38,8.7-53,23.2c-6.7,6.5-11.9,13.7-15.2,20.9c-3.2,7.2-4.3,14.1-3.1,19.9c1.5,7.6,7.3,15.2,16.8,22
	c9.1,6.4,21.1,11.8,34,15c22.7,5.7,53.2,5.7,70.7-11.2c13-12.3,18.3-33.1,12.9-50.5c-4.7-15.8-16.6-25-25.8-30
	C113.2,268.4,100,265,87.8,265z"/>
<linearGradient id="SVGID_2_" gradientUnits="userSpaceOnUse" x1="114.7852" y1="376.7918" x2="59.8845" y2="263.7285" gradientTransform="matrix(1 0 0 -1 0 382)">
	<stop  offset="0" style="stop-color:#E4F5FF"/>
	<stop  offset="1" style="stop-color:#B4E2FD"/>
</linearGradient>
<path class="st2" d="M127.9,21.4L127.9,21.4C109,13.7,85.6,10.2,64.4,11c-21.3,0.8-39.8,6-49.3,15l0,0c-12.9,12.3-10.7,33.5,3,52.9
	c13.7,19.2,38.2,35.7,67.8,37.6c18.3,1.2,39.2-3.2,56-11.5c16.9-8.3,29-20.3,31-33.9c1.9-13-5.6-23.9-15.7-32.5
	C147,30.1,134.7,24.2,127.9,21.4z M174.9,71.4c4-28-32.4-46.2-46.2-51.8c-38.4-15.7-94.9-14.1-115,5c-28.1,26.7,11.5,90.1,72.1,94
	C123.1,121,170.6,100.6,174.9,71.4z"/>
<linearGradient id="SVGID_3_" gradientUnits="userSpaceOnUse" x1="89.7486" y1="239.2893" x2="10.8359" y2="152.1443" gradientTransform="matrix(1 0 0 -1 0 382)">
	<stop  offset="0" style="stop-color:#E4F5FF"/>
	<stop  offset="1" style="stop-color:#B4E2FD"/>
</linearGradient>
<path class="st3" d="M8.7,146.4L8.7,146.4c-3.3,6.4-4.4,16.2-3.4,27.5c1,11.3,4,23.8,8.6,35.5c4.6,11.7,10.8,22.4,18,30.2
	c7.3,7.8,15.4,12.3,24,12.2h0c6.7,0,13.4-2.9,19.8-7.9c6.3-5,12.1-12,16.8-20c9.5-16.1,14.5-35.8,11.4-50.9v0
	c-4.2-20.9-24.2-34.9-45.5-39.9c-10.6-2.5-21.3-2.7-30.3-0.5C19.2,134.9,12.3,139.5,8.7,146.4z M6.9,145.5
	C-7.3,173,18.4,254.2,56,253.8c29.1-0.2,56.3-49.7,49.9-81.2C97,128.7,22.5,115.1,6.9,145.5z"/>
<linearGradient id="SVGID_4_" gradientUnits="userSpaceOnUse" x1="326.5497" y1="110.2753" x2="263.0357" y2="11.3203" gradientTransform="matrix(1 0 0 -1 0 382)">
	<stop  offset="0" style="stop-color:#E4F5FF"/>
	<stop  offset="1" style="stop-color:#B4E2FD"/>
</linearGradient>
<path class="st4" d="M227.9,333.4L227.9,333.4c1.2,5.9,6.3,12.7,14.4,19c8,6.3,18.6,11.8,30.1,15.4c23.1,7.2,49,6.3,65.1-11.7
	c10.4-11.8,15.4-29.1,15.3-45.5c0-16.5-5.1-31.3-13.9-38.4l0,0c-7.2-5.8-18-7.1-30.4-5c-12.4,2.2-26,7.7-38.6,15.1
	c-12.5,7.4-23.9,16.5-31.6,25.7C230.4,317.3,226.5,326.3,227.9,333.4z M338.9,357.5c-33.7,37.8-107.8,2.9-113-23.7
	c-6.3-32.3,82.6-88.6,114.1-63.2C359.2,285.9,360.5,333,338.9,357.5z"/>
<g>
	<defs>
		<path id="SVGID_5_" d="M225.9,333.8c5.2,26.5,79.3,61.5,113,23.7c21.6-24.4,20.3-71.6,1.1-86.9
			C308.5,245.2,219.6,301.5,225.9,333.8z"/>
	</defs>
	<clipPath id="SVGID_6_">
		<use xlink:href="#SVGID_5_"  style="overflow:visible;"/>
	</clipPath>
	<g class="st5">
		
			<linearGradient id="SVGID_7_" gradientUnits="userSpaceOnUse" x1="319.9663" y1="91.4651" x2="267.2473" y2="-15.9199" gradientTransform="matrix(1 0 0 -1 0 382)">
			<stop  offset="0" style="stop-color:#E4F5FF"/>
			<stop  offset="1" style="stop-color:#B4E2FD"/>
		</linearGradient>
		<path class="st6" d="M371.6,359c-0.5,4.4-1.8,8.4-3.3,11.6c-0.1,0.3-0.3,0.5-0.4,0.8c0,0,0,0.1-0.1,0.1c-1.1,2.3-2.4,4.2-3.3,5.7
			c-0.6,0.9-2.5,2.7-6.5,4.9c-0.4,0.2-0.8,0.4-1.3,0.7c-8.1,4.1-23.4,9.4-49.6,12.2c-21.2,2.3-60.8,2-81.1-4.6
			c-5.6-1.8-11.9-10-11.9-10c-0.5-1-1-2-1.5-3c0-0.1-0.1-0.2-0.1-0.3c-0.2-0.5-0.4-1-0.6-1.4c0,0,0,0,0,0c-0.1-0.4-0.3-0.8-0.4-1.2
			c-0.1-0.2-0.1-0.5-0.2-0.7c-0.3-1.2-0.4-2.4-0.5-3.4c0-0.2,0-0.4,0-0.5c0-0.6,0-1.1,0.1-1.7c0-0.4,0.1-0.7,0.2-1.1
			c0,0,0-0.1,0-0.1c0.1-0.4,0.2-0.7,0.3-1.1c0-0.1,0.1-0.2,0.1-0.3c0.1-0.3,0.2-0.7,0.3-1c0,0,0,0,0,0c0.2-0.6,0.5-1.2,0.8-1.8
			c0.4-0.8,0.9-1.7,1.4-2.5c0.7-1.2,1.4-2.3,2.2-3.5c2.5-4,4.8-8.4,4.1-15c-0.1-1.3-0.4-2.6-0.8-4.1c-0.4-1.6-0.7-3.2-0.9-4.7
			c-0.9-6.5-0.2-12.3,1.7-17.4c0.4-1.1,0.9-2.2,1.4-3.2c1.9-3.7,4.5-7,7.7-9.8c2.7-2.4,5.7-4.4,9-6.1c1.5-0.8,3.1-1.5,4.7-2
			c2.2-0.8,4.4-1.4,6.7-1.9c14.5-3,30.2,0.7,38,12.7c10.3,15.8,26,18.2,32.9,16.2c1.4-0.4,2.9-0.8,4.3-1.1
			c8.9-2.1,18.2-2.5,27.4,3.1c0,0,0,0,0,0c0,0,0,0,0,0c0.8,0.5,1.6,1,2.4,1.6c0.3,0.2,0.6,0.4,0.8,0.6c0.5,0.4,1.1,0.9,1.6,1.3
			c1.8,1.5,3.5,3.3,5.3,5.4c0.2,0.3,0.5,0.6,0.7,0.9c0.1,0.1,0.2,0.3,0.3,0.4c0.4,0.4,0.7,0.9,1.1,1.4c0.3,0.4,0.6,0.8,0.9,1.2
			c1,1.4,1.8,2.8,2.6,4.1c0.7,1.3,1.3,2.6,1.8,4c0,0.1,0.1,0.2,0.1,0.3c0,0.1,0,0.1,0.1,0.2c0.3,0.7,0.5,1.5,0.7,2.2
			c0.1,0.4,0.2,0.7,0.3,1.1c0.2,0.7,0.3,1.3,0.4,2C371.9,353.3,371.9,356.2,371.6,359z"/>
		<path class="st7" d="M410.6,329.6c0.6,3.1,0.6,6.1,0.3,8.8c-0.5,4.4-1.8,8.4-3.3,11.6c-0.1,0.3-0.3,0.5-0.4,0.8c0,0,0,0.1-0.1,0.1
			c-1.1,2.3-2.4,4.2-3.3,5.7c-0.6,1-2.9,3.1-7.8,5.5l-50.8,0.2v-0.2l-50.5,0.2h-4.3v-32.7h4.3v-7.3h8.6v6.2h2.6v-11.4h0.6v-0.8h0.1
			v0.8h2.1v-0.8h0.1v0.8h2.9v-0.8h0.1v0.8h1.9v-0.8h0.1v0.8h0.8v10.7h2.9v-1.7l3.4,0v-2.8h0.7v-0.6h0.1v0.6h2.7h0.5v-0.6h0.1v0.6
			h0.6v5.6h4.1v2h2.3v-1.2h2.1v-4.7h1v-2.2h0.2v2.2h2.5v-4.1h0.2v4.1h1.7V325v-0.5V324v-0.8v-0.5v-0.8v-0.5v-0.8v-0.6v-0.8v-0.7
			v-0.8V317h0.5v-0.6h0.1v0.6h3.7v-0.6h0.1v0.6h0.7v4.3h0.5h0v-0.8h0v-0.6h0v-0.8h0v-0.6h0v-0.8h0h4.5h0.8c0,0,0.1,0,0.1,0.1v4.7
			h3.3v6.2h2.6v-11.4h0.6v-0.8h0.1v0.8h2.1v-0.8h0.1v0.8h2.9v-0.8h0.1v0.8h1.9v-0.8h0.1v0.8h0.8v10.7h2.9v-1.7l3.4,0v-2.8h0.7v-0.6
			h0.1v0.6h2.6h0.5v-0.6h0.1v0.6h0.6v5.6h4.1v2h2.3v-1.2h2.1v-4.7h1v-2.2h0.2v2.2h2.5v-4.1h0.2v4.1h1.7V325v-0.5V324v-0.8v-0.5v-0.8
			v-0.5v-0.8v-0.6v-0.8v-0.7v-0.8V317h0.5v-0.6h0.1v0.6h3.7v-0.6h0.1v0.6h0.7v4.3h0.5h0h0v-0.8h0v-0.6h0v-0.8h0v-0.6h0v-0.8h0h4.5
			h0.8c0,0,0.1,0,0.1,0.1v4.7h5.5v6.2h2.6v-4.5c0.3,0.8,0.6,1.6,0.8,2.4c0.1,0.4,0.2,0.7,0.3,1.1
			C410.4,328.2,410.5,328.9,410.6,329.6z"/>
		<g class="st8">
			<path class="st9" d="M312.4,317.2H306v1.8h6.4V317.2z"/>
			<path class="st9" d="M312.4,319.9H306v1.8h6.4V319.9z"/>
			<path class="st9" d="M312.4,322.8H306v1.8h6.4V322.8z"/>
			<path class="st9" d="M312.4,325.7H306v1.8h6.4V325.7z"/>
			<path class="st9" d="M312.4,328.4H306v1.8h6.4V328.4z"/>
			<g class="st8">
				<path class="st9" d="M343,317h-3.3v1.1h3.3V317z"/>
				<path class="st9" d="M343,318.7h-3.3v1.1h3.3V318.7z"/>
				<path class="st9" d="M343,320.4h-3.3v1.1h3.3V320.4z"/>
				<path class="st9" d="M343,322.1h-3.3v1.1h3.3V322.1z"/>
				<path class="st9" d="M343,323.8h-3.3v1.1h3.3V323.8z"/>
			</g>
			<g class="st8">
				<path class="st9" d="M343,325.7h-3.3v1.1h3.3V325.7z"/>
				<path class="st9" d="M343,327.4h-3.3v1.1h3.3V327.4z"/>
				<path class="st9" d="M343,329.1h-3.3v1.1h3.3V329.1z"/>
				<path class="st9" d="M343,330.9h-3.3v1.1h3.3V330.9z"/>
				<path class="st9" d="M343,332.5h-3.3v1.1h3.3V332.5z"/>
			</g>
			<g class="st8">
				<path class="st9" d="M349,317.7h-3.7v1.1h3.7V317.7z"/>
				<path class="st9" d="M349,319.4h-3.7v1.1h3.7V319.4z"/>
				<path class="st9" d="M349,321.1h-3.7v1.1h3.7V321.1z"/>
				<path class="st9" d="M349,322.9h-3.7v1.1h3.7V322.9z"/>
				<path class="st9" d="M349,324.6h-3.7v1.1h3.7V324.6z"/>
			</g>
			<g class="st8">
				<path class="st9" d="M349,326.3h-3.7v1.1h3.7V326.3z"/>
				<path class="st9" d="M349,328h-3.7v1.1h3.7V328z"/>
				<path class="st9" d="M349,329.7h-3.7v1.1h3.7V329.7z"/>
				<path class="st9" d="M349,331.5h-3.7v1.1h3.7V331.5z"/>
				<path class="st9" d="M349,333.2h-3.7v1.1h3.7V333.2z"/>
			</g>
			<g class="st8">
				<path class="st9" d="M349,335.1h-3.7v1.1h3.7V335.1z"/>
				<path class="st9" d="M349,336.8h-3.7v1.1h3.7V336.8z"/>
				<path class="st9" d="M349,338.5h-3.7v1.1h3.7V338.5z"/>
				<path class="st9" d="M349,340.3h-3.7v1.1h3.7V340.3z"/>
				<path class="st9" d="M349,342h-3.7v1.1h3.7V342z"/>
			</g>
		</g>
		<path class="st10" d="M382.6,344.4c0,0-8.9-0.9-11.7,4.3c-2.8,5.2-11.3-4-16.3-4.7s-10.4,2.8-10.7,5.3c-0.4,2.5-15.2-4.4-22.6,7
			l61.4-0.2L382.6,344.4z"/>
		<path class="st11" d="M407.2,351c-1,2-2.1,3.7-3,5.1c-0.1,0.2-0.2,0.4-0.4,0.5c-0.6,1-3.1,3.2-8.2,5.7c-8.2,4.1-23.4,9.2-49.3,12
			c-10.2,1.1-24.6,1.6-39.1,1.1c-0.5,0-1,0-1.6-0.1c-0.4,0-0.8,0-1.2,0c-0.6,0-1.3-0.1-1.9-0.1c-0.7,0-1.5-0.1-2.2-0.1
			c-0.4,0-0.8-0.1-1.2-0.1c-12.9-0.8-25.2-2.5-33.9-5.3c-5.6-1.8-11.9-10-11.9-10c-0.9-1.6-1.6-3.2-2.2-4.7c0,0,0,0,0,0
			c-0.1-0.4-0.3-0.8-0.4-1.2c7-0.3,20.7-0.3,38.1,2C312.1,359,384.2,348.8,407.2,351z"/>
		<path class="st12" d="M315.2,307.9c0,0,1.2-2.4,4-2.1c0,0,4.1-4,8.5-0.5c0,0,4.7-0.9,8.1,0.7c2.3,1.1,3.1,2.2,3.1,2.2L315.2,307.9
			z"/>
		<path class="st12" d="M299.9,297.4c0,0,1.4-2.8,4.8-2.5c0,0,4.9-4.6,10.2-0.6c0,0,5.6-1,9.7,0.9c2.8,1.2,3.7,2.5,3.7,2.5
			L299.9,297.4z"/>
		<path class="st13" d="M316.2,356.9h-64.3c0-0.1-0.1-0.2-0.1-0.3c-0.2-0.5-0.4-1-0.6-1.4c0,0,0,0,0,0c-0.1-0.4-0.3-0.8-0.4-1.2
			c-0.1-0.2-0.1-0.5-0.2-0.7c-0.3-1.2-0.4-2.4-0.5-3.4c0-0.2,0-0.4,0-0.5c0-0.5,0-1.1,0.1-1.6c0-0.4,0.1-0.8,0.2-1.2
			c0,0,0-0.1,0-0.1c0.1-0.3,0.1-0.7,0.2-1c0-0.1,0.1-0.2,0.1-0.3c0.1-0.3,0.2-0.7,0.3-1c0,0,0,0,0,0c7.7,1.5,15.7-3,25.3-1.1
			c11.9,2.4,15.8,11.2,19.6,9.9C299.7,351.4,315.9,351.4,316.2,356.9z"/>
		<path class="st14" d="M378.2,328.4l-6.9,14.2h-20.9l10.9-14.1L378.2,328.4z"/>
		<path class="st15" d="M378.8,328.4l-6.9,14.2H351l10.9-14.1L378.8,328.4z"/>
		<path class="st15" d="M371.9,342.6v18.9l-20.9,0v-18.9H371.9z"/>
		<path class="st16" d="M352,342c-2.1,0-3.8,1.7-3.8,3.8v15.1h7.5v-15.3C355.6,343.6,354,342,352,342z"/>
		<path class="st15" d="M355.1,345.7v0.1h-6.5v0c0-1.8,1.5-3.3,3.3-3.3C353.7,342.5,355.1,343.9,355.1,345.7z"/>
		<path class="st17" d="M352,342.4c-1.9,0-3.4,1.5-3.4,3.4v0.2h6.7v-0.3C355.3,343.9,353.8,342.4,352,342.4z M348.8,345.7
			c0-0.9,0.4-1.6,1-2.2c0.1-0.1,0.1-0.1,0.2-0.2c0.5-0.4,1.2-0.7,1.9-0.7c0.7,0,1.3,0.2,1.8,0.6c0.1,0.1,0.1,0.1,0.2,0.2
			c0.6,0.6,1,1.4,1,2.3L348.8,345.7L348.8,345.7z"/>
		<path class="st17" d="M354.1,353.7c0-0.1,0.1-0.2,0.2-0.2c0.1,0,0.2,0.1,0.2,0.2s-0.1,0.2-0.2,0.2
			C354.2,353.9,354.1,353.8,354.1,353.7z"/>
		<path class="st17" d="M354.1,343.3l-0.1,0.1l-1.7,2.3l-0.2,0.3h-0.1l-0.2-0.3l-1.9-2.2l-0.1-0.1l0.2-0.2l0.1,0.1l2,2.3l1.8-2.4
			l0.1-0.1L354.1,343.3z"/>
		<path class="st17" d="M356.2,346.3h-8.3v0.6h8.3V346.3z"/>
		<path class="st17" d="M355.1,360.3h-6.4v-12.8h6.4V360.3z M348.8,360.3h6.3v-12.7h-6.3V360.3z"/>
		<path class="st13" d="M315.4,362.6c0,0-1.7-4.7-2.9-4.3C311.3,358.7,315.4,362.6,315.4,362.6z"/>
		<path class="st13" d="M314.8,362.6c-0.1,0-2.9-2.8-3.1-2.1C311.5,361.3,314.8,362.6,314.8,362.6z"/>
		<path class="st13" d="M317.7,362.6c0,0-1.1-1-2.6-0.8c-1.4,0.3-2,0.6-2.9,0.4c-0.9-0.2-1.4,0.4-1.4,0.4H317.7z"/>
		<path class="st18" d="M332.1,347.1h-14.5v6.4h14.5V347.1z"/>
		<path class="st19" d="M319.4,362.7L319.4,362.7c-0.1,0-0.1-0.1-0.1-0.1l0.8-9.1h0.6l-1.1,9.1C319.6,362.6,319.5,362.7,319.4,362.7
			z"/>
		<path class="st19" d="M330.1,362.7L330.1,362.7c0.1,0,0.1-0.1,0.1-0.1l-0.8-9.1h-0.6l1.1,9.1C330,362.6,330.1,362.7,330.1,362.7z"
			/>
		<path class="st20" d="M319.7,351.1l0.3-0.3c0.3,0.2,0.5,0.3,0.8,0.3c0.3,0,0.5-0.1,0.5-0.3c0-0.2-0.1-0.3-0.6-0.4
			c-0.6-0.1-0.9-0.3-0.9-0.8c0-0.5,0.4-0.8,0.9-0.8c0.4,0,0.7,0.1,1,0.3l-0.3,0.4c-0.2-0.2-0.5-0.3-0.7-0.3c-0.3,0-0.4,0.1-0.4,0.3
			c0,0.2,0.1,0.3,0.6,0.4c0.6,0.1,0.9,0.3,0.9,0.8c0,0.5-0.4,0.8-1,0.8C320.4,351.5,320,351.4,319.7,351.1z"/>
		<path class="st20" d="M323.2,348.8h0.4l1.2,2.7h-0.5l-0.3-0.6h-1.3l-0.3,0.6H322L323.2,348.8z M323.9,350.4l-0.5-1.1l-0.5,1.1
			H323.9z"/>
		<path class="st20" d="M325.3,348.8h0.5v2.3h1.4v0.4h-1.9V348.8L325.3,348.8z"/>
		<path class="st20" d="M327.6,348.8h2v0.4h-1.5v0.7h1.3v0.4h-1.3v0.7h1.5v0.4h-2L327.6,348.8L327.6,348.8z"/>
		<path class="st18" d="M332.1,347.1l2,3.4l-2,3V347.1z"/>
		<path class="st21" d="M300.1,305.4c-3.7-4.3-3.3-7.9-3.2-11.2c0.1-3.3-2.3-12.9-10.5-12c0,0-2.2-0.9-4.9,0.5
			c-4.9,2.5-14.6,22.6-10.6,28.8c0.8,1.2,2.1,1.9,4.1,1.8c0.6,0,1.2-0.1,1.9-0.3c-0.1-0.2,0.3-0.5,0.9-0.8c0.2-0.1,0.4-0.1,0.6-0.2
			c0.3-0.1,0.7-0.2,1.1-0.3c0.2,0,0.4-0.1,0.6-0.1c3.4-0.5,8.2,0.3,8.4,6.7c0,0,1.9,0,4.3-0.4c1-0.1,2-0.3,3-0.6
			c0.4-0.1,0.9-0.2,1.3-0.4c1.3-0.4,2.5-0.9,3.4-1.6C303.4,313.5,304.4,310.5,300.1,305.4z"/>
		<path class="st22" d="M313.4,324.2c0,0,1.5-2.2,2.6-2.3c1.2,0,3.3-0.6,3.2-0.2c-0.2,0.4-1.5,0.5-1.6,0.7c-0.1,0.3,2,0.6,2.6,0.7
			c0.6,0,2,0,2,0.3c0,0.3-2.6,1.6-4.4,1.4c-1.8-0.2-4,0.5-4,0.5L313.4,324.2z"/>
		<path class="st22" d="M322.1,323.5c0,0.1-0.2,0.2-0.4,0.3c0,0,0,0,0,0l0,0c0,0,0,0,0,0c0-0.1-0.1-0.1-0.1-0.2l0,0
			c-0.1-0.1-0.1-0.2-0.2-0.2C321.8,323.3,322.1,323.3,322.1,323.5z"/>
		<path class="st15" d="M292.4,324.9c0,0,0.8,1.6,2.2,3.4c1.7,2.2,4.4,4.7,7.7,5.1c1.6,0.2,3.2-0.1,4.6-0.7c0,0,0,0,0,0
			c4.1-1.8,7.1-5.9,7.1-5.9c0.7-2-0.5-3.3-0.5-3.3s-8.2,1.8-9,1.5c-0.8-0.4-5.3-13.5-6.4-15.1c-1.1-1.6-4.8-2.5-4.8-2.5L292.4,324.9
			z"/>
		<path class="st23" d="M294.6,328.3c1.7,2.2,4.4,4.7,7.7,5.1c1.6,0.2,3.2-0.1,4.6-0.7c-0.2,0-4.2,0.5-5.8-2.4
			c-1.6-2.9-3.4-7.6-5.9-6.1C294.2,324.9,294.2,326.6,294.6,328.3z"/>
		<path class="st22" d="M273,345c2.9-6.5,4.7-8.3,4.3-10.3c-0.2-1.5,0.8-27.9,0.8-27.9c0.3-0.1,1-0.2,1.4-0.3
			c1.2-0.3,2.2-1.1,2.6-2.2c0.5-1.4,0.9-3.4,0.9-6l0.4,0.1l6.2,1.2c0,0-0.1,2-0.1,3.8c0,0,0,0,0,0c0,1.6,1,3,2.6,3.5
			c0.8,0.2,1.5,0.4,1.5,0.4s2.3,6.5,2.7,13.2c0.4,6.7-4.2,9.6,0,23C300.5,357.2,271.4,348.6,273,345z"/>
		<path class="st24" d="M289.5,299.6c0,0-0.1,2-0.1,3.8c-3.5-0.1-5.3-3.3-6.1-5L289.5,299.6z"/>
		<path class="st22" d="M290.7,301.3c0,0-8.2,0.1-8.2-5c0-5.1-1.1-8.6,4.2-8.9c5.3-0.3,6.3,1.7,6.7,3.4
			C293.7,292.5,292.8,301.1,290.7,301.3z"/>
		<path class="st21" d="M290.4,287.3c0,0-2.3,6-5.7,6.9c-3.5,0.9-5,0-5,0s2.7-2.1,3.2-5.8C282.9,288.4,288.7,284.5,290.4,287.3z"/>
		<path class="st21" d="M289.8,287.8c0,0,1.7,0.6,2.4,1.8c0.7,1.2,1.2,2.8,1.1,4.7c0,0,1.7-4.1-0.2-6.4
			C291,285.5,289.8,287.8,289.8,287.8z"/>
		<path class="st25" d="M288.9,298.1c0,0,0.6,0.7,1.7,0.7c0.9,0,1.3-0.8,1.3-0.8S290.2,297.6,288.9,298.1z"/>
		<path class="st15" d="M274.1,318.4c0,0,0,3.9,0.2,7.4c0.1,2.3,0.4,4.5,0.7,5.3c0.8,2,1.8,2.3,1.8,2.3l7.4,1.8l2.6,0.6l8.2-2.4
			c0,0,3.7-10.4,2.2-16.2c-1.5-5.9-3.8-9.9-3.8-9.9s-6.7,6.5-15.3-0.6l-2,0.4L274.1,318.4z"/>
		<path class="st23" d="M274.3,325.9c0.1,2.3,0.4,4.5,0.7,5.3c0.8,2,1.8,2.3,1.8,2.3l7.4,1.8l3.2-0.9c0,0-10.7-1.6-9.5-10.8
			L274.3,325.9z"/>
		<path class="st26" d="M296.2,374.9c-4.1-0.3-8.2-0.7-12-1.2c-1.1-0.1-2.2-0.3-3.2-0.5c0-4.5,0.2-8.4,0.6-11.3
			c0.6-4.1,1-8.1,1.2-11.7c0.5-5.8,0.6-10.6,0.7-13.1c0-1,0-1.6,0-1.9c0,0,0-0.1,0-0.1c0,0,0-0.1,0-0.1h11c0,0,0.2,0.5,0.4,1.3
			c1,3.3,3.7,12.1,3.9,15.6C298.9,353.6,297.7,363.5,296.2,374.9z"/>
		<path class="st18" d="M292.6,349.4c-0.3,0.4-0.5,0.9-0.8,1.4c-3.7,6.9-6.2,16.1-7.7,22.9c-1.1-0.1-2.2-0.3-3.2-0.5
			c-4.2-0.6-8.1-1.4-11.6-2.3c0.3-4.6,0.5-10.1,0.7-14.6c0.1-2.2,0.2-4.1,0.3-5.7c0.1-0.8,0.1-1.5,0.2-2.1c0.1-0.9,0.3-1.8,0.6-2.8
			c0.1-0.3,0.2-0.7,0.4-1c0.7-1.9,1.7-3.8,2.7-5.4c0.8-1.4,1.6-2.6,2.2-3.5c0.5-0.8,0.9-1.2,0.9-1.2l3,0.3l0.5,0l2.6,0.2l0.7,0.1
			l0.1,0l3.7,0.3l1.5,0.1l0.6,0.1l1.6,0.1c0,0,0.1,0.4,0.2,1c0,0,0,0.1,0,0.1c0,0.1,0.1,0.3,0.1,0.5
			C292.6,340.6,293.8,347.3,292.6,349.4z"/>
		<path class="st20" d="M289.1,298.3c0,0,0.1,0.6,1.6,0.5c0,0,1.3-0.1,1.2-0.7C291.9,298,290.7,297.6,289.1,298.3z"/>
		<path class="st21" d="M295.1,333.1c0,0-1.6,1.3-4.9,1.3c-3.9,0.1-13.4-1-13.4-1s-0.4,1.2-0.4,2.4c0,0,11.7,2.9,18.4,0.4
			C294.9,336.3,295.7,334.7,295.1,333.1z"/>
		<path class="st20" d="M289.7,335h0.5c0-0.1,0.1-0.1,0.1-0.2L289.7,335z M289.7,335h0.5c0-0.1,0.1-0.1,0.1-0.2L289.7,335z
			 M289.7,335h0.5c0-0.1,0.1-0.1,0.1-0.2L289.7,335z M289.7,335h0.5c0-0.1,0.1-0.1,0.1-0.2L289.7,335z M292.8,335
			c-0.1-0.3-0.3-0.6-0.5-0.8c0,0,0,0,0,0c-0.3-0.3-0.7-0.4-1.1-0.4c-0.5,0-1,0.3-1.3,0.7c-0.1,0.2-0.2,0.4-0.3,0.6c0,0,0,0,0,0
			c-0.1,0.2-0.1,0.4-0.1,0.6c0,0,0,0,0,0.1c0,0.6,0.2,1.1,0.6,1.5c0.3,0.3,0.7,0.5,1.2,0.5c0.3,0,0.6-0.1,0.8-0.2
			c0.2-0.1,0.5-0.3,0.6-0.6c0.2-0.3,0.3-0.7,0.3-1.2C292.9,335.5,292.9,335.2,292.8,335z M291.5,337.1c-0.1,0-0.2,0.1-0.3,0.1
			c0,0-0.1,0-0.1,0c-0.6-0.1-1.1-0.7-1.1-1.4v0c0-0.3,0.1-0.5,0.2-0.7c0-0.1,0.1-0.1,0.1-0.2c0.2-0.2,0.4-0.4,0.6-0.4
			c0.1,0,0.2,0,0.3,0c0,0,0.1,0,0.1,0c0.1,0,0.2,0,0.3,0.1c0.2,0.1,0.4,0.3,0.6,0.6c0.1,0.2,0.2,0.5,0.2,0.7c0,0.5-0.2,0.9-0.5,1.2
			C291.7,337,291.6,337.1,291.5,337.1z M289.7,335h0.5c0-0.1,0.1-0.1,0.1-0.2L289.7,335z M289.7,335h0.5c0-0.1,0.1-0.1,0.1-0.2
			L289.7,335z M289.7,335h0.5c0-0.1,0.1-0.1,0.1-0.2L289.7,335z"/>
		<path class="st21" d="M261.9,354.5l18.4,4l2.2-10.3l-18.4-4L261.9,354.5z"/>
		<path class="st27" d="M282.5,348.2c0,0-5.1,4.3-10.8,2.8c-5.7-1.5-7.5-6.8-7.5-6.8L282.5,348.2z"/>
		<path class="st27" d="M280.3,346.6c-0.1,0-0.2-0.1-0.3-0.1c-0.1,0-0.1,0-0.2,0c-0.4,0.1-0.8,0.4-0.8,0.9c0,0,0,0.1,0,0.1
			c0,0.6,0.5,1,1,1c0.4,0,0.8-0.3,1-0.7c0-0.1,0.1-0.2,0.1-0.3C281,347.1,280.7,346.7,280.3,346.6z M279.9,348.2
			c-0.4,0-0.7-0.3-0.7-0.7c0,0,0,0,0,0c0-0.4,0.3-0.7,0.7-0.7c0.4,0,0.7,0.3,0.7,0.7c0,0.1,0,0.2,0,0.3
			C280.5,348,280.2,348.2,279.9,348.2z"/>
		<path class="st28" d="M280.3,346.8c0-0.2,1.1-16.9,0.9-26.3c-0.1-4.9-0.9-8.4-1.5-10.5c-0.7-2.2-1.6-3.1-1.7-3.2l-0.4,0.1
			c0,0,2.8,4.3,3,13.6c0.2,9.4-0.9,26.1-0.9,26.3L280.3,346.8z"/>
		<path class="st22" d="M275.6,345.8c0.1,0,0.2,0.1,0.3,0.2c0.3,0.2,1.1,0.5,1.3,0.5c0.6,0,0.4,0.5-0.1,0.5c-0.1,0-0.4-0.1-0.5-0.1
			c0.3,0.7,0.5,1.7,0.6,3.3c0,0,0.1,1.2-0.9,0.4c-0.7-0.6-0.7-1-1.6-1.8c-0.9-0.8-1.3-2.1-1-2.9l-0.5-1l1.8-0.7l0.5,1.3
			C275.3,345.7,275.4,345.8,275.6,345.8z"/>
		<path class="st15" d="M277.6,306.8c0,0-4.3,0.6-5.4,2c-1.1,1.4-8,20.3-6.8,23.6c1.2,3.3,1.7,7.8,4.5,10.9c0.9,1,2.2,1.9,3,2
			c0.7,0.1,1.7-0.5,2-0.7c0,0,0.1-0.1,0.1-0.1c-0.2-1.2-2.1-14-1.5-15.1c0.7-1.2,5.4-6.3,5.8-9C279.6,317.7,277.6,306.8,277.6,306.8
			z"/>
		<path class="st21" d="M324.2,325.4L324.2,325.4c-0.1-0.3-0.3-0.6-0.6-0.8c-0.5-0.4-1.1-0.5-1.7-0.4c0,0-0.1,0-0.1,0
			c-0.1,0-0.2,0.1-0.3,0.1c-0.2,0.1-0.5,0.3-0.6,0.5c0,0-0.1,0.1-0.1,0.1c0,0,0,0,0,0c-0.2,0.3-0.3,0.6-0.3,0.8c0,0,0,0.1,0,0.1
			c0,0,0,0,0,0c0,0.1,0,0.1,0,0.1c0,0.1,0,0.2,0,0.3c0.1,0.5,0.3,0.9,0.7,1.2c0.6,0.5,1.5,0.6,2.2,0.2c0.2-0.1,0.4-0.3,0.6-0.5
			c0.2-0.2,0.3-0.4,0.3-0.6C324.4,326.3,324.4,325.8,324.2,325.4z M321.8,325.6c-0.1,0.2-0.4,0.2-0.5,0.1c0,0,0,0-0.1,0
			c0,0,0,0-0.1-0.1c0,0-0.1-0.1-0.1-0.1l0,0c0-0.1,0-0.3,0.1-0.4c0.1-0.1,0.2-0.1,0.2-0.1l0,0c0,0,0,0,0,0c0.1,0,0.2,0,0.2,0.1
			c0,0,0,0,0,0c0.1,0.1,0.1,0.1,0.1,0.2C321.9,325.4,321.9,325.5,321.8,325.6z"/>
		<path class="st21" d="M324.1,327.9l0.5,0.4l0.1,0.6l0.4,0.4l0.4-0.5l0.2,0.2l-0.4,0.5l0.2,0.2l0.1-0.1l0.3,0.3l0.2-0.2l0.2,0.2
			l-0.3,0.4l0.3,0.3l0.4,0l0.2-0.2l0.3,0.3l0.5-0.6l-3.9-3.2l-0.9,1.1l0.7,0.6L324.1,327.9z"/>
		<path class="st21" d="M320.1,326.2c0-0.1,0-0.2-0.1-0.3c-0.1-0.5-0.4-0.9-0.9-1.2c-0.2-0.1-0.3-0.2-0.5-0.2c0,0-0.1,0-0.2,0
			c-0.1,0-0.2,0-0.3,0c-0.4,0-0.8,0.1-1.2,0.4c-0.4,0.3-0.6,0.6-0.7,1.1c-0.2,0.8,0.1,1.6,0.7,2.1l0,0c0.2,0.1,0.4,0.2,0.6,0.3
			c0.2,0.1,0.5,0.1,0.7,0c0.8-0.1,1.5-0.6,1.7-1.4C320.2,326.7,320.2,326.5,320.1,326.2z M318.4,325.7c-0.2,0-0.4-0.3-0.3-0.5
			c0-0.1,0.1-0.2,0.2-0.2c0,0,0,0,0.1,0c0,0,0,0,0,0c0,0,0.1,0,0.1,0c0,0,0.1,0,0.1,0c0.2,0.1,0.3,0.3,0.3,0.5
			c0,0.1-0.1,0.2-0.2,0.2C318.6,325.7,318.5,325.7,318.4,325.7z"/>
		<path class="st21" d="M317.3,328.7l-0.2,0.7l-0.5,0.4l-0.1,0.6l0.7,0.2l-0.1,0.3l-0.7-0.2l-0.1,0.2l0.2,0l-0.1,0.4l0.3,0.1
			l-0.1,0.3l-0.5-0.1l-0.1,0.4l0.2,0.4l0.3,0.1l-0.1,0.4l0.8,0.2l1.3-4.9l-1.4-0.4l-0.2,0.9L317.3,328.7z"/>
		<path class="st18" d="M320.9,322.9L320.9,322.9c-0.1-0.1-0.1-0.1-0.2-0.1c-0.1,0-0.2-0.1-0.4-0.1c0,0-0.1,0-0.1,0
			c-0.4,0-0.8,0.1-1.1,0.3c0,0,0,0,0,0l0,0c-0.4,0.3-0.7,0.8-0.7,1.3l0,0.1c0.1,0,0.2,0,0.3,0c0,0,0-0.1,0-0.1
			c0-0.6,0.4-1.1,0.9-1.3c0.2-0.1,0.4-0.1,0.7-0.1c0.1,0,0.2,0,0.2,0h0c0.1,0,0.1,0,0.1,0c0.1,0,0.2,0.1,0.3,0.2c0,0,0,0,0,0
			c0,0,0.1,0,0.1,0c0,0,0,0,0,0c0,0,0.1,0,0.1,0c0,0,0.1,0,0.1,0c0,0,0.1,0,0.1,0c0,0,0,0,0.1,0C321.2,323.1,321,323,320.9,322.9z
			 M321.8,324.2c0-0.2-0.1-0.3-0.1-0.4c0,0,0,0,0,0c0,0,0,0,0,0c0,0-0.1,0.1-0.1,0.1c0,0-0.1,0-0.1,0c0,0.1,0.1,0.2,0.1,0.4
			c0,0,0,0.1,0,0.2c0,0,0,0.1,0,0.1c0,0.1,0,0.2-0.1,0.4l0,0c-0.1,0.2-0.2,0.4-0.3,0.5l0,0c0,0,0,0.1,0.1,0.1c0,0,0,0.1,0.1,0.1
			c0,0,0,0,0.1,0c0.1-0.1,0.1-0.2,0.2-0.3l0,0c0.1-0.1,0.2-0.2,0.2-0.4l0,0c0,0,0-0.1,0-0.1c0-0.1,0.1-0.3,0.1-0.4
			c0-0.1,0-0.1,0-0.2C321.8,324.3,321.8,324.3,321.8,324.2z M320.4,325.9c-0.1,0-0.2,0.1-0.3,0.1h-0.1c-0.4,0-0.8-0.2-1.1-0.5
			c-0.1-0.1-0.2-0.3-0.3-0.5c0,0-0.1,0-0.1,0c0,0-0.1,0-0.1,0c0,0,0,0,0,0c0,0-0.1,0-0.1,0c0,0,0,0,0,0c0.1,0.2,0.2,0.5,0.4,0.7l0,0
			c0.3,0.3,0.7,0.5,1.2,0.6c0.1,0,0.1,0,0.2,0c0,0,0.1,0,0.1,0l0,0c0,0,0.1,0,0.1,0c0,0,0-0.1,0-0.1
			C320.4,326,320.4,325.9,320.4,325.9z"/>
		<path class="st13" d="M304.5,375.4c-0.6,0-1.3-0.1-1.9-0.1c1-1.9,3.5-6.6,4.9-6C308.8,369.8,306,373.6,304.5,375.4z"/>
		<path class="st13" d="M307.3,375.5c-0.5,0-1,0-1.6-0.1c0.6-0.9,2.1-2.8,3.2-2.7C309.9,373,308.4,374.5,307.3,375.5z"/>
		<path class="st13" d="M300.5,375.2c-0.4,0-0.8,0-1.2-0.1c0-1.1,0.2-5.1,1.4-5.4C301.8,369.5,300.8,373.8,300.5,375.2z"/>
	</g>
</g>
<linearGradient id="SVGID_8_" gradientUnits="userSpaceOnUse" x1="317.6342" y1="376.7787" x2="263.3442" y2="265.4115" gradientTransform="matrix(1 0 0 -1 0 382)">
	<stop  offset="0" style="stop-color:#E4F5FF"/>
	<stop  offset="1" style="stop-color:#B4E2FD"/>
</linearGradient>
<path class="st29" d="M224.3,32.5L224.3,32.5c-20.2,20.5-18.1,57.9,14.5,74.7c15.8,8.1,33.5,9.1,49.1,7.4
	c15.5-1.7,28.7-6.1,35.3-8.7c18.6-7.4,34-19.6,43.1-32.6c9.1-13,11.5-26.3,5.3-36.3c-4.4-7.1-13.6-13.1-25.8-17.6
	c-12.1-4.5-26.9-7.3-42.3-8.1c-15.3-0.8-31,0.4-45,3.8C244.5,18.5,232.5,24.3,224.3,32.5z M323.9,107.7c-13.5,5.3-53.4,17.9-86,1.2
	c-33.8-17.4-36.2-56.5-15-77.9c33.8-34.3,131.2-25.7,150.3,4.8C387,57.8,361.8,92.6,323.9,107.7z"/>
<path d="M301.1,54.1c-0.6,1.2-1.5,1.1-2.4,1.1v4c0.6,0.1,1.3,0.2,2,0.2c0.9,0,1.9-0.2,2.6-0.8c0.8-0.5,1.4-1.3,1.7-2.1
	c1-2.1,1.1-6,1.6-10.2h4.5V59h4.4V42.5h-12.9C302,48,301.7,52.8,301.1,54.1z"/>
<path d="M289.8,42.1c-1.9-0.1-3.8,0.6-5.2,1.8c-1.5,1.2-2.4,3-2.7,4.9h-2.3v-6.3h-4.4v16.4h4.4v-6.3h2.3c0.2,1.9,1.2,3.6,2.7,4.9
	c1.5,1.2,3.3,1.9,5.2,1.8c4.8,0,8-3.5,8-8.6S294.6,42.1,289.8,42.1z M289.8,55.4c-2.3,0-3.8-1.7-3.8-4.7s1.5-4.7,3.8-4.7
	c2.3,0,3.8,1.7,3.8,4.7S292.1,55.4,289.8,55.4z"/>
<path d="M325.6,42.1c-2.1,0-4.2,0.3-6.2,0.9v3.9c1.8-0.6,3.7-0.9,5.6-0.9c3.6,0,4,1.8,4,2.7V49c-1.2-0.2-2.4-0.3-3.7-0.3
	c-6,0-7.3,3.1-7.3,5.3s1.4,5.3,6.1,5.3c0.9,0,1.9-0.2,2.8-0.5c0.9-0.4,1.7-0.9,2.3-1.6h0.2v1.7h4v-9.2
	C333.4,46.8,332.8,42.1,325.6,42.1z M329.1,53.9c-0.4,0.6-1,1-1.7,1.3c-0.7,0.3-1.4,0.4-2.1,0.4c-1.7,0-2.4-0.7-2.4-1.7
	c0-1,0.9-2,3.8-2h2.5L329.1,53.9L329.1,53.9z"/>
<radialGradient id="SVGID_9_" cx="-787.6686" cy="1169.6687" r="1" gradientTransform="matrix(37.9254 0 0 -37.9254 30140.2168 44384.6797)" gradientUnits="userSpaceOnUse">
	<stop  offset="0.23" style="stop-color:#00FFFE"/>
	<stop  offset="0.3" style="stop-color:#11F3FE"/>
	<stop  offset="0.46" style="stop-color:#3ED3FE"/>
	<stop  offset="0.67" style="stop-color:#86A0FF"/>
	<stop  offset="0.94" style="stop-color:#E95AFF"/>
	<stop  offset="0.95" style="stop-color:#F055FF"/>
</radialGradient>
<path class="st30" d="M252.4,58.6c1.2-3.6,3.2-6.9,5.9-9.6c2.7-2.7,6-4.7,9.6-5.9c0.1,0,0.2-0.1,0.3-0.2c0.1-0.1,0.2-0.2,0.2-0.3
	c0.1-0.1,0.1-0.2,0.1-0.4s0-0.2,0-0.4c0-0.1-0.1-0.3-0.2-0.4c-0.1-0.1-0.2-0.2-0.4-0.2c-3.6-1.2-6.9-3.2-9.6-5.9
	c-2.7-2.7-4.7-6-5.9-9.6c0-0.1-0.1-0.2-0.2-0.3c-0.1-0.1-0.2-0.2-0.3-0.2c-0.1-0.1-0.2-0.1-0.4-0.1c-0.1,0-0.2,0-0.4,0
	c-0.1,0-0.3,0.1-0.4,0.2c-0.1,0.1-0.2,0.2-0.2,0.4c-1.2,3.6-3.2,6.9-5.9,9.6c-2.7,2.7-6,4.7-9.6,5.9c-0.1,0-0.2,0.1-0.3,0.2
	c-0.1,0.1-0.2,0.2-0.2,0.3c-0.1,0.1-0.1,0.2-0.1,0.4c0,0.1,0,0.2,0,0.4c0,0.1,0.1,0.3,0.2,0.4c0.1,0.1,0.2,0.2,0.4,0.2
	c3.6,1.2,6.9,3.2,9.6,5.9c2.7,2.7,4.7,6,5.9,9.6c0,0.1,0.1,0.2,0.2,0.3s0.2,0.2,0.3,0.2c0.1,0.1,0.2,0.1,0.4,0.1
	c0.1,0,0.2,0,0.4-0.1c0.1,0,0.3-0.1,0.4-0.2C252.3,58.9,252.4,58.7,252.4,58.6L252.4,58.6z"/>
<radialGradient id="SVGID_10_" cx="-771.2446" cy="1153.2446" r="1" gradientTransform="matrix(21.4274 0 0 -21.4274 16788.7891 24755.5488)" gradientUnits="userSpaceOnUse">
	<stop  offset="0" style="stop-color:#053BF2"/>
	<stop  offset="9.000000e-02" style="stop-color:#0F3CF3;stop-opacity:0.91"/>
	<stop  offset="0.25" style="stop-color:#2B3FF4;stop-opacity:0.75"/>
	<stop  offset="0.45" style="stop-color:#5844F7;stop-opacity:0.55"/>
	<stop  offset="0.69" style="stop-color:#964BFA;stop-opacity:0.31"/>
	<stop  offset="0.96" style="stop-color:#E454FE;stop-opacity:4.000000e-02"/>
	<stop  offset="1" style="stop-color:#F055FF;stop-opacity:0"/>
</radialGradient>
<path class="st31" d="M235.2,43.1c3.6,1.2,6.9,3.2,9.6,5.9c2.7,2.7,4.7,6,5.9,9.6c0,0.1,0.1,0.2,0.2,0.3c0.1,0.1,0.2,0.2,0.3,0.2
	c0.1,0.1,0.2,0.1,0.4,0.1c0.1,0,0.2,0,0.4-0.1c0.1,0,0.3-0.1,0.4-0.2c0.1-0.1,0.2-0.2,0.2-0.4c1.2-3.6,3.2-6.9,5.9-9.6
	c2.7-2.7,6-4.7,9.6-5.9c-3.5,1.1-9.3,2-16.4,2C244.5,45.2,238.6,44.3,235.2,43.1z"/>
<linearGradient id="SVGID_11_" gradientUnits="userSpaceOnUse" x1="366.2155" y1="245.9361" x2="289.7534" y2="168.3781" gradientTransform="matrix(1 0 0 -1 0 382)">
	<stop  offset="0" style="stop-color:#E4F5FF"/>
	<stop  offset="1" style="stop-color:#B4E2FD"/>
</linearGradient>
<path class="st32" d="M283.4,188.1L283.4,188.1c4.7,30.1,26.2,40.2,33.9,42.8c21.4,7,47.4-8.1,52.4-32.4
	c3.4-17.1-3.3-40.1-14.7-57.5c-5.7-8.7-12.5-15.8-19.6-20.2c-7.1-4.3-14.3-5.7-21.2-3.3c-8.8,3.1-17.8,12.7-23.9,25.8
	C284.1,156.3,280.9,172.4,283.4,188.1z M313.4,115.6c30.5-10.6,65.3,47.6,58.2,83.3c-5.2,25.4-32.4,41.2-55,33.9
	c-8-2.7-30.3-13.2-35.2-44.3C276.3,156.1,294.5,122.4,313.4,115.6z"/>
<g>
	<defs>
		<path id="SVGID_12_" d="M281.4,188.4c4.9,31.2,27.2,41.6,35.2,44.3c22.6,7.4,49.8-8.5,55-33.9c7.1-35.6-27.7-93.9-58.2-83.3
			C294.5,122.4,276.3,156.1,281.4,188.4z"/>
	</defs>
	<clipPath id="SVGID_13_">
		<use xlink:href="#SVGID_12_"  style="overflow:visible;"/>
	</clipPath>
	<g class="st33">
		
			<linearGradient id="SVGID_14_" gradientUnits="userSpaceOnUse" x1="307.0356" y1="238.8989" x2="272.8936" y2="144.2769" gradientTransform="matrix(1 0 0 -1 0 382)">
			<stop  offset="0" style="stop-color:#E4F5FF"/>
			<stop  offset="1" style="stop-color:#B4E2FD"/>
		</linearGradient>
		<path class="st34" d="M228.6,230.8c0,0-17.6-0.4-25.1-11.1c-13.6-19.4-7.5-36.3,16.8-35.1C247.4,186,244,126,291,154.9
			c10.2,6.3,32.9-6.9,42,20.6c2.2,6.5,18.4,7,28.8,12.2c16.4,8.2,11.8,43.3-3.7,43.4C342.6,231.2,228.6,230.8,228.6,230.8z"/>
		<path class="st35" d="M394.8,95.4l1,0.4l-28.7-19.6l-67,20.2l-0.3,20h-1.5c-0.9,0-1.7,0.7-1.7,1.7v1.7c0,0.9,0.7,1.7,1.7,1.7h5.3
			c0.9,0,1.7-0.7,1.7-1.7V118c0-0.9-0.7-1.7-1.7-1.7H301l12.6-13.6h45.2v176.9h11V102.8h9.3v3.8c0,0.9,0.7,1.7,1.7,1.7h14
			c0.9,0,1.7-0.7,1.7-1.7V97C396.5,96.1,395.7,95.4,394.8,95.4z M300.8,115.2l0.3-12.2l11.2-0.2L300.8,115.2z M380.8,95.4
			c-0.8,0-1.5,0.6-1.6,1.4H302l65-19.6l27,18.2H380.8z"/>
		<path class="st35" d="M289.9,137.8v-1.1h2.3v-7h1.9v7h4.9v-7h1.9v7h5.3v-7h1.9v7h4.9v-7h1.9v7h2.6v1.1H315v3.4h2.6v1.1H315v3.4
			h2.6v1.1H315v3.4h2.6v1.1H315v3.4h2.6v1.1H315v3.4h2.6v1.1H315v2.8h2.6v1.1H315v3.4h2.6v1.1H315v3.4h2.6v1.1H315v3.5h2.6v1.1H315
			v3.4h2.6v1.1H315v3.4h2.6v1.1H315v3.3h2.6v1.1H315v3.4h2.6v1.1H315v3.4h2.6v1.1H315v3.4h2.6v1.1H315v3.4h2.6v1.1H315v3.4h2.6v1.1
			H315v2.8h2.6v1.1H315v3.4h2.6v1.1H315v3.4h2.6v1.1H315v3.4h2.6v1.1H315v3.4h2.6v1.1H315v3.4h2.6v1.1H315v3.1h2.6v1.1H315v3.4h2.6
			v1.1H315v3.4h2.6v1.1H315v3.4h2.6v1.1H315v3.4h2.6v1.1H315v3.4h2.6v1.1H315v2.8h2.6v1.1H315v3.4h2.6v1.1H315v3.4h2.6v1.1h-27.7
			v-1.1h2.3v-3.3h-2.3v-1.1h2.3v-3.4h-2.3v-1.1h2.3V266h-2.3V265h2.3v-3.4h-2.3v-1.1h2.3v-3.4h-2.3V256h2.3v-3.4h-2.3v-1.1h2.3v-3.4
			h-2.3V247h2.3v-3.4h-2.3v-1.1h2.3v-3.1h-2.3v-1.1h2.3V235h-2.3V234h2.3v-3.4h-2.3v-1.1h2.3v-3.4h-2.3V225h2.3v-3.4h-2.3v-1.1h2.3
			v-3.4h-2.3V216h2.3v-2.8h-2.3v-1.1h2.3v-3.5h-2.3v-1.1h2.3v-3.4h-2.3v-1.1h2.3v-3.4h-2.3v-1.1h2.3v-3.4h-2.3v-1.1h2.3v-3.4h-2.3
			v-1.1h2.3v-3.3h-2.3v-1.1h2.3V182h-2.3v-1.1h2.3v-3.4h-2.3v-1.1h2.3V173h-2.3v-1.1h2.3v-3.4h-2.3v-1.1h2.3V164h-2.3V163h2.3v-2.8
			h-2.3v-1.1h2.3v-3.4h-2.3v-1.1h2.3v-3.4h-2.3v-1.1h2.3v-3.4h-2.3v-1.1h2.3v-3.4h-2.3v-1.1h2.3v-3.4H289.9z M300.9,137.8v3.4h5.3
			v-3.4H300.9z M306.2,273.3v-3.4h-5.3v3.4H306.2z M300.9,274.4v3.4h5.3v-3.4H300.9z M306.2,268.8V266h-5.3v2.8H306.2z M306.2,265
			v-3.4h-5.3v3.4H306.2z M306.2,260.5v-3.4h-5.3v3.4H306.2z M306.2,256v-3.4h-5.3v3.4H306.2z M306.2,251.5v-3.4h-5.3v3.4H306.2z
			 M306.2,247v-3.4h-5.3v3.4H306.2z M306.2,242.5v-3.1h-5.3v3.1H306.2z M306.2,238.4V235h-5.3v3.4H306.2z M306.2,233.9v-3.4h-5.3
			v3.4H306.2z M306.2,229.5V226h-5.3v3.4H306.2z M306.2,225v-3.4h-5.3v3.4H306.2z M306.2,220.5v-3.4h-5.3v3.4H306.2z M306.2,216
			v-2.8h-5.3v2.8H306.2z M306.2,212.1v-3.4h-5.3v3.4H306.2z M306.2,207.7v-3.4h-5.3v3.4H306.2z M306.2,203.2v-3.4h-5.3v3.4H306.2z
			 M306.2,198.7v-3.4h-5.3v3.4H306.2z M306.2,194.2v-3.4h-5.3v3.4L306.2,194.2L306.2,194.2z M306.2,189.7v-3.3h-5.3v3.3H306.2z
			 M306.2,185.4V182h-5.3v3.4H306.2z M306.2,180.9v-3.4h-5.3v3.4H306.2z M306.2,176.4V173h-5.3v3.4H306.2z M306.2,171.9v-3.4h-5.3
			v3.4H306.2z M306.2,167.4V164h-5.3v3.4H306.2z M306.2,163v-2.8h-5.3v2.8H306.2z M306.2,159.1v-3.4h-5.3v3.4H306.2z M306.2,154.6
			v-3.4h-5.3v3.4H306.2z M306.2,150.2v-3.4h-5.3v3.4H306.2z M306.2,145.7v-3.4h-5.3v3.4H306.2z M313.1,137.8h-4.9v3.4h4.9V137.8z
			 M313.1,142.2h-4.9v3.4h4.9V142.2z M313.1,146.7h-4.9v3.4h4.9V146.7z M313.1,151.2h-4.9v3.4h4.9V151.2z M313.1,155.7h-4.9v3.4h4.9
			V155.7z M313.1,160.2h-4.9v2.8h4.9V160.2z M313.1,164h-4.9v3.4h4.9V164z M313.1,168.5h-4.9v3.4h4.9V168.5z M313.1,173h-4.9v3.4
			h4.9V173z M313.1,177.5h-4.9v3.4h4.9V177.5z M313.1,182h-4.9v3.4h4.9V182z M313.1,186.5h-4.9v3.3h4.9V186.5z M313.1,190.8h-4.9
			v3.4h4.9V190.8z M313.1,195.3h-4.9v3.4h4.9V195.3z M313.1,199.8h-4.9v3.4h4.9V199.8z M313.1,204.2h-4.9v3.4h4.9V204.2z
			 M313.1,208.7h-4.9v3.4h4.9V208.7z M313.1,213.2h-4.9v2.8h4.9V213.2z M313.1,217h-4.9v3.4h4.9V217z M313.1,221.5h-4.9v3.4h4.9
			V221.5z M313.1,226h-4.9v3.4h4.9V226z M313.1,230.5h-4.9v3.4h4.9V230.5z M313.1,235h-4.9v3.4h4.9V235z M313.1,239.5h-4.9v3.1h4.9
			V239.5z M313.1,243.6h-4.9v3.4h4.9V243.6z M313.1,248.1h-4.9v3.4h4.9V248.1z M313.1,252.6h-4.9v3.4h4.9V252.6z M313.1,257.1h-4.9
			v3.4h4.9V257.1z M313.1,261.5h-4.9v3.4h4.9V261.5z M313.1,266h-4.9v2.8h4.9V266z M313.1,269.9h-4.9v3.4h4.9V269.9z M313.1,274.4
			h-4.9v3.4h4.9V274.4z M294.1,277.8h4.9v-3.4h-4.9V277.8z M294.1,273.3h4.9v-3.4h-4.9V273.3z M294.1,268.8h4.9V266h-4.9V268.8z
			 M294.1,265h4.9v-3.4h-4.9V265z M294.1,260.5h4.9v-3.4h-4.9V260.5z M294.1,256h4.9v-3.4h-4.9V256z M294.1,251.5h4.9v-3.4h-4.9
			V251.5z M294.1,247h4.9v-3.4h-4.9V247z M294.1,242.5h4.9v-3.1h-4.9V242.5z M294.1,238.4h4.9V235h-4.9V238.4z M294.1,233.9h4.9
			v-3.4h-4.9V233.9z M294.1,229.5h4.9V226h-4.9V229.5z M294.1,225h4.9v-3.4h-4.9V225z M294.1,220.5h4.9v-3.4h-4.9V220.5z M294.1,216
			h4.9v-2.8h-4.9V216z M294.1,212.1h4.9v-3.4h-4.9V212.1z M294.1,207.7h4.9v-3.4h-4.9V207.7z M294.1,203.2h4.9v-3.4h-4.9V203.2z
			 M294.1,198.7h4.9v-3.4h-4.9V198.7z M294.1,194.2h4.9v-3.4h-4.9V194.2z M294.1,189.7h4.9v-3.3h-4.9V189.7z M294.1,185.4h4.9V182
			h-4.9V185.4z M294.1,180.9h4.9v-3.4h-4.9V180.9z M294.1,176.4h4.9V173h-4.9V176.4z M294.1,171.9h4.9v-3.4h-4.9V171.9z
			 M294.1,167.4h4.9V164h-4.9V167.4z M294.1,163h4.9v-2.8h-4.9V163z M294.1,159.1h4.9v-3.4h-4.9V159.1z M294.1,154.6h4.9v-3.4h-4.9
			V154.6z M294.1,150.2h4.9v-3.4h-4.9V150.2z M294.1,145.7h4.9v-3.4h-4.9V145.7z M294.1,141.2h4.9v-3.4h-4.9V141.2z"/>
		<path class="st36" d="M351.5,223.7l11.4-26.9h27.6l-12.3,29.6L351.5,223.7z"/>
		<path class="st37" d="M349.8,225.3l-5.5-2.3l30.2-35.2l5.5,2.3L349.8,225.3z"/>
		<path class="st37" d="M354.5,227.3l-1.8-0.7l30.1-35.2l1.8,0.7L354.5,227.3z"/>
		<path class="st37" d="M365.6,232l-5.5-2.3l30.1-35.2l5.5,2.3L365.6,232z"/>
		<path class="st38" d="M361.9,195.5l-12.2,28.8l3.3-1.1l10.9-25.6h24.7l0.9-2.1H361.9z"/>
		<path class="st38" d="M269.3,229.5l4.6-6.3h98l14.5,23.4H265L269.3,229.5z"/>
		<path class="st39" d="M416.8,223.2v-27.7h-27.5l-11.7,27.7H306l-4.6,6.3l-4.3,17.1h121.3v-23.4H416.8z M408,245.3h-16.8
			l-10.5-12.7v-9.5l10.6-25.5h20V220c0,1.8-1.4,3.2-3.2,3.2V245.3z"/>
		<path class="st40" d="M289.8,279.7l-81.9,0l32.4-50.8h81.7L289.8,279.7z"/>
		<path class="st41" d="M289.7,279.8h-67.5l60.2-6l39.9-45.7L289.7,279.8z"/>
		<path class="st38" d="M390,195.7h-29.9c-0.7,0-1.2-0.5-1.2-1.2c0-0.7,0.5-1.2,1.2-1.2H390c0.7,0,1.2,0.5,1.2,1.2
			C391.2,195.2,390.6,195.7,390,195.7z"/>
		<path class="st38" d="M304.7,180.2c1.6,4.7,10,13,11.2,13.8c0,0,2-3.3,1.6-5.1c-0.3-1.5-3.6-6.8-4.7-9.5c-0.1-0.1-0.1-0.3-0.2-0.4
			c-0.2-0.4-0.2-0.7-0.2-0.9c0.1-0.6,1.9-2,3.9-3.6c2.7-2.1,5.9-4.7,6.4-6.5c0.9-3.1,4.1-15.6,4.1-15.6s-7.9,1.7-10.1,3.7
			c-2.2,2-11.8,18.4-12.2,22.5C304.4,179.1,304.5,179.6,304.7,180.2z"/>
		<path class="st42" d="M304.7,180.2c1.6,4.7,10,13,11.2,13.8c0,0,2-3.3,1.6-5.1c-0.3-1.6-4-7.4-4.9-9.9
			C311.2,178.8,307.9,178.5,304.7,180.2z"/>
		<path class="st42" d="M326.8,151.3v1c0,0-0.3,3,3.5,3.5c3.7,0.4,6.5-0.9,6.4-3.2c-0.3-1.8-0.7-3.3-0.7-4.8c0-0.6,0-1.1,0.1-1.8
			l-7.2-0.1l-2.1,0.3L326.8,151.3z"/>
		<path class="st43" d="M326.8,146.1l0,5.2c0.8,0.4,1.6,0.6,2.6,0.6c3.3,0,5.5-2.4,6.6-4.2c0-0.6,0-1.1,0.1-1.8l-7.2-0.1
			L326.8,146.1z"/>
		<path class="st36" d="M327.3,238.8c-0.2,1.3-0.4,2.3-0.4,3.1c-0.5,10.3-8.6,33.7-10.1,34.2c-2.2,0.8-5.8-0.9-7.6-1.5
			c-0.8-0.2-1.3-1-1.1-1.8c4-18.5,5.5-45,6-60.7c0.3-7.9,1.6-13.4,1.6-13.4s19.8-5.3,19.9,1.4C335.7,205.9,329.1,229.1,327.3,238.8z
			"/>
		<path class="st41" d="M327.3,238.8L314.1,212c0.3-7.9,1.6-13.4,1.6-13.4s19.8-5.3,19.9,1.4C335.7,205.9,329.1,229.1,327.3,238.8z"
			/>
		<path class="st36" d="M322.9,200.1l10.5,75.7c0,0,4.6,1.1,8.2,0.2c0,0,3.1-40.3,2.8-50c-0.3-9.7,2.2-26.1-0.6-27.9
			C341,196.3,322.9,200.1,322.9,200.1z"/>
		<path class="st38" d="M315.1,200.2c0,0,5.3,3.1,13.1,3c3,0,5.6-0.3,7.9-0.6c6.2-0.9,9.3-2.7,9.3-3.3c0-0.6-0.1-2.5-0.1-3.3
			c-1-11.4-0.5-20.2-1.8-26.9c0-0.1,0-0.2,0-0.2c-1.8-8.4-4.5-13.3-5.9-15.3c-0.5-0.7-0.8-1.1-0.8-1.1c0,1.6-3.4,2.9-6.1,2.8
			c-2.3-0.1-3.8-1.9-3.8-2.9c-0.2,0-10.4,7.1-10.4,13.7C316.4,195.7,314.6,200.2,315.1,200.2z"/>
		<path class="st39" d="M336.1,202.5c0,0,0,0.1,0,0.1c6.2-0.9,9.3-2.7,9.3-3.3c0-0.6-0.1-2.5-0.1-3.3c-1-11.4-0.5-20.2-1.8-26.9
			C340.2,173.5,333.5,184.9,336.1,202.5z"/>
		<path class="st44" d="M319.1,188.4l0.8,2.8l0.8,2.8l36-10.8c0.1,0,0.1,0,0.1,0c0,0,0.1,0,0.1-0.1c0.5-0.3,0.5-1.5,0.2-2.8
			c0-0.1,0-0.1-0.1-0.2c-0.4-1.4-1.2-2.5-1.8-2.5c0,0-0.1,0-0.1,0c0,0-0.1,0-0.1,0.1L319.1,188.4z"/>
		<path class="st45" d="M319.9,191.2l0.8,2.8l36-10.8c0.1,0,0.1,0,0.1,0c0,0,0.1,0,0.1-0.1c0.5-0.3,0.5-1.5,0.2-2.8
			c-1.5,1.1-8.5,6-20.5,8.4C324.3,191,320.5,191.2,319.9,191.2z"/>
		<path class="st46" d="M319,188.4c0.6-0.2,1.5,0.9,1.9,2.5c0.5,1.5,0.3,2.9-0.3,3.1c-0.6,0.2-1.5-0.9-1.9-2.5
			C318.3,189.9,318.4,188.6,319,188.4z"/>
		<path class="st44" d="M354.9,176.5l4.2-0.7c0,0,0.1,0,0.1,0c0,0,0.1,0,0.1,0c0.6,0.1,1.2,1.2,1.4,2.7c0,0.1,0,0.2,0,0.2
			c0.1,0.6,0.1,1.2,0,1.7c-0.1,0.5-0.3,0.9-0.5,1c0,0,0,0,0,0c0,0-0.1,0-0.1,0c0,0-0.1,0-0.1,0l-37.1,6l-0.5-2.8l-0.5-2.9
			L354.9,176.5z"/>
		<path class="st45" d="M339.4,184.3c7.9-0.5,12.1-4.7,15.4-7.8l4.2-0.7c0,0,0.1,0,0.1,0c0,0,0.1,0,0.1,0c0.6,0.1,1.2,1.2,1.4,2.7
			c0,0.1,0,0.2,0,0.2c0.1,0.6,0.1,1.2,0,1.7c-0.2,0.6-0.4,0.9-0.5,1c0,0,0,0,0,0c0,0-0.1,0-0.1,0c0,0-0.1,0-0.1,0l-37.1,6l-0.5-2.8
			C323,184.8,326.8,185.2,339.4,184.3z"/>
		<path class="st46" d="M321.9,181.9c0.6-0.1,1.3,1.1,1.6,2.7c0.2,1.6-0.1,3-0.7,3c-0.6,0.1-1.3-1.1-1.6-2.7
			C321,183.3,321.3,182,321.9,181.9z"/>
		<path class="st42" d="M335.1,192.8c8.6-1.4,14.3-5,16.6-6.7c0.8-0.6,1.2-1,1.2-1c4.4-9.3-3.6-25.5-5-28.3
			c-1.6-3-11.2-4.3-11.2-4.3s1.5,4.5,2.1,10.4c0.6,5.9,7,17.3,6.7,18.3c-0.1,0.2-0.8,0.7-2,1.4c-3.3,1.9-9.8,5-10.2,5.7
			C332.9,189.3,335.1,192.8,335.1,192.8z"/>
		<path class="st42" d="M333.4,188.3c0,0-4.8-1.9-6-1.1c-1.2,0.8-3.1,2-3.1,2.8c0,0.8,2.5,2.9,4.6,3.5c2.1,0.7,6.2-0.7,6.2-0.7
			L333.4,188.3z"/>
		<path class="st38" d="M338.8,162.9c0.6,5.9,7,17.3,6.7,18.3c-0.1,0.2-0.8,0.7-2,1.4c0.1,0,0.1,0,0.2,0c5-0.2,7.3,2.6,7.9,3.4
			c0.8-0.6,1.2-1,1.2-1c4.4-9.3-3.6-25.5-5-28.3c-1.6-3-11.2-4.3-11.2-4.3S338.3,157,338.8,162.9z"/>
		<path class="st42" d="M326.4,148.7c0,0,9.3,1.9,10.3-3.9c1.1-5.8,3-9.4-2.9-10.9c-5.9-1.4-7.4,0.6-8.2,2.4
			C324.7,138.1,324,148,326.4,148.7z"/>
		<path class="st21" d="M336.5,146.4c0,0,1.8-3.8,3.3-5.5c1.5-1.7,0.7-10.2-5.8-9.9c-6.4,0.3-8.8,4.9-8.8,5.8
			c-0.1,0.9,5.2,0.2,6.6,1.3c1.4,1.1,0.1,3,1.7,3.7s2.9,0.7,2.6,2.2C335.9,145.5,336.5,146.4,336.5,146.4z"/>
		<path class="st38" d="M334.5,127.1c1.8,0.5,3.2,1.2,4.3,2.1c0.1,0.1,0.2,0.2,0.3,0.3c3.8,3.6,2.3,9.4,2.3,9.4s-0.5,1.5-0.9,2
			c-0.3,0.6-5.4-0.1-5.7-1.2c-0.3-1.1-1.3-2.2-1.3-2.2s-5.3-0.4-5.7-0.4c-1.2-0.1-4.7-1.3-4.7-1.3
			C323.2,135.5,325.2,124.7,334.5,127.1z"/>
		<path class="st39" d="M320,134.7c0.6-0.2,1.7-0.3,3.5-0.4c0,0,1.5,1.2,4.5,2.2c1.4-1.8,5.4-6.1,10.7-7.3c0,0,0,0,0,0
			c0.1,0.1,0.2,0.2,0.3,0.3c0,0,0,0.1,0.1,0.1c-4.3,0.7-8.3,5.5-9.7,7.3c1.2,0.3,2.6,0.5,4.1,0.6c0,0-9.3,0.2-13.6-2.1
			C319.6,135.3,319.7,134.8,320,134.7z"/>
		<path class="st39" d="M310.5,177.1c0.2,1,0.7,2,2.2,2.3c-0.1-0.1-0.1-0.3-0.2-0.4c-0.2-0.4-0.2-0.7-0.2-0.9c0.1-0.6,1.9-2,3.9-3.6
			c0.2-0.9,0.6-3.7,0-5.9C315.6,165.9,310.3,176,310.5,177.1z"/>
		<path class="st39" d="M344.6,182c0,0,6.4-0.5,8.5,3.2c0,0-0.2,1.3-1.4,0.9c0,0-5.4-3.7-8.1-3.4C343.6,182.6,344,182,344.6,182z"/>
		<path class="st39" d="M312.7,179.4c0,0-3.3,0.1-7.5,2c0,0-0.9-0.9-0.6-1.4C305,179.4,310.9,177.5,312.7,179.4z"/>
	</g>
</g>
<linearGradient id="SVGID_15_" gradientUnits="userSpaceOnUse" x1="249.4285" y1="249.876" x2="140.2095" y2="111.2211" gradientTransform="matrix(1 0 0 -1 0 382)">
	<stop  offset="0" style="stop-color:#E4F5FF"/>
	<stop  offset="1" style="stop-color:#B4E2FD"/>
</linearGradient>
<path class="st47" d="M152.8,126.8L152.8,126.8c-10.1,5.1-19,12.5-26,21.7c-12,16.7-16.7,39.4-14.2,61.8c2.5,22.4,12.3,44.2,29,59
	l0,0c17,15,38.4,20.3,56.9,19.5c18.5-0.8,43-7.9,60.3-29.1c12.8-15.8,19.5-37.6,18.2-63.6v0c-1.1-24.7-8-41.1-17-52.2l0,0
	C234.3,112.1,185.2,109.8,152.8,126.8L152.8,126.8z M125.1,147.3c7.2-9.5,16.3-17.1,26.7-22.3c33-17.3,83.3-15.1,109.7,17.7
	c9.3,11.5,16.3,28.2,17.4,53.3c1.3,26.4-5.5,48.7-18.7,65c-17.8,21.8-42.9,29-61.7,29.9c-18.9,0.8-40.8-4.6-58.3-20
	C105.8,240.5,100.5,181.6,125.1,147.3z"/>
<linearGradient id="SVGID_16_" gradientUnits="userSpaceOnUse" x1="247.944" y1="258.7825" x2="138.725" y2="120.1275" gradientTransform="matrix(1 0 0 -1 0 382)">
	<stop  offset="0" style="stop-color:#E4F5FF"/>
	<stop  offset="1" style="stop-color:#B4E2FD"/>
</linearGradient>
<path class="st48" d="M150.4,116.1c-10.4,5.2-19.5,12.8-26.7,22.3c-24.7,34.3-19.3,93.2,15.1,123.5c17.4,15.4,39.4,20.8,58.3,20
	c18.9-0.8,44-8,61.7-29.9c13.2-16.2,20-38.6,18.7-65c-1.1-25.1-8.2-41.8-17.4-53.3C233.6,100.9,183.4,98.8,150.4,116.1z"/>
<path class="st49" d="M120.2,200.3H92v-2h28.2V200.3z"/>
<path class="st49" d="M118.8,199.1l-5.4-5.4l1.4-1.4l6.9,6.9l-6.9,6.9l-1.4-1.4L118.8,199.1z"/>
<path class="st49" d="M256.8,198.3H288v2h-31.2V198.3z"/>
<path class="st49" d="M258.2,199.1l5.4-5.4l-1.4-1.4l-6.9,6.9l6.9,6.9l1.4-1.4L258.2,199.1z"/>
<path class="st49" d="M233.5,263.6l26.7,26.7l-1.4,1.4L232.1,265L233.5,263.6z"/>
<path class="st49" d="M234,265.1h7.7v-2H232v9.7h2V265.1z"/>
<path class="st49" d="M235.1,126.7l19.3-19.3l1.4,1.4l-19.3,19.3L235.1,126.7z"/>
<path class="st49" d="M236.9,126.6h7.7v2h-9.7v-9.7h2V126.6z"/>
<path class="st49" d="M152.2,263.5l-23.8,23.8l-1.4-1.4l23.8-23.8L152.2,263.5z"/>
<path class="st49" d="M150.3,263.7h-7.7v-2h9.7v9.7h-2V263.7z"/>
<path class="st49" d="M146.3,132.6L124,110.3l1.4-1.4l22.3,22.3L146.3,132.6z"/>
<path class="st49" d="M145.9,131h-7.7v2h9.7v-9.7h-2V131z"/>
<path class="st21" d="M129.1,214.3c0.4,0,0.8,0,1.2,0.1c0.4,0.1,0.8,0.2,1.1,0.3l-0.2,1.2c-0.9,0-1.5,0-1.8,0
	c-0.4,0-0.7,0.1-0.9,0.2c-0.2,0.1-0.4,0.3-0.5,0.5c-0.1,0.3-0.1,0.6-0.1,1.1c0,0.5,0,0.8,0.1,1.1c0.1,0.3,0.3,0.4,0.5,0.5
	c0.2,0.1,0.5,0.2,0.9,0.2c0.8,0,1.4,0,2-0.1l0.2,1.2c-0.7,0.3-1.5,0.4-2.5,0.4c-0.8,0-1.4-0.1-1.9-0.3c-0.5-0.2-0.8-0.6-1-1.1
	s-0.3-1.1-0.3-2c0-0.8,0.1-1.5,0.3-2c0.2-0.5,0.6-0.8,1-1.1C127.6,214.4,128.3,214.3,129.1,214.3z"/>
<path class="st21" d="M136,214.3c0.9,0,1.5,0.2,1.9,0.5c0.4,0.3,0.6,1,0.6,1.8v4.2H137l-0.2-1c-0.3,0.3-0.6,0.6-1,0.8
	c-0.4,0.2-0.8,0.3-1.4,0.3c-0.6,0-1.1-0.2-1.5-0.5c-0.4-0.3-0.6-0.8-0.6-1.4v-0.6c0-0.5,0.2-0.9,0.5-1.2c0.3-0.3,0.8-0.4,1.4-0.4
	h2.3v-0.3c0-0.3-0.1-0.5-0.2-0.6c-0.1-0.1-0.4-0.2-0.8-0.2c-0.7,0-1.6,0-2.7,0.1l-0.2-1.3c0.5-0.1,1-0.2,1.7-0.2
	C135,214.4,135.6,214.3,136,214.3z M134.3,219c0,0.2,0.1,0.4,0.2,0.5c0.1,0.1,0.3,0.2,0.6,0.2c0.2,0,0.5-0.1,0.8-0.2
	c0.3-0.1,0.6-0.3,0.8-0.5v-0.9h-1.7c-0.2,0-0.4,0.1-0.5,0.2c-0.1,0.1-0.1,0.3-0.1,0.4V219z"/>
<path class="st21" d="M146.4,220.9l-1.7,0v-3.4c0-0.3,0-0.6,0.1-1h-0.1c-0.1,0.3-0.3,0.6-0.5,0.9l-2.4,3.4h-1.6v-6.4h1.7v3.4
	c0,0.2,0,0.6-0.1,0.9h0c0.1-0.3,0.3-0.6,0.5-0.9l2.4-3.5h1.6V220.9z M145.4,211.7c0,0.1,0,0.1,0,0.2c0,0.3-0.1,0.6-0.3,0.9
	c-0.2,0.3-0.4,0.5-0.8,0.6c-0.3,0.2-0.7,0.2-1.1,0.2c-0.4,0-0.8-0.1-1.1-0.2c-0.3-0.2-0.6-0.4-0.8-0.7c-0.2-0.3-0.3-0.6-0.3-0.9
	c0-0.1,0-0.2,0-0.2h1.3c0,0.7,0.3,1.1,0.9,1.1c0.6,0,0.9-0.4,0.8-1.1H145.4z"/>
<path class="st21" d="M153.6,216h-2.1v4.9h-1.9V216h-2.1v-1.5h6.2V216z"/>
<path class="st21" d="M157.7,214.3c0.8,0,1.4,0.1,1.9,0.3c0.5,0.2,0.8,0.6,1,1.1c0.2,0.5,0.3,1.2,0.3,2s-0.1,1.5-0.3,2
	c-0.2,0.5-0.6,0.8-1,1.1c-0.5,0.2-1.1,0.3-1.9,0.3c-0.8,0-1.5-0.1-1.9-0.3c-0.5-0.2-0.8-0.6-1-1.1s-0.3-1.1-0.3-2s0.1-1.5,0.3-2
	c0.2-0.5,0.6-0.8,1-1.1C156.2,214.4,156.9,214.3,157.7,214.3z M157.7,215.8c-0.3,0-0.6,0.1-0.8,0.2c-0.2,0.1-0.3,0.3-0.4,0.6
	c-0.1,0.3-0.1,0.7-0.1,1.2c0,0.5,0,0.9,0.1,1.2c0.1,0.3,0.2,0.5,0.4,0.6c0.2,0.1,0.4,0.2,0.8,0.2s0.6-0.1,0.8-0.2
	c0.2-0.1,0.3-0.3,0.4-0.6c0.1-0.3,0.1-0.7,0.1-1.2c0-0.5,0-0.9-0.1-1.2c-0.1-0.3-0.2-0.5-0.4-0.6C158.3,215.8,158,215.8,157.7,215.8
	z"/>
<path class="st21" d="M166.8,217.6c0.6,0,1,0.2,1.3,0.5c0.3,0.3,0.4,0.7,0.4,1.2c0,0.4-0.1,0.8-0.3,1c-0.2,0.2-0.5,0.4-0.9,0.5
	c-0.4,0.1-0.9,0.1-1.5,0.1c-1.5,0-2.6,0-3.4-0.1v-6.4c0.7-0.1,1.8-0.1,3.1-0.1c0.7,0,1.3,0.1,1.7,0.2c0.4,0.1,0.7,0.3,0.9,0.5
	c0.2,0.2,0.3,0.6,0.3,1c0,0.5-0.1,0.8-0.3,1.1C167.6,217.4,167.3,217.6,166.8,217.6L166.8,217.6z M166.4,216.4
	c0-0.2-0.1-0.4-0.2-0.5c-0.2-0.1-0.4-0.1-0.9-0.1l-1.2,0v1.3h1.3c0.4,0,0.7,0,0.8-0.1C166.3,216.8,166.4,216.6,166.4,216.4z
	 M165.4,219.7c0.4,0,0.7,0,0.9-0.1c0.2-0.1,0.2-0.3,0.2-0.6c0-0.3-0.1-0.5-0.2-0.6c-0.2-0.1-0.5-0.2-0.9-0.2h-1.3v1.5H165.4z"/>
<path class="st21" d="M178.8,220.9l-1.7,0v-3.4c0-0.3,0-0.6,0.1-1h-0.1c-0.1,0.3-0.3,0.6-0.5,0.9l-2.4,3.4h-1.6v-6.4h1.7v3.4
	c0,0.2,0,0.6-0.1,0.9h0c0.1-0.3,0.3-0.6,0.5-0.9l2.4-3.5h1.6V220.9z"/>
<path class="st21" d="M189.5,220.9l-1.7,0v-3.4c0-0.3,0-0.6,0.1-1h-0.1c-0.1,0.3-0.3,0.6-0.5,0.9l-2.4,3.4h-1.6v-6.4h1.7v3.4
	c0,0.2,0,0.6-0.1,0.9h0c0.1-0.3,0.3-0.6,0.5-0.9l2.4-3.5h1.6V220.9z"/>
<path class="st21" d="M194.1,214.3c0.4,0,0.8,0,1.2,0.1c0.4,0.1,0.8,0.2,1.1,0.3l-0.2,1.2c-0.9,0-1.5,0-1.8,0
	c-0.4,0-0.7,0.1-0.9,0.2c-0.2,0.1-0.4,0.3-0.5,0.5c-0.1,0.3-0.1,0.6-0.1,1.1c0,0.5,0,0.8,0.1,1.1c0.1,0.3,0.3,0.4,0.5,0.5
	c0.2,0.1,0.5,0.2,0.9,0.2c0.8,0,1.4,0,2-0.1l0.2,1.2c-0.7,0.3-1.5,0.4-2.5,0.4c-0.8,0-1.4-0.1-1.9-0.3c-0.5-0.2-0.8-0.6-1-1.1
	c-0.2-0.5-0.3-1.1-0.3-2c0-0.8,0.1-1.5,0.3-2c0.2-0.5,0.6-0.8,1-1.1C192.7,214.4,193.3,214.3,194.1,214.3z"/>
<path class="st21" d="M203.4,216h-2.1v4.9h-1.9V216h-2.1v-1.5h6.2V216z"/>
<path class="st21" d="M207.4,214.3c0.8,0,1.4,0.1,1.9,0.3c0.5,0.2,0.8,0.6,1,1.1c0.2,0.5,0.3,1.2,0.3,2s-0.1,1.5-0.3,2
	c-0.2,0.5-0.6,0.8-1,1.1c-0.5,0.2-1.1,0.3-1.9,0.3c-0.8,0-1.5-0.1-1.9-0.3c-0.5-0.2-0.8-0.6-1-1.1c-0.2-0.5-0.3-1.1-0.3-2
	s0.1-1.5,0.3-2c0.2-0.5,0.6-0.8,1-1.1C206,214.4,206.6,214.3,207.4,214.3z M207.4,215.8c-0.3,0-0.6,0.1-0.8,0.2
	c-0.2,0.1-0.3,0.3-0.4,0.6c-0.1,0.3-0.1,0.7-0.1,1.2c0,0.5,0,0.9,0.1,1.2c0.1,0.3,0.2,0.5,0.4,0.6c0.2,0.1,0.4,0.2,0.8,0.2
	c0.3,0,0.6-0.1,0.8-0.2c0.2-0.1,0.3-0.3,0.4-0.6c0.1-0.3,0.1-0.7,0.1-1.2c0-0.5,0-0.9-0.1-1.2c-0.1-0.3-0.2-0.5-0.4-0.6
	C208,215.8,207.8,215.8,207.4,215.8z"/>
<path class="st21" d="M217.8,214.5v6.4h-1.9v-2.4c-0.4,0.1-0.7,0.2-1.1,0.3c-0.4,0.1-0.7,0.1-1,0.1c-0.6,0-1.1-0.1-1.4-0.4
	c-0.3-0.2-0.5-0.6-0.5-1.1v-2.9h1.9v2.3c0,0.2,0,0.4,0.1,0.5c0.1,0.1,0.3,0.1,0.5,0.1c0.5,0,1-0.1,1.5-0.3v-2.7H217.8z"/>
<path class="st21" d="M225.6,214.5v6.4h-1.9v-2.7h-2.4v2.7h-1.9v-6.4h1.9v2.4h2.4v-2.4H225.6z"/>
<path class="st21" d="M233.5,220.9l-1.7,0v-3.4c0-0.3,0-0.6,0.1-1h-0.1c-0.1,0.3-0.3,0.6-0.5,0.9l-2.4,3.4h-1.6v-6.4h1.7v3.4
	c0,0.2,0,0.6-0.1,0.9h0c0.1-0.3,0.3-0.6,0.5-0.9l2.4-3.5h1.6V220.9z"/>
<path class="st21" d="M238.9,217.6c0.5,0.1,0.9,0.2,1.1,0.4c0.2,0.2,0.4,0.4,0.6,0.8c0.2,0.4,0.4,1.1,0.8,2.1h-2
	c-0.3-0.9-0.5-1.5-0.6-1.8c-0.1-0.3-0.3-0.6-0.4-0.7c-0.2-0.1-0.4-0.2-0.7-0.2H237c0,0.2,0.1,0.4,0.1,0.5v2.1h-1.9v-6.4h1.9v1.6
	c0,0.3,0,0.5-0.1,0.8h0.5c0.3,0,0.6-0.1,0.8-0.2c0.2-0.1,0.3-0.3,0.5-0.6c0.1-0.3,0.3-0.8,0.5-1.6h1.9l-0.1,0.4
	c-0.3,0.8-0.5,1.4-0.6,1.7c-0.1,0.3-0.3,0.5-0.5,0.7C239.7,217.4,239.4,217.5,238.9,217.6L238.9,217.6z"/>
<path class="st21" d="M245.4,214.3c0.8,0,1.4,0.1,1.9,0.3c0.5,0.2,0.8,0.6,1,1.1c0.2,0.5,0.3,1.2,0.3,2s-0.1,1.5-0.3,2
	c-0.2,0.5-0.6,0.8-1,1.1c-0.5,0.2-1.1,0.3-1.9,0.3c-0.8,0-1.5-0.1-1.9-0.3c-0.5-0.2-0.8-0.6-1-1.1c-0.2-0.5-0.3-1.1-0.3-2
	s0.1-1.5,0.3-2c0.2-0.5,0.6-0.8,1-1.1C244,214.4,244.6,214.3,245.4,214.3z M245.4,215.8c-0.3,0-0.6,0.1-0.8,0.2
	c-0.2,0.1-0.3,0.3-0.4,0.6c-0.1,0.3-0.1,0.7-0.1,1.2c0,0.5,0,0.9,0.1,1.2c0.1,0.3,0.2,0.5,0.4,0.6c0.2,0.1,0.4,0.2,0.8,0.2
	c0.3,0,0.6-0.1,0.8-0.2c0.2-0.1,0.3-0.3,0.4-0.6c0.1-0.3,0.1-0.7,0.1-1.2c0-0.5,0-0.9-0.1-1.2c-0.1-0.3-0.2-0.5-0.4-0.6
	C246.1,215.8,245.8,215.8,245.4,215.8z"/>
<path class="st21" d="M254.5,217.6c0.6,0,1,0.2,1.3,0.5c0.3,0.3,0.4,0.7,0.4,1.2c0,0.4-0.1,0.8-0.3,1c-0.2,0.2-0.5,0.4-0.9,0.5
	c-0.4,0.1-0.9,0.1-1.5,0.1c-1.5,0-2.6,0-3.4-0.1v-6.4c0.7-0.1,1.8-0.1,3.1-0.1c0.7,0,1.3,0.1,1.7,0.2c0.4,0.1,0.7,0.3,0.9,0.5
	c0.2,0.2,0.3,0.6,0.3,1c0,0.5-0.1,0.8-0.3,1.1C255.4,217.4,255,217.6,254.5,217.6L254.5,217.6z M254.2,216.4c0-0.2-0.1-0.4-0.2-0.5
	c-0.2-0.1-0.4-0.1-0.9-0.1l-1.2,0v1.3h1.3c0.4,0,0.7,0,0.8-0.1C254.1,216.8,254.2,216.6,254.2,216.4z M253.2,219.7
	c0.4,0,0.7,0,0.9-0.1c0.2-0.1,0.2-0.3,0.2-0.6c0-0.3-0.1-0.5-0.2-0.6c-0.2-0.1-0.5-0.2-0.9-0.2h-1.3v1.5H253.2z"/>
<path class="st21" d="M150,233.6c0.6,0,1,0.2,1.3,0.5c0.3,0.3,0.4,0.7,0.4,1.2c0,0.4-0.1,0.8-0.3,1c-0.2,0.2-0.5,0.4-0.9,0.5
	c-0.4,0.1-0.9,0.1-1.5,0.1c-1.5,0-2.6,0-3.4-0.1v-6.4c0.7-0.1,1.8-0.1,3.1-0.1c0.7,0,1.3,0.1,1.7,0.2c0.4,0.1,0.7,0.3,0.9,0.5
	c0.2,0.2,0.3,0.6,0.3,1c0,0.5-0.1,0.8-0.3,1.1C150.9,233.4,150.5,233.6,150,233.6L150,233.6z M149.6,232.4c0-0.2-0.1-0.4-0.2-0.5
	c-0.2-0.1-0.4-0.1-0.9-0.1l-1.2,0v1.3h1.3c0.4,0,0.7,0,0.8-0.1C149.6,232.8,149.6,232.6,149.6,232.4z M148.7,235.7
	c0.4,0,0.7,0,0.9-0.1c0.2-0.1,0.2-0.3,0.2-0.6c0-0.3-0.1-0.5-0.2-0.6c-0.2-0.1-0.5-0.2-0.9-0.2h-1.3v1.5H148.7z"/>
<path class="st21" d="M158.8,230.3c0.8,0,1.4,0.1,1.9,0.3c0.5,0.2,0.8,0.6,1,1.1c0.2,0.5,0.3,1.2,0.3,2s-0.1,1.5-0.3,2
	c-0.2,0.5-0.6,0.8-1,1.1c-0.5,0.2-1.1,0.3-1.9,0.3c-0.8,0-1.5-0.1-1.9-0.3c-0.5-0.2-0.8-0.6-1-1.1c-0.2-0.5-0.3-1.1-0.3-2
	s0.1-1.5,0.3-2c0.2-0.5,0.6-0.8,1-1.1C157.3,230.4,158,230.3,158.8,230.3z M158.8,231.8c-0.3,0-0.6,0.1-0.8,0.2
	c-0.2,0.1-0.3,0.3-0.4,0.6c-0.1,0.3-0.1,0.7-0.1,1.2c0,0.5,0,0.9,0.1,1.2c0.1,0.3,0.2,0.5,0.4,0.6c0.2,0.1,0.4,0.2,0.8,0.2
	c0.3,0,0.6-0.1,0.8-0.2c0.2-0.1,0.3-0.3,0.4-0.6c0.1-0.3,0.1-0.7,0.1-1.2c0-0.5,0-0.9-0.1-1.2c-0.1-0.3-0.2-0.5-0.4-0.6
	C159.4,231.8,159.2,231.8,158.8,231.8z"/>
<path class="st21" d="M170.3,235.5v3.2h-1.3l-0.1-1.8h-4.8l-0.1,1.8h-1.3v-3.2h0.8c0.4-1,0.6-2.2,0.8-3.5c0.1-0.5,0.2-0.9,0.5-1.2
	c0.3-0.3,0.7-0.4,1.3-0.4h3.1v5H170.3z M167.5,235.5v-3.7h-0.8c-0.4,0-0.6,0.2-0.7,0.6c-0.1,0.7-0.2,1.3-0.3,1.8
	c-0.1,0.5-0.3,0.9-0.5,1.4H167.5z"/>
<path class="st21" d="M177.7,230.5v6.4h-1.9v-2.7h-2.4v2.7h-1.9v-6.4h1.9v2.4h2.4v-2.4H177.7z"/>
<path class="st21" d="M182.3,230.3c0.8,0,1.4,0.1,1.9,0.3c0.5,0.2,0.8,0.6,1,1.1c0.2,0.5,0.3,1.2,0.3,2s-0.1,1.5-0.3,2
	c-0.2,0.5-0.6,0.8-1,1.1c-0.5,0.2-1.1,0.3-1.9,0.3s-1.5-0.1-1.9-0.3c-0.5-0.2-0.8-0.6-1-1.1c-0.2-0.5-0.3-1.1-0.3-2s0.1-1.5,0.3-2
	c0.2-0.5,0.6-0.8,1-1.1C180.9,230.4,181.5,230.3,182.3,230.3z M182.3,231.8c-0.3,0-0.6,0.1-0.8,0.2c-0.2,0.1-0.3,0.3-0.4,0.6
	c-0.1,0.3-0.1,0.7-0.1,1.2c0,0.5,0,0.9,0.1,1.2c0.1,0.3,0.2,0.5,0.4,0.6c0.2,0.1,0.4,0.2,0.8,0.2s0.6-0.1,0.8-0.2
	c0.2-0.1,0.3-0.3,0.4-0.6c0.1-0.3,0.1-0.7,0.1-1.2c0-0.5,0-0.9-0.1-1.2c-0.1-0.3-0.2-0.5-0.4-0.6
	C182.9,231.8,182.7,231.8,182.3,231.8z"/>
<path class="st21" d="M194.7,230.5c0.4,0,0.7,0.2,0.7,0.7l0.2,5.7h-1.8l-0.2-5h-0.2l-1,3.6c-0.1,0.4-0.3,0.6-0.7,0.6h-1
	c-0.4,0-0.6-0.2-0.7-0.6l-1-3.6h-0.2l-0.2,5h-1.7l0.2-5.7c0-0.2,0.1-0.4,0.2-0.5c0.1-0.1,0.3-0.2,0.5-0.2h1.7c0.4,0,0.6,0.2,0.7,0.6
	l0.8,2.8c0,0.2,0.1,0.5,0.2,0.9h0.1l0.1-0.4c0-0.2,0.1-0.4,0.1-0.6l0.8-2.8c0.1-0.4,0.3-0.6,0.7-0.6H194.7z"/>
<path class="st21" d="M207.7,230.5c0.4,0,0.7,0.2,0.7,0.7l0.2,5.7h-1.8l-0.2-5h-0.2l-1,3.6c-0.1,0.4-0.3,0.6-0.7,0.6h-1
	c-0.4,0-0.6-0.2-0.7-0.6l-1-3.6h-0.2l-0.2,5h-1.7l0.2-5.7c0-0.2,0.1-0.4,0.2-0.5c0.1-0.1,0.3-0.2,0.5-0.2h1.7c0.4,0,0.6,0.2,0.7,0.6
	l0.8,2.8c0,0.2,0.1,0.5,0.2,0.9h0.1l0.1-0.4c0-0.2,0.1-0.4,0.1-0.6l0.8-2.8c0.1-0.4,0.3-0.6,0.7-0.6H207.7z"/>
<path class="st21" d="M213.4,235.5c0.7,0,1.5,0,2.4-0.1l0.2,1.2c-0.3,0.2-0.8,0.3-1.3,0.4c-0.5,0.1-1,0.1-1.5,0.1
	c-0.8,0-1.5-0.1-2-0.3c-0.5-0.2-0.8-0.6-1.1-1.1c-0.2-0.5-0.3-1.1-0.3-1.9c0-0.8,0.1-1.5,0.3-2c0.2-0.5,0.6-0.8,1-1.1
	c0.5-0.2,1.1-0.3,1.9-0.3c1.1,0,1.8,0.2,2.3,0.6c0.5,0.4,0.7,0.9,0.7,1.7c0,0.6-0.2,1-0.5,1.4c-0.3,0.3-0.8,0.4-1.5,0.4h-2.3
	c0.1,0.5,0.2,0.8,0.4,0.9C212.5,235.5,212.9,235.5,213.4,235.5z M213.1,231.7c-0.3,0-0.6,0-0.7,0.1c-0.2,0.1-0.3,0.2-0.4,0.4
	c-0.1,0.2-0.1,0.5-0.1,0.9h1.8c0.2,0,0.4-0.1,0.5-0.2c0.1-0.1,0.1-0.3,0.1-0.5c0-0.3-0.1-0.5-0.2-0.6
	C213.9,231.8,213.6,231.7,213.1,231.7z"/>
<path class="st21" d="M220.4,230.3c0.4,0,0.8,0,1.2,0.1c0.4,0.1,0.8,0.2,1.1,0.3l-0.2,1.2c-0.9,0-1.5,0-1.8,0
	c-0.4,0-0.7,0.1-0.9,0.2c-0.2,0.1-0.4,0.3-0.5,0.5c-0.1,0.3-0.1,0.6-0.1,1.1c0,0.5,0,0.8,0.1,1.1c0.1,0.3,0.3,0.4,0.5,0.5
	c0.2,0.1,0.5,0.2,0.9,0.2c0.8,0,1.4,0,2-0.1l0.2,1.2c-0.7,0.3-1.5,0.4-2.5,0.4c-0.8,0-1.4-0.1-1.9-0.3c-0.5-0.2-0.8-0.6-1-1.1
	c-0.2-0.5-0.3-1.1-0.3-2c0-0.8,0.1-1.5,0.3-2c0.2-0.5,0.6-0.8,1-1.1C219,230.4,219.6,230.3,220.4,230.3z"/>
<path class="st21" d="M229.7,232h-2.1v4.9h-1.9V232h-2.1v-1.5h6.2V232z"/>
<path class="st21" d="M234,235.5c0.7,0,1.5,0,2.4-0.1l0.2,1.2c-0.3,0.2-0.8,0.3-1.3,0.4c-0.5,0.1-1,0.1-1.5,0.1
	c-0.8,0-1.5-0.1-1.9-0.3c-0.5-0.2-0.8-0.6-1.1-1.1c-0.2-0.5-0.3-1.1-0.3-1.9c0-0.8,0.1-1.5,0.3-2c0.2-0.5,0.6-0.8,1-1.1
	c0.5-0.2,1.1-0.3,1.9-0.3c1.1,0,1.8,0.2,2.3,0.6c0.5,0.4,0.7,0.9,0.7,1.7c0,0.6-0.2,1-0.5,1.4c-0.3,0.3-0.8,0.4-1.5,0.4h-2.3
	c0.1,0.5,0.2,0.8,0.4,0.9C233.1,235.5,233.5,235.5,234,235.5z M233.7,231.7c-0.3,0-0.6,0-0.7,0.1c-0.2,0.1-0.3,0.2-0.4,0.4
	c-0.1,0.2-0.1,0.5-0.1,0.9h1.8c0.2,0,0.4-0.1,0.5-0.2c0.1-0.1,0.1-0.3,0.1-0.5c0-0.3-0.1-0.5-0.2-0.6
	C234.4,231.8,234.1,231.7,233.7,231.7z"/>
<path class="st21" d="M177.9,171.2H164l-0.3,3.5l6.3,0.8c3.5,0.4,5.9,1.7,7.3,3.8c1.4,2.1,2.1,4.6,2.1,7.5c0,7.4-4.3,11.1-12.8,11.1
	c-3.4,0-7.6-0.3-12.5-0.9l0.9-7.9c4.4,0.2,7.4,0.3,8.9,0.3c1.3,0,2.3-0.1,3-0.3c0.7-0.2,1.2-0.5,1.5-0.9c0.3-0.4,0.5-1,0.5-1.8
	c0.1-1.1-0.2-1.9-0.9-2.4c-0.7-0.5-1.9-0.8-3.6-0.9l-6.2-0.8c-0.9-0.1-1.6-0.5-2.2-1.1c-0.5-0.6-0.8-1.4-0.7-2.2l0.9-15.4h22.1
	L177.9,171.2z"/>
<path class="st21" d="M196.7,162.9c3.7,0,6.5,0.5,8.6,1.6c2.1,1.1,3.6,2.9,4.5,5.4c0.9,2.5,1.4,6,1.4,10.6c0,4.5-0.5,8.1-1.4,10.6
	c-0.9,2.5-2.4,4.3-4.5,5.4c-2.1,1.1-5,1.6-8.6,1.6c-3.7,0-6.5-0.5-8.6-1.6s-3.5-2.9-4.5-5.4c-0.9-2.5-1.4-6-1.4-10.6
	c0-4.5,0.5-8.1,1.4-10.6c0.9-2.5,2.4-4.3,4.5-5.4S193,162.9,196.7,162.9z M196.6,170.8c-1.1,0-1.9,0.2-2.4,0.6
	c-0.5,0.4-0.9,1.3-1.1,2.6c-0.2,1.3-0.3,3.5-0.3,6.4s0.1,5.1,0.3,6.4c0.2,1.3,0.6,2.2,1.1,2.6c0.5,0.4,1.3,0.6,2.4,0.6
	c1.2,0,2-0.2,2.5-0.6c0.6-0.4,0.9-1.3,1.1-2.6c0.2-1.3,0.3-3.5,0.3-6.4s-0.1-5.1-0.3-6.4c-0.2-1.3-0.6-2.2-1.1-2.6
	C198.6,171,197.8,170.8,196.6,170.8z"/>
<path class="st21" d="M237.2,186.4h-7.8v7.7h-7.5v-7.7h-7.8v-7.6h7.8V171h7.5v7.7h7.8V186.4z"/>
<path d="M105,50.5h-3.7v13.6h3.7V50.5z"/>
<path d="M96,50.5l-3.6,9.9l-3.6-9.9H85l5,13.6h1h2.7h1l5-13.6H96z"/>
<path d="M118.1,53.5v-3h-4.4v-3.8h-3.7v3.8H107v3h2.9v5.9c0,3,1.5,5,5.4,5c1,0,1.9-0.2,2.8-0.5l-0.4-3c-0.5,0.1-1.1,0.2-1.6,0.2
	c-1.1,0-2.4-0.5-2.4-2v-5.6H118.1z"/>
<path d="M82.2,64.2h4l-7.3-20H76l-7.3,20h4l1.4-3.8h6.8L82.2,64.2z M75.1,57.4l2.3-6.3l2.3,6.3H75.1z"/>
<path d="M126.6,50.2c-1.4,0-2.8,0.5-3.9,1.3c-1.2,0.8-2,1.9-2.6,3.2c-0.5,1.3-0.6,2.7-0.3,4.1c0.3,1.4,1,2.6,2,3.6s2.3,1.6,3.7,1.9
	c1.4,0.3,2.8,0.1,4.1-0.4c1.3-0.5,2.4-1.5,3.2-2.6c0.8-1.2,1.2-2.5,1.2-4c0-0.9-0.2-1.9-0.6-2.8s-0.9-1.7-1.6-2.3
	c-0.7-0.7-1.5-1.2-2.4-1.5C128.5,50.4,127.6,50.2,126.6,50.2z M126.6,61.1c-0.7,0-1.4-0.2-2-0.7c-0.6-0.4-1.1-1-1.3-1.7
	c-0.3-0.7-0.3-1.4-0.2-2.1c0.2-0.7,0.5-1.4,1-1.9c0.5-0.5,1.2-0.8,1.9-1c0.7-0.1,1.4-0.1,2.1,0.2c0.7,0.3,1.2,0.8,1.6,1.4
	c0.4,0.6,0.6,1.3,0.6,2c0,1-0.4,1.9-1.1,2.6C128.6,60.7,127.6,61.1,126.6,61.1z"/>
<path d="M105.5,46.6c0,0.5-0.1,0.9-0.4,1.3c-0.3,0.4-0.6,0.7-1.1,0.9c-0.4,0.2-0.9,0.2-1.4,0.1c-0.5-0.1-0.9-0.3-1.2-0.7
	c-0.3-0.3-0.6-0.8-0.7-1.2c-0.1-0.5,0-0.9,0.1-1.4c0.2-0.4,0.5-0.8,0.9-1.1c0.4-0.3,0.9-0.4,1.3-0.4c0.6,0,1.2,0.3,1.7,0.7
	C105.3,45.3,105.5,45.9,105.5,46.6z"/>
<path class="st50" d="M46.7,46.3c0,1.2-0.4,2.5-1.1,3.5c-0.7,1-1.7,1.8-2.8,2.3c-1.1,0.5-2.4,0.6-3.6,0.4c-1.2-0.2-2.3-0.8-3.2-1.7
	c-0.9-0.9-1.5-2-1.7-3.2c-0.2-1.2-0.1-2.5,0.4-3.6c0.5-1.1,1.3-2.1,2.3-2.8c1-0.7,2.2-1.1,3.5-1.1c0.8,0,1.6,0.2,2.4,0.5
	c0.8,0.3,1.5,0.8,2,1.4c0.6,0.6,1,1.3,1.4,2C46.5,44.7,46.7,45.5,46.7,46.3"/>
<path class="st51" d="M62.4,60.7c0,1.5-0.4,3-1.3,4.2c-0.8,1.3-2,2.2-3.4,2.8c-1.4,0.6-2.9,0.7-4.4,0.4c-1.5-0.3-2.8-1-3.9-2.1
	c-1.1-1.1-1.8-2.4-2.1-3.9c-0.3-1.5-0.1-3,0.4-4.4c0.6-1.4,1.6-2.6,2.8-3.4c1.3-0.8,2.7-1.3,4.2-1.3c1,0,2,0.2,2.9,0.6
	c0.9,0.4,1.8,0.9,2.5,1.7c0.7,0.7,1.3,1.5,1.7,2.5S62.4,59.7,62.4,60.7"/>
<path class="st52" d="M59.6,46.3c0,1-0.3,1.9-0.8,2.7c-0.5,0.8-1.3,1.4-2.2,1.8c-0.9,0.4-1.9,0.5-2.8,0.3c-1-0.2-1.8-0.7-2.5-1.3
	c-0.7-0.7-1.2-1.6-1.3-2.5c-0.2-1-0.1-1.9,0.3-2.8c0.4-0.9,1-1.7,1.8-2.2c0.8-0.5,1.8-0.8,2.7-0.8c0.6,0,1.3,0.1,1.9,0.4
	c0.6,0.2,1.1,0.6,1.6,1.1c0.5,0.5,0.8,1,1.1,1.6C59.5,45.1,59.6,45.7,59.6,46.3"/>
<path class="st53" d="M44,60.7c0,0.7-0.2,1.4-0.6,2c-0.4,0.6-0.9,1-1.6,1.3c-0.6,0.3-1.4,0.3-2,0.2c-0.7-0.1-1.3-0.5-1.8-1
	c-0.5-0.5-0.8-1.1-1-1.8c-0.1-0.7-0.1-1.4,0.2-2c0.3-0.6,0.7-1.2,1.3-1.6c0.6-0.4,1.3-0.6,2-0.6c0.5,0,0.9,0.1,1.4,0.3
	c0.4,0.2,0.8,0.4,1.2,0.8c0.3,0.3,0.6,0.7,0.8,1.2C43.9,59.7,44,60.2,44,60.7"/>
<path class="st54" d="M24.7,164.9c0.7-0.1,1.5-0.1,2.2,0c0.4,0.2,0.9,0.4,1.2,0.7c0.3,0.3,0.6,0.7,0.8,1.2c0.2,0.4,0.2,0.9,0.2,1.4
	c0,0.5-0.2,0.9-0.4,1.4c-0.9,1.6-1.9,3.3-2.8,5c-0.2-0.1-0.3-0.3-0.4-0.5c-0.8-1.4-1.6-2.8-2.4-4.2c-0.3-0.5-0.5-1-0.5-1.6
	s0.1-1.1,0.3-1.6C23.3,165.8,23.9,165.2,24.7,164.9L24.7,164.9z M25.5,166.5c-0.2,0.1-0.5,0.2-0.7,0.3c-0.2,0.2-0.3,0.4-0.4,0.6
	c-0.1,0.2-0.1,0.5-0.1,0.7c0,0.2,0.1,0.5,0.3,0.7c0.1,0.2,0.3,0.4,0.6,0.5c0.2,0.1,0.5,0.1,0.7,0.1c0.2,0,0.5-0.1,0.7-0.2
	c0.2-0.1,0.4-0.3,0.5-0.5c0.1-0.2,0.2-0.5,0.2-0.8c0-0.3-0.1-0.5-0.3-0.8c-0.2-0.2-0.4-0.4-0.7-0.5S25.8,166.4,25.5,166.5
	L25.5,166.5z"/>
<path class="st54" d="M22,175.1c0.9,0.8,1.7,1.7,2.6,2.5c0-0.8,0-1.6,0-2.3c0.8,0,1.6,0,2.4,0c0,1.6-0.1,3.2,0,4.7
	c0.6,0.8,1.3,1.5,2.1,2.2c-0.9,0.8-1.7,1.7-2.5,2.6h-0.2v-0.1c-0.3-0.4-0.7-0.8-1.1-1.2c-1.1-1.1-2.2-2.2-3.3-3.4
	c-1.5,1.6-3.1,3-4.6,4.6h-0.1c-0.8-0.9-1.6-1.8-2.5-2.5v-0.2H15c0.5-0.4,1-0.9,1.4-1.4C18.2,178.9,20.1,176.9,22,175.1z"/>
<path class="st55" d="M48.3,184.6c1.8-3.2,3.4-6.4,5.2-9.5c0.4,0.5,0.7,1.1,1,1.7c1.5,2.6,2.8,5.2,4.2,7.8h-2.6l-0.6-1.3
	c-1.2,0-2.5,0-3.8,0c-0.4,0.3-0.4,1-0.8,1.3C50.1,184.6,49.2,184.5,48.3,184.6z M52.5,181.5h2.2c-0.4-0.8-0.7-1.6-1.1-2.3
	C53.2,179.9,52.8,180.6,52.5,181.5L52.5,181.5z"/>
<path class="st55" d="M60.3,175c2.2,1.7,4.3,3.5,6.4,5.3c0-1.7,0-3.3,0-5h2.2c0,3.2,0,6.3,0,9.5c-0.6-0.4-1.1-0.8-1.6-1.2
	c-1.6-1.2-3.2-2.5-4.8-3.8v4.8h-2.2C60.3,181.4,60.3,178.2,60.3,175z"/>
<path class="st55" d="M35.1,176.7c1-0.9,2.3-1.5,3.7-1.5c1.4,0,2.7,0.5,3.8,1.4c-0.4,0.6-0.8,1.1-1.2,1.7c-1-0.6-2.1-1.2-3.3-0.9
	c-0.6,0.2-1.1,0.5-1.4,1c-0.3,0.5-0.5,1.1-0.4,1.7c0,0.6,0.2,1.2,0.6,1.6c0.4,0.5,0.9,0.8,1.5,0.9c1.2,0.2,2.4-0.1,3.3-0.7l1,1.5
	c-1,0.8-2.2,1.3-3.4,1.4h-1.1c-0.9-0.1-1.8-0.4-2.5-0.9c-0.5-0.4-1-1-1.3-1.6c-0.3-0.6-0.5-1.3-0.6-2c-0.1-0.7,0-1.4,0.3-2
	C34.2,177.8,34.6,177.2,35.1,176.7L35.1,176.7z"/>
<path class="st55" d="M44.5,175.3H47c0,3.1,0,6.2,0,9.2c-0.8,0-1.6,0-2.5,0C44.5,181.5,44.5,178.4,44.5,175.3z"/>
<path class="st55" d="M74.9,175.3c1.6,0.1,3.2-0.1,4.8,0.2c1.2,0.3,2.5,1.1,2.8,2.4c0.1,0.6,0,1.3-0.3,1.9c-0.3,0.6-0.8,1.1-1.4,1.3
	c0.7,1.1,1.2,2.3,1.9,3.4c-0.9,0-1.8,0-2.7,0c-0.5-0.9-1-1.8-1.5-2.7c-0.4,0-0.8,0.1-1.2,0.1c0,0.9,0,1.7,0,2.6c-0.8,0-1.7,0-2.5,0
	C74.9,181.5,74.9,178.4,74.9,175.3z M77.3,177.1v3.1c0.8,0,1.7-0.1,2.4-0.5c0.2-0.2,0.3-0.3,0.4-0.6c0.1-0.2,0.1-0.5,0.1-0.7
	c0-0.2-0.1-0.5-0.3-0.7c-0.1-0.2-0.3-0.4-0.5-0.5C78.7,177.1,78,177.1,77.3,177.1L77.3,177.1z"/>
<path class="st55" d="M84.5,175.3H87c0,1.5,0,2.9,0,4.4c0,0.8,0.1,1.6,0.5,2.4c0.5,0.8,1.6,0.9,2.4,0.7c0.9-0.4,1.1-1.5,1.2-2.3
	c0-1.7,0-3.4,0-5.1h2.5v0.1c0,1.5,0,3,0,4.5c0,1-0.2,2-0.6,2.9c-0.3,0.6-0.7,1.1-1.3,1.4c-0.5,0.4-1.2,0.6-1.8,0.6
	c-1.4,0.1-2.9,0-4-1c-1-1-1.2-2.3-1.3-3.6C84.5,178.5,84.5,176.9,84.5,175.3z"/>
<path class="st55" d="M70.8,182.5H73v2.1h-2.2V182.5z"/>
<path d="M75.5,297.2h-2c0,0-0.1,0-0.1,0c0,0-0.1,0-0.1,0.1c0,0,0,0.1-0.1,0.1c0,0,0,0.1,0,0.1v5.9h-3.6v-5.9c0,0,0-0.1,0-0.1
	c0,0,0-0.1-0.1-0.1c0,0-0.1,0-0.1-0.1c0,0-0.1,0-0.1,0h-1.9c0,0-0.1,0-0.1,0c0,0-0.1,0-0.1,0.1c0,0,0,0.1-0.1,0.1c0,0,0,0.1,0,0.1
	v15.1c0,0,0,0.1,0,0.1c0,0,0,0.1,0.1,0.1c0,0,0.1,0,0.1,0.1c0,0,0.1,0,0.1,0h2c0,0,0.1,0,0.1,0c0,0,0.1,0,0.1-0.1c0,0,0-0.1,0.1-0.1
	c0,0,0-0.1,0-0.1v-7.3h3.6v7.3c0,0,0,0.1,0,0.1c0,0,0,0.1,0.1,0.1c0,0,0.1,0,0.1,0.1c0,0,0.1,0,0.1,0h2c0,0,0.1,0,0.1,0
	c0,0,0.1,0,0.1-0.1c0,0,0-0.1,0.1-0.1c0,0,0-0.1,0-0.1v-15.1C75.8,297.3,75.7,297.2,75.5,297.2L75.5,297.2z M120,310.7
	c0-0.1-0.1-0.1-0.2-0.1c-0.8,0-5.9,2.4-5.9-5.5c0-3.5,1.3-8.3,4.5-5.4c0,0,0.1,0.1,0.1,0.1c0,0,0.1,0,0.1,0c0.1,0,0.2-0.1,0.2-0.2
	l0.8-1.4c0,0,0.1-0.1,0.1-0.1c0,0,0-0.1,0-0.1c0-0.2-0.2-0.2-0.3-0.3c-5.4-2.7-8.2,2.3-8.2,8.2c0,7.6,5.5,8.7,8.7,6.3
	c0.1,0,0.1-0.1,0.1-0.1c0-0.1,0-0.1,0-0.2L120,310.7L120,310.7z M106.5,304.2l3.8-6.8c0,0,0,0,0-0.1c0,0,0,0,0-0.1c0,0,0,0,0-0.1
	c0,0,0,0-0.1,0h-1.9c-0.6,0-0.7,0.2-0.9,0.6c-0.2,0.4-3,6.3-3.3,6.5v-6.8c0-0.1-0.1-0.2-0.2-0.2h-2.1c-0.1,0-0.2,0.1-0.2,0.2v15.2
	c0,0.1,0.1,0.2,0.2,0.2h2.1c0.2,0,0.2-0.1,0.2-0.2v-7.8c0.2,0.2,3.7,7.3,3.8,7.6c0.1,0.2,0.2,0.3,0.4,0.4c0.2,0.1,0.3,0.1,0.5,0.1
	h2.1c0.2,0,0.2-0.1,0.1-0.2L106.5,304.2L106.5,304.2z M88.4,310.8H88c-0.5,0-0.6-0.2-0.6-0.6v-12.9c0-0.2-0.1-0.2-0.2-0.2h-6.3
	c0,0-0.1,0-0.1,0s-0.1,0-0.1,0.1c0,0,0,0.1-0.1,0.1c0,0,0,0.1,0,0.1c0,3.5,0.1,9.3-2.2,13.4h-0.7c0,0-0.1,0-0.1,0c0,0-0.1,0-0.1,0.1
	c0,0,0,0.1-0.1,0.1c0,0,0,0.1,0,0.1v4.5c0,0.1,0,0.1,0.1,0.2c0,0,0.1,0.1,0.2,0.1h1.5c0.1,0,0.1,0,0.2,0c0.1,0,0.1-0.1,0.2-0.1
	c0,0,0.1-0.1,0.1-0.2c0-0.1,0-0.1,0-0.2v-2.5h6.7v2.8c0,0.1,0,0.1,0.1,0.2c0,0,0.1,0.1,0.2,0.1h1.7c0.1,0,0.2-0.1,0.3-0.2
	c0.1-0.1,0.1-0.2,0.1-0.3V311C88.7,310.9,88.6,310.8,88.4,310.8L88.4,310.8z M85,310.8h-4.6c1.3-2.1,2.5-5.6,2.5-11.7H85V310.8z
	 M94.9,296.8c-3.4,0-4.9,4.2-4.9,8.8c0,7.6,5.3,8.7,8.9,6.5c0.2-0.1,0.2-0.2,0.2-0.2l-0.2-1.1c0-0.1-0.1-0.2-0.2-0.2
	c-1.3,0-5.9,2.3-5.9-5.2c2.2,0.2,4.4,0.2,6.6,0.2C99.1,301.8,98.7,296.8,94.9,296.8L94.9,296.8z M92.6,303.7c0-6,4-7.2,4-0.2
	C95.3,303.5,93.9,303.5,92.6,303.7L92.6,303.7z"/>
<path class="st56" d="M63.6,289.5h-3.5c-3.5,0-6.6,2.6-6.6,7.7c-0.1,1.4,0.3,2.7,1,3.9c0.7,1.2,1.8,2.1,3,2.6l-4.8,8.6
	c0,0-0.1,0.1-0.1,0.2c0,0.1,0,0.1,0,0.2c0,0.1,0.1,0.1,0.1,0.1c0.1,0,0.1,0,0.2,0h2.2c0.1,0,0.2,0,0.2-0.1c0.1,0,0.1-0.1,0.2-0.2
	l4.4-8.4h1.6v8.4c0,0.1,0,0.1,0.1,0.2c0,0,0.1,0.1,0.2,0.1h2c0,0,0.1,0,0.1,0c0,0,0.1,0,0.1-0.1c0,0,0-0.1,0.1-0.1c0,0,0-0.1,0-0.1
	v-22.8C64,289.5,63.9,289.5,63.6,289.5z M61.6,302.1h-1.3c-5.7,0-5.3-10.7-0.2-10.7h1.7v10.7H61.6z"/>
<path d="M48,321.7v3.9h3v-3.9h0.8v8.6H51v-4h-3v4h-0.8v-8.6H48z"/>
<path d="M54.2,325.7c0,3.4,1.2,4,2.2,4c0.5,0,0.9-0.1,1.3-0.3l0.2,0.6c-0.5,0.3-1,0.4-1.6,0.4c-1.9,0-2.8-1.8-2.8-4.3
	c0-2.7,1-4.5,2.5-4.5c1.6,0,2.2,2.1,2.2,3.6v0.5H54.2z M57.3,325c0-2.1-0.8-2.8-1.5-2.8c-1,0-1.5,1.4-1.6,2.8H57.3z"/>
<path d="M64.2,321.7v7.9h0.7l-0.1,2.9h-0.6l-0.1-2.2h-4.6l-0.1,2.2h-0.6l-0.1-2.9h0.5c0.4-0.6,0.7-1.2,0.9-1.9
	c0.3-1.1,0.5-2.2,0.5-3.4v-2.6H64.2z M61.3,324c0,1.3-0.1,2.6-0.5,3.9c-0.2,0.6-0.4,1.2-0.8,1.7h3.4v-7.2h-2.1V324z"/>
<path d="M66.5,321.7c0.5-0.1,1-0.2,1.6-0.2c1.4,0,2.8,0.5,2.8,2.1c0,0.5-0.2,1-0.5,1.3c-0.3,0.4-0.7,0.6-1.2,0.7l0,0
	c0.6,0,1.1,0.3,1.5,0.7c0.4,0.4,0.6,1,0.6,1.5c0,1.8-1.6,2.4-3.2,2.4c-0.5,0-1,0-1.5-0.1L66.5,321.7z M67.2,329.7
	c0.3,0,0.5,0.1,0.8,0.1c1.2,0,2.4-0.4,2.4-1.8c0-1.4-1.4-1.9-2.5-1.9h-0.6L67.2,329.7z M67.2,325.5h0.7c0.8,0,2.1-0.6,2.1-1.7
	c0-1.2-1-1.5-2.1-1.5c-0.3,0-0.5,0-0.8,0.1V325.5z"/>
<path d="M73.6,321.7v3.6c0,1.4,0,2.5-0.1,4.2c0.4-1.3,1-2.7,1.5-3.9l1.5-4h1v8.6h-0.7v-3.4c0-1.9,0-3,0.1-4.4
	c-0.3,1.2-0.8,2.3-1.2,3.3c-0.3,0.8-1.2,2.9-1.9,4.5h-0.9v-8.6H73.6z"/>
<path d="M79.8,321.7l2.5,3.9h0.3v-3.9h0.7v3.9h0.3l2.5-3.9h0.9l-2.8,4c0.6,0.1,1.1,0.4,1.5,0.8s0.7,1,0.8,1.6
	c0.2,0.8,0.4,1.5,0.7,2.2h-0.8c-0.3-0.6-0.5-1.2-0.6-1.8c-0.5-1.8-1.3-2.3-2.4-2.3h-0.1v4.1h-0.7v-4.1h-0.1c-1.6,0-1.9,0.6-2.4,2.4
	c-0.1,0.6-0.3,1.1-0.6,1.7h-0.8c0.3-0.7,0.5-1.4,0.7-2.1c0.4-1.2,1-2.3,2.3-2.5l-2.8-4L79.8,321.7z"/>
<path d="M89.2,321.7v3.6c0,1.4,0,2.5-0.1,4.2c0.4-1.3,1-2.7,1.5-3.9l1.5-4h1v8.6h-0.7v-3.4c0-1.9,0-3,0.1-4.4
	c-0.3,1.2-0.8,2.3-1.2,3.3c-0.3,0.8-1.2,2.9-1.9,4.5h-0.9v-8.6H89.2z"/>
<path d="M95.5,321.7h0.8l1.4,4.4c0.4,1.2,0.6,1.9,0.9,2.9c0.3-1.1,0.5-1.7,0.8-2.9l1.4-4.4h0.8l0.6,8.6h-0.8l-0.2-4.1
	c-0.1-1.3-0.1-2.1-0.1-3.6h-0.1c-0.2,1-0.5,1.9-0.9,3.1l-1.5,4.6h-0.4L97,326c-0.4-1.3-0.7-2.3-1-3.4h-0.1c0,1.1-0.1,2.2-0.1,3.7
	l-0.2,4h-0.7L95.5,321.7z"/>
<path d="M108.8,326c0,3.2-1.3,4.4-2.6,4.4c-1.3,0-2.5-1.3-2.5-4.4c0-3.2,1.3-4.4,2.6-4.4C107.6,321.6,108.8,322.8,108.8,326z
	 M104.5,326c0,1.4,0.3,3.7,1.7,3.7c1.5,0,1.7-2.4,1.7-3.7c0-1.4-0.3-3.8-1.8-3.8C104.7,322.2,104.5,324.6,104.5,326L104.5,326z"/>
<path d="M114.2,330c-0.4,0.2-0.9,0.4-1.4,0.4c-1.7,0-2.8-1.5-2.8-4.4c0-2.3,1-4.4,3.1-4.4c0.4,0,0.8,0.1,1.2,0.3l-0.2,0.7
	c-0.3-0.2-0.7-0.3-1.1-0.3c-1.5,0-2.1,2-2.1,3.8c0,2.3,0.8,3.6,2.2,3.6c0.4,0,0.7-0.1,1.1-0.3L114.2,330z"/>
<path d="M119.8,321.7v0.7h-2v7.9h-0.8v-7.9h-2v-0.7H119.8z"/>
<path d="M121.6,321.7v3.2c0.3,0,0.6-0.1,0.8-0.1c1.7,0,3.1,0.8,3.1,2.7c0,0.4,0,0.8-0.2,1.1c-0.1,0.3-0.4,0.7-0.7,0.9
	c-0.7,0.6-1.5,0.9-2.4,0.8c-0.5,0-1,0-1.4-0.1v-8.5H121.6z M121.6,329.6c0.2,0,0.5,0,0.7,0c1.3,0,2.4-0.7,2.4-2.1c0-1.4-1.1-2-2.5-2
	c-0.2,0-0.4,0-0.6,0.1V329.6z"/>
<linearGradient id="SVGID_17_" gradientUnits="userSpaceOnUse" x1="89.9079" y1="305.5008" x2="82.4031" y2="280.5046" gradientTransform="matrix(1 0 0 -1 0 382)">
	<stop  offset="0" style="stop-color:#E4F5FF"/>
	<stop  offset="1" style="stop-color:#B4E2FD"/>
</linearGradient>
<path class="st57" d="M65.2,78.5H107c3.3,0,6,2.7,6,6v9.4c0,3.3-2.7,6-6,6H65.2c-3.3,0-6-2.7-6-6v-9.4
	C59.2,81.1,61.9,78.5,65.2,78.5z"/>
<path class="st21" d="M72,91.1h-3.1l-0.7,2.3h-1.5l2.5-7.9c0-0.1,0.1-0.2,0.2-0.3s0.2-0.1,0.3-0.1h1.5c0.1,0,0.2,0,0.3,0.1
	s0.2,0.2,0.2,0.3l2.5,7.9h-1.5L72,91.1z M71.6,89.8L70.8,87c0-0.1,0-0.2-0.1-0.3c0-0.2-0.1-0.3-0.1-0.4h-0.3L70.1,87l-0.8,2.9h2.3
	V89.8z M79.5,89.1c0.6,0.1,1,0.3,1.3,0.6c0.3,0.4,0.4,0.9,0.4,1.6c0,0.6-0.1,1-0.3,1.3s-0.5,0.5-0.9,0.6s-0.9,0.2-1.6,0.2
	c-0.8,0-1.4,0-1.9,0s-0.9,0-1.4-0.1V85c0.4,0,0.8-0.1,1.2-0.1s1,0,1.7,0c0.7,0,1.3,0.1,1.7,0.2c0.4,0.1,0.7,0.3,0.9,0.6
	c0.2,0.3,0.3,0.8,0.3,1.3c0,0.6-0.1,1.1-0.3,1.4C80.4,88.9,80,89.1,79.5,89.1z M76.7,86.3v2.3h1.5c0.3,0,0.6,0,0.8-0.1
	c0.2-0.1,0.3-0.2,0.4-0.4s0.1-0.4,0.1-0.7c0-0.3,0-0.5-0.1-0.7c-0.1-0.2-0.2-0.3-0.4-0.3c-0.2-0.1-0.5-0.1-0.9-0.1H76.7L76.7,86.3z
	 M78.2,92.3c0.4,0,0.7,0,0.9-0.1c0.2-0.1,0.4-0.2,0.4-0.4c0.1-0.2,0.1-0.4,0.1-0.8s0-0.7-0.1-0.9s-0.2-0.3-0.5-0.4
	c-0.2-0.1-0.5-0.1-0.9-0.1h-1.5v2.6C77,92.3,77.5,92.3,78.2,92.3z M89.3,93.4h-1.5V88c0-0.3,0-0.7,0.1-1h-0.1
	c-0.2,0.4-0.3,0.8-0.5,1l-3.1,5.5h-1.5v-8.3h1.4v5.4c0,0.4,0,0.8-0.1,1.1h0.1c0.1-0.3,0.3-0.6,0.5-1l3.1-5.4h1.5L89.3,93.4
	L89.3,93.4z M97.1,86.4h-2.6v7H93v-7h-2.5v-1.3h6.6V86.4z M101.3,85c0.9,0,1.5,0.1,2,0.4c0.5,0.3,0.8,0.7,1.1,1.3
	c0.2,0.6,0.3,1.5,0.3,2.6c0,1.1-0.1,2-0.3,2.6c-0.2,0.6-0.6,1.1-1.1,1.3c-0.5,0.2-1.2,0.4-2,0.4c-0.8,0-1.5-0.1-2-0.4
	c-0.5-0.3-0.8-0.7-1.1-1.3c-0.2-0.6-0.3-1.5-0.3-2.6c0-1.1,0.1-2,0.3-2.6c0.2-0.6,0.6-1.1,1.1-1.3C99.8,85.2,100.4,85,101.3,85z
	 M101.3,86.3c-0.5,0-0.8,0.1-1.1,0.3c-0.3,0.2-0.4,0.5-0.6,0.9c-0.1,0.4-0.2,1-0.2,1.8c0,0.8,0.1,1.4,0.2,1.8
	c0.1,0.4,0.3,0.7,0.6,0.9c0.3,0.2,0.6,0.3,1.1,0.3s0.8-0.1,1.1-0.3c0.3-0.2,0.5-0.5,0.6-0.9s0.2-1,0.2-1.8c0-0.8-0.1-1.4-0.2-1.8
	s-0.3-0.7-0.6-0.9C102.1,86.4,101.7,86.3,101.3,86.3z"/>
<linearGradient id="SVGID_18_" gradientUnits="userSpaceOnUse" x1="58.3817" y1="186.4772" x2="50.1184" y2="162.0202" gradientTransform="matrix(1 0 0 -1 0 382)">
	<stop  offset="0" style="stop-color:#E4F5FF"/>
	<stop  offset="1" style="stop-color:#B4E2FD"/>
</linearGradient>
<path class="st58" d="M36.3,197.2h35.8c3.3,0,6,2.7,6,6v9.4c0,3.3-2.7,6-6,6H36.3c-3.3,0-6-2.7-6-6v-9.4
	C30.3,199.9,33,197.2,36.3,197.2z"/>
<path class="st21" d="M45.8,211v3h-1l-0.1-1.8h-6v-8.3h1.5v7.1h3.1v-7.1h1.5v7.1H45.8L45.8,211z M53.6,212.2h-1.5v-5.4
	c0-0.3,0-0.7,0.1-1h-0.1c-0.2,0.4-0.3,0.8-0.5,1l-3.1,5.5H47V204h1.4v5.4c0,0.4,0,0.8-0.1,1.1h0.1c0.1-0.3,0.3-0.6,0.5-1l3.1-5.4
	h1.5v8.1H53.6z M59.9,209.8h-3.1l-0.7,2.3h-1.5l2.5-7.9c0-0.1,0.1-0.2,0.2-0.3c0.1-0.1,0.2-0.1,0.3-0.1h1.5c0.1,0,0.2,0,0.3,0.1
	c0.1,0.1,0.2,0.2,0.2,0.3l2.5,7.9h-1.5L59.9,209.8z M59.6,208.6l-0.8-2.9c0-0.1,0-0.2-0.1-0.3c0-0.2-0.1-0.3-0.1-0.4h-0.3l-0.2,0.7
	l-0.8,2.9H59.6L59.6,208.6z M69.4,203.9v8.3h-1.5v-3.8h-3.3v3.8h-1.5v-8.3h1.5v3.3h3.3v-3.3H69.4z"/>
<linearGradient id="SVGID_19_" gradientUnits="userSpaceOnUse" x1="84.1529" y1="37.7374" x2="80.6829" y2="10.9384" gradientTransform="matrix(1 0 0 -1 0 382)">
	<stop  offset="0" style="stop-color:#E4F5FF"/>
	<stop  offset="1" style="stop-color:#B4E2FD"/>
</linearGradient>
<path class="st59" d="M26,347.1h112.8c3.3,0,6,2.7,6,6v9.4c0,3.3-2.7,6-6,6H26c-3.3,0-6-2.7-6-6v-9.4C20,349.8,22.7,347.1,26,347.1z
	"/>
<path class="st21" d="M31,353.7c0.8,0,1.3,0,1.7,0c0.4,0,0.8,0,1.3,0.1v8.3h-1.5v-3.2H31c-0.3,0-0.5,0.1-0.6,0.2
	c-0.2,0.1-0.3,0.3-0.3,0.6l-0.6,2.5h-1.6l0.7-2.5c0.1-0.4,0.3-0.6,0.5-0.8c0.2-0.2,0.5-0.3,0.7-0.4v-0.1c-0.6-0.1-1-0.3-1.2-0.6
	c-0.2-0.3-0.4-0.8-0.4-1.5c0-0.6,0.1-1.1,0.3-1.4c0.2-0.4,0.5-0.6,0.9-0.8C29.7,353.8,30.3,353.7,31,353.7z M32.5,357.6V355
	c-0.3,0-0.8,0-1.5,0c-0.3,0-0.6,0-0.8,0.1c-0.2,0.1-0.3,0.2-0.4,0.4s-0.1,0.4-0.1,0.8c0,0.5,0.1,0.9,0.3,1.1c0.2,0.2,0.5,0.3,1,0.3
	h1.5V357.6z M36.6,360.4c0.2,0,0.3,0,0.4,0.1c0.1,0.1,0.1,0.2,0.1,0.4v0.6c0,0.2,0,0.3-0.1,0.4c-0.1,0.1-0.2,0.1-0.4,0.1h-0.4
	c-0.2,0-0.3,0-0.4-0.1s-0.1-0.2-0.1-0.4V361c0-0.2,0-0.3,0.1-0.4s0.2-0.1,0.4-0.1h0.4V360.4z M45,353.8v8.3h-1.5v-3.8h-3.3v3.8h-1.5
	v-8.3h1.5v3.3h3.3v-3.3H45z M52.1,360.9l0.1,1.1c-0.5,0-1,0.1-1.6,0.1c-0.6,0-1.3,0-2.1,0c-0.5,0-1-0.1-1.3-0.4
	c-0.3-0.3-0.5-0.7-0.5-1.2v-5.2c0-0.5,0.2-0.9,0.5-1.2c0.3-0.3,0.7-0.4,1.3-0.4c0.8,0,1.5,0,2.1,0c0.6,0,1.1,0,1.6,0.1l-0.1,1.2
	h-3.3c-0.2,0-0.4,0.1-0.5,0.2c-0.1,0.1-0.1,0.3-0.1,0.5v1.5h3.4v1.2h-3.4v1.8c0,0.3,0,0.4,0.1,0.5c0.1,0.1,0.2,0.2,0.5,0.2H52.1
	L52.1,360.9z M61,360.9v3h-1l-0.1-1.8h-5.7l-0.1,1.8h-1v-3H54c0.3-0.8,0.6-1.6,0.8-2.5s0.3-1.9,0.4-2.9c0-0.5,0.2-0.9,0.5-1.2
	c0.3-0.3,0.8-0.5,1.3-0.5h3v7.1H61L61,360.9z M58.5,360.9v-6h-1.3c-0.3,0-0.5,0.1-0.6,0.2c-0.1,0.1-0.2,0.3-0.2,0.6
	c-0.1,1.2-0.2,2.2-0.4,3c-0.2,0.8-0.4,1.5-0.7,2.2H58.5z M66.6,357.8c0.6,0.1,1,0.3,1.3,0.6c0.3,0.4,0.4,0.9,0.4,1.6
	c0,0.6-0.1,1-0.3,1.3c-0.2,0.3-0.5,0.5-0.9,0.6c-0.4,0.1-0.9,0.2-1.6,0.2c-0.8,0-1.4,0-1.9,0c-0.5,0-0.9,0-1.4-0.1v-8.3
	c0.4,0,0.8-0.1,1.2-0.1c0.4,0,1,0,1.7,0c0.7,0,1.3,0.1,1.7,0.2c0.4,0.1,0.7,0.3,0.9,0.6c0.2,0.3,0.3,0.8,0.3,1.3
	c0,0.6-0.1,1.1-0.3,1.4C67.5,357.5,67.1,357.7,66.6,357.8z M63.7,354.9v2.3h1.5c0.3,0,0.6,0,0.8-0.1c0.2-0.1,0.3-0.2,0.4-0.4
	c0.1-0.2,0.1-0.4,0.1-0.7s0-0.5-0.1-0.7c-0.1-0.2-0.2-0.3-0.4-0.3c-0.2-0.1-0.5-0.1-0.9-0.1H63.7z M65.3,361c0.4,0,0.7,0,0.9-0.1
	c0.2-0.1,0.4-0.2,0.4-0.4c0.1-0.2,0.1-0.4,0.1-0.8c0-0.4,0-0.7-0.1-0.9c-0.1-0.2-0.2-0.3-0.5-0.4c-0.2-0.1-0.5-0.1-0.9-0.1h-1.5v2.6
	C64.1,361,64.6,361,65.3,361z M76.4,362.1h-1.5v-5.4c0-0.3,0-0.7,0.1-1h-0.1c-0.2,0.4-0.3,0.8-0.5,1l-3.1,5.5h-1.5v-8.3h1.4v5.4
	c0,0.4,0,0.8-0.1,1.1h0.1c0.1-0.3,0.3-0.6,0.5-1l3.1-5.4h1.5L76.4,362.1L76.4,362.1z M85.3,357.8c0.5,0.1,0.9,0.2,1.2,0.5
	c0.3,0.3,0.5,0.6,0.7,1.1c0.2,0.5,0.5,1.2,0.8,2.3l0.1,0.4h-1.6l-0.2-0.6c-0.3-0.9-0.5-1.5-0.7-1.9c-0.2-0.4-0.4-0.7-0.6-0.9
	c-0.2-0.2-0.5-0.3-0.9-0.3h-0.7c0.1,0.3,0.1,0.6,0.1,0.8v2.9h-1.4v-2.9c0-0.2,0-0.5,0.1-0.8h-0.7c-0.4,0-0.6,0.1-0.9,0.3
	c-0.2,0.2-0.4,0.5-0.6,0.9c-0.2,0.4-0.4,1-0.7,2l-0.2,0.6h-1.6l0.1-0.4c0.3-1,0.6-1.8,0.8-2.3c0.2-0.5,0.4-0.8,0.7-1.1
	c0.3-0.3,0.7-0.4,1.2-0.5c-0.4-0.1-0.8-0.2-1.1-0.5c-0.3-0.3-0.5-0.6-0.7-1c-0.2-0.4-0.4-1.1-0.7-1.9l-0.2-0.5h1.5l0.1,0.3
	c0.3,0.8,0.5,1.4,0.7,1.8c0.2,0.4,0.4,0.7,0.6,0.9c0.2,0.2,0.5,0.3,0.8,0.3H82c-0.1-0.3-0.1-0.6-0.1-1v-2.4h1.4v2.4
	c0,0.4,0,0.7-0.1,1h0.6c0.3,0,0.6-0.1,0.8-0.3c0.2-0.2,0.4-0.5,0.6-0.9c0.2-0.4,0.4-1,0.7-1.8v-0.1c0-0.1,0-0.1,0.1-0.2h1.5
	l-0.2,0.5c-0.3,0.9-0.5,1.5-0.7,2c-0.2,0.4-0.4,0.8-0.7,1C86.1,357.5,85.7,357.7,85.3,357.8z M95.9,362.1h-1.5v-5.4
	c0-0.3,0-0.7,0.1-1h-0.1c-0.2,0.4-0.3,0.8-0.5,1l-3.1,5.5h-1.5v-8.3h1.4v5.4c0,0.4,0,0.8-0.1,1.1h0.1c0.1-0.3,0.3-0.6,0.5-1l3.1-5.4
	h1.5L95.9,362.1L95.9,362.1z M105.9,353.8c0.4,0,0.6,0.2,0.6,0.6l0.3,7.7h-1.5L105,355h-0.2l-1.4,5.5c-0.1,0.3-0.3,0.5-0.6,0.5h-1.1
	c-0.3,0-0.6-0.2-0.6-0.5l-1.4-5.5h-0.2l-0.3,7.1h-1.5l0.3-7.7c0-0.4,0.2-0.6,0.6-0.6h1.4c0.3,0,0.5,0.2,0.6,0.5l1.2,4.5
	c0.1,0.3,0.2,0.7,0.2,1.1h0.2l0.1-0.3c0-0.1,0-0.2,0.1-0.3c0-0.1,0.1-0.3,0.1-0.5l1.2-4.5c0.1-0.3,0.3-0.5,0.6-0.5H105.9z
	 M111.6,353.7c0.9,0,1.5,0.1,2,0.4c0.5,0.3,0.8,0.7,1.1,1.3c0.2,0.6,0.3,1.5,0.3,2.6s-0.1,2-0.3,2.6c-0.2,0.6-0.6,1.1-1.1,1.3
	c-0.5,0.3-1.2,0.4-2,0.4c-0.9,0-1.5-0.1-2-0.4c-0.5-0.3-0.8-0.7-1.1-1.3c-0.2-0.6-0.3-1.5-0.3-2.6s0.1-2,0.3-2.6s0.6-1.1,1.1-1.3
	C110.1,353.9,110.7,353.7,111.6,353.7z M111.6,354.9c-0.5,0-0.8,0.1-1.1,0.3c-0.3,0.2-0.4,0.5-0.6,0.9c-0.1,0.4-0.2,1-0.2,1.8
	c0,0.8,0.1,1.4,0.2,1.8c0.1,0.4,0.3,0.7,0.6,0.9c0.3,0.2,0.6,0.3,1.1,0.3s0.8-0.1,1.1-0.3c0.3-0.2,0.5-0.5,0.6-0.9
	c0.1-0.4,0.2-1,0.2-1.8c0-0.8-0.1-1.4-0.2-1.8c-0.1-0.4-0.3-0.7-0.6-0.9C112.4,355,112.1,354.9,111.6,354.9z M119.7,353.7
	c0.5,0,1,0,1.3,0.1c0.3,0,0.7,0.1,1.1,0.2l-0.1,1.1c-0.7-0.1-1.4-0.1-2.2-0.1c-0.5,0-0.8,0.1-1.1,0.3c-0.3,0.2-0.4,0.5-0.6,0.9
	c-0.1,0.4-0.2,1-0.2,1.8s0.1,1.4,0.2,1.8c0.1,0.4,0.3,0.7,0.6,0.9c0.3,0.2,0.6,0.3,1.1,0.3c0.6,0,1,0,1.4,0c0.4,0,0.7,0,1.1-0.1
	l0.1,1.1c-0.4,0.1-0.7,0.2-1.1,0.2c-0.4,0-0.8,0.1-1.4,0.1c-0.8,0-1.5-0.1-2-0.4c-0.5-0.3-0.8-0.7-1.1-1.3c-0.2-0.6-0.3-1.5-0.3-2.5
	s0.1-1.9,0.3-2.5c0.2-0.6,0.6-1.1,1.1-1.3C118.2,353.8,118.8,353.7,119.7,353.7z M129.5,355.1h-2.6v7h-1.5v-7h-2.5v-1.3h6.6V355.1z
	 M133.6,357c0.7,0,1.3,0.1,1.7,0.3c0.4,0.2,0.7,0.4,0.9,0.8s0.3,0.9,0.3,1.6c0,0.7-0.1,1.2-0.3,1.6c-0.2,0.4-0.5,0.6-0.8,0.8
	c-0.4,0.2-0.9,0.2-1.5,0.2c-0.8,0-1.4,0-1.8,0c-0.4,0-0.9,0-1.3-0.1v-8.3h1.5v3.2h1.3V357z M133.6,360.9c0.4,0,0.7,0,0.9-0.1
	c0.2-0.1,0.3-0.2,0.4-0.4c0.1-0.2,0.1-0.5,0.1-0.9s0-0.7-0.1-0.9c-0.1-0.2-0.2-0.3-0.4-0.4c-0.2-0.1-0.5-0.1-0.9-0.1h-1.4v2.8H133.6
	L133.6,360.9z"/>
<linearGradient id="SVGID_20_" gradientUnits="userSpaceOnUse" x1="291.8426" y1="309.3182" x2="282.6835" y2="285.6082" gradientTransform="matrix(1 0 0 -1 0 382)">
	<stop  offset="0" style="stop-color:#E4F5FF"/>
	<stop  offset="1" style="stop-color:#B4E2FD"/>
</linearGradient>
<path class="st60" d="M272.3,74h29.8c3.3,0,6,2.7,6,6v9.4c0,3.3-2.7,6-6,6h-29.8c-3.3,0-6-2.7-6-6V80C266.3,76.7,269,74,272.3,74z"
	/>
<path class="st21" d="M281.1,80.5c0.9,0,1.5,0.1,2,0.4c0.5,0.3,0.8,0.7,1.1,1.3c0.2,0.6,0.3,1.5,0.3,2.6c0,1.1-0.1,2-0.3,2.6
	c-0.2,0.6-0.6,1.1-1.1,1.3c-0.5,0.2-1.2,0.4-2,0.4c-0.8,0-1.4-0.1-1.8-0.4c-0.4-0.2-0.8-0.6-1-1.2c-0.2-0.6-0.3-1.3-0.4-2.3h-1.7V89
	h-1.5v-8.3h1.5v3.4h1.7c0-0.9,0.2-1.6,0.4-2.1c0.2-0.5,0.6-0.9,1-1.1C279.8,80.6,280.4,80.5,281.1,80.5z M281.1,87.8
	c0.5,0,0.8-0.1,1.1-0.3c0.3-0.2,0.5-0.5,0.6-0.9c0.1-0.4,0.2-1,0.2-1.8c0-0.8-0.1-1.4-0.2-1.8c-0.1-0.4-0.3-0.7-0.6-0.9
	c-0.3-0.2-0.6-0.3-1.1-0.3s-0.8,0.1-1.1,0.3c-0.2,0.2-0.4,0.5-0.5,0.9s-0.2,1-0.2,1.8c0,0.8,0.1,1.4,0.2,1.8s0.3,0.7,0.5,0.9
	C280.3,87.7,280.6,87.8,281.1,87.8z M292.1,89h-1.5v-7.1h-1.3c-0.2,0-0.4,0.1-0.6,0.2c-0.1,0.1-0.2,0.3-0.2,0.6
	c-0.1,1.4-0.2,2.4-0.3,3c-0.1,0.6-0.2,1.2-0.4,1.7c-0.2,0.6-0.5,1-0.9,1.3c-0.4,0.3-0.8,0.4-1.3,0.4c-0.1,0-0.2,0-0.3,0l-0.1-1.2
	c0.3-0.1,0.6-0.2,0.7-0.3c0.2-0.1,0.3-0.4,0.4-0.6c0.2-0.5,0.3-1,0.4-1.6c0.1-0.6,0.2-1.6,0.3-2.9c0-0.6,0.2-1,0.5-1.2
	c0.3-0.3,0.7-0.4,1.3-0.4h3.2V89H292.1z M298.4,86.6h-3.1l-0.7,2.3h-1.5l2.5-7.9c0-0.1,0.1-0.2,0.2-0.3c0.1-0.1,0.2-0.1,0.3-0.1h1.5
	c0.1,0,0.2,0,0.3,0.1c0.1,0.1,0.2,0.2,0.2,0.3l2.5,7.9h-1.5L298.4,86.6z M298,85.4l-0.8-2.9c0-0.1,0-0.2-0.1-0.3
	c0-0.2-0.1-0.3-0.1-0.4h-0.3l-0.2,0.7l-0.8,2.9H298L298,85.4z"/>
<linearGradient id="SVGID_21_" gradientUnits="userSpaceOnUse" x1="332.2708" y1="169.17" x2="322.4368" y2="129.069" gradientTransform="matrix(1 0 0 -1 0 382)">
	<stop  offset="0" style="stop-color:#E4F5FF"/>
	<stop  offset="1" style="stop-color:#B4E2FD"/>
</linearGradient>
<path class="st61" d="M281.9,216.4h90.8c3.3,0,6,2.7,6,6v21.4c0,3.3-2.7,6-6,6h-90.8c-3.3,0-6-2.7-6-6v-21.4
	C275.9,219.1,278.6,216.4,281.9,216.4z"/>
<path class="st21" d="M316.2,226c0.7,0,1.2,0.1,1.6,0.2c0.4,0.1,0.7,0.4,0.8,0.7c0.2,0.3,0.3,0.8,0.3,1.4c0,0.7-0.1,1.2-0.3,1.5
	c-0.2,0.3-0.5,0.5-0.9,0.6c-0.4,0.1-0.9,0.1-1.6,0.1c-0.9,0-1.7,0-2.5-0.1v-7.6c1-0.1,1.8-0.1,2.5-0.1c0.7,0,1.5,0,2.4,0.1l-0.1,1.1
	H315v2h1.2V226z M316.2,229.4c0.4,0,0.6,0,0.8-0.1c0.2-0.1,0.3-0.2,0.4-0.3c0.1-0.2,0.1-0.4,0.1-0.7s0-0.6-0.1-0.7
	c-0.1-0.2-0.2-0.3-0.4-0.4c-0.2-0.1-0.4-0.1-0.8-0.1h-1.3v2.4h1.3V229.4z M324.2,228.3h-2.8l-0.6,2.1h-1.4l2.3-7.2
	c0-0.1,0.1-0.2,0.2-0.3c0.1-0.1,0.2-0.1,0.3-0.1h1.3c0.1,0,0.2,0,0.3,0.1c0.1,0.1,0.2,0.2,0.2,0.3l2.3,7.2h-1.4L324.2,228.3z
	 M323.9,227.1l-0.8-2.6c0-0.1,0-0.2-0.1-0.3c0-0.1-0.1-0.3-0.1-0.4h-0.3l-0.2,0.6l-0.8,2.6h2.3V227.1z M329.1,222.7
	c0.6,0,1.1,0.1,1.5,0.2c0.4,0.1,0.6,0.3,0.8,0.6c0.2,0.3,0.2,0.7,0.2,1.2c0,0.6-0.1,1-0.3,1.3c-0.2,0.3-0.5,0.4-1,0.5
	c0.5,0.1,0.9,0.2,1.2,0.6c0.2,0.3,0.4,0.8,0.4,1.4c0,0.5-0.1,0.9-0.3,1.2c-0.2,0.3-0.4,0.5-0.8,0.6c-0.3,0.1-0.8,0.2-1.4,0.2
	s-1.1,0-1.5-0.1c-0.4,0-0.8-0.1-1.2-0.2l0.1-1c0.9,0.1,1.7,0.2,2.4,0.2c0.3,0,0.6,0,0.8-0.1c0.2-0.1,0.3-0.2,0.4-0.3
	c0.1-0.2,0.1-0.4,0.1-0.7s0-0.6-0.1-0.8s-0.2-0.3-0.4-0.4c-0.2-0.1-0.5-0.1-0.8-0.1h-1.4v-1h1.4c0.4,0,0.7-0.1,0.9-0.2
	c0.2-0.1,0.3-0.4,0.3-0.8c0-0.3,0-0.5-0.1-0.7c-0.1-0.2-0.2-0.3-0.4-0.3c-0.2-0.1-0.4-0.1-0.8-0.1s-0.8,0-1.1,0
	c-0.4,0-0.6,0-0.6,0.1h-0.3l-0.1-1c0.4-0.1,0.7-0.1,1-0.2C328.2,222.7,328.7,222.7,329.1,222.7z M336,225.7c0.7,0,1.2,0.1,1.6,0.2
	c0.4,0.1,0.7,0.4,0.8,0.7c0.2,0.3,0.3,0.8,0.3,1.4s-0.1,1.1-0.2,1.4c-0.2,0.3-0.4,0.6-0.8,0.7c-0.3,0.1-0.8,0.2-1.4,0.2
	c-0.7,0-1.3,0-1.6,0c-0.4,0-0.8,0-1.2-0.1v-7.6h1.4v2.9h1.1V225.7z M341.2,222.8v7.6h-1.4v-7.6H341.2z M336,229.4
	c0.4,0,0.6,0,0.8-0.1c0.2-0.1,0.3-0.2,0.4-0.4c0.1-0.2,0.1-0.4,0.1-0.8c0-0.3,0-0.6-0.1-0.8c-0.1-0.2-0.2-0.3-0.4-0.4
	c-0.2-0.1-0.4-0.1-0.8-0.1h-1.3v2.6H336L336,229.4z M286.5,235.7c0.6,0,1.1,0.1,1.5,0.2c0.4,0.1,0.6,0.3,0.8,0.6
	c0.2,0.3,0.2,0.7,0.2,1.2c0,0.6-0.1,1-0.3,1.3c-0.2,0.3-0.5,0.4-1,0.5c0.5,0.1,0.9,0.2,1.2,0.6c0.2,0.3,0.4,0.8,0.4,1.4
	c0,0.5-0.1,0.9-0.3,1.2s-0.4,0.5-0.8,0.6c-0.3,0.1-0.8,0.2-1.4,0.2c-0.6,0-1.1,0-1.5-0.1c-0.4,0-0.8-0.1-1.2-0.2l0.1-1
	c0.8,0.1,1.7,0.2,2.4,0.2c0.3,0,0.6,0,0.8-0.1c0.2-0.1,0.3-0.2,0.4-0.3c0.1-0.2,0.1-0.4,0.1-0.7s0-0.6-0.1-0.8
	c-0.1-0.2-0.2-0.3-0.4-0.4c-0.2-0.1-0.5-0.1-0.8-0.1h-1.4v-1h1.4c0.4,0,0.7-0.1,0.9-0.2c0.2-0.1,0.3-0.4,0.3-0.8
	c0-0.3,0-0.5-0.1-0.7c-0.1-0.2-0.2-0.3-0.4-0.3c-0.2-0.1-0.4-0.1-0.8-0.1s-0.8,0-1.1,0c-0.4,0-0.6,0-0.6,0.1h-0.3l-0.1-1
	c0.4-0.1,0.7-0.1,1-0.2C285.7,235.7,286.1,235.7,286.5,235.7z M294.8,241.3H292l-0.6,2.1H290l2.3-7.2c0-0.1,0.1-0.2,0.2-0.3
	c0.1-0.1,0.2-0.1,0.3-0.1h1.3c0.1,0,0.2,0,0.3,0.1c0.1,0.1,0.2,0.2,0.2,0.3l2.3,7.2h-1.4L294.8,241.3z M294.4,240.1l-0.8-2.6
	c0-0.1,0-0.2-0.1-0.3c0-0.1-0.1-0.3-0.1-0.4h-0.3l-0.2,0.6l-0.8,2.6h2.3V240.1z M300.5,235.7c0.5,0,0.9,0,1.2,0.1
	c0.3,0,0.6,0.1,1,0.2l-0.1,1c-0.6-0.1-1.3-0.1-2-0.1c-0.4,0-0.8,0.1-1,0.3c-0.2,0.2-0.4,0.4-0.5,0.8s-0.1,0.9-0.1,1.6
	c0,0.7,0,1.2,0.1,1.6c0.1,0.4,0.3,0.7,0.5,0.8c0.2,0.2,0.6,0.2,1,0.2c0.5,0,0.9,0,1.2,0c0.3,0,0.7,0,1-0.1l0.1,1
	c-0.3,0.1-0.7,0.2-1,0.2c-0.3,0-0.8,0.1-1.3,0.1c-0.8,0-1.4-0.1-1.8-0.4c-0.4-0.3-0.8-0.7-1-1.2c-0.2-0.6-0.3-1.3-0.3-2.3
	s0.1-1.7,0.3-2.3c0.2-0.6,0.5-1,1-1.2C299.1,235.8,299.7,235.7,300.5,235.7z M309.4,237h-2.3v6.4h-1.4V237h-2.3v-1.2h6V237z
	 M313.3,235.7c0.7,0,1.2,0.1,1.6,0.2c0.4,0.1,0.6,0.4,0.8,0.7c0.2,0.3,0.2,0.8,0.2,1.5c0,0.6-0.1,1.1-0.2,1.5
	c-0.2,0.3-0.4,0.6-0.8,0.7c-0.3,0.1-0.8,0.2-1.4,0.2c-0.5,0-1,0-1.5-0.1v2.9h-1.4v-7.6c0.4,0,0.8-0.1,1.2-0.1
	C312.1,235.7,312.6,235.7,313.3,235.7z M313.2,239.5c0.3,0,0.6,0,0.8-0.1c0.2-0.1,0.3-0.2,0.4-0.4s0.1-0.5,0.1-0.8
	c0-0.4,0-0.6-0.1-0.8c-0.1-0.2-0.2-0.3-0.4-0.4s-0.4-0.1-0.8-0.1c-0.6,0-1.1,0-1.3,0v2.6H313.2L313.2,239.5z M320,235.7
	c0.8,0,1.4,0.1,1.9,0.4c0.5,0.3,0.8,0.6,1,1.2c0.2,0.6,0.3,1.4,0.3,2.4s-0.1,1.8-0.3,2.4c-0.2,0.6-0.5,1-1,1.2
	c-0.4,0.2-1.1,0.4-1.9,0.4s-1.4-0.1-1.9-0.4c-0.4-0.2-0.8-0.6-1-1.2c-0.2-0.6-0.3-1.4-0.3-2.4s0.1-1.8,0.3-2.4c0.2-0.6,0.5-1,1-1.2
	C318.6,235.8,319.2,235.7,320,235.7z M320,236.9c-0.4,0-0.8,0.1-1,0.3s-0.4,0.5-0.5,0.8c-0.1,0.4-0.2,0.9-0.2,1.7
	c0,0.7,0.1,1.3,0.2,1.7c0.1,0.4,0.3,0.7,0.5,0.8c0.2,0.2,0.6,0.3,1,0.3s0.8-0.1,1-0.3s0.4-0.4,0.5-0.8c0.1-0.4,0.2-1,0.2-1.7
	s-0.1-1.3-0.2-1.7s-0.3-0.7-0.5-0.8C320.8,236.9,320.4,236.9,320,236.9z M330.6,243.4h-1.3v-5c0-0.3,0-0.6,0.1-1h-0.1
	c-0.1,0.4-0.3,0.7-0.4,0.9l-2.9,5h-1.4v-7.6h1.3v4.9c0,0.4,0,0.7-0.1,1h0.1c0.1-0.3,0.2-0.6,0.4-0.9l2.9-5h1.4V243.4z M329.3,233.6
	v0.2c0,0.4-0.2,0.8-0.5,1c-0.3,0.3-0.7,0.4-1.3,0.4c-0.5,0-1-0.1-1.3-0.4c-0.3-0.3-0.5-0.6-0.5-1v-0.2h0.9c0,0.6,0.3,0.9,0.8,0.9
	c0.3,0,0.5-0.1,0.6-0.2c0.1-0.2,0.2-0.4,0.2-0.7H329.3L329.3,233.6z M341.9,242.3v2.7h-1l-0.1-1.7h-8.5v-7.6h1.4v6.5h2.3v-6.5h1.3
	v6.5h2.3v-6.5h1.3v6.5h1V242.3z M349,243.4h-1.3v-5c0-0.3,0-0.6,0.1-1h-0.1c-0.1,0.4-0.3,0.7-0.4,0.9l-2.9,5H343v-7.6h1.3v4.9
	c0,0.4,0,0.7-0.1,1h0.1c0.1-0.3,0.2-0.6,0.4-0.9l2.9-5h1.4V243.4L349,243.4z M353.8,239.5c0.4,0.1,0.8,0.2,1,0.4
	c0.3,0.2,0.5,0.5,0.7,0.9c0.2,0.4,0.4,1,0.7,1.9l0.2,0.6H355l-0.1-0.4c-0.3-0.9-0.5-1.5-0.7-1.8c-0.2-0.4-0.4-0.7-0.6-0.9
	c-0.2-0.2-0.5-0.3-0.9-0.3H352c0.1,0.3,0.1,0.5,0.1,0.7v2.7h-1.4v-7.6h1.4v2.2c0,0.2,0,0.5-0.1,0.9h0.6c0.4,0,0.7-0.1,0.9-0.3
	s0.4-0.5,0.6-0.9c0.2-0.4,0.4-1,0.6-1.8h1.4c0,0.1,0,0.1-0.1,0.2c0,0.1,0,0.2-0.1,0.2c-0.3,0.8-0.5,1.4-0.6,1.8
	c-0.2,0.4-0.4,0.7-0.6,0.9C354.6,239.2,354.2,239.4,353.8,239.5z M360.3,235.7c0.8,0,1.4,0.1,1.9,0.4c0.4,0.2,0.8,0.6,1,1.2
	c0.2,0.6,0.3,1.4,0.3,2.4s-0.1,1.8-0.3,2.4c-0.2,0.6-0.5,1-1,1.2c-0.4,0.2-1.1,0.4-1.9,0.4c-0.8,0-1.4-0.1-1.9-0.4
	c-0.4-0.2-0.8-0.6-1-1.2c-0.2-0.6-0.3-1.4-0.3-2.4s0.1-1.8,0.3-2.4c0.2-0.6,0.5-1,1-1.2C358.9,235.8,359.5,235.7,360.3,235.7z
	 M360.3,236.9c-0.4,0-0.8,0.1-1,0.3c-0.2,0.2-0.4,0.5-0.5,0.8c-0.1,0.4-0.2,0.9-0.2,1.7c0,0.7,0.1,1.3,0.2,1.7
	c0.1,0.4,0.3,0.7,0.5,0.8c0.2,0.2,0.6,0.3,1,0.3c0.4,0,0.8-0.1,1-0.3c0.2-0.2,0.4-0.4,0.5-0.8c0.1-0.4,0.2-1,0.2-1.7
	s-0.1-1.3-0.2-1.7c-0.1-0.4-0.3-0.7-0.5-0.8C361.1,236.9,360.8,236.9,360.3,236.9z M368.9,239.5c0.5,0.1,0.9,0.2,1.2,0.6
	c0.2,0.3,0.4,0.8,0.4,1.4c0,0.5-0.1,0.9-0.3,1.2c-0.2,0.3-0.4,0.5-0.8,0.6c-0.4,0.1-0.8,0.2-1.5,0.2c-0.7,0-1.3,0-1.7,0
	c-0.4,0-0.8,0-1.3-0.1v-7.6c0.4,0,0.8-0.1,1.1-0.1c0.4,0,0.9,0,1.5,0c0.7,0,1.2,0.1,1.6,0.2c0.4,0.1,0.6,0.3,0.8,0.6
	c0.2,0.3,0.3,0.7,0.3,1.2c0,0.6-0.1,1-0.3,1.3C369.7,239.2,369.3,239.4,368.9,239.5z M366.2,236.8v2.1h1.4c0.3,0,0.6,0,0.7-0.1
	c0.2-0.1,0.3-0.2,0.4-0.3c0.1-0.2,0.1-0.4,0.1-0.7s0-0.5-0.1-0.6c-0.1-0.1-0.2-0.2-0.4-0.3c-0.2-0.1-0.5-0.1-0.8-0.1H366.2z
	 M367.7,242.4c0.4,0,0.6,0,0.8-0.1c0.2-0.1,0.3-0.2,0.4-0.3c0.1-0.2,0.1-0.4,0.1-0.7s0-0.6-0.1-0.8s-0.2-0.3-0.4-0.4
	c-0.2-0.1-0.5-0.1-0.8-0.1h-1.4v2.4C366.5,242.4,367,242.4,367.7,242.4z"/>
<linearGradient id="SVGID_22_" gradientUnits="userSpaceOnUse" x1="300.9457" y1="42.1692" x2="297.3067" y2="15.4162" gradientTransform="matrix(1 0 0 -1 0 382)">
	<stop  offset="0" style="stop-color:#E4F5FF"/>
	<stop  offset="1" style="stop-color:#B4E2FD"/>
</linearGradient>
<path class="st62" d="M245.7,342.7h106.8c3.3,0,6,2.7,6,6v9.4c0,3.3-2.7,6-6,6H245.7c-3.3,0-6-2.7-6-6v-9.4
	C239.7,345.4,242.4,342.7,245.7,342.7z"/>
<path class="st21" d="M251.5,352.8c0.7,0,1.3,0.1,1.7,0.2c0.4,0.2,0.7,0.4,0.9,0.8c0.2,0.4,0.3,0.8,0.3,1.5c0,0.7-0.1,1.3-0.3,1.6
	c-0.2,0.4-0.5,0.6-1,0.7c-0.4,0.1-1,0.2-1.8,0.2c-1,0-1.9,0-2.7-0.1v-8.3c1.1-0.1,2-0.1,2.7-0.1s1.6,0,2.7,0.1l-0.1,1.2h-3.7v2.2
	H251.5L251.5,352.8z M251.5,356.5c0.4,0,0.7,0,0.9-0.1c0.2-0.1,0.3-0.2,0.4-0.4c0.1-0.2,0.1-0.5,0.1-0.8c0-0.4,0-0.6-0.1-0.8
	c-0.1-0.2-0.2-0.3-0.4-0.4c-0.2-0.1-0.5-0.1-0.9-0.1h-1.4v2.6H251.5z M260.2,355.3h-3.1l-0.7,2.3H255l2.5-7.9c0-0.1,0.1-0.2,0.2-0.3
	c0.1-0.1,0.2-0.1,0.3-0.1h1.5c0.1,0,0.2,0,0.3,0.1c0.1,0.1,0.2,0.2,0.2,0.3l2.5,7.9H261L260.2,355.3z M259.9,354.1l-0.8-2.9
	c0-0.1,0-0.2-0.1-0.3c0-0.2-0.1-0.3-0.1-0.4h-0.3l-0.2,0.7l-0.8,2.9H259.9z M265.6,349.3c0.7,0,1.3,0.1,1.6,0.2
	c0.4,0.1,0.7,0.3,0.9,0.6c0.2,0.3,0.3,0.8,0.3,1.3c0,0.6-0.1,1.1-0.3,1.4c-0.2,0.3-0.6,0.5-1.1,0.5c0.6,0.1,1,0.3,1.3,0.6
	c0.3,0.4,0.4,0.9,0.4,1.6c0,0.6-0.1,1-0.3,1.3c-0.2,0.3-0.5,0.5-0.8,0.6c-0.4,0.1-0.9,0.2-1.5,0.2s-1.2,0-1.7-0.1
	c-0.5,0-0.9-0.1-1.4-0.3l0.1-1.1c0.9,0.1,1.8,0.2,2.6,0.2c0.4,0,0.6,0,0.8-0.1c0.2-0.1,0.3-0.2,0.4-0.4c0.1-0.2,0.1-0.4,0.1-0.8
	s0-0.6-0.1-0.8c-0.1-0.2-0.2-0.3-0.4-0.4c-0.2-0.1-0.5-0.1-0.9-0.1h-1.5v-1.1h1.5c0.5,0,0.8-0.1,1-0.2c0.2-0.2,0.3-0.5,0.3-0.9
	c0-0.3,0-0.6-0.1-0.7c-0.1-0.2-0.2-0.3-0.4-0.3c-0.2-0.1-0.5-0.1-0.8-0.1c-0.4,0-0.9,0-1.2,0c-0.4,0-0.6,0.1-0.7,0.1h-0.3l-0.1-1.1
	c0.4-0.1,0.8-0.1,1.1-0.2C264.6,349.3,265.1,349.3,265.6,349.3z M273.1,352.5c0.7,0,1.3,0.1,1.7,0.3c0.4,0.2,0.7,0.4,0.9,0.8
	c0.2,0.4,0.3,0.9,0.3,1.6c0,0.7-0.1,1.2-0.3,1.6c-0.2,0.4-0.5,0.6-0.8,0.8c-0.4,0.2-0.9,0.2-1.5,0.2c-0.8,0-1.4,0-1.8,0
	s-0.9,0-1.3-0.1v-8.3h1.5v3.2h1.3V352.5z M278.7,349.4v8.3h-1.5v-8.3H278.7z M273.1,356.5c0.4,0,0.7,0,0.9-0.1s0.3-0.2,0.4-0.4
	s0.1-0.5,0.1-0.9s0-0.7-0.1-0.9c-0.1-0.2-0.2-0.3-0.4-0.4c-0.2-0.1-0.5-0.1-0.9-0.1h-1.4v2.8H273.1L273.1,356.5z M286.2,349.3
	c0.7,0,1.3,0.1,1.7,0.2c0.4,0.2,0.7,0.4,0.9,0.8c0.2,0.4,0.3,0.9,0.3,1.6c0,0.7-0.1,1.2-0.3,1.6c-0.2,0.4-0.4,0.6-0.8,0.8
	c-0.4,0.2-0.9,0.2-1.6,0.2c-0.6,0-1.1,0-1.7-0.1v3.2h-1.5v-8.3c0.5,0,0.9-0.1,1.3-0.1C284.9,349.3,285.5,349.3,286.2,349.3z
	 M286.2,353.4c0.4,0,0.6-0.1,0.8-0.1c0.2-0.1,0.3-0.2,0.4-0.4c0.1-0.2,0.1-0.5,0.1-0.9s0-0.7-0.1-0.9c-0.1-0.2-0.2-0.4-0.4-0.4
	c-0.2-0.1-0.5-0.1-0.8-0.1c-0.7,0-1.2,0-1.5,0v2.9h1.5V353.4z M297,357.6h-1.5v-5.4c0-0.3,0-0.7,0.1-1h-0.1c-0.2,0.4-0.3,0.8-0.5,1
	l-3.1,5.5h-1.5v-8.3h1.4v5.4c0,0.4,0,0.8-0.1,1.1h0.1c0.1-0.3,0.3-0.6,0.5-1l3.1-5.4h1.5v8.1H297z M304.1,356.4l0.1,1.1
	c-0.5,0-1,0.1-1.6,0.1s-1.3,0-2.1,0c-0.5,0-1-0.1-1.3-0.4c-0.3-0.3-0.5-0.7-0.5-1.2v-5.2c0-0.5,0.2-0.9,0.5-1.2
	c0.3-0.3,0.7-0.4,1.3-0.4c0.8,0,1.5,0,2.1,0s1.1,0,1.6,0.1l-0.1,1.2h-3.3c-0.2,0-0.4,0.1-0.5,0.2c-0.1,0.1-0.1,0.3-0.1,0.5v1.5h3.4
	v1.2h-3.4v1.8c0,0.3,0,0.4,0.1,0.5c0.1,0.1,0.2,0.2,0.5,0.2H304.1L304.1,356.4z M311.8,357.6h-1.5v-7.1H309c-0.2,0-0.4,0.1-0.6,0.2
	c-0.1,0.1-0.2,0.3-0.2,0.6c-0.1,1.4-0.2,2.4-0.3,3c-0.1,0.6-0.2,1.2-0.4,1.7c-0.2,0.6-0.5,1-0.9,1.3c-0.4,0.3-0.8,0.4-1.3,0.4
	c-0.1,0-0.2,0-0.3,0l-0.1-1.2c0.3-0.1,0.6-0.2,0.7-0.3c0.2-0.1,0.3-0.4,0.4-0.6c0.2-0.5,0.3-1,0.4-1.6s0.2-1.6,0.3-2.9
	c0-0.6,0.2-1,0.5-1.2c0.3-0.3,0.7-0.4,1.3-0.4h3.2L311.8,357.6L311.8,357.6z M319.6,350.6H317v7h-1.5v-7H313v-1.3h6.6V350.6z
	 M323.8,349.2c0.9,0,1.5,0.1,2,0.4c0.5,0.3,0.8,0.7,1.1,1.3c0.2,0.6,0.3,1.5,0.3,2.6s-0.1,2-0.3,2.6c-0.2,0.6-0.6,1.1-1.1,1.3
	c-0.5,0.3-1.2,0.4-2,0.4c-0.9,0-1.5-0.1-2-0.4c-0.5-0.3-0.8-0.7-1.1-1.3c-0.3-0.6-0.3-1.5-0.3-2.6s0.1-2,0.3-2.6
	c0.2-0.6,0.6-1.1,1.1-1.3C322.3,349.4,322.9,349.2,323.8,349.2z M323.8,350.5c-0.5,0-0.8,0.1-1.1,0.3c-0.3,0.2-0.4,0.5-0.6,0.9
	c-0.1,0.4-0.2,1-0.2,1.8s0.1,1.4,0.2,1.8c0.1,0.4,0.3,0.7,0.6,0.9c0.3,0.2,0.6,0.3,1.1,0.3s0.8-0.1,1.1-0.3c0.3-0.2,0.5-0.5,0.6-0.9
	c0.1-0.4,0.2-1,0.2-1.8s-0.1-1.4-0.2-1.8c-0.1-0.4-0.3-0.7-0.6-0.9C324.6,350.6,324.3,350.5,323.8,350.5z M331.8,349.3
	c0.7,0,1.3,0.1,1.7,0.2c0.4,0.2,0.7,0.4,0.9,0.8c0.2,0.4,0.3,0.9,0.3,1.6c0,0.7-0.1,1.2-0.3,1.6c-0.2,0.4-0.4,0.6-0.8,0.8
	c-0.4,0.2-0.9,0.2-1.6,0.2c-0.6,0-1.1,0-1.7-0.1v3.2h-1.5v-8.3c0.5,0,0.9-0.1,1.3-0.1C330.4,349.3,331,349.3,331.8,349.3z
	 M331.7,353.4c0.4,0,0.6-0.1,0.8-0.1c0.2-0.1,0.3-0.2,0.4-0.4c0.1-0.2,0.1-0.5,0.1-0.9s0-0.7-0.1-0.9c-0.1-0.2-0.2-0.4-0.4-0.4
	c-0.2-0.1-0.5-0.1-0.8-0.1c-0.7,0-1.2,0-1.5,0v2.9h1.5V353.4z M339.1,349.2c0.9,0,1.5,0.1,2,0.4c0.5,0.3,0.8,0.7,1.1,1.3
	c0.2,0.6,0.3,1.5,0.3,2.6s-0.1,2-0.3,2.6c-0.2,0.6-0.6,1.1-1.1,1.3c-0.5,0.3-1.2,0.4-2,0.4c-0.9,0-1.5-0.1-2-0.4
	c-0.5-0.3-0.8-0.7-1.1-1.3c-0.2-0.6-0.3-1.5-0.3-2.6s0.1-2,0.3-2.6s0.6-1.1,1.1-1.3C337.6,349.3,338.2,349.2,339.1,349.2z
	 M339.1,350.5c-0.5,0-0.8,0.1-1.1,0.3c-0.3,0.2-0.4,0.5-0.6,0.9c-0.1,0.4-0.2,1-0.2,1.8s0.1,1.4,0.2,1.8c0.1,0.4,0.3,0.7,0.6,0.9
	c0.3,0.2,0.6,0.3,1.1,0.3s0.8-0.1,1.1-0.3c0.3-0.2,0.5-0.5,0.6-0.9c0.1-0.4,0.2-1,0.2-1.8s-0.1-1.4-0.2-1.8
	c-0.1-0.4-0.3-0.7-0.6-0.9C339.9,350.6,339.6,350.5,339.1,350.5z M348.4,353.4c0.6,0.1,1,0.3,1.3,0.6c0.3,0.4,0.4,0.9,0.4,1.6
	c0,0.6-0.1,1-0.3,1.3c-0.2,0.3-0.5,0.5-0.9,0.6s-0.9,0.2-1.6,0.2c-0.8,0-1.4,0-1.9,0s-0.9,0-1.4-0.1v-8.3c0.4,0,0.8-0.1,1.2-0.1
	c0.4,0,1,0,1.7,0c0.7,0,1.3,0.1,1.7,0.2s0.7,0.3,0.9,0.6s0.3,0.8,0.3,1.3c0,0.6-0.1,1.1-0.3,1.4
	C349.3,353.1,348.9,353.3,348.4,353.4z M345.5,350.5v2.3h1.5c0.3,0,0.6,0,0.8-0.1c0.2-0.1,0.3-0.2,0.4-0.4c0.1-0.2,0.1-0.4,0.1-0.7
	c0-0.3,0-0.5-0.1-0.7c-0.1-0.2-0.2-0.3-0.4-0.3c-0.2-0.1-0.5-0.1-0.9-0.1H345.5z M347.1,356.5c0.4,0,0.7,0,0.9-0.1s0.4-0.2,0.4-0.4
	c0.1-0.2,0.1-0.4,0.1-0.8c0-0.4,0-0.7-0.1-0.9c-0.1-0.2-0.2-0.3-0.5-0.4c-0.2-0.1-0.5-0.1-0.9-0.1h-1.5v2.6
	C345.8,356.5,346.4,356.5,347.1,356.5z"/>
</svg>
