<svg id="Layer_1" data-name="Layer 1" xmlns="http://www.w3.org/2000/svg" xmlns:xlink="http://www.w3.org/1999/xlink" viewBox="0 0 600 600"><defs><style>.cls-1,.cls-5{fill:#fff;}.cls-1,.cls-11,.cls-12,.cls-13,.cls-17,.cls-18,.cls-19,.cls-2,.cls-32,.cls-37,.cls-38,.cls-4,.cls-46,.cls-47,.cls-48,.cls-9{fill-rule:evenodd;}.cls-2{fill:#d4efff;}.cls-3,.cls-4{fill:#152e45;}.cls-6{fill:#999;}.cls-7{fill:#edeef0;}.cls-8{fill:#f7f7f7;}.cls-9{fill:#d53537;}.cls-10,.cls-11{fill:#8df;}.cls-12{fill:#def6f7;}.cls-13{fill:#fa0042;}.cls-14{fill:#1c3ab0;}.cls-15{fill:#1569ff;}.cls-16{fill:#254dc0;}.cls-17{fill:#98d7da;}.cls-18{fill:#ec1c24;}.cls-19{fill:#00adee;}.cls-20{fill:#0af;}.cls-21{fill:#97cf26;}.cls-22{fill:#ff6163;}.cls-23{fill:#a169f7;}.cls-24{fill:#4a88c0;}.cls-25{fill:#223c4e;}.cls-26{fill:red;}.cls-27{fill:url(#radial-gradient);}.cls-28{opacity:0.8;isolation:isolate;fill:url(#radial-gradient-2);}.cls-29{fill:#28ac76;}.cls-30{fill:#1f5c72;}.cls-31{fill:#7ebe7c;}.cls-32{fill:#315efb;}.cls-33{fill:#f2a746;}.cls-34{fill:#2a5ff0;}.cls-35{fill:#5f01d1;}.cls-36{fill:#008373;}.cls-37{fill:#3b5998;}.cls-38{fill:#45668e;}.cls-39{fill:#5484ec;}.cls-40{fill:#58a55c;}.cls-41{fill:#606367;}.cls-42{fill:#d85140;}.cls-43{fill:#f1be42;}.cls-44{fill:#282828;}.cls-45{fill:#f1a13a;}.cls-46{fill:#ed812b;}.cls-47{fill:url(#linear-gradient);}.cls-48{fill:#3664a8;}.cls-49{fill:#f9f9f9;}</style><radialGradient id="radial-gradient" cx="185" cy="-8064.24" r="39.52" gradientTransform="matrix(1, 0, 0, -1, 0, -7962)" gradientUnits="userSpaceOnUse"><stop offset="0.23" stop-color="#00fffe"/><stop offset="0.3" stop-color="#11f3fe"/><stop offset="0.46" stop-color="#3ed3fe"/><stop offset="0.67" stop-color="#86a0ff"/><stop offset="0.94" stop-color="#e95aff"/><stop offset="0.95" stop-color="#f055ff"/></radialGradient><radialGradient id="radial-gradient-2" cx="180.26" cy="809.64" r="22.33" gradientTransform="translate(0 -686.57)" gradientUnits="userSpaceOnUse"><stop offset="0" stop-color="#053bf2"/><stop offset="0.09" stop-color="#0f3cf3" stop-opacity="0.91"/><stop offset="0.25" stop-color="#2b3ff4" stop-opacity="0.75"/><stop offset="0.45" stop-color="#5844f7" stop-opacity="0.55"/><stop offset="0.69" stop-color="#964bfa" stop-opacity="0.31"/><stop offset="0.96" stop-color="#e454fe" stop-opacity="0.04"/><stop offset="1" stop-color="#f055ff" stop-opacity="0"/></radialGradient><linearGradient id="linear-gradient" x1="52.82" y1="325.14" x2="77.33" y2="300.63" gradientUnits="userSpaceOnUse"><stop offset="0" stop-color="#fd5"/><stop offset="0.5" stop-color="#ff543e"/><stop offset="1" stop-color="#c837ab"/></linearGradient></defs><g id="_2" data-name="2"><path class="cls-1" d="M439,353.4c20-61.3-28.49-113.4-47.3-130.3C339,175.8,249.08,161.6,207.9,197.8c-57.45,50.5-26,204.6,67.32,232.5C333.33,447.6,418.15,417,439,353.4Z"/><path class="cls-1" d="M508.6,575.94c39.6-17,44.9-61.35,45.2-77.1,1-44.24-30.8-91.19-66.9-94.53-50.4-4.59-114.5,75.43-88.1,129.79C415.3,567.91,467.5,593.57,508.6,575.94Z"/><path class="cls-2" d="M373.39,512.78c8,40.42,121.14,93.9,172.38,36.19,33.08-37.19,30.84-109.45,1.74-132.7C499.13,377.71,363.69,463.53,373.39,512.78Z"/><path class="cls-3" d="M419.5,545.91H551.7a14.38,14.38,0,0,1,14.4,14.3h0a14.32,14.32,0,0,1-14.4,14.3H419.5a14.38,14.38,0,0,1-14.4-14.3h0A14.38,14.38,0,0,1,419.5,545.91Z"/><path class="cls-1" d="M427.4,558.71a4.14,4.14,0,0,0,.5-1.9,2.72,2.72,0,0,0-.9-2.4,5.25,5.25,0,0,0-3-.6c-1.7,0-3,0-4,.1v11.6c1,.1,2.5.1,4.5.1a4.92,4.92,0,0,0,2.9-.6,3,3,0,0,0,.8-2.4,3.42,3.42,0,0,0-.5-2.2,2.43,2.43,0,0,0-1.8-.9v-.1A2.13,2.13,0,0,0,427.4,558.71Zm-5.4-3.3h1.9a3,3,0,0,1,1.6.3,1.48,1.48,0,0,1,.4,1.3,1.57,1.57,0,0,1-.4,1.3,2,2,0,0,1-1.5.3h-2v-3.2Zm0,4.8h2a2.15,2.15,0,0,1,1.6.4,2,2,0,0,1,.4,1.5,1.79,1.79,0,0,1-.4,1.4,2.22,2.22,0,0,1-1.6.3h-2.2l.2-3.6Zm17.2-6.3h-2.1l-4.3,7.6a3.51,3.51,0,0,0-.6,1.4h-.1a7.57,7.57,0,0,0,.1-1.5v-7.5h-2v11.6h2.1l4.3-7.6a8.43,8.43,0,0,0,.6-1.4h.1a7.57,7.57,0,0,0-.1,1.5v7.6h2v-11.7Zm11.2,10v-10H446a2.79,2.79,0,0,0-1.8.6,2.34,2.34,0,0,0-.7,1.7,24.44,24.44,0,0,1-1.5,7.6h-1.2V568h1.4l.2-2.5h7.8l.2,2.5h1.4v-4.2Zm-6.5,0a11.24,11.24,0,0,0,1-3.1,30.06,30.06,0,0,0,.5-4.2,1.14,1.14,0,0,1,.3-.8.78.78,0,0,1,.8-.2h1.8v8.3Zm12.4-.1c-.2,0-.5,0-.6-.2a1.88,1.88,0,0,1-.2-.8v-2.6h4.6v-1.6h-4.6v-2a1.2,1.2,0,0,1,.2-.8.73.73,0,0,1,.6-.2h4.4l.1-1.6c-1-.1-2.7-.1-5-.1a3,3,0,0,0-1.8.6,1.91,1.91,0,0,0-.6,1.6v7.3a2.27,2.27,0,0,0,.6,1.6,2.79,2.79,0,0,0,1.8.6c2.3,0,4,0,5-.1l-.1-1.6-4.4-.1Zm7-8.8c-.7.9-1,2.4-1,4.7s.3,3.9,1,4.7a4.61,4.61,0,0,0,3.6,1.3c1.7,0,3-.4,3.6-1.3a8.61,8.61,0,0,0,1-4.7c0-2.3-.3-3.9-1-4.7a4.61,4.61,0,0,0-3.6-1.3C465.2,553.71,464,554.11,463.3,555Zm5.6,1.4a10.63,10.63,0,0,1,0,6.6,2.55,2.55,0,0,1-3.6.3l-.3-.3a10.63,10.63,0,0,1,0-6.6,2.66,2.66,0,0,1,3.7-.3C468.8,556.21,468.9,556.31,468.9,556.41Zm11.1,9.1h2.2l-3-6,2.8-5.6h-2.2l-2.4,4.9h-.3l-2.3-4.9h-2.1l2.8,5.6-3,6h2.2l2.5-5.2h.3Zm4-10.6c-.7.9-1,2.4-1,4.7s.3,3.9,1,4.7a4.61,4.61,0,0,0,3.6,1.3c1.7,0,3-.4,3.6-1.3a8.61,8.61,0,0,0,1-4.7c0-2.3-.3-3.9-1-4.7a5.63,5.63,0,0,0-7.2,0Zm5.6,1.4a10.63,10.63,0,0,1,0,6.6,2.55,2.55,0,0,1-3.6.3l-.3-.3a10.63,10.63,0,0,1,0-6.6,2.66,2.66,0,0,1,3.7-.3C489.4,556.21,489.5,556.31,489.6,556.31Zm9,7.5a1.82,1.82,0,0,1-1.9-.9,10.32,10.32,0,0,1,0-6.5,2.08,2.08,0,0,1,1.9-.9,28.12,28.12,0,0,1,3,.1l.2-1.6a11.7,11.7,0,0,0-3.2-.4A4.47,4.47,0,0,0,495,555c-.7.9-1,2.5-1,4.7a8.86,8.86,0,0,0,1,4.7,4,4,0,0,0,3.6,1.3,13.93,13.93,0,0,0,3.5-.4l-.2-1.6c-1.1.1-2.2.1-3.3.1Zm13.4-10h-9v1.9h3.5v9.8h2.1v-9.8h3.5l-.1-1.9Zm10.5,0h-2.1l-4.3,7.6a5.91,5.91,0,0,0-.6,1.4h-.1a7.57,7.57,0,0,0,.1-1.5v-7.5h-2v11.6h2.1l4.3-7.6c.2-.5.4-.9.6-1.4h.1a7.57,7.57,0,0,0-.1,1.5v7.6h2v-11.7Zm9.1,0v4.6h-4.5v-4.6h-2v11.6h2v-5.3h4.5v5.3h2.1v-11.6Zm6.6,11.6v-8.8a1.08,1.08,0,0,1,.2-.8.78.78,0,0,1,.8-.2h4l.1-1.6c-1-.1-2.6-.1-4.8-.1a2,2,0,0,0-1.6.7,2.84,2.84,0,0,0-.7,1.7v9.2h2Zm15.5-11.6h-2.1l-4.3,7.6a5.91,5.91,0,0,0-.6,1.4h-.1a7.57,7.57,0,0,0,.1-1.5v-7.5h-2v11.6h2.1l4.3-7.6c.2-.5.4-.9.6-1.4h.1a7.57,7.57,0,0,0-.1,1.5v7.6h2v-11.7Z"/><path class="cls-1" d="M599.27,296.8c-5.9-39-42.53-54.8-55.8-59.1-37.36-12-84.26,4-94.89,34.8-14.82,43,39.45,119.4,91.43,110C572.28,376.6,605.36,337.2,599.27,296.8Z"/><path class="cls-2" d="M476.25,366.34c27.48,25,61.14,6.13,72.54-1.81,31.88-22.48,53.1-74.53,41.5-107.36-16.17-45.68-98.15-58.54-126.75-7.21C445.78,281.94,447.74,340.25,476.25,366.34Z"/><path class="cls-3" d="M474.6,342.8h76.5a25.78,25.78,0,0,1,25.8,25.7v.1h0a25.71,25.71,0,0,1-25.8,25.7H474.6a25.78,25.78,0,0,1-25.8-25.7h0a25.86,25.86,0,0,1,25.8-25.8Z"/><path class="cls-1" d="M480.2,353.1H471v1.8h3.6v9.8h2.1v-9.8h3.6Zm2.2,1.1c-.7.9-1.1,2.4-1.1,4.7s.4,3.9,1.1,4.7a4.7,4.7,0,0,0,3.7,1.3c1.8,0,3.1-.4,3.8-1.3s1-2.4,1-4.7-.4-3.9-1-4.7-2-1.3-3.8-1.3a4.7,4.7,0,0,0-3.7,1.3Zm5.8,1.4a10.63,10.63,0,0,1,0,6.6,2.81,2.81,0,0,1-3.9.2l-.2-.2a10.63,10.63,0,0,1,0-6.6,2.69,2.69,0,0,1,3.8-.2c.2.1.2.2.3.2Zm12.6,2.4a4.14,4.14,0,0,0,.5-1.9,2.72,2.72,0,0,0-.9-2.4,5.58,5.58,0,0,0-3.1-.6c-1.8,0-3.1,0-4.1.1v11.6c1.1.1,2.6.1,4.6.1a5.25,5.25,0,0,0,3-.6,3,3,0,0,0,.9-2.4,3.42,3.42,0,0,0-.5-2.2,2.14,2.14,0,0,0-1.8-.9v-.1a1.91,1.91,0,0,0,1.4-.7Zm-5.6-3.3h1.9a4.15,4.15,0,0,1,1.6.3,2.31,2.31,0,0,1,0,2.6,2,2,0,0,1-1.5.3h-2.1l.1-3.2Zm0,4.8h2.1a3.29,3.29,0,0,1,1.7.4,2.69,2.69,0,0,1,.5,1.5,1.79,1.79,0,0,1-.4,1.4,3.17,3.17,0,0,1-1.6.4h-2.2l-.1-3.7Zm15.8,5.3h2.2l-3.5-11a.76.76,0,0,0-.8-.6h-2.1a.76.76,0,0,0-.8.6l-3.5,11h2.2l1-3.3H510Zm-4.8-5,1.2-4,.3-1h.5c0,.1.1.4.2,1l1.2,4Zm10.5,5v-4.4a18.48,18.48,0,0,0,2.3.1,4.28,4.28,0,0,0,2.9-.8,4.4,4.4,0,0,0,.8-3,4.12,4.12,0,0,0-.9-3,4.83,4.83,0,0,0-3.1-.8c-1.8,0-3.2,0-4.2.1v11.6Zm0-10h2a2,2,0,0,1,1.5.4,3.07,3.07,0,0,1,0,3.2,2,2,0,0,1-1.5.4h-2v-4Zm10.1-1.6h-2.1v11.6h0c1,.1,2.5.1,4.4.1a4.43,4.43,0,0,0,2.9-.8,5.34,5.34,0,0,0,0-5.7,5.12,5.12,0,0,0-3.2-.8h-2v-4.4Zm7.9,0v11.6h2.1V353.2Zm-7.9,6h2a1.91,1.91,0,0,1,1.5.4,2.93,2.93,0,0,1,.4,1.6,1.5,1.5,0,0,1-1,1.9h0a1.7,1.7,0,0,1-1,0h-2l.1-3.9Zm24-1.2a3.2,3.2,0,0,0,.5-1.9,2.72,2.72,0,0,0-.9-2.4,5.75,5.75,0,0,0-3.1-.6c-1.8,0-3.2,0-4.1.1v11.6c1.1.1,2.6.1,4.6.1a5.25,5.25,0,0,0,3-.6,2.72,2.72,0,0,0,.9-2.4,4.19,4.19,0,0,0-.5-2.2,2.43,2.43,0,0,0-1.8-.9v-.1a1.62,1.62,0,0,0,1.4-.7Zm-5.6-3.3h2a2.88,2.88,0,0,1,1.6.3,2.31,2.31,0,0,1,0,2.6,2,2,0,0,1-1.5.3h-2.2l.1-3.2Zm0,4.8h2.2a2.54,2.54,0,0,1,1.7.4,2.69,2.69,0,0,1,.5,1.5,1.79,1.79,0,0,1-.4,1.4,2.32,2.32,0,0,1-1.6.3h-2.2l-.2-3.6Zm-69,23.1a2,2,0,0,1-2-.9,10.32,10.32,0,0,1,0-6.5,2.15,2.15,0,0,1,2-.9,30.09,30.09,0,0,1,3.1.1l.2-1.6a12.67,12.67,0,0,0-3.4-.4,4.68,4.68,0,0,0-3.7,1.4,10.59,10.59,0,0,0,0,9.4,4.29,4.29,0,0,0,3.7,1.3,14.72,14.72,0,0,0,3.6-.4l-.2-1.6A17.65,17.65,0,0,1,476.2,382.6Zm5.9-8.8c-.7.9-1.1,2.4-1.1,4.7s.4,3.9,1.1,4.7a6.06,6.06,0,0,0,7.5,0c.8-.9,1.1-2.4,1.1-4.7s-.4-3.9-1.1-4.7a5,5,0,0,0-3.8-1.3C484,372.5,482.8,372.9,482.1,373.8Zm5.8,1.4a10.63,10.63,0,0,1,0,6.6,2.67,2.67,0,0,1-4,0,10.63,10.63,0,0,1,0-6.6,2.15,2.15,0,0,1,2-.9A2,2,0,0,1,487.9,375.2Zm13.7,7.4v-10h-2.1v10H495v-10h-2.1v11.6h8.5l.2,2.5h1.5v-4.1Zm3-.5a1.42,1.42,0,0,0-.2.6v.9a.73.73,0,0,0,.2.6,1.42,1.42,0,0,0,.6.2h.6a.73.73,0,0,0,.6-.2,1.42,1.42,0,0,0,.2-.6v-1a.73.73,0,0,0-.2-.6,1.42,1.42,0,0,0-.6-.2h-.6A1.63,1.63,0,0,0,504.6,382.1Zm12.2.5a2,2,0,0,1-2-.9,10.32,10.32,0,0,1,0-6.5,2.25,2.25,0,0,1,2-.9,30.09,30.09,0,0,1,3.1.1l.2-1.6a12.42,12.42,0,0,0-3.3-.4,4.68,4.68,0,0,0-3.7,1.4,7.9,7.9,0,0,0-1.1,4.7c0,2.2.3,3.8,1.1,4.7a4.5,4.5,0,0,0,3.7,1.3,14.72,14.72,0,0,0,3.6-.4l-.2-1.6c-1.1,0-2.2.1-3.4.1Zm8.3-.1a.76.76,0,0,1-.8-1v-2.6h4.8v-1.6h-4.8v-2a1.2,1.2,0,0,1,.2-.8.73.73,0,0,1,.6-.2h4.6l.1-1.6c-1-.1-2.7-.1-5.1-.1a2.79,2.79,0,0,0-1.8.6,2,2,0,0,0-.7,1.6v7.3a2,2,0,0,0,.7,1.6,3,3,0,0,0,1.8.6c2.4,0,4.1,0,5.1-.1l-.1-1.6-4.6-.1Zm15.1-9.9H531v1.8h3.5v9.8h2.1v-9.8h3.6v-1.8Zm9.4,0c-1-.1-2.4-.1-4.2-.1a4.55,4.55,0,0,0-3,.8,3.22,3.22,0,0,0-.9,2.6,3.14,3.14,0,0,0,.5,2.1,2.23,2.23,0,0,0,1.7.9v.1a2,2,0,0,0-1.7,1.7l-1,3.5h2.2l.9-3.5a1.38,1.38,0,0,1,1.3-1.1h2v4.6h2.1l.1-11.6Zm-4.1,5.4a2.1,2.1,0,0,1-1.5-.5,2,2,0,0,1-.4-1.5,2.3,2.3,0,0,1,.4-1.4,2.6,2.6,0,0,1,1.5-.4h2V378Zm13.5,6.3h2.2l-3.1-6,2.9-5.6h-2.2l-2.4,4.9H556l-2.4-4.9h-2.2l2.9,5.6-3.1,6h2.2l2.6-5.2h.3Z"/><path class="cls-1" d="M368.8,124.08c15.22,42.56,69.89,54.14,89.48,56.66C513.34,188,577,162.28,586.67,126.15,600,75.68,509.9-.49,437.76,18.67,393,30.48,353.05,79.92,368.8,124.08Z"/><path class="cls-2" d="M372.16,120.4c11.33,47.46,62.32,63.45,80.7,67.48,51.62,11.33,113.82-12.84,125.65-51.74C594.88,81.87,514.93-7.14,445.31,9.35,402,19.68,360.45,71.17,372.16,120.4Z"/><path class="cls-4" d="M451.45,159.05h109.6a14.55,14.55,0,0,1,0,29.1H451.45a14.55,14.55,0,1,1,0-29.1Z"/><path class="cls-1" d="M453.55,167.85v11.6h2.1v-10h4.6v10h2.1v-11.6Zm12.1,1.1c-.7.9-1,2.4-1,4.7s.4,3.9,1,4.7,2,1.3,3.8,1.3,3-.4,3.8-1.3,1.1-2.4,1.1-4.7-.4-3.9-1.1-4.7a5,5,0,0,0-3.8-1.3C467.65,167.65,466.35,168.05,465.65,169Zm5.8,1.4a11,11,0,0,1,0,6.7,2.81,2.81,0,0,1-3.9.2l-.2-.2a11,11,0,0,1,0-6.7,2.81,2.81,0,0,1,3.9-.2C471.35,170.15,471.35,170.25,471.45,170.35Zm14.2-2.5h-2.2l-4.4,7.6a5.91,5.91,0,0,0-.6,1.4h-.1a7.57,7.57,0,0,0,.1-1.5v-7.5h-2v11.6h2.1l4.4-7.7a4.24,4.24,0,0,0,.6-1.4h.1a7.57,7.57,0,0,0-.1,1.5v7.6h2l.1-11.6Zm7,10a2,2,0,0,1-2-.9,10.32,10.32,0,0,1,0-6.5,2.25,2.25,0,0,1,2-.9,30.09,30.09,0,0,1,3.1.1l.2-1.6a12.67,12.67,0,0,0-3.4-.4,4.6,4.6,0,0,0-3.7,1.3c-.7.9-1.1,2.4-1.1,4.7s.4,3.8,1.1,4.7a4.68,4.68,0,0,0,3.7,1.4,14.72,14.72,0,0,0,3.6-.4l-.2-1.6C495,177.75,493.75,177.85,492.65,177.85Zm10.7-4.7a3,3,0,0,0,1.7-1.8,38.16,38.16,0,0,0,1.3-3.6h-2.1v.2a14.24,14.24,0,0,0-.5,1.6,6.94,6.94,0,0,1-.5,1.3,4.7,4.7,0,0,1-.6.9c-.2.2-.4.5-.7.6a2.92,2.92,0,0,1-.9.2h-1a5.7,5.7,0,0,0,.1-1.3v-3.4h-2.1v11.7h2.1v-4.1c0-.4-.1-.8-.1-1.1h1a1.7,1.7,0,0,1,.7.1,2.94,2.94,0,0,1,1.5,1.4,39.06,39.06,0,0,1,1.3,3.7h2.2l-.3-1a21.38,21.38,0,0,0-1.6-3.9,2.84,2.84,0,0,0-2.1-1.2v-.1a1.42,1.42,0,0,0,.6-.2Zm5.6-4.3c-.7.9-1,2.4-1,4.7s.4,3.9,1,4.7a4.7,4.7,0,0,0,3.7,1.3c1.7,0,3.1-.4,3.8-1.3s1.1-2.4,1.1-4.7-.4-3.9-1.1-4.7a5,5,0,0,0-3.8-1.3A4.7,4.7,0,0,0,509,168.85Zm5.8,1.4a11,11,0,0,1,0,6.7,2.81,2.81,0,0,1-3.9.2l-.2-.2a11,11,0,0,1,0-6.7,2.81,2.81,0,0,1,3.9-.2Zm12.6,2.3a3.2,3.2,0,0,0,.5-1.9,2.72,2.72,0,0,0-.9-2.4,5.58,5.58,0,0,0-3.1-.6c-1.8,0-3.1,0-4.1.1v11.6c1.1.1,2.6.1,4.6.1a5.25,5.25,0,0,0,3-.6,2.72,2.72,0,0,0,.9-2.4,3.42,3.42,0,0,0-.5-2.2,2.14,2.14,0,0,0-1.8-.9v-.1a1.33,1.33,0,0,0,1.4-.7Zm-5.6-3.2h1.9a4.15,4.15,0,0,1,1.6.3,2.31,2.31,0,0,1,0,2.6,2,2,0,0,1-1.5.3h-2.1l.1-3.2Zm0,4.8h2.1a2.54,2.54,0,0,1,1.7.4,3,3,0,0,1,0,3,2.32,2.32,0,0,1-1.6.3h-2.2v-3.7Zm17.8-6.4h-2.2l-4.4,7.6a3.51,3.51,0,0,0-.6,1.4h-.1a7.57,7.57,0,0,0,.1-1.5v-7.5h-2v11.6h2.1l4.4-7.7a3.51,3.51,0,0,0,.6-1.4h.1a7.57,7.57,0,0,0-.1,1.5v7.6h2l.1-11.6Zm8,5.4a3,3,0,0,0,1.7-1.8,38.16,38.16,0,0,0,1.3-3.6h-2.1v.2a14.24,14.24,0,0,0-.5,1.6,6.94,6.94,0,0,1-.5,1.3,4.7,4.7,0,0,1-.6.9,1.34,1.34,0,0,1-.7.6,2.92,2.92,0,0,1-.9.2h-1a5.7,5.7,0,0,0,.1-1.3v-3.4h-2.1v11.6h2.1v-4.1c0-.4-.1-.8-.1-1.1h1a1.7,1.7,0,0,1,.7.1,2.94,2.94,0,0,1,1.5,1.4,39.06,39.06,0,0,1,1.3,3.7H551a6.21,6.21,0,0,1-.3-1,21.38,21.38,0,0,0-1.6-3.9,2.84,2.84,0,0,0-2.1-1.2v-.1a.66.66,0,0,0,.6-.1Zm14.2-5.4h-2.1l-4.4,7.6a5.91,5.91,0,0,0-.6,1.4h-.1a7.57,7.57,0,0,0,.1-1.5v-7.5h-2v11.6h2.2l4.4-7.7a4.24,4.24,0,0,0,.6-1.4h.1a7.57,7.57,0,0,0-.1,1.5v7.6h2l-.1-11.6Z"/><path class="cls-1" d="M57.44,570.81c38.72,27.49,86.34,6.79,102.37-2,45.06-24.59,75-81.89,58.63-117.83-22.92-50.18-138.52-64.31-178.91-7.9C14.38,478.24,17.16,542.33,57.44,570.81Z"/><path class="cls-2" d="M18.23,513.91c10.58,52.78,139.68,92,192,41.45,19.55-18.8,29.63-51.54,20.79-81.17-13.19-43.94-63.36-63.36-100.21-62.86C66.41,412.32,10.26,474.19,18.23,513.91Z"/><path class="cls-3" d="M41.9,547.66H200A14.38,14.38,0,0,1,214.4,562h0a14.47,14.47,0,0,1-14.4,14.4H41.9a14.38,14.38,0,0,1-14.4-14.3h0a14.4,14.4,0,0,1,14.4-14.4Z"/><path class="cls-5" d="M46.3,555.66a2.14,2.14,0,0,1,1.6,2.4,4,4,0,0,1-.4,2,1.76,1.76,0,0,1-1.3.9v.1a2.16,2.16,0,0,1,1.6.9,4.14,4.14,0,0,1,.4,2.1,3,3,0,0,1-.9,2.5,4.56,4.56,0,0,1-2.9.8,27.48,27.48,0,0,1-3.8-.3l.1-1.6c1.3.1,2.4.1,3.2.1a5.21,5.21,0,0,0,1.4-.2,1.06,1.06,0,0,0,.7-.6,3.59,3.59,0,0,0,.2-1.1,2,2,0,0,0-.4-1.4,2.2,2.2,0,0,0-1.6-.4H42v-1.6h2.2a2.68,2.68,0,0,0,1.1-.2c.3-.1.4-.3.5-.6a2.79,2.79,0,0,0,.1-1,2,2,0,0,0-.2-.9.92.92,0,0,0-.6-.4,4.12,4.12,0,0,0-1.2-.1,26.28,26.28,0,0,0-3,.1l-.1-1.6a21.59,21.59,0,0,1,3.5-.3A8.78,8.78,0,0,1,46.3,555.66Z"/><path class="cls-5" d="M60.8,555.76a1.89,1.89,0,0,1,1.2,1.1,6.34,6.34,0,0,1,.4,2.3,5,5,0,0,1-.4,2.3,1.89,1.89,0,0,1-1.2,1.1,6.46,6.46,0,0,1-2.2.3,17,17,0,0,1-2.3-.1v4.4H54.2v-11.6a10.87,10.87,0,0,1,1.8-.1h2.4A7.8,7.8,0,0,1,60.8,555.76Zm-1.3,5.3a.9.9,0,0,0,.6-.6,3.7,3.7,0,0,0,0-2.4.9.9,0,0,0-.6-.6,3.73,3.73,0,0,0-1.2-.2h-2v4h2C58.8,561.16,59.2,561.16,59.5,561.06Z"/><path class="cls-5" d="M71.6,565.56l.1,1.6a15.48,15.48,0,0,1-2.2.1H66.6a2.44,2.44,0,0,1-1.8-.6,2.18,2.18,0,0,1-.7-1.6v-7.3a1.86,1.86,0,0,1,.7-1.6,2.44,2.44,0,0,1,1.8-.6h2.9c.8,0,1.5.1,2.2.1l-.1,1.6H67a.85.85,0,0,0-.6.2,1.29,1.29,0,0,0-.2.8v2H71v1.6H66.3v2.6a1.55,1.55,0,0,0,.2.8.85.85,0,0,0,.6.2h4.5Z"/><path class="cls-5" d="M80.1,561.86a5,5,0,0,1,1,1.4c.3.6.6,1.6,1.1,2.9l.3,1H80.3l-.2-.6c-.4-1.3-.8-2.3-1-2.8a4.85,4.85,0,0,0-.9-1.3,2,2,0,0,0-1.4-.5h-1a4.48,4.48,0,0,1,.1,1.1v4.1H73.8v-11.6h2.1V559a6.15,6.15,0,0,1-.1,1.3h1a2,2,0,0,0,1.4-.5,3.39,3.39,0,0,0,.9-1.4c.2-.6.6-1.5,1-2.8h2.1c0,.1-.1.2-.1.3s-.1.2-.1.4a23.55,23.55,0,0,1-1,2.7,3.88,3.88,0,0,1-1,1.4,2.63,2.63,0,0,1-1.5.7v.1A2.64,2.64,0,0,1,80.1,561.86Z"/><path class="cls-5" d="M92.8,567.16H90.7v-10H88.9a1.14,1.14,0,0,0-.8.3,1,1,0,0,0-.3.8c-.2,1.9-.3,3.3-.4,4.2a8.44,8.44,0,0,1-.6,2.4,3.52,3.52,0,0,1-1.3,1.8,2.88,2.88,0,0,1-1.9.6h-.4l-.2-1.6a2.32,2.32,0,0,0,1-.4,1.46,1.46,0,0,0,.6-.9,7.75,7.75,0,0,0,.6-2.3c.1-.9.3-2.2.4-4.1a2.54,2.54,0,0,1,.8-1.8,2.61,2.61,0,0,1,1.8-.6h4.5l.1,11.6Z"/><path class="cls-5" d="M101.6,564H97.3l-1,3.3H94.1l3.5-11c0-.2.1-.3.3-.4a.76.76,0,0,1,.5-.2h2.1c.2,0,.3.1.5.2a1.38,1.38,0,0,1,.3.4l3.5,11h-2.2Zm-.5-1.8-1.2-4a4.33,4.33,0,0,1-.1-.5,1.09,1.09,0,0,1-.1-.5h-.5l-.3,1-1.2,4Z"/><path class="cls-5" d="M118.3,556.46l.5,10.8h-2l-.4-9.9H116l-2,7.7a.8.8,0,0,1-.9.7h-1.6a.8.8,0,0,1-.9-.7l-2-7.7h-.3l-.4,9.9h-2.1l.4-10.8a.74.74,0,0,1,.8-.8h2.2c.5,0,.7.2.9.7l1.7,6.3c.1.4.2,1,.3,1.6h.3l.1-.5a4.33,4.33,0,0,0,.1-.5,1.42,1.42,0,0,1,.2-.6l1.6-6.3a.8.8,0,0,1,.9-.7h2.2C118,555.66,118.2,555.86,118.3,556.46Z"/><path class="cls-5" d="M129.9,555.66v11.6h-2.1V562h-4.6v5.3h-2.1v-11.6h2.1v4.6h4.6v-4.6Z"/><path class="cls-5" d="M139,560.36a1.89,1.89,0,0,1,1.2,1.1,6.25,6.25,0,0,1,0,4.4A1.89,1.89,0,0,1,139,567a6.08,6.08,0,0,1-2.2.3h-2.5c-.6,0-1.2-.1-1.9-.1h-.1v-11.6h2.1V560h2A11.84,11.84,0,0,1,139,560.36Zm-1.2,5.1c.3-.1.4-.3.5-.6a3.73,3.73,0,0,0,.2-1.2,4.12,4.12,0,0,0-.1-1.2.9.9,0,0,0-.6-.6,3.73,3.73,0,0,0-1.2-.2h-2v3.9h2A3.78,3.78,0,0,0,137.8,565.46Zm6.8-9.8v11.6h-2.1v-11.6Z"/><path class="cls-5" d="M154.6,565.56l.1,1.6a15.48,15.48,0,0,1-2.2.1h-2.9a2.44,2.44,0,0,1-1.8-.6,2.18,2.18,0,0,1-.7-1.6v-7.3a1.86,1.86,0,0,1,.7-1.6,2.44,2.44,0,0,1,1.8-.6h2.9c.8,0,1.5.1,2.2.1l-.1,1.6H150a.85.85,0,0,0-.6.2,1.29,1.29,0,0,0-.2.8v2h4.7v1.6h-4.7v2.6a1.55,1.55,0,0,0,.2.8.85.85,0,0,0,.6.2h4.6Z"/><path class="cls-5" d="M166.6,555.46l1.5.3-.2,1.6c-1-.1-2-.1-3.1-.1a2.08,2.08,0,0,0-1.5.4,2.42,2.42,0,0,0-.8,1.3,8.63,8.63,0,0,0-.2,2.5,14.73,14.73,0,0,0,.2,2.5,2.08,2.08,0,0,0,2.3,1.7h1.9c.5,0,1-.1,1.5-.1l.2,1.6a4.15,4.15,0,0,1-1.6.3,11.52,11.52,0,0,1-2,.1,5.55,5.55,0,0,1-2.8-.6,3.24,3.24,0,0,1-1.5-1.9,10.84,10.84,0,0,1-.5-3.5,10.4,10.4,0,0,1,.5-3.5,3.24,3.24,0,0,1,1.5-1.9,5.55,5.55,0,0,1,2.8-.6A12.13,12.13,0,0,1,166.6,555.46Z"/><path class="cls-5" d="M177.5,565.56l.1,1.6a15.48,15.48,0,0,1-2.2.1h-2.9a2.44,2.44,0,0,1-1.8-.6,2.18,2.18,0,0,1-.7-1.6v-7.3a1.86,1.86,0,0,1,.7-1.6,2.44,2.44,0,0,1,1.8-.6h2.9c.8,0,1.5.1,2.2.1l-.1,1.6H173a.85.85,0,0,0-.6.2,1.29,1.29,0,0,0-.2.8v2h4.7v1.6h-4.7v2.6a1.55,1.55,0,0,0,.2.8.85.85,0,0,0,.6.2h4.5Z"/><path class="cls-5" d="M188,557.46h-3.6v9.8h-2.1v-9.8h-3.5v-1.8H188v1.8Z"/><path class="cls-5" d="M198.8,567.16h-2v-7.6a8.08,8.08,0,0,1,.1-1.5h-.1a6.45,6.45,0,0,1-.6,1.4l-4.4,7.6h-2.1v-11.6h2V563a6.62,6.62,0,0,1-.1,1.5h.1a14.67,14.67,0,0,1,.6-1.4l4.4-7.6h2.2l-.1,11.7Z"/><path class="cls-1" d="M11.19,340.59c10.2,34.6,43.88,54.4,74.31,55.3,42.73,1.3,84.13-34.2,85.85-76,2-50.1-53.52-95.7-102.83-82.2C28.26,248.69-1.6,297.09,11.19,340.59Z"/><path class="cls-2" d="M13.32,235.57c-22.43,39,18.14,154.51,77.57,154,46.18-.37,89.19-70.45,79-115.36C155.72,211.89,37.88,192.62,13.32,235.57Z"/><path class="cls-3" d="M33.45,352.79h100.4a14.38,14.38,0,0,1,14.4,14.3h0a14.32,14.32,0,0,1-14.4,14.3H33.45a14.38,14.38,0,0,1-14.4-14.3h0a14.32,14.32,0,0,1,14.4-14.3Z"/><path class="cls-5" d="M39.25,363h-4.7l-.1,2.5,1.5.2a4.63,4.63,0,0,1,3,1.1,3.42,3.42,0,0,1,.9,2.6,4.55,4.55,0,0,1-.8,2.7,3.75,3.75,0,0,1-3,1,17.33,17.33,0,0,1-3.7-.4l.2-1.7a15.87,15.87,0,0,0,2.9.3,6.05,6.05,0,0,0,1.5-.2,1.41,1.41,0,0,0,.7-.6,3.73,3.73,0,0,0,.2-1.2,2.13,2.13,0,0,0-.3-1.2,1.93,1.93,0,0,0-.9-.5,17.78,17.78,0,0,0-2-.3l-1.1-.1a.55.55,0,0,1-.5-.3,1.42,1.42,0,0,1-.2-.6l.3-5h6.5Z"/><path class="cls-5" d="M51.55,361.19l1.5.3-.2,1.6c-1-.1-2-.1-3.1-.1a2.08,2.08,0,0,0-2.3,1.7,15.73,15.73,0,0,0,0,5,2.08,2.08,0,0,0,2.3,1.7h1.9c.5,0,1-.1,1.5-.1l.2,1.6a4.15,4.15,0,0,1-1.6.3,11.52,11.52,0,0,1-2,.1,5.55,5.55,0,0,1-2.8-.6,3.24,3.24,0,0,1-1.5-1.9,10.84,10.84,0,0,1-.5-3.5,10.4,10.4,0,0,1,.5-3.5,3.24,3.24,0,0,1,1.5-1.9,5.55,5.55,0,0,1,2.8-.6A3.78,3.78,0,0,1,51.55,361.19Z"/><path class="cls-5" d="M62.05,361.59a3.35,3.35,0,0,1,1.5,1.8,13.21,13.21,0,0,1,0,7.2,2.77,2.77,0,0,1-1.5,1.8,6.83,6.83,0,0,1-5.6,0,3.35,3.35,0,0,1-1.5-1.8,13.21,13.21,0,0,1,0-7.2,2.77,2.77,0,0,1,1.5-1.8,5.55,5.55,0,0,1,2.8-.6A6.48,6.48,0,0,1,62.05,361.59Zm-4.3,1.6a2.42,2.42,0,0,0-.8,1.3,8.63,8.63,0,0,0-.2,2.5,14.73,14.73,0,0,0,.2,2.5,2.08,2.08,0,0,0,2.3,1.7,2.08,2.08,0,0,0,1.5-.4,2.42,2.42,0,0,0,.8-1.3,8.63,8.63,0,0,0,.2-2.5,14.73,14.73,0,0,0-.2-2.5,2.08,2.08,0,0,0-2.3-1.7A5.41,5.41,0,0,0,57.75,363.19Z"/><path class="cls-5" d="M76.15,371.19v4.1h-1.5l-.2-2.5h-8.3v-11.5h2.1v9.9h4.4v-9.9h2.1v9.9Z"/><path class="cls-5" d="M79.55,370.69a.85.85,0,0,1,.2.6v.9a.71.71,0,0,1-.8.8h-.6a.71.71,0,0,1-.8-.8v-.9a.71.71,0,0,1,.8-.8H79A.85.85,0,0,1,79.55,370.69Z"/><path class="cls-5" d="M91.75,361.19l1.5.3-.2,1.6c-1-.1-2-.1-3.1-.1a2.08,2.08,0,0,0-2.3,1.7,15.73,15.73,0,0,0,0,5,2.08,2.08,0,0,0,2.3,1.7h1.9c.5,0,1-.1,1.5-.1l.2,1.6a4.15,4.15,0,0,1-1.6.3,11.52,11.52,0,0,1-2,.1,5.55,5.55,0,0,1-2.8-.6,3.24,3.24,0,0,1-1.5-1.9,10.84,10.84,0,0,1-.5-3.5,10.4,10.4,0,0,1,.5-3.5,3.24,3.24,0,0,1,1.5-1.9,5.55,5.55,0,0,1,2.8-.6A3.78,3.78,0,0,1,91.75,361.19Z"/><path class="cls-5" d="M102.65,371.09l.1,1.6a15.48,15.48,0,0,1-2.2.1h-2.9a2.44,2.44,0,0,1-1.8-.6,2.18,2.18,0,0,1-.7-1.6v-7.2a1.86,1.86,0,0,1,.7-1.6,2.44,2.44,0,0,1,1.8-.6h2.9c.8,0,1.5.1,2.2.1l-.1,1.6h-4.5a.85.85,0,0,0-.6.2,1.29,1.29,0,0,0-.2.8v2h4.7v1.6h-4.7v2.6a1.55,1.55,0,0,0,.2.8.85.85,0,0,0,.6.2Z"/><path class="cls-5" d="M113,363.09h-3.6v9.7h-2.1v-9.7h-3.4v-1.8h9.2v1.8Z"/><path class="cls-5" d="M122,371.09l.1,1.6a15.48,15.48,0,0,1-2.2.1H117a2.44,2.44,0,0,1-1.8-.6,2.18,2.18,0,0,1-.7-1.6v-7.2a1.86,1.86,0,0,1,.7-1.6,2.44,2.44,0,0,1,1.8-.6h2.9c.8,0,1.5.1,2.2.1l-.1,1.6h-4.5a.85.85,0,0,0-.6.2,1.29,1.29,0,0,0-.2.8v2h4.7v1.6h-4.7v2.6a1.55,1.55,0,0,0,.2.8.85.85,0,0,0,.6.2Z"/><path class="cls-5" d="M133.25,372.79h-2v-7.5a8.08,8.08,0,0,1,.1-1.5h-.1a6.45,6.45,0,0,1-.6,1.4l-4.4,7.6h-2.1v-11.5h2v7.4a6.62,6.62,0,0,1-.1,1.5h.1a14.67,14.67,0,0,1,.6-1.4l4.3-7.6h2.1l.1,11.6Zm-1.9-14.8v.2a2,2,0,0,1-.7,1.6,2.88,2.88,0,0,1-1.9.6,2.71,2.71,0,0,1-1.9-.6,2.36,2.36,0,0,1-.7-1.6V358h1.4c0,.9.4,1.4,1.2,1.4a1,1,0,0,0,.9-.4,1.61,1.61,0,0,0,.3-1.1l1.4.1Z"/><path class="cls-1" d="M90.13,184.35C152.33,196.83,205.2,166.68,222.3,155c47.89-32.74,62.2-88.64,25.5-114.09C196.64,5.27,40.37,24.74,12.08,82.73-5.5,118.67,25.6,171.37,90.13,184.35Z"/><path class="cls-2" d="M258.16,116.2C264,68.37,255,40.54,219.52,21,163.48-5.88,52.14,3.48,22.71,36.11c-41,45.46,17.06,153.82,105.2,160.54C182.86,200.89,252.06,165.89,258.16,116.2Z"/><path class="cls-3" d="M64,158.76h84.6a14.38,14.38,0,0,1,14.4,14.3h0a14.47,14.47,0,0,1-14.4,14.4H64a14.38,14.38,0,0,1-14.4-14.3h0A14.47,14.47,0,0,1,64,158.76Z"/><path class="cls-5" d="M73.44,174.66v1.4l-1.4.2h0v2.6H70v-2.6h-4.5a1.28,1.28,0,0,1-1-.4,1.8,1.8,0,0,1-.4-.9,1.27,1.27,0,0,1,.1-.6l3-6.9h2l-2.9,6.6c0,.1-.1.2-.1.3s.1.3.4.3h3.2v-3.2l.3-1.9h1.6v5h1.7v.1Z"/><path class="cls-5" d="M80.54,167.46a2.55,2.55,0,0,1,1.2.8,3.41,3.41,0,0,1,.4,1.6,4,4,0,0,1-.4,2,1.6,1.6,0,0,1-1.3.9v.1a2,2,0,0,1,1.5.9,4.14,4.14,0,0,1,.4,2.1,3.18,3.18,0,0,1-.9,2.5,4.37,4.37,0,0,1-2.9.8,28.69,28.69,0,0,1-3.8-.3l.1-1.6c1.3.1,2.4.1,3.1.1a3.92,3.92,0,0,0,1.3-.2,1.06,1.06,0,0,0,.7-.6,3.09,3.09,0,0,0,.2-1.1,2,2,0,0,0-.4-1.4,2.08,2.08,0,0,0-1.5-.4h-2v-1.5h2.1a2.68,2.68,0,0,0,1.1-.2,1,1,0,0,0,.5-.6,2.48,2.48,0,0,0,.1-.9,2,2,0,0,0-.2-.9.92.92,0,0,0-.6-.4,4.12,4.12,0,0,0-1.2-.1,26.28,26.28,0,0,0-3,.1l-.1-1.6a20.41,20.41,0,0,1,3.4-.3A4.84,4.84,0,0,1,80.54,167.46Z"/><path class="cls-5" d="M91.54,174.56h-3v2.8H87v-2.8h-2.9v-1.5H87v-2.8h1.5v2.8h3Z"/><path class="cls-5" d="M103.34,167.26a8,8,0,0,1,1.5.3l-.2,1.6c-1-.1-2-.1-3.1-.1a2.41,2.41,0,0,0-1.5.4,2.14,2.14,0,0,0-.8,1.2,15.73,15.73,0,0,0,0,5,1.55,1.55,0,0,0,.8,1.2,3,3,0,0,0,1.5.4h1.9c.5,0,1-.1,1.4-.1l.2,1.6a4,4,0,0,1-1.5.3,11.52,11.52,0,0,1-2,.1,4.91,4.91,0,0,1-2.7-.6,3.24,3.24,0,0,1-1.5-1.9,15.51,15.51,0,0,1,0-7,3.24,3.24,0,0,1,1.5-1.9,5.4,5.4,0,0,1,2.7-.6A12.13,12.13,0,0,0,103.34,167.26Z"/><path class="cls-5" d="M112.94,175.56h-4.2l-.9,3.2h-2.1l3.4-10.9c0-.2.1-.3.3-.4a.75.75,0,0,1,.5-.1h2a.9.9,0,0,1,.5.1,1.38,1.38,0,0,1,.3.4l3.4,10.9H114Zm-.5-1.7-1.1-3.9a4.33,4.33,0,0,1-.1-.5,1.09,1.09,0,0,1-.1-.5h-.4l-.3,1-1.1,3.9Z"/><path class="cls-5" d="M126.34,178.86h-2v-7.5a6.6,6.6,0,0,1,.1-1.4h-.1a6.45,6.45,0,0,1-.6,1.4l-4.3,7.5h-2.1v-11.4h2v7.4a7.08,7.08,0,0,1-.1,1.5h.1a14.67,14.67,0,0,1,.6-1.4l4.3-7.5h2.1Zm-1.8-14.7v.2a2,2,0,0,1-.7,1.6,3.31,3.31,0,0,1-3.8,0,1.86,1.86,0,0,1-.7-1.6v-.2h1.4c0,.9.4,1.4,1.2,1.4a1.22,1.22,0,0,0,.9-.3,1.49,1.49,0,0,0,.3-1h1.4Z"/><path class="cls-5" d="M137,169.16h-3.5v9.6h-2.1v-9.6h-3.5v-1.8H137Z"/><path class="cls-5" d="M144.74,175.56h-4.2l-.9,3.2h-2.1l3.4-10.9c0-.2.1-.3.3-.4a.75.75,0,0,1,.5-.1h2a.9.9,0,0,1,.5.1,1.38,1.38,0,0,1,.3.4l3.4,10.9h-2.1Zm-.5-1.7-1.1-3.9a4.33,4.33,0,0,1-.1-.5,1.09,1.09,0,0,1-.1-.5h-.4l-.3,1-1.1,3.9Z"/><path class="cls-4" d="M242.1,202.5c-19.1,9.5-31.4,20.8-39.8,31.9-36.7,48.9-28.8,133.2,22.4,176.6,26,22,58.9,29.7,86.9,28.6,28.2-1,65.7-11.5,92.2-42.6,19.7-23.2,29.7-55,28-92.9-1.7-35.9-12.3-59.8-26.1-76.2C366.2,180.9,291.3,178,242.1,202.5Z"/><polygon class="cls-6" points="417.12 367.63 202.42 367.63 202.42 225.33 417.12 224.83 417.12 367.63"/><polygon class="cls-7" points="418.92 367.63 193.42 367.63 193.42 221.23 417.12 221.23 418.92 367.63"/><rect class="cls-7" x="285.82" y="367.63" width="33.6" height="60.8"/><path class="cls-7" d="M255,367.63v24.7c0,.8-.3,1.8,1.2,1.7.9-.1,1.2-.6,1.8-1,.7.7,1.4-.1,2-.4.9-.4,2-.1,2.9-.6a.89.89,0,0,0,.8.5c.3,0,.6-.3.9-.3s.4.2.6.1a25,25,0,0,0,2.6-.7c.5-.1.8.1,1.2-.2s.4-.8.9-1.2,1.6-.2,2.2-.8c.2-.2.1-.5.3-.7a3.33,3.33,0,0,1,1-.6c1.4-1,2.1-2.2,4.2-1.5.1.5.7.6,1.3.5-.1.8.6,1,1.5.7.3.9,1.6.6,2.6.6-.5,1.3,3.7.9,3.7-.8v-20Z"/><path class="cls-7" d="M226,367.63h30.2v13c0,.5-4.5,1.2-4.9.8a1.82,1.82,0,0,1-1.4.6c-.5,0-.6-.5-1-.6s-1.6.7-1.4.9c-.4-.4-1.1-.8-1.2-1.3-.4,0-.7.3-1.1.3s-.6-.4-1-.6a5.55,5.55,0,0,0-4.2.5c-.1.1-1.4.6-1.1.2-.4.8-2.4,1-3.4,1.4a5.84,5.84,0,0,1-1.8.4,1.61,1.61,0,0,0-.9.3,15.52,15.52,0,0,1-2.1.4,2.19,2.19,0,0,1-2.2-.3,4.5,4.5,0,0,1-2.8.4c-.3,0-1.7-.3-1.8.1C224,383.83,226,367.63,226,367.63Z"/><path class="cls-8" d="M193.52,367.63c-1.3,5.9-2.6,11.9-3.9,17.8a23,23,0,0,0-.6,2.8c1.1.3,2.6-.5,3.8-.5l1.5.3a7.88,7.88,0,0,0,2.3-.4,5.82,5.82,0,0,1,1.9.3,33.89,33.89,0,0,0,4.5.2c1.5,0,3.3-.5,4.7-.2a16,16,0,0,0,2.1.5,13.1,13.1,0,0,1,2.8,0l1.1.3a8.83,8.83,0,0,0,2.8.2c1.6,0,3.2.2,4.8.1,1,0,1.1-.3,1.5-1.1a33.76,33.76,0,0,0,1.3-4.2,62.64,62.64,0,0,0,1.8-16.1Z"/><path class="cls-7" d="M385.82,367.63H419v11.3c0,2,.9,4.8-1.2,6.3a2.8,2.8,0,0,1-2.8.7c-1.9-.2-3.2.2-5-.5-1,1.2-1.5.5-2.7.4a8.24,8.24,0,0,0-3.1.7,21.08,21.08,0,0,1-3.5.5c-1.7.2-1.7.6-2.3-.9-1.4.3-2.7,1.8-3.9,2.4a3.77,3.77,0,0,1-.9-1.5c-.8.4-2.5.9-2.7-.2-1.1-.2-2.7.6-3.6,0-.7-.4-.2-1-.5-1.6,0-.1-1-1.3-1-.9C385.92,382.93,385.82,367.63,385.82,367.63Z"/><path class="cls-7" d="M351.82,367.63h33v11.6a27.41,27.41,0,0,1-2.8.5c-.4,0-2.9-.8-2.6-1-1.6,1-2.2-.7-3.4-1.2-1,.5-.4,1.1-.9,1.8a17.27,17.27,0,0,1-3.2,2c-.8.2-1.5-.1-2.5.1-1.9.3-2.6.3-3.8-1.1-.7.8-1.4.5-2.2.7-.2.1-.4-.1-.7-.1-.5.1-1.2.9-1.7,1.1l-1.7.3c-.7.5-.3,1.6-1.1,2a2.38,2.38,0,0,1-.6-1.1c-1.6,1.5-3.5,1.4-5.8,1.4Z"/><path class="cls-8" d="M319.32,367.63h32.5l-1.9,53.6-33.9-1Z"/><path class="cls-9" d="M227.72,342.13c-1.1,1.3-1.6,3.7-1.6,7.2s.5,5.9,1.6,7.2,3,2,5.7,2,4.7-.7,5.7-2,1.6-3.7,1.6-7.2-.5-5.9-1.6-7.2-3-2-5.7-2S228.82,340.83,227.72,342.13Zm8.8,2.1c.6.9.8,2.6.8,5.1a11.56,11.56,0,0,1-.8,5.1,4.23,4.23,0,0,1-5.9.3l-.3-.3c-.6-.9-.8-2.6-.8-5.1a11.56,11.56,0,0,1,.8-5.1,4.23,4.23,0,0,1,5.9-.3Zm10.8-1.2h8l.3-2.6c-2.2-.1-4.1-.2-5.7-.2s-3.5.1-5.8.2v17.7h.1a55.27,55.27,0,0,0,5.9.2,28.1,28.1,0,0,0,2.9-.1,4.79,4.79,0,0,0,2-.7,2.93,2.93,0,0,0,1.3-1.6,9,9,0,0,0,.4-2.8c0-2-.5-3.4-1.4-4.2s-2.5-1.2-4.9-1.2h-3.1V343Zm0,7.1h3.1a3.48,3.48,0,0,1,2.4.6,3.22,3.22,0,0,1,.6,2.3,2.86,2.86,0,0,1-.6,2.2,4,4,0,0,1-2.4.5h-3.1v-5.6Zm19.6-9.7h-8.8v2.8h5.5v15c1.6.1,3.9.2,6.8.2,2.1,0,3.5-.4,4.4-1.2s1.3-2.2,1.3-4.3-.5-3.6-1.4-4.4-2.5-1.2-4.8-1.2h-3v-6.9Zm0,9.3h3a3.1,3.1,0,0,1,2.4.7,3.48,3.48,0,0,1,.6,2.4,2.32,2.32,0,0,1-1.5,2.9,2,2,0,0,1-1.5,0h-3v-6Zm24.2-9.3a57.5,57.5,0,0,0-6.5-.2,7.42,7.42,0,0,0-4.6,1.2,5.33,5.33,0,0,0-1.4,4,5.59,5.59,0,0,0,.8,3.3,3.76,3.76,0,0,0,2.6,1.4v.2a3.08,3.08,0,0,0-2.6,2.5l-1.4,5.4h3.4l1.4-5.3a2,2,0,0,1,2.1-1.6H288v7h3.2l-.1-17.9Zm-6.3,8.2a2.93,2.93,0,0,1-2.2-.7,3.22,3.22,0,0,1-.6-2.3,2.86,2.86,0,0,1,.6-2.2,3.5,3.5,0,0,1,2.2-.6h3.1v5.7Zm22-.8a5,5,0,0,0,.7-2.9c0-1.8-.4-3-1.3-3.7a9,9,0,0,0-4.8-1c-2.7,0-4.8.1-6.3.2v17.7c1.6.1,4,.2,7.1.2a7.68,7.68,0,0,0,4.5-1c.9-.6,1.3-1.9,1.3-3.6a5.73,5.73,0,0,0-.8-3.4,4.21,4.21,0,0,0-2.8-1.4v-.1a3.49,3.49,0,0,0,2.4-1Zm-8.5-5h3a4.34,4.34,0,0,1,2.5.5,2.37,2.37,0,0,1,.7,2,2.52,2.52,0,0,1-.6,2,3.57,3.57,0,0,1-2.2.5h-3.2l-.2-5Zm0,7.3h3.3a4,4,0,0,1,2.6.6,3.41,3.41,0,0,1,.7,2.4,2.38,2.38,0,0,1-.7,2.1,4.19,4.19,0,0,1-2.5.5h-3.4v-5.6Zm19.2-9.7a3.5,3.5,0,0,0-3.9,3.1v.5c-.2,2.8-.4,4.9-.6,6.2a20,20,0,0,1-.9,3.5,2.56,2.56,0,0,1-1,1.3,4.59,4.59,0,0,1-1.6.7l.2,2.5c2.5.2,4.3-1,5.3-3.6a16.15,16.15,0,0,0,1-3.6c.2-1.3.4-3.5.7-6.4a1.5,1.5,0,0,1,1.5-1.6h3v15.2h3.2v-17.7Zm15.3,15.2a1.69,1.69,0,0,1-1-.3,2,2,0,0,1-.3-1.1v-4h7.3v-2.5h-7.3v-3.1a2,2,0,0,1,.3-1.1,1,1,0,0,1,1-.3h7l.1-2.5c-1.6-.1-4.2-.2-7.8-.2a4.1,4.1,0,0,0-2.8.9,3.17,3.17,0,0,0-1,2.5V355a3.47,3.47,0,0,0,1,2.5,4.1,4.1,0,0,0,2.8.9c3.7,0,6.3-.1,7.8-.2l-.1-2.4Zm20.5-15.2v7h-7v-7h-3.2v17.7h3.2V350h7v8.1h3.2v-17.7Zm21.4,0h-3.3l-6.7,11.6a20,20,0,0,0-1,2.1h-.2a17.85,17.85,0,0,0,.2-2.3v-11.5h-3.1V358h3.3l6.7-11.7a14.72,14.72,0,0,0,1-2.2h.2a16.35,16.35,0,0,0-.2,2.2v11.6h3.1v-17.5Zm8.3,15.2a1.69,1.69,0,0,1-1-.3,2,2,0,0,1-.3-1.1v-4H389v-2.5h-7.3v-3.1a2,2,0,0,1,.3-1.1,1,1,0,0,1,1-.3h7l.1-2.5c-1.6-.1-4.2-.2-7.9-.2a4.1,4.1,0,0,0-2.8.9,2.88,2.88,0,0,0-1,2.5V355a3.11,3.11,0,0,0,1,2.5,4.1,4.1,0,0,0,2.8.9c3.7,0,6.3-.1,7.9-.2l-.1-2.4Z"/><polygon class="cls-1" points="240.92 251.43 267.92 251.43 267.92 318.73 217.02 318.73 217.02 302.03 212.92 302.03 212.92 318.73 211.22 318.73 211.22 302.03 209.52 302.03 209.52 292.53 217.02 292.53 217.02 247.33 240.92 247.33 240.92 251.43"/><path class="cls-10" d="M232.42,287.93a.5.5,0,1,1,0,1h-6.8a.5.5,0,1,1,0-1Zm-13-28.8a.5.5,0,0,1,0,1H217a.5.5,0,1,1,0-1Zm0,4.1a.5.5,0,0,1,0,1H217a.5.5,0,1,1,0-1Zm0,4.1a.5.5,0,1,1,0,1H217a.5.5,0,0,1,0-1Zm0,4.1a.5.5,0,1,1,0,1H217a.5.5,0,0,1,0-1Zm0,4.1a.5.5,0,0,1,0,1H217a.5.5,0,1,1,0-1Zm0,4.2a.5.5,0,0,1,0,1H217a.5.5,0,1,1,0-1Zm0,4.1a.5.5,0,1,1,0,1H217a.5.5,0,0,1,0-1Zm0,4.1a.5.5,0,1,1,0,1H217a.5.5,0,0,1,0-1Zm13-37a.5.5,0,1,1,0,1H217a.5.5,0,0,1,0-1Zm0,4.1a.47.47,0,0,1,.5.5h0a.47.47,0,0,1-.5.5H217a.5.5,0,0,1,0-1h15.4Zm0,4.1a.5.5,0,0,1,0,1h-6.8a.5.5,0,0,1,0-1Zm0,4.1a.5.5,0,0,1,0,1h-6.8a.5.5,0,0,1,0-1Zm0,4.1a.5.5,0,1,1,0,1h-6.8a.5.5,0,0,1,0-1Zm0,4.1a.5.5,0,1,1,0,1h-6.8a.5.5,0,0,1,0-1Zm0,4.2a.5.5,0,0,1,0,1h-6.8a.5.5,0,0,1,0-1Zm0,4.1a.5.5,0,0,1,0,1h-6.8a.5.5,0,0,1,0-1Zm0,4.1a.5.5,0,1,1,0,1h-6.8a.5.5,0,0,1,0-1Z"/><polygon class="cls-11" points="261.32 302.03 261.32 304.93 225.72 304.93 225.72 318.73 220.82 318.73 220.82 304.93 217.02 304.93 217.02 302.03 261.32 302.03"/><polygon class="cls-11" points="220.82 261.53 225.72 261.53 225.72 292.53 220.82 292.53 220.82 261.53"/><polygon class="cls-11" points="242.32 261.53 261.32 261.53 261.32 300.23 242.32 300.23 242.32 261.53"/><polygon class="cls-12" points="242.32 292.33 261.32 281.43 261.32 286.63 242.32 297.53 242.32 292.33"/><polygon class="cls-12" points="242.32 299.03 261.32 288.13 261.32 291.13 245.52 300.23 242.32 300.23 242.32 299.03"/><polygon class="cls-13" points="225.72 302.03 225.72 318.73 220.82 318.73 220.82 304.93 219.42 304.93 219.42 302.03 225.72 302.03"/><path class="cls-14" d="M219.92,318.73a.5.5,0,0,1-1,0v-16.2h-1.4v16.2a.5.5,0,0,1-1,0v-16.2h-3.1v16.2a.5.5,0,0,1-1,0v-16.2h-.7v16.2a.5.5,0,0,1-1,0v-16.2h-1.2a.47.47,0,0,1-.5-.5v-9.5a.47.47,0,0,1,.5-.5h7v-44.7a.47.47,0,0,1,.5-.5h23.9a.47.47,0,0,1,.5.5v3.6h26.5a.47.47,0,0,1,.5.5h0v67.3a.5.5,0,0,1-1,0v-66.9h-32.6v40.6a.47.47,0,0,1-.5.5H210v8.5h51.3a.47.47,0,0,1,.5.5v4.2h0v8.4h0v4.2a.5.5,0,0,1-1,0V315h-19.4v3.7a.5.5,0,0,1-1,0v-16.2h-14.3v16.2a.5.5,0,0,1-1,0v-1.3h-5.2v1.3Zm41.4-18h-20.4a.47.47,0,0,1-.5-.5h0v-40.6a.47.47,0,0,1,.5-.5h20.4a.47.47,0,0,1,.5.5v20.6h0v20a.54.54,0,0,1-.5.5Zm-19.9-1h3.1v-19h-3.1Zm4.1,0h11.2v-19h-11.2v19Zm12.2,0h3.1V293h-3.1v6.7Zm3.1-7.7v-11.3h-3.1V292Zm0-12.3v-19.6h-3.1v19.6Zm-4.1-19.6h-11.2v15.5h11.2v-15.5Zm-12.1,0h-3.1v15.5h3.1v-15.5Zm-3.2,16.4v3.2h3.1v-3.1Zm15.3,0h-11.2v3.2h11.2v-3.2ZM218.92,292v-32.4a.47.47,0,0,1,.5-.5h6.2a.47.47,0,0,1,.5.5h0V292h7.7v-40.6a.47.47,0,0,1,.5-.5h6.1v-3.2h-23v44.2l1.5.1Zm6.3,0v-15.5H220V292Zm0-16.5V260H220v15.5Zm35.6,38.6v-3.2h-19.4v3.2Zm0-4.2v-3.2h-19.4v3.2Zm0-4.2v-3.2h-19.4v3.2Zm-40.9-3.2v3.2h5.2v-3.2Zm5.3,14v-9.8H220v9.8Z"/><path class="cls-1" d="M349,282.93v21h-4v15h.8V327h-79.1v-8.1h.8v-23.2l-4.6,3.5c-.2.1-.5.1-.6-.1l-1.1-1.4c-.1-.2-.1-.5.1-.6l29.1-21.9,10.2,7.6h7.6v-2.5h.7v-4.9h-.7v-2h.7v-2h4.5v2h.7v2h-.7v4.9h.7v2.5H349Z"/><path class="cls-15" d="M308.82,288.63a.5.5,0,0,1-1,0v-2.7a.5.5,0,0,1,1,0Z"/><path class="cls-15" d="M303.72,284.83a.47.47,0,0,1-.5.5h0a.47.47,0,0,1-.5-.5h0v-1.9a.47.47,0,0,1,.5-.5h0a.47.47,0,0,1,.5.5h0Z"/><path class="cls-15" d="M339.32,299.23a.5.5,0,0,1-1,0v-16.4a.5.5,0,0,1,1,0Z"/><path class="cls-15" d="M344.52,299.23a.5.5,0,0,1-1,0v-16.4a.5.5,0,1,1,1,0Z"/><path class="cls-15" d="M334.22,299.23a.5.5,0,0,1-1,0h0v-16.4a.5.5,0,1,1,1,0Z"/><path class="cls-15" d="M329.12,299.23a.5.5,0,0,1-1,0v-16.4a.5.5,0,0,1,1,0Z"/><path class="cls-15" d="M324,299.23a.5.5,0,0,1-1,0h0v-16.4a.5.5,0,1,1,1,0h0Z"/><path class="cls-15" d="M319,296.23a.47.47,0,0,1-.5.5h0a.47.47,0,0,1-.5-.5h0v-13.4a.47.47,0,0,1,.5-.5h0a.47.47,0,0,1,.5.5h0Z"/><path class="cls-15" d="M313.92,292.43a.5.5,0,0,1-1,0v-6.5a.5.5,0,0,1,1,0Z"/><path class="cls-11" d="M291.22,285.73a3.9,3.9,0,1,1-3.9,3.9A3.84,3.84,0,0,1,291.22,285.73Zm53.8,18.2v2.7h-21.3l1.8,4.3-1.6,2.1h-2.4v14h-7.4v-8.1h-.8v-21.1l-7.6-5.7-10.4,7.8v12.8l-6.5-15.3,1.5,2,5-3.7,9-6.7,9,6.7,4.6,3.5,1.6-2.1,1.8,4.2H349v2.6ZM284.92,325h-5.4v-2h5.4v2Zm16.1,2h-3.5v-8.1Zm-2.7-8.1h2.9v-10.5a8.47,8.47,0,0,1,3-1.5v9h1.6v-9.4a9.38,9.38,0,0,1,4.4.5v-7.6c-4.6-2.7-8.5-2.5-12,0l.1,19.5Zm-10.2-3h-11.7v-14.1h11.7v14.1Zm-20.6-20.2,22.9-17.2,11.9,8.9-1.5,1.1-9-6.8-2.6,2a4.7,4.7,0,0,0-2.5,1.9l-19.3,14.5.1-4.4Z"/><path class="cls-13" d="M305.92,306.53v9.4h-3.2v-8.4l-1.5.9v10.5h-.6v-17.6h7.5v5.2a8.09,8.09,0,0,0-2.2,0Z"/><path class="cls-14" d="M290.82,274.83l.1.1Zm13.9,10.5.1.1ZM267.22,327a.5.5,0,0,1-1,0h0v-8.1a.47.47,0,0,1,.5-.5h.3v-21.6l-3.8,2.8a1,1,0,0,1-.7.2.68.68,0,0,1-.6-.4l-1-1.4a1,1,0,0,1,.2-1.3l29.1-21.9a.85.85,0,0,1,.7,0l10,7.5h6.8v-2a.47.47,0,0,1,.5-.5h.1v-3.9h-.1a.47.47,0,0,1-.5-.5v-2a.47.47,0,0,1,.5-.5h.1v-1.5a.47.47,0,0,1,.5-.5h4.5a.47.47,0,0,1,.5.5v1.5h.1a.47.47,0,0,1,.5.5h0v2a.47.47,0,0,1-.5.5h-.1v3.9h.1a.47.47,0,0,1,.5.5h0v2H349a.47.47,0,0,1,.5.5h0v21a.47.47,0,0,1-.5.5h-3.4v13.9h.3a.47.47,0,0,1,.5.5h0v8.1a.5.5,0,0,1-1,0h0v-7.6h-4.7v7.6a.47.47,0,0,1-.5.5h0a.47.47,0,0,1-.5-.5h0V321H319v5.8a.5.5,0,0,1-1,0h0v-7.6h-3.1v7.6a.5.5,0,0,1-1,0h0v-7.6H312v7.6a.5.5,0,0,1-1,0h0v-1.4h-12.5v1.4a.47.47,0,0,1-.5.5h0a.47.47,0,0,1-.5-.5h0v-7.6h-1.9v7.6a.47.47,0,0,1-.5.5h0a.47.47,0,0,1-.5-.5h0v-7.6h-26.8V327Zm35-43.6,2.5,1.9h0l15.2,11.4a2.09,2.09,0,0,1,.4.6.84.84,0,0,1-.2.7h0l-1,1.3a2.09,2.09,0,0,1-.6.4.84.84,0,0,1-.7-.2l-3.8-2.8v4h34.6v-17.4h-33.9v2.5a.47.47,0,0,1-.5.5h-5.8a.47.47,0,0,1-.5-.5h0v-2.5Zm-1.9-.1h0l-9.9-7.4-28.7,21.5.9,1.2,4.5-3.4h0L290,278a.48.48,0,0,1,.7,0l11.5,8.6,1.3-1-3.2-2.3Zm12.5-3.5v-3.9h-3.4v3.9Zm.7,1.1h-4.8v4.5h4.8v-4.5Zm-.7-8V272h-3.4v.9Zm-4.1,2h4.8V274h-4.8Zm35.8,29.6h-30.6v13.9h3.9v-10.3a.47.47,0,0,1,.5-.5H340a.47.47,0,0,1,.5.5v10.3h3.9l.1-13.9Zm4-2.6h-34.6v1.5h34.6v-1.5Zm-8.9,18.3V315h-20.7v5.2Zm0-6.3v-5.2h-20.7v5.2Zm-36.2,1.5h2.1v-10.9h-2.1v10.9Zm2.6,1.1h-3.2a.47.47,0,0,1-.5-.5h0V304a.47.47,0,0,1,.5-.5H306a.47.47,0,0,1,.5.5h0v12a.54.54,0,0,1-.5.5Zm-5.9,1.9v-17.1a.47.47,0,0,1,.5-.5h7.5a.47.47,0,0,1,.5.5h0v17.1h1.2V300a8.35,8.35,0,0,0-10.9,0v18.4Zm7.5,0v-16.5h-6.4v16.5Zm3.2-19a.76.76,0,0,1,.2.4v18.6h1.9V296l-8.5-6.3L296,296v22.4h1.9v-18.6a.52.52,0,0,1,.2-.4,10,10,0,0,1,2.9-1.8,9.57,9.57,0,0,1,9.8,1.8Zm2.8-4.2c.1,0,.2.1.3.2l4.4,3.3.9-1.2-14.8-11.1-1.9,1.4h0l-12.9,9.7.9,1.2,4.5-3.4h0l8.9-6.7a.63.63,0,0,1,.6,0l9.1,6.6Zm-18.7,1.6-3.8,2.8a1,1,0,0,1-.7.2.68.68,0,0,1-.6-.4l-1-1.4a1,1,0,0,1-.2-.7.68.68,0,0,1,.4-.6l12.4-9.3-10.9-8.2L268.12,296v22.4h26.8v-21.6Zm-4.5-13.4a4.53,4.53,0,0,1,4.5,4.4h0a4.46,4.46,0,0,1-4.4,4.5,4.45,4.45,0,0,1-.1-8.9Zm2.4,2a3.39,3.39,0,1,0,0,4.8,3.49,3.49,0,0,0,1-2.4A3.1,3.1,0,0,0,292.82,285.43Zm-17.9,13.9h13.2a.47.47,0,0,1,.5.5h0v16.1a.47.47,0,0,1-.5.5h-13.3a.47.47,0,0,1-.5-.5h0v-16.1c0-.3.2-.5.6-.5Zm9.5,16.1v-15.1h-5.9v15.1Zm1.1-15.1v15.1h2.1v-15.1Zm-8,15.1v-15.1h-2.1v15.1Zm33.2,9.1v-1h-12.6v1Zm0-2v-1h-12.6v1Zm0-2v-1h-12.6v1Zm-32.6,0H285a.47.47,0,0,1,.5.5h0v4.1a.47.47,0,0,1-.5.5h-7a.47.47,0,0,1-.5-.5h0V321c0-.3.2-.5.6-.5Zm6.3,1h-5.9v3h5.9Z"/><polygon class="cls-1" points="391.72 239.93 391.72 236.63 395.72 236.63 395.72 254.13 395.72 257.43 396.72 257.43 396.72 260.13 395.72 260.13 395.72 299.53 396.72 299.53 396.72 302.23 395.72 302.23 395.72 325.63 348.62 325.63 348.62 302.23 347.62 302.23 347.62 299.53 348.62 299.53 348.62 260.13 347.62 260.13 347.62 257.43 348.62 257.43 348.62 254.13 348.62 236.63 352.62 236.63 352.62 239.93 391.72 239.93"/><path class="cls-16" d="M387.32,257.43a.63.63,0,0,1-.5.6c-.3,0-.5-.2-.5-.6v-17.5a.54.54,0,0,1,.5-.5.47.47,0,0,1,.5.5h0v17.5Zm-29.3,0a.51.51,0,1,1-1,0v-17.5a.47.47,0,0,1,.5-.5h0a.47.47,0,0,1,.5.5v17.5Zm4.9-3.7a.47.47,0,0,1-.5.5h0a.47.47,0,0,1-.5-.5v-13.8a.54.54,0,0,1,.5-.5.47.47,0,0,1,.5.5h0v13.8Zm4.9-2.2a.54.54,0,0,1-.5.5.47.47,0,0,1-.5-.5h0v-11.6a.47.47,0,0,1,.5-.5h0a.47.47,0,0,1,.5.5Zm4.9-2.2a.55.55,0,1,1-1.1.1v-9.5a.56.56,0,0,1,.6-.5c.2,0,.4.2.5.5Zm4.9,2.2a.47.47,0,0,1-.5.5h0a.47.47,0,0,1-.5-.5v-11.6a.54.54,0,0,1,.5-.5.47.47,0,0,1,.5.5h0Zm4.9,2.2a.54.54,0,0,1-.5.5.47.47,0,0,1-.5-.5h0v-13.8a.47.47,0,0,1,.5-.5h0a.47.47,0,0,1,.5.5v13.8Z"/><polygon class="cls-17" points="348.62 262.03 395.72 262.03 395.72 263.73 348.62 263.73 348.62 262.03"/><polygon class="cls-17" points="348.62 302.23 395.72 302.23 395.72 303.93 348.62 303.93 348.62 302.23"/><polygon class="cls-11" points="370.72 266.73 375.22 266.73 375.22 276.33 370.72 276.33 370.72 266.73"/><polygon class="cls-11" points="357.02 266.73 361.52 266.73 361.52 276.33 357.02 276.33 357.02 266.73"/><polygon class="cls-11" points="384.42 287.73 388.92 287.73 388.92 297.23 384.42 297.23 384.42 287.73"/><polygon class="cls-11" points="370.72 287.73 375.22 287.73 375.22 297.23 370.72 297.23 370.72 287.73"/><polygon class="cls-11" points="357.02 287.73 361.52 287.73 361.52 297.23 357.02 297.23 357.02 287.73"/><polygon class="cls-13" points="384.42 308.63 388.92 308.63 388.92 323.63 384.42 323.63 384.42 308.63"/><polygon class="cls-11" points="357.02 308.63 375.22 308.63 375.22 323.63 357.02 323.63 357.02 308.63"/><polygon class="cls-11" points="384.42 266.73 388.92 266.73 388.92 276.33 384.42 276.33 384.42 266.73"/><path class="cls-1" d="M357.92,309.73a1.21,1.21,0,0,1-1.3,1.1,1.18,1.18,0,0,1-1.1-1.1v-3.2H358v3.2Z"/><path class="cls-13" d="M360.32,309.73a1.21,1.21,0,0,1-1.3,1.1,1.18,1.18,0,0,1-1.1-1.1v-3.2h2.5v3.2Z"/><path class="cls-1" d="M362.82,309.73a1.2,1.2,0,0,1-2.4,0v-3.2h2.5l-.1,3.2Z"/><path class="cls-13" d="M365.32,309.73a1.21,1.21,0,0,1-1.3,1.1,1.18,1.18,0,0,1-1.1-1.1v-3.2h2.5v3.2Z"/><path class="cls-1" d="M367.82,309.73a1.21,1.21,0,0,1-1.3,1.1,1.18,1.18,0,0,1-1.1-1.1v-3.2h2.5v3.2Z"/><path class="cls-13" d="M370.22,309.73a1.2,1.2,0,1,1-2.4,0v-3.2h2.5l-.1,3.2Z"/><path class="cls-1" d="M372.72,309.73a1.21,1.21,0,0,1-1.3,1.1,1.18,1.18,0,0,1-1.1-1.1v-3.2h2.5v3.2Z"/><path class="cls-13" d="M375.22,309.73a1.21,1.21,0,0,1-1.3,1.1,1.18,1.18,0,0,1-1.1-1.1v-3.2h2.5v3.2Z"/><path class="cls-14" d="M359.82,306.53a.55.55,0,0,1,1.1-.1v3.3h0c0,.2.1.3.2.5a.76.76,0,0,0,.5.2h0a.68.68,0,0,0,.7-.7h0v-3.2a.47.47,0,0,1,.5-.5.54.54,0,0,1,.5.5v3.2h0a.68.68,0,0,0,.7.7h0a.68.68,0,0,0,.7-.7h0v-3.2a.5.5,0,0,1,1,0h0v3.2h0a.76.76,0,0,0,.2.5h0a.76.76,0,0,0,.5.2h0a.68.68,0,0,0,.7-.7h0v-3.2a.5.5,0,0,1,1,0v3.2h0c0,.2.1.3.2.5h0a.76.76,0,0,0,.5.2h0a.68.68,0,0,0,.7-.7h0v-3.2a.55.55,0,0,1,1.1-.1v3.3h0c0,.2.1.3.2.5h0a.76.76,0,0,0,.5.2h0a.68.68,0,0,0,.7-.7h0v-3.2a.47.47,0,0,1,.5-.5.54.54,0,0,1,.5.5v3.2h0c0,.2.1.3.2.5h0a.76.76,0,0,0,.5.2h0a.68.68,0,0,0,.7-.7h0a.47.47,0,0,1,.5-.5h0a.47.47,0,0,1,.5.5h0a1.86,1.86,0,0,1-1.8,1.8h0a1.66,1.66,0,0,1-1.2-.5,1.85,1.85,0,0,1-1.2.5h0a1.66,1.66,0,0,1-1.2-.5,1.85,1.85,0,0,1-1.2.5h0a1.66,1.66,0,0,1-1.2-.5,1.85,1.85,0,0,1-1.2.5h0a1.75,1.75,0,0,0-2.5,0h0a1.66,1.66,0,0,1-1.2-.5,1.85,1.85,0,0,1-1.2.5h0a1.66,1.66,0,0,1-1.2-.5,1.85,1.85,0,0,1-1.2.5h0a1.75,1.75,0,0,0-2.5,0h0a2.11,2.11,0,0,1-1.3-.5h0a1.85,1.85,0,0,1-.5-1.2.54.54,0,0,1,.5-.5.47.47,0,0,1,.5.5h0a.76.76,0,0,0,.2.5h0a.76.76,0,0,0,.5.2h0a.68.68,0,0,0,.7-.7h0v-3.2a.5.5,0,0,1,1,0v3.2h0c0,.2.1.3.2.5h0a.76.76,0,0,0,.5.2h0a.68.68,0,0,0,.7-.7h0l.2-3.3Z"/><path class="cls-14" d="M375.72,325.63a.54.54,0,0,1-.5.5.47.47,0,0,1-.5-.5h0v-1.5H356v1.5a.47.47,0,0,1-.5.5h0a.47.47,0,0,1-.5-.5v-2h0v-4.4h0v-12.7a.47.47,0,0,1,.5-.5h19.8a.47.47,0,0,1,.5.5l-.1,19.1Zm12.6-1.5h-5v1.5a.47.47,0,0,1-.5.5h0a.47.47,0,0,1-.5-.5v-19.1a.47.47,0,0,1,.5-.5h6.1a.54.54,0,0,1,.5.5v19.1a.5.5,0,0,1-1,0l-.1-1.5Zm-5-1h5v-3.4h-5v3.4Zm0-4.5h5V307h-5v11.6Zm-31.3-64h-2.9v2.2H352Zm-2.9-1.1H352v-16.4h-2.9v16.4Zm-1.1,3.3v-20.3a.54.54,0,0,1,.5-.5h4a.47.47,0,0,1,.5.5h0v2.8h38v-2.8a.47.47,0,0,1,.5-.5h4a.47.47,0,0,1,.5.5v20.3h.4a.47.47,0,0,1,.5.5h0v2.8a.47.47,0,0,1-.5.5H396v1.3h0v36.9h.4a.47.47,0,0,1,.5.5h0v2.8a.47.47,0,0,1-.5.5H396v22.8a.54.54,0,0,1-.5.5.47.47,0,0,1-.5-.5h0v-22.8H349v22.8a.47.47,0,0,1-.5.5h0a.47.47,0,0,1-.5-.5v-22.8h-.4a.47.47,0,0,1-.5-.5h0v-2.8a.47.47,0,0,1,.5-.5h.4v-38.1h-.4a.47.47,0,0,1-.5-.5h0v-2.8a.47.47,0,0,1,.5-.5h0Zm5.1-16.4v16.4h7.8V254a.51.51,0,0,1,.4-.5l10.6-4.8a.45.45,0,0,1,.5,0h0l10.7,4.8a.55.55,0,0,1,.3.5h0v2.8h7.8v-16.4Zm39.1,13.1h2.9v-16.4h-2.9v16.4Zm3,1.1h-2.9v2.2h2.9Zm-12.9,2.2v-2.4l-10.1-4.6-10.1,4.6v2.4Zm1,14.6h5v-6.3h-5Zm5,1.1h-5v3.2h5v-3.2Zm.6,4.3h-6.1a.47.47,0,0,1-.5-.5v-11.7a.54.54,0,0,1,.5-.5h6.1a.47.47,0,0,1,.5.5h0v11.7a.47.47,0,0,1-.5.5Zm-19.3-5.4h5v-6.3h-5Zm5,1.1h-5v3.2h5v-3.2Zm.6,4.3h-6.1a.47.47,0,0,1-.5-.5v-11.7a.54.54,0,0,1,.5-.5h6.1a.47.47,0,0,1,.5.5v11.7a.47.47,0,0,1-.5.5Zm-19.3-5.4h5v-6.3h-5Zm5,1.1h-5v3.2h5v-3.2Zm.6,4.3h-6.1a.47.47,0,0,1-.5-.5v-11.7a.54.54,0,0,1,.5-.5h6.1a.47.47,0,0,1,.5.5v11.7a.47.47,0,0,1-.5.5Zm23.3,6.7h-2.4l.2,1.5h6.5l.2-1.5H387a.47.47,0,0,1-.5-.5h0v-.3h-1.1v.3c-.1.3-.3.6-.6.5Zm-2.5,2.6h-.1a.47.47,0,0,1-.5-.5l-.4-2.5V283a.47.47,0,0,1,.5-.5h2.5v-.3a.47.47,0,0,1,.5-.5H387a.47.47,0,0,1,.5.5h0v.3H390a.47.47,0,0,1,.5.5h0v.1l-.4,2.5a.54.54,0,0,1-.5.5h-.2v11.1a.47.47,0,0,1-.5.5h-6.1a.47.47,0,0,1-.5-.5v-11.1Zm1.1,6.2h5V286h-5Zm5,1.1h-5v3.3h5v-3.3Zm-18.7-1.1h5V286h-5Zm5,1.1h-5v3.3h5v-3.3Zm.5,4.3h-6.1a.47.47,0,0,1-.5-.5v-11.1h-.1a.47.47,0,0,1-.5-.5l-.4-2.5V283a.47.47,0,0,1,.5-.5h2.5v-.3a.47.47,0,0,1,.5-.5h2.4a.47.47,0,0,1,.5.5h0v.3h2.3a.47.47,0,0,1,.5.5h0v.1l-.4,2.5a.54.54,0,0,1-.5.5h-.1v11.1a.63.63,0,0,1-.6.5Zm-6.1-12.7h6.3l.2-1.5h-2.2a.47.47,0,0,1-.5-.5v-.3h-1.3v.3a.47.47,0,0,1-.5.5h-2.4l.2,1.5Zm-13.2,11.7h5v-3.3h-5Zm5-4.3v-6.3h-5v6.3Zm-3-9.4a.47.47,0,0,1-.5.5H355l.2,1.5h6.5l.2-1.5h-2.4a.47.47,0,0,1-.5-.5v-.3h-1.1v.3Zm-3,3.1h-.1a.47.47,0,0,1-.5-.5l-.4-2.5V283a.47.47,0,0,1,.5-.5h2.5v-.3a.47.47,0,0,1,.5-.5h2.2a.47.47,0,0,1,.5.5h0v.3h2.5a.47.47,0,0,1,.5.5h0v.1l-.4,2.5a.54.54,0,0,1-.5.5H362v11.1a.54.54,0,0,1-.5.5h-6.1a.47.47,0,0,1-.5-.5v-11.1Zm40.3-23.5h-46.1V299h46l.1-36.4Zm-46.1-1.1h46v-.8H349l.1.8Zm-1-1.8h48V258h-48Zm0,42.1h48v-1.7h-48v1.7Zm22.2,21.3v-3.4h-10.1V323Zm0-4.4v-8a.5.5,0,0,1,1,0v7.9h3.2V307h-18.7v11.6H359v-7.9a.47.47,0,0,1,.5-.5h0a.47.47,0,0,1,.5.5v7.9Zm1.1,1.1v3.3h3.2v-3.4Zm-12.3,3.3v-3.4h-3.2V323Z"/><path class="cls-3" d="M259.52,231.13h85.8c8.3,0,15,8.4,15,18.7h0c0,10.3-6.7,18.7-15,18.7h-85.8c-8.3,0-15-8.4-15-18.7h0C244.62,239.53,251.32,231.13,259.52,231.13Z"/><path class="cls-18" d="M278.52,259.43h-14.4v-15.1l14.4,5.4Z"/><path class="cls-1" d="M283.52,259.43h-14.1v-18.3l14.1-5.1Z"/><path class="cls-19" d="M269.52,246.33l9,3.4v9.7h-9Z"/><path class="cls-5" d="M297.82,244.33h2.9v15.1h-2.9v-9.5h-.1l-4.8,9.5H290v-15.1h2.9v9.5h.1Z"/><path class="cls-5" d="M309.62,255.53h0l2.9-11.2h3.8v15.1h-2.9v-9.5h-.1l-2.7,9.5h-2l-2.7-9.4h-.1v9.4h-2.9v-15.1h3.8Z"/><path class="cls-5" d="M329.52,244.33v15.1h-2.9v-12.8h-3.3v4.5c0,2.9-.4,5.1-1.2,6.4a4,4,0,0,1-3.7,1.9H318v-2.3h.4a1.54,1.54,0,0,0,1.6-1.2,25.92,25.92,0,0,0,.4-4.8v-6.8Z"/><path class="cls-5" d="M341.72,254.73h0a4.28,4.28,0,0,1-4.9,4.9,5.25,5.25,0,0,1-3.9-1.4,5.57,5.57,0,0,1-1.4-4.1v-4.5a5.57,5.57,0,0,1,1.4-4.1,4.68,4.68,0,0,1,3.7-1.4,5.27,5.27,0,0,1,3.8,1.2,4.88,4.88,0,0,1,1.3,3.6v.1h-2.8a2.88,2.88,0,0,0-.5-2,2.72,2.72,0,0,0-1.7-.6,1.94,1.94,0,0,0-1.6.8,4,4,0,0,0-.5,2.4v4.5a3.35,3.35,0,0,0,.6,2.4,2.34,2.34,0,0,0,1.8.8,1.91,1.91,0,0,0,1.6-.6,3.51,3.51,0,0,0,.5-2Z"/><path class="cls-9" d="M186.76,298.5c-13.6.2-10.24,0-23.84-.6l-2.42-.1,4.47-6.9c.8-1.3.07-4.4-.81-3.2l-7.31,10.1a2.71,2.71,0,0,0-.37,1.7,3.62,3.62,0,0,0,.15,3c3,3.7,6,7.4,9.07,11,1,1.1,1.75-2.1.8-3.3-2.49-3-4.9-6-7.39-8.9,12.95.6,9,.9,21.95.8C194.66,302.1,200.36,298.3,186.76,298.5Z"/><path class="cls-9" d="M426.16,307c14.13-.2,10.63,0,24.76.6l2.58.1-4.63,6.9c-.83,1.3-.08,4.4.84,3.2l7.59-10.1a2.59,2.59,0,0,0,.38-1.7,3.25,3.25,0,0,0-.15-2.9c-3.11-3.7-6.23-7.4-9.42-11-1-1.1-1.82,2.1-.83,3.2l7.67,8.9c-13.45-.6-9.35-.9-22.79-.8C418,303.4,412.11,307.2,426.16,307Z"/><path class="cls-9" d="M232.6,203.8c-17.8-17.4-13.4-13.2-30.6-31.2l-3.1-3.3,10.7,1c2,.2,3.2-3,1.2-3.3l-16.7-2.5a1.81,1.81,0,0,0-1.7.7,2.1,2.1,0,0,0-1.9,2.2c1.3,6.5,2.6,13,4,19.5.4,2,3.8.7,3.4-1.2l-3.3-15.9c16.4,17.2,11.1,12.3,28,29.1C240.3,216.5,250.4,221.3,232.6,203.8Z"/><path class="cls-9" d="M388.7,208.2c17.8-17.4,13.4-13.2,30.6-31.3l3.1-3.3-10.7.9c-2,.2-3.2-3-1.2-3.3l16.7-2.4a1.81,1.81,0,0,1,1.7.7,2.1,2.1,0,0,1,1.9,2.2c-1.3,6.5-2.6,13-4,19.5-.4,2-3.8.7-3.4-1.2l3.3-15.9c-16.4,17.2-11.1,12.3-28,29.1C381,220.9,370.9,225.6,388.7,208.2Z"/><path class="cls-9" d="M378.4,413c17.7,17.3,13.3,13.1,30.3,31l3.1,3.2-10.6-.9c-2-.2-3.2,3-1.2,3.2l16.6,2.3a1.9,1.9,0,0,0,1.7-.7,2.1,2.1,0,0,0,1.9-2.2c-1.3-6.5-2.6-12.9-3.9-19.4-.4-2-3.7-.7-3.3,1.2,1.1,5.3,2.2,10.5,3.2,15.8-16.3-17.1-11-12.2-27.8-28.8C370.7,400.4,360.7,395.7,378.4,413Z"/><path class="cls-9" d="M225,401.7c-17.7,17.3-13.3,13.1-30.3,31-1,1.1-2.1,2.1-3.1,3.2l10.6-.9c2-.2,3.2,3,1.2,3.2l-16.6,2.3a1.9,1.9,0,0,1-1.7-.7,2.1,2.1,0,0,1-1.9-2.2c1.3-6.5,2.6-12.9,3.9-19.4.4-2,3.7-.7,3.3,1.2-1.1,5.3-2.2,10.5-3.2,15.8,16.3-17.1,11-12.2,27.8-28.8C232.6,389.1,242.6,384.5,225,401.7Z"/><rect x="191.67" y="27.56" width="4.24" height="15.51"/><polygon points="185.67 27.56 181.52 38.85 177.38 27.56 173.14 27.56 178.84 43.07 179.97 43.07 183.07 43.07 184.2 43.07 189.9 27.56 185.67 27.56"/><path d="M210.85,31V27.56h-5.07V23.28h-4.23v4.28H198.2V31h3.35v6.67c0,3.44,1.72,5.74,6.11,5.74a9.33,9.33,0,0,0,3.19-.62l-.51-3.35a7.17,7.17,0,0,1-1.86.25c-1.25,0-2.7-.54-2.7-2.28V31Z"/><path d="M170,43.07h4.51l-8.35-22.72h-3.27l-8.34,22.72H159l1.59-4.33h7.76Zm-8.1-7.76,2.63-7.14,2.62,7.14Z"/><path d="M220.56,27.16a8.13,8.13,0,1,0,8.31,8.13,8.22,8.22,0,0,0-8.31-8.13m0,12.36a4.18,4.18,0,1,1,4.27-4.17,4.22,4.22,0,0,1-4.27,4.17"/><path d="M196.52,23a2.73,2.73,0,1,1-2.73-2.72A2.73,2.73,0,0,1,196.52,23"/><path class="cls-20" d="M129.56,22.78a7.14,7.14,0,1,1-7.13-7.13,7.13,7.13,0,0,1,7.13,7.13"/><path class="cls-21" d="M147.4,39.08a8.68,8.68,0,1,1-8.67-8.68,8.68,8.68,0,0,1,8.67,8.68"/><path class="cls-22" d="M144.31,22.78a5.59,5.59,0,1,1-5.58-5.59,5.58,5.58,0,0,1,5.58,5.59"/><path class="cls-23" d="M126.47,39.08a4,4,0,1,1-4-4,4,4,0,0,1,4,4"/><path class="cls-24" d="M29.2,99A15,15,0,0,1,32.48,99a4.83,4.83,0,0,1,2.67,6.8c-1.36,2.42-2.71,4.84-4.12,7.23-.32-.14-.45-.5-.63-.77-1.15-2.07-2.34-4.11-3.51-6.17a4.91,4.91,0,0,1-.26-4.63A4.79,4.79,0,0,1,29.2,99Zm1.3,2.38a2.15,2.15,0,1,0,2.35,3.11A2.17,2.17,0,0,0,30.5,101.41Z"/><path class="cls-24" d="M25.28,114.07c1.39,1.12,2.51,2.54,3.84,3.73,0-1.14,0-2.28,0-3.42,1.2,0,2.4,0,3.59,0,.06,2.31-.09,4.63.07,6.94a28.29,28.29,0,0,0,3,3.18,49.71,49.71,0,0,0-3.69,3.86h-.33l0-.16a11.13,11.13,0,0,0-1.59-1.7c-1.62-1.64-3.26-3.26-4.86-4.93-2.22,2.28-4.55,4.46-6.7,6.79h-.15a26.55,26.55,0,0,0-3.69-3.73v-.36l.16,0a17.75,17.75,0,0,0,2.08-2C19.79,119.55,22.47,116.73,25.28,114.07Z"/><path class="cls-25" d="M63.9,127.91c2.58-4.63,5-9.33,7.66-13.94a20.76,20.76,0,0,1,1.51,2.48c2.18,3.75,4.15,7.62,6.17,11.45H75.37l-.9-1.94c-1.86,0-3.73,0-5.59,0-.64.38-.59,1.42-1.17,1.89C66.44,128,65.17,127.88,63.9,127.91Zm6-4.58h3.23c-.52-1.16-1-2.31-1.62-3.44C71,121.05,70.46,122.18,69.94,123.33Z"/><path class="cls-25" d="M81.43,113.88c3.17,2.54,6.24,5.21,9.4,7.77,0-2.42,0-4.84,0-7.26,1.08,0,2.16,0,3.23,0,0,4.62,0,9.24,0,13.86a18.61,18.61,0,0,1-2.39-1.76l-7-5.57c0,2.33,0,4.65,0,7H81.41C81.42,123.23,81.4,118.55,81.43,113.88Z"/><path class="cls-25" d="M44.44,116.35a8.25,8.25,0,0,1,11-.22c-.59.83-1.18,1.66-1.76,2.5-1.41-.94-3.12-1.74-4.85-1.29a3.72,3.72,0,0,0-2.68,4,4,4,0,0,0,3.06,3.76A7.23,7.23,0,0,0,54.11,124l1.53,2.26a9.43,9.43,0,0,1-5,2.1H49a8,8,0,0,1-3.7-1.33A7.26,7.26,0,0,1,44.44,116.35Z"/><path class="cls-25" d="M58.33,114.39c1.19,0,2.39,0,3.59,0,0,4.52,0,9,0,13.56h-3.6C58.35,123.43,58.34,118.91,58.33,114.39Z"/><path class="cls-25" d="M102.8,114.39c2.35.09,4.73-.2,7,.25,1.83.38,3.74,1.57,4.07,3.55a4.3,4.3,0,0,1-2.39,4.76c1,1.63,1.83,3.3,2.76,4.94-1.3,0-2.6,0-3.9,0-.71-1.33-1.46-2.64-2.18-4-.6,0-1.2.12-1.8.2,0,1.27,0,2.54,0,3.81H102.8C102.8,123.43,102.79,118.91,102.8,114.39Zm3.58,2.64v4.61a6.46,6.46,0,0,0,3.49-.79,2.12,2.12,0,0,0-.41-3.54A8.6,8.6,0,0,0,106.38,117Z"/><path class="cls-25" d="M116.92,114.36h3.65c0,2.15,0,4.3,0,6.45a7.42,7.42,0,0,0,.67,3.48c.69,1.19,2.32,1.33,3.52,1,1.35-.52,1.65-2.14,1.74-3.42,0-2.48,0-5,0-7.44,1.23,0,2.45,0,3.67,0v.09c-.07,2.2,0,4.39,0,6.58a9.46,9.46,0,0,1-.88,4.2,5.51,5.51,0,0,1-4.57,2.93c-2,.19-4.3,0-5.83-1.52s-1.85-3.44-1.92-5.34C116.9,119,116.93,116.69,116.92,114.36Z"/><path class="cls-25" d="M96.78,124.93h3.27v3H96.78Z"/><path d="M52.09,48.78H50a.23.23,0,0,0-.26.26v6.4H45.78V49c0-.18-.09-.26-.27-.26h-2a.23.23,0,0,0-.26.26V65.31a.24.24,0,0,0,.26.27H45.6c.18,0,.26-.09.26-.27V57.49h3.92v7.82a.24.24,0,0,0,.26.27h2.14c.18,0,.26-.09.26-.27V49c-.08-.18-.17-.26-.35-.26Zm48,14.58c0-.09-.09-.09-.18-.09-.89,0-6.31,2.58-6.31-6,0-3.73,1.42-9,4.8-5.87a.31.31,0,0,0,.26.09c.09,0,.18-.09.27-.26l.89-1.52a.31.31,0,0,0,.09-.26c0-.18-.18-.27-.36-.36-5.87-2.93-8.89,2.49-8.89,8.8,0,8.19,6,9.34,9.34,6.85a.35.35,0,0,0,.18-.35l-.09-1.07Zm-14.59-7L89.61,49a.17.17,0,0,0-.08-.26h-2c-.62,0-.8.17-1,.62s-3.2,6.76-3.56,7V49c0-.09-.08-.26-.17-.26H80.54c-.08,0-.17.09-.17.26V65.31c0,.09.09.27.17.27h2.23c.17,0,.17-.09.17-.27V56.87c.27.18,4,7.91,4.1,8.18a1,1,0,0,0,1,.53h2.23c.17,0,.17-.09.09-.27l-4.81-9ZM66.05,63.45h-.44c-.54,0-.63-.18-.63-.62V49c0-.17-.09-.26-.18-.26H58a.24.24,0,0,0-.27.26c0,3.74.09,10-2.4,14.5h-.71a.24.24,0,0,0-.27.26V68.6a.29.29,0,0,0,.27.27h1.6a.51.51,0,0,0,.53-.53V65.58h7.21v3a.28.28,0,0,0,.26.27H66a.5.5,0,0,0,.45-.53V63.71c-.09-.17-.18-.26-.36-.26Zm-3.73,0h-5c1.42-2.31,2.75-6.05,2.75-12.63h2.22V63.45ZM73,48.33c-3.65,0-5.34,4.54-5.34,9.52,0,8.18,5.69,9.42,9.6,7,.18-.09.18-.18.18-.27l-.27-1.15c0-.09-.08-.18-.26-.18-1.42,0-6.4,2.49-6.4-5.6a53.64,53.64,0,0,0,7.11.18c-.09-4.09-.53-9.52-4.62-9.52ZM70.58,55.8c0-6.49,4.27-7.74,4.27-.18A32,32,0,0,0,70.58,55.8Z"/><path class="cls-26" d="M39.28,40.42H35.46c-3.82,0-7.11,2.84-7.11,8.36a7.29,7.29,0,0,0,4.35,7l-5.15,9.25a.32.32,0,0,0,.26.53h2.4a.49.49,0,0,0,.45-.27l4.71-9.07h1.69v9.07a.29.29,0,0,0,.27.27h2.13a.24.24,0,0,0,.27-.27V40.77C39.64,40.51,39.55,40.42,39.28,40.42ZM37.06,54.11H35.64c-6.14,0-5.69-11.56-.27-11.56h1.78V54.11Z"/><path d="M22.43,75.22V79.4h3.25V75.22h.83v9.24h-.83V80.13H22.43v4.33H21.6V75.22Z"/><path d="M29.17,79.5c0,3.71,1.28,4.35,2.32,4.35a2.5,2.5,0,0,0,1.39-.37l.19.64a3.24,3.24,0,0,1-1.73.46c-2,0-3-1.91-3-4.7s1.06-4.81,2.75-4.81S33.4,77.32,33.4,79v.54Zm3.34-.68c0-2.27-.9-3-1.57-3-1.08,0-1.66,1.54-1.76,3Z"/><path d="M39.9,75.22v8.51h.74l-.08,3.14H39.9l-.07-2.41h-5l-.07,2.41h-.66l-.08-3.14h.52a8.55,8.55,0,0,0,1-2A11.86,11.86,0,0,0,36.06,78V75.22Zm-3.09,2.45a13.89,13.89,0,0,1-.5,4.19,8.36,8.36,0,0,1-.85,1.87h3.62V76H36.81Z"/><path d="M42.37,75.24a9.66,9.66,0,0,1,1.69-.17c1.46,0,3,.54,3,2.27a2.34,2.34,0,0,1-1.87,2.23v0A2.41,2.41,0,0,1,47.49,82c0,2-1.76,2.62-3.47,2.62a11.21,11.21,0,0,1-1.65-.1Zm.82,8.61a7.64,7.64,0,0,0,.83.05c1.31,0,2.6-.44,2.6-1.92s-1.48-2-2.77-2h-.66Zm0-4.58H44c.92,0,2.3-.7,2.3-1.83,0-1.29-1.07-1.64-2.21-1.64a5.83,5.83,0,0,0-.83.08Z"/><path d="M50.07,75.22v3.91c0,1.54,0,2.77-.1,4.54h0c.48-1.38,1.09-2.88,1.58-4.15l1.63-4.3h1v9.24h-.79V80.79c0-2.08,0-3.2.14-4.74h0c-.37,1.27-.83,2.47-1.25,3.56-.33.85-1.25,3.12-2,4.85h-1V75.22Z"/><path d="M56.74,75.22l2.77,4.24h.27V75.22h.79v4.24h.29l2.75-4.24h1l-3,4.3A3,3,0,0,1,64,82.08a13.76,13.76,0,0,0,.73,2.38h-.83a9.44,9.44,0,0,1-.65-1.92c-.52-2-1.37-2.45-2.56-2.45h-.14v4.37h-.79V80.09h-.13c-1.71,0-2,.68-2.62,2.58a10.08,10.08,0,0,1-.61,1.79h-.81a16.87,16.87,0,0,0,.73-2.27c.4-1.35,1.08-2.48,2.44-2.67l-3-4.3Z"/><path d="M66.89,75.22v3.91c0,1.54,0,2.77-.1,4.54h0c.48-1.38,1.09-2.88,1.58-4.15L70,75.22h1v9.24h-.79V80.79c0-2.08,0-3.2.14-4.74h0c-.37,1.27-.83,2.47-1.25,3.56-.33.85-1.25,3.12-2,4.85h-1V75.22Z"/><path d="M73.64,75.22h.91L76.09,80c.4,1.25.65,2,1,3.1h0c.32-1.2.52-1.81.92-3.1l1.5-4.76h.94l.66,9.24H80.3L80.07,80c-.08-1.43-.12-2.22-.16-3.87h0c-.27,1.06-.58,2.08-1,3.39l-1.58,4.92h-.5l-1.5-4.65c-.47-1.45-.77-2.45-1.06-3.66h-.06c0,1.19-.06,2.42-.13,4l-.22,4.33H73Z"/><path d="M88,79.84c0,3.41-1.37,4.78-2.79,4.78s-2.68-1.37-2.68-4.78,1.37-4.77,2.81-4.77S88,76.44,88,79.84Zm-4.6,0c0,1.5.29,4,1.89,4s1.84-2.54,1.84-4-.29-4-1.88-4S83.38,78.34,83.38,79.84Z"/><path d="M93.91,84.19a2.86,2.86,0,0,1-1.5.39c-1.81,0-3.08-1.64-3.08-4.72,0-2.52,1.13-4.79,3.29-4.79a2.62,2.62,0,0,1,1.27.33l-.27.73a2.23,2.23,0,0,0-1.14-.31c-1.65,0-2.29,2.16-2.29,4.1,0,2.46.91,3.93,2.37,3.93a2.39,2.39,0,0,0,1.15-.29Z"/><path d="M99.89,75.22V76H97.75v8.5h-.82V76H94.79v-.74Z"/><path d="M101.85,75.22v3.47c.37,0,.64-.06.85-.06,1.81,0,3.37.91,3.37,2.87a2.76,2.76,0,0,1-.93,2.17,3.79,3.79,0,0,1-2.55.89,10.28,10.28,0,0,1-1.56-.14v-9.2Zm0,8.55a4.84,4.84,0,0,0,.75.06c1.43,0,2.58-.73,2.58-2.27s-1.21-2.22-2.65-2.22a3.51,3.51,0,0,0-.68.06Z"/><path d="M219.9,133.11c-.66,1.24-1.55,1.15-2.53,1.15v4.12a10.81,10.81,0,0,0,2,.17,4.72,4.72,0,0,0,4.57-3c1-2.17,1.15-6.2,1.63-10.58h4.74v13.2h4.57V121H221.45C220.92,126.68,220.61,131.73,219.9,133.11Z"/><path d="M208.21,120.57a8.08,8.08,0,0,0-8.24,7h-2.35V121h-4.56v17.14h4.56v-6.6H200a8,8,0,0,0,8.24,7c5,0,8.37-3.63,8.37-9S213.12,120.57,208.21,120.57Zm0,13.82c-2.35,0-4-1.86-4-4.87s1.6-4.87,4-4.87,3.94,1.86,3.94,4.87S210.55,134.39,208.21,134.39Z"/><path d="M245.5,120.57a21.46,21.46,0,0,0-6.46.93v4.08a18.29,18.29,0,0,1,5.84-.93c3.77,0,4.17,1.9,4.17,2.79v.31a26.36,26.36,0,0,0-3.81-.31c-6.29,0-7.62,3.27-7.62,5.53s1.42,5.54,6.38,5.54a7,7,0,0,0,5.27-2.21h.18v1.77h4.16V128.5C253.61,125.49,252.94,120.57,245.5,120.57Zm3.59,12.27a4.76,4.76,0,0,1-3.94,1.82c-1.73,0-2.53-.76-2.53-1.86s.89-2.09,3.95-2.09h2.57v2.13Z"/><path class="cls-27" d="M169.23,137.76a25.32,25.32,0,0,1,16.12-16.13,1,1,0,0,0,.62-1.24.88.88,0,0,0-.62-.62,25,25,0,0,1-16.12-16.12A1,1,0,0,0,168,103a.87.87,0,0,0-.62.62,25.23,25.23,0,0,1-16.13,16.12,1,1,0,0,0-.62,1.24.88.88,0,0,0,.62.62,25.22,25.22,0,0,1,16.13,16.13,1,1,0,0,0,1.24.62A1.11,1.11,0,0,0,169.23,137.76Z"/><path class="cls-28" d="M151.24,121.63a25.22,25.22,0,0,1,16.13,16.13,1,1,0,0,0,1.24.62.88.88,0,0,0,.62-.62,25.32,25.32,0,0,1,16.12-16.13c-3.63,1.2-9.75,2.13-17,2.13S154.83,122.83,151.24,121.63Z"/><path class="cls-29" d="M153.5,61.38c.13-.08.29-.17.43-.06q7,4.21,13.94,8.43c.07,2.37,0,4.74,0,7.1h-5c0-1.39,0-2.79,0-4.18-.2-.14-.4-.28-.6-.4l-7.93-4.77c-.2-.12-.4-.22-.6-.33-2.55,1.5-5.07,3-7.61,4.57-.49.3-1,.58-1.47.91,0,4.42,0,8.84,0,13.26a8.87,8.87,0,0,0,1.46,0h7.63V91c-4.7,0-9.41,0-14.12,0,0-5.67,0-11.33,0-17,0-1.42,0-2.84,0-4.26Z"/><path class="cls-30" d="M224.85,71.56c1.37,0,2.74,0,4.11,0-1.19,1.07-2.27,2.25-3.42,3.37s-2.4,2.39-3.59,3.59c2.33,2.3,4.62,4.64,7,6.92-1.31,0-2.63,0-3.94,0-.2,0-.31-.19-.44-.29-1.79-1.83-3.63-3.61-5.41-5.44,0,1.91,0,3.82,0,5.73h-3.1c0-4.62,0-9.25,0-13.87,1,0,2.08,0,3.11,0,0,1.92,0,3.83,0,5.75C221,75.36,223,73.48,224.85,71.56Z"/><path class="cls-30" d="M176,71.56c3.37,0,6.74,0,10.11,0,0,3.67,0,7.34,0,11H188c0,1.61,0,3.22,0,4.83-1,0-1.92,0-2.88,0,0-.64,0-1.29,0-1.93h-9.46c0,.64,0,1.29,0,1.93-1,0-1.89,0-2.84,0V82.54h1.64a12.39,12.39,0,0,0,1.25-3.36,15.38,15.38,0,0,0,.24-2.87ZM179,74.62c0,1.13,0,2.26-.07,3.39a15.62,15.62,0,0,1-1.07,4.56H183V74.62Z"/><path class="cls-30" d="M193.34,75.05a5.44,5.44,0,0,1,4.19.8,5.64,5.64,0,0,1,2.15,3.1,5.31,5.31,0,0,1-1,4.58,5.39,5.39,0,0,1-3.28,2,5.45,5.45,0,0,1-4.59-1.4,5.58,5.58,0,0,1-1.65-3.87,5.88,5.88,0,0,1,.82-2.8A5.2,5.2,0,0,1,193.34,75.05Zm.41,2.64A2.72,2.72,0,0,0,192,79.41a2.65,2.65,0,1,0,1.76-1.72Z"/><path class="cls-30" d="M201.93,85.41c0-3.43,0-6.87,0-10.31q1.26,0,2.52,0l3.22,3.27c1.07-1.09,2.16-2.18,3.24-3.26h2.5c0,3.43,0,6.87,0,10.3-1,0-1.92,0-2.88,0,0-1.89,0-3.78,0-5.68-.94,1-1.93,2-2.88,2.94-1-1-1.94-1.93-2.9-2.91,0,1.88,0,3.76,0,5.64C203.83,85.41,202.88,85.39,201.93,85.41Z"/><path class="cls-30" d="M231.85,75.1c2.91,0,5.83,0,8.74,0,0,3.44,0,6.88,0,10.31-.95,0-1.89,0-2.84,0V78c-1,0-2,0-3,0,0,1.82.16,3.74-.73,5.4a4.53,4.53,0,0,1-4,2.22l0-2.51a2.13,2.13,0,0,0,1.53-.93,5.54,5.54,0,0,0,.39-2.71C231.85,78,231.87,76.54,231.85,75.1Z"/><path class="cls-30" d="M243.23,75.14h2.87v5.61c1.52-1.88,3.07-3.74,4.59-5.61h2.45v10.3h-2.87c0-1.87,0-3.74,0-5.62-1.52,1.88-3.07,3.74-4.59,5.62h-2.45Z"/><path class="cls-30" d="M255.78,75.14h2.87c0,1.36,0,2.71,0,4.07,1.32-1.38,2.69-2.71,4-4.07h3.77c-1.72,1.71-3.42,3.45-5.16,5.15,1.74,1.7,3.44,3.43,5.16,5.15h-3.75c-1.34-1.36-2.72-2.7-4.05-4.07,0,1.35,0,2.71,0,4.07h-2.87Z"/><path class="cls-31" d="M153.77,76.85h14.12c-1.27,1.37-2.63,2.66-3.93,4-.37.37-.73.74-1.1,1.09-1.35,0-2.7,0-4.05,0,0,1.34,0,2.68,0,4-1.07,1.16-2.22,2.23-3.32,3.36-.58.57-1.13,1.17-1.74,1.72V86C153.77,82.92,153.76,79.89,153.77,76.85Z"/><path d="M446.58,54.83h-1.89c-.16,0-.24.07-.24.23v5.68H441V55.06c0-.16-.08-.23-.24-.23h-1.81c-.16,0-.24.07-.24.23V69.5a.21.21,0,0,0,.24.24h1.89a.21.21,0,0,0,.24-.24V62.56h3.47V69.5a.21.21,0,0,0,.24.24h1.89a.21.21,0,0,0,.24-.24V55.06c-.08-.16-.16-.23-.32-.23ZM489.2,67.77c0-.08-.08-.08-.16-.08-.79,0-5.6,2.29-5.6-5.29,0-3.31,1.26-8,4.26-5.21a.29.29,0,0,0,.24.08c.07,0,.15-.08.23-.23l.79-1.35a.27.27,0,0,0,.08-.23c0-.16-.16-.24-.32-.32-5.2-2.6-7.89,2.21-7.89,7.81,0,7.26,5.29,8.29,8.29,6.08a.31.31,0,0,0,.16-.31l-.08-1Zm-12.94-6.24L479.89,55c.07-.08,0-.23-.08-.23H478c-.55,0-.71.15-.87.55s-2.84,6-3.15,6.23V55c0-.08-.08-.23-.16-.23h-2c-.08,0-.16.08-.16.23V69.5c0,.08.08.24.16.24h2c.16,0,.16-.08.16-.24V62c.23.15,3.55,7,3.63,7.26a.9.9,0,0,0,.87.47h2c.16,0,.16-.08.08-.24l-4.26-8ZM459,67.85h-.39c-.48,0-.55-.16-.55-.56V55c0-.15-.08-.23-.16-.23h-6.08a.21.21,0,0,0-.24.23c0,3.32.08,8.84-2.13,12.87h-.63a.2.2,0,0,0-.23.23v4.34a.25.25,0,0,0,.23.24h1.42a.46.46,0,0,0,.48-.47V69.74h6.39v2.68a.26.26,0,0,0,.24.24h1.57a.45.45,0,0,0,.4-.47V68.08c-.08-.15-.16-.23-.32-.23Zm-3.31,0h-4.42c1.26-2,2.45-5.37,2.45-11.21h2V67.85Zm9.47-13.42c-3.24,0-4.74,4-4.74,8.45,0,7.26,5.05,8.36,8.53,6.23a.23.23,0,0,0,.15-.24l-.23-1c0-.08-.08-.16-.24-.16-1.26,0-5.68,2.21-5.68-5a47.71,47.71,0,0,0,6.31.16c-.08-3.63-.47-8.45-4.1-8.45ZM463,61.06c0-5.76,3.79-6.87,3.79-.16A28.19,28.19,0,0,0,463,61.06Z"/><path class="cls-26" d="M435.22,47.41h-3.39c-3.4,0-6.32,2.52-6.32,7.42a6.46,6.46,0,0,0,3.87,6.23l-4.58,8.21a.29.29,0,0,0,.24.47h2.13a.43.43,0,0,0,.39-.24l4.19-8h1.5v8a.25.25,0,0,0,.23.24h1.9a.21.21,0,0,0,.23-.24V47.72C435.53,47.49,435.46,47.41,435.22,47.41Zm-2,12.15H432c-5.44,0-5.05-10.26-.23-10.26h1.57V59.56Z"/><g id="Rambler"><g id="fun"><g id="rambler_ru" data-name="rambler ru"><path id="logo" class="cls-32" d="M421,99a2.06,2.06,0,0,1-2.1-2.25A1.94,1.94,0,0,1,421,94.62a2,2,0,0,1,2,2.16A2,2,0,0,1,421,99Zm.2-6.23a3.71,3.71,0,0,0-2.08.66c.06-.26.3-2.34,3.22-2.34h1.8l.67-1.75h-2.44c-3.22,0-5.67,1.43-5.67,6.43,0,2.75,1.23,4.94,4.23,4.94a4,4,0,0,0,4.27-4A3.83,3.83,0,0,0,421.15,92.72Zm-29.24,2h-1.12V91.17h1.15c.82,0,2.13.48,2.13,1.76S392.76,94.68,391.91,94.68Zm.19-5.39h-3.63v11.19h2.32V96.54h1.26c2.37,0,4.36-1.22,4.36-3.62S394.42,89.29,392.1,89.29Zm38.5,3.43,3,7.76h-2.41l-1.72-5h0l-1.72,5h-2.4l3-7.76Zm30.29-3.43-5.69,14.88h-2.32l5.69-14.88Zm-47.56,3.43h1.92v7.76H413V95.93l-2.18,2.74h-.61l-.05-.06L408,96v4.51h-2.25V92.72h1.92l.05.06L410.54,96Zm-11.49,4.53A1.65,1.65,0,0,1,400,99c-1.15,0-1.25-.65-1.25-.9,0-.58.54-1,1.83-1.07.36,0,.72,0,1.08,0h.15Zm2.1-.85V96c-.11-2.42-1.18-3.41-3.48-3.41a5.08,5.08,0,0,0-2.92.86l.6,1.58a3.8,3.8,0,0,1,2.15-.77c1.69,0,1.52,1.34,1.52,1.34-.58,0-5.18-.22-5.18,2.65,0,1.59,1.37,2.46,2.91,2.46a3.14,3.14,0,0,0,2.34-.91s.05.73.05.73H404a16.14,16.14,0,0,1-.08-1.73ZM447.55,99a2.37,2.37,0,0,1,0-4.73,2.37,2.37,0,0,1,0,4.73Zm.28-6.41a3.51,3.51,0,0,0-2.55,1v-.84h-2.17v11.45h2.25V99.72a3.6,3.6,0,0,0,2.47.94,4.06,4.06,0,0,0,0-8.12Zm-11.9,3.19a1.92,1.92,0,0,1,2-1.57,1.64,1.64,0,0,1,1.8,1.57Zm2-3.19a4.06,4.06,0,1,0,.08,8.12,4.34,4.34,0,0,0,3.66-1.75L440,97.85a2.26,2.26,0,0,1-2,1.1,2,2,0,0,1-2.1-1.7h5.93s0-.34,0-.43v-.27A3.76,3.76,0,0,0,437.91,92.54Z"/></g></g></g><path class="cls-33" d="M489.75,83.63a11.45,11.45,0,0,1,8.4-4.59,14.55,14.55,0,0,1,2.56.09A11.7,11.7,0,0,1,507,82.3a11.84,11.84,0,0,1,3.24,5.9,12.58,12.58,0,0,1,.21,3.41,6.16,6.16,0,0,1-1.07,3.28,3.78,3.78,0,0,1-3.07,1.55,3.6,3.6,0,0,1-2.63-1c-.2-.21-.37-.45-.58-.65-.33.2-.6.49-.92.7a5.65,5.65,0,0,1-3.33,1,5.81,5.81,0,0,1-5.42-4,6.35,6.35,0,0,1-.24-2.71,5.87,5.87,0,0,1,1.85-3.47,5.73,5.73,0,0,1,4-1.51,5.55,5.55,0,0,1,3,.84,5.87,5.87,0,0,1,2.67,3.75,10.81,10.81,0,0,1,.14,2.48,3.06,3.06,0,0,0,.21,1.56,1.59,1.59,0,0,0,1.33.77,1.73,1.73,0,0,0,1.27-.69,2.4,2.4,0,0,0,.39-.93,9.29,9.29,0,0,0-7.51-11.09,10.73,10.73,0,0,0-2.12-.1A9.08,9.08,0,0,0,492.51,84a9,9,0,0,0-2.33,3.8,10.1,10.1,0,0,0-.44,2.79,9.55,9.55,0,0,0,1.82,5.52,9.43,9.43,0,0,0,4.4,3.22,9.09,9.09,0,0,0,7.17-.49,5.56,5.56,0,0,1,.77-.39c.1,0,.18.06.25.12.26.29.49.61.76.9a3.35,3.35,0,0,1,.52.67c0,.11-.16.16-.23.23a11.43,11.43,0,0,1-6.9,1.78,10.88,10.88,0,0,1-3.68-.83,11.64,11.64,0,0,1-7.16-10c0-.53,0-1.07,0-1.6a11.76,11.76,0,0,1,1-4A13.16,13.16,0,0,1,489.75,83.63Zm8.72,3.49a3.54,3.54,0,0,0-2.94,2.9,3.71,3.71,0,0,0,.23,2,3.51,3.51,0,0,0,3.12,2.14A3.43,3.43,0,0,0,501.47,93a3.56,3.56,0,0,0,1-2.66,3.6,3.6,0,0,0-1.08-2.3A3.46,3.46,0,0,0,498.47,87.12Z"/><path class="cls-34" d="M550,80.76a1.49,1.49,0,0,1,1.6,1.37,1.54,1.54,0,0,1-1,1.52,2.49,2.49,0,0,1-1,0,1.55,1.55,0,0,1-1-1,1.65,1.65,0,0,1,.13-1.07A1.44,1.44,0,0,1,550,80.76Z"/><path class="cls-34" d="M553.8,81.15h2.11a5.38,5.38,0,0,1,.05,1.13q0,6.58,0,13.18c0,.17,0,.41-.11.53-.69,0-1.38,0-2.06,0,0-2.74,0-5.47,0-8.21C553.8,85.56,553.78,83.35,553.8,81.15Z"/><path class="cls-34" d="M526.1,86a4.58,4.58,0,0,1,2.62-.83,4.64,4.64,0,0,1,3.75,1.84,5.18,5.18,0,0,1,1,3.19c0,1.89,0,3.78,0,5.68a2.21,2.21,0,0,1-.81.07c-.43,0-.87,0-1.3,0-.14-.08-.1-.25-.11-.38V89.8a2.48,2.48,0,0,0-2.35-2.42,2.53,2.53,0,0,0-2,1,2.79,2.79,0,0,0-.58,1.69v5.92q-1.07,0-2.13,0c0-2,0-4,0-6.07a2.51,2.51,0,0,0-2.27-2.48,2.54,2.54,0,0,0-2,.72,2.46,2.46,0,0,0-.73,1.76c0,1.91,0,3.82,0,5.73,0,.12,0,.25,0,.38-.66,0-1.32,0-2,0-.13,0-.2-.14-.18-.25V85.63c.59,0,1.19,0,1.78,0a.69.69,0,0,1,.32,0c0,.16.08.32.11.48a3.79,3.79,0,0,1,2.31-.89,4.63,4.63,0,0,1,3,1,8.81,8.81,0,0,1,.71.66A10.06,10.06,0,0,1,526.1,86Z"/><path class="cls-34" d="M540.19,85.27a11.22,11.22,0,0,1,1.42,0,3.83,3.83,0,0,1,1.55.37,8,8,0,0,1,1.18.73,5.85,5.85,0,0,1,0-.73c.57,0,1.15,0,1.72,0,.13,0,.32,0,.38.11a4.91,4.91,0,0,1,0,.77c0,3.17,0,6.35,0,9.52-.67,0-1.34,0-2,0-.2-.18-.07-.5-.11-.74a5.2,5.2,0,0,1-2.22,1,7,7,0,0,1-1.29.07l-.72-.07a5.58,5.58,0,0,1-4.47-4.73,4,4,0,0,1,0-1.38,5.61,5.61,0,0,1,4.59-4.89Zm.13,2.19a3.43,3.43,0,0,0-2.6,3.21,3.34,3.34,0,0,0,1,2.49,3.31,3.31,0,0,0,2.49,1,3.17,3.17,0,0,0,2.17-.85,3.48,3.48,0,0,0,.58-4.47A3.5,3.5,0,0,0,542,87.46,4.93,4.93,0,0,0,540.32,87.46Z"/><path class="cls-34" d="M549,85.58c.72,0,1.44,0,2.15,0,0,2.86,0,5.72,0,8.58,0,.61,0,1.22,0,1.83-.71,0-1.43,0-2.15,0,0-2.86,0-5.71,0-8.57C549,86.8,549,86.19,549,85.58Z"/><g id="layer1"><path id="path1139" class="cls-35" d="M399.28,123.18h4.36l2.54,6.49,2.58-6.49H413l-6.39,15.37h-4.27l1.75-4.07Z"/><path id="path1141" class="cls-35" d="M417.42,122.92c-3.27,0-5.34,2.94-5.34,5.86,0,3.29,2.27,5.91,5.28,5.91a3.59,3.59,0,0,0,3.1-1.37v1.06h3.8v-11.2h-3.8v1A3.85,3.85,0,0,0,417.42,122.92Zm.81,3.6a2.29,2.29,0,1,1,0,4.58,2.3,2.3,0,0,1-2.29-2.26A2.21,2.21,0,0,1,418.23,126.52Z"/><path id="path1145" class="cls-35" d="M425.57,134.38V118.23h4v6a3.67,3.67,0,0,1,2.92-1.31c2.42,0,3.84,1.8,3.84,4.38v7.08h-3.95v-6.11c0-.87-.41-1.72-1.35-1.72a1.56,1.56,0,0,0-1.46,1.72v6.11Z"/><path id="path1147" class="cls-35" d="M443.09,122.92a5.89,5.89,0,1,0,6,6A5.79,5.79,0,0,0,443.09,122.92Zm0,3.63a2.26,2.26,0,0,1,2.24,2.28,2.28,2.28,0,0,1-2.24,2.24,2.22,2.22,0,0,1-2.23-2.25A2.17,2.17,0,0,1,443.13,126.55Z"/><path id="path1153" class="cls-35" d="M455.73,122.92a5.89,5.89,0,1,0,6,6A5.79,5.79,0,0,0,455.73,122.92Zm0,3.63a2.26,2.26,0,0,1,2.24,2.28,2.28,2.28,0,0,1-2.24,2.24,2.22,2.22,0,0,1-2.23-2.25A2.17,2.17,0,0,1,455.76,126.55Z"/><circle id="path1155" class="cls-35" cx="464.87" cy="131.98" r="2.64"/><path id="path1157" class="cls-35" d="M468.38,128.37h-4.76l4.22-10.14h4.74Z"/></g><g id="layer1-2" data-name="layer1"><path id="path2998" class="cls-36" d="M498.64,112.57l5.24,1.84v18.43l7.38-4.26-3.62-1.69-2.28-5.68L517,125.29v5.94l-13.1,7.55-5.24-2.91Z"/><g id="flowRoot3000"><path id="path3009" class="cls-36" d="M524.84,133.54V117.8h4.48a4.88,4.88,0,0,1,3.24,1,3.23,3.23,0,0,1,1.19,2.6,3.76,3.76,0,0,1-2.72,3.73v.05a4,4,0,0,1,2.55,1.2,3.7,3.7,0,0,1,.95,2.64,4.12,4.12,0,0,1-1.45,3.27,5.39,5.39,0,0,1-3.65,1.25Zm1.84-14.07v5.08h1.89a3.55,3.55,0,0,0,2.38-.73,2.54,2.54,0,0,0,.87-2.06c0-1.53-1-2.29-3-2.29Zm0,6.74v5.66h2.51a3.72,3.72,0,0,0,2.52-.77,2.63,2.63,0,0,0,.89-2.1c0-1.86-1.26-2.79-3.8-2.79Z"/><path id="path3011" class="cls-36" d="M537.8,119.8a1.14,1.14,0,0,1-.82-.33,1.18,1.18,0,0,1,.82-2,1.14,1.14,0,0,1,.84.34,1.16,1.16,0,0,1,0,1.66,1.14,1.14,0,0,1-.84.34Zm.88,13.74h-1.8V122.39h1.8Z"/><path id="path3013" class="cls-36" d="M550.91,133.54h-1.8v-6.33c0-2.38-.8-3.58-2.54-3.58a2.84,2.84,0,0,0-2.24,1,3.76,3.76,0,0,0-.88,2.56v6.33h-1.8V122.39h1.8v1.82h0a4,4,0,0,1,3.62-2.09,3.45,3.45,0,0,1,2.82,1.19,5.24,5.24,0,0,1,1,3.44Z"/><path id="path3015" class="cls-36" d="M563.53,132.59q0,6.19-5.93,6.19A7.77,7.77,0,0,1,554,138l.48-1.55a6,6,0,0,0,3.08.81c2.76,0,4.15-1.44,4.15-4.38v-1.22h-.05a4.06,4.06,0,0,1-3.78,2.13,4.14,4.14,0,0,1-3.37-1.42,6,6,0,0,1-1.28-4,7,7,0,0,1,1.37-4.55,4.61,4.61,0,0,1,3.77-1.7,3.53,3.53,0,0,1,3.29,1.83h.05v-1.55h1.8Zm-1.8-4.13v-1.57a3.22,3.22,0,0,0-.91-2.29,2.85,2.85,0,0,0-2.2-1,3.13,3.13,0,0,0-2.61,1.21,5.41,5.41,0,0,0-1,3.4,4.35,4.35,0,0,0,.91,2.91,2.92,2.92,0,0,0,2.4,1.13,3,3,0,0,0,2.41-1.08,4,4,0,0,0,1-2.75Z"/></g></g><path class="cls-37" d="M557.74,269.24c0,11.33-11.41,22-22.75,22s-19.09-7.31-19.09-18.65,9.19-22.37,20.53-22.37S557.74,257.9,557.74,269.24Z"/><path class="cls-5" d="M539.43,265.06h1.72v-3a21.91,21.91,0,0,0-2.51-.14c-2.49,0-4.19,1.57-4.19,4.44V269h-2.74v3.35h2.74v8.45h3.36v-8.44h2.64l.41-3.36h-3.05V266.7C537.81,265.72,538.08,265.06,539.43,265.06Z"/><path class="cls-38" d="M519.61,307.4c0,11.29-9.07,17.28-20.36,17.28s-20.44-7.76-20.44-19.05,6.73-20.16,18-20.16S519.61,296.12,519.61,307.4Z"/><path class="cls-5" d="M504.49,307.64c-.3-.39-.22-.56,0-.9,0,0,2.53-3.49,2.78-4.67h0c.13-.43,0-.75-.63-.75h-2.06a.88.88,0,0,0-.9.58,16.82,16.82,0,0,1-2.54,4.14c-.48.48-.7.63-1,.63s-.33-.15-.33-.58v-4c0-.52-.15-.75-.59-.75H496a.5.5,0,0,0-.53.47c0,.49.75.6.82,2v3c0,.66-.12.78-.38.78-.7,0-2.41-2.53-3.42-5.42-.2-.56-.4-.79-.93-.79h-2.06c-.59,0-.71.27-.71.58,0,.53.7,3.2,3.26,6.73a8.09,8.09,0,0,0,6.3,3.71c1.32,0,1.48-.29,1.48-.79,0-2.3-.12-2.52.54-2.52.3,0,.83.16,2.06,1.32,1.4,1.37,1.63,2,2.42,2h2.06c.59,0,.89-.29.72-.86C507.26,310.28,504.61,307.8,504.49,307.64Z"/><path d="M155.4,500.09h-2.19a.25.25,0,0,0-.28.28V507h-4v-6.58c0-.19-.09-.28-.27-.28h-2.11c-.18,0-.27.09-.27.28V517.1a.24.24,0,0,0,.27.27h2.2a.24.24,0,0,0,.27-.27v-8.05h4v8.05a.24.24,0,0,0,.27.27h2.19c.19,0,.28-.09.28-.27V500.37c-.09-.19-.18-.28-.37-.28Zm49.37,15c0-.09-.09-.09-.18-.09-.92,0-6.5,2.65-6.5-6.12,0-3.84,1.47-9.24,4.94-6a.32.32,0,0,0,.28.1c.09,0,.18-.1.27-.28l.91-1.55a.33.33,0,0,0,.1-.28c0-.18-.19-.27-.37-.36-6-3-9.14,2.56-9.14,9.05,0,8.41,6.12,9.6,9.6,7a.37.37,0,0,0,.18-.37l-.09-1.1Zm-15-7.22,4.2-7.59a.17.17,0,0,0-.09-.27h-2.1c-.64,0-.83.18-1,.64s-3.29,6.95-3.66,7.22v-7.59c0-.09-.09-.27-.18-.27h-2.28c-.1,0-.19.09-.19.27V517.1c0,.09.09.27.19.27h2.28c.18,0,.18-.09.18-.27v-8.69c.28.18,4.12,8.14,4.21,8.41a1,1,0,0,0,1,.55h2.28c.18,0,.18-.09.09-.27l-4.93-9.24Zm-20,7.32h-.45c-.55,0-.64-.19-.64-.64V500.27c0-.18-.09-.27-.18-.27h-7c-.19,0-.28.09-.28.27,0,3.84.09,10.24-2.47,14.91H158a.24.24,0,0,0-.27.27v5a.29.29,0,0,0,.27.27h1.65a.53.53,0,0,0,.55-.55v-2.83h7.4v3.11a.29.29,0,0,0,.28.27h1.82a.51.51,0,0,0,.46-.55v-4.75c-.09-.18-.18-.27-.37-.27Zm-3.83,0H160.8c1.46-2.38,2.83-6.22,2.83-13h2.29v13Zm11-15.55c-3.75,0-5.49,4.67-5.49,9.79,0,8.41,5.85,9.69,9.87,7.22.19-.09.19-.18.19-.28l-.28-1.18c0-.1-.09-.19-.27-.19-1.46,0-6.58,2.56-6.58-5.76a53.73,53.73,0,0,0,7.31.19c-.09-4.21-.55-9.79-4.75-9.79Zm-2.47,7.68c0-6.67,4.39-7.95,4.39-.18A33.6,33.6,0,0,0,174.42,507.31Z"/><path class="cls-26" d="M142.24,491.5h-3.93c-3.93,0-7.32,2.92-7.32,8.59a7.51,7.51,0,0,0,4.48,7.22l-5.3,9.51a.34.34,0,0,0,.28.55h2.46a.5.5,0,0,0,.46-.27l4.85-9.33H140v9.33a.29.29,0,0,0,.28.27h2.19a.25.25,0,0,0,.28-.27V491.86C142.6,491.59,142.51,491.5,142.24,491.5ZM140,505.58h-1.46c-6.31,0-5.85-11.89-.27-11.89H140v11.89Z"/><path class="cls-39" d="M64.54,463.63a8.4,8.4,0,0,1,9.13-1.77A7.69,7.69,0,0,1,76,463.48c-.5.54-1,1-1.54,1.56a7.17,7.17,0,0,0-2-1.21,5.92,5.92,0,0,0-2.76-.34,5.89,5.89,0,0,0-5.2,5.29,6.26,6.26,0,0,0,.85,3.78,5.86,5.86,0,0,0,3.44,2.61,6.39,6.39,0,0,0,3.47-.06,4.83,4.83,0,0,0,2.84-2.18,5.55,5.55,0,0,0,.63-2c-1.79,0-3.57,0-5.36,0,0-.74,0-1.47,0-2.21H78a8.51,8.51,0,0,1-.57,4.73A7.12,7.12,0,0,1,73.78,477a9.12,9.12,0,0,1-3.66.64,8.51,8.51,0,0,1-7.28-4.86,8.49,8.49,0,0,1-.7-4.36A8.27,8.27,0,0,1,64.54,463.63Z"/><path class="cls-39" d="M105.31,467.74a4.53,4.53,0,0,1,3.6-.79,3.74,3.74,0,0,1,2,1.12,7.71,7.71,0,0,0,0-1h2.2v8a10.91,10.91,0,0,1-.47,4.26,4.28,4.28,0,0,1-2.27,2.38,5.65,5.65,0,0,1-3.56.3,5.08,5.08,0,0,1-3.44-3c.67-.29,1.35-.55,2-.84a3.21,3.21,0,0,0,1.8,1.76,3,3,0,0,0,2.94-.67,4.06,4.06,0,0,0,.76-3.08,5.34,5.34,0,0,1-1,.8,4.18,4.18,0,0,1-3.27.19,5.17,5.17,0,0,1-3.14-3.06,6,6,0,0,1-.33-2.74A5.37,5.37,0,0,1,105.31,467.74Zm2.27,1.28a2.86,2.86,0,0,0-2.07,2.13,4,4,0,0,0,.29,2.73,2.71,2.71,0,0,0,2.93,1.43,2.86,2.86,0,0,0,2.21-2.22,3.66,3.66,0,0,0-.91-3.43A2.64,2.64,0,0,0,107.58,469Z"/><path class="cls-40" d="M114.93,461.42h2.29v16h-2.29Z"/><path class="cls-41" d="M135.24,477.8c1.82-4.78,3.61-9.58,5.42-14.36h2.09c1.81,4.78,3.6,9.58,5.42,14.36-.68,0-1.37,0-2,0l-1.38-3.89h-6c-.47,1.3-.95,2.6-1.4,3.9C136.61,477.8,135.93,477.82,135.24,477.8Zm6.4-12c-.77,2.14-1.54,4.28-2.33,6.41h4.79c-.78-2.13-1.56-4.27-2.32-6.41Z"/><path class="cls-41" d="M156.7,463.44h1.85v14.37h-1.77c0-.47,0-.94,0-1.41a4,4,0,0,1-2,1.51,4.35,4.35,0,0,1-3.46-.31,5.2,5.2,0,0,1-2.43-3.27,5.88,5.88,0,0,1,.5-4.16,4.78,4.78,0,0,1,2.86-2.37,4.32,4.32,0,0,1,3.76.73,5.3,5.3,0,0,1,.8.84c0-.59-.06-1.18-.06-1.77C156.71,466.21,156.7,464.83,156.7,463.44Zm-4.63,6.35a3.92,3.92,0,0,0-.41,5.87,2.9,2.9,0,0,0,2,.78,3,3,0,0,0,1.74-.53,3.45,3.45,0,0,0,1.38-2.58,3.81,3.81,0,0,0-1-3.12A3,3,0,0,0,152.07,469.79Z"/><path class="cls-41" d="M164.06,467.66a4.08,4.08,0,0,1,4,2.28c-.54.24-1.1.45-1.64.68a2.61,2.61,0,0,0-3.77-.85.93.93,0,0,0-.36,1.1,1.63,1.63,0,0,0,1,.73,27,27,0,0,1,3.18.94A3,3,0,0,1,168,474a2.91,2.91,0,0,1,.17,1.52,2.82,2.82,0,0,1-1.36,1.9,4.87,4.87,0,0,1-3.42.62,4.4,4.4,0,0,1-3.35-2.72c.56-.23,1.09-.51,1.67-.69a2.78,2.78,0,0,0,3.68,1.64,1.49,1.49,0,0,0,.9-.85,1.13,1.13,0,0,0-.47-1.17,6.6,6.6,0,0,0-2.25-.77,5.44,5.44,0,0,1-2.55-1.18,2.54,2.54,0,0,1,.06-3.55A4.36,4.36,0,0,1,164.06,467.66Z"/><path class="cls-42" d="M84,466.92a5.52,5.52,0,0,1,3.43.57A5.19,5.19,0,0,1,90,471a5.38,5.38,0,0,1-.61,3.92,5.22,5.22,0,0,1-2.71,2.23,5.63,5.63,0,0,1-3.67,0,5.24,5.24,0,0,1-3.15-3,5.61,5.61,0,0,1-.06-3.79A5.27,5.27,0,0,1,84,466.92Zm.27,2.09A3,3,0,0,0,82,471a3.41,3.41,0,0,0,1,3.77,2.89,2.89,0,0,0,2.25.57,3,3,0,0,0,2.16-1.63,3.43,3.43,0,0,0-.75-4.06A2.9,2.9,0,0,0,84.22,469Z"/><path class="cls-42" d="M121.19,467.74a5.06,5.06,0,0,1,3.42-.85,4.66,4.66,0,0,1,3.28,2.07,8.52,8.52,0,0,1,.91,1.87l-7.08,2.92a2.83,2.83,0,0,0,1.25,1.31,3,3,0,0,0,3-.19,3.51,3.51,0,0,0,1-1l1.81,1.21a5.29,5.29,0,0,1-5.48,2.23,5.15,5.15,0,0,1-3.41-2.34,5.75,5.75,0,0,1-.42-4.95A5,5,0,0,1,121.19,467.74Zm.92,2a3.26,3.26,0,0,0-.77,2.24l4.8-2a2.28,2.28,0,0,0-2.46-1.12A2.86,2.86,0,0,0,122.11,469.75Z"/><path class="cls-43" d="M95.82,466.92a5.56,5.56,0,0,1,3.42.57,5.15,5.15,0,0,1,2.64,3.56,5.35,5.35,0,0,1-.7,4,5.27,5.27,0,0,1-2.63,2.11,5.62,5.62,0,0,1-3.73,0,5.21,5.21,0,0,1-2.61-2.06,5.54,5.54,0,0,1-.77-3.91,5.18,5.18,0,0,1,2.62-3.64A5.25,5.25,0,0,1,95.82,466.92Zm.26,2.09a3,3,0,0,0-2.21,2,3.35,3.35,0,0,0,1.53,4.08,2.92,2.92,0,0,0,3.52-.76,3.47,3.47,0,0,0-.26-4.59A2.94,2.94,0,0,0,96.08,469Z"/><path class="cls-33" d="M41.73,500.38a12.81,12.81,0,0,1,9.39-5.12,16,16,0,0,1,2.85.11A12.91,12.91,0,0,1,61,498.91a13.1,13.1,0,0,1,3.61,6.58,13.93,13.93,0,0,1,.25,3.81,7,7,0,0,1-1.2,3.66,4.24,4.24,0,0,1-3.43,1.73,4,4,0,0,1-2.94-1.16c-.22-.24-.41-.5-.65-.72-.37.22-.66.54-1,.78a6.36,6.36,0,0,1-3.71,1.1,6.54,6.54,0,0,1-6.06-4.45,7.06,7.06,0,0,1-.27-3,6.59,6.59,0,0,1,2.07-3.87,6.35,6.35,0,0,1,4.42-1.69,6.23,6.23,0,0,1,3.31.94,6.51,6.51,0,0,1,3,4.19,12.13,12.13,0,0,1,.16,2.76,3.3,3.3,0,0,0,.23,1.74,1.72,1.72,0,0,0,1.48.86,1.89,1.89,0,0,0,1.42-.77,2.77,2.77,0,0,0,.45-1A10.38,10.38,0,0,0,53.73,498a11.73,11.73,0,0,0-2.37-.1,10.37,10.37,0,0,0-9.15,7.2,11,11,0,0,0-.49,3.12,10.36,10.36,0,0,0,7,9.77,10.25,10.25,0,0,0,8-.55,6.9,6.9,0,0,1,.85-.45c.12,0,.2.07.28.14.29.33.55.69.86,1a3.74,3.74,0,0,1,.57.74c0,.12-.17.18-.26.26a12.77,12.77,0,0,1-7.7,2,12.06,12.06,0,0,1-4.1-.93,13,13,0,0,1-8-11.17c0-.59,0-1.19,0-1.78a13.25,13.25,0,0,1,1.16-4.46A15.07,15.07,0,0,1,41.73,500.38Zm9.74,3.9a4,4,0,0,0-3.29,3.25,4.24,4.24,0,0,0,.26,2.17,3.93,3.93,0,0,0,3.49,2.39,3.83,3.83,0,0,0,2.89-1.19,3.85,3.85,0,0,0-.08-5.54A3.85,3.85,0,0,0,51.47,504.28Z"/><path class="cls-34" d="M109,497.19a1.66,1.66,0,0,1,1.79,1.52,1.71,1.71,0,0,1-1.11,1.7,2.67,2.67,0,0,1-1.09,0,1.69,1.69,0,0,1-1.08-1.17,1.83,1.83,0,0,1,.14-1.2A1.58,1.58,0,0,1,109,497.19Z"/><path class="cls-34" d="M113.25,497.61h2.36a6.65,6.65,0,0,1,.06,1.26v14.72c0,.19,0,.45-.12.59-.76,0-1.53,0-2.3,0,0-3.06,0-6.11,0-9.17C113.25,502.55,113.23,500.08,113.25,497.61Z"/><path class="cls-34" d="M82.33,503.08a5,5,0,0,1,2.91-.93,5.21,5.21,0,0,1,4.2,2.06,5.77,5.77,0,0,1,1.09,3.55c0,2.12,0,4.23,0,6.35a2.33,2.33,0,0,1-.91.08c-.48,0-1,0-1.44,0-.16-.08-.12-.27-.13-.42v-6.48a2.74,2.74,0,0,0-4.91-1.63,3.1,3.1,0,0,0-.65,1.88v6.62c-.8,0-1.59,0-2.38,0,0-2.26,0-4.52,0-6.77a2.91,2.91,0,0,0-.81-2,2.94,2.94,0,0,0-1.72-.81,2.84,2.84,0,0,0-2.21.8,2.74,2.74,0,0,0-.81,2c0,2.13,0,4.26,0,6.39a3.22,3.22,0,0,1,0,.43c-.73,0-1.47,0-2.21,0-.14,0-.22-.15-.19-.28V502.62c.66-.05,1.32,0,2-.05a.78.78,0,0,1,.37,0c0,.18.08.36.11.53a4.37,4.37,0,0,1,2.59-1,5.2,5.2,0,0,1,3.33,1.08c.29.22.53.49.8.74A9.77,9.77,0,0,1,82.33,503.08Z"/><path class="cls-34" d="M98.06,502.22a10.4,10.4,0,0,1,1.58,0,4.35,4.35,0,0,1,1.73.41,9,9,0,0,1,1.32.81,5.51,5.51,0,0,1,0-.81c.63,0,1.28,0,1.91,0,.15,0,.37-.05.43.13a4.13,4.13,0,0,1,0,.86c0,3.54,0,7.09,0,10.63-.75,0-1.5,0-2.24,0-.23-.2-.08-.56-.13-.83a5.72,5.72,0,0,1-2.47,1.15,7.73,7.73,0,0,1-1.44.08c-.27,0-.53-.06-.8-.08a6.23,6.23,0,0,1-5-5.28,4.43,4.43,0,0,1,0-1.54,6.15,6.15,0,0,1,2.06-4A6.3,6.3,0,0,1,98.06,502.22Zm.14,2.44a3.86,3.86,0,0,0-2.91,3.59A3.8,3.8,0,0,0,96.37,511a3.71,3.71,0,0,0,2.78,1.16,3.56,3.56,0,0,0,2.43-1,3.83,3.83,0,0,0,1.27-2.91,3.79,3.79,0,0,0-.63-2.08,3.9,3.9,0,0,0-2.16-1.59A5.53,5.53,0,0,0,98.2,504.66Z"/><path class="cls-34" d="M107.94,502.56c.8,0,1.6,0,2.4,0,0,3.19,0,6.38,0,9.57,0,.68,0,1.37,0,2-.8,0-1.6,0-2.4,0,0-3.19,0-6.38,0-9.57C107.93,503.93,107.91,503.24,107.94,502.56Z"/><path class="cls-26" d="M412,499.68a3.2,3.2,0,0,0-2.26-2.26c-2-.54-9.95-.54-9.95-.54s-8,0-10,.56a3.23,3.23,0,0,0-2.26,2.25,33.92,33.92,0,0,0-.52,6.13,32.84,32.84,0,0,0,.54,6.14,3.19,3.19,0,0,0,2.26,2.25c2,.54,9.95.54,9.95.54s8,0,10-.54A3.2,3.2,0,0,0,412,512a32.78,32.78,0,0,0,.54-6.14A33.15,33.15,0,0,0,412,499.68Z"/><polygon class="cls-5" points="397.2 509.65 403.81 505.82 397.2 501.99 397.2 509.65"/><path class="cls-44" d="M424,513.13a2.72,2.72,0,0,1-1.08-1.58,10.14,10.14,0,0,1-.32-2.87v-1.62a9.21,9.21,0,0,1,.37-2.9,2.79,2.79,0,0,1,1.14-1.58,3.74,3.74,0,0,1,2-.51,3.36,3.36,0,0,1,2,.51,2.94,2.94,0,0,1,1.1,1.58,9.81,9.81,0,0,1,.34,2.88v1.63a9.67,9.67,0,0,1-.34,2.86,2.9,2.9,0,0,1-1.1,1.59,3.71,3.71,0,0,1-2,.51A3.66,3.66,0,0,1,424,513.13Zm2.83-1.75a5.14,5.14,0,0,0,.21-1.78v-3.49a5,5,0,0,0-.21-1.75.76.76,0,0,0-.74-.56.74.74,0,0,0-.72.56,5.09,5.09,0,0,0-.21,1.75v3.49a5.46,5.46,0,0,0,.2,1.78.72.72,0,0,0,.73.54A.76.76,0,0,0,426.83,511.38Z"/><path class="cls-44" d="M462.71,508.71v.58a13,13,0,0,0,.07,1.62,1.61,1.61,0,0,0,.26.78.73.73,0,0,0,.62.25.77.77,0,0,0,.77-.44,3.83,3.83,0,0,0,.23-1.46l2.18.13c0,.1,0,.23,0,.39a2.89,2.89,0,0,1-.85,2.31,3.45,3.45,0,0,1-2.39.77,2.85,2.85,0,0,1-2.6-1.16,6.88,6.88,0,0,1-.75-3.6v-2a6.82,6.82,0,0,1,.77-3.67,3,3,0,0,1,2.65-1.16,3.51,3.51,0,0,1,2,.47,2.56,2.56,0,0,1,1,1.48,10.11,10.11,0,0,1,.28,2.76v1.92h-4.21ZM463,504a1.57,1.57,0,0,0-.26.77,13.19,13.19,0,0,0-.07,1.64v.8h1.84v-.8a13.62,13.62,0,0,0-.07-1.64,1.54,1.54,0,0,0-.26-.79.78.78,0,0,0-.59-.23A.76.76,0,0,0,463,504Z"/><path class="cls-44" d="M417.87,508.5,415,498.16h2.5l1,4.68c.26,1.16.44,2.14.58,2.94h.06c.08-.59.28-1.55.57-2.93l1-4.69h2.5l-2.9,10.33v5h-2.47v-5Z"/><path class="cls-44" d="M437.68,502.28v11.18h-2l-.22-1.37h0a2.6,2.6,0,0,1-2.41,1.55,1.86,1.86,0,0,1-1.64-.74,3.85,3.85,0,0,1-.52-2.27v-8.35h2.52v8.2a2.57,2.57,0,0,0,.16,1.07.58.58,0,0,0,.54.31,1.14,1.14,0,0,0,.63-.2,1.35,1.35,0,0,0,.44-.51v-8.87Z"/><path class="cls-44" d="M450.6,502.28v11.18h-2l-.21-1.37h-.05a2.58,2.58,0,0,1-2.4,1.55,1.85,1.85,0,0,1-1.64-.74,3.84,3.84,0,0,1-.53-2.27v-8.35h2.53v8.2a2.42,2.42,0,0,0,.16,1.07.56.56,0,0,0,.54.31,1.14,1.14,0,0,0,.62-.2,1.27,1.27,0,0,0,.44-.51v-8.87Z"/><path class="cls-44" d="M444.52,500.19H442v13.27h-2.46V500.19h-2.5v-2h7.45v2Z"/><path class="cls-44" d="M458.91,504.07a2.81,2.81,0,0,0-.73-1.54,2,2,0,0,0-1.41-.48,2.3,2.3,0,0,0-1.29.39,2.77,2.77,0,0,0-.94,1h0v-5.9H452.1v15.87h2.08l.26-1.07h.05a2.35,2.35,0,0,0,.87.9,2.69,2.69,0,0,0,1.29.33,2,2,0,0,0,1.89-1.18,8.65,8.65,0,0,0,.6-3.67V507A14.71,14.71,0,0,0,458.91,504.07Zm-2.3,4.56a15.38,15.38,0,0,1-.1,1.92,2,2,0,0,1-.35,1,.76.76,0,0,1-.63.29,1.13,1.13,0,0,1-.58-.14,1.11,1.11,0,0,1-.42-.44v-6.36a1.53,1.53,0,0,1,.44-.75.93.93,0,0,1,.67-.29.65.65,0,0,1,.59.29,2.26,2.26,0,0,1,.29,1,19.61,19.61,0,0,1,.09,2Z"/><path d="M513.9,501.89v-3.72l-3.5.46v3.26H509V505h1.37v8.39h3.5V505h2.53v-3.08Z"/><path d="M494.77,507.42a4.43,4.43,0,0,0,1.75-3.52v-.64a4.54,4.54,0,0,0-4.7-4.5l-7.42,0v14.56l3.5,0v-5h3.6l2.35,5H498Zm-1.83-3.69a1.68,1.68,0,0,1-1.87,1.62h-3.16v-3.5h3.16a1.78,1.78,0,0,1,1.87,1.76Z"/><path d="M534.11,501.83h-1.85v-3.71l-3.42.45v14.75h5.28a4.61,4.61,0,0,0,4.7-4.59v-2.2A4.7,4.7,0,0,0,534.11,501.83Zm1.34,6.61a1.66,1.66,0,0,1-1.83,1.74h-1.35V505h1.35a1.66,1.66,0,0,1,1.83,1.74Z"/><path d="M523.92,501.89v6.63c0,1.09-.4,1.83-1.49,1.83h0c-1.09,0-1.49-.74-1.49-1.83v-6.63h-3.46v6.88c0,2.59,1.14,4.7,4.59,4.7h.66c3.63,0,4.7-2.11,4.7-4.7v-6.88Z"/><path d="M504.45,501.89v6.63c0,1.09-.4,1.83-1.49,1.83h-.06c-1.09,0-1.49-.74-1.49-1.83v-6.63H498v6.88c0,2.59,1.13,4.7,4.58,4.7h.66c3.64,0,4.7-2.11,4.7-4.7v-6.88Z"/><path d="M547.57,509.47a3.4,3.4,0,0,1-2.78,1.1c-1.11-.09-1.77-.65-1.77-1.74v-.38h6.78v-2a4.7,4.7,0,0,0-5-4.75c-3.15,0-5,2.11-5,4.64v2.37a4.7,4.7,0,0,0,5,4.75,6,6,0,0,0,5.09-2.49ZM543,505.84a1.62,1.62,0,0,1,1.69-1.74h.09a1.63,1.63,0,0,1,1.76,1.74v.09H543Z"/><path class="cls-45" d="M445.69,459.9a12.39,12.39,0,0,1,12,1.21,12.56,12.56,0,0,1,4.45,5.61,12.3,12.3,0,0,1,.6,7.17,4.8,4.8,0,0,1-2,3,4.16,4.16,0,0,1-3.33.5,4.1,4.1,0,0,1-2.3-1.68c-.37.28-.71.6-1.1.84a6.17,6.17,0,0,1-4.6.85,6.27,6.27,0,0,1-2.93-1.47,6.36,6.36,0,0,1-2.1-4.87,6.44,6.44,0,0,1,1.26-3.54,6.27,6.27,0,0,1,11.26,3.26c.07.94,0,1.88.05,2.82a1.57,1.57,0,0,0,1.46,1.4,1.72,1.72,0,0,0,1.58-.91,4.21,4.21,0,0,0,.42-1.56,10,10,0,0,0-.5-4.61,9.83,9.83,0,0,0-19.08,3.16,9.73,9.73,0,0,0,3.8,8,9.6,9.6,0,0,0,6.12,2.05,9.73,9.73,0,0,0,5.1-1.45c.18-.14.33.11.44.23.43.55.95,1,1.34,1.61A12.31,12.31,0,0,1,446,482.8a12.38,12.38,0,0,1-7.74-10,12.38,12.38,0,0,1,1.56-7.74A12.59,12.59,0,0,1,445.69,459.9Zm4.14,7.73a3.72,3.72,0,0,0-2.95,3.66A3.72,3.72,0,0,0,454,472.7a3.9,3.9,0,0,0,.23-2,3.73,3.73,0,0,0-2.19-2.83A4,4,0,0,0,449.83,467.63Z"/><path class="cls-34" d="M509.26,467.23a5.87,5.87,0,0,1,4.93-1.61,6,6,0,0,1,4.66,3.52,8.61,8.61,0,0,1,.38,3.5h-9.29a3.62,3.62,0,0,0,2,2.23,4.44,4.44,0,0,0,2.79.09,5.22,5.22,0,0,0,2.34-1.3l1.47,1.5A7.23,7.23,0,0,1,516,477a7.16,7.16,0,0,1-3.58.36,6,6,0,0,1-3.85-2.39,6.05,6.05,0,0,1-1.08-4.25A5.92,5.92,0,0,1,509.26,467.23Zm1.79,1.41a3.26,3.26,0,0,0-1.15,1.77h7a3.44,3.44,0,0,0-.85-1.48A3.86,3.86,0,0,0,511.05,468.64Z"/><path class="cls-34" d="M526,465.64a5.93,5.93,0,1,1,0,11.67,5.83,5.83,0,0,1-3.67-2.26,6,6,0,0,1-1.13-4.43,5.88,5.88,0,0,1,1.39-3A6,6,0,0,1,526,465.64Zm.18,2.31a3.65,3.65,0,1,0,2.81.48A3.64,3.64,0,0,0,526.13,468Z"/><path class="cls-34" d="M469.84,465.84h5.82a3.7,3.7,0,0,1,1.89.36,3.16,3.16,0,0,1,1.58,3.35,3.85,3.85,0,0,1-.83,1.54,3,3,0,0,1,1.38,1.78,3.41,3.41,0,0,1-1.7,3.92,3.94,3.94,0,0,1-2,.35h-6.11Zm2.29,2.23q0,1.06,0,2.13c1.23,0,2.46,0,3.7,0a1.06,1.06,0,0,0-.08-2.12Zm0,4.28c0,.86,0,1.71,0,2.57,1.33,0,2.67,0,4,0a1.29,1.29,0,0,0,1.18-1.58,1.26,1.26,0,0,0-1.17-1C474.81,472.34,473.47,472.36,472.13,472.35Z"/><path class="cls-34" d="M481.72,465.84H484v7.52q3.29-3.75,6.56-7.52h1.91c0,3.77,0,7.53,0,11.3h-2.3v-7.4c-2.2,2.46-4.38,4.94-6.57,7.4h-1.91Z"/><path class="cls-34" d="M496.57,465.84h8.6v9.08h1.51v4.74h-2.31v-2.52h-8.1v2.52H494v-4.74a2.43,2.43,0,0,0,1.52-.36,2.65,2.65,0,0,0,.91-1.6,9.73,9.73,0,0,0,.18-2.35Zm2.31,2.23c0,1.29,0,2.59-.06,3.89a4.82,4.82,0,0,1-1.12,3h5.16v-6.85Z"/><path class="cls-37" d="M61.21,277.53c0,9.39-9.45,18.21-18.85,18.21s-15.81-6.05-15.81-15.45,7.61-18.53,17-18.53S61.21,268.13,61.21,277.53Z"/><path class="cls-5" d="M46,274.07h1.43v-2.49a19.68,19.68,0,0,0-2.08-.11c-2.06,0-3.47,1.3-3.47,3.68v2.19H39.64v2.78h2.28v7H44.7v-7h2.18l.35-2.78H44.7v-1.92C44.7,274.62,44.92,274.07,46,274.07Z"/><path class="cls-46" d="M126.16,311.92c0,9.39-6.36,15.73-15.75,15.73s-19-6.43-19-15.83,9.51-15.91,18.9-15.91C117.56,295.91,126.16,302.52,126.16,311.92Z"/><path class="cls-5" d="M103.64,312.4c-.4.78,0,1.16,1.09,1.8a7.05,7.05,0,0,0,2.88.82l-3.08,3c-.9.86.54,2.24,1.44,1.4l2.42-2.34,2.43,2.34c.89.85,2.33-.52,1.45-1.39l-3.09-3a7.11,7.11,0,0,0,2.86-.83h0c1-.64,1.49-1,1.09-1.8-.24-.45-.88-.82-1.73-.18a5.55,5.55,0,0,1-6,0C104.52,311.58,103.87,312,103.64,312.4Z"/><path class="cls-5" d="M108.38,311.92a4,4,0,1,0-4.12-4A4.05,4.05,0,0,0,108.38,311.92Zm0-5.91a2,2,0,1,1-2,1.95A2,2,0,0,1,108.38,306Z"/><path class="cls-38" d="M147.07,280.63c0,9.35-7.51,14.32-16.86,14.32s-16.94-6.43-16.94-15.78,5.57-16.71,14.92-16.71S147.07,271.28,147.07,280.63Z"/><path class="cls-5" d="M134.55,280.83c-.25-.32-.18-.46,0-.75a21.12,21.12,0,0,0,2.31-3.87h0c.1-.35,0-.62-.52-.62h-1.71a.75.75,0,0,0-.75.48,14,14,0,0,1-2.1,3.44c-.4.39-.58.51-.8.51s-.27-.12-.27-.48v-3.33c0-.43-.12-.62-.48-.62h-2.69a.41.41,0,0,0-.44.39c0,.4.62.5.68,1.64v2.48c0,.54-.1.64-.32.64-.58,0-2-2.1-2.83-4.49-.17-.47-.33-.66-.77-.66h-1.71c-.49,0-.59.23-.59.48,0,.45.58,2.66,2.71,5.58a6.68,6.68,0,0,0,5.22,3.07c1.09,0,1.22-.24,1.22-.65,0-1.91-.1-2.09.45-2.09.25,0,.69.13,1.7,1.09,1.17,1.14,1.36,1.65,2,1.65h1.71c.49,0,.73-.24.59-.71C136.85,283,134.65,281,134.55,280.83Z"/><path class="cls-47" d="M83.63,312.87c0,9.39-11,15.38-20.42,15.38s-15.84-6-15.84-15.38,8.86-15.54,18.25-15.54S83.63,303.47,83.63,312.87Z"/><path class="cls-5" d="M65.82,308.85a4,4,0,1,0,4,4A4,4,0,0,0,65.82,308.85Zm0,6.62a2.61,2.61,0,1,1,2.6-2.6A2.6,2.6,0,0,1,65.82,315.47Z"/><path class="cls-5" d="M69,305.09c-1.44-.06-5-.06-6.45,0a4.69,4.69,0,0,0-3.28,1.27c-1.51,1.5-1.31,3.53-1.31,6.51s-.17,5,1.31,6.5,3.57,1.32,6.51,1.32,4.05,0,5.12-.42c1.45-.56,2.54-1.85,2.65-4.18.07-1.44.06-5,0-6.45C73.46,306.89,72,305.23,69,305.09Zm2.28,13.29c-1,1-2.36.9-5.52.9s-4.57,0-5.52-.91c-1.1-1.1-.9-2.85-.9-5.51,0-3.61-.37-6.2,3.24-6.39.83,0,1.08,0,3.17,0l0,0c3.47,0,6.2-.36,6.36,3.25,0,.83,0,1.08,0,3.17C72.23,316.09,72.29,317.4,71.32,318.38Z"/><circle class="cls-5" cx="69.99" cy="308.69" r="0.94"/><path class="cls-48" d="M105.59,277.07c0,9.39-9.45,18.21-18.85,18.21s-15.81-6-15.81-15.45,7.61-18.53,17-18.53S105.59,267.67,105.59,277.07Z"/><path class="cls-49" d="M84.5,273.08a1.56,1.56,0,0,1,1.23.3,1.52,1.52,0,0,1,.49,1.66,1.5,1.5,0,0,1-2,.91,1.47,1.47,0,0,1-.9-1.36A1.49,1.49,0,0,1,84.5,273.08Z"/><path class="cls-49" d="M90.81,273.12a2.73,2.73,0,0,1,.64,0,1.28,1.28,0,0,1,1,.54,1.49,1.49,0,0,1,0,1.83,1.55,1.55,0,0,1-.92.57,1.48,1.48,0,0,1-1.39-.46,1.5,1.5,0,0,1,.66-2.46Z"/><path class="cls-49" d="M82,278.78a.93.93,0,0,1,1.26.63,1.09,1.09,0,0,1-.07.62c-.06.12-.13.23-.18.35a4.7,4.7,0,0,0,2.23,1.7,7.32,7.32,0,0,0,2.3.52,7.82,7.82,0,0,0,1.37-.05,6.67,6.67,0,0,0,2.89-1A3.85,3.85,0,0,0,93,280.35a2.21,2.21,0,0,1-.26-.64.93.93,0,0,1,.71-1,1,1,0,0,1,.62.07,1,1,0,0,1,.44.44c.6,1.05,1.2,2.1,1.81,3.14a.92.92,0,0,1-.58,1.4.93.93,0,0,1-.74-.16,2.07,2.07,0,0,1-.48-.66c-.17-.3-.33-.6-.52-.88-.22.2-.42.43-.66.61a8.27,8.27,0,0,1-4.8,1.73,4.44,4.44,0,0,1-1,0,8.17,8.17,0,0,1-4.92-1.83c-.18-.15-.34-.33-.52-.48a2.86,2.86,0,0,0-.4.62c-.15.23-.27.47-.42.7a.93.93,0,0,1-1.67-.59,1.27,1.27,0,0,1,.25-.64l1.62-2.76A1.24,1.24,0,0,1,82,278.78Z"/></g></svg>