<?xml version="1.0" encoding="utf-8"?>
<!-- Generator: Adobe Illustrator 25.0.0, SVG Export Plug-In . SVG Version: 6.00 Build 0)  -->
<svg version="1.1" id="Layer_1" xmlns="http://www.w3.org/2000/svg" xmlns:xlink="http://www.w3.org/1999/xlink" x="0px" y="0px"
	 viewBox="0 0 600 600" style="enable-background:new 0 0 600 600;" xml:space="preserve">
<style type="text/css">
	.st0{fill-rule:evenodd;clip-rule:evenodd;fill:none;}
	.st1{fill-rule:evenodd;clip-rule:evenodd;fill:url(#SVGID_1_);}
	.st2{fill-rule:evenodd;clip-rule:evenodd;fill:url(#SVGID_2_);}
	.st3{clip-path:url(#SVGID_4_);}
	.st4{opacity:0.5;fill:url(#SVGID_5_);enable-background:new    ;}
	.st5{fill:#D2E4FF;}
	.st6{opacity:0.6;fill:#FFFFFF;enable-background:new    ;}
	.st7{fill:#2B478B;}
	.st8{fill:#FFA412;}
	.st9{fill:#E27F2B;}
	.st10{fill:#4A75CB;}
	.st11{fill:#233862;}
	.st12{fill:#D9935C;}
	.st13{fill:#CB7D45;}
	.st14{fill:#E9F3FE;}
	.st15{fill:#BED4F4;}
	.st16{fill:#AFCDFB;}
	.st17{fill:#152E45;}
	.st18{fill-rule:evenodd;clip-rule:evenodd;fill:url(#SVGID_6_);}
	.st19{fill-rule:evenodd;clip-rule:evenodd;fill:url(#SVGID_7_);}
	.st20{fill-rule:evenodd;clip-rule:evenodd;fill:url(#SVGID_8_);}
	.st21{fill-rule:evenodd;clip-rule:evenodd;fill:url(#SVGID_9_);}
	.st22{fill-rule:evenodd;clip-rule:evenodd;fill:#152E45;}
	.st23{fill-rule:evenodd;clip-rule:evenodd;fill:url(#SVGID_10_);}
	.st24{fill-rule:evenodd;clip-rule:evenodd;fill:url(#SVGID_11_);}
	.st25{fill-rule:evenodd;clip-rule:evenodd;fill:url(#SVGID_12_);}
	.st26{fill-rule:evenodd;clip-rule:evenodd;fill:url(#SVGID_13_);}
	.st27{fill-rule:evenodd;clip-rule:evenodd;fill:url(#SVGID_14_);}
	.st28{fill:url(#SVGID_15_);}
	.st29{fill:url(#SVGID_16_);}
	.st30{fill:url(#SVGID_17_);}
	.st31{opacity:0.2;enable-background:new    ;}
	.st32{clip-path:url(#SVGID_19_);}
	.st33{fill-rule:evenodd;clip-rule:evenodd;fill:url(#SVGID_20_);}
	.st34{fill-rule:evenodd;clip-rule:evenodd;fill:url(#SVGID_21_);}
	.st35{clip-path:url(#SVGID_23_);}
	.st36{fill-rule:evenodd;clip-rule:evenodd;fill:url(#SVGID_24_);}
	.st37{fill:none;stroke:url(#SVGID_25_);stroke-width:2;}
	.st38{fill-rule:evenodd;clip-rule:evenodd;fill:url(#SVGID_26_);}
	.st39{clip-path:url(#SVGID_28_);}
	.st40{opacity:0.3;fill:url(#SVGID_29_);enable-background:new    ;}
	.st41{opacity:0.5;fill:#D5E5FB;enable-background:new    ;}
	.st42{opacity:0.5;}
	.st43{opacity:0.5;fill:#CBDEF4;enable-background:new    ;}
	.st44{fill:#B1DBA5;}
	.st45{fill:#BFE8B5;}
	.st46{fill:#F8FCFF;}
	.st47{fill:#A8D29F;}
	.st48{fill:#ED9F4A;}
	.st49{fill:#F9DDBF;}
	.st50{fill:#FFF3E9;}
	.st51{fill:#EFCDAF;}
	.st52{fill:#F99746;}
	.st53{fill:#D3A784;}
	.st54{fill:#FFFFFF;}
	.st55{fill:#FFB27D;}
	.st56{fill:#F2CCAA;}
	.st57{fill:#E8945B;}
	.st58{fill:#EBF3FA;}
	.st59{fill:#ED7D2B;}
	.st60{fill:#17467F;}
	.st61{fill:#0C2442;}
	.st62{fill-rule:evenodd;clip-rule:evenodd;fill:url(#SVGID_30_);}
	.st63{fill:#00AAFF;}
	.st64{fill:#97CF26;}
	.st65{fill:#FF6163;}
	.st66{fill:#A169F7;}
	.st67{fill:url(#SVGID_31_);}
	.st68{opacity:0.8;fill:url(#SVGID_32_);enable-background:new    ;}
	.st69{fill:#4A88C0;}
	.st70{fill:#223C4E;}
	.st71{fill:#FF0000;}
	.st72{fill:url(#SVGID_33_);}
	.st73{fill:url(#SVGID_34_);}
	.st74{fill:url(#SVGID_35_);}
	.st75{fill:url(#SVGID_36_);}
	.st76{fill:url(#SVGID_37_);}
	.st77{fill:url(#SVGID_38_);}
</style>
<rect class="st0" width="600" height="600"/>
<linearGradient id="SVGID_1_" gradientUnits="userSpaceOnUse" x1="495.6479" y1="583.9661" x2="405.3429" y2="414.6058" gradientTransform="matrix(1 0 0 -1 0 602)">
	<stop  offset="0" style="stop-color:#E4F5FF"/>
	<stop  offset="1" style="stop-color:#B4E2FD"/>
</linearGradient>
<path class="st1" d="M498.7,175.1c-9.6,4.1-28.7,11.1-51.1,13.8c-22.5,2.7-48.1,1.1-71.2-11.8c-47.6-26.8-50.9-86.9-21.3-119.8
	C367,44.2,384.5,35,404.7,29.5c20.2-5.5,43-7.4,65.2-6.1c22.2,1.3,43.6,5.8,61.2,12.9c17.6,7.1,31.1,16.8,37.7,28.3
	c9.4,16.4,5.6,37.9-7.6,58.7C548,143.9,525.6,163.3,498.7,175.1z M570.5,63.6c19.8,34.6-16.6,89.5-71.1,113.3
	c-19.5,8.4-77,28.3-124.1,1.9c-48.8-27.5-52.2-89.1-21.8-122.8C402.5,1.8,542.9,15.4,570.5,63.6z"/>
<linearGradient id="SVGID_2_" gradientUnits="userSpaceOnUse" x1="579.3076" y1="367.3624" x2="450.5826" y2="241.0934" gradientTransform="matrix(1 0 0 -1 0 602)">
	<stop  offset="0" style="stop-color:#E4F5FF"/>
	<stop  offset="1" style="stop-color:#B4E2FD"/>
</linearGradient>
<path class="st2" d="M497.3,393.4L497.3,393.4c35.5,12.1,78.6-13.7,86.8-55.6c5.7-29.3-5.4-68.3-24.2-97.8
	c-9.4-14.7-20.6-26.9-32.4-34.3c-11.8-7.4-24-9.9-35.6-5.6c-14.7,5.4-29.5,22-39.6,44.2c-10.1,22.1-15.3,49.5-11.2,76.3
	C449.1,371.9,484.7,389.1,497.3,393.4z M439.2,320.8c-8.3-54.4,21.2-111.2,52.1-122.6c49.6-18.2,106.5,80.1,94.8,140
	c-8.4,43-52.7,69.6-89.4,57.1C483.6,390.8,447.3,373.2,439.2,320.8z"/>
<g>
	<defs>
		<path id="SVGID_3_" d="M439.2,320.8c8.1,52.4,44.4,70.1,57.4,74.5c36.7,12.5,81-14.2,89.4-57.1c11.7-59.9-45.3-158.2-94.8-140
			C460.5,209.6,430.9,266.4,439.2,320.8z"/>
	</defs>
	<clipPath id="SVGID_4_">
		<use xlink:href="#SVGID_3_"  style="overflow:visible;"/>
	</clipPath>
	<g class="st3">
		
			<linearGradient id="SVGID_5_" gradientUnits="userSpaceOnUse" x1="474.7479" y1="350.2137" x2="418.5689" y2="194.5167" gradientTransform="matrix(1 0 0 -1 0 602)">
			<stop  offset="0" style="stop-color:#E4F5FF"/>
			<stop  offset="1" style="stop-color:#B4E2FD"/>
		</linearGradient>
		<path class="st4" d="M345.6,396c0,0-29-0.7-41.3-18.3c-22.4-31.9-12.3-59.8,27.6-57.7c44.7,2.3,39.2-96.4,116.5-48.9
			c16.8,10.3,54.2-11.4,69.1,33.8c3.6,10.7,30.2,11.5,47.4,20.1c27,13.5,19.4,71.2-6.1,71.4C533.3,396.7,345.6,396,345.6,396z"/>
		<path class="st5" d="M619.2,173.3l1.7,0.6l-47.3-32.3l-110.2,33.2l-0.6,33h-2.5c-1.5,0-2.7,1.2-2.7,2.7v2.7c0,1.5,1.2,2.7,2.7,2.7
			h8.7c1.5,0,2.7-1.2,2.7-2.7v-2.7c0-1.5-1.2-2.7-2.7-2.7h-4.3l20.7-22.3H560v291h18.1v-291h15.4v6.3c0,1.5,1.2,2.7,2.7,2.7h23.1
			c1.5,0,2.7-1.2,2.7-2.7V176C621.9,174.5,620.7,173.3,619.2,173.3z M464.4,205.9l0.5-20l18.4-0.3L464.4,205.9z M596.1,173.3
			c-1.3,0-2.5,1-2.7,2.3H466.4l107-32.2l44.4,29.9H596.1z"/>
		<path class="st5" d="M446.5,243v-1.7h3.8v-11.6h3.2v11.6h8v-11.6h3.2v11.6h8.7v-11.6h3.2v11.6h8v-11.6h3.2v11.6h4.2v1.7h-4.2v5.6
			h4.2v1.7h-4.2v5.6h4.2v1.7h-4.2v5.6h4.2v1.7h-4.2v5.6h4.2v1.7h-4.2v5.6h4.2v1.7h-4.2v4.6h4.2v1.7h-4.2v5.6h4.2v1.7h-4.2v5.6h4.2
			v1.7h-4.2v5.7h4.2v1.7h-4.2v5.6h4.2v1.7h-4.2v5.6h4.2v1.7h-4.2v5.4h4.2v1.7h-4.2v5.6h4.2v1.7h-4.2v5.6h4.2v1.7h-4.2v5.6h4.2v1.7
			h-4.2v5.6h4.2v1.7h-4.2v5.6h4.2v1.7h-4.2v4.6h4.2v1.7h-4.2v5.6h4.2v1.7h-4.2v5.6h4.2v1.7h-4.2v5.6h4.2v1.7h-4.2v5.6h4.2v1.7h-4.2
			v5.6h4.2v1.7h-4.2v5h4.2v1.7h-4.2v5.6h4.2v1.7h-4.2v5.6h4.2v1.7h-4.2v5.6h4.2v1.7h-4.2v5.6h4.2v1.7h-4.2v5.6h4.2v1.7h-4.2v4.6h4.2
			v1.7h-4.2v5.6h4.2v1.7h-4.2v5.6h4.2v1.7h-45.6v-1.7h3.8v-5.4h-3.8V466h3.8v-5.6h-3.8v-1.7h3.8v-4.6h-3.8v-1.7h3.8v-5.6h-3.8v-1.7
			h3.8v-5.6h-3.8v-1.7h3.8v-5.6h-3.8v-1.7h3.8v-5.6h-3.8v-1.7h3.8v-5.6h-3.8v-1.7h3.8v-5h-3.8v-1.7h3.8V403h-3.8v-1.7h3.8v-5.6h-3.8
			v-1.7h3.8v-5.6h-3.8v-1.7h3.8v-5.6h-3.8v-1.7h3.8v-5.6h-3.8v-1.7h3.8v-4.6h-3.8v-1.7h3.8v-5.7h-3.8V358h3.8v-5.6h-3.8v-1.7h3.8
			V345h-3.8v-1.7h3.8v-5.6h-3.8v-1.7h3.8v-5.7h-3.8v-1.7h3.8v-5.4h-3.8v-1.7h3.8v-5.6h-3.8V314h3.8v-5.6h-3.8v-1.8h3.8V301h-3.8
			v-1.7h3.8v-5.6h-3.8v-1.7h3.8v-5.6h-3.8v-1.7h3.8v-4.6h-3.8v-1.7h3.8v-5.6h-3.8v-1.7h3.8v-5.6h-3.8v-1.7h3.8v-5.6h-3.8V256h3.8
			v-5.7h-3.8v-1.7h3.8V243H446.5z M464.7,243v5.6h8.7V243H464.7z M473.5,466v-5.6h-8.7v5.6H473.5z M464.7,467.8v5.6h8.7v-5.6H464.7z
			 M473.5,458.6v-4.6h-8.7v4.6H473.5z M473.5,452.3v-5.6h-8.7v5.6H473.5z M473.5,444.9v-5.6h-8.7v5.6H473.5z M473.5,437.5v-5.6h-8.7
			v5.6H473.5z M473.5,430.2v-5.6h-8.7v5.6H473.5z M473.5,422.8v-5.6h-8.7v5.6H473.5z M473.5,415.4v-5h-8.7v5H473.5z M473.5,408.6
			V403h-8.7v5.6H473.5z M473.5,401.2v-5.6h-8.7v5.6H473.5z M473.5,393.9v-5.6h-8.7v5.6H473.5z M473.5,386.5v-5.6h-8.7v5.6H473.5z
			 M473.5,379.1v-5.6h-8.7v5.6H473.5z M473.5,371.7v-4.6h-8.7v4.6H473.5z M473.5,365.4v-5.6h-8.7v5.6H473.5z M473.5,358v-5.6h-8.7
			v5.6H473.5z M473.5,350.7V345h-8.7v5.6H473.5z M473.5,343.3v-5.6h-8.7v5.6H473.5z M473.5,335.9v-5.6h-8.7v5.6L473.5,335.9
			L473.5,335.9z M473.5,328.5v-5.4h-8.7v5.4H473.5z M473.5,321.4v-5.6h-8.7v5.6H473.5z M473.5,314v-5.6h-8.7v5.6H473.5z
			 M473.5,306.6V301h-8.7v5.6H473.5z M473.5,299.2v-5.6h-8.7v5.6H473.5z M473.5,291.8v-5.6h-8.7v5.6H473.5z M473.5,284.5v-4.6h-8.7
			v4.6H473.5z M473.5,278.2v-5.6h-8.7v5.6H473.5z M473.5,270.8v-5.6h-8.7v5.6H473.5z M473.5,263.4v-5.6h-8.7v5.6H473.5z M473.5,256
			v-5.6h-8.7v5.6H473.5z M484.7,243h-8v5.6h8V243z M484.7,250.4h-8v5.6h8V250.4z M484.7,257.8h-8v5.6h8V257.8z M484.7,265.1h-8v5.6
			h8V265.1z M484.7,272.5h-8v5.6h8V272.5z M484.7,279.9h-8v4.6h8V279.9z M484.7,286.2h-8v5.6h8V286.2z M484.7,293.6h-8v5.6h8V293.6z
			 M484.7,301h-8v5.6h8V301z M484.7,308.4h-8v5.6h8V308.4z M484.7,315.7h-8v5.6h8V315.7z M484.7,323.1h-8v5.4h8V323.1z M484.7,330.2
			h-8v5.6h8V330.2z M484.7,337.6h-8v5.6h8V337.6z M484.7,345h-8v5.6h8V345z M484.7,352.4h-8v5.6h8V352.4z M484.7,359.8h-8v5.6h8
			V359.8z M484.7,367.1h-8v4.6h8V367.1z M484.7,373.5h-8v5.6h8V373.5z M484.7,380.9h-8v5.6h8V380.9z M484.7,388.2h-8v5.6h8V388.2z
			 M484.7,395.6h-8v5.6h8V395.6z M484.7,403h-8v5.6h8V403z M484.7,410.4h-8v5h8V410.4z M484.7,417.1h-8v5.6h8V417.1z M484.7,424.5
			h-8v5.6h8V424.5z M484.7,431.9h-8v5.6h8V431.9z M484.7,439.3h-8v5.6h8V439.3z M484.7,446.7h-8v5.6h8V446.7z M484.7,454.1h-8v4.6h8
			V454.1z M484.7,460.4h-8v5.6h8V460.4z M484.7,467.8h-8v5.6h8V467.8z M453.5,473.4h8v-5.6h-8V473.4z M453.5,466h8v-5.6h-8V466z
			 M453.5,458.6h8v-4.6h-8V458.6z M453.5,452.3h8v-5.6h-8V452.3z M453.5,444.9h8v-5.6h-8V444.9z M453.5,437.5h8v-5.6h-8V437.5z
			 M453.5,430.2h8v-5.6h-8V430.2z M453.5,422.8h8v-5.6h-8V422.8z M453.5,415.4h8v-5h-8V415.4z M453.5,408.6h8V403h-8V408.6z
			 M453.5,401.2h8v-5.6h-8V401.2z M453.5,393.9h8v-5.6h-8V393.9z M453.5,386.5h8v-5.6h-8V386.5z M453.5,379.1h8v-5.6h-8V379.1z
			 M453.5,371.7h8v-4.6h-8V371.7z M453.5,365.4h8v-5.6h-8V365.4z M453.5,358h8v-5.6h-8V358z M453.5,350.7h8V345h-8V350.7z
			 M453.5,343.3h8v-5.6h-8V343.3z M453.5,335.9h8v-5.6h-8V335.9z M453.5,328.5h8v-5.4h-8V328.5z M453.5,321.4h8v-5.6h-8V321.4z
			 M453.5,314h8v-5.6h-8V314z M453.5,306.6h8V301h-8V306.6z M453.5,299.2h8v-5.6h-8V299.2z M453.5,291.8h8v-5.6h-8V291.8z
			 M453.5,284.5h8v-4.6h-8V284.5z M453.5,278.2h8v-5.6h-8V278.2z M453.5,270.8h8v-5.6h-8V270.8z M453.5,263.4h8v-5.6h-8V263.4z
			 M453.5,256h8v-5.6h-8V256z M453.5,248.6h8V243h-8V248.6z"/>
		<path class="st6" d="M594.6,417l-9.7-1.5l36.3-80.6l9.7,1.5L594.6,417z"/>
		<path class="st7" d="M548,384.4l18.8-44.3h45.4L592,388.8L548,384.4z"/>
		<path class="st6" d="M545.1,387.1l-9.1-3.8l49.6-57.9l9,3.8L545.1,387.1z"/>
		<path class="st6" d="M552.9,390.4l-2.9-1.2l49.6-57.9l2.9,1.2L552.9,390.4z"/>
		<path class="st6" d="M571.1,398.1l-9-3.8l49.6-57.9l9,3.8L571.1,398.1z"/>
		<path class="st8" d="M565,338.1l-20,47.4l5.4-1.9l17.9-42.1h40.7l1.4-3.4H565z"/>
		<path class="st8" d="M412.7,394l7.6-10.4h161.2l23.8,38.5H405.6L412.7,394z"/>
		<path class="st9" d="M655.4,383.6v-45.5h-45.3l-19.2,45.5H473l-7.6,10.4l-7.1,28.1H658v-38.5H655.4z M640.9,420h-27.7l-17.3-20.8
			v-15.6l17.4-42h32.9v36.8c0,2.9-2.4,5.3-5.3,5.3V420z"/>
		<path class="st10" d="M446.3,476.6l-134.7,0l53.3-83.6h134.4L446.3,476.6z"/>
		<path class="st11" d="M446.3,476.7H335.2l99.1-9.9l65.6-75.1L446.3,476.7z"/>
		<path class="st8" d="M611.2,338.3h-49.1c-1.1,0-2-0.9-2-2s0.9-2,2-2h49.1c1.1,0,2,0.9,2,2C613.2,337.4,612.3,338.3,611.2,338.3z"
			/>
		<path class="st8" d="M470.9,312.9c2.6,7.8,16.5,21.3,18.4,22.7c0,0,3.2-5.4,2.6-8.4c-0.5-2.5-5.9-11.2-7.8-15.6
			c-0.1-0.2-0.2-0.4-0.3-0.6c-0.3-0.7-0.4-1.2-0.4-1.5c0.1-0.9,3-3.2,6.5-5.9c4.4-3.5,9.7-7.8,10.6-10.7c1.5-5.2,6.7-25.7,6.7-25.7
			s-13,2.8-16.7,6c-3.7,3.2-19.4,30.2-20.1,37.1C470.5,311,470.6,311.9,470.9,312.9z"/>
		<path class="st12" d="M470.9,312.9c2.6,7.8,16.5,21.3,18.4,22.7c0,0,3.2-5.4,2.6-8.4c-0.6-2.6-6.5-12.2-8.1-16.2
			C481.5,310.5,476.1,310,470.9,312.9z"/>
		<path class="st12" d="M507.3,265.3v1.6c0,0-0.4,5,5.7,5.7c6.1,0.7,10.8-1.5,10.6-5.3c-0.5-3-1.1-5.5-1.2-7.9c0-0.9,0-1.9,0.2-3
			l-11.9-0.2l-3.5,0.6L507.3,265.3z"/>
		<path class="st13" d="M507.2,256.7l0,8.6c1.3,0.6,2.7,0.9,4.3,0.9c5.5,0,9-4,10.8-6.9c0-0.9,0-1.9,0.2-3l-11.9-0.2L507.2,256.7z"
			/>
		<path class="st7" d="M508.1,409.3c-0.4,2.1-0.6,3.8-0.7,5c-0.9,16.9-14.2,55.4-16.6,56.3c-3.7,1.4-9.5-1.6-12.6-2.5
			c-1.3-0.4-2.1-1.7-1.8-3c6.6-30.4,9-74.1,9.9-100c0.4-13,2.7-22,2.7-22s32.5-8.7,32.7,2.3C521.9,355.2,511,393.3,508.1,409.3z"/>
		<path class="st11" d="M508.1,409.3l-21.7-44.1c0.4-13,2.7-22,2.7-22s32.5-8.7,32.7,2.3C521.9,355.2,511,393.3,508.1,409.3z"/>
		<path class="st7" d="M500.8,345.5L518,470.1c0,0,7.6,1.8,13.4,0.4c0,0,5-66.3,4.6-82.3c-0.4-16,3.6-42.9-0.9-45.8
			C530.6,339.4,500.8,345.5,500.8,345.5z"/>
		<path class="st8" d="M488.1,345.7c0,0,8.8,5.1,21.5,5c5,0,9.3-0.4,13-1c10.2-1.5,15.4-4.4,15.3-5.4c0-1-0.1-4.1-0.2-5.5
			c-1.6-18.7-0.8-33.2-3-44.2c0-0.1,0-0.3-0.1-0.4c-2.9-13.9-7.4-21.9-9.7-25.1c-0.8-1.2-1.3-1.7-1.4-1.7c0,2.6-5.5,4.8-10,4.5
			c-3.8-0.2-6.3-3.1-6.3-4.7c-0.3,0-17.1,11.7-17.1,22.5C490.1,338.3,487.1,345.7,488.1,345.7z"/>
		<path class="st9" d="M522.5,349.6c0,0,0,0.1,0,0.2c10.2-1.5,15.4-4.4,15.3-5.4c0-1-0.1-4.1-0.2-5.5c-1.6-18.7-0.8-33.2-3-44.2
			C529.3,301.8,518.3,320.5,522.5,349.6z"/>
		<path class="st14" d="M494.6,326.3l1.4,4.6l1.4,4.5l59.2-17.8c0.1,0,0.2,0,0.2,0c0.1,0,0.2-0.1,0.2-0.1c0.8-0.5,0.9-2.5,0.3-4.7
			c0-0.1-0.1-0.2-0.1-0.4c-0.7-2.3-2-4.1-2.9-4.1c-0.1,0-0.2,0-0.2,0c-0.1,0-0.1,0-0.2,0.1L494.6,326.3z"/>
		<path class="st15" d="M495.9,330.9l1.4,4.5l59.2-17.8c0.1,0,0.2,0,0.2,0c0.1,0,0.2-0.1,0.2-0.1c0.8-0.5,0.9-2.5,0.3-4.7
			c-2.4,1.8-14,9.9-33.7,13.8C503.2,330.6,496.9,330.9,495.9,330.9z"/>
		<path class="st16" d="M494.5,326.3c1-0.3,2.4,1.5,3.1,4.1c0.8,2.5,0.5,4.8-0.4,5.1c-1,0.3-2.4-1.5-3.1-4.1
			C493.3,328.9,493.5,326.6,494.5,326.3z"/>
		<path class="st14" d="M553.4,306.8l7-1.1c0.1,0,0.1-0.1,0.2-0.1c0.1,0,0.1,0,0.2,0c1,0.1,2,2,2.4,4.4c0,0.1,0,0.3,0,0.4
			c0.1,1.1,0.1,2.1,0,2.9c-0.2,0.9-0.4,1.5-0.9,1.7c0,0,0,0,0,0c-0.1,0-0.2,0.1-0.2,0.1c-0.1,0-0.2,0-0.2,0l-61.1,9.9l-0.8-4.7
			l-0.8-4.7L553.4,306.8z"/>
		<path class="st15" d="M528,319.7c13.1-0.8,20-7.8,25.4-12.8l7-1.1c0.1,0,0.1-0.1,0.2-0.1c0.1,0,0.1,0,0.2,0c1,0.1,2,2,2.4,4.4
			c0,0.1,0,0.3,0,0.4c0.1,1.1,0.1,2.1,0,2.9c-0.3,0.9-0.7,1.6-0.9,1.7c0,0,0,0,0,0c-0.1,0-0.2,0.1-0.2,0.1c-0.1,0-0.2,0-0.2,0
			l-61.1,9.9l-0.8-4.7C501,320.4,507.3,321,528,319.7z"/>
		<path class="st16" d="M499.2,315.6c1-0.2,2.2,1.8,2.6,4.4c0.4,2.6-0.1,4.9-1.1,5c-1,0.2-2.2-1.8-2.6-4.4
			C497.7,318,498.2,315.7,499.2,315.6z"/>
		<path class="st12" d="M520.9,333.5c14.2-2.2,23.5-8.2,27.4-11.1c1.3-1,2-1.6,2-1.6c7.3-15.2-5.9-42-8.3-46.5
			c-2.6-4.9-18.4-7-18.4-7s2.5,7.4,3.5,17.1c1,9.7,11.5,28.5,11.1,30.1c-0.1,0.4-1.4,1.2-3.2,2.3c-5.5,3.1-16.1,8.2-16.8,9.4
			C517.3,327.8,520.9,333.5,520.9,333.5z"/>
		<path class="st12" d="M518.2,326.2c0,0-7.9-3.2-9.9-1.9c-1.9,1.3-5.2,3.2-5.2,4.5c0,1.3,4.1,4.8,7.5,5.8
			c3.5,1.1,10.2-1.2,10.2-1.2L518.2,326.2z"/>
		<path class="st8" d="M527.1,284.4c1,9.7,11.5,28.5,11.1,30.1c-0.1,0.4-1.4,1.2-3.2,2.3c0.1,0,0.2,0,0.4,0c8.3-0.4,12,4.2,13,5.6
			c1.3-1,2-1.6,2-1.6c7.3-15.2-5.9-42-8.3-46.5c-2.6-4.9-18.4-7-18.4-7S526.1,274.7,527.1,284.4z"/>
		<path class="st12" d="M506.6,260.9c0,0,15.2,3.1,17-6.4s4.9-15.5-4.7-17.9c-9.6-2.4-12.2,0.9-13.6,3.9
			C503.9,243.6,502.6,259.9,506.6,260.9z"/>
		<path class="st17" d="M523.2,257.2c0,0,2.9-6.3,5.4-9.1c2.5-2.8,1.1-16.7-9.5-16.3c-10.6,0.4-14.4,8-14.5,9.5
			c-0.1,1.4,8.5,0.3,10.8,2.2c2.3,1.9,0.1,5,2.8,6.1c2.7,1.1,4.8,1.1,4.4,3.6C522.2,255.8,523.2,257.2,523.2,257.2z"/>
		<path class="st8" d="M520,225.4c3,0.8,5.3,2,7,3.5c0.2,0.1,0.3,0.3,0.5,0.4c6.3,6,3.8,15.5,3.8,15.5s-0.8,2.4-1.4,3.3
			c-0.6,0.9-8.9-0.1-9.4-1.9c-0.4-1.8-2.1-3.7-2.1-3.7s-8.8-0.6-9.4-0.6c-2-0.1-7.7-2.1-7.7-2.1C501.4,239.3,504.6,221.6,520,225.4z
			"/>
		<path class="st9" d="M496.1,237.9c1.1-0.3,2.9-0.5,5.8-0.7c0,0,2.5,2.1,7.4,3.6c2.3-2.9,9-10,17.6-12.1c0,0,0,0,0.1,0
			c0.2,0.2,0.3,0.3,0.4,0.5c0,0,0.1,0.1,0.1,0.2c-7,1.2-13.7,9.1-16,12.1c2,0.5,4.2,0.9,6.8,1c0,0-15.4,0.3-22.4-3.4
			C495.4,238.9,495.5,238.1,496.1,237.9z"/>
		<path class="st9" d="M480.5,307.7c0.3,1.6,1.2,3.3,3.6,3.9c-0.1-0.2-0.2-0.4-0.3-0.6c-0.3-0.7-0.4-1.2-0.4-1.5
			c0.1-0.9,3-3.2,6.5-5.9c0.3-1.5,1-6.1,0-9.7C488.8,289.4,480.1,305.9,480.5,307.7z"/>
		<path class="st9" d="M536.6,315.8c0,0,10.6-0.9,14,5.3c0,0-0.3,2.1-2.3,1.4c0,0-8.9-6.1-13.3-5.6
			C534.9,316.8,535.6,315.8,536.6,315.8z"/>
		<path class="st9" d="M484.1,311.5c0,0-5.5,0.2-12.4,3.2c0,0-1.5-1.5-0.9-2.4C471.4,311.5,481.1,308.5,484.1,311.5z"/>
	</g>
</g>
<linearGradient id="SVGID_6_" gradientUnits="userSpaceOnUse" x1="179.7511" y1="580.4763" x2="83.8252" y2="414.6333" gradientTransform="matrix(1 0 0 -1 0 602)">
	<stop  offset="0" style="stop-color:#E4F5FF"/>
	<stop  offset="1" style="stop-color:#B4E2FD"/>
</linearGradient>
<path class="st18" d="M35.6,50.3L35.6,50.3c-17.7,19.6-14.3,53.4,4,83.7c18.2,30.1,50.8,55.7,90,58.7h0c24.5,1.9,52.2-5,74.5-17.9
	c22.3-12.9,38.8-31.7,41.4-53.4c2.6-21.6,1.9-38.4-3.3-51.9C237,56.1,227.3,45.7,211.6,37c-24.9-12-62.4-16-97.1-13.2
	c-17.3,1.4-33.9,4.4-47.7,9C52.9,37.3,42,43.3,35.6,50.3z M247.5,121.7c5.2-43.4-2.8-68.7-35-86.4C161.7,10.8,60.8,19.3,34.2,49
	C-3,90.2,49.6,188.6,129.5,194.7C179.3,198.5,242,166.8,247.5,121.7z"/>
<linearGradient id="SVGID_7_" gradientUnits="userSpaceOnUse" x1="390.9627" y1="381.278" x2="210.2237" y2="168.376" gradientTransform="matrix(1 0 0 -1 0 602)">
	<stop  offset="0" style="stop-color:#E4F5FF"/>
	<stop  offset="1" style="stop-color:#B4E2FD"/>
</linearGradient>
<path class="st19" d="M236.4,204.1L236.4,204.1c-19.1,10.7-31.3,23.4-39.7,35.8c-18.3,27.4-25.5,64.9-21.7,101.8
	c3.8,36.9,18.6,72.8,44.2,97.2c25.9,24.7,58.7,33.3,86.7,32.1l0,0c28.2-1.1,65.6-12.9,92-47.8c19.6-26,29.7-61.8,28-104.7
	c-1.7-40.6-12.4-67.5-26.1-85.8v0C360.4,179.9,285.7,176.5,236.4,204.1z M427.8,318.3c1.7,43.2-8.4,79.5-28.4,106
	c-26.9,35.5-64.9,47.5-93.5,48.6c-28.4,1.3-61.8-7.5-88.1-32.6c-51.9-49.5-59.9-145.7-22.7-201.5c8.5-12.7,21-25.6,40.4-36.4
	c49.9-28,125.9-24.6,165.9,29C415.3,250,426.1,277.3,427.8,318.3z"/>
<linearGradient id="SVGID_8_" gradientUnits="userSpaceOnUse" x1="390.9627" y1="387.278" x2="210.2237" y2="174.376" gradientTransform="matrix(1 0 0 -1 0 602)">
	<stop  offset="0" style="stop-color:#E4F5FF"/>
	<stop  offset="1" style="stop-color:#B4E2FD"/>
</linearGradient>
<path class="st20" d="M235.4,196.3c-19.4,10.8-31.8,23.7-40.4,36.4c-37.2,55.8-29.2,152,22.7,201.5c26.4,25.1,59.7,33.9,88.1,32.6
	c28.6-1.1,66.6-13.1,93.5-48.6c20-26.5,30.1-62.8,28.4-106c-1.7-41-12.5-68.2-26.5-87C361.3,171.7,285.3,168.4,235.4,196.3z"/>
<linearGradient id="SVGID_9_" gradientUnits="userSpaceOnUse" x1="364.4702" y1="387.5554" x2="390.8872" y2="417.0854" gradientTransform="matrix(1 0 0 -1 0 602)">
	<stop  offset="0.1302" style="stop-color:#152E45"/>
	<stop  offset="1" style="stop-color:#B5E2FD"/>
</linearGradient>
<path class="st21" d="M363.7,212.8l26.2-28.8l2.2,2l-26.2,28.8L363.7,212.8z"/>
<path class="st22" d="M366.3,212.3h12.2v3h-15.2v-15.2h3V212.3z"/>
<linearGradient id="SVGID_10_" gradientUnits="userSpaceOnUse" x1="373.5" y1="179.5" x2="415" y2="138" gradientTransform="matrix(1 0 0 -1 0 602)">
	<stop  offset="0" style="stop-color:#152E45"/>
	<stop  offset="1" style="stop-color:#D2EEFF"/>
</linearGradient>
<path class="st23" d="M373.9,420.8l42.2,42.2l-2.1,2.1l-42.2-42.2L373.9,420.8z"/>
<path class="st22" d="M374.3,423.3h12.2v-3h-15.2v15.2h3V423.3z"/>
<linearGradient id="SVGID_11_" gradientUnits="userSpaceOnUse" x1="404" y1="284" x2="439.5" y2="284" gradientTransform="matrix(1 0 0 -1 0 602)">
	<stop  offset="0.1302" style="stop-color:#152E45"/>
	<stop  offset="1" style="stop-color:#C4E8FE"/>
</linearGradient>
<path class="st24" d="M405,316.5h35v3h-35V316.5z"/>
<path class="st22" d="M407.1,317.7l8.6-8.6l-2.1-2.1l-10.7,10.7l10.7,10.7l2.1-2.1L407.1,317.7z"/>
<linearGradient id="SVGID_12_" gradientUnits="userSpaceOnUse" x1="193" y1="284" x2="162" y2="284" gradientTransform="matrix(1 0 0 -1 0 602)">
	<stop  offset="0.125" style="stop-color:#152E45"/>
	<stop  offset="1" style="stop-color:#DAF1FF"/>
</linearGradient>
<path class="st25" d="M193,319.5h-31v-3h31V319.5z"/>
<path class="st22" d="M190.5,317.7l-8.6-8.6l2.1-2.1l10.7,10.7L184,328.4l-2.1-2.1L190.5,317.7z"/>
<linearGradient id="SVGID_13_" gradientUnits="userSpaceOnUse" x1="234.9998" y1="385.9998" x2="197.9993" y2="423.0002" gradientTransform="matrix(1 0 0 -1 0 602)">
	<stop  offset="0.125" style="stop-color:#152E45"/>
	<stop  offset="1" style="stop-color:#C7EAFE"/>
</linearGradient>
<path class="st26" d="M233.8,216.9l-37-37l2.1-2.1l37,37L233.8,216.9z"/>
<path class="st22" d="M233.3,214.3h-12.2v3h15.2v-15.2h-3V214.3z"/>
<linearGradient id="SVGID_14_" gradientUnits="userSpaceOnUse" x1="226.7973" y1="173.1988" x2="201.2973" y2="147.1988" gradientTransform="matrix(1 0 0 -1 0 602)">
	<stop  offset="0" style="stop-color:#152E45"/>
	<stop  offset="1" style="stop-color:#E3F5FF"/>
</linearGradient>
<path class="st27" d="M229.9,427.9l-27.8,28.2l-2.1-2.1l27.8-28.2L229.9,427.9z"/>
<path class="st22" d="M227.3,428.3h-12.2v-3h15.2v15.2h-3V428.3z"/>
<path class="st17" d="M233.3,372l0.1,1.9c-0.8,0.1-1.7,0.1-2.6,0.1c-0.9,0-2.1,0-3.5,0c-0.9,0-1.6-0.2-2.1-0.7
	c-0.5-0.5-0.8-1.1-0.8-1.9v-8.6c0-0.8,0.3-1.5,0.8-1.9c0.5-0.5,1.2-0.7,2.1-0.7c1.4,0,2.5,0,3.5,0c0.9,0,1.8,0.1,2.6,0.1l-0.1,1.9
	h-5.4c-0.4,0-0.6,0.1-0.8,0.3c-0.1,0.2-0.2,0.5-0.2,0.9v2.4h5.6v1.9h-5.6v3.1c0,0.4,0.1,0.7,0.2,0.9c0.1,0.2,0.4,0.3,0.8,0.3H233.3z
	"/>
<path class="st17" d="M245.9,372.1v4.7h-1.6l-0.2-2.9h-7.6l-0.2,2.9h-1.6v-4.7h1.2c0.4-0.8,0.7-1.7,0.9-2.6c0.2-0.9,0.3-1.9,0.4-2.9
	c0.1-1.6,1-2.4,2.7-2.4h4.4v7.9H245.9z M242.1,372.1V366h-1.6c-0.3,0-0.6,0.1-0.8,0.3c-0.2,0.2-0.3,0.4-0.3,0.8
	c-0.1,1.1-0.3,2-0.5,2.8c-0.2,0.8-0.5,1.6-0.8,2.3H242.1z"/>
<path class="st17" d="M257,374h-2.2v-5.7c0-0.3,0-0.6,0.1-0.9l0-0.5h-0.1c-0.1,0.3-0.4,0.8-0.7,1.3l-4.2,5.8h-2v-9.8h2.2v5.7
	c0,0.5,0,0.9-0.1,1.4h0.1c0.2-0.5,0.5-0.9,0.7-1.2l4.2-5.9h2V374z"/>
<path class="st17" d="M268.9,364.2v9.8h-2.4v-4.3h-4.3v4.3h-2.4v-9.8h2.4v3.7h4.3v-3.7H268.9z"/>
<path class="st17" d="M276.5,363.9c1.3,0,2.2,0.3,2.8,0.8c0.6,0.5,0.9,1.4,0.9,2.7v6.7h-1.9l-0.3-1.5c-0.4,0.5-1,0.9-1.6,1.2
	c-0.6,0.3-1.3,0.5-2.1,0.5c-0.9,0-1.7-0.2-2.2-0.7c-0.6-0.5-0.9-1.2-0.9-2.1v-1c0-0.8,0.3-1.4,0.8-1.8c0.5-0.4,1.2-0.6,2.1-0.6h3.7
	v-0.6c0-0.4-0.1-0.7-0.2-0.9c-0.1-0.2-0.3-0.3-0.5-0.4c-0.3-0.1-0.6-0.1-1.1-0.1c-1,0-2.4,0.1-4.1,0.2l-0.2-1.7
	c0.7-0.1,1.5-0.2,2.5-0.3C275,364,275.8,363.9,276.5,363.9z M273.6,371.1c0,0.4,0.1,0.7,0.3,0.9c0.2,0.2,0.5,0.3,1,0.3
	c0.4,0,0.9-0.1,1.4-0.3c0.5-0.2,1-0.5,1.5-0.9v-1.5h-3.1c-0.4,0-0.7,0.1-0.8,0.3c-0.1,0.2-0.2,0.5-0.2,0.8V371.1z"/>
<path class="st17" d="M286.6,364c1.2,0,2.1,0,2.7,0c0.6,0,1.2,0,1.8,0.1v9.8h-2.4v-3.5h-2.2c-0.8,0-1.2,0.3-1.3,0.8l-0.7,2.6h-2.5
	l0.9-3c0.1-0.4,0.3-0.7,0.7-0.8c0.4-0.2,0.8-0.3,1.2-0.4v-0.1c-0.8-0.1-1.3-0.4-1.7-0.9c-0.3-0.4-0.5-1-0.5-1.8
	c0-0.7,0.1-1.3,0.3-1.7c0.2-0.4,0.6-0.8,1.2-1C284.8,364.1,285.6,364,286.6,364z M288.8,368.8v-2.9h-2.1c-0.5,0-0.8,0-1.1,0.1
	c-0.2,0.1-0.4,0.2-0.5,0.4c-0.1,0.2-0.1,0.5-0.1,0.9c0,0.4,0,0.7,0.1,0.9c0.1,0.2,0.2,0.3,0.5,0.4c0.2,0.1,0.6,0.1,1.1,0.1H288.8z"
	/>
<path class="st17" d="M307.3,374h-2.4v-8h-4.2v8h-2.4v-9.8h8.9V374z"/>
<path class="st17" d="M314.5,363.9c1.2,0,2.1,0.2,2.8,0.5c0.7,0.3,1.2,0.9,1.5,1.6c0.3,0.7,0.5,1.8,0.5,3s-0.2,2.3-0.5,3
	c-0.3,0.7-0.8,1.3-1.5,1.6c-0.7,0.3-1.7,0.5-2.8,0.5c-1.2,0-2.1-0.2-2.8-0.5c-0.7-0.3-1.2-0.9-1.5-1.6c-0.3-0.7-0.5-1.8-0.5-3
	s0.2-2.3,0.5-3c0.3-0.8,0.8-1.3,1.5-1.6C312.3,364.1,313.3,363.9,314.5,363.9z M314.5,365.9c-0.6,0-1.1,0.1-1.4,0.3
	c-0.3,0.2-0.6,0.5-0.7,1c-0.1,0.5-0.2,1.1-0.2,2c0,0.9,0.1,1.5,0.2,2c0.1,0.5,0.4,0.8,0.7,1c0.3,0.2,0.8,0.3,1.4,0.3
	c0.6,0,1.1-0.1,1.4-0.3c0.3-0.2,0.6-0.5,0.7-1c0.1-0.5,0.2-1.1,0.2-2c0-0.9-0.1-1.5-0.2-2c-0.1-0.5-0.4-0.8-0.7-1
	C315.6,366,315.1,365.9,314.5,365.9z"/>
<path class="st17" d="M331.6,372.1v4.7H330l-0.2-2.9h-7.6l-0.2,2.9h-1.6v-4.7h1.2c0.4-0.8,0.7-1.7,0.9-2.6c0.2-0.9,0.3-1.9,0.4-2.9
	c0.1-1.6,1-2.4,2.7-2.4h4.4v7.9H331.6z M327.9,372.1V366h-1.6c-0.3,0-0.6,0.1-0.8,0.3c-0.2,0.2-0.3,0.4-0.3,0.8
	c-0.1,1.1-0.3,2-0.5,2.8c-0.2,0.8-0.5,1.6-0.8,2.3H327.9z"/>
<path class="st17" d="M342.5,374h-2.4v-8H336v8h-2.4v-9.8h8.9V374z"/>
<path class="st17" d="M354.4,374h-2.2v-5.7c0-0.3,0-0.6,0.1-0.9l0-0.5h-0.1c-0.1,0.3-0.4,0.8-0.7,1.3l-4.2,5.8h-2v-9.8h2.2v5.7
	c0,0.5,0,0.9-0.1,1.4h0.1c0.2-0.5,0.5-0.9,0.7-1.2l4.2-5.9h2V374z"/>
<path class="st17" d="M361.6,363.9c0.6,0,1.1,0,1.8,0.1c0.6,0.1,1.2,0.2,1.7,0.4l-0.3,1.5c-0.7,0-1.6,0-2.7,0
	c-0.7,0-1.2,0.1-1.6,0.3c-0.4,0.2-0.6,0.5-0.8,0.9c-0.2,0.4-0.2,1.1-0.2,1.9c0,0.8,0.1,1.5,0.2,1.9c0.2,0.5,0.4,0.8,0.8,1
	c0.4,0.2,0.9,0.3,1.6,0.3c1.1,0,2.1-0.1,2.9-0.2l0.2,1.6c-1,0.4-2.2,0.6-3.6,0.6c-1.2,0-2.1-0.2-2.8-0.5c-0.7-0.3-1.2-0.9-1.5-1.6
	c-0.3-0.7-0.5-1.8-0.5-3s0.2-2.3,0.5-3c0.3-0.7,0.8-1.3,1.5-1.6C359.5,364.1,360.4,363.9,361.6,363.9z"/>
<path class="st17" d="M372.4,368.9c0.7,0.1,1.3,0.3,1.7,0.6c0.4,0.3,0.7,0.7,1,1.4c0.3,0.6,0.7,1.7,1.2,3.1h-2.5
	c-0.5-1.3-0.8-2.2-1-2.7c-0.2-0.5-0.5-0.9-0.8-1.1c-0.3-0.2-0.7-0.4-1.3-0.4h-1.1c0.1,0.3,0.1,0.6,0.1,0.9v3.3h-2.4v-9.8h2.4v2.7
	c0,0.4,0,0.8-0.1,1.1h1c0.6,0,1-0.1,1.3-0.4c0.3-0.2,0.6-0.6,0.8-1.1c0.2-0.5,0.5-1.3,0.9-2.4h2.5c-0.5,1.4-0.8,2.3-1.1,2.9
	c-0.2,0.5-0.5,0.9-0.9,1.2C373.7,368.6,373.1,368.8,372.4,368.9L372.4,368.9z"/>
<path class="st17" d="M383.1,363.9c1.3,0,2.2,0.3,2.8,0.8c0.6,0.5,0.9,1.4,0.9,2.7v6.7h-1.9l-0.3-1.5c-0.4,0.5-1,0.9-1.6,1.2
	c-0.6,0.3-1.3,0.5-2.1,0.5c-0.9,0-1.7-0.2-2.2-0.7c-0.6-0.5-0.9-1.2-0.9-2.1v-1c0-0.8,0.3-1.4,0.8-1.8c0.5-0.4,1.2-0.6,2.1-0.6h3.7
	v-0.6c0-0.4-0.1-0.7-0.2-0.9c-0.1-0.2-0.3-0.3-0.5-0.4c-0.3-0.1-0.6-0.1-1.1-0.1c-1,0-2.4,0.1-4.1,0.2l-0.2-1.7
	c0.7-0.1,1.5-0.2,2.5-0.3C381.6,364,382.4,363.9,383.1,363.9z M380.2,371.1c0,0.4,0.1,0.7,0.3,0.9c0.2,0.2,0.5,0.3,1,0.3
	c0.4,0,0.9-0.1,1.4-0.3c0.5-0.2,1-0.5,1.5-0.9v-1.5h-3.1c-0.4,0-0.7,0.1-0.8,0.3c-0.1,0.2-0.2,0.5-0.2,0.8V371.1z"/>
<path class="st17" d="M271.8,388.2v9.8h-2.4v-4.3h-4.3v4.3h-2.4v-9.8h2.4v3.7h4.3v-3.7H271.8z"/>
<path class="st17" d="M279.5,387.9c1.3,0,2.2,0.3,2.8,0.8c0.6,0.5,0.9,1.4,0.9,2.7v6.7h-1.9l-0.3-1.5c-0.4,0.5-1,0.9-1.6,1.2
	c-0.6,0.3-1.3,0.5-2.1,0.5c-0.9,0-1.7-0.2-2.2-0.7c-0.6-0.5-0.9-1.2-0.9-2.1v-1c0-0.8,0.3-1.4,0.8-1.8c0.5-0.4,1.2-0.6,2.1-0.6h3.7
	v-0.6c0-0.4-0.1-0.7-0.2-0.9c-0.1-0.2-0.3-0.3-0.5-0.4c-0.3-0.1-0.6-0.1-1.1-0.1c-1,0-2.4,0.1-4.1,0.2l-0.2-1.7
	c0.7-0.1,1.5-0.2,2.5-0.3C278,388,278.8,387.9,279.5,387.9z M276.6,395.1c0,0.4,0.1,0.7,0.3,0.9c0.2,0.2,0.5,0.3,1,0.3
	c0.4,0,0.9-0.1,1.4-0.3c0.5-0.2,1-0.5,1.5-0.9v-1.5h-3.1c-0.4,0-0.7,0.1-0.8,0.3c-0.1,0.2-0.2,0.5-0.2,0.8V395.1z"/>
<path class="st17" d="M299.3,388.2v9.8H297v-4.3h-4.3v4.3h-2.4v-9.8h2.4v3.7h4.3v-3.7H299.3z"/>
<path class="st17" d="M306.5,387.9c1.2,0,2.1,0.2,2.8,0.5c0.7,0.3,1.2,0.9,1.5,1.6c0.3,0.7,0.5,1.8,0.5,3s-0.2,2.3-0.5,3
	c-0.3,0.7-0.8,1.3-1.5,1.6c-0.7,0.3-1.7,0.5-2.8,0.5c-1.2,0-2.1-0.2-2.8-0.5c-0.7-0.3-1.2-0.9-1.5-1.6c-0.3-0.7-0.5-1.8-0.5-3
	s0.2-2.3,0.5-3c0.3-0.8,0.8-1.3,1.5-1.6C304.4,388.1,305.3,387.9,306.5,387.9z M306.5,389.9c-0.6,0-1.1,0.1-1.4,0.3
	c-0.3,0.2-0.6,0.5-0.7,1c-0.1,0.5-0.2,1.1-0.2,2c0,0.9,0.1,1.5,0.2,2c0.1,0.5,0.4,0.8,0.7,1c0.3,0.2,0.8,0.3,1.4,0.3
	s1.1-0.1,1.4-0.3c0.3-0.2,0.6-0.5,0.7-1c0.1-0.5,0.2-1.1,0.2-2c0-0.9-0.1-1.5-0.2-2c-0.1-0.5-0.4-0.8-0.7-1
	C307.6,390,307.1,389.9,306.5,389.9z"/>
<path class="st17" d="M320.2,393c0.9,0.1,1.5,0.3,1.9,0.7c0.4,0.4,0.6,1,0.6,1.9c0,0.7-0.1,1.2-0.4,1.6c-0.3,0.4-0.7,0.6-1.3,0.8
	c-0.6,0.1-1.4,0.2-2.3,0.2c-2.1,0-3.7,0-4.9-0.1v-9.8c1.1-0.1,2.5-0.1,4.4-0.1c1.1,0,1.9,0.1,2.5,0.2c0.6,0.1,1,0.4,1.3,0.8
	c0.3,0.4,0.4,0.9,0.4,1.6c0,0.7-0.2,1.2-0.5,1.6C321.4,392.7,320.9,392.9,320.2,393L320.2,393z M316,389.9v2.3h2.2
	c0.7,0,1.2-0.1,1.4-0.3c0.3-0.2,0.4-0.5,0.4-1c0-0.4-0.1-0.7-0.4-0.8c-0.3-0.2-0.8-0.2-1.6-0.2H316z M318.2,396.3
	c0.7,0,1.3-0.1,1.5-0.3c0.3-0.2,0.4-0.5,0.4-1c0-0.5-0.2-0.8-0.5-1c-0.3-0.2-0.8-0.3-1.6-0.3H316v2.6H318.2z"/>
<path class="st17" d="M329.1,391.7c1.1,0,1.9,0.1,2.5,0.3c0.6,0.2,1,0.5,1.3,1c0.3,0.5,0.4,1.1,0.4,1.9c0,0.8-0.1,1.5-0.4,1.9
	c-0.3,0.5-0.7,0.8-1.2,1c-0.5,0.2-1.3,0.3-2.2,0.3c-1.9,0-3.4,0-4.5-0.1h-0.1v-9.8h2.3v3.5H329.1z M337.2,388.2v9.8h-2.4v-9.8H337.2
	z M329.1,396.3c0.7,0,1.2-0.1,1.4-0.3c0.3-0.2,0.4-0.6,0.4-1.2c0-0.6-0.1-0.9-0.4-1.1c-0.2-0.2-0.7-0.3-1.4-0.3h-1.8v2.9H329.1z"/>
<path class="st17" d="M344.8,396.3c1,0,2.2-0.1,3.5-0.2l0.2,1.6c-0.5,0.2-1.1,0.4-1.8,0.5c-0.7,0.1-1.5,0.2-2.2,0.2
	c-1.2,0-2.2-0.2-2.9-0.5c-0.7-0.3-1.2-0.9-1.6-1.6c-0.3-0.7-0.5-1.7-0.5-3c0-1.3,0.2-2.3,0.5-3.1c0.3-0.7,0.8-1.3,1.5-1.6
	c0.7-0.3,1.6-0.5,2.7-0.5c1.6,0,2.7,0.3,3.4,0.9c0.7,0.6,1.1,1.4,1.1,2.5c0,0.9-0.2,1.6-0.6,2.1c-0.4,0.5-1.1,0.7-2,0.7h-4
	c0.1,0.6,0.2,1,0.4,1.3c0.2,0.3,0.5,0.5,0.8,0.6C343.7,396.2,344.2,396.3,344.8,396.3z M344.4,389.8c-0.6,0-1,0.1-1.4,0.2
	c-0.3,0.1-0.6,0.4-0.7,0.8c-0.1,0.4-0.2,0.9-0.3,1.6h3.4c0.3,0,0.6-0.1,0.7-0.3c0.1-0.2,0.2-0.5,0.2-0.8c0-0.5-0.1-0.9-0.4-1.1
	C345.6,389.9,345.1,389.8,344.4,389.8z"/>
<path class="st17" d="M253.4,411.9c1.2,0,2.1,0.2,2.8,0.5c0.7,0.3,1.2,0.9,1.5,1.6c0.3,0.7,0.5,1.8,0.5,3s-0.2,2.3-0.5,3
	c-0.3,0.7-0.8,1.3-1.5,1.6c-0.7,0.3-1.7,0.5-2.8,0.5c-1.2,0-2.1-0.2-2.8-0.5c-0.7-0.3-1.2-0.9-1.5-1.6c-0.3-0.7-0.5-1.8-0.5-3
	s0.2-2.3,0.5-3c0.3-0.8,0.8-1.3,1.5-1.6C251.3,412.1,252.2,411.9,253.4,411.9z M253.4,413.9c-0.6,0-1.1,0.1-1.4,0.3
	c-0.3,0.2-0.6,0.5-0.7,1c-0.1,0.5-0.2,1.1-0.2,2c0,0.9,0.1,1.5,0.2,2c0.1,0.5,0.4,0.8,0.7,1c0.3,0.2,0.8,0.3,1.4,0.3
	c0.6,0,1.1-0.1,1.4-0.3c0.3-0.2,0.6-0.5,0.7-1c0.1-0.5,0.2-1.1,0.2-2c0-0.9-0.1-1.5-0.2-2c-0.1-0.5-0.4-0.8-0.7-1
	C254.5,414,254,413.9,253.4,413.9z"/>
<path class="st17" d="M269.4,409.1c-0.5,0.3-1,0.5-1.4,0.6c-0.4,0.1-0.9,0.2-1.5,0.3c-0.1,0-0.3,0-0.7,0.1c-0.3,0-0.7,0.1-1,0.2
	c-1.3,0.4-2.1,1.2-2.4,2.5c-0.1,0.5-0.2,1-0.3,1.5h0c0.3-0.6,0.8-1,1.3-1.3c0.5-0.3,1.3-0.5,2.3-0.5c1,0,1.8,0.2,2.3,0.5
	c0.6,0.3,1,0.8,1.3,1.5c0.3,0.7,0.4,1.6,0.4,2.7c0,1.1-0.1,2.1-0.4,2.8c-0.3,0.7-0.8,1.3-1.5,1.7s-1.6,0.6-2.8,0.6
	c-1.4,0-2.5-0.3-3.2-0.8c-0.7-0.5-1.1-1.2-1.3-2c-0.2-0.9-0.3-2-0.3-3.4c0-1.5,0.1-2.7,0.3-3.7c0.2-1,0.5-1.8,1.1-2.4
	c0.5-0.7,1.3-1.1,2.3-1.4c0.5-0.2,1.2-0.3,1.9-0.4c0.6-0.1,1.2-0.2,1.6-0.3c0.4-0.1,0.9-0.3,1.4-0.6L269.4,409.1z M265.3,414.4
	c-0.7,0-1.1,0.1-1.5,0.3c-0.3,0.2-0.5,0.5-0.7,0.9c-0.1,0.4-0.2,0.9-0.2,1.6c0,0.8,0.1,1.4,0.2,1.9c0.1,0.4,0.4,0.8,0.7,0.9
	c0.3,0.2,0.8,0.3,1.3,0.3c0.6,0,1-0.1,1.3-0.3c0.3-0.2,0.5-0.5,0.7-0.9c0.1-0.4,0.2-1.1,0.2-1.9c0-0.8-0.1-1.3-0.2-1.7
	c-0.1-0.4-0.3-0.7-0.6-0.8C266.2,414.5,265.8,414.4,265.3,414.4z"/>
<path class="st17" d="M278.8,415.7c1.1,0,1.9,0.1,2.5,0.3c0.6,0.2,1,0.5,1.3,1c0.3,0.5,0.4,1.1,0.4,1.9c0,0.8-0.1,1.5-0.4,1.9
	c-0.3,0.5-0.7,0.8-1.2,1c-0.5,0.2-1.3,0.3-2.2,0.3c-1.9,0-3.4,0-4.5-0.1v-8h-3.3v-1.8h5.7v3.5H278.8z M278.8,420.3
	c0.7,0,1.2-0.1,1.4-0.3c0.3-0.2,0.4-0.6,0.4-1.2c0-0.6-0.1-0.9-0.4-1.1c-0.2-0.2-0.7-0.3-1.4-0.3H277v2.9H278.8z"/>
<path class="st17" d="M288.8,412c1.2,0,2.1,0,2.7,0c0.6,0,1.2,0,1.8,0.1v9.8H291v-3.5h-2.2c-0.8,0-1.2,0.3-1.3,0.8l-0.7,2.6h-2.5
	l0.9-3c0.1-0.4,0.3-0.7,0.7-0.8c0.4-0.2,0.8-0.3,1.2-0.4v-0.1c-0.8-0.1-1.3-0.4-1.7-0.9c-0.3-0.4-0.5-1-0.5-1.8
	c0-0.7,0.1-1.3,0.3-1.7c0.2-0.4,0.6-0.8,1.2-1C287,412.1,287.8,412,288.8,412z M291,416.8v-2.9h-2.1c-0.5,0-0.8,0-1.1,0.1
	c-0.2,0.1-0.4,0.2-0.5,0.4c-0.1,0.2-0.1,0.5-0.1,0.9c0,0.4,0,0.7,0.1,0.9c0.1,0.2,0.2,0.3,0.5,0.4c0.2,0.1,0.6,0.1,1.1,0.1H291z"/>
<path class="st17" d="M302.6,417c0.9,0.1,1.5,0.3,1.9,0.7c0.4,0.4,0.6,1,0.6,1.9c0,0.7-0.1,1.2-0.4,1.6c-0.3,0.4-0.7,0.6-1.3,0.8
	c-0.6,0.1-1.4,0.2-2.3,0.2c-2.1,0-3.7,0-4.9-0.1v-9.8c1.1-0.1,2.5-0.1,4.4-0.1c1.1,0,1.9,0.1,2.5,0.2c0.6,0.1,1,0.4,1.3,0.8
	c0.3,0.4,0.4,0.9,0.4,1.6c0,0.7-0.2,1.2-0.5,1.6C303.9,416.7,303.4,416.9,302.6,417L302.6,417z M298.4,413.9v2.3h2.2
	c0.7,0,1.2-0.1,1.4-0.3c0.3-0.2,0.4-0.5,0.4-1c0-0.4-0.1-0.7-0.4-0.8c-0.3-0.2-0.8-0.2-1.6-0.2H298.4z M300.7,420.3
	c0.7,0,1.3-0.1,1.5-0.3c0.3-0.2,0.4-0.5,0.4-1c0-0.5-0.2-0.8-0.5-1c-0.3-0.2-0.8-0.3-1.6-0.3h-2.2v2.6H300.7z"/>
<path class="st17" d="M316.1,422h-2.4v-8h-1.6c-0.4,0-0.6,0.1-0.8,0.2c-0.1,0.1-0.2,0.4-0.3,0.9c-0.2,1.1-0.3,2.1-0.4,2.8
	c-0.1,0.7-0.2,1.3-0.4,1.9c-0.4,1.6-1.5,2.3-3.2,2.3c-0.2,0-0.4,0-0.5,0l-0.2-1.8c0.5-0.1,0.9-0.2,1.1-0.4c0.2-0.2,0.4-0.4,0.6-0.8
	c0.3-0.9,0.5-2.3,0.7-4.4c0.1-0.8,0.3-1.4,0.8-1.8c0.4-0.4,1.1-0.6,2-0.6h4.7V422z"/>
<path class="st17" d="M323.7,420.3c1,0,2.2-0.1,3.5-0.2l0.2,1.6c-0.5,0.2-1.1,0.4-1.8,0.5c-0.7,0.1-1.5,0.2-2.2,0.2
	c-1.2,0-2.2-0.2-2.9-0.5c-0.7-0.3-1.2-0.9-1.6-1.6c-0.3-0.7-0.5-1.7-0.5-3c0-1.3,0.2-2.3,0.5-3.1c0.3-0.7,0.8-1.3,1.5-1.6
	c0.7-0.3,1.6-0.5,2.7-0.5c1.6,0,2.7,0.3,3.4,0.9c0.7,0.6,1.1,1.4,1.1,2.5c0,0.9-0.2,1.6-0.6,2.1c-0.4,0.5-1.1,0.7-2,0.7h-4
	c0.1,0.6,0.2,1,0.4,1.3c0.2,0.3,0.5,0.5,0.8,0.6C322.6,420.2,323.1,420.3,323.7,420.3z M323.4,413.8c-0.6,0-1,0.1-1.4,0.2
	s-0.6,0.4-0.7,0.8c-0.1,0.4-0.2,0.9-0.3,1.6h3.4c0.3,0,0.6-0.1,0.7-0.3c0.1-0.2,0.2-0.5,0.2-0.8c0-0.5-0.1-0.9-0.4-1.1
	C324.6,413.9,324.1,413.8,323.4,413.8z"/>
<path class="st17" d="M339,412.2v9.8h-2.4v-4.3h-4.3v4.3H330v-9.8h2.4v3.7h4.3v-3.7H339z"/>
<path class="st17" d="M350.9,422h-2.2v-5.7c0-0.3,0-0.6,0.1-0.9l0-0.5h-0.1c-0.1,0.3-0.4,0.8-0.7,1.3l-4.2,5.8h-2v-9.8h2.2v5.7
	c0,0.5,0,0.9-0.1,1.4h0.1c0.2-0.5,0.5-0.9,0.7-1.2l4.2-5.9h2V422z"/>
<path class="st17" d="M357.5,412c1.2,0,2.1,0,2.7,0c0.6,0,1.2,0,1.8,0.1v9.8h-2.4v-3.5h-2.2c-0.8,0-1.2,0.3-1.3,0.8l-0.7,2.6h-2.5
	l0.9-3c0.1-0.4,0.3-0.7,0.7-0.8c0.4-0.2,0.8-0.3,1.2-0.4v-0.1c-0.8-0.1-1.3-0.4-1.7-0.9c-0.3-0.4-0.5-1-0.5-1.8
	c0-0.7,0.1-1.3,0.3-1.7c0.2-0.4,0.6-0.8,1.2-1C355.6,412.1,356.5,412,357.5,412z M359.7,416.8v-2.9h-2.1c-0.5,0-0.8,0-1.1,0.1
	c-0.2,0.1-0.4,0.2-0.5,0.4c-0.1,0.2-0.1,0.5-0.1,0.9c0,0.4,0,0.7,0.1,0.9c0.1,0.2,0.2,0.3,0.5,0.4c0.2,0.1,0.6,0.1,1.1,0.1H359.7z"
	/>
<linearGradient id="SVGID_15_" gradientUnits="userSpaceOnUse" x1="299.59" y1="381.121" x2="299.59" y2="268" gradientTransform="matrix(1 0 0 -1 0 602)">
	<stop  offset="0" style="stop-color:#2F5981"/>
	<stop  offset="1" style="stop-color:#1D3F5E"/>
</linearGradient>
<path class="st28" d="M348.2,334H251v-82.2l48.6-30.9l48.6,30.9V334z"/>
<linearGradient id="SVGID_16_" gradientUnits="userSpaceOnUse" x1="299.629" y1="385" x2="299.629" y2="274.285" gradientTransform="matrix(1 0 0 -1 0 602)">
	<stop  offset="0.5052" style="stop-color:#FFFFFF"/>
	<stop  offset="0.7812" style="stop-color:#DFF3FF"/>
</linearGradient>
<path class="st29" d="M342.8,217h-86.2v110.7h86.2V217z"/>
<linearGradient id="SVGID_17_" gradientUnits="userSpaceOnUse" x1="299.59" y1="329.681" x2="299.59" y2="268" gradientTransform="matrix(1 0 0 -1 0 602)">
	<stop  offset="0" style="stop-color:#3F88CB"/>
	<stop  offset="1" style="stop-color:#2B68A0"/>
</linearGradient>
<path class="st30" d="M348.2,272.3V334H251v-61.7c4.2,2.3,8.3,4.8,12.4,7.3c4.1,2.5,8.2,5,12.3,7.4c4.6,2.8,9.1,5.6,13.6,8.5
	c0.1,0,0.1-0.1,0.2-0.1c-0.1,0-0.1,0.1-0.2,0.1c3.4,2.1,6.8,4.3,10.2,6.4c3.4-2.1,6.7-4.3,10.2-6.4c-0.1,0-0.1-0.1-0.2-0.1
	c0.1,0,0.1,0.1,0.2,0.1c4.6-2.9,9.1-5.7,13.6-8.5c4.1-2.5,8.2-5,12.3-7.4C339.9,277.2,344,274.7,348.2,272.3z"/>
<path class="st31" d="M348.2,272.3c-4,2.8-7.9,5.4-11.9,8.1c-4,2.6-8,5.3-12,7.9c-4.2,2.7-8.4,5.4-12.6,8.1
	c-0.2,0.1-0.2,0.2-0.4,0.2c-3.7,2.4-7.4,4.7-11.2,7.1l-0.5,0.3l-0.5-0.3c-3.7-2.4-7.4-4.7-11.2-7.1c-0.2-0.1-0.2-0.2-0.4-0.2
	c-4.2-2.7-8.5-5.4-12.6-8.1c-4-2.6-8-5.3-11.9-7.9c-4-2.7-8-5.4-11.9-8.1c4.2,2.3,8.3,4.8,12.4,7.3c4.1,2.5,8.2,5,12.3,7.4
	c4.6,2.8,9.1,5.6,13.6,8.5c3.4,2.1,6.8,4.3,10.2,6.4c3.4-2.1,6.7-4.3,10.2-6.4c4.6-2.9,9.1-5.7,13.6-8.5c4.1-2.5,8.2-5,12.3-7.4
	C339.9,277.2,344,274.7,348.2,272.3z"/>
<path class="st31" d="M289.5,295.4c-0.1,0-0.1,0.1-0.2,0.1c-0.5,0.5-1,0.9-1.6,1.3c-2.4,2.1-5,4-7.4,6c-3.1,2.3-6.3,4.7-9.5,6.9
	c-3.2,2.2-6.4,4.4-9.7,6.5c-3.3,2.1-6.6,4.2-10,6.1c2.9-2.6,6.1-5,9.1-7.4c3.1-2.3,6.3-4.7,9.5-6.9c3.2-2.2,6.4-4.4,9.7-6.5
	c2.6-1.7,5.3-3.3,8-4.9c0.6-0.4,1.2-0.7,1.9-1.1C289.4,295.4,289.5,295.4,289.5,295.4z"/>
<path class="st31" d="M347.9,322.2c-3.4-1.9-6.7-4-10-6.1c-3.3-2.1-6.5-4.3-9.7-6.5c-3.2-2.2-6.4-4.5-9.5-6.9
	c-2.6-1.9-5-3.9-7.4-5.9c-0.5-0.5-1-0.9-1.6-1.3c-0.1,0-0.1-0.1-0.2-0.1c0.1,0,0.1,0.1,0.2,0.1c0.6,0.4,1.2,0.7,1.9,1.1
	c2.7,1.6,5.4,3.2,8,4.9c3.3,2.1,6.5,4.3,9.7,6.5c3.2,2.2,6.4,4.5,9.5,6.9C341.9,317.2,345,319.6,347.9,322.2z"/>
<g>
	<defs>
		
			<rect id="SVGID_18_" x="278.8" y="240.6" transform="matrix(0.9552 -0.296 0.296 0.9552 -64.2997 100.8761)" width="44.4" height="44.4"/>
	</defs>
	<clipPath id="SVGID_19_">
		<use xlink:href="#SVGID_18_"  style="overflow:visible;"/>
	</clipPath>
	<g class="st32">
		
			<linearGradient id="SVGID_20_" gradientUnits="userSpaceOnUse" x1="308.8289" y1="353.667" x2="298.2099" y2="322.432" gradientTransform="matrix(1 0 0 -1 1.379737e-05 602)">
			<stop  offset="0" style="stop-color:#E4F5FF"/>
			<stop  offset="1" style="stop-color:#B4E2FD"/>
		</linearGradient>
		<path class="st33" d="M284.8,260.8l10.8-12.2c0.5-0.5,1.2-0.7,1.8-0.6l15.8,4c1.2,0.3,2.2,1.3,2.6,2.5l4.9,15.7
			c0.6,2-0.5,4-2.4,4.6l-24.7,7.7c-2,0.6-4-0.5-4.6-2.4l0,0l-4.9-15.7C283.7,263.2,284,261.8,284.8,260.8z"/>
		<path class="st22" d="M302.1,273.6c-0.4,0.1-0.9,0.1-1.3-0.1l-4.4-2.3c-0.9-0.5-1.2-1.5-0.7-2.4c0.5-0.9,1.6-1.2,2.4-0.7l2.9,1.5
			l3.9-7.3c0.5-0.9,1.5-1.2,2.4-0.7c0.9,0.5,1.2,1.5,0.7,2.4l-4.7,8.9C302.9,273.1,302.6,273.4,302.1,273.6z"/>
	</g>
</g>
<linearGradient id="SVGID_21_" gradientUnits="userSpaceOnUse" x1="282.7702" y1="368.1305" x2="269.4192" y2="353.7604" gradientTransform="matrix(1 0 0 -1 0 602)">
	<stop  offset="0" style="stop-color:#E4F5FF"/>
	<stop  offset="1" style="stop-color:#B4E2FD"/>
</linearGradient>
<path class="st34" d="M266.7,234.8l8.8-4c0.4-0.2,0.8-0.1,1.1,0.1l7.6,6c0.6,0.5,0.9,1.2,0.8,2l-1.2,9.7c-0.1,1.2-1.2,2.1-2.4,1.9
	l-15.3-1.8c-1.2-0.1-2.1-1.2-1.9-2.4l0,0l1.2-9.7C265.5,235.8,266,235.1,266.7,234.8z"/>
<path class="st22" d="M273,245.9c-0.3,0-0.5-0.2-0.7-0.4l-1.8-2.3c-0.4-0.5-0.3-1.1,0.2-1.5c0.5-0.4,1.1-0.3,1.5,0.2l1.2,1.5l3.9-3
	c0.5-0.4,1.1-0.3,1.5,0.2c0.4,0.5,0.3,1.1-0.2,1.5l-4.7,3.7C273.5,245.9,273.3,246,273,245.9z"/>
<g>
	<defs>
		
			<rect id="SVGID_22_" x="309.8" y="225.4" transform="matrix(0.5491 -0.8358 0.8358 0.5491 -52.6181 373.6709)" width="20.4" height="20.4"/>
	</defs>
	<clipPath id="SVGID_23_">
		<use xlink:href="#SVGID_22_"  style="overflow:visible;"/>
	</clipPath>
	<g class="st35">
		
			<linearGradient id="SVGID_24_" gradientUnits="userSpaceOnUse" x1="327.4157" y1="367.8344" x2="313.2357" y2="362.4764" gradientTransform="matrix(1 0 0 -1 -1.519103e-05 602)">
			<stop  offset="0" style="stop-color:#E4F5FF"/>
			<stop  offset="1" style="stop-color:#B4E2FD"/>
		</linearGradient>
		<path class="st36" d="M316,229.3l7.5,0.2c0.3,0,0.6,0.2,0.7,0.5l3.2,6.8c0.3,0.5,0.2,1.2-0.1,1.7l-4.1,6.3c-0.5,0.8-1.6,1-2.4,0.5
			l-9.9-6.5c-0.8-0.5-1-1.6-0.5-2.4l0,0l4.1-6.3C314.8,229.6,315.4,229.3,316,229.3z"/>
		<path class="st22" d="M316.5,239.2c-0.2-0.1-0.3-0.3-0.3-0.5l-0.5-2.3c-0.1-0.5,0.2-0.9,0.6-1c0.5-0.1,0.9,0.2,1,0.6l0.3,1.5
			l3.7-0.8c0.5-0.1,0.9,0.2,1,0.6c0.1,0.5-0.2,0.9-0.6,1l-4.5,0.9C316.9,239.3,316.7,239.3,316.5,239.2z"/>
	</g>
</g>
<linearGradient id="SVGID_25_" gradientUnits="userSpaceOnUse" x1="169.0884" y1="173.2825" x2="76.3762" y2="14.2785" gradientTransform="matrix(1 0 0 -1 0 602)">
	<stop  offset="0" style="stop-color:#E4F5FF"/>
	<stop  offset="1" style="stop-color:#B4E2FD"/>
</linearGradient>
<path class="st37" d="M122.8,423C58.4,424,2.2,485.8,10.2,525.5c10.6,52.8,139.7,92,192,41.5c19.6-18.8,29.6-51.5,20.8-81.2
	 M122.8,423l0,1h0 M122.8,423l0,1c0,0,0,0,0,0 M122.8,423c36.8-0.5,87,18.9,100.2,62.9 M122.8,424C90.9,424.5,61,440,40,460.5
	c-10.5,10.2-18.7,21.6-23.8,32.9c-5.1,11.3-7,22.4-5.1,32c2.6,12.8,12.4,25,26.7,35.2C52.2,570.8,70.8,579,90.8,584
	c40,10.1,84.9,7.1,110.7-17.8l0,0c19.3-18.5,29.3-50.9,20.5-80.2 M122.8,424c18.3-0.2,39.8,4.4,58.5,14.6
	c18.6,10.2,34.3,25.9,40.8,47.5 M222,486.1C222,486.1,222,486.1,222,486.1l1-0.3 M222,486.1l1-0.3"/>
<linearGradient id="SVGID_26_" gradientUnits="userSpaceOnUse" x1="530.0472" y1="170.5137" x2="433.0612" y2="19.4837" gradientTransform="matrix(1 0 0 -1 0 602)">
	<stop  offset="0" style="stop-color:#E4F5FF"/>
	<stop  offset="1" style="stop-color:#B4E2FD"/>
</linearGradient>
<path class="st38" d="M547.4,561L547.4,561c16.1-18.1,23.8-45,23.7-70.2c-0.1-25.4-7.8-48.5-21.7-59.6c-11.4-9.1-28.3-11.1-47.4-7.7
	c-19.1,3.3-40,11.9-59.2,23.2c-19.2,11.3-36.5,25.3-48.5,39.5c-12,14.3-18.1,28.2-15.9,39.6 M550.6,429.7
	c29.1,23.3,31.4,95.5-1.7,132.7c-51.2,57.7-164.4,4.2-172.4-36.2C366.8,476.9,502.2,391.1,550.6,429.7z M378.5,525.8
	c1.9,9.4,10,19.9,22.4,29.6c12.3,9.6,28.6,18.2,46.2,23.7c35.4,11.1,75.5,9.9,100.3-18.1"/>
<g>
	<defs>
		<path id="SVGID_27_" d="M376.5,526.2c8,40.4,121.1,93.9,172.4,36.2c33.1-37.2,30.9-109.4,1.7-132.7
			C502.2,391.1,366.8,476.9,376.5,526.2z"/>
	</defs>
	<clipPath id="SVGID_28_">
		<use xlink:href="#SVGID_27_"  style="overflow:visible;"/>
	</clipPath>
	<g class="st39">
		
			<linearGradient id="SVGID_29_" gradientUnits="userSpaceOnUse" x1="520.1243" y1="146.283" x2="435.0843" y2="-26.939" gradientTransform="matrix(1 0 0 -1 0 602)">
			<stop  offset="0" style="stop-color:#E4F5FF"/>
			<stop  offset="1" style="stop-color:#B4E2FD"/>
		</linearGradient>
		<path class="st40" d="M603.5,566.2c-0.8,7.1-2.9,13.5-5.4,18.8c-0.2,0.4-0.4,0.9-0.6,1.3c0,0.1-0.1,0.1-0.1,0.2
			c-1.8,3.7-3.8,6.7-5.4,9.1c-0.9,1.4-4.1,4.3-10.5,7.8c-0.7,0.4-1.4,0.7-2.1,1.1c-13.1,6.7-37.7,15.1-80,19.7
			c-34.2,3.7-98.1,3.2-130.8-7.5c-9-2.9-19.3-16.1-19.3-16.1c-0.9-1.6-1.7-3.2-2.4-4.8c-0.1-0.1-0.1-0.3-0.2-0.4
			c-0.4-0.8-0.7-1.6-1-2.3c0,0,0,0,0,0c-0.2-0.7-0.4-1.4-0.6-2c-0.1-0.4-0.2-0.8-0.3-1.2c-0.5-2-0.7-3.8-0.8-5.5c0-0.3,0-0.6,0-0.9
			c0-0.9,0-1.8,0.1-2.7c0.1-0.6,0.2-1.2,0.3-1.8c0-0.1,0-0.1,0-0.2c0.1-0.6,0.3-1.2,0.4-1.8c0-0.2,0.1-0.3,0.1-0.5
			c0.2-0.5,0.3-1.1,0.5-1.6c0,0,0,0,0-0.1c0.4-1,0.8-1.9,1.2-2.8c0.7-1.4,1.4-2.7,2.2-4c1.1-1.9,2.3-3.7,3.5-5.6
			c4-6.4,7.7-13.5,6.6-24.1c-0.2-2.1-0.6-4.3-1.2-6.6c-0.7-2.6-1.2-5.1-1.5-7.6c-1.5-10.5-0.4-19.9,2.8-28.1
			c0.7-1.8,1.4-3.5,2.3-5.1c3.1-6,7.3-11.3,12.3-15.8c4.3-3.9,9.2-7.2,14.5-9.8c2.5-1.2,5-2.3,7.6-3.3c3.5-1.3,7.1-2.3,10.7-3.1
			c23.4-4.9,48.6,1.2,61.3,20.5c16.6,25.5,42,29.4,53,26.2c2.3-0.7,4.6-1.3,7-1.8c14.3-3.3,29.4-4,44.2,5.1c0,0,0,0,0,0c0,0,0,0,0,0
			c1.3,0.8,2.5,1.6,3.8,2.5c0.5,0.3,0.9,0.7,1.4,1c0.9,0.7,1.7,1.4,2.6,2.1c2.9,2.5,5.7,5.3,8.5,8.7c0.4,0.5,0.8,0.9,1.2,1.4
			c0.2,0.2,0.4,0.5,0.6,0.7c0.6,0.7,1.1,1.4,1.7,2.2c0.5,0.6,1,1.3,1.4,2c1.6,2.2,3,4.4,4.2,6.6c1.2,2.1,2.1,4.3,3,6.4
			c0.1,0.2,0.1,0.3,0.2,0.5c0,0.1,0.1,0.2,0.1,0.3c0.4,1.2,0.8,2.4,1.2,3.6c0.2,0.6,0.3,1.1,0.5,1.7c0.3,1.1,0.5,2.2,0.7,3.2
			C603.9,556.9,604,561.7,603.5,566.2z"/>
		<path class="st41" d="M666.4,518.7c0.9,5,1,9.8,0.5,14.3c-0.8,7.1-2.9,13.5-5.4,18.8c-0.2,0.4-0.4,0.9-0.6,1.3
			c0,0.1-0.1,0.1-0.1,0.2c-1.8,3.7-3.8,6.7-5.4,9.1c-1,1.5-4.7,4.9-12.6,8.9l-82,0.3v-0.3l-81.4,0.3h-7v-52.7h7v-11.7h13.9v10h4.2
			v-18.4h0.9v-1.3h0.2v1.3h3.4v-1.3h0.2v1.3h4.7v-1.3h0.2v1.3h3v-1.3h0.2v1.3h1.2v17.2h4.7v-2.8l5.5,0v-4.5h1.1v-0.9h0.2v0.9h4.3
			h0.9v-0.9h0.2v0.9h1v9h6.6v3.3h3.7V519h3.4v-7.6h1.7v-3.6h0.3v3.6h4.1v-6.6h0.4v6.6h2.7v-0.1v-0.8v-0.8v-1.3v-0.8v-1.3v-0.8V504
			v-0.9v-1.3v-1.2v-1.3v-0.9h0.8v-1h0.1v1h5.9v-1h0.1v1h1.1v7h0.8h0V504h0v-0.9h0v-1.3h0v-0.9h0v-1.3h0h7.2h1.2
			c0.1,0,0.1,0.1,0.2,0.1v7.6h5.3v10h4.2v-18.4h0.9v-1.3h0.2v1.3h3.3v-1.3h0.2v1.3h4.7v-1.3h0.2v1.3h3v-1.3h0.2v1.3h1.2v17.2h4.7
			v-2.8l5.5,0v-4.5h1.1v-0.9h0.2v0.9h4.3h0.9v-0.9h0.2v0.9h1v9h6.6v3.3h3.7V519h3.4v-7.6h1.7v-3.6h0.3v3.6h4.1v-6.6h0.4v6.6h2.7
			v-0.1v-0.8v-0.8v-1.3v-0.8v-1.3v-0.8V504v-0.9v-1.3v-1.2v-1.3v-0.9h0.8v-1h0.1v1h5.9v-1h0.1v1h1.1v7h0.8h0h0V504h0v-0.9h0v-1.3h0
			v-0.9h0v-1.3h0h7.2h1.2c0.1,0,0.1,0.1,0.2,0.1v7.6h8.8v10h4.2v-7.3c0.5,1.3,0.9,2.6,1.3,3.9c0.2,0.6,0.3,1.1,0.5,1.7
			C665.9,516.5,666.2,517.6,666.4,518.7z"/>
		<g class="st42">
			<path class="st43" d="M507.9,498.7h-10.3v2.9h10.3V498.7z"/>
			<path class="st43" d="M507.9,503.1h-10.3v2.9h10.3V503.1z"/>
			<path class="st43" d="M507.9,507.7h-10.3v2.9h10.3V507.7z"/>
			<path class="st43" d="M507.9,512.4h-10.3v2.9h10.3V512.4z"/>
			<path class="st43" d="M507.9,516.9h-10.3v2.9h10.3V516.9z"/>
			<g class="st42">
				<path class="st43" d="M557.2,498.4h-5.3v1.8h5.3V498.4z"/>
				<path class="st43" d="M557.2,501.1h-5.3v1.8h5.3V501.1z"/>
				<path class="st43" d="M557.2,503.9h-5.3v1.8h5.3V503.9z"/>
				<path class="st43" d="M557.2,506.7h-5.3v1.8h5.3V506.7z"/>
				<path class="st43" d="M557.2,509.4h-5.3v1.8h5.3V509.4z"/>
			</g>
			<g class="st42">
				<path class="st43" d="M557.2,512.4h-5.3v1.8h5.3V512.4z"/>
				<path class="st43" d="M557.2,515.2h-5.3v1.8h5.3V515.2z"/>
				<path class="st43" d="M557.2,517.9h-5.3v1.8h5.3V517.9z"/>
				<path class="st43" d="M557.2,520.8h-5.3v1.8h5.3V520.8z"/>
				<path class="st43" d="M557.2,523.5h-5.3v1.8h5.3V523.5z"/>
			</g>
			<g class="st42">
				<path class="st43" d="M566.9,499.5h-6v1.8h6V499.5z"/>
				<path class="st43" d="M566.9,502.3h-6v1.8h6V502.3z"/>
				<path class="st43" d="M566.9,505h-6v1.8h6V505z"/>
				<path class="st43" d="M566.9,507.9h-6v1.8h6V507.9z"/>
				<path class="st43" d="M566.9,510.6h-6v1.8h6V510.6z"/>
			</g>
			<g class="st42">
				<path class="st43" d="M566.9,513.4h-6v1.8h6V513.4z"/>
				<path class="st43" d="M566.9,516.2h-6v1.8h6V516.2z"/>
				<path class="st43" d="M566.9,518.9h-6v1.8h6V518.9z"/>
				<path class="st43" d="M566.9,521.8h-6v1.8h6V521.8z"/>
				<path class="st43" d="M566.9,524.5h-6v1.8h6V524.5z"/>
			</g>
			<g class="st42">
				<path class="st43" d="M566.9,527.6h-6v1.8h6V527.6z"/>
				<path class="st43" d="M566.9,530.4h-6v1.8h6V530.4z"/>
				<path class="st43" d="M566.9,533.1h-6v1.8h6V533.1z"/>
				<path class="st43" d="M566.9,536h-6v1.8h6V536z"/>
				<path class="st43" d="M566.9,538.7h-6v1.8h6V538.7z"/>
			</g>
		</g>
		<path class="st44" d="M621.2,542.6c0,0-14.3-1.4-18.8,6.9c-4.5,8.3-18.2-6.5-26.3-7.5s-16.7,4.6-17.3,8.6
			c-0.6,4-24.6-7.1-36.5,11.2l99.1-0.3L621.2,542.6z"/>
		<path class="st45" d="M660.8,553.3c-1.6,3.2-3.4,6-4.8,8.3c-0.2,0.3-0.4,0.6-0.6,0.9c-1,1.6-4.9,5.1-13.2,9.2
			c-13.3,6.6-37.7,14.9-79.5,19.4c-16.4,1.8-39.7,2.6-63.1,1.8c-0.8,0-1.7-0.1-2.5-0.1c-0.6,0-1.3,0-1.9-0.1c-1,0-2-0.1-3.1-0.1
			c-1.2-0.1-2.4-0.1-3.5-0.2c-0.6,0-1.3-0.1-1.9-0.1c-20.8-1.3-40.7-4-54.7-8.6c-9-2.9-19.3-16.1-19.3-16.1
			c-1.4-2.6-2.6-5.1-3.6-7.5c0,0,0,0,0,0c-0.2-0.7-0.4-1.4-0.6-2c11.2-0.4,33.5-0.5,61.5,3.3C507.4,566.2,623.8,549.6,660.8,553.3z"
			/>
		<path class="st46" d="M512.4,483.8c0,0,1.9-3.9,6.5-3.5c0,0,6.6-6.5,13.7-0.9c0,0,7.5-1.4,13.1,1.2c3.7,1.7,4.9,3.6,4.9,3.6
			L512.4,483.8z"/>
		<path class="st46" d="M487.7,466.8c0,0,2.3-4.5,7.8-4c0,0,7.9-7.4,16.4-1c0,0,9-1.6,15.7,1.4c4.4,2,5.9,4.1,5.9,4.1L487.7,466.8z"
			/>
		<path class="st47" d="M514.1,562.7H410.4c-0.1-0.1-0.1-0.3-0.2-0.4c-0.4-0.8-0.7-1.6-1-2.3c0,0,0,0,0,0c-0.2-0.7-0.4-1.4-0.6-2
			c-0.1-0.4-0.2-0.8-0.3-1.2c-0.5-2-0.7-3.8-0.8-5.5c0-0.3,0-0.6,0-0.9c0-0.9,0-1.7,0.1-2.6c0.1-0.7,0.2-1.3,0.3-1.9
			c0-0.1,0-0.1,0-0.2c0.1-0.6,0.2-1.1,0.4-1.7c0-0.2,0.1-0.3,0.1-0.5c0.2-0.6,0.3-1.1,0.5-1.7c0,0,0,0,0.1,0
			c12.5,2.4,25.4-4.8,40.8-1.7c19.2,3.9,25.4,18.1,31.6,15.9C487.5,553.9,513.6,553.9,514.1,562.7z"/>
		<path class="st48" d="M614,516.8l-11.1,22.9h-33.8l17.6-22.8L614,516.8z"/>
		<path class="st49" d="M615,516.8l-11.1,22.9h-33.8l17.6-22.8L615,516.8z"/>
		<path class="st49" d="M603.8,539.7v30.5l-33.7,0.1v-30.6H603.8z"/>
		<path class="st50" d="M571.7,538.7c-3.4,0-6.1,2.7-6.1,6.1v24.4h12.1v-24.6C577.6,541.3,575,538.7,571.7,538.7z"/>
		<path class="st49" d="M576.8,544.7v0.2h-10.4v0c0-2.9,2.4-5.3,5.3-5.3C574.6,539.6,576.8,541.9,576.8,544.7z"/>
		<path class="st51" d="M571.7,539.3c-3,0-5.5,2.5-5.5,5.5v0.3h10.9v-0.4C577.1,541.7,574.7,539.3,571.7,539.3z M566.6,544.7
			c0-1.4,0.7-2.7,1.6-3.6c0.1-0.1,0.2-0.2,0.3-0.3c0.9-0.7,2-1.1,3.1-1.1c1.1,0,2.1,0.4,2.9,1c0.1,0.1,0.2,0.2,0.3,0.3
			c1,0.9,1.6,2.2,1.6,3.7L566.6,544.7L566.6,544.7z"/>
		<path class="st51" d="M575.1,540.8L575,541l-2.7,3.7l-0.3,0.4h-0.2l-0.4-0.4l-3.1-3.5l-0.2-0.2l0.3-0.3l0.2,0.2l3.2,3.7l2.8-3.8
			l0.1-0.2L575.1,540.8z"/>
		<path class="st51" d="M578.6,545.7h-13.4v1h13.4V545.7z"/>
		<path class="st51" d="M576.8,568.3h-10.3v-20.7h10.3V568.3z M566.6,568.2h10.1v-20.5h-10.1V568.2z"/>
		<path class="st47" d="M512.8,572c0,0-2.8-7.6-4.7-7C506.1,565.7,512.8,572,512.8,572z"/>
		<path class="st47" d="M511.7,572c-0.2,0-4.6-4.6-4.9-3.4C506.5,569.8,511.7,572,511.7,572z"/>
		<path class="st47" d="M516.5,572c0,0-1.8-1.7-4.1-1.2c-2.3,0.4-3.3,0.9-4.7,0.6c-1.4-0.3-2.2,0.7-2.2,0.7H516.5z"/>
		<path class="st52" d="M539.7,546.9h-23.5v10.3h23.5V546.9z"/>
		<path class="st53" d="M519.3,572.1L519.3,572.1c-0.1,0-0.2-0.1-0.2-0.2l1.3-14.7h0.9l-1.7,14.7C519.5,572,519.4,572.1,519.3,572.1
			z"/>
		<path class="st53" d="M536.5,572.1L536.5,572.1c0.1,0,0.2-0.1,0.2-0.2l-1.3-14.7h-0.9l1.7,14.7C536.3,572,536.4,572.1,536.5,572.1
			z"/>
		<path class="st54" d="M519.6,553.4l0.5-0.5c0.4,0.4,0.8,0.6,1.4,0.6c0.5,0,0.8-0.2,0.8-0.6c0-0.3-0.2-0.5-1-0.7
			c-0.9-0.2-1.4-0.5-1.4-1.3c0-0.7,0.6-1.3,1.5-1.3c0.6,0,1.1,0.2,1.6,0.5l-0.4,0.6c-0.4-0.3-0.8-0.4-1.2-0.4
			c-0.4,0-0.7,0.2-0.7,0.5c0,0.3,0.2,0.5,1,0.7c0.9,0.2,1.4,0.6,1.4,1.3c0,0.8-0.6,1.3-1.5,1.3C520.8,554.1,520.2,553.9,519.6,553.4
			z"/>
		<path class="st54" d="M525.3,549.7h0.7l1.9,4.4h-0.8l-0.4-1h-2.1l-0.4,1h-0.8L525.3,549.7z M526.4,552.4l-0.7-1.7l-0.7,1.7H526.4z
			"/>
		<path class="st54" d="M528.7,549.7h0.8v3.6h2.3v0.7h-3V549.7L528.7,549.7z"/>
		<path class="st54" d="M532.5,549.7h3.2v0.7h-2.4v1.1h2.2v0.7h-2.2v1.2h2.5v0.7h-3.2L532.5,549.7L532.5,549.7z"/>
		<path class="st52" d="M539.7,546.9l3.2,5.4l-3.2,4.9V546.9z"/>
		<path class="st17" d="M488.2,479.8c-5.9-6.9-5.3-12.7-5.2-18c0.2-5.3-3.7-20.9-17-19.3c0,0-3.5-1.4-7.8,0.8
			c-7.9,4.1-23.6,36.5-17.1,46.5c1.3,1.9,3.4,3,6.5,2.9c0.9,0,2-0.2,3.1-0.5c-0.2-0.3,0.4-0.8,1.5-1.2c0.3-0.1,0.6-0.2,1-0.4
			c0.5-0.2,1.1-0.3,1.7-0.4c0.3-0.1,0.6-0.1,1-0.2c5.5-0.8,13.3,0.6,13.5,10.7c0,0,3-0.1,6.9-0.7c1.5-0.2,3.2-0.6,4.9-1
			c0.7-0.2,1.4-0.4,2.2-0.6c2-0.7,4-1.5,5.5-2.6C493.4,492.8,495.1,487.8,488.2,479.8z"/>
		<path class="st55" d="M509.5,510.1c0,0,2.3-3.6,4.2-3.6c1.9-0.1,5.4-1,5.1-0.4c-0.3,0.7-2.4,0.8-2.7,1.2c-0.2,0.4,3.2,1,4.2,1.1
			c1,0.1,3.3,0,3.2,0.5c-0.1,0.5-4.2,2.5-7,2.2c-2.9-0.3-6.4,0.8-6.4,0.8L509.5,510.1z"/>
		<path class="st55" d="M523.6,508.9c0,0.1-0.3,0.3-0.7,0.6c0,0,0,0,0-0.1l0,0c0,0,0,0,0,0c-0.1-0.1-0.1-0.2-0.2-0.4l0-0.1
			c-0.1-0.1-0.2-0.3-0.3-0.4C523,508.5,523.6,508.6,523.6,508.9z"/>
		<path class="st49" d="M475.6,511.2c0,0,1.3,2.5,3.6,5.4c2.8,3.5,7.1,7.5,12.5,8.3c2.6,0.4,5.1-0.2,7.4-1.2c0,0,0,0,0,0
			c6.5-2.9,11.5-9.6,11.5-9.6c1.2-3.1-0.7-5.3-0.7-5.3s-13.2,3-14.5,2.3c-1.3-0.6-8.6-21.8-10.3-24.4c-1.8-2.7-7.7-4-7.7-4
			L475.6,511.2z"/>
		<path class="st56" d="M479.2,516.6c2.8,3.5,7.1,7.5,12.5,8.3c2.6,0.4,5.1-0.2,7.4-1.2c-0.3,0-6.8,0.8-9.4-3.8
			c-2.7-4.7-5.5-12.3-9.5-9.8C478.5,511.2,478.6,513.9,479.2,516.6z"/>
		<path class="st55" d="M444.3,543.5c4.7-10.5,7.5-13.5,7-16.7c-0.4-2.4,1.2-45,1.2-45c0.6-0.2,1.7-0.3,2.3-0.5
			c1.9-0.4,3.5-1.8,4.2-3.6c0.8-2.2,1.4-5.5,1.4-9.6l0.6,0.1l10,2c0,0-0.2,3.2-0.2,6.1c0,0,0,0,0,0.1c0,2.6,1.7,4.9,4.2,5.6
			c1.3,0.4,2.4,0.7,2.4,0.7s3.7,10.5,4.4,21.3c0.7,10.8-6.7,15.5,0.1,37.1C488.6,563.2,441.8,549.3,444.3,543.5z"/>
		<path class="st57" d="M471,470.3c0,0-0.2,3.2-0.2,6.1c-5.6-0.2-8.6-5.3-9.8-8.1L471,470.3z"/>
		<path class="st55" d="M472.9,473.1c0,0-13.3,0.2-13.3-8.1c0-8.3-1.7-13.8,6.8-14.3c8.5-0.5,10.1,2.7,10.8,5.4
			C477.8,458.9,476.3,472.8,472.9,473.1z"/>
		<path class="st17" d="M472.4,450.5c0,0-3.6,9.7-9.2,11.1c-5.6,1.4-8-0.1-8-0.1s4.3-3.4,5.2-9.3
			C460.3,452.3,469.6,445.9,472.4,450.5z"/>
		<path class="st17" d="M471.5,451.3c0,0,2.7,1,3.8,3c1.1,1.9,2,4.5,1.8,7.6c0,0,2.7-6.6-0.3-10.3
			C473.5,447.6,471.5,451.3,471.5,451.3z"/>
		<path class="st58" d="M470,468c0,0,0.9,1.2,2.7,1.1c1.5-0.1,2.1-1.3,2.1-1.3S472.1,467.1,470,468z"/>
		<path class="st49" d="M446.2,500.7c0,0,0.1,6.3,0.4,12c0.2,3.8,0.6,7.3,1.1,8.6c1.4,3.1,2.9,3.7,2.9,3.7l11.9,2.9l4.2,1l13.2-3.9
			c0,0,6-16.8,3.6-26.2c-2.4-9.4-6.1-16-6.1-16s-10.8,10.5-24.8-0.9l-3.2,0.6L446.2,500.7z"/>
		<path class="st56" d="M446.5,512.7c0.2,3.8,0.6,7.3,1.1,8.6c1.4,3.1,2.9,3.7,2.9,3.7l11.9,2.9l5.2-1.5c0,0-17.2-2.6-15.3-17.4
			L446.5,512.7z"/>
		<path class="st59" d="M481.8,591.8c-6.7-0.5-13.2-1.1-19.4-2c-1.8-0.2-3.5-0.5-5.2-0.7c0.1-7.2,0.4-13.5,1-18.2
			c0.9-6.7,1.5-13.1,2-18.9c0.8-9.4,1-17.1,1.1-21.2c0-1.5,0.1-2.6,0.1-3.1c0-0.1,0-0.1,0-0.2c0-0.1,0-0.1,0-0.1H479
			c0,0,0.3,0.8,0.7,2.1c1.7,5.4,6,19.6,6.3,25.1C486.1,557.4,484.2,573.3,481.8,591.8z"/>
		<path class="st52" d="M476,550.6c-0.4,0.7-0.9,1.5-1.3,2.2c-6,11.1-10,25.9-12.4,37c-1.8-0.2-3.5-0.5-5.2-0.7
			c-6.7-1-13-2.2-18.6-3.7c0.5-7.4,0.9-16.2,1.2-23.6c0.2-3.5,0.3-6.7,0.5-9.2c0.1-1.3,0.2-2.4,0.3-3.3c0.1-1.4,0.5-2.9,1-4.4
			c0.2-0.5,0.4-1.1,0.6-1.6c1.2-3,2.8-6.1,4.3-8.8c1.3-2.3,2.6-4.2,3.6-5.6c0.9-1.3,1.4-2,1.4-2l4.9,0.4l0.8,0.1l4.2,0.4l1.1,0.1
			l0.1,0l5.9,0.5l2.5,0.2l0.9,0.1l2.6,0.2c0,0,0.2,0.6,0.4,1.7c0,0.1,0,0.2,0,0.2c0.1,0.2,0.1,0.5,0.2,0.8
			C476,536.5,477.9,547.3,476,550.6z"/>
		<path class="st54" d="M470.3,468.2c0,0,0.2,1,2.7,0.8c0,0,2-0.1,2-1.2C474.9,467.8,472.9,467,470.3,468.2z"/>
		<path class="st17" d="M480,524.3c0,0-2.6,2.1-7.8,2.2c-6.2,0.1-21.6-1.6-21.6-1.6s-0.7,1.9-0.7,3.9c0,0,18.8,4.7,29.7,0.7
			C479.6,529.5,481,526.9,480,524.3z"/>
		<path class="st54" d="M471.3,527.5h0.8c0.1-0.1,0.1-0.2,0.2-0.3L471.3,527.5z M471.3,527.5h0.8c0.1-0.1,0.1-0.2,0.2-0.3
			L471.3,527.5z M471.3,527.5h0.8c0.1-0.1,0.1-0.2,0.2-0.3L471.3,527.5z M471.3,527.5h0.8c0.1-0.1,0.1-0.2,0.2-0.3L471.3,527.5z
			 M476.3,527.5c-0.2-0.5-0.5-0.9-0.8-1.3c0,0,0,0-0.1,0c-0.5-0.4-1.1-0.7-1.8-0.7c-0.8,0-1.6,0.4-2.1,1.1c-0.2,0.3-0.4,0.6-0.5,1
			c0,0,0,0.1,0,0.1c-0.1,0.3-0.2,0.7-0.2,1c0,0,0,0.1,0,0.1c0,1,0.4,1.8,1,2.4c0.5,0.5,1.2,0.8,1.9,0.8c0.5,0,0.9-0.1,1.3-0.4
			c0.4-0.2,0.7-0.6,1-1c0.3-0.5,0.5-1.2,0.5-1.9C476.5,528.2,476.4,527.8,476.3,527.5z M474.2,530.8c-0.2,0.1-0.4,0.1-0.5,0.1
			c0,0-0.1,0-0.2,0c-1-0.1-1.7-1.1-1.7-2.3v0c0-0.4,0.1-0.8,0.3-1.2c0.1-0.1,0.1-0.2,0.2-0.3c0.2-0.3,0.6-0.6,1-0.7
			c0.2-0.1,0.3-0.1,0.5-0.1c0.1,0,0.1,0,0.2,0c0.2,0,0.3,0.1,0.5,0.2c0.4,0.2,0.7,0.5,0.9,0.9c0.2,0.3,0.3,0.8,0.3,1.2
			c0,0.8-0.3,1.4-0.8,1.9C474.6,530.7,474.4,530.8,474.2,530.8z M471.3,527.5h0.8c0.1-0.1,0.1-0.2,0.2-0.3L471.3,527.5z
			 M471.3,527.5h0.8c0.1-0.1,0.1-0.2,0.2-0.3L471.3,527.5z M471.3,527.5h0.8c0.1-0.1,0.1-0.2,0.2-0.3L471.3,527.5z"/>
		<path class="st17" d="M426.5,559l29.6,6.4l3.6-16.6l-29.6-6.4L426.5,559z"/>
		<path class="st60" d="M459.7,548.8c0,0-8.3,6.9-17.5,4.5c-9.2-2.4-12.1-10.9-12.1-10.9L459.7,548.8z"/>
		<path class="st60" d="M456.1,546.1c-0.2-0.1-0.4-0.1-0.6-0.1c-0.1,0-0.2,0-0.3,0c-0.7,0.1-1.3,0.7-1.4,1.5c0,0,0,0.1,0,0.2
			c0,0.9,0.7,1.6,1.6,1.6c0.7,0,1.3-0.5,1.6-1.1c0.1-0.2,0.1-0.3,0.1-0.5C457.2,547,456.7,546.3,456.1,546.1z M455.5,548.8
			c-0.6,0-1.1-0.5-1.1-1.1c0,0,0,0,0,0c0-0.6,0.5-1.1,1.1-1.1c0.6,0,1.1,0.5,1.1,1.1c0,0.2,0,0.3-0.1,0.4
			C456.4,548.5,456,548.8,455.5,548.8z"/>
		<path class="st61" d="M456.1,546.4c0-0.3,1.7-27.3,1.4-42.5c-0.2-8-1.4-13.6-2.4-16.9c-1.1-3.6-2.6-5.1-2.7-5.1l-0.6,0.1
			c0,0.1,4.6,6.9,4.9,21.9c0.3,15.1-1.4,42.1-1.4,42.4L456.1,546.4z"/>
		<path class="st55" d="M448.5,544.9c0.1,0.1,0.3,0.2,0.5,0.3c0.5,0.3,1.8,0.8,2.2,0.9c1,0.1,0.7,0.8-0.2,0.9
			c-0.2,0-0.7-0.1-0.9-0.1c0.5,1.1,0.8,2.8,0.9,5.4c0,0,0.1,2-1.5,0.6c-1.1-0.9-1.1-1.6-2.6-2.9c-1.5-1.3-2.1-3.4-1.7-4.8l-0.9-1.7
			l2.8-1.1l0.8,2C448.1,544.6,448.3,544.8,448.5,544.9z"/>
		<path class="st49" d="M451.7,482c0,0-6.9,1-8.7,3.2c-1.8,2.2-12.9,32.7-11,38.1c1.9,5.4,2.8,12.6,7.3,17.6
			c1.4,1.6,3.6,3.1,4.9,3.2c1.2,0.1,2.8-0.9,3.2-1.1c0.1,0,0.1-0.1,0.1-0.2c-0.3-1.9-3.4-22.6-2.4-24.4c1.1-1.9,8.8-10.1,9.3-14.5
			C455,499.5,451.7,482,451.7,482z"/>
		<path class="st17" d="M527,512L527,512c-0.2-0.6-0.5-1-0.9-1.4c-0.8-0.6-1.8-0.8-2.7-0.6c-0.1,0-0.2,0-0.2,0.1
			c-0.2,0.1-0.3,0.1-0.5,0.2c-0.4,0.2-0.7,0.5-1,0.8c-0.1,0.1-0.1,0.1-0.1,0.2c0,0-0.1,0-0.1,0.1c-0.3,0.4-0.5,0.9-0.5,1.4
			c0,0.1,0,0.2,0,0.2c0,0,0,0,0,0c0,0.1,0,0.2,0,0.2c0,0.2,0,0.3,0.1,0.4c0.1,0.7,0.5,1.4,1.1,1.9c1,0.9,2.4,0.9,3.5,0.3
			c0.3-0.2,0.6-0.4,0.9-0.8c0.3-0.3,0.4-0.6,0.6-1C527.2,513.4,527.2,512.7,527,512z M523.1,512.3c-0.2,0.3-0.6,0.3-0.8,0.2
			c-0.1,0-0.1,0-0.1-0.1c0,0-0.1-0.1-0.1-0.1c-0.1,0-0.1-0.1-0.1-0.2l0,0c-0.1-0.2,0-0.4,0.1-0.6c0.1-0.1,0.2-0.2,0.4-0.2l0,0
			c0,0,0.1,0,0.1,0c0.1,0,0.3,0,0.4,0.1c0,0,0,0,0.1,0c0.1,0.1,0.2,0.2,0.2,0.3C523.2,511.9,523.2,512.1,523.1,512.3z"/>
		<path class="st17" d="M526.8,516l0.8,0.7l0.2,1l0.7,0.6l0.7-0.9l0.4,0.3l-0.7,0.9l0.3,0.3l0.2-0.2l0.6,0.5l0.3-0.4l0.3,0.3
			l-0.5,0.6l0.5,0.4l0.7,0l0.3-0.4l0.5,0.4l0.9-1l-6.3-5.2l-1.5,1.8l1.2,0.9L526.8,516z"/>
		<path class="st17" d="M520.4,513.3c0-0.2,0-0.3-0.1-0.5c-0.2-0.8-0.7-1.5-1.4-1.9c-0.3-0.2-0.5-0.3-0.8-0.4
			c-0.1,0-0.2-0.1-0.3-0.1c-0.2,0-0.3,0-0.5,0c-0.7,0-1.3,0.2-1.9,0.6c-0.6,0.4-1,1-1.2,1.7c-0.3,1.3,0.2,2.6,1.2,3.3l0,0
			c0.3,0.2,0.6,0.4,1,0.5c0.4,0.1,0.8,0.1,1.2,0.1c1.2-0.1,2.3-1,2.7-2.3C520.4,514,520.4,513.7,520.4,513.3z M517.6,512.4
			c-0.4-0.1-0.6-0.4-0.5-0.8c0-0.2,0.2-0.3,0.4-0.4c0,0,0.1,0,0.1-0.1c0,0,0,0,0,0c0,0,0.1,0,0.1,0c0.1,0,0.1,0,0.2,0
			c0.4,0.1,0.6,0.5,0.5,0.8c0,0.2-0.1,0.3-0.3,0.4C517.9,512.4,517.8,512.5,517.6,512.4z"/>
		<path class="st17" d="M515.8,517.3l-0.3,1.1l-0.8,0.6l-0.2,0.9l1.1,0.3l-0.1,0.5l-1.1-0.3l-0.1,0.4l0.3,0.1l-0.2,0.7l0.5,0.1
			l-0.1,0.4l-0.8-0.2l-0.2,0.6l0.3,0.6l0.5,0.1l-0.2,0.6l1.3,0.3l2.1-7.9l-2.2-0.6l-0.4,1.4L515.8,517.3z"/>
		<path class="st52" d="M521.6,507.9L521.6,507.9c-0.1-0.1-0.2-0.1-0.4-0.2c-0.2-0.1-0.4-0.1-0.6-0.2c-0.1,0-0.2,0-0.2,0
			c-0.7-0.1-1.3,0.2-1.9,0.6c0,0,0,0,0,0l0,0c-0.7,0.5-1.1,1.2-1.1,2.1l0,0.2c0.2,0,0.3,0,0.5,0c0-0.1,0-0.1,0-0.2
			c0.1-0.9,0.6-1.7,1.4-2.1c0.3-0.2,0.7-0.2,1.1-0.2c0.1,0,0.3,0,0.4,0.1h0c0.1,0,0.2,0,0.2,0.1c0.2,0.1,0.4,0.1,0.6,0.3
			c0,0,0,0,0,0c0,0,0.1,0,0.1,0c0,0,0,0,0.1,0c0,0,0.1,0,0.1,0c0.1,0,0.1,0,0.1,0c0,0,0.1,0,0.1,0c0,0,0.1,0,0.1,0
			C522.1,508.2,521.9,508,521.6,507.9z M523.1,510.1c0-0.2-0.1-0.5-0.2-0.7c0,0,0,0-0.1,0c0,0,0,0,0,0c-0.1,0-0.1,0.1-0.2,0.1
			c0,0-0.1,0-0.1,0.1c0.1,0.2,0.1,0.4,0.1,0.6c0,0.1,0,0.2,0,0.3c0,0.1,0,0.1,0,0.2c0,0.2-0.1,0.4-0.1,0.6l0,0
			c-0.1,0.3-0.3,0.6-0.5,0.8l0,0c0,0.1,0.1,0.2,0.1,0.2c0,0.1,0.1,0.1,0.1,0.1c0,0,0,0.1,0.1,0.1c0.1-0.1,0.2-0.3,0.4-0.5l0,0
			c0.1-0.2,0.3-0.4,0.3-0.6l0,0c0,0,0-0.1,0-0.2c0.1-0.2,0.1-0.4,0.1-0.6c0-0.1,0-0.2,0-0.3C523.1,510.2,523.1,510.1,523.1,510.1z
			 M520.9,512.7c-0.2,0-0.4,0.1-0.5,0.1h-0.2c-0.7,0-1.3-0.4-1.7-0.9c-0.2-0.2-0.4-0.5-0.5-0.8c-0.1,0-0.1,0-0.2,0c0,0-0.1,0-0.1,0
			c0,0,0,0,0,0c0,0-0.1,0-0.2,0c0,0,0,0,0,0.1c0.1,0.4,0.3,0.8,0.6,1.1l0,0c0.5,0.5,1.2,0.9,2,0.9c0.1,0,0.2,0,0.4,0
			c0.1,0,0.1,0,0.2,0l0,0c0.1,0,0.2,0,0.2,0c0-0.1,0-0.2,0-0.2C520.9,512.9,520.9,512.8,520.9,512.7z"/>
		<path class="st47" d="M495.2,592.7c-1,0-2-0.1-3.1-0.1c1.6-3.1,5.7-10.7,7.9-9.7C502.1,583.7,497.6,589.7,495.2,592.7z"/>
		<path class="st47" d="M488.6,592.3c-0.6,0-1.3-0.1-1.9-0.1c0-1.8,0.3-8.2,2.2-8.7C490.9,583,489.2,590,488.6,592.3z"/>
	</g>
</g>
<linearGradient id="SVGID_30_" gradientUnits="userSpaceOnUse" x1="141.8142" y1="365.7236" x2="17.5419" y2="231.2876" gradientTransform="matrix(1 0 0 -1 0 602)">
	<stop  offset="0" style="stop-color:#E4F5FF"/>
	<stop  offset="1" style="stop-color:#B4E2FD"/>
</linearGradient>
<path class="st62" d="M16.2,238.4L16.2,238.4c-3.6,7.2-6.2,17.9-7.7,30.4c-1.5,12.5-1.9,26.8-1,41c0.9,14.2,2.9,28.4,6.4,40.8
	c3.4,12.4,8.1,22.9,14.1,29.8c12.8,15,33.8,23.5,60.5,25.5c11,0.8,21.6-3.4,31.3-11.1c9.7-7.7,18.4-18.9,25.4-31.8
	c14.1-25.8,21.1-58.1,16.4-82.4c-6.5-33.4-37.1-55.6-69.4-63.5c-16.1-3.9-32.4-4.3-46-0.8C32.5,219.9,21.7,227.2,16.2,238.4z
	 M26.3,381.7c-24.9-29.1-26.8-114.3-12-144.2C37.8,190,150,211.3,163.5,280.3c9.7,49.7-28.8,131-75.2,127.6
	C61.2,405.9,39.6,397.2,26.3,381.7z"/>
<path d="M167.3,78.2h-6.5V102h6.5V78.2z"/>
<path d="M151.7,78.2l-6.3,17.3L139,78.2h-6.5l8.7,23.7h1.7h4.7h1.7l8.7-23.7H151.7z"/>
<path d="M190.2,83.5v-5.2h-7.7v-6.5H176v6.5h-5.1v5.2h5.1v10.2c0,5.3,2.6,8.8,9.4,8.8c1.7,0,3.3-0.3,4.9-0.9l-0.8-5.2
	c-0.9,0.2-1.8,0.4-2.8,0.4c-1.9,0-4.2-0.8-4.2-3.5v-9.8H190.2z"/>
<path d="M127.7,102h7l-12.8-34.8h-5L104.1,102h7l2.4-6.6h11.9L127.7,102z M115.3,90.1l4-10.9l4,10.9H115.3z"/>
<path d="M205.1,77.6c-2.4,0.1-4.8,0.8-6.8,2.2c-2,1.4-3.6,3.4-4.5,5.6c-0.9,2.3-1.1,4.8-0.6,7.2c0.5,2.4,1.7,4.6,3.5,6.3
	c1.8,1.7,4,2.9,6.4,3.3c2.4,0.5,4.9,0.2,7.1-0.8c2.3-0.9,4.2-2.5,5.5-4.6c1.4-2,2.1-4.4,2.1-6.9c0-1.7-0.3-3.3-1-4.8
	c-0.6-1.5-1.6-2.9-2.8-4.1c-1.2-1.2-2.6-2.1-4.1-2.7C208.4,77.9,206.7,77.6,205.1,77.6z M205.1,96.5c-1.3,0-2.5-0.4-3.5-1.1
	c-1-0.7-1.8-1.7-2.3-2.9c-0.5-1.2-0.6-2.5-0.3-3.7c0.3-1.2,0.9-2.4,1.8-3.2c0.9-0.9,2-1.5,3.3-1.7c1.2-0.2,2.5-0.1,3.7,0.4
	c1.2,0.5,2.2,1.3,2.8,2.4c0.7,1.1,1.1,2.3,1.1,3.5c0,1.7-0.7,3.3-1.9,4.5S206.8,96.5,205.1,96.5z"/>
<path d="M168.3,71.3c0,0.8-0.2,1.6-0.7,2.3c-0.5,0.7-1.1,1.2-1.9,1.5c-0.8,0.3-1.6,0.4-2.4,0.2c-0.8-0.2-1.6-0.6-2.1-1.1
	c-0.6-0.6-1-1.3-1.1-2.1c-0.2-0.8-0.1-1.6,0.2-2.4c0.3-0.8,0.9-1.4,1.5-1.9c0.7-0.5,1.5-0.7,2.3-0.7c1.1,0,2.2,0.4,3,1.2
	C167.9,69.1,168.3,70.2,168.3,71.3z"/>
<path class="st63" d="M65.8,70.9c0,2.2-0.6,4.3-1.8,6.1c-1.2,1.8-2.9,3.2-4.9,4c-2,0.8-4.2,1-6.3,0.6c-2.1-0.4-4.1-1.5-5.6-3
	c-1.5-1.5-2.6-3.5-3-5.6c-0.4-2.1-0.2-4.3,0.6-6.3c0.8-2,2.2-3.7,4-4.9c1.8-1.2,3.9-1.8,6.1-1.8c1.4,0,2.9,0.3,4.2,0.8
	c1.3,0.5,2.5,1.4,3.5,2.4c1,1,1.8,2.2,2.4,3.5C65.6,68.1,65.8,69.5,65.8,70.9"/>
<path class="st64" d="M93.1,95.9c0,2.6-0.8,5.2-2.2,7.4c-1.5,2.2-3.5,3.9-6,4.9c-2.4,1-5.1,1.3-7.7,0.7c-2.6-0.5-4.9-1.8-6.8-3.6
	c-1.9-1.9-3.1-4.2-3.6-6.8c-0.5-2.6-0.2-5.2,0.8-7.7c1-2.4,2.7-4.5,4.9-6c2.2-1.5,4.7-2.2,7.4-2.2c1.7,0,3.5,0.3,5.1,1
	s3.1,1.6,4.3,2.9c1.2,1.2,2.2,2.7,2.9,4.3C92.8,92.4,93.1,94.1,93.1,95.9"/>
<path class="st65" d="M88.4,70.9c0,1.7-0.5,3.3-1.4,4.7c-0.9,1.4-2.3,2.5-3.8,3.1c-1.6,0.6-3.3,0.8-4.9,0.5
	c-1.7-0.3-3.2-1.1-4.4-2.3c-1.2-1.2-2-2.7-2.3-4.4c-0.3-1.7-0.2-3.4,0.5-4.9c0.6-1.6,1.7-2.9,3.1-3.8c1.4-0.9,3.1-1.4,4.7-1.4
	c1.1,0,2.2,0.2,3.3,0.7c1,0.4,2,1.1,2.8,1.9c0.8,0.8,1.4,1.7,1.9,2.8C88.2,68.7,88.4,69.8,88.4,70.9"/>
<path class="st66" d="M61.1,95.9c0,1.2-0.4,2.4-1,3.4c-0.7,1-1.6,1.8-2.8,2.3c-1.1,0.5-2.4,0.6-3.6,0.4c-1.2-0.2-2.3-0.8-3.2-1.7
	c-0.9-0.9-1.5-2-1.7-3.2c-0.2-1.2-0.1-2.4,0.4-3.6s1.3-2.1,2.3-2.8c1-0.7,2.2-1,3.4-1c0.8,0,1.6,0.2,2.4,0.5c0.7,0.3,1.4,0.8,2,1.3
	c0.6,0.6,1,1.3,1.3,2C61,94.2,61.1,95.1,61.1,95.9"/>
<path d="M472.3,98.9c-1,1.8-2.3,1.7-3.8,1.7v6.1c1,0.2,2,0.3,3,0.3c1.5,0,2.9-0.4,4.1-1.2c1.2-0.8,2.1-2,2.7-3.3
	c1.5-3.2,1.7-9.2,2.4-15.8h7.1v19.7h6.8V80.8h-20C473.8,89.3,473.3,96.8,472.3,98.9z"/>
<path d="M454.9,80.2c-3-0.1-5.9,0.9-8.1,2.9c-2.3,1.9-3.7,4.6-4.1,7.6h-3.5v-9.8h-6.8v25.5h6.8v-9.8h3.5c0.4,3,1.9,5.7,4.1,7.6
	c2.3,1.9,5.2,2.9,8.1,2.8c7.4,0,12.5-5.4,12.5-13.4C467.3,85.6,462.2,80.2,454.9,80.2z M454.9,100.8c-3.5,0-5.9-2.7-5.9-7.3
	c0-4.6,2.4-7.3,5.9-7.3c3.5,0,5.9,2.7,5.9,7.3C460.7,98.1,458.3,100.8,454.9,100.8z"/>
<path d="M510.4,80.2c-3.3,0-6.5,0.4-9.6,1.4v6.1c2.8-0.9,5.8-1.4,8.7-1.4c5.6,0,6.2,2.8,6.2,4.2v0.5c-1.9-0.3-3.8-0.4-5.7-0.5
	c-9.4,0-11.4,4.9-11.4,8.2c0,3.4,2.1,8.2,9.5,8.2c1.5,0,2.9-0.2,4.3-0.8c1.4-0.6,2.6-1.4,3.6-2.5h0.3v2.7h6.2V92
	C522.5,87.5,521.5,80.2,510.4,80.2z M515.8,98.5c-0.7,0.9-1.6,1.6-2.6,2.1c-1,0.5-2.1,0.7-3.3,0.6c-2.6,0-3.8-1.1-3.8-2.7
	c0-1.6,1.4-3.1,5.9-3.1h3.8L515.8,98.5L515.8,98.5z"/>
<radialGradient id="SVGID_31_" cx="-687.1275" cy="1289.1276" r="1" gradientTransform="matrix(58.8756 0 0 -58.8756 40875.332 75951.0547)" gradientUnits="userSpaceOnUse">
	<stop  offset="0.23" style="stop-color:#00FFFE"/>
	<stop  offset="0.3" style="stop-color:#11F3FE"/>
	<stop  offset="0.46" style="stop-color:#3ED3FE"/>
	<stop  offset="0.67" style="stop-color:#86A0FF"/>
	<stop  offset="0.94" style="stop-color:#E95AFF"/>
	<stop  offset="0.95" style="stop-color:#F055FF"/>
</radialGradient>
<path class="st67" d="M396.8,105.8c1.8-5.6,5-10.7,9.2-14.9c4.2-4.2,9.3-7.3,14.9-9.2c0.2-0.1,0.4-0.2,0.5-0.3
	c0.1-0.1,0.3-0.3,0.4-0.5c0.1-0.2,0.1-0.4,0.2-0.6c0-0.2,0-0.4-0.1-0.6c-0.1-0.2-0.2-0.4-0.3-0.6c-0.2-0.2-0.4-0.3-0.6-0.3
	c-5.6-1.8-10.7-4.9-14.9-9.1c-4.2-4.2-7.3-9.3-9.1-14.9c-0.1-0.2-0.2-0.4-0.3-0.5c-0.1-0.1-0.3-0.3-0.4-0.4
	c-0.2-0.1-0.4-0.1-0.6-0.1c-0.2,0-0.4,0-0.6,0.1c-0.2,0.1-0.4,0.2-0.6,0.3c-0.2,0.2-0.3,0.4-0.3,0.6c-1.8,5.6-5,10.7-9.1,14.9
	c-4.2,4.2-9.3,7.3-14.9,9.1c-0.2,0.1-0.4,0.2-0.5,0.3c-0.1,0.1-0.3,0.3-0.3,0.5c-0.1,0.2-0.1,0.4-0.2,0.6s0,0.4,0.1,0.6
	c0.1,0.2,0.2,0.4,0.3,0.6c0.2,0.2,0.4,0.3,0.6,0.3c5.6,1.8,10.7,5,14.9,9.1c4.2,4.2,7.3,9.3,9.1,14.9c0.1,0.2,0.1,0.4,0.3,0.5
	c0.1,0.1,0.3,0.3,0.4,0.4c0.2,0.1,0.4,0.1,0.6,0.1c0.2,0,0.4,0,0.6-0.1c0.2-0.1,0.4-0.2,0.6-0.4C396.6,106.2,396.7,106,396.8,105.8
	L396.8,105.8z"/>
<radialGradient id="SVGID_32_" cx="-677.9863" cy="1279.9863" r="1" gradientTransform="matrix(33.264 0 0 -33.264 22965.7656 42661.3945)" gradientUnits="userSpaceOnUse">
	<stop  offset="0" style="stop-color:#053BF2"/>
	<stop  offset="9.000000e-02" style="stop-color:#0F3CF3;stop-opacity:0.91"/>
	<stop  offset="0.25" style="stop-color:#2B3FF4;stop-opacity:0.75"/>
	<stop  offset="0.45" style="stop-color:#5844F7;stop-opacity:0.55"/>
	<stop  offset="0.69" style="stop-color:#964BFA;stop-opacity:0.31"/>
	<stop  offset="0.96" style="stop-color:#E454FE;stop-opacity:4.000000e-02"/>
	<stop  offset="1" style="stop-color:#F055FF;stop-opacity:0"/>
</radialGradient>
<path class="st68" d="M370,81.8c5.6,1.8,10.7,5,14.9,9.1c4.2,4.2,7.3,9.3,9.1,14.9c0.1,0.2,0.1,0.4,0.3,0.5c0.1,0.1,0.3,0.3,0.4,0.4
	c0.2,0.1,0.4,0.1,0.6,0.1c0.2,0,0.4,0,0.6-0.1c0.2-0.1,0.4-0.2,0.6-0.3c0.2-0.2,0.3-0.4,0.3-0.6c1.8-5.6,5-10.7,9.2-14.9
	c4.2-4.2,9.3-7.3,14.9-9.2c-5.4,1.8-14.5,3.2-25.4,3.2C384.5,85,375.3,83.6,370,81.8z"/>
<path class="st69" d="M34.1,281.1c1.2-0.2,2.4-0.2,3.7-0.1c0.7,0.3,1.4,0.7,2,1.2c0.6,0.5,1,1.2,1.3,1.9c0.3,0.7,0.4,1.5,0.4,2.3
	c0,0.8-0.3,1.5-0.6,2.2c-1.5,2.7-3.1,5.4-4.6,8.1c-0.4-0.2-0.5-0.6-0.7-0.9c-1.3-2.3-2.6-4.6-3.9-6.9c-0.5-0.8-0.7-1.6-0.8-2.6
	c-0.1-0.9,0.1-1.8,0.5-2.6C31.8,282.6,32.8,281.6,34.1,281.1L34.1,281.1z M35.5,283.8c-0.4,0.1-0.8,0.3-1.1,0.5
	c-0.3,0.3-0.5,0.6-0.7,1c-0.1,0.4-0.2,0.8-0.1,1.2c0.1,0.4,0.2,0.8,0.5,1.1c0.2,0.3,0.6,0.6,0.9,0.7c0.4,0.2,0.8,0.2,1.2,0.2
	c0.4,0,0.8-0.2,1.1-0.4c0.3-0.2,0.6-0.5,0.8-0.9c0.2-0.4,0.3-0.9,0.3-1.3c0-0.5-0.2-0.9-0.5-1.2c-0.3-0.4-0.6-0.6-1.1-0.8
	C36.5,283.8,36,283.7,35.5,283.8L35.5,283.8z"/>
<path class="st69" d="M29.7,298c1.6,1.3,2.8,2.8,4.3,4.2c0-1.3,0-2.6,0-3.8c1.3,0,2.7,0,4,0c0.1,2.6-0.1,5.2,0.1,7.8
	c1,1.3,2.2,2.5,3.4,3.6c-1.4,1.4-2.8,2.8-4.1,4.3H37v-0.2c-0.5-0.7-1.1-1.3-1.8-1.9c-1.8-1.8-3.6-3.7-5.4-5.5
	c-2.5,2.6-5.1,5-7.5,7.6h-0.2c-1.2-1.5-2.6-2.9-4.1-4.2v-0.4h0.2c0.8-0.7,1.6-1.4,2.3-2.2C23.6,304.1,26.6,300.9,29.7,298z"/>
<path class="st70" d="M72.9,313.4c2.9-5.2,5.6-10.4,8.6-15.6c0.6,0.9,1.2,1.8,1.7,2.8c2.4,4.2,4.6,8.5,6.9,12.8h-4.3l-1-2.2
	c-2,0-4.2-0.1-6.3,0c-0.7,0.4-0.7,1.6-1.3,2.1C75.8,313.5,74.3,313.4,72.9,313.4z M79.7,308.4h3.6c-0.6-1.3-1.2-2.6-1.8-3.8
	C80.9,305.8,80.3,307,79.7,308.4L79.7,308.4z"/>
<path class="st70" d="M92.5,297.8c3.6,2.8,7,5.8,10.5,8.7c0-2.7,0-5.4,0-8.1h3.6c0,5.2,0,10.3,0,15.5c-0.9-0.6-1.8-1.2-2.7-2
	c-2.6-2-5.2-4.1-7.8-6.2v7.8h-3.6C92.5,308.2,92.5,303,92.5,297.8z"/>
<path class="st70" d="M51.1,300.5c1.7-1.5,3.8-2.4,6.1-2.5c2.3,0,4.5,0.7,6.2,2.2c-0.7,0.9-1.3,1.9-2,2.8c-1.6-1-3.5-1.9-5.4-1.4
	c-1,0.3-1.8,0.9-2.3,1.7c-0.6,0.8-0.8,1.8-0.7,2.8c0,1,0.4,1.9,1,2.7c0.6,0.8,1.5,1.3,2.4,1.5c1.9,0.3,3.9-0.2,5.5-1.2l1.7,2.5
	c-1.6,1.3-3.5,2.1-5.6,2.3h-1.8c-1.5-0.1-2.9-0.7-4.2-1.5c-0.9-0.7-1.6-1.6-2.1-2.6c-0.5-1-0.8-2.1-0.9-3.2
	c-0.1-1.1,0.1-2.2,0.4-3.3C49.8,302.3,50.4,301.3,51.1,300.5L51.1,300.5z"/>
<path class="st70" d="M66.7,298.3h4.1c0,5.1,0,10.1,0,15.2c-1.3,0-2.7,0-4.1,0C66.7,308.5,66.7,303.4,66.7,298.3z"/>
<path class="st70" d="M116.4,298.3c2.6,0.1,5.3-0.2,7.9,0.3c2,0.4,4.2,1.8,4.6,4c0.2,1.1,0.1,2.2-0.4,3.1c-0.5,1-1.3,1.7-2.3,2.2
	c1.1,1.8,2,3.7,3.1,5.5c-1.5,0-2.9,0-4.4,0c-0.8-1.5-1.6-2.9-2.4-4.4c-0.7,0.1-1.3,0.1-2,0.2c0,1.4,0,2.8,0,4.3c-1.4,0-2.7,0-4.1,0
	C116.4,308.4,116.4,303.4,116.4,298.3z M120.4,301.3v5.1c1.4,0.1,2.7-0.2,3.9-0.9c0.3-0.2,0.5-0.6,0.7-0.9c0.2-0.4,0.2-0.8,0.2-1.2
	c0-0.4-0.2-0.8-0.4-1.1c-0.2-0.3-0.5-0.6-0.9-0.8C122.8,301.3,121.6,301.2,120.4,301.3L120.4,301.3z"/>
<path class="st70" d="M132.2,298.3h4.1c0,2.4,0,4.8,0,7.2c-0.1,1.3,0.2,2.7,0.7,3.9c0.8,1.3,2.6,1.5,3.9,1.1c1.5-0.6,1.9-2.4,2-3.8
	c0-2.8,0-5.6,0-8.3h4.1v0.1c-0.1,2.5,0,4.9,0,7.4c0,1.6-0.3,3.2-1,4.7c-0.5,0.9-1.2,1.7-2.1,2.3c-0.9,0.6-1.9,0.9-3,1
	c-2.3,0.2-4.8,0-6.5-1.7s-2-3.8-2.1-6C132.2,303.5,132.2,300.9,132.2,298.3z"/>
<path class="st70" d="M109.7,310.1h3.7v3.4h-3.7V310.1z"/>
<path d="M100,477.5h-2.9c-0.1,0-0.1,0-0.1,0c0,0-0.1,0-0.1,0.1c0,0-0.1,0.1-0.1,0.1s0,0.1,0,0.1v8.8h-5.4v-8.8c0,0,0-0.1,0-0.1
	c0,0,0-0.1-0.1-0.1c0,0-0.1-0.1-0.1-0.1c0,0-0.1,0-0.1,0h-2.8c-0.1,0-0.1,0-0.2,0c0,0-0.1,0-0.1,0.1c0,0-0.1,0.1-0.1,0.1
	s0,0.1,0,0.1v22.4c0,0.1,0,0.1,0,0.1c0,0,0,0.1,0.1,0.1c0,0,0.1,0.1,0.1,0.1c0,0,0.1,0,0.2,0h2.9c0.1,0,0.1,0,0.2,0
	c0,0,0.1,0,0.1-0.1c0,0,0.1-0.1,0.1-0.1c0,0,0-0.1,0-0.1v-10.8h5.4v10.8c0,0.1,0,0.1,0,0.1c0,0,0,0.1,0.1,0.1c0,0,0.1,0.1,0.1,0.1
	c0,0,0.1,0,0.1,0h3c0.1,0,0.1,0,0.1,0c0,0,0.1,0,0.1-0.1c0,0,0.1-0.1,0.1-0.1s0-0.1,0-0.1v-22.4C100.4,477.6,100.3,477.5,100,477.5
	L100,477.5z M166.2,497.6c0-0.1-0.1-0.1-0.2-0.1c-1.3,0-8.8,3.6-8.8-8.2c0-5.1,2-12.4,6.6-8.1c0,0,0.1,0.1,0.2,0.1
	c0.1,0,0.1,0,0.2,0c0.1,0,0.2-0.1,0.4-0.4l1.3-2.1c0,0,0.1-0.1,0.1-0.2s0-0.1,0-0.2c0-0.2-0.2-0.4-0.5-0.5
	c-8.1-4-12.3,3.4-12.3,12.1c0,11.3,8.2,12.9,12.9,9.4c0.1,0,0.2-0.1,0.2-0.2c0-0.1,0.1-0.2,0-0.3L166.2,497.6L166.2,497.6z
	 M146.1,487.9l5.6-10.2c0,0,0-0.1,0-0.1c0,0,0-0.1,0-0.1c0,0,0-0.1-0.1-0.1c0,0-0.1,0-0.1-0.1h-2.8c-0.9,0-1.1,0.3-1.4,0.9
	c-0.3,0.6-4.4,9.3-4.9,9.7v-10.1c0-0.1-0.1-0.4-0.3-0.4h-3.1c-0.1,0-0.2,0.1-0.2,0.4v22.6c0,0.1,0.1,0.4,0.2,0.4h3.1
	c0.3,0,0.3-0.1,0.3-0.4v-11.6c0.4,0.2,5.5,10.9,5.6,11.3c0.1,0.2,0.3,0.4,0.6,0.6c0.2,0.1,0.5,0.2,0.8,0.2h3.1
	c0.2,0,0.2-0.1,0.1-0.4L146.1,487.9L146.1,487.9z M119.3,497.7h-0.6c-0.7,0-0.9-0.3-0.9-0.9v-19.1c0-0.2-0.1-0.4-0.2-0.4h-9.4
	c-0.1,0-0.1,0-0.2,0c0,0-0.1,0-0.1,0.1c0,0-0.1,0.1-0.1,0.1c0,0,0,0.1,0,0.1c0,5.1,0.1,13.8-3.3,20h-1c-0.1,0-0.1,0-0.1,0
	c0,0-0.1,0-0.1,0.1c0,0-0.1,0.1-0.1,0.1c0,0,0,0.1,0,0.1v6.7c0,0.1,0,0.2,0.1,0.2c0.1,0.1,0.2,0.1,0.2,0.1h2.2c0.1,0,0.2,0,0.3,0
	c0.1,0,0.2-0.1,0.2-0.2c0.1-0.1,0.1-0.2,0.2-0.2c0-0.1,0.1-0.2,0-0.3v-3.8h9.9v4.2c0,0.1,0,0.2,0.1,0.2c0.1,0.1,0.2,0.1,0.2,0.1h2.5
	c0.2,0,0.3-0.1,0.5-0.2c0.1-0.1,0.2-0.3,0.2-0.5v-6.4C119.7,497.9,119.5,497.7,119.3,497.7L119.3,497.7z M114.1,497.7h-6.9
	c2-3.2,3.8-8.3,3.8-17.4h3.1V497.7z M128.8,476.9c-5,0-7.3,6.3-7.3,13.1c0,11.3,7.8,13,13.2,9.7c0.2-0.1,0.2-0.2,0.2-0.4l-0.4-1.6
	c0-0.1-0.1-0.3-0.4-0.3c-2,0-8.8,3.4-8.8-7.7c3.3,0.3,6.5,0.4,9.8,0.2C135.1,484.4,134.5,476.9,128.8,476.9L128.8,476.9z
	 M125.5,487.1c0-8.9,5.9-10.6,5.9-0.2C129.4,486.9,127.5,486.9,125.5,487.1L125.5,487.1z"/>
<path class="st71" d="M82.4,466h-5.3c-5.3,0-9.8,3.9-9.8,11.5c-0.1,2,0.4,4,1.5,5.7c1.1,1.7,2.6,3.1,4.5,3.9l-7.1,12.8
	c-0.1,0.1-0.1,0.1-0.1,0.2c0,0.1,0,0.2,0,0.3s0.1,0.1,0.2,0.2c0.1,0,0.2,0.1,0.2,0.1h3.3c0.1,0,0.3,0,0.4-0.1
	c0.1-0.1,0.2-0.2,0.3-0.3l6.5-12.5h2.3v12.5c0,0.1,0,0.2,0.1,0.3c0.1,0.1,0.2,0.1,0.3,0.1h3c0.1,0,0.1,0,0.2,0c0,0,0.1,0,0.1-0.1
	c0,0,0.1-0.1,0.1-0.1c0,0,0-0.1,0-0.1v-33.8C82.9,466.1,82.7,466,82.4,466z M79.3,484.9h-2c-8.5,0-7.8-15.9-0.4-15.9h2.5v15.9H79.3z
	"/>
<path d="M59.1,514v5.8h4.5V514h1.1v12.7h-1.1v-6h-4.5v6H58V514H59.1z"/>
<path d="M68.4,519.9c0,5.1,1.8,6,3.2,6c0.7,0,1.3-0.1,1.9-0.5l0.3,0.9c-0.7,0.4-1.6,0.6-2.4,0.6c-2.8,0-4.2-2.6-4.2-6.5
	c0-4,1.5-6.6,3.8-6.6s3.2,3.1,3.2,5.3v0.8H68.4z M73,518.9c0-3.1-1.3-4.2-2.2-4.2c-1.5,0-2.3,2.1-2.4,4.2H73z"/>
<path d="M83.2,514v11.7h1l-0.1,4.3h-0.9l-0.1-3.3h-6.8l-0.1,3.3h-0.9l-0.1-4.3h0.7c0.6-0.9,1-1.8,1.4-2.8c0.5-1.6,0.7-3.3,0.7-5V514
	H83.2z M78.9,517.3c0.1,1.9-0.2,3.9-0.7,5.8c-0.3,0.9-0.7,1.8-1.2,2.6h5V515h-3.2V517.3z"/>
<path d="M86.6,514c0.8-0.2,1.5-0.2,2.3-0.2c2,0,4.2,0.7,4.2,3.1c0,0.7-0.3,1.4-0.8,2c-0.5,0.6-1.1,0.9-1.8,1.1l0,0
	c0.8,0.1,1.6,0.4,2.2,1c0.6,0.6,0.9,1.4,0.9,2.3c0,2.7-2.4,3.6-4.8,3.6c-0.8,0-1.5,0-2.3-0.1L86.6,514z M87.8,525.8
	c0.4,0.1,0.8,0.1,1.2,0.1c1.8,0,3.6-0.6,3.6-2.6c0-2-2-2.8-3.8-2.8h-0.9L87.8,525.8z M87.8,519.6h1c1.3,0,3.2-1,3.2-2.5
	c0-1.8-1.5-2.3-3.1-2.3c-0.4,0-0.8,0-1.1,0.1V519.6z"/>
<path d="M97.2,514v5.4c0,2.1,0,3.8-0.1,6.3c0.7-1.9,1.5-4,2.2-5.7l2.3-5.9h1.4v12.7h-1.1v-5c0-2.9,0-4.4,0.2-6.5
	c-0.5,1.8-1.1,3.4-1.7,4.9c-0.5,1.2-1.7,4.3-2.8,6.7h-1.4V514H97.2z"/>
<path d="M106.5,514l3.8,5.8h0.4V514h1.1v5.8h0.4l3.8-5.8h1.4l-4.2,5.9c0.9,0.1,1.7,0.6,2.3,1.2c0.6,0.6,1,1.4,1.1,2.3
	c0.2,1.1,0.6,2.2,1,3.3h-1.1c-0.4-0.8-0.7-1.7-0.9-2.7c-0.7-2.7-1.9-3.4-3.5-3.4h-0.2v6h-1.1v-6h-0.2c-2.4,0-2.8,0.9-3.6,3.6
	c-0.2,0.9-0.5,1.7-0.9,2.5h-1.1c0.4-1,0.7-2.1,1-3.1c0.6-1.9,1.5-3.4,3.4-3.7l-4.2-5.9L106.5,514z"/>
<path d="M120.4,514v5.4c0,2.1,0,3.8-0.1,6.3c0.7-1.9,1.5-4,2.2-5.7l2.3-5.9h1.4v12.7H125v-5c0-2.9,0-4.4,0.2-6.5
	c-0.5,1.8-1.1,3.4-1.7,4.9c-0.5,1.2-1.7,4.3-2.8,6.7h-1.4V514H120.4z"/>
<path d="M129.7,514h1.3l2.1,6.6c0.6,1.7,0.9,2.8,1.3,4.3c0.5-1.6,0.7-2.5,1.3-4.3l2.1-6.6h1.3l0.9,12.7h-1.1l-0.3-6.1
	c-0.1-2-0.2-3.1-0.2-5.3h-0.1c-0.4,1.5-0.8,2.9-1.4,4.7l-2.2,6.8H134l-2.1-6.4c-0.6-2-1.1-3.4-1.5-5h-0.1c0,1.7-0.1,3.3-0.2,5.5
	l-0.3,6h-1.1L129.7,514z"/>
<path d="M149.5,520.3c0,4.7-1.9,6.6-3.8,6.6c-2,0-3.8-1.9-3.8-6.6c0-4.7,1.9-6.6,3.9-6.6C147.7,513.8,149.5,515.6,149.5,520.3z
	 M143.2,520.3c0,2.1,0.4,5.6,2.6,5.6c2.2,0,2.5-3.5,2.5-5.6c0-2.1-0.4-5.6-2.6-5.6S143.1,518.3,143.2,520.3L143.2,520.3z"/>
<path d="M157.6,526.3c-0.6,0.4-1.3,0.5-2.1,0.5c-2.5,0-4.2-2.3-4.2-6.5c0-3.5,1.6-6.6,4.5-6.6c0.6,0,1.2,0.2,1.7,0.5l-0.4,1
	c-0.5-0.3-1-0.4-1.6-0.4c-2.3,0-3.2,3-3.2,5.7c0,3.4,1.3,5.4,3.3,5.4c0.6,0,1.1-0.1,1.6-0.4L157.6,526.3z"/>
<path d="M165.9,514v1h-2.9v11.7h-1.1V515h-2.9v-1H165.9z"/>
<path d="M168.6,514v4.8c0.5,0,0.9-0.1,1.2-0.1c2.5,0,4.6,1.3,4.6,4c0,0.6-0.1,1.1-0.3,1.6c-0.2,0.5-0.5,1-1,1.4
	c-1,0.8-2.2,1.3-3.5,1.3c-0.7,0-1.4-0.1-2.2-0.2V514H168.6z M168.6,525.7c0.3,0,0.7,0.1,1,0.1c2,0,3.6-1,3.6-3.1c0-2.1-1.7-3-3.7-3
	c-0.3,0-0.6,0-0.9,0.1V525.7z"/>
<linearGradient id="SVGID_33_" gradientUnits="userSpaceOnUse" x1="88.9254" y1="266.5959" x2="76.2367" y2="228.8859" gradientTransform="matrix(1 0 0 -1 0 602)">
	<stop  offset="0" style="stop-color:#E4F5FF"/>
	<stop  offset="1" style="stop-color:#B4E2FD"/>
</linearGradient>
<path class="st72" d="M56.5,338h52c6.1,0,11,4.9,11,11v11c0,6.1-4.9,11-11,11h-52c-6.1,0-11-4.9-11-11v-11
	C45.5,342.9,50.4,338,56.5,338z"/>
<path class="st17" d="M71.3,358.5v4h-1.4l-0.2-2.4h-8v-11h2v9.5h4.2V349h2v9.5H71.3z M81.7,360h-1.9v-7.2c0-0.4,0-0.9,0.1-1.4h-0.1
	c-0.2,0.6-0.4,1-0.6,1.3L75,360h-2v-11h1.9v7.1c0,0.5,0,1-0.1,1.4h0.1c0.1-0.4,0.3-0.8,0.6-1.3l4.2-7.2h2V360z M90.1,356.9H86
	l-0.9,3.1h-2l3.3-10.5c0-0.2,0.1-0.3,0.3-0.4c0.1-0.1,0.3-0.1,0.5-0.1h2c0.2,0,0.3,0,0.4,0.1c0.1,0.1,0.2,0.2,0.3,0.4l3.3,10.5h-2
	L90.1,356.9z M89.6,355.2l-1.1-3.8c0-0.1-0.1-0.2-0.1-0.4c-0.1-0.2-0.1-0.4-0.1-0.5h-0.4l-0.3,0.9l-1.1,3.8H89.6z M102.8,349v11h-2
	v-5.1h-4.4v5.1h-2v-11h2v4.3h4.4V349H102.8z"/>
<linearGradient id="SVGID_34_" gradientUnits="userSpaceOnUse" x1="117.9483" y1="65.34" x2="112.1253" y2="24.18" gradientTransform="matrix(1 0 0 -1 0 602)">
	<stop  offset="0" style="stop-color:#E4F5FF"/>
	<stop  offset="1" style="stop-color:#B4E2FD"/>
</linearGradient>
<path class="st73" d="M38,541h154c6.1,0,11,4.9,11,11v11c0,6.1-4.9,11-11,11H38c-6.1,0-11-4.9-11-11v-11C27,545.9,31.9,541,38,541z"
	/>
<path class="st17" d="M46.7,551.8c1,0,1.8,0,2.3,0s1.1,0.1,1.7,0.1v11h-2v-4.3h-1.9c-0.3,0-0.6,0.1-0.8,0.2
	c-0.2,0.1-0.4,0.4-0.5,0.8l-0.8,3.3h-2.1l0.9-3.4c0.1-0.5,0.3-0.8,0.6-1.1c0.3-0.3,0.6-0.4,1-0.5v-0.1c-0.7-0.1-1.3-0.4-1.6-0.8
	c-0.3-0.5-0.5-1.1-0.5-2c0-0.8,0.1-1.4,0.4-1.9s0.7-0.8,1.2-1C45.1,551.9,45.8,551.8,46.7,551.8z M48.7,557v-3.6c-0.4,0-1,0-1.9,0
	c-0.5,0-0.8,0.1-1.1,0.2c-0.2,0.1-0.4,0.3-0.5,0.5c-0.1,0.2-0.2,0.6-0.2,1.1c0,0.7,0.1,1.1,0.4,1.4c0.3,0.3,0.7,0.4,1.4,0.4H48.7
	L48.7,557z M54.2,560.8c0.3,0,0.4,0,0.5,0.2c0.1,0.1,0.2,0.3,0.2,0.5v0.8c0,0.3-0.1,0.4-0.2,0.5c-0.1,0.1-0.3,0.1-0.5,0.1h-0.6
	c-0.3,0-0.5-0.1-0.6-0.1c-0.1-0.1-0.1-0.3-0.1-0.5v-0.8c0-0.3,0-0.4,0.1-0.5c0.1-0.1,0.3-0.2,0.6-0.2H54.2z M65.4,552v11h-2v-5.1H59
	v5.1h-2v-11h2v4.3h4.4V552H65.4z M74.9,561.4l0.1,1.5c-0.6,0.1-1.3,0.1-2.1,0.1c-0.7,0-1.7,0-2.8,0c-0.7,0-1.3-0.2-1.7-0.6
	c-0.4-0.4-0.6-0.9-0.6-1.5V554c0-0.7,0.2-1.2,0.6-1.5c0.4-0.4,1-0.6,1.7-0.6c1.1,0,2,0,2.8,0c0.7,0,1.4,0,2.1,0.1l-0.1,1.5h-4.3
	c-0.3,0-0.5,0.1-0.6,0.2c-0.1,0.1-0.2,0.4-0.2,0.7v1.9h4.5v1.5h-4.5v2.5c0,0.3,0.1,0.6,0.2,0.7c0.1,0.1,0.3,0.2,0.6,0.2h4.3V561.4z
	 M86.8,561.4v4h-1.4l-0.2-2.4h-7.6l-0.2,2.4H76v-4h1.1c0.4-1.1,0.8-2.2,1-3.3c0.2-1.2,0.4-2.5,0.5-3.9c0-0.7,0.3-1.2,0.7-1.7
	c0.4-0.4,1-0.6,1.8-0.6h4.2v9.5H86.8z M83.4,561.4v-7.9h-1.7c-0.4,0-0.6,0.1-0.8,0.2c-0.1,0.2-0.2,0.4-0.3,0.8
	c-0.1,1.6-0.3,2.9-0.5,4c-0.2,1.1-0.5,2-1,2.9H83.4z M94.3,557.3c0.8,0.1,1.4,0.4,1.7,0.8c0.4,0.5,0.5,1.2,0.5,2.1
	c0,0.8-0.1,1.3-0.4,1.8c-0.2,0.4-0.6,0.7-1.2,0.9c-0.5,0.2-1.2,0.3-2.1,0.3c-1.1,0-1.9,0-2.5,0s-1.2,0-1.9-0.1v-11
	c0.6,0,1.1-0.1,1.6-0.1c0.6,0,1.3,0,2.2,0c1,0,1.7,0.1,2.3,0.3c0.5,0.2,0.9,0.5,1.2,0.9c0.2,0.4,0.4,1,0.4,1.8s-0.1,1.4-0.4,1.8
	C95.4,556.9,94.9,557.2,94.3,557.3z M90.4,553.4v3.1h2c0.5,0,0.8,0,1.1-0.1c0.3-0.1,0.4-0.2,0.5-0.5c0.1-0.2,0.2-0.5,0.2-1
	c0-0.4-0.1-0.7-0.2-0.9c-0.1-0.2-0.3-0.4-0.6-0.4c-0.3-0.1-0.7-0.1-1.2-0.1L90.4,553.4L90.4,553.4z M92.5,561.5c0.5,0,0.9,0,1.2-0.1
	c0.3-0.1,0.5-0.2,0.6-0.5c0.1-0.2,0.2-0.6,0.2-1c0-0.5-0.1-0.9-0.2-1.1c-0.1-0.3-0.3-0.4-0.6-0.6c-0.3-0.1-0.7-0.2-1.2-0.2h-2v3.5
	C90.8,561.5,91.5,561.5,92.5,561.5z M107.2,563h-1.9v-7.2c0-0.4,0-0.9,0.1-1.4h-0.1c-0.2,0.6-0.4,1-0.6,1.3l-4.2,7.3h-2v-11h1.9v7.1
	c0,0.5,0,1-0.1,1.4h0.1c0.1-0.4,0.3-0.9,0.6-1.3l4.2-7.2h2V563z M119.1,557.3c0.7,0.1,1.2,0.3,1.6,0.7c0.4,0.3,0.7,0.8,1,1.5
	c0.3,0.6,0.6,1.6,1.1,3l0.2,0.6h-2.1l-0.3-0.8c-0.4-1.2-0.7-2-1-2.6c-0.2-0.5-0.5-0.9-0.8-1.2c-0.3-0.3-0.7-0.4-1.2-0.4h-0.9
	c0.1,0.4,0.1,0.8,0.1,1.1v3.9H115v-3.9c0-0.3,0-0.7,0.1-1.1h-0.9c-0.5,0-0.9,0.1-1.2,0.4s-0.6,0.7-0.8,1.2c-0.2,0.5-0.5,1.4-1,2.6
	L111,563h-2.1l0.2-0.6c0.4-1.4,0.8-2.4,1.1-3c0.3-0.6,0.6-1.1,1-1.5c0.4-0.4,0.9-0.6,1.6-0.7v-0.1c-0.6-0.1-1.1-0.3-1.5-0.6
	c-0.4-0.3-0.7-0.8-0.9-1.3c-0.2-0.6-0.5-1.4-0.9-2.6l-0.2-0.7h2l0.1,0.4c0.4,1.1,0.7,1.9,0.9,2.4c0.2,0.5,0.5,0.9,0.8,1.3
	c0.3,0.3,0.7,0.4,1.1,0.4h0.9c-0.1-0.4-0.1-0.8-0.1-1.3V552h1.9v3.2c0,0.5,0,0.9-0.1,1.3h0.9c0.4,0,0.8-0.2,1.1-0.4
	c0.3-0.3,0.6-0.7,0.8-1.2c0.2-0.5,0.5-1.3,0.9-2.4c0-0.1,0-0.1,0.1-0.2c0-0.1,0.1-0.2,0.1-0.3h2l-0.2,0.6c-0.4,1.2-0.7,2.1-0.9,2.6
	c-0.2,0.6-0.5,1-0.9,1.4C120.2,556.9,119.7,557.1,119.1,557.3z M133.3,563h-1.9v-7.2c0-0.4,0-0.9,0.1-1.4h-0.1
	c-0.2,0.6-0.4,1-0.6,1.3l-4.2,7.3h-2v-11h1.9v7.1c0,0.5,0,1-0.1,1.4h0.1c0.1-0.4,0.3-0.9,0.6-1.3l4.2-7.2h2V563z M146.6,552
	c0.5,0,0.8,0.3,0.8,0.8l0.4,10.3h-2l-0.4-9.4h-0.3l-1.9,7.3c-0.1,0.4-0.4,0.7-0.8,0.7h-1.5c-0.5,0-0.7-0.2-0.9-0.7l-1.9-7.3h-0.3
	l-0.3,9.4h-2l0.4-10.3c0-0.5,0.3-0.8,0.8-0.8h2.1c0.4,0,0.7,0.2,0.8,0.7l1.6,6c0.1,0.4,0.2,0.9,0.3,1.5h0.2l0.1-0.4
	c0-0.1,0.1-0.3,0.1-0.5s0.1-0.4,0.1-0.6l1.6-6c0.1-0.4,0.4-0.7,0.8-0.7H146.6z M154.2,551.8c1.2,0,2.1,0.2,2.7,0.5
	c0.6,0.3,1.1,0.9,1.4,1.8c0.3,0.8,0.4,2,0.4,3.4s-0.2,2.6-0.4,3.4c-0.3,0.8-0.8,1.4-1.4,1.8c-0.7,0.3-1.6,0.5-2.7,0.5
	c-1.2,0-2.1-0.2-2.7-0.5c-0.7-0.4-1.1-0.9-1.4-1.8c-0.3-0.8-0.4-2-0.4-3.4s0.1-2.6,0.4-3.4c0.3-0.8,0.8-1.4,1.4-1.8
	C152.2,551.9,153.1,551.8,154.2,551.8z M154.2,553.5c-0.6,0-1.1,0.1-1.5,0.4c-0.3,0.2-0.6,0.7-0.7,1.2c-0.1,0.6-0.2,1.4-0.2,2.4
	c0,1.1,0.1,1.9,0.2,2.4c0.1,0.6,0.4,1,0.7,1.2c0.4,0.2,0.8,0.4,1.5,0.4c0.6,0,1.1-0.1,1.5-0.4c0.4-0.2,0.6-0.7,0.8-1.2
	c0.1-0.6,0.2-1.4,0.2-2.4s-0.1-1.8-0.2-2.4c-0.2-0.6-0.4-1-0.8-1.2C155.4,553.6,154.9,553.5,154.2,553.5z M165,551.8
	c0.7,0,1.3,0,1.7,0.1c0.5,0.1,0.9,0.1,1.4,0.3l-0.2,1.5c-0.9-0.1-1.9-0.1-3-0.1c-0.6,0-1.1,0.1-1.4,0.4c-0.3,0.2-0.6,0.6-0.7,1.2
	c-0.1,0.6-0.2,1.4-0.2,2.4s0.1,1.8,0.2,2.4c0.1,0.6,0.4,1,0.7,1.2s0.8,0.4,1.4,0.4c0.7,0,1.3,0,1.8,0s0.9-0.1,1.4-0.1l0.2,1.5
	c-0.5,0.2-1,0.2-1.5,0.3c-0.5,0.1-1.1,0.1-1.9,0.1c-1.1,0-2-0.2-2.7-0.5c-0.6-0.4-1.1-1-1.4-1.8c-0.3-0.8-0.4-2-0.4-3.4
	c0-1.4,0.1-2.5,0.4-3.4c0.3-0.8,0.8-1.4,1.4-1.8C163,551.9,163.9,551.8,165,551.8z M178,553.7h-3.4v9.3h-2v-9.3h-3.4V552h8.8V553.7z
	 M183.5,556.2c1,0,1.7,0.1,2.3,0.3c0.6,0.2,0.9,0.6,1.2,1.1c0.2,0.5,0.4,1.2,0.4,2.1c0,0.9-0.1,1.6-0.4,2.1c-0.2,0.5-0.6,0.8-1.1,1
	s-1.2,0.3-2,0.3c-1,0-1.8,0-2.4,0s-1.2,0-1.8-0.1v-11h2v4.2H183.5L183.5,556.2z M183.5,561.5c0.5,0,0.9,0,1.2-0.1
	c0.3-0.1,0.4-0.3,0.5-0.5c0.1-0.2,0.1-0.6,0.1-1.1s0-0.9-0.1-1.2c-0.1-0.3-0.3-0.4-0.5-0.6c-0.3-0.1-0.6-0.2-1.2-0.2h-1.9v3.7H183.5
	L183.5,561.5z"/>
<linearGradient id="SVGID_35_" gradientUnits="userSpaceOnUse" x1="455.5201" y1="482.106" x2="441.6561" y2="445.361" gradientTransform="matrix(1 0 0 -1 0 602)">
	<stop  offset="0" style="stop-color:#E4F5FF"/>
	<stop  offset="1" style="stop-color:#B4E2FD"/>
</linearGradient>
<path class="st74" d="M426.5,122h44c6.1,0,11,4.9,11,11v11c0,6.1-4.9,11-11,11h-44c-6.1,0-11-4.9-11-11v-11
	C415.5,126.9,420.4,122,426.5,122z"/>
<path class="st17" d="M440.3,132.8c1.2,0,2.1,0.2,2.7,0.5c0.7,0.4,1.1,0.9,1.4,1.8c0.3,0.8,0.4,2,0.4,3.4c0,1.5-0.1,2.6-0.4,3.4
	c-0.3,0.8-0.8,1.4-1.4,1.8c-0.6,0.4-1.6,0.5-2.7,0.5c-1,0-1.9-0.2-2.5-0.5c-0.6-0.3-1-0.8-1.3-1.6c-0.3-0.7-0.5-1.8-0.5-3.1h-2.2v5
	h-2v-11h2v4.5h2.2c0.1-1.2,0.2-2.1,0.5-2.8s0.7-1.2,1.3-1.5C438.5,132.9,439.3,132.8,440.3,132.8z M440.3,142.5
	c0.6,0,1.1-0.1,1.5-0.4c0.4-0.2,0.6-0.7,0.8-1.2c0.1-0.6,0.2-1.4,0.2-2.4s-0.1-1.9-0.2-2.4c-0.1-0.6-0.4-1-0.8-1.2
	c-0.3-0.2-0.8-0.4-1.5-0.4c-0.6,0-1.1,0.1-1.4,0.4c-0.3,0.2-0.6,0.7-0.7,1.2c-0.1,0.6-0.2,1.4-0.2,2.4s0.1,1.9,0.2,2.4
	c0.1,0.6,0.4,1,0.7,1.2C439.2,142.4,439.7,142.5,440.3,142.5z M454.9,144h-2v-9.5h-1.7c-0.3,0-0.6,0.1-0.8,0.3
	c-0.2,0.2-0.3,0.4-0.3,0.8c-0.1,1.8-0.3,3.1-0.4,4c-0.1,0.8-0.3,1.6-0.6,2.2c-0.3,0.8-0.7,1.3-1.2,1.7s-1.1,0.6-1.8,0.6
	c-0.1,0-0.3,0-0.3,0l-0.2-1.6c0.4-0.1,0.7-0.2,1-0.4c0.3-0.2,0.5-0.5,0.6-0.8c0.2-0.6,0.4-1.3,0.6-2.2c0.1-0.8,0.3-2.1,0.4-3.9
	c0.1-0.7,0.3-1.3,0.7-1.7s1-0.6,1.7-0.6h4.3V144z M463.3,140.9h-4.1l-0.9,3.1h-2l3.3-10.5c0-0.2,0.1-0.3,0.3-0.4
	c0.1-0.1,0.3-0.1,0.5-0.1h2c0.2,0,0.3,0,0.4,0.1c0.1,0.1,0.2,0.2,0.3,0.4l3.3,10.5h-2L463.3,140.9z M462.8,139.2l-1.1-3.8
	c0-0.1-0.1-0.2-0.1-0.4c-0.1-0.2-0.1-0.4-0.1-0.5h-0.4l-0.3,0.9l-1.1,3.8H462.8z"/>
<linearGradient id="SVGID_36_" gradientUnits="userSpaceOnUse" x1="142.4096" y1="478.9601" x2="130.7386" y2="440.5281" gradientTransform="matrix(1 0 0 -1 0 602)">
	<stop  offset="0" style="stop-color:#E4F5FF"/>
	<stop  offset="1" style="stop-color:#B4E2FD"/>
</linearGradient>
<path class="st75" d="M106.5,126h60c6.1,0,11,4.9,11,11v11c0,6.1-4.9,11-11,11h-60c-6.1,0-11-4.9-11-11v-11
	C95.5,130.9,100.4,126,106.5,126z"/>
<path class="st17" d="M117.6,144.9h-4.1l-0.9,3.1h-2l3.3-10.5c0-0.2,0.1-0.3,0.3-0.4c0.1-0.1,0.3-0.1,0.5-0.1h2c0.2,0,0.3,0,0.4,0.1
	c0.1,0.1,0.2,0.2,0.3,0.4l3.2,10.5h-2L117.6,144.9z M117.2,143.2l-1.1-3.8c0-0.1-0.1-0.2-0.1-0.4c-0.1-0.2-0.1-0.4-0.1-0.5h-0.4
	l-0.3,0.9l-1.2,3.8H117.2z M127.7,142.3c0.8,0.1,1.4,0.4,1.7,0.8c0.4,0.5,0.5,1.2,0.5,2.1c0,0.8-0.1,1.3-0.4,1.8
	c-0.2,0.4-0.6,0.7-1.2,0.9c-0.5,0.2-1.2,0.3-2.1,0.3c-1.1,0-1.9,0-2.5,0c-0.6,0-1.2,0-1.9-0.1V137c0.6-0.1,1.1-0.1,1.6-0.1
	c0.6,0,1.3,0,2.2,0c1,0,1.7,0.1,2.3,0.3c0.5,0.2,0.9,0.4,1.2,0.9c0.2,0.4,0.4,1,0.4,1.8c0,0.8-0.1,1.4-0.4,1.8
	C128.9,141.9,128.4,142.2,127.7,142.3z M123.9,138.4v3.1h2c0.5,0,0.8,0,1.1-0.1c0.3-0.1,0.4-0.3,0.5-0.5c0.1-0.2,0.2-0.5,0.2-1
	c0-0.4-0.1-0.7-0.2-0.9s-0.3-0.4-0.6-0.4c-0.3-0.1-0.7-0.1-1.2-0.1h-1.8V138.4z M126,146.5c0.5,0,0.9,0,1.2-0.1
	c0.3-0.1,0.5-0.3,0.6-0.5c0.1-0.2,0.2-0.6,0.2-1c0-0.5-0.1-0.9-0.2-1.1c-0.1-0.3-0.3-0.5-0.6-0.6c-0.3-0.1-0.7-0.2-1.2-0.2h-2v3.5
	C124.3,146.5,125,146.5,126,146.5z M140.7,148h-1.9v-7.2c0-0.4,0-0.9,0.1-1.4h-0.1c-0.2,0.6-0.4,1-0.6,1.3L134,148h-2v-11h1.9v7.1
	c0,0.5,0,1-0.1,1.4h0.1c0.1-0.4,0.3-0.8,0.6-1.3l4.2-7.2h2V148z M151.1,138.7h-3.4v9.3h-2v-9.3h-3.4V137h8.8V138.7L151.1,138.7z
	 M156.7,136.8c1.2,0,2.1,0.2,2.7,0.5c0.7,0.4,1.1,0.9,1.4,1.8c0.3,0.8,0.4,2,0.4,3.4c0,1.5-0.1,2.6-0.4,3.4
	c-0.3,0.8-0.8,1.4-1.4,1.8c-0.6,0.4-1.6,0.5-2.7,0.5c-1.2,0-2.1-0.2-2.7-0.5c-0.6-0.4-1.1-0.9-1.4-1.8c-0.3-0.8-0.4-2-0.4-3.4
	c0-1.5,0.1-2.6,0.4-3.4c0.3-0.8,0.8-1.4,1.4-1.8C154.6,136.9,155.5,136.8,156.7,136.8z M156.7,138.5c-0.6,0-1.1,0.1-1.5,0.4
	c-0.3,0.2-0.6,0.7-0.7,1.2c-0.1,0.6-0.2,1.4-0.2,2.4s0.1,1.9,0.2,2.4c0.2,0.6,0.4,1,0.7,1.2c0.4,0.2,0.8,0.4,1.5,0.4
	c0.6,0,1.1-0.1,1.5-0.4c0.4-0.2,0.6-0.7,0.8-1.2c0.1-0.6,0.2-1.4,0.2-2.4s-0.1-1.9-0.2-2.4c-0.1-0.6-0.4-1-0.8-1.2
	C157.8,138.6,157.3,138.5,156.7,138.5z"/>
<linearGradient id="SVGID_37_" gradientUnits="userSpaceOnUse" x1="521.7969" y1="262.294" x2="505.412" y2="200.494" gradientTransform="matrix(1 0 0 -1 0 602)">
	<stop  offset="0" style="stop-color:#E4F5FF"/>
	<stop  offset="1" style="stop-color:#B4E2FD"/>
</linearGradient>
<path class="st76" d="M450.5,345h126c6.1,0,11,4.9,11,11v30c0,6.1-4.9,11-11,11h-126c-6.1,0-11-4.9-11-11v-30
	C439.5,349.9,444.4,345,450.5,345z"/>
<path class="st17" d="M497.3,360.5c1,0,1.7,0.1,2.3,0.3c0.6,0.2,1,0.5,1.2,1c0.2,0.5,0.4,1.1,0.4,2c0,1-0.1,1.7-0.4,2.2
	c-0.3,0.5-0.7,0.8-1.3,0.9s-1.3,0.2-2.4,0.2c-1.3,0-2.5,0-3.6-0.1v-11c1.4-0.1,2.6-0.1,3.6-0.1s2.2,0,3.5,0.1l-0.2,1.6h-5v3h1.9
	V360.5z M497.3,365.5c0.5,0,0.9-0.1,1.2-0.1c0.3-0.1,0.4-0.3,0.5-0.5c0.1-0.2,0.1-0.6,0.1-1.1s0-0.8-0.1-1.1
	c-0.1-0.2-0.3-0.4-0.5-0.5c-0.3-0.1-0.6-0.2-1.2-0.2h-1.9v3.5H497.3L497.3,365.5z M509,363.9h-4.1L504,367h-2l3.3-10.5
	c0-0.2,0.1-0.3,0.3-0.4c0.1-0.1,0.3-0.1,0.5-0.1h2c0.2,0,0.3,0,0.4,0.1s0.2,0.2,0.3,0.4l3.3,10.5h-2L509,363.9z M508.5,362.2
	l-1.1-3.8c0-0.1-0.1-0.2-0.1-0.4c-0.1-0.2-0.1-0.4-0.1-0.5h-0.4l-0.3,0.9l-1.1,3.8H508.5z M516.1,355.8c0.9,0,1.7,0.1,2.2,0.3
	c0.5,0.2,0.9,0.4,1.2,0.9c0.2,0.4,0.4,1,0.4,1.8c0,0.8-0.2,1.4-0.4,1.8c-0.3,0.4-0.8,0.6-1.4,0.7v0.1c0.8,0.1,1.3,0.4,1.7,0.8
	c0.3,0.5,0.5,1.2,0.5,2.1c0,0.8-0.1,1.3-0.4,1.8c-0.2,0.4-0.6,0.7-1.1,0.9s-1.2,0.3-2.1,0.3c-0.9,0-1.6,0-2.2-0.1
	c-0.6-0.1-1.2-0.2-1.8-0.3l0.2-1.4c1.2,0.2,2.4,0.3,3.5,0.3c0.5,0,0.9,0,1.1-0.1c0.3-0.1,0.5-0.3,0.6-0.5c0.1-0.2,0.2-0.6,0.2-1
	c0-0.5-0.1-0.9-0.2-1.1c-0.1-0.3-0.3-0.4-0.6-0.6c-0.3-0.1-0.7-0.2-1.2-0.2h-2v-1.5h2c0.6,0,1.1-0.1,1.3-0.3
	c0.2-0.2,0.4-0.6,0.4-1.2c0-0.4-0.1-0.7-0.2-1c-0.1-0.2-0.3-0.4-0.6-0.5c-0.3-0.1-0.6-0.1-1.1-0.1c-0.6,0-1.1,0-1.6,0.1
	c-0.5,0-0.8,0.1-0.9,0.1h-0.4l-0.2-1.5c0.5-0.1,1-0.2,1.5-0.2C514.8,355.8,515.4,355.8,516.1,355.8z M526,360.2c1,0,1.7,0.1,2.3,0.3
	c0.6,0.2,0.9,0.6,1.2,1.1c0.2,0.5,0.4,1.2,0.4,2.1c0,0.9-0.1,1.6-0.4,2.1c-0.2,0.5-0.6,0.8-1.1,1c-0.5,0.2-1.2,0.3-2,0.3
	c-1,0-1.8,0-2.4,0s-1.2,0-1.8-0.1v-11h2v4.2H526z M533.6,356v11h-2v-11H533.6z M526,365.5c0.5,0,0.9,0,1.2-0.1s0.4-0.3,0.5-0.5
	c0.1-0.2,0.1-0.6,0.1-1.1s0-0.9-0.1-1.2c-0.1-0.3-0.3-0.4-0.5-0.6c-0.3-0.1-0.6-0.2-1.2-0.2h-1.9v3.7H526L526,365.5z M459,374.8
	c0.9,0,1.7,0.1,2.2,0.3c0.5,0.2,0.9,0.5,1.2,0.9c0.2,0.4,0.4,1,0.4,1.8c0,0.8-0.1,1.4-0.4,1.8c-0.3,0.4-0.8,0.6-1.4,0.7v0.1
	c0.8,0.1,1.3,0.4,1.7,0.8c0.3,0.5,0.5,1.2,0.5,2.1c0,0.8-0.1,1.3-0.4,1.8c-0.2,0.4-0.6,0.7-1.1,0.9s-1.2,0.3-2.1,0.3s-1.6,0-2.2-0.1
	c-0.6-0.1-1.2-0.2-1.8-0.3l0.2-1.4c1.2,0.2,2.4,0.3,3.5,0.3c0.5,0,0.9,0,1.1-0.1c0.3-0.1,0.5-0.3,0.6-0.5c0.1-0.2,0.2-0.6,0.2-1
	c0-0.5-0.1-0.9-0.2-1.1c-0.1-0.3-0.3-0.4-0.6-0.6c-0.3-0.1-0.7-0.2-1.2-0.2h-2v-1.5h2c0.6,0,1.1-0.1,1.3-0.3s0.4-0.6,0.4-1.2
	c0-0.4-0.1-0.7-0.2-1c-0.1-0.2-0.3-0.4-0.6-0.5c-0.3-0.1-0.6-0.1-1.1-0.1c-0.6,0-1.1,0-1.6,0.1c-0.5,0.1-0.8,0.1-0.9,0.1h-0.4
	l-0.2-1.5c0.5-0.1,1-0.2,1.5-0.2C457.8,374.8,458.4,374.8,459,374.8z M471,382.9h-4.1L466,386h-2l3.3-10.5c0-0.2,0.1-0.3,0.3-0.4
	c0.1-0.1,0.3-0.1,0.5-0.1h2c0.2,0,0.3,0.1,0.4,0.1c0.1,0.1,0.2,0.2,0.3,0.4L474,386h-2L471,382.9z M470.5,381.2l-1.1-3.8
	c0-0.1-0.1-0.2-0.1-0.4c-0.1-0.2-0.1-0.4-0.1-0.5h-0.4l-0.3,0.9l-1.1,3.8H470.5z M479.3,374.8c0.7,0,1.3,0,1.7,0.1
	c0.5,0.1,0.9,0.1,1.4,0.3l-0.2,1.5c-0.9-0.1-1.9-0.1-3-0.1c-0.6,0-1.1,0.1-1.4,0.4c-0.3,0.2-0.6,0.6-0.7,1.2
	c-0.1,0.6-0.2,1.4-0.2,2.4s0.1,1.8,0.2,2.4s0.4,1,0.7,1.2c0.3,0.2,0.8,0.4,1.4,0.4c0.7,0,1.3,0,1.8,0s0.9-0.1,1.4-0.1l0.2,1.5
	c-0.5,0.2-1,0.2-1.5,0.3c-0.5,0.1-1.1,0.1-1.9,0.1c-1.1,0-2-0.2-2.7-0.5c-0.7-0.4-1.1-1-1.4-1.8c-0.3-0.8-0.4-2-0.4-3.4
	c0-1.4,0.1-2.5,0.4-3.4c0.3-0.8,0.8-1.4,1.4-1.8C477.3,374.9,478.2,374.8,479.3,374.8z M492.3,376.7h-3.4v9.3h-2v-9.3h-3.4V375h8.8
	V376.7L492.3,376.7z M497.9,374.8c1,0,1.7,0.1,2.3,0.3c0.5,0.2,0.9,0.6,1.2,1.1c0.2,0.5,0.4,1.2,0.4,2.2c0,0.9-0.1,1.7-0.4,2.2
	c-0.2,0.5-0.6,0.9-1.1,1.1c-0.5,0.2-1.2,0.3-2.1,0.3c-0.8,0-1.5,0-2.2-0.1v4.2h-2v-11c0.6-0.1,1.2-0.1,1.7-0.1
	C496.2,374.8,496.9,374.8,497.9,374.8z M497.9,380.3c0.5,0,0.8-0.1,1.1-0.2s0.4-0.3,0.5-0.6s0.2-0.7,0.2-1.2s-0.1-0.9-0.2-1.2
	c-0.1-0.3-0.3-0.5-0.5-0.6c-0.3-0.1-0.6-0.2-1.1-0.2c-0.9,0-1.6,0-1.9,0v3.8h1.9V380.3z M507.7,374.8c1.2,0,2.1,0.2,2.7,0.5
	c0.6,0.3,1.1,0.9,1.4,1.8c0.3,0.8,0.4,2,0.4,3.4s-0.1,2.6-0.4,3.4c-0.3,0.8-0.8,1.4-1.4,1.8c-0.7,0.3-1.6,0.5-2.7,0.5
	c-1.1,0-2.1-0.2-2.7-0.5c-0.7-0.4-1.1-0.9-1.4-1.8c-0.3-0.8-0.4-2-0.4-3.4s0.1-2.6,0.4-3.4c0.3-0.8,0.8-1.4,1.4-1.8
	C505.6,374.9,506.5,374.8,507.7,374.8z M507.7,376.5c-0.6,0-1.1,0.1-1.5,0.4c-0.3,0.2-0.6,0.7-0.7,1.2c-0.1,0.6-0.2,1.4-0.2,2.4
	c0,1.1,0.1,1.9,0.2,2.4c0.1,0.6,0.4,1,0.7,1.2c0.4,0.2,0.8,0.4,1.5,0.4c0.6,0,1.1-0.1,1.5-0.4c0.4-0.2,0.6-0.7,0.8-1.2
	c0.1-0.6,0.2-1.4,0.2-2.4s-0.1-1.8-0.2-2.4s-0.4-1-0.8-1.2C508.8,376.6,508.3,376.5,507.7,376.5z M523.1,386h-1.9v-7.2
	c0-0.4,0-0.9,0.1-1.4h-0.1c-0.2,0.6-0.4,1-0.6,1.3l-4.2,7.3h-2v-11h1.9v7.1c0,0.5,0,1-0.1,1.4h0.1c0.1-0.4,0.3-0.9,0.6-1.3l4.2-7.2
	h2V386z M521.3,371.8v0.2c0,0.6-0.2,1.1-0.7,1.5s-1.1,0.6-1.8,0.6c-0.8,0-1.4-0.2-1.9-0.6s-0.7-0.9-0.7-1.5v-0.2h1.4
	c0,0.9,0.4,1.3,1.2,1.3c0.4,0,0.7-0.1,0.8-0.3c0.2-0.2,0.3-0.6,0.3-1H521.3z M539.5,384.4v4h-1.4L538,386h-12.4v-11h2v9.5h3.4V375
	h1.9v9.5h3.4V375h2v9.5h1.2V384.4z M549.9,386H548v-7.2c0-0.4,0-0.9,0.1-1.4H548c-0.2,0.6-0.4,1-0.6,1.3l-4.2,7.3h-2v-11h1.9v7.1
	c0,0.5,0,1-0.1,1.4h0.1c0.1-0.4,0.3-0.9,0.6-1.3l4.2-7.2h2V386z M556.6,374.8c1.2,0,2.1,0.2,2.7,0.5c0.7,0.3,1.1,0.9,1.4,1.8
	c0.3,0.8,0.4,2,0.4,3.4s-0.2,2.6-0.4,3.4c-0.3,0.8-0.8,1.4-1.4,1.8c-0.7,0.3-1.6,0.5-2.7,0.5c-1.2,0-2.1-0.2-2.7-0.5
	c-0.7-0.4-1.1-0.9-1.4-1.8c-0.3-0.8-0.4-2-0.4-3.4s0.1-2.6,0.4-3.4c0.3-0.8,0.8-1.4,1.4-1.8C554.5,374.9,555.4,374.8,556.6,374.8z
	 M556.6,376.5c-0.6,0-1.1,0.1-1.5,0.4c-0.3,0.2-0.6,0.7-0.7,1.2c-0.2,0.6-0.2,1.4-0.2,2.4c0,1.1,0.1,1.9,0.2,2.4
	c0.1,0.6,0.4,1,0.7,1.2c0.4,0.2,0.8,0.4,1.5,0.4c0.6,0,1.1-0.1,1.5-0.4c0.4-0.2,0.6-0.7,0.8-1.2c0.1-0.6,0.2-1.4,0.2-2.4
	s-0.1-1.8-0.2-2.4c-0.2-0.6-0.4-1-0.8-1.2C557.7,376.6,557.2,376.5,556.6,376.5z M569,380.3c0.8,0.1,1.4,0.4,1.7,0.8
	c0.4,0.5,0.5,1.2,0.5,2.1c0,0.8-0.1,1.3-0.4,1.8c-0.2,0.4-0.6,0.7-1.2,0.9c-0.5,0.2-1.2,0.3-2.1,0.3c-1.1,0-1.9,0-2.5,0
	s-1.2,0-1.9-0.1v-11c0.6,0,1.1-0.1,1.6-0.1c0.6,0,1.3,0,2.2,0c1,0,1.7,0.1,2.3,0.3c0.5,0.2,0.9,0.5,1.2,0.9c0.2,0.4,0.4,1,0.4,1.8
	s-0.2,1.4-0.4,1.8C570.2,379.9,569.7,380.2,569,380.3z M565.2,376.4v3.1h2c0.5,0,0.8,0,1.1-0.1s0.4-0.2,0.5-0.5
	c0.1-0.2,0.2-0.5,0.2-1c0-0.4-0.1-0.7-0.2-0.9c-0.1-0.2-0.3-0.4-0.6-0.4c-0.3-0.1-0.7-0.1-1.2-0.1h-1.8V376.4z M567.3,384.5
	c0.5,0,0.9,0,1.2-0.1s0.5-0.2,0.6-0.5c0.1-0.2,0.2-0.6,0.2-1c0-0.5-0.1-0.9-0.2-1.1c-0.1-0.3-0.3-0.4-0.6-0.6
	c-0.3-0.1-0.7-0.2-1.2-0.2h-2v3.5C565.6,384.5,566.3,384.5,567.3,384.5z"/>
<linearGradient id="SVGID_38_" gradientUnits="userSpaceOnUse" x1="476.7855" y1="71.5151" x2="470.6974" y2="30.4441" gradientTransform="matrix(1 0 0 -1 0 602)">
	<stop  offset="0" style="stop-color:#E4F5FF"/>
	<stop  offset="1" style="stop-color:#B4E2FD"/>
</linearGradient>
<path class="st77" d="M400.7,534.8h146c6.1,0,11,4.9,11,11v11c0,6.1-4.9,11-11,11h-146c-6.1,0-11-4.9-11-11v-11
	C389.7,539.7,394.6,534.8,400.7,534.8z"/>
<path class="st17" d="M409.8,550.3c1,0,1.7,0.1,2.3,0.3c0.6,0.2,1,0.6,1.2,1c0.2,0.5,0.4,1.1,0.4,2c0,1-0.1,1.7-0.4,2.1
	c-0.3,0.5-0.7,0.8-1.3,0.9c-0.6,0.1-1.3,0.2-2.4,0.2c-1.3,0-2.5-0.1-3.6-0.1v-11c1.4-0.1,2.6-0.1,3.6-0.1s2.2,0,3.5,0.1l-0.2,1.6h-5
	v3H409.8z M409.8,555.3c0.5,0,0.9-0.1,1.2-0.2c0.3-0.1,0.4-0.3,0.5-0.5c0.1-0.2,0.1-0.6,0.1-1.1s0-0.8-0.1-1.1
	c-0.1-0.2-0.3-0.4-0.5-0.5c-0.3-0.1-0.6-0.2-1.2-0.2h-1.9v3.5L409.8,555.3L409.8,555.3z M421.5,553.7h-4.1l-0.9,3.1h-2l3.3-10.5
	c0-0.2,0.1-0.3,0.3-0.4c0.1-0.1,0.3-0.1,0.5-0.1h2c0.2,0,0.3,0,0.4,0.1c0.1,0.1,0.2,0.2,0.3,0.4l3.3,10.5h-2L421.5,553.7z M421,552
	l-1.1-3.8c0-0.1-0.1-0.2-0.1-0.4c-0.1-0.2-0.1-0.4-0.1-0.5h-0.4l-0.3,0.9l-1.1,3.8H421z M428.6,545.6c0.9,0,1.7,0.1,2.2,0.2
	c0.5,0.2,0.9,0.5,1.2,0.9c0.2,0.4,0.4,1,0.4,1.8s-0.1,1.4-0.4,1.8c-0.3,0.4-0.8,0.6-1.4,0.7v0.1c0.8,0.1,1.4,0.4,1.7,0.9
	c0.3,0.5,0.5,1.2,0.5,2.1c0,0.8-0.1,1.3-0.4,1.8c-0.2,0.4-0.6,0.7-1.1,0.9s-1.2,0.2-2.1,0.2c-0.9,0-1.6,0-2.2-0.1
	c-0.6-0.1-1.2-0.2-1.8-0.3l0.2-1.4c1.2,0.2,2.4,0.2,3.5,0.2c0.5,0,0.9,0,1.1-0.1c0.3-0.1,0.5-0.3,0.6-0.5s0.2-0.6,0.2-1
	c0-0.5-0.1-0.9-0.2-1.1c-0.1-0.3-0.3-0.5-0.6-0.6c-0.3-0.1-0.7-0.2-1.2-0.2h-2v-1.5h2c0.6,0,1.1-0.1,1.3-0.3
	c0.2-0.2,0.4-0.6,0.4-1.2c0-0.4-0.1-0.7-0.2-1c-0.1-0.2-0.3-0.4-0.6-0.5c-0.3-0.1-0.6-0.1-1.1-0.1c-0.6,0-1.1,0-1.6,0.1
	c-0.5,0-0.8,0.1-0.9,0.1h-0.4l-0.2-1.5c0.5-0.1,1-0.2,1.5-0.2C427.3,545.6,427.9,545.6,428.6,545.6z M438.6,550c1,0,1.7,0.1,2.3,0.3
	s0.9,0.6,1.2,1.1c0.2,0.5,0.4,1.2,0.4,2.1s-0.1,1.6-0.4,2.1c-0.2,0.5-0.6,0.8-1.1,1c-0.5,0.2-1.2,0.3-2,0.3c-1,0-1.8,0-2.4,0
	s-1.2,0-1.8-0.1v-11h2v4.2H438.6L438.6,550z M446.2,545.7v11h-2v-11H446.2z M438.6,555.2c0.5,0,0.9-0.1,1.2-0.1
	c0.3-0.1,0.4-0.3,0.5-0.5c0.1-0.3,0.1-0.6,0.1-1.1s0-0.9-0.1-1.2c-0.1-0.3-0.3-0.5-0.5-0.6c-0.3-0.1-0.6-0.2-1.2-0.2h-1.9v3.7H438.6
	L438.6,555.2z M456.2,545.6c1,0,1.7,0.1,2.3,0.3c0.5,0.2,0.9,0.6,1.2,1.1c0.2,0.5,0.4,1.2,0.4,2.2c0,0.9-0.1,1.7-0.4,2.2
	c-0.2,0.5-0.6,0.9-1.1,1.1s-1.2,0.3-2.1,0.3c-0.8,0-1.5,0-2.2-0.1v4.2h-2v-11c0.6-0.1,1.2-0.1,1.7-0.1
	C454.4,545.6,455.2,545.6,456.2,545.6z M456.1,551.1c0.5,0,0.8-0.1,1.1-0.2c0.3-0.1,0.4-0.3,0.5-0.6c0.1-0.3,0.2-0.7,0.2-1.2
	s-0.1-0.9-0.2-1.2c-0.1-0.3-0.3-0.5-0.5-0.6c-0.3-0.1-0.6-0.2-1.1-0.2c-0.9,0-1.6,0-1.9,0v3.8h1.9V551.1z M470.5,556.8h-1.9v-7.2
	c0-0.4,0-0.9,0.1-1.4h-0.1c-0.2,0.6-0.4,1-0.6,1.3l-4.2,7.3h-2v-11h1.9v7.1c0,0.5,0,1-0.1,1.4h0.1c0.1-0.4,0.3-0.9,0.6-1.3l4.2-7.2
	h2V556.8z M480,555.2l0.1,1.5c-0.6,0-1.3,0.1-2.1,0.1c-0.7,0-1.7,0-2.8,0c-0.7,0-1.3-0.2-1.7-0.6c-0.4-0.4-0.6-0.9-0.6-1.5v-6.9
	c0-0.7,0.2-1.2,0.6-1.5c0.4-0.4,1-0.6,1.7-0.6c1.1,0,2,0,2.8,0c0.7,0,1.4,0,2.1,0.1l-0.1,1.5h-4.3c-0.3,0-0.5,0.1-0.6,0.2
	s-0.2,0.4-0.2,0.7v1.9h4.5v1.5h-4.5v2.5c0,0.3,0.1,0.6,0.2,0.7c0.1,0.1,0.3,0.2,0.6,0.2h4.3V555.2z M490.2,556.8h-2v-9.5h-1.7
	c-0.3,0-0.6,0.1-0.8,0.2c-0.2,0.2-0.3,0.4-0.3,0.8c-0.1,1.8-0.3,3.1-0.4,4c-0.1,0.8-0.3,1.6-0.6,2.2c-0.3,0.8-0.7,1.3-1.2,1.7
	c-0.5,0.4-1.1,0.6-1.8,0.6c-0.1,0-0.3,0-0.3,0l-0.2-1.6c0.4-0.1,0.7-0.2,1-0.4c0.3-0.2,0.5-0.5,0.6-0.8c0.2-0.6,0.4-1.3,0.6-2.2
	c0.1-0.8,0.3-2.1,0.4-3.9c0.1-0.7,0.3-1.3,0.7-1.7c0.4-0.4,1-0.6,1.7-0.6h4.3V556.8z M500.6,547.4h-3.4v9.3h-2v-9.3h-3.4v-1.7h8.8
	V547.4L500.6,547.4z M506.2,545.5c1.2,0,2.1,0.2,2.7,0.5c0.7,0.3,1.1,0.9,1.4,1.8c0.3,0.8,0.4,2,0.4,3.4c0,1.5-0.1,2.6-0.4,3.4
	c-0.3,0.8-0.8,1.4-1.4,1.8c-0.6,0.4-1.6,0.5-2.7,0.5c-1.2,0-2.1-0.2-2.7-0.5c-0.6-0.4-1.1-0.9-1.4-1.8c-0.3-0.8-0.4-2-0.4-3.4
	c0-1.5,0.1-2.6,0.4-3.4c0.3-0.8,0.8-1.4,1.4-1.8C504.2,545.7,505.1,545.5,506.2,545.5z M506.2,547.2c-0.6,0-1.1,0.1-1.5,0.4
	c-0.3,0.2-0.6,0.7-0.7,1.2c-0.1,0.6-0.2,1.4-0.2,2.4s0.1,1.8,0.2,2.4c0.1,0.6,0.4,1,0.7,1.2c0.4,0.2,0.8,0.4,1.5,0.4
	c0.6,0,1.1-0.1,1.5-0.4c0.4-0.2,0.6-0.7,0.8-1.2c0.1-0.6,0.2-1.4,0.2-2.4c0-1.1-0.1-1.8-0.2-2.4c-0.1-0.6-0.4-1-0.8-1.2
	C507.4,547.4,506.9,547.2,506.2,547.2z M516.9,545.6c1,0,1.7,0.1,2.3,0.3c0.5,0.2,0.9,0.6,1.2,1.1c0.2,0.5,0.4,1.2,0.4,2.2
	c0,0.9-0.1,1.7-0.4,2.2c-0.2,0.5-0.6,0.9-1.1,1.1s-1.2,0.3-2.1,0.3c-0.8,0-1.5,0-2.2-0.1v4.2h-2v-11c0.6-0.1,1.2-0.1,1.7-0.1
	C515.1,545.6,515.9,545.6,516.9,545.6z M516.8,551.1c0.5,0,0.8-0.1,1.1-0.2c0.3-0.1,0.4-0.3,0.5-0.6c0.1-0.3,0.2-0.7,0.2-1.2
	s-0.1-0.9-0.2-1.2c-0.1-0.3-0.3-0.5-0.5-0.6c-0.2-0.1-0.6-0.2-1.1-0.2c-0.9,0-1.6,0-1.9,0v3.8h1.9V551.1z M526.6,545.5
	c1.2,0,2.1,0.2,2.7,0.5c0.7,0.3,1.1,0.9,1.4,1.8c0.3,0.8,0.4,2,0.4,3.4c0,1.5-0.1,2.6-0.4,3.4c-0.3,0.8-0.8,1.4-1.4,1.8
	c-0.7,0.4-1.6,0.5-2.7,0.5c-1.2,0-2.1-0.2-2.7-0.5c-0.7-0.4-1.1-0.9-1.4-1.8c-0.3-0.8-0.4-2-0.4-3.4c0-1.5,0.1-2.6,0.4-3.4
	s0.8-1.4,1.4-1.8C524.6,545.7,525.5,545.5,526.6,545.5z M526.6,547.2c-0.6,0-1.1,0.1-1.5,0.4c-0.3,0.2-0.6,0.7-0.7,1.2
	c-0.1,0.6-0.2,1.4-0.2,2.4s0.1,1.8,0.2,2.4c0.1,0.6,0.4,1,0.7,1.2c0.4,0.2,0.8,0.4,1.5,0.4c0.6,0,1.1-0.1,1.5-0.4
	c0.4-0.2,0.6-0.7,0.8-1.2c0.1-0.6,0.2-1.4,0.2-2.4c0-1.1-0.1-1.8-0.2-2.4c-0.1-0.6-0.4-1-0.8-1.2
	C527.8,547.4,527.3,547.2,526.6,547.2z M539.1,551.1c0.8,0.1,1.4,0.4,1.7,0.9c0.4,0.5,0.5,1.2,0.5,2.1c0,0.8-0.1,1.3-0.4,1.8
	c-0.2,0.4-0.6,0.7-1.2,0.9c-0.5,0.2-1.2,0.2-2.1,0.2c-1.1,0-1.9,0-2.5,0c-0.6,0-1.2,0-1.9-0.1v-11c0.6-0.1,1.1-0.1,1.6-0.1
	c0.6,0,1.3,0,2.2,0c1,0,1.7,0.1,2.3,0.2c0.5,0.2,0.9,0.5,1.2,0.9c0.2,0.4,0.4,1,0.4,1.8s-0.1,1.4-0.4,1.8
	C540.2,550.7,539.7,550.9,539.1,551.1z M535.2,547.2v3.1h2c0.5,0,0.8,0,1.1-0.1c0.3-0.1,0.4-0.3,0.5-0.5c0.1-0.2,0.2-0.5,0.2-1
	c0-0.4-0.1-0.7-0.2-0.9c-0.1-0.2-0.3-0.4-0.6-0.5c-0.3-0.1-0.7-0.1-1.2-0.1H535.2z M537.4,555.3c0.5,0,0.9,0,1.2-0.1
	c0.3-0.1,0.5-0.3,0.6-0.5c0.1-0.2,0.2-0.6,0.2-1c0-0.5-0.1-0.9-0.2-1.1c-0.1-0.3-0.3-0.5-0.6-0.6c-0.3-0.1-0.7-0.2-1.2-0.2h-2v3.5
	C535.7,555.3,536.4,555.3,537.4,555.3z"/>
</svg>
