<svg id="Layer_1" data-name="Layer 1" xmlns="http://www.w3.org/2000/svg" viewBox="0 0 600 600"><defs><style>.cls-1,.cls-10{fill:#fff;}.cls-1,.cls-11,.cls-12,.cls-19,.cls-2,.cls-20,.cls-21,.cls-3,.cls-5,.cls-6,.cls-7,.cls-8{fill-rule:evenodd;}.cls-2,.cls-4{fill:#152e45;}.cls-3{fill:#d4efff;}.cls-5{fill:#8ddbff;}.cls-6{fill:#1c3ab0;}.cls-7,.cls-9{fill:#f40f48;}.cls-8{fill:#1d3bb0;}.cls-11{fill:#582b28;}.cls-12{fill:#78d6ff;}.cls-13{fill:#ed1e24;}.cls-14{fill:#231f20;}.cls-15{fill:#ea4335;}.cls-16{fill:#fbbc05;}.cls-17{fill:#4285f4;}.cls-18{fill:#34a853;}.cls-19{fill:#ec1c24;}.cls-20{fill:#00adee;}.cls-21{fill:#d53537;}.cls-22{fill:#ff8b2c;}</style></defs><title>Схема 6</title><g id="_5" data-name="5"><path class="cls-1" d="M443.3,355.9C464.6,294.6,413,242.5,393,225.6c-56.1-47.3-151.7-61.5-195.5-25.3-61.1,50.5-27.6,204.6,71.6,232.5C330.9,450.1,421.1,419.5,443.3,355.9Z"/><path class="cls-2" d="M242.1,205c-19.1,9.5-31.4,20.8-39.8,31.9-36.7,48.9-28.8,133.2,22.4,176.6,26,22,58.9,29.7,86.9,28.6,28.2-1,65.7-11.5,92.2-42.6,19.7-23.2,29.7-55,28-92.9-1.7-35.9-12.3-59.8-26.1-76.2C366.2,183.4,291.3,180.5,242.1,205Z"/><path class="cls-1" d="M74.2,565.7c34.8,24.7,77.6,6.1,92-1.8,40.5-22.1,67.4-73.6,52.7-105.9-20.6-45.1-124.5-57.8-160.8-7.1C35.5,482.5,38,540.1,74.2,565.7Z"/><path class="cls-3" d="M39.4,512.7c8.5,42.4,112.2,73.9,154.2,33.3,15.7-15.1,23.8-41.4,16.7-65.2-10.6-35.3-50.9-50.9-80.5-50.5C78.1,431.1,33,480.8,39.4,512.7Z"/><path class="cls-1" d="M53.3,388.3c40,12.5,74-17.7,85-29.4,30.8-32.8,40-88.8,16.4-114.3C121.8,208.9,21.3,228.4,3.1,286.5-8.2,322.5,11.8,375.3,53.3,388.3Z"/><path class="cls-3" d="M165.5,316.7c3.7-38.4-30.3-63.4-43.1-71.1C86.6,224,33.9,226.2,15.1,252.4-11.1,288.9,26,375.9,82.3,381.3,117.4,384.7,161.6,356.6,165.5,316.7Z"/><path class="cls-1" d="M55.4,133.4c10.7,34.6,46,54.4,77.9,55.3,44.8,1.3,88.2-34.2,90-76,2.1-50.1-56.1-95.7-107.8-82.2C73.3,41.5,42,89.9,55.4,133.4Z"/><path class="cls-3" d="M63.7,50.5C41.7,82.3,81.5,176.4,139.8,176c45.3-.3,87.5-57.4,77.5-94C203.4,31.2,87.8,15.5,63.7,50.5Z"/><path class="cls-1" d="M508.6,571.3c39.6-16.3,44.9-58.8,45.2-73.9,1-42.4-30.8-87.4-66.9-90.6-50.4-4.4-114.5,72.3-88.1,124.4C415.3,563.6,467.5,588.2,508.6,571.3Z"/><path class="cls-3" d="M392.6,510.9C399,543.4,490,586.4,531.2,540c26.6-29.9,24.8-88,1.4-106.7C493.7,402.3,384.8,471.3,392.6,510.9Z"/><path class="cls-4" d="M419.5,527.3H551.7a14.38,14.38,0,0,1,14.4,14.3h0a14.32,14.32,0,0,1-14.4,14.3H419.5a14.38,14.38,0,0,1-14.4-14.3h0A14.38,14.38,0,0,1,419.5,527.3Z"/><path class="cls-1" d="M427.4,540.1a4.14,4.14,0,0,0,.5-1.9,2.72,2.72,0,0,0-.9-2.4,5.25,5.25,0,0,0-3-.6c-1.7,0-3,0-4,.1v11.6c1,.1,2.5.1,4.5.1a4.92,4.92,0,0,0,2.9-.6,3,3,0,0,0,.8-2.4,3.42,3.42,0,0,0-.5-2.2,2.43,2.43,0,0,0-1.8-.9v-.1A2.13,2.13,0,0,0,427.4,540.1Zm-5.4-3.3h1.9a3,3,0,0,1,1.6.3,1.48,1.48,0,0,1,.4,1.3,1.57,1.57,0,0,1-.4,1.3,2,2,0,0,1-1.5.3h-2v-3.2Zm0,4.8h2a2.15,2.15,0,0,1,1.6.4,2,2,0,0,1,.4,1.5,1.79,1.79,0,0,1-.4,1.4,2.22,2.22,0,0,1-1.6.3h-2.2l.2-3.6Zm17.2-6.3h-2.1l-4.3,7.6a3.51,3.51,0,0,0-.6,1.4h-.1a7.57,7.57,0,0,0,.1-1.5v-7.5h-2v11.6h2.1l4.3-7.6a8.43,8.43,0,0,0,.6-1.4h.1a7.57,7.57,0,0,0-.1,1.5V547h2V535.3Zm11.2,10v-10H446a2.79,2.79,0,0,0-1.8.6,2.34,2.34,0,0,0-.7,1.7,24.44,24.44,0,0,1-1.5,7.6h-1.2v4.2h1.4l.2-2.5h7.8l.2,2.5h1.4v-4.2Zm-6.5,0a11.24,11.24,0,0,0,1-3.1,30.06,30.06,0,0,0,.5-4.2,1.14,1.14,0,0,1,.3-.8.78.78,0,0,1,.8-.2h1.8v8.3Zm12.4-.1c-.2,0-.5,0-.6-.2a1.88,1.88,0,0,1-.2-.8v-2.6h4.6V540h-4.6v-2a1.2,1.2,0,0,1,.2-.8.73.73,0,0,1,.6-.2h4.4l.1-1.6c-1-.1-2.7-.1-5-.1a3,3,0,0,0-1.8.6,1.91,1.91,0,0,0-.6,1.6v7.3a2.27,2.27,0,0,0,.6,1.6,2.79,2.79,0,0,0,1.8.6c2.3,0,4,0,5-.1l-.1-1.6-4.4-.1Zm7-8.8c-.7.9-1,2.4-1,4.7s.3,3.9,1,4.7a4.61,4.61,0,0,0,3.6,1.3c1.7,0,3-.4,3.6-1.3a8.61,8.61,0,0,0,1-4.7c0-2.3-.3-3.9-1-4.7a4.61,4.61,0,0,0-3.6-1.3C465.2,535.1,464,535.5,463.3,536.4Zm5.6,1.4a10.63,10.63,0,0,1,0,6.6,2.55,2.55,0,0,1-3.6.3l-.3-.3a10.63,10.63,0,0,1,0-6.6,2.66,2.66,0,0,1,3.7-.3C468.8,537.6,468.9,537.7,468.9,537.8Zm11.1,9.1h2.2l-3-6,2.8-5.6h-2.2l-2.4,4.9h-.3l-2.3-4.9h-2.1l2.8,5.6-3,6h2.2l2.5-5.2h.3Zm4-10.6c-.7.9-1,2.4-1,4.7s.3,3.9,1,4.7a4.61,4.61,0,0,0,3.6,1.3c1.7,0,3-.4,3.6-1.3a8.61,8.61,0,0,0,1-4.7c0-2.3-.3-3.9-1-4.7a5.63,5.63,0,0,0-7.2,0Zm5.6,1.4a10.63,10.63,0,0,1,0,6.6,2.55,2.55,0,0,1-3.6.3l-.3-.3a10.63,10.63,0,0,1,0-6.6,2.66,2.66,0,0,1,3.7-.3C489.4,537.6,489.5,537.7,489.6,537.7Zm9,7.5a1.82,1.82,0,0,1-1.9-.9,10.32,10.32,0,0,1,0-6.5,2.08,2.08,0,0,1,1.9-.9,28.12,28.12,0,0,1,3,.1l.2-1.6a11.7,11.7,0,0,0-3.2-.4,4.47,4.47,0,0,0-3.6,1.4c-.7.9-1,2.5-1,4.7a8.86,8.86,0,0,0,1,4.7,4,4,0,0,0,3.6,1.3,13.93,13.93,0,0,0,3.5-.4l-.2-1.6c-1.1.1-2.2.1-3.3.1Zm13.4-10h-9v1.9h3.5v9.8h2.1v-9.8h3.5l-.1-1.9Zm10.5,0h-2.1l-4.3,7.6a5.91,5.91,0,0,0-.6,1.4h-.1a7.57,7.57,0,0,0,.1-1.5v-7.5h-2v11.6h2.1l4.3-7.6c.2-.5.4-.9.6-1.4h.1a7.57,7.57,0,0,0-.1,1.5v7.6h2V535.2Zm9.1,0v4.6h-4.5v-4.6h-2v11.6h2v-5.3h4.5v5.3h2.1V535.2Zm6.6,11.6V538a1.08,1.08,0,0,1,.2-.8.78.78,0,0,1,.8-.2h4l.1-1.6c-1-.1-2.6-.1-4.8-.1a2,2,0,0,0-1.6.7,2.84,2.84,0,0,0-.7,1.7v9.2h2Zm15.5-11.6h-2.1l-4.3,7.6a5.91,5.91,0,0,0-.6,1.4h-.1a7.57,7.57,0,0,0,.1-1.5v-7.5h-2v11.6h2.1l4.3-7.6c.2-.5.4-.9.6-1.4h.1a7.57,7.57,0,0,0-.1,1.5v7.6h2V535.2Z"/><path class="cls-4" d="M41.9,528.3H200a14.38,14.38,0,0,1,14.4,14.3h0A14.47,14.47,0,0,1,200,557H41.9a14.38,14.38,0,0,1-14.4-14.3h0a14.4,14.4,0,0,1,14.4-14.4Z"/><path class="cls-1" d="M599.2,289.3c-6.5-39-46.8-54.8-61.4-59.1-41.1-12-92.7,4-104.4,34.8C417.1,308,476.8,384.4,534,375,569.5,369.1,605.9,329.7,599.2,289.3Z"/><path class="cls-3" d="M466.9,351.5c29.4,20.8,65.4,5.1,77.6-1.5,34.1-18.7,56.8-62,44.4-89.3-17.3-38-105-48.7-135.6-6C434.3,281.3,436.4,329.8,466.9,351.5Z"/><path class="cls-4" d="M474.6,335.3h76.5A25.78,25.78,0,0,1,576.9,361v.1h0a25.71,25.71,0,0,1-25.8,25.7H474.6a25.78,25.78,0,0,1-25.8-25.7h0a25.86,25.86,0,0,1,25.8-25.8Z"/><path class="cls-1" d="M480.2,345.6H471v1.8h3.6v9.8h2.1v-9.8h3.6Zm2.2,1.1c-.7.9-1.1,2.4-1.1,4.7s.4,3.9,1.1,4.7a4.7,4.7,0,0,0,3.7,1.3c1.8,0,3.1-.4,3.8-1.3s1-2.4,1-4.7-.4-3.9-1-4.7-2-1.3-3.8-1.3a4.7,4.7,0,0,0-3.7,1.3Zm5.8,1.4a10.63,10.63,0,0,1,0,6.6,2.81,2.81,0,0,1-3.9.2l-.2-.2a10.63,10.63,0,0,1,0-6.6,2.69,2.69,0,0,1,3.8-.2c.2.1.2.2.3.2Zm12.6,2.4a4.14,4.14,0,0,0,.5-1.9,2.72,2.72,0,0,0-.9-2.4,5.58,5.58,0,0,0-3.1-.6c-1.8,0-3.1,0-4.1.1v11.6c1.1.1,2.6.1,4.6.1a5.25,5.25,0,0,0,3-.6,3,3,0,0,0,.9-2.4,3.42,3.42,0,0,0-.5-2.2,2.14,2.14,0,0,0-1.8-.9v-.1a1.91,1.91,0,0,0,1.4-.7Zm-5.6-3.3h1.9a4.15,4.15,0,0,1,1.6.3,2.31,2.31,0,0,1,0,2.6,2,2,0,0,1-1.5.3h-2.1l.1-3.2Zm0,4.8h2.1a3.29,3.29,0,0,1,1.7.4,2.69,2.69,0,0,1,.5,1.5,1.79,1.79,0,0,1-.4,1.4,3.17,3.17,0,0,1-1.6.4h-2.2l-.1-3.7Zm15.8,5.3h2.2l-3.5-11a.76.76,0,0,0-.8-.6h-2.1a.76.76,0,0,0-.8.6l-3.5,11h2.2l1-3.3H510Zm-4.8-5,1.2-4,.3-1h.5c0,.1.1.4.2,1l1.2,4Zm10.5,5v-4.4a18.48,18.48,0,0,0,2.3.1,4.28,4.28,0,0,0,2.9-.8,4.4,4.4,0,0,0,.8-3,4.12,4.12,0,0,0-.9-3,4.83,4.83,0,0,0-3.1-.8c-1.8,0-3.2,0-4.2.1v11.6Zm0-10h2a2,2,0,0,1,1.5.4,3.07,3.07,0,0,1,0,3.2,2,2,0,0,1-1.5.4h-2v-4Zm10.1-1.6h-2.1v11.6h0c1,.1,2.5.1,4.4.1a4.43,4.43,0,0,0,2.9-.8,5.34,5.34,0,0,0,0-5.7,5.12,5.12,0,0,0-3.2-.8h-2v-4.4Zm7.9,0v11.6h2.1V345.7Zm-7.9,6h2a1.91,1.91,0,0,1,1.5.4,2.93,2.93,0,0,1,.4,1.6,1.5,1.5,0,0,1-1,1.9h0a1.7,1.7,0,0,1-1,0h-2l.1-3.9Zm24-1.2a3.2,3.2,0,0,0,.5-1.9,2.72,2.72,0,0,0-.9-2.4,5.75,5.75,0,0,0-3.1-.6c-1.8,0-3.2,0-4.1.1v11.6c1.1.1,2.6.1,4.6.1a5.25,5.25,0,0,0,3-.6,2.72,2.72,0,0,0,.9-2.4,4.19,4.19,0,0,0-.5-2.2,2.43,2.43,0,0,0-1.8-.9v-.1a1.62,1.62,0,0,0,1.4-.7Zm-5.6-3.3h2a2.88,2.88,0,0,1,1.6.3,2.31,2.31,0,0,1,0,2.6,2,2,0,0,1-1.5.3h-2.2l.1-3.2Zm0,4.8h2.2a2.54,2.54,0,0,1,1.7.4,2.69,2.69,0,0,1,.5,1.5,1.79,1.79,0,0,1-.4,1.4,2.32,2.32,0,0,1-1.6.3h-2.2l-.2-3.6Zm-69,23.1a2,2,0,0,1-2-.9,10.32,10.32,0,0,1,0-6.5,2.15,2.15,0,0,1,2-.9,30.09,30.09,0,0,1,3.1.1l.2-1.6a12.67,12.67,0,0,0-3.4-.4,4.68,4.68,0,0,0-3.7,1.4,10.59,10.59,0,0,0,0,9.4,4.29,4.29,0,0,0,3.7,1.3,14.72,14.72,0,0,0,3.6-.4l-.2-1.6A17.65,17.65,0,0,1,476.2,375.1Zm5.9-8.8c-.7.9-1.1,2.4-1.1,4.7s.4,3.9,1.1,4.7a6.06,6.06,0,0,0,7.5,0c.8-.9,1.1-2.4,1.1-4.7s-.4-3.9-1.1-4.7a5,5,0,0,0-3.8-1.3C484,365,482.8,365.4,482.1,366.3Zm5.8,1.4a10.63,10.63,0,0,1,0,6.6,2.67,2.67,0,0,1-4,0,10.63,10.63,0,0,1,0-6.6,2.15,2.15,0,0,1,2-.9A2,2,0,0,1,487.9,367.7Zm13.7,7.4v-10h-2.1v10H495v-10h-2.1v11.6h8.5l.2,2.5h1.5v-4.1Zm3-.5a1.42,1.42,0,0,0-.2.6v.9a.73.73,0,0,0,.2.6,1.42,1.42,0,0,0,.6.2h.6a.73.73,0,0,0,.6-.2,1.42,1.42,0,0,0,.2-.6v-1a.73.73,0,0,0-.2-.6,1.42,1.42,0,0,0-.6-.2h-.6A1.63,1.63,0,0,0,504.6,374.6Zm12.2.5a2,2,0,0,1-2-.9,10.32,10.32,0,0,1,0-6.5,2.25,2.25,0,0,1,2-.9,30.09,30.09,0,0,1,3.1.1l.2-1.6a12.42,12.42,0,0,0-3.3-.4,4.68,4.68,0,0,0-3.7,1.4A7.9,7.9,0,0,0,512,371c0,2.2.3,3.8,1.1,4.7a4.5,4.5,0,0,0,3.7,1.3,14.72,14.72,0,0,0,3.6-.4l-.2-1.6c-1.1,0-2.2.1-3.4.1Zm8.3-.1a.76.76,0,0,1-.8-1v-2.6h4.8v-1.6h-4.8v-2a1.2,1.2,0,0,1,.2-.8.73.73,0,0,1,.6-.2h4.6l.1-1.6c-1-.1-2.7-.1-5.1-.1a2.79,2.79,0,0,0-1.8.6,2,2,0,0,0-.7,1.6v7.3a2,2,0,0,0,.7,1.6,3,3,0,0,0,1.8.6c2.4,0,4.1,0,5.1-.1l-.1-1.6-4.6-.1Zm15.1-9.9H531v1.8h3.5v9.8h2.1v-9.8h3.6v-1.8Zm9.4,0c-1-.1-2.4-.1-4.2-.1a4.55,4.55,0,0,0-3,.8,3.22,3.22,0,0,0-.9,2.6,3.14,3.14,0,0,0,.5,2.1,2.23,2.23,0,0,0,1.7.9v.1a2,2,0,0,0-1.7,1.7l-1,3.5h2.2l.9-3.5a1.38,1.38,0,0,1,1.3-1.1h2v4.6h2.1l.1-11.6Zm-4.1,5.4a2.1,2.1,0,0,1-1.5-.5,2,2,0,0,1-.4-1.5,2.3,2.3,0,0,1,.4-1.4,2.6,2.6,0,0,1,1.5-.4h2v3.8Zm13.5,6.3h2.2l-3.1-6,2.9-5.6h-2.2l-2.4,4.9H556l-2.4-4.9h-2.2l2.9,5.6-3.1,6h2.2l2.6-5.2h.3Z"/><path class="cls-1" d="M381.2,134c11.5,37.1,52.8,47.2,67.6,49.4,41.6,6.3,89.7-16.1,97-47.6,10.1-44-58-110.4-112.5-93.7C399.5,52.4,369.3,95.5,381.2,134Z"/><path class="cls-3" d="M393.4,118.5c9,37.7,49.5,50.4,64.1,53.6,41,9,90.4-10.2,99.8-41.1,13-43.1-50.5-113.8-105.8-100.7C417.1,38.5,384.1,79.4,393.4,118.5Z"/><path class="cls-2" d="M428.8,138H538.4a14.55,14.55,0,0,1,0,29.1H428.8a14.55,14.55,0,1,1,0-29.1Z"/><path class="cls-1" d="M430.9,146.8v11.6H433v-10h4.6v10h2.1V146.8Zm12.1,1.1c-.7.9-1,2.4-1,4.7s.4,3.9,1,4.7,2,1.3,3.8,1.3,3-.4,3.8-1.3,1.1-2.4,1.1-4.7-.4-3.9-1.1-4.7a5,5,0,0,0-3.8-1.3C445,146.6,443.7,147,443,147.9Zm5.8,1.4a11,11,0,0,1,0,6.7,2.81,2.81,0,0,1-3.9.2l-.2-.2a11,11,0,0,1,0-6.7,2.81,2.81,0,0,1,3.9-.2C448.7,149.1,448.7,149.2,448.8,149.3Zm14.2-2.5h-2.2l-4.4,7.6a5.91,5.91,0,0,0-.6,1.4h-.1a7.57,7.57,0,0,0,.1-1.5v-7.5h-2v11.6h2.1l4.4-7.7a4.24,4.24,0,0,0,.6-1.4h.1a7.57,7.57,0,0,0-.1,1.5v7.6h2l.1-11.6Zm7,10a2,2,0,0,1-2-.9,10.32,10.32,0,0,1,0-6.5,2.25,2.25,0,0,1,2-.9,30.09,30.09,0,0,1,3.1.1l.2-1.6a12.67,12.67,0,0,0-3.4-.4,4.6,4.6,0,0,0-3.7,1.3c-.7.9-1.1,2.4-1.1,4.7s.4,3.8,1.1,4.7a4.68,4.68,0,0,0,3.7,1.4,14.72,14.72,0,0,0,3.6-.4l-.2-1.6C472.3,156.7,471.1,156.8,470,156.8Zm10.7-4.7a3,3,0,0,0,1.7-1.8,38.16,38.16,0,0,0,1.3-3.6h-2.1v.2a14.24,14.24,0,0,0-.5,1.6,6.94,6.94,0,0,1-.5,1.3,4.7,4.7,0,0,1-.6.9c-.2.2-.4.5-.7.6a2.92,2.92,0,0,1-.9.2h-1a5.7,5.7,0,0,0,.1-1.3v-3.4h-2.1v11.7h2.1v-4.1c0-.4-.1-.8-.1-1.1h1a1.7,1.7,0,0,1,.7.1,2.94,2.94,0,0,1,1.5,1.4,39.06,39.06,0,0,1,1.3,3.7h2.2l-.3-1a21.38,21.38,0,0,0-1.6-3.9,2.84,2.84,0,0,0-2.1-1.2v-.1a1.42,1.42,0,0,0,.6-.2Zm5.6-4.3c-.7.9-1,2.4-1,4.7s.4,3.9,1,4.7a4.7,4.7,0,0,0,3.7,1.3c1.7,0,3.1-.4,3.8-1.3s1.1-2.4,1.1-4.7-.4-3.9-1.1-4.7a5,5,0,0,0-3.8-1.3A4.7,4.7,0,0,0,486.3,147.8Zm5.8,1.4a11,11,0,0,1,0,6.7,2.81,2.81,0,0,1-3.9.2l-.2-.2a11,11,0,0,1,0-6.7,2.81,2.81,0,0,1,3.9-.2Zm12.6,2.3a3.2,3.2,0,0,0,.5-1.9,2.72,2.72,0,0,0-.9-2.4,5.58,5.58,0,0,0-3.1-.6c-1.8,0-3.1,0-4.1.1v11.6c1.1.1,2.6.1,4.6.1a5.25,5.25,0,0,0,3-.6,2.72,2.72,0,0,0,.9-2.4,3.42,3.42,0,0,0-.5-2.2,2.14,2.14,0,0,0-1.8-.9v-.1a1.33,1.33,0,0,0,1.4-.7Zm-5.6-3.2H501a4.15,4.15,0,0,1,1.6.3,2.31,2.31,0,0,1,0,2.6,2,2,0,0,1-1.5.3H499l.1-3.2Zm0,4.8h2.1a2.54,2.54,0,0,1,1.7.4,3,3,0,0,1,0,3,2.32,2.32,0,0,1-1.6.3h-2.2v-3.7Zm17.8-6.4h-2.2l-4.4,7.6a3.51,3.51,0,0,0-.6,1.4h-.1a7.57,7.57,0,0,0,.1-1.5v-7.5h-2v11.6h2.1l4.4-7.7a3.51,3.51,0,0,0,.6-1.4h.1a7.57,7.57,0,0,0-.1,1.5v7.6h2l.1-11.6Zm8,5.4a3,3,0,0,0,1.7-1.8,38.16,38.16,0,0,0,1.3-3.6h-2.1v.2a14.24,14.24,0,0,0-.5,1.6,6.94,6.94,0,0,1-.5,1.3,4.7,4.7,0,0,1-.6.9,1.34,1.34,0,0,1-.7.6,2.92,2.92,0,0,1-.9.2h-1a5.7,5.7,0,0,0,.1-1.3v-3.4h-2.1v11.6h2.1v-4.1c0-.4-.1-.8-.1-1.1h1a1.7,1.7,0,0,1,.7.1,2.94,2.94,0,0,1,1.5,1.4,39.06,39.06,0,0,1,1.3,3.7h2.2a6.21,6.21,0,0,1-.3-1,21.38,21.38,0,0,0-1.6-3.9,2.84,2.84,0,0,0-2.1-1.2v-.1a.66.66,0,0,0,.6-.1Zm14.2-5.4H537l-4.4,7.6a5.91,5.91,0,0,0-.6,1.4h-.1a7.57,7.57,0,0,0,.1-1.5v-7.5h-2v11.6h2.2l4.4-7.7a4.24,4.24,0,0,0,.6-1.4h.1a7.57,7.57,0,0,0-.1,1.5v7.6h2l-.1-11.6Z"/><path class="cls-4" d="M97.6,137.4H198a14.38,14.38,0,0,1,14.4,14.3h0A14.32,14.32,0,0,1,198,166H97.6a14.38,14.38,0,0,1-14.4-14.3h0a14.32,14.32,0,0,1,14.4-14.3Z"/><path class="cls-4" d="M46.8,343.2h84.6a14.38,14.38,0,0,1,14.4,14.3h0a14.47,14.47,0,0,1-14.4,14.4H46.8a14.38,14.38,0,0,1-14.4-14.3h0a14.47,14.47,0,0,1,14.4-14.4Z"/><path class="cls-1" d="M509.9,44.6H427.3a6.06,6.06,0,0,0-6.1,6.1h0v51.8a6.06,6.06,0,0,0,6.1,6.1h82.6a6.06,6.06,0,0,0,6.1-6.1h0V50.7a6.06,6.06,0,0,0-6.1-6.1Z"/><path class="cls-5" d="M517.7,44.6H510a6.06,6.06,0,0,1,6.1,6.1h0v51.8a6.12,6.12,0,0,1-6.1,6.1h7.7a6.36,6.36,0,0,0,6.3-6.4V51A6.36,6.36,0,0,0,517.7,44.6Z"/><path class="cls-5" d="M429.1,52.3v49.1h79.7V52.3Z"/><path class="cls-1" d="M434.5,57.2V74.5h32.6V57.2Z"/><path class="cls-6" d="M472.3,57.4v3h31.2v-3Z"/><path class="cls-6" d="M472.3,64.3v3h31.2v-3Z"/><path class="cls-6" d="M472.3,71.2v3h31.2v-3Z"/><path class="cls-6" d="M434.5,94.5v3h68.9v-3Z"/><path class="cls-7" d="M434.5,79.5V90.8h68.9V79.5Z"/><path class="cls-6" d="M430.1,100.4h77.6v-47H430.1Zm78.7,2H429.1a.94.94,0,0,1-1-1h0V52.3a.94.94,0,0,1,1-1h79.7a.94.94,0,0,1,1,1h0v49.1a1.08,1.08,0,0,1-1,1Z"/><path class="cls-1" d="M410.2,108.6v3.5a7.49,7.49,0,0,0,3.2,6.1h0a6.59,6.59,0,0,0,4.1,1.2H497a7.36,7.36,0,0,0,7.4-7.3h0v-3.5Z"/><path class="cls-5" d="M504.4,108.6v3.5a7.3,7.3,0,0,1-7.4,7.3h24.2a7.43,7.43,0,0,0,7.4-7.3v-3.5Z"/><path class="cls-6" d="M527.6,112.1a6.27,6.27,0,0,1-6.3,6.3H502.5l.2-.2.7-.7a2.65,2.65,0,0,1,.5-.6,2.62,2.62,0,0,0,.5-.9,3.33,3.33,0,0,1,.3-.6c.1-.3.3-.7.4-1.1.1-.2.1-.4.2-.6a11,11,0,0,0,.2-1.8v-2.4h22.2l-.1,2.6Zm-116.4,0v-2.4h92.1v2.4a6.27,6.27,0,0,1-6.3,6.3H417.5A6.4,6.4,0,0,1,411.2,112.1Zm11-9.6V50.7a5.12,5.12,0,0,1,5.1-5.1h82.6a5.12,5.12,0,0,1,5.1,5.1h0v51.8a5.12,5.12,0,0,1-5.1,5.1H427.3a5.19,5.19,0,0,1-5.1-5.1Zm95.5-56.9a5.34,5.34,0,0,1,5.3,5.3v51.3a5.34,5.34,0,0,1-5.3,5.3H515a7,7,0,0,0,2.2-5.1V50.7a7,7,0,0,0-2.2-5.1Zm11,62h-5.9a7.19,7.19,0,0,0,2.3-5.3V51a7.38,7.38,0,0,0-7.4-7.4H427.4a7.15,7.15,0,0,0-7.2,7.1v51.8a7,7,0,0,0,2.2,5.1H410.2a.94.94,0,0,0-1,1h0v3.5a8.3,8.3,0,0,0,8.4,8.3H521.3a8.37,8.37,0,0,0,8.4-8.3h0v-3.5a1.08,1.08,0,0,0-1-1Z"/><path class="cls-5" d="M481.3,70.8a16.9,16.9,0,1,0-.1,23.9l.1-.1h0a16.87,16.87,0,0,0,0-23.8Z"/><path class="cls-1" d="M511,113,490.7,97.4a26.66,26.66,0,0,1-6.7,6.7l15.6,20.2a8.21,8.21,0,0,0,11.4,1.5,8.09,8.09,0,0,0,1.6-11.2l-.1-.1A5.36,5.36,0,0,0,511,113Z"/><path class="cls-1" d="M487.7,64.5a26,26,0,1,0-.1,36.7l.1-.1h0a25.8,25.8,0,0,0,0-36.6Z"/><path class="cls-7" d="M454.7,73.5c0,3-2.4,6-2.4,9,0,3.3,2.4,6.7,2.4,9.9h29.7c0-3.2,1.9-6.2,1.9-9.5s-1.9-6.4-1.9-9.5Z"/><path class="cls-6" d="M511,124.4a7,7,0,0,1-10,0,4.35,4.35,0,0,1-.6-.7l-15-19.3a28.14,28.14,0,0,0,5.5-5.4l19.4,14.9a7,7,0,0,1,1.4,9.8.1.1,0,0,1-.1.1C511.4,123.9,511.2,124.2,511,124.4Zm-28.5-20.6a25.1,25.1,0,0,1-30.9-3.5A24.9,24.9,0,1,1,490.4,96a10.38,10.38,0,0,1-1.2,1.7,15.46,15.46,0,0,1-2.4,2.7,29.77,29.77,0,0,1-2.7,2.3A6.45,6.45,0,0,1,482.5,103.8Zm29.1,8.4-19.5-15a27.41,27.41,0,1,0-8.4,8.2l15,19.4a8.74,8.74,0,0,0,6.6,3.5h.6a9.07,9.07,0,0,0,9.1-9.1h0v-.6a8.25,8.25,0,0,0-3.4-6.4Z"/><path class="cls-8" d="M469.3,66.9a15.88,15.88,0,1,0,11.2,4.6A16.16,16.16,0,0,0,469.3,66.9Zm0,33.8a18,18,0,1,1,18-17.9A17.63,17.63,0,0,1,482,95.4,17.86,17.86,0,0,1,469.3,100.7Z"/><path class="cls-1" d="M51.2,214.3v45h48v-45Z"/><path class="cls-5" d="M51.2,222.7v2.9h48v-2.9Z"/><path class="cls-1" d="M51.2,214.3v8.4h48v-8.4Z"/><path class="cls-5" d="M99.2,214.3v8.4H104v-8.4Z"/><path class="cls-5" d="M99.2,222.7v36.6H104V222.7Z"/><path class="cls-7" d="M87.4,217.4a1,1,0,1,0,1,1h0A1,1,0,0,0,87.4,217.4Z"/><path class="cls-7" d="M91,217.4a1,1,0,1,0,1,1h0A1,1,0,0,0,91,217.4Z"/><path class="cls-7" d="M94.5,217.4a1,1,0,1,0,1,1h0A1,1,0,0,0,94.5,217.4Z"/><path class="cls-1" d="M19.4,275.2v45h48v-45Z"/><path class="cls-5" d="M19.4,283.6v2.9h48v-2.9Z"/><path class="cls-1" d="M19.4,275.2v8.4h48v-8.4Z"/><path class="cls-5" d="M67.4,275.2v8.4h4.8v-8.4Z"/><path class="cls-5" d="M67.4,283.6v36.6h4.8V283.6Z"/><circle class="cls-9" cx="55.6" cy="279.4" r="1"/><circle class="cls-9" cx="59.2" cy="279.4" r="1"/><circle class="cls-9" cx="62.7" cy="279.4" r="1"/><path class="cls-1" d="M83.3,275.2v45h48v-45Z"/><path class="cls-5" d="M83.3,283.6v2.9h48v-2.9Z"/><path class="cls-1" d="M83.3,275.2v8.4h48v-8.4Z"/><path class="cls-5" d="M131.3,275.2v8.4h4.8v-8.4Z"/><path class="cls-5" d="M131.3,283.6v36.6h4.8V283.6Z"/><circle class="cls-9" cx="119.5" cy="279.4" r="1"/><circle class="cls-9" cx="123.1" cy="279.4" r="1"/><circle class="cls-9" cx="126.6" cy="279.4" r="1"/><path class="cls-6" d="M71.2,282.6H68.5v-6.4h2.7Zm0,36.7H68.5V284.7h2.7Zm-4.8-36.7h-46v-6.4h46Zm0,36.7h-46V284.7h46Zm5.8-45H45v-1H43v1H19.4a.94.94,0,0,0-1,1h0v45a.94.94,0,0,0,1,1H72.2a.94.94,0,0,0,1-1h0v-45A1,1,0,0,0,72.2,274.3Z"/><path class="cls-6" d="M135.1,282.6h-2.7v-6.4h2.7Zm0,36.7h-2.7V284.7h2.7Zm-4.8-36.7h-46v-6.4h46Zm0,36.7h-46V284.7h46Zm5.8-45H112.2v-1h-2v1H83.3a.94.94,0,0,0-1,1h0v45a.94.94,0,0,0,1,1h52.8a.94.94,0,0,0,1-1h0v-45A1,1,0,0,0,136.1,274.3Z"/><path class="cls-6" d="M45,268.9h1v-2H44a.94.94,0,0,0-1,1h0v2h2Z"/><path class="cls-6" d="M88.1,266.9H83.9v2h4.2Z"/><path class="cls-6" d="M96.5,266.9H92.3v2h4.2Z"/><path class="cls-6" d="M105,266.9h-4.2v2H105Z"/><path class="cls-6" d="M54.4,266.9H50.2v2h4.2Z"/><path class="cls-6" d="M75.5,268.9h4.2v-2H75.5Z"/><path class="cls-6" d="M62.8,266.9H58.6v2h4.2Z"/><path class="cls-6" d="M71.3,266.9H67.1v2h4.2Z"/><path class="cls-6" d="M110.2,269.9h2v-2a.94.94,0,0,0-1-1h-2v2h1Z"/><path class="cls-6" d="M100.2,258.3V223.7H103v34.6Zm-48-34.6h46v34.6h-46Zm46-8.4v6.4h-46v-6.4Zm4.8,6.3h-2.7v-6.4H103Zm1-8.4H51.2a.94.94,0,0,0-1,1h0v45a.94.94,0,0,0,1,1H76.6v4h2v-4H104a.94.94,0,0,0,1-1h0v-45a1,1,0,0,0-1-1Z"/><path class="cls-5" d="M57.3,228.1v11.6H74.4V228.1Z"/><path class="cls-6" d="M77.1,228.3v2H93.5v-2Z"/><path class="cls-6" d="M77.1,232.9v2H93.5v-2Z"/><path class="cls-6" d="M77.1,237.5v2H93.5v-2Z"/><path class="cls-6" d="M57.3,253.1v2H93.5v-2Z"/><path class="cls-7" d="M57.3,243.1v7.6H93.5v-7.6Z"/><path class="cls-5" d="M26,289.4v25H36.3v-25Z"/><path class="cls-7" d="M39.7,289.4v9.2h22v-9.2Z"/><path class="cls-6" d="M39.7,300.9v2h22v-2Z"/><path class="cls-6" d="M39.7,305.4v2h22v-2Z"/><path class="cls-6" d="M39.7,309.9v2h22v-2Z"/><path class="cls-5" d="M89.6,289.4v11.4h35.3V289.4Z"/><path class="cls-7" d="M89.6,303.8v10.7h10V303.8Z"/><path class="cls-6" d="M102.2,303.9v2h22.7v-2Z"/><path class="cls-6" d="M102.2,308.1v2h22.7v-2Z"/><path class="cls-6" d="M102.2,312.2v2h22.7v-2Z"/><path class="cls-7" d="M488.1,267.6v5.2h60.7v-5.2Z"/><ellipse class="cls-9" cx="508.2" cy="312" rx="6" ry="5.9"/><ellipse class="cls-9" cx="529.7" cy="312" rx="6" ry="5.9"/><circle class="cls-10" cx="508.2" cy="312" r="2.2"/><circle class="cls-10" cx="529.7" cy="312" r="2.3"/><path class="cls-6" d="M508.2,310.7a1.3,1.3,0,1,0,1.3,1.3h0A1.32,1.32,0,0,0,508.2,310.7Zm0,4.5a3.2,3.2,0,1,1,3.2-3.2h0a3.22,3.22,0,0,1-3.2,3.2Z"/><path class="cls-6" d="M529.7,310.7A1.3,1.3,0,1,0,531,312h0a1.32,1.32,0,0,0-1.3-1.3Zm0,4.5a3.2,3.2,0,1,1,3.2-3.2h0a3.22,3.22,0,0,1-3.2,3.2Z"/><path class="cls-1" d="M527.5,243.4A21.5,21.5,0,0,1,547,223a21.17,21.17,0,0,0-23,19.1c0,.4-.1.9-.1,1.3a21.21,21.21,0,0,0,6.6,16.1,15.66,15.66,0,0,1,5,11.5v.9H539V271a15.66,15.66,0,0,0-5-11.5A20.77,20.77,0,0,1,527.5,243.4Z"/><path class="cls-5" d="M468.1,249.3v5.3h10.1v-5.3Z"/><path class="cls-6" d="M547.8,271.9H489v-3.3h58.8v3.3Zm-6.1,14h-6.4l2.2-12.1H545ZM538,299.6h-5.2l2.2-11.7h6.2Zm-38.7-25.8,2.2,12.1h-6.3l-3.3-12.1Zm9.1,0,1.1,12.1h-6l-2.2-12.1Zm9.1,12.1h-6.1l-1.1-12.1h7.2Zm7.9,0h-6V273.8h7.1Zm1.9,0,1.1-12.1h7.1l-2.2,12.1Zm-.2,1.9H533l-2.2,11.7h-4.7Zm-7.7,0h5.8l-1.1,11.7h-4.8l.1-11.7Zm-7.8,0h5.9v11.7h-4.8ZM504,299.6h-5.1l-3.2-11.7h6.2Zm-.2-11.8h5.8l1.1,11.7H506Zm9.3,24.2a5,5,0,1,1-5-5,5,5,0,0,1,5,5Zm21.5,0a5,5,0,1,1-5-5,4.89,4.89,0,0,1,5,5Zm-57.4-58.4H469v-3.4h8.2Zm71.6,13H489.5l-4.1-15a1,1,0,0,0-.9-.7h-5.4v-1.7a1,1,0,0,0-1-1H468a.94.94,0,0,0-1,1v5.3a.94.94,0,0,0,1,1h10.1a1.08,1.08,0,0,0,1-1v-1.7h4.6l3.8,13.9a.91.91,0,0,0-.4.8v5.2a.92.92,0,0,0,1,.9h1.8l2.1,7.9h0l6.7,24.6a1,1,0,0,0,.9.7h3.7a6.93,6.93,0,0,0,9.5,10.1,6.83,6.83,0,0,0,.3-9.7l-.3-.3h12a6.93,6.93,0,0,0,9.5,10.1,6.83,6.83,0,0,0,.3-9.7l-.3-.3h2.8v-1.9H500.2l-1-3.6h39.3a1,1,0,0,0,.9-.7l7.3-27h1.8a1,1,0,0,0,1-.9v-5.2a.73.73,0,0,0-.7-1.1Z"/><path class="cls-11" d="M541.1,257.3v14.6H543V257.3Z"/><path class="cls-6" d="M546.9,207.6V216h1.9v-8.4Z"/><path class="cls-6" d="M559.7,209.5l-3.4,7.6,1.8.8,3.4-7.6Z"/><path class="cls-6" d="M536.3,209.5l-1.7.8,3.4,7.6,1.7-.8Z"/><path class="cls-6" d="M492,262.3v1.9h3.2v-1.9Z"/><path class="cls-6" d="M497.7,262.3v1.9h3.2v-1.9Z"/><path class="cls-6" d="M503.3,262.3v1.9h3.2v-1.9Z"/><path class="cls-6" d="M509,262.3v1.9h3.2v-1.9Z"/><path class="cls-6" d="M514.6,262.3v1.9h3.2v-1.9Z"/><path class="cls-6" d="M520.2,262.3v1.9h3.2v-1.9Z"/><path class="cls-6" d="M525.9,262.3v1.9H529v-1.9Z"/><path class="cls-1" d="M541.3,285.1v4.5h9.1v-4.5Z"/><path class="cls-1" d="M544.2,223a21.45,21.45,0,0,0-20.3,20.4,21.21,21.21,0,0,0,6.6,16.1,15.66,15.66,0,0,1,5,11.5v.9H555V271a16.37,16.37,0,0,1,5.1-11.6A21.18,21.18,0,0,0,544.2,223Z"/><path class="cls-1" d="M533.8,271.9v5.6a7.62,7.62,0,0,0,7.7,7.6h7.6a7.75,7.75,0,0,0,7.7-7.6h0v-5.6Z"/><path class="cls-5" d="M550.4,285.1v4.5H555v-4.5Z"/><path class="cls-5" d="M551.3,223h-6.1a21.22,21.22,0,0,1,14.9,36.5,16.37,16.37,0,0,0-5.1,11.6v.9h7.1v-.9a16.37,16.37,0,0,1,5.1-11.6,21.28,21.28,0,0,0,.5-30,20.86,20.86,0,0,0-16.4-6.5Z"/><path class="cls-5" d="M556.7,271.9v5.6a7.6,7.6,0,0,1-7.6,7.6h7.4a7.75,7.75,0,0,0,7.7-7.6h0v-5.6Z"/><path class="cls-6" d="M561.1,270.9H556v-1.5c0-.3.1-.5.1-.8s.1-.5.1-.7a3.09,3.09,0,0,1,.2-.8,6.37,6.37,0,0,1,.2-.7c.1-.2.2-.5.3-.7a1.45,1.45,0,0,0,.2-.7c0-.3.2-.5.4-.8a3.29,3.29,0,0,0,.3-.6,9.22,9.22,0,0,1,.5-.8,3.21,3.21,0,0,0,.3-.5,4.43,4.43,0,0,1,.7-.9,1.38,1.38,0,0,0,.3-.4,12,12,0,0,1,1.1-1.2,22.26,22.26,0,0,0,6.8-15.9,15.48,15.48,0,0,0-.1-2.2,5,5,0,0,0-.2-1.2,3.08,3.08,0,0,1-.1-.9,8.33,8.33,0,0,0-.4-1.5,1.42,1.42,0,0,0-.2-.6c-.2-.5-.4-1.1-.6-1.6l-.2-.4c-.2-.5-.5-1.1-.7-1.6-.1-.1-.1-.3-.2-.4l-.9-1.5a.52.52,0,0,1-.2-.4c-.3-.5-.7-.9-1-1.4a1.38,1.38,0,0,1-.3-.4c-.4-.4-.8-.9-1.2-1.3-.1-.1-.2-.2-.2-.3l-.1-.1-.3-.3c-.3-.3-.6-.5-.8-.7l-.4-.4a14.63,14.63,0,0,0-1.3-.9l-.3-.2-1.5-.9-.2-.1a11.94,11.94,0,0,0-1.6-.8,20.39,20.39,0,0,1,18.1,22.3,20.1,20.1,0,0,1-6.1,12.5A17.63,17.63,0,0,0,561.1,270.9Zm2.1,1.9v4.7a6.7,6.7,0,0,1-6.7,6.7h-2a4.35,4.35,0,0,1,.7-.6h0a10,10,0,0,0,1-1.1l.1-.2a5.39,5.39,0,0,0,.7-1.3.35.35,0,0,1,.1-.2,7.37,7.37,0,0,0,.4-1.4v-.2a8.75,8.75,0,0,0,.2-1.6v-4.7ZM554,288.7h-2.6v-2.6H554Zm-11.8-2.6h7.2v2.6h-7.2Zm-7.5-8.6v-4.7h21v4.7a6.7,6.7,0,0,1-6.7,6.7h-7.6a6.7,6.7,0,0,1-6.7-6.7Zm-3.6-18.7a20.25,20.25,0,0,1-.6-28.7,19.91,19.91,0,0,1,13.8-6.2h1a20.39,20.39,0,0,1,9.6,2.4h0a15.05,15.05,0,0,1,1.7,1l.1.1a14.31,14.31,0,0,1,1.5,1.1l.2.2c.4.4.9.7,1.3,1.1l.3.3a12,12,0,0,1,1.1,1.2l.2.3c.3.4.7.9,1,1.3.1.1.1.2.2.3a6.38,6.38,0,0,1,.8,1.4c0,.1.1.2.2.3.2.5.5,1,.7,1.5,0,.1.1.3.1.4a8.8,8.8,0,0,1,.5,1.5,1.09,1.09,0,0,1,.1.5,7,7,0,0,1,.3,1.4,2.77,2.77,0,0,1,.1.9,5.16,5.16,0,0,0,.2,1.1,14.08,14.08,0,0,1,.1,2,19.89,19.89,0,0,1-6.2,14.5c-.4.4-.8.9-1.2,1.3a1.38,1.38,0,0,0-.3.4c-.3.3-.5.7-.8,1-.1.2-.2.3-.3.5a8.79,8.79,0,0,0-.6,1l-.3.6a9,9,0,0,1-.5.9,2.12,2.12,0,0,0-.3.7l-.3.9a6.37,6.37,0,0,1-.2.7,2.39,2.39,0,0,0-.2.9c0,.3-.1.5-.1.7s-.1.6-.1.9v1.6h-7.8V257.7l.3.3a2.43,2.43,0,0,0,3.2,0l1-.8a.75.75,0,0,1,.9,0l1.2-1.5a2.57,2.57,0,0,0-3.3,0l-1,.8a.75.75,0,0,1-.9,0l-1-.8a2.43,2.43,0,0,0-3.2,0l-1,.8a.75.75,0,0,1-.9,0l-1-.8a2.43,2.43,0,0,0-3.2,0l1.2,1.5a.75.75,0,0,1,.9,0l1,.8a2.7,2.7,0,0,0,3.2,0l.7-.6v13.4h-7.8a17.39,17.39,0,0,0-5.6-12Zm43.5-14.6A22.24,22.24,0,0,0,552.3,222h-8.1a22.21,22.21,0,0,0-14.4,38.2,14.7,14.7,0,0,1,4.7,10.7h-.8a.94.94,0,0,0-1,1v5.6a8.61,8.61,0,0,0,7.5,8.5v3.7a.94.94,0,0,0,1,1H555a.94.94,0,0,0,1-1v-3.6h.6a8.6,8.6,0,0,0,8.6-8.6v-5.6a.94.94,0,0,0-1-1H563a15.25,15.25,0,0,1,4.8-10.8,22.26,22.26,0,0,0,6.8-15.9Z"/><path class="cls-1" d="M152.5,61.1a17.09,17.09,0,0,0-3.1.3,19.42,19.42,0,0,0,.2-2.4,27.75,27.75,0,0,0-55.5,0h0a28,28,0,0,0,1.3,8.1,20,20,0,1,0-7.9,39.2,18.1,18.1,0,0,0,4,.4h61a22.8,22.8,0,1,0,0-45.6Z"/><path class="cls-1" d="M153.7,61.2v.2l1.2-.2Z"/><path class="cls-5" d="M171.8,61.1a15.26,15.26,0,0,0-3,.3A19.42,19.42,0,0,0,169,59a27.78,27.78,0,0,0-27.8-27.7H121.9A27.85,27.85,0,0,1,149.7,59h0c0,.8-.2,1.6-.2,2.4a15.53,15.53,0,0,1,3.1-.3,22.8,22.8,0,1,1,0,45.6h19.3a22.8,22.8,0,1,0-.1-45.6Z"/><path class="cls-6" d="M171.8,105.6h-9.5a17.4,17.4,0,0,0,3.3-1.8,24.5,24.5,0,0,0,10.7-17.7,16.2,16.2,0,0,0,.1-2.2,23.8,23.8,0,0,0-13.5-21.4h6l.5-.1a19.42,19.42,0,0,1,2.4-.2,21.7,21.7,0,0,1,0,43.4ZM72.5,86.7a19,19,0,0,1,19-19,16.37,16.37,0,0,1,3.8.4,1,1,0,0,0,1.2-.8h0v-.5A25.51,25.51,0,0,1,95.2,59a26.7,26.7,0,1,1,53.4,0c0,.5-.1.9-.1,1.4,0,.3-.1.6-.1.9a1,1,0,0,0,1,1.1h.2l.5-.1a19.42,19.42,0,0,1,2.4-.2,21.75,21.75,0,1,1,.9,43.5H91.5a18.91,18.91,0,0,1-19-18.9Zm60.3-54.3h8.4A26.7,26.7,0,0,1,168,59c0,.4-.1.9-.1,1.3H156.3a24.33,24.33,0,0,0-3.8-.3c-.6,0-1.2.1-1.8.1a4.48,4.48,0,0,0,.1-1.1,21.75,21.75,0,0,0-.1-2.6A29.19,29.19,0,0,0,136,34l-.7-.4a14.17,14.17,0,0,0-1.8-.8l-.5-.3Zm39,27.6c-.6,0-1.2.1-1.8.1,0-.4.1-.8.1-1.1a28.72,28.72,0,0,0-28.8-28.7H122A28.89,28.89,0,0,0,93,59a25.17,25.17,0,0,0,.9,6.7,21.08,21.08,0,1,0-2.5,42h80.3a23.85,23.85,0,0,0,.1-47.7Z"/><path class="cls-1" d="M146.2,101.5a2.9,2.9,0,0,0-2.9-2.9H128.1l4.6-8,.5-2.4a3.66,3.66,0,0,0-2.8-4.3,3.57,3.57,0,0,0-3.8,1.6L123.9,90l-10.7,7.4v22.5l5.3,1.9h21.6a2.9,2.9,0,1,0,0-5.8h1a2.9,2.9,0,1,0,0-5.8h1.1a2.9,2.9,0,1,0,0-5.8h1.1a2.78,2.78,0,0,0,2.9-2.9Z"/><path class="cls-5" d="M103.3,96.9v24.5h10V96.9Z"/><path class="cls-6" d="M140.1,120.8H118.7l-4.4-1.6V98l10.3-7.1.3-.3,2.8-4.5a2.52,2.52,0,0,1,4.6,1.9l-.5,2.3-4.5,7.8a1,1,0,0,0,.4,1.4h0a.9.9,0,0,0,.5.1h15.2a1.85,1.85,0,1,1,.1,3.7h-5.4v2.1h4.3a1.88,1.88,0,0,1,1.7,2,1.92,1.92,0,0,1-1.7,1.7H137v2.1h4.3a1.86,1.86,0,0,1,.3,3.7h-5.8v2.2h4.3a1.86,1.86,0,0,1,.3,3.7Zm-28-.5h-7.8V98h7.8v22.3Zm34.1-13a3.58,3.58,0,0,0-.9-2.4,3.94,3.94,0,0,0,1.2-5.5,3.86,3.86,0,0,0-3.3-1.8H130l3.7-6.4a.37.37,0,0,0,.1-.3l.5-2.4a4.68,4.68,0,0,0-3.5-5.6,4.79,4.79,0,0,0-5,2.1l-2.7,4.3-9.5,6.6c-.1,0-.3-.1-.4-.1h-10a1.11,1.11,0,0,0-1.1,1.1v24.5a1.11,1.11,0,0,0,1.1,1.1h10a1.06,1.06,0,0,0,1-.9l3.9,1.4c.1,0,.2.1.4.1h21.6a4,4,0,0,0,4-4,3.41,3.41,0,0,0-.9-2.4,3.83,3.83,0,0,0,1.4-5.3h0a1.38,1.38,0,0,0-.3-.4,5.37,5.37,0,0,0,1.9-3.7Z"/><path class="cls-1" d="M106.9,100v2.7h2.7V100Z"/><path class="cls-7" d="M144.5,79.8a4.1,4.1,0,1,0,0,8.2,4.06,4.06,0,0,0,4.1-4.1h0a4.06,4.06,0,0,0-4.1-4.1Z"/><circle class="cls-9" cx="160.9" cy="76.7" r="4.1"/><path class="cls-7" d="M160.9,87a4.1,4.1,0,1,0,4.1,4.1V91h0A4.1,4.1,0,0,0,160.9,87Z"/><path class="cls-6" d="M160.9,94.2a2.89,2.89,0,0,1-2.9-3.1,3,3,0,0,1,3.1-2.9,2.9,2.9,0,0,1,2.9,2.9,3.08,3.08,0,0,1-2.9,3.1Zm-16.4-7.3a3,3,0,1,1,.2-6,3,3,0,0,1,2.9,3h0A3,3,0,0,1,144.5,86.9Zm16.4-13.3a3,3,0,1,1-3,3A3,3,0,0,1,160.9,73.6Zm0,12.4a5.09,5.09,0,0,0-4.4,2.6l-7-3.1a4.57,4.57,0,0,0,.1-2.6l7.1-3.2a5.24,5.24,0,1,0,1.3-7.3,5.23,5.23,0,0,0-2.2,5.3l-7.1,3.2a5.21,5.21,0,1,0-1.1,7.4,6.47,6.47,0,0,0,.9-.8l7.4,3.3a1.27,1.27,0,0,1-.1.6,5.2,5.2,0,0,0,10.4,0,5.42,5.42,0,0,0-5.3-5.4Z"/><path class="cls-1" d="M132.5,50.3a5.78,5.78,0,0,0-11,2.4v.2H107.9c1.2,6.2,8.9,8.3,8.9,8.3l-8.9,4.5c21.7,2.9,23.6-5.8,23.5-9.1a7.2,7.2,0,0,0,1.5-2.7l3-1.7Z"/><path class="cls-6" d="M111.6,65.1c9.7.8,14.3-1.1,16.4-3a6.85,6.85,0,0,0,2.4-5.4,1.14,1.14,0,0,1,.3-.8,4.77,4.77,0,0,0,1.2-2.2,1.16,1.16,0,0,1,.5-.7l1.4-.8-1.8-1a1,1,0,0,1-.4-.5,4.63,4.63,0,0,0-6.2-2.3,4.59,4.59,0,0,0-2.7,4.2,1.61,1.61,0,0,1-.3.9,1.23,1.23,0,0,1-.8.4H109.4c1.8,4.5,7.7,6.2,7.7,6.3a1,1,0,0,1,.7,1.3h0a1.79,1.79,0,0,1-.5.7Zm4.3,2.3a57.6,57.6,0,0,1-8.2-.6,1,1,0,0,1-.9-1.2h0a1.56,1.56,0,0,1,.6-.8l6.8-3.5c-2.6-1.2-6.4-3.7-7.3-8.3a1,1,0,0,1,.8-1.2h12.8a6.87,6.87,0,0,1,7.7-5.9,6.63,6.63,0,0,1,5.1,3.6l3.1,1.8a1,1,0,0,1,.4,1.4h0a.78.78,0,0,1-.4.4l-2.6,1.5a7,7,0,0,1-1.3,2.4,9.37,9.37,0,0,1-3.1,6.6c-2.8,2.6-7.3,3.8-13.5,3.8Z"/><path class="cls-5" d="M84.3,77.2V90.6h2.6v4.1l6-4.2h12.5V77.2Z"/><path class="cls-6" d="M85.4,89.6H88v3.2l4.6-3.2h11.8V78.3h-19V89.6Zm.4,7.2V91.7H83.2V76.2h23.2V91.7H93.2Z"/><path class="cls-1" d="M88.3,82.5v2.6H91V82.5Z"/><path class="cls-1" d="M93.5,82.5v2.6h2.7V82.5Z"/><path class="cls-1" d="M98.8,82.5v2.6h2.7V82.5Z"/><path class="cls-1" d="M498.4,499.9v15.2h5.5l2-15.2Z"/><path class="cls-1" d="M435.3,424v71h85.8V424Z"/><path class="cls-1" d="M454.7,424v71h46.9V424Z"/><path class="cls-5" d="M454.7,424v71h4V424Z"/><path class="cls-5" d="M521.1,424v71h8.5V424Z"/><path class="cls-7" d="M470.4,450.1v24.4l21.2-12.2Z"/><path class="cls-6" d="M471.3,451.7v21.4l18.6-10.7Zm-.9,23.8a.9.9,0,0,1-.9-.9h0V450.1a.9.9,0,0,1,.9-.9h0c.2,0,.3,0,.4.1L492,461.5a.84.84,0,0,1,.3,1.2h0c-.1.1-.2.3-.3.3l-21.2,12.2c-.1.2-.2.3-.4.3Z"/><path class="cls-6" d="M528.7,494.1H522V424.9h6.7Zm-8.5,0H502.6V424.9h17.6Zm-84-69.2h17.7v69.2H436.3Zm64.5,0v69.2h-45V424.9Zm28.9-1.8H435.3a.9.9,0,0,0-.9.9h0v71a.9.9,0,0,0,.9.9h94.3a.9.9,0,0,0,.9-.9h0V424a.9.9,0,0,0-.9-.9Z"/><path class="cls-12" d="M440.6,429.5v6h8.7v-6Z"/><path class="cls-12" d="M440.6,442.9v6h8.7v-6Z"/><path class="cls-12" d="M440.6,456.3v6h8.7v-6Z"/><path class="cls-12" d="M440.6,469.7v6h8.7v-6Z"/><path class="cls-12" d="M440.6,483.1v6h8.7v-6Z"/><path class="cls-6" d="M441.5,434.7h7v-4.2h-7Zm7.8,1.8h-8.7a.9.9,0,0,1-.9-.9h0v-6a.9.9,0,0,1,.9-.9h8.7a.9.9,0,0,1,.9.9h0v6a.9.9,0,0,1-.9.9Z"/><path class="cls-6" d="M441.5,448.1h7v-4.2h-7Zm7.8,1.8h-8.7a.9.9,0,0,1-.9-.9h0v-6a.9.9,0,0,1,.9-.9h8.7a.9.9,0,0,1,.9.9h0v6a.9.9,0,0,1-.9.9Z"/><path class="cls-6" d="M441.5,461.5h7v-4.2h-7Zm7.8,1.8h-8.7a.9.9,0,0,1-.9-.9h0v-6a.9.9,0,0,1,.9-.9h8.7a.9.9,0,0,1,.9.9h0v6a.9.9,0,0,1-.9.9Z"/><path class="cls-6" d="M441.5,474.9h7v-4.2h-7Zm7.8,1.8h-8.7a.9.9,0,0,1-.9-.9h0v-6a.9.9,0,0,1,.9-.9h8.7a.9.9,0,0,1,.9.9h0v6a.9.9,0,0,1-.9.9Z"/><path class="cls-12" d="M507,429.5v6h8.7v-6Z"/><path class="cls-12" d="M507,442.9v6h8.7v-6Z"/><path class="cls-12" d="M507,456.3v6h8.7v-6Z"/><path class="cls-12" d="M507,469.7v6h8.7v-6Z"/><path class="cls-6" d="M507.9,434.7h7v-4.2h-7v4.2Zm7.8,1.8H507a.9.9,0,0,1-.9-.9h0v-6a.9.9,0,0,1,.9-.9h8.7a.9.9,0,0,1,.9.9h0v6a.9.9,0,0,1-.9.9Z"/><path class="cls-6" d="M507.9,448.1h7v-4.2h-7v4.2Zm7.8,1.8H507a.9.9,0,0,1-.9-.9h0v-6a.9.9,0,0,1,.9-.9h8.7a.9.9,0,0,1,.9.9h0v6a.84.84,0,0,1-.9.9Z"/><path class="cls-6" d="M507.9,461.5h7v-4.2h-7v4.2Zm7.8,1.8H507a.9.9,0,0,1-.9-.9h0v-6a.9.9,0,0,1,.9-.9h8.7a.9.9,0,0,1,.9.9h0v6a.84.84,0,0,1-.9.9Z"/><path class="cls-6" d="M507.9,474.9h7v-4.2h-7v4.2Zm7.8,1.8H507a.9.9,0,0,1-.9-.9h0v-6a.9.9,0,0,1,.9-.9h8.7a.9.9,0,0,1,.9.9h0v6a.84.84,0,0,1-.9.9Z"/><path class="cls-6" d="M441.5,488.3h7v-4.2h-7Zm7.8,1.7h-8.7a.9.9,0,0,1-.9-.9h0v-6a.9.9,0,0,1,.9-.9h8.7a.9.9,0,0,1,.9.9h0v6a.9.9,0,0,1-.9.9Z"/><path class="cls-5" d="M491.7,483.1v16.8h14.5V483.1Z"/><path class="cls-1" d="M506.2,483.1v16.8l26.6,8.6V474.6Z"/><path class="cls-6" d="M533.7,496.8v-9.3a4.62,4.62,0,0,1,4.3,5A4.55,4.55,0,0,1,533.7,496.8Zm-1.8,10.5-24.8-8V483.8l24.8-8Zm-28.8,6.9h-3.8V500.8h5.5ZM492.6,484h12.8v15H492.6Zm47.3,8.2a6.4,6.4,0,0,0-6.2-6.4V474.6a.9.9,0,0,0-.9-.9h-.3l-26.4,8.5H491.7a.9.9,0,0,0-.9.9h0v16.8a.9.9,0,0,0,.9.9h5.8v14.3a.9.9,0,0,0,.9.9h5.5a1,1,0,0,0,.9-.8l1.9-14.2,25.9,8.4h.3a.9.9,0,0,0,.9-.9h0v-9.9a6.53,6.53,0,0,0,6.1-6.4Z"/><path class="cls-5" d="M50.8,445.1a7.36,7.36,0,0,0-7.4,7.3h0v19.1a7.38,7.38,0,0,0,7.4,7.4H62.4V445.1Z"/><path class="cls-5" d="M62.4,445.1v33.8h6V445.1Z"/><path class="cls-1" d="M38,457.6v9h5.4v-9Z"/><path class="cls-1" d="M60.3,479H50.6l9,25.4h6.6Z"/><path class="cls-1" d="M66.2,479H60.3l5.9,25.4h5.9Z"/><path class="cls-6" d="M67,503.4l-5.5-23.5h4L71,503.4ZM52,479.9h7.7l5.4,23.5H60.3Zm-7.6-8.3V452.5a6.44,6.44,0,0,1,6.4-6.4H61.4v32H50.6a6.36,6.36,0,0,1-6.2-6.5Zm-5.4-6v-7.1h3.6v7.1Zm28.4,12.5H63.3v-32h4.1Zm5.6,26-5.6-24.2h1a.9.9,0,0,0,.9-.9h0V445.1a.9.9,0,0,0-.9-.9H50.8a8.28,8.28,0,0,0-8.3,8.3v4.2H38a.9.9,0,0,0-.9.9h0v9a.9.9,0,0,0,.9.9h4.5v4.2a8.25,8.25,0,0,0,7.5,8.2l8.8,24.8a.87.87,0,0,0,.9.6H72.2a.9.9,0,0,0,.9-.9h0C73,504.2,73,504.2,73,504.1Z"/><path class="cls-1" d="M62.4,450.5v23c2.6.3,21.4,3.1,35.1,16.1V434.5C83.8,447.4,65,450.2,62.4,450.5Z"/><path class="cls-5" d="M97.4,431.1v62h8.2v-62Z"/><path class="cls-5" d="M105.6,431.1v62h6.6v-62Z"/><path class="cls-6" d="M111.3,492.2h-4.8V432h4.8ZM98.3,432h6.4v60.2H98.4Zm-1.8,55.6c-12.7-11.1-29.1-14.2-33.2-14.8V451.3c4.1-.6,20.5-3.7,33.2-14.8Zm15.7-57.5H97.4a.9.9,0,0,0-.9.9h0v3C83,446.6,64.3,449.3,62.2,449.6a.88.88,0,0,0-.8.9v23a.88.88,0,0,0,.8.9c2.1.3,20.7,3,34.3,15.6v3a.9.9,0,0,0,.9.9h14.8a.9.9,0,0,0,.9-.9h0V431.1a1.06,1.06,0,0,0-.9-1Z"/><path class="cls-1" d="M110.9,452.6h-5.2v15.7h5.2a7.85,7.85,0,1,0,.5-15.7Z"/><path class="cls-1" d="M105.6,452.6v15.7a7.85,7.85,0,1,0,.5-15.7Z"/><path class="cls-6" d="M110.9,467.3a8.71,8.71,0,0,0,1.8-12.1h0a7.28,7.28,0,0,0-1.8-1.7,6.9,6.9,0,0,1,0,13.8Zm-4.4,0V453.5a7,7,0,0,1,0,13.8Zm4.4-15.7h-5.2a.9.9,0,0,0-.9.9h0v15.7a.9.9,0,0,0,.9.9h5.2a8.81,8.81,0,0,0,.6-17.6A1.27,1.27,0,0,1,110.9,451.6Z"/><path class="cls-13" d="M150.9,459.5h-1.6c-2.4,0-4.8-1.8-4.8-6.2,0-4.6,2.2-6.5,4.5-6.5h1.9v12.7Zm2.5-15.1h-4.2c-4.2,0-7.7,3.1-7.7,9.2a7.84,7.84,0,0,0,4.8,7.7l-5.7,10.2a.37.37,0,0,0,.3.6h2.6c.2,0,.4-.1.4-.3l5.2-10H151v10a.32.32,0,0,0,.3.3h2.3a.27.27,0,0,0,.3-.3V444.7a.55.55,0,0,0-.5-.3"/><path class="cls-14" d="M167.3,453.6H165a.27.27,0,0,0-.3.3V461h-4.3v-7.1a.27.27,0,0,0-.3-.3h-2.3c-.1,0-.3.1-.3.2h0v18a.27.27,0,0,0,.3.3h2.3a.32.32,0,0,0,.3-.3h0v-8.6h4.3v8.6c0,.1.1.3.2.3h2.4a.32.32,0,0,0,.3-.3h0v-18c0-.1-.1-.2-.3-.2h0"/><path class="cls-14" d="M219.9,471l-.3-1.3c0-.1-.1-.1-.2-.1a11.71,11.71,0,0,1-2.6.4c-2.8,0-4.2-2.7-4.2-7,0-3.8,1.1-7.5,3.1-7.5a3.34,3.34,0,0,1,2.2,1.1c.1.1.2.2.3.1s.2-.1.3-.3l1-1.6a.37.37,0,0,0,.1-.3c0-.1-.1-.3-.4-.4a6.92,6.92,0,0,0-3.4-.9c-3.5,0-6.2,4.1-6.2,10.6,0,5.6,2.6,8.8,6.3,8.8a7.76,7.76,0,0,0,3.9-1.2.6.6,0,0,0,.1-.4"/><path class="cls-14" d="M203.8,462l4.4-8.1a.19.19,0,0,0-.1-.3h-2.2a1,1,0,0,0-1.1.7l-3.3,6.9a1.56,1.56,0,0,1-.6.8v-8.1c0-.1-.1-.3-.2-.3h-2.4c-.1,0-.2.1-.2.3v18c0,.1.1.2.2.3h2.4c.1,0,.2-.1.2-.3v-9.3l.3.3,4.2,8.7a.88.88,0,0,0,1,.5h2.4c.1,0,.2-.1.1-.3l-5.1-9.8"/><path class="cls-14" d="M178.5,469.8h-5.4c1.9-3.2,2.6-6.8,2.9-11.3.1-1,.1-2,.1-2.6h2.4Zm4,0H182c-.6,0-.7-.2-.7-.7V453.8c0-.2-.1-.3-.2-.3h-7.4c-.1,0-.3.1-.3.2h0V455c0,4.5-.3,10.2-2.6,14.6H170a.27.27,0,0,0-.3.3v5.4c0,.1.1.3.2.3h1.8a.63.63,0,0,0,.6-.5v-3h7.9v3.4c0,.1.1.3.2.3h1.9c.2,0,.4-.2.4-.6v-5.1c.1-.1-.1-.3-.2-.3h0"/><path class="cls-14" d="M189.6,461.2c-.9,0-2.2.1-2.2.1a3.75,3.75,0,0,1,.1-1.1c.3-3.1,1.1-4.7,2.4-4.7s1.9,1.6,2.1,4.5v1.2Zm.4-8c-4,0-5.8,5-5.8,10.5s2.5,8.9,6.2,8.9a7.63,7.63,0,0,0,4.2-1.2c.1-.1.2-.2.1-.3l-.3-1.2c0-.1-.1-.2-.3-.2h0a8.63,8.63,0,0,1-2.8.4c-2.9,0-4.2-2.5-4.2-5.7v-.9a20.87,20.87,0,0,0,2.3.2h5.4v-1.6c.3-5.8-1.7-8.9-4.8-8.9"/><path class="cls-15" d="M173,504.3a8.55,8.55,0,1,1-8.6-8.5h.1A8.37,8.37,0,0,1,173,504Zm-3.7,0a4.81,4.81,0,1,0-9.6.6,4.88,4.88,0,0,0,4.8,4.5,4.94,4.94,0,0,0,4.8-5.1Z"/><path class="cls-16" d="M191.4,504.3a8.55,8.55,0,1,1-8.6-8.5h.1a8.37,8.37,0,0,1,8.5,8.2Zm-3.8,0a4.81,4.81,0,1,0-9.6.6,4.88,4.88,0,0,0,4.8,4.5,4.94,4.94,0,0,0,4.8-5.1c.1.1.1,0,0,0Z"/><path class="cls-17" d="M209,496.3v15.2c0,6.2-3.7,8.8-8.1,8.8a8.08,8.08,0,0,1-7.5-5l3.2-1.4a4.64,4.64,0,0,0,4.3,3c2.8,0,4.5-1.7,4.5-5v-1.2h-.1a5.51,5.51,0,0,1-4.5,1.9,8.46,8.46,0,0,1,0-16.9,6.36,6.36,0,0,1,4.5,1.9h.1v-1.4l3.6.1Zm-3.3,8c0-3-2-5.1-4.5-5.1a5.12,5.12,0,0,0,0,10.2c2.5,0,4.5-2.1,4.5-5.1Z"/><path class="cls-18" d="M214.8,487.4v24.8h-3.6V487.4Z"/><path class="cls-15" d="M229,507.1l2.9,1.9a8.43,8.43,0,0,1-7.1,3.8,8.2,8.2,0,0,1-8.4-8.1v-.3c0-5,3.6-8.5,8-8.5s6.6,3.5,7.3,5.4l.4,1L220.7,507a4.52,4.52,0,0,0,4.1,2.6A5.24,5.24,0,0,0,229,507.1Zm-8.9-3.1,7.6-3.1a3.18,3.18,0,0,0-3.1-1.8,4.7,4.7,0,0,0-4.5,4.9Z"/><path class="cls-17" d="M142.2,502.1v-3.6h12.1a15,15,0,0,1,.2,2.2,11.85,11.85,0,0,1-3.1,8.4,12.14,12.14,0,0,1-9.2,3.7,13.1,13.1,0,0,1,0-26.2h0a13,13,0,0,1,9,3.6l-2.5,2.5a9.23,9.23,0,0,0-6.5-2.6,9.55,9.55,0,1,0,0,19.1,9.28,9.28,0,0,0,6.7-2.6,7.31,7.31,0,0,0,1.9-4.4Z"/><path class="cls-2" d="M334.7,262.3H265.1a18,18,0,0,1-18-18h0a18,18,0,0,1,18-18h69.6a18,18,0,0,1,18,18h0A18.05,18.05,0,0,1,334.7,262.3Z"/><path class="cls-19" d="M276.5,253.8H262.1V238.7l14.4,5.4Z"/><path class="cls-1" d="M281.5,253.8H267.4V235.5l14.1-5.1Z"/><path class="cls-20" d="M267.5,240.7l9,3.4v9.7h-9Z"/><path class="cls-10" d="M295.8,238.7h2.9v15.1h-2.9v-9.5h-.1l-4.8,9.5H288V238.7h2.9v9.5h.1Z"/><path class="cls-10" d="M307.6,249.9h0l2.9-11.2h3.8v15.1h-2.9v-9.5h-.1l-2.7,9.5h-2l-2.7-9.4h-.1v9.4h-2.9V238.7h3.8Z"/><path class="cls-10" d="M327.5,238.7v15.1h-2.9V241h-3.3v4.5c0,2.9-.4,5.1-1.2,6.4a4,4,0,0,1-3.7,1.9H316v-2.3h.4a1.54,1.54,0,0,0,1.6-1.2,25.92,25.92,0,0,0,.4-4.8v-6.8Z"/><path class="cls-10" d="M339.7,249.1h0a4.28,4.28,0,0,1-4.9,4.9,5.25,5.25,0,0,1-3.9-1.4,5.57,5.57,0,0,1-1.4-4.1V244a5.57,5.57,0,0,1,1.4-4.1,4.68,4.68,0,0,1,3.7-1.4,5.27,5.27,0,0,1,3.8,1.2,4.88,4.88,0,0,1,1.3,3.6v.1h-2.8a2.88,2.88,0,0,0-.5-2,2.72,2.72,0,0,0-1.7-.6,1.94,1.94,0,0,0-1.6.8,4,4,0,0,0-.5,2.4v4.5a3.35,3.35,0,0,0,.6,2.4,2.34,2.34,0,0,0,1.8.8,1.91,1.91,0,0,0,1.6-.6,3.51,3.51,0,0,0,.5-2Z"/><path class="cls-21" d="M183.9,301c-18.6.2-14,0-32.6-.6l-3.3-.1,6.1-6.9c1.1-1.3.1-4.4-1.1-3.2l-10,10.1a2.16,2.16,0,0,0-.5,1.7,2.74,2.74,0,0,0,.2,3c4.1,3.7,8.2,7.4,12.4,11,1.3,1.1,2.4-2.1,1.1-3.3-3.4-3-6.7-6-10.1-8.9,17.7.6,12.3.9,30,.8C194.7,304.6,202.5,300.8,183.9,301Z"/><path class="cls-21" d="M428.7,309.5c18.6-.2,14,0,32.6.6l3.4.1-6.1,6.9c-1.1,1.3-.1,4.4,1.1,3.2l10-10.1a2.16,2.16,0,0,0,.5-1.7,2.57,2.57,0,0,0-.2-2.9c-4.1-3.7-8.2-7.4-12.4-11-1.3-1.1-2.4,2.1-1.1,3.2l10.1,8.9c-17.7-.6-12.3-.9-30-.8C418,305.9,410.2,309.7,428.7,309.5Z"/><path class="cls-21" d="M232.6,206.3c-17.8-17.4-13.4-13.2-30.6-31.2l-3.1-3.3,10.7,1c2,.2,3.2-3,1.2-3.3L194.1,167a1.81,1.81,0,0,0-1.7.7,2.1,2.1,0,0,0-1.9,2.2c1.3,6.5,2.6,13,4,19.5.4,2,3.8.7,3.4-1.2l-3.3-15.9c16.4,17.2,11.1,12.3,28,29.1C240.3,219,250.4,223.8,232.6,206.3Z"/><path class="cls-21" d="M388.7,210.7c17.8-17.4,13.4-13.2,30.6-31.3l3.1-3.3-10.7.9c-2,.2-3.2-3-1.2-3.3l16.7-2.4a1.81,1.81,0,0,1,1.7.7,2.1,2.1,0,0,1,1.9,2.2c-1.3,6.5-2.6,13-4,19.5-.4,2-3.8.7-3.4-1.2l3.3-15.9c-16.4,17.2-11.1,12.3-28,29.1C381,223.4,370.9,228.1,388.7,210.7Z"/><path class="cls-21" d="M378.4,415.5c17.7,17.3,13.3,13.1,30.3,31l3.1,3.2-10.6-.9c-2-.2-3.2,3-1.2,3.2l16.6,2.3a1.9,1.9,0,0,0,1.7-.7,2.1,2.1,0,0,0,1.9-2.2c-1.3-6.5-2.6-12.9-3.9-19.4-.4-2-3.7-.7-3.3,1.2,1.1,5.3,2.2,10.5,3.2,15.8-16.3-17.1-11-12.2-27.8-28.8C370.7,402.9,360.7,398.2,378.4,415.5Z"/><path class="cls-21" d="M225,404.2c-17.7,17.3-13.3,13.1-30.3,31-1,1.1-2.1,2.1-3.1,3.2l10.6-.9c2-.2,3.2,3,1.2,3.2L186.8,443a1.9,1.9,0,0,1-1.7-.7,2.1,2.1,0,0,1-1.9-2.2c1.3-6.5,2.6-12.9,3.9-19.4.4-2,3.7-.7,3.3,1.2-1.1,5.3-2.2,10.5-3.2,15.8,16.3-17.1,11-12.2,27.8-28.8C232.6,391.6,242.6,387,225,404.2Z"/><path class="cls-10" d="M46.3,536.3a2.14,2.14,0,0,1,1.6,2.4,4,4,0,0,1-.4,2,1.76,1.76,0,0,1-1.3.9v.1a2.16,2.16,0,0,1,1.6.9,4.14,4.14,0,0,1,.4,2.1,3,3,0,0,1-.9,2.5,4.56,4.56,0,0,1-2.9.8,27.48,27.48,0,0,1-3.8-.3l.1-1.6c1.3.1,2.4.1,3.2.1a5.21,5.21,0,0,0,1.4-.2,1.06,1.06,0,0,0,.7-.6,3.59,3.59,0,0,0,.2-1.1,2,2,0,0,0-.4-1.4,2.2,2.2,0,0,0-1.6-.4H42v-1.6h2.2a2.68,2.68,0,0,0,1.1-.2c.3-.1.4-.3.5-.6a2.79,2.79,0,0,0,.1-1,2,2,0,0,0-.2-.9.92.92,0,0,0-.6-.4,4.12,4.12,0,0,0-1.2-.1,26.28,26.28,0,0,0-3,.1l-.1-1.6a21.59,21.59,0,0,1,3.5-.3A8.78,8.78,0,0,1,46.3,536.3Z"/><path class="cls-10" d="M60.8,536.4a1.89,1.89,0,0,1,1.2,1.1,6.34,6.34,0,0,1,.4,2.3,5,5,0,0,1-.4,2.3,1.89,1.89,0,0,1-1.2,1.1,6.46,6.46,0,0,1-2.2.3,17,17,0,0,1-2.3-.1v4.4H54.2V536.2a10.87,10.87,0,0,1,1.8-.1h2.4A7.8,7.8,0,0,1,60.8,536.4Zm-1.3,5.3a.9.9,0,0,0,.6-.6,3.7,3.7,0,0,0,0-2.4.9.9,0,0,0-.6-.6,3.73,3.73,0,0,0-1.2-.2h-2v4h2C58.8,541.8,59.2,541.8,59.5,541.7Z"/><path class="cls-10" d="M71.6,546.2l.1,1.6a15.48,15.48,0,0,1-2.2.1H66.6a2.44,2.44,0,0,1-1.8-.6,2.18,2.18,0,0,1-.7-1.6v-7.3a1.86,1.86,0,0,1,.7-1.6,2.44,2.44,0,0,1,1.8-.6h2.9c.8,0,1.5.1,2.2.1l-.1,1.6H67a.85.85,0,0,0-.6.2,1.29,1.29,0,0,0-.2.8v2H71v1.6H66.3v2.6a1.55,1.55,0,0,0,.2.8.85.85,0,0,0,.6.2l4.5.1Z"/><path class="cls-10" d="M80.1,542.5a5,5,0,0,1,1,1.4c.3.6.6,1.6,1.1,2.9l.3,1H80.3l-.2-.6c-.4-1.3-.8-2.3-1-2.8a4.85,4.85,0,0,0-.9-1.3,2,2,0,0,0-1.4-.5h-1a4.48,4.48,0,0,1,.1,1.1v4.1H73.8V536.2h2.1v3.4a6.15,6.15,0,0,1-.1,1.3h1a2,2,0,0,0,1.4-.5,3.39,3.39,0,0,0,.9-1.4c.2-.6.6-1.5,1-2.8h2.1c0,.1-.1.2-.1.3s-.1.2-.1.4a23.55,23.55,0,0,1-1,2.7,3.88,3.88,0,0,1-1,1.4,2.63,2.63,0,0,1-1.5.7v.1A2.64,2.64,0,0,1,80.1,542.5Z"/><path class="cls-10" d="M92.8,547.8H90.7v-10H88.9a1.14,1.14,0,0,0-.8.3,1,1,0,0,0-.3.8c-.2,1.9-.3,3.3-.4,4.2a8.44,8.44,0,0,1-.6,2.4,3.52,3.52,0,0,1-1.3,1.8,2.88,2.88,0,0,1-1.9.6h-.4l-.2-1.6a2.32,2.32,0,0,0,1-.4,1.46,1.46,0,0,0,.6-.9,7.75,7.75,0,0,0,.6-2.3c.1-.9.3-2.2.4-4.1a2.54,2.54,0,0,1,.8-1.8,2.61,2.61,0,0,1,1.8-.6h4.5l.1,11.6Z"/><path class="cls-10" d="M101.6,544.6H97.3l-1,3.3H94.1l3.5-11c0-.2.1-.3.3-.4a.76.76,0,0,1,.5-.2h2.1c.2,0,.3.1.5.2a1.38,1.38,0,0,1,.3.4l3.5,11h-2.2Zm-.5-1.8-1.2-4a4.33,4.33,0,0,1-.1-.5,1.09,1.09,0,0,1-.1-.5h-.5l-.3,1-1.2,4Z"/><path class="cls-10" d="M118.3,537.1l.5,10.8h-2l-.4-9.9H116l-2,7.7a.8.8,0,0,1-.9.7h-1.6a.8.8,0,0,1-.9-.7l-2-7.7h-.3l-.4,9.9h-2.1l.4-10.8a.74.74,0,0,1,.8-.8h2.2c.5,0,.7.2.9.7l1.7,6.3c.1.4.2,1,.3,1.6h.3l.1-.5a4.33,4.33,0,0,0,.1-.5,1.42,1.42,0,0,1,.2-.6l1.6-6.3a.8.8,0,0,1,.9-.7h2.2C118,536.3,118.2,536.5,118.3,537.1Z"/><path class="cls-10" d="M129.9,536.3v11.6h-2.1v-5.3h-4.6v5.3h-2.1V536.3h2.1v4.6h4.6v-4.6Z"/><path class="cls-10" d="M139,541a1.89,1.89,0,0,1,1.2,1.1,6.25,6.25,0,0,1,0,4.4,1.89,1.89,0,0,1-1.2,1.1,6.08,6.08,0,0,1-2.2.3h-2.5c-.6,0-1.2-.1-1.9-.1h-.1V536.2h2.1v4.4h2A11.84,11.84,0,0,1,139,541Zm-1.2,5.1c.3-.1.4-.3.5-.6a3.73,3.73,0,0,0,.2-1.2,4.12,4.12,0,0,0-.1-1.2.9.9,0,0,0-.6-.6,3.73,3.73,0,0,0-1.2-.2h-2v3.9h2A3.78,3.78,0,0,0,137.8,546.1Zm6.8-9.8v11.6h-2.1V536.3Z"/><path class="cls-10" d="M154.6,546.2l.1,1.6a15.48,15.48,0,0,1-2.2.1h-2.9a2.44,2.44,0,0,1-1.8-.6,2.18,2.18,0,0,1-.7-1.6v-7.3a1.86,1.86,0,0,1,.7-1.6,2.44,2.44,0,0,1,1.8-.6h2.9c.8,0,1.5.1,2.2.1l-.1,1.6H150a.85.85,0,0,0-.6.2,1.29,1.29,0,0,0-.2.8v2h4.7v1.6h-4.7v2.6a1.55,1.55,0,0,0,.2.8.85.85,0,0,0,.6.2l4.6.1Z"/><path class="cls-10" d="M166.6,536.1l1.5.3-.2,1.6c-1-.1-2-.1-3.1-.1a2.08,2.08,0,0,0-1.5.4,2.42,2.42,0,0,0-.8,1.3,8.63,8.63,0,0,0-.2,2.5,14.73,14.73,0,0,0,.2,2.5,2.08,2.08,0,0,0,2.3,1.7h1.9c.5,0,1-.1,1.5-.1l.2,1.6a4.15,4.15,0,0,1-1.6.3,11.52,11.52,0,0,1-2,.1,5.55,5.55,0,0,1-2.8-.6,3.24,3.24,0,0,1-1.5-1.9,10.84,10.84,0,0,1-.5-3.5,10.4,10.4,0,0,1,.5-3.5,3.24,3.24,0,0,1,1.5-1.9,5.55,5.55,0,0,1,2.8-.6A12.13,12.13,0,0,1,166.6,536.1Z"/><path class="cls-10" d="M177.5,546.2l.1,1.6a15.48,15.48,0,0,1-2.2.1h-2.9a2.44,2.44,0,0,1-1.8-.6,2.18,2.18,0,0,1-.7-1.6v-7.3a1.86,1.86,0,0,1,.7-1.6,2.44,2.44,0,0,1,1.8-.6h2.9c.8,0,1.5.1,2.2.1l-.1,1.6H173a.85.85,0,0,0-.6.2,1.29,1.29,0,0,0-.2.8v2h4.7v1.6h-4.7v2.6a1.55,1.55,0,0,0,.2.8.85.85,0,0,0,.6.2l4.5.1Z"/><path class="cls-10" d="M188,538.1h-3.6v9.8h-2.1v-9.8h-3.5v-1.8H188v1.8Z"/><path class="cls-10" d="M198.8,547.8h-2v-7.6a8.08,8.08,0,0,1,.1-1.5h-.1a6.45,6.45,0,0,1-.6,1.4l-4.4,7.6h-2.1V536.1h2v7.5a6.62,6.62,0,0,1-.1,1.5h.1a14.67,14.67,0,0,1,.6-1.4l4.4-7.6h2.2l-.1,11.7Z"/><path class="cls-10" d="M56.2,359.1v1.4l-1.4.2h0v2.6h-2v-2.6H48.3a1.28,1.28,0,0,1-1-.4,1.8,1.8,0,0,1-.4-.9,1.27,1.27,0,0,1,.1-.6l3-6.9h2l-2.9,6.6c0,.1-.1.2-.1.3s.1.3.4.3h3.2v-3.2l.3-1.9h1.6v5l1.7.1Z"/><path class="cls-10" d="M63.3,351.9a2.55,2.55,0,0,1,1.2.8,3.41,3.41,0,0,1,.4,1.6,4,4,0,0,1-.4,2,1.6,1.6,0,0,1-1.3.9v.1a2,2,0,0,1,1.5.9,4.14,4.14,0,0,1,.4,2.1,3.18,3.18,0,0,1-.9,2.5,4.37,4.37,0,0,1-2.9.8,28.69,28.69,0,0,1-3.8-.3l.1-1.6c1.3.1,2.4.1,3.1.1a3.92,3.92,0,0,0,1.3-.2,1.06,1.06,0,0,0,.7-.6,3.09,3.09,0,0,0,.2-1.1,2,2,0,0,0-.4-1.4,2.08,2.08,0,0,0-1.5-.4H59v-1.5h2.1a2.68,2.68,0,0,0,1.1-.2,1,1,0,0,0,.5-.6,2.48,2.48,0,0,0,.1-.9,2,2,0,0,0-.2-.9.92.92,0,0,0-.6-.4,4.12,4.12,0,0,0-1.2-.1,26.28,26.28,0,0,0-3,.1l-.1-1.6a20.41,20.41,0,0,1,3.4-.3A4.84,4.84,0,0,1,63.3,351.9Z"/><path class="cls-10" d="M74.3,359h-3v2.8H69.8V359H66.9v-1.5h2.9v-2.8h1.5v2.8h3Z"/><path class="cls-10" d="M86.1,351.7a8,8,0,0,1,1.5.3l-.2,1.6c-1-.1-2-.1-3.1-.1a2.41,2.41,0,0,0-1.5.4,2.14,2.14,0,0,0-.8,1.2,15.73,15.73,0,0,0,0,5,1.55,1.55,0,0,0,.8,1.2,3,3,0,0,0,1.5.4h1.9c.5,0,1-.1,1.4-.1l.2,1.6a4,4,0,0,1-1.5.3,11.52,11.52,0,0,1-2,.1,4.91,4.91,0,0,1-2.7-.6,3.24,3.24,0,0,1-1.5-1.9,15.51,15.51,0,0,1,0-7,3.24,3.24,0,0,1,1.5-1.9,5.4,5.4,0,0,1,2.7-.6A12.13,12.13,0,0,0,86.1,351.7Z"/><path class="cls-10" d="M95.7,360H91.5l-.9,3.2H88.5l3.4-10.9c0-.2.1-.3.3-.4a.75.75,0,0,1,.5-.1h2a.9.9,0,0,1,.5.1,1.38,1.38,0,0,1,.3.4l3.4,10.9H96.8Zm-.5-1.7-1.1-3.9a4.33,4.33,0,0,1-.1-.5,1.09,1.09,0,0,1-.1-.5h-.4l-.3,1-1.1,3.9Z"/><path class="cls-10" d="M109.1,363.3h-2v-7.5a6.6,6.6,0,0,1,.1-1.4h-.1a6.45,6.45,0,0,1-.6,1.4l-4.3,7.5h-2.1V351.9h2v7.4a7.08,7.08,0,0,1-.1,1.5h.1a14.67,14.67,0,0,1,.6-1.4l4.3-7.5h2.1Zm-1.8-14.7v.2a2,2,0,0,1-.7,1.6,3.31,3.31,0,0,1-3.8,0,1.86,1.86,0,0,1-.7-1.6v-.2h1.4c0,.9.4,1.4,1.2,1.4a1.22,1.22,0,0,0,.9-.3,1.49,1.49,0,0,0,.3-1h1.4Z"/><path class="cls-10" d="M119.8,353.6h-3.5v9.6h-2.1v-9.6h-3.5v-1.8h9.1Z"/><path class="cls-10" d="M127.5,360h-4.2l-.9,3.2h-2.1l3.4-10.9c0-.2.1-.3.3-.4a.75.75,0,0,1,.5-.1h2a.9.9,0,0,1,.5.1,1.38,1.38,0,0,1,.3.4l3.4,10.9h-2.1Zm-.5-1.7-1.1-3.9a4.33,4.33,0,0,1-.1-.5,1.09,1.09,0,0,1-.1-.5h-.4l-.3,1-1.1,3.9Z"/><path class="cls-10" d="M103.4,147.6H98.7l-.1,2.5,1.5.2a4.63,4.63,0,0,1,3,1.1,3.42,3.42,0,0,1,.9,2.6,4.55,4.55,0,0,1-.8,2.7,3.75,3.75,0,0,1-3,1,17.33,17.33,0,0,1-3.7-.4l.2-1.7a15.87,15.87,0,0,0,2.9.3,6.05,6.05,0,0,0,1.5-.2,1.41,1.41,0,0,0,.7-.6,3.73,3.73,0,0,0,.2-1.2,2.13,2.13,0,0,0-.3-1.2,1.93,1.93,0,0,0-.9-.5,17.78,17.78,0,0,0-2-.3l-1.1-.1a.55.55,0,0,1-.5-.3,1.42,1.42,0,0,1-.2-.6l.3-5h6.5Z"/><path class="cls-10" d="M115.7,145.8l1.5.3-.2,1.6c-1-.1-2-.1-3.1-.1a2.08,2.08,0,0,0-2.3,1.7,15.73,15.73,0,0,0,0,5,2.08,2.08,0,0,0,2.3,1.7h1.9c.5,0,1-.1,1.5-.1l.2,1.6a4.15,4.15,0,0,1-1.6.3,11.52,11.52,0,0,1-2,.1,5.55,5.55,0,0,1-2.8-.6,3.24,3.24,0,0,1-1.5-1.9,10.84,10.84,0,0,1-.5-3.5,10.4,10.4,0,0,1,.5-3.5,3.24,3.24,0,0,1,1.5-1.9,5.55,5.55,0,0,1,2.8-.6A3.78,3.78,0,0,1,115.7,145.8Z"/><path class="cls-10" d="M126.2,146.2a3.35,3.35,0,0,1,1.5,1.8,13.21,13.21,0,0,1,0,7.2,2.77,2.77,0,0,1-1.5,1.8,6.83,6.83,0,0,1-5.6,0,3.35,3.35,0,0,1-1.5-1.8,13.21,13.21,0,0,1,0-7.2,2.77,2.77,0,0,1,1.5-1.8,5.55,5.55,0,0,1,2.8-.6A6.48,6.48,0,0,1,126.2,146.2Zm-4.3,1.6a2.42,2.42,0,0,0-.8,1.3,8.63,8.63,0,0,0-.2,2.5,14.73,14.73,0,0,0,.2,2.5,2.08,2.08,0,0,0,2.3,1.7,2.08,2.08,0,0,0,1.5-.4,2.42,2.42,0,0,0,.8-1.3,8.63,8.63,0,0,0,.2-2.5,14.73,14.73,0,0,0-.2-2.5,2.08,2.08,0,0,0-2.3-1.7A5.41,5.41,0,0,0,121.9,147.8Z"/><path class="cls-10" d="M140.3,155.8v4.1h-1.5l-.2-2.5h-8.3V145.9h2.1v9.9h4.4v-9.9h2.1v9.9Z"/><path class="cls-10" d="M143.7,155.3a.85.85,0,0,1,.2.6v.9a.71.71,0,0,1-.8.8h-.6a.71.71,0,0,1-.8-.8v-.9a.71.71,0,0,1,.8-.8h.6A.85.85,0,0,1,143.7,155.3Z"/><path class="cls-10" d="M155.9,145.8l1.5.3-.2,1.6c-1-.1-2-.1-3.1-.1a2.08,2.08,0,0,0-2.3,1.7,15.72,15.72,0,0,0,0,5,2.08,2.08,0,0,0,2.3,1.7H156c.5,0,1-.1,1.5-.1l.2,1.6a4.15,4.15,0,0,1-1.6.3,11.52,11.52,0,0,1-2,.1,5.55,5.55,0,0,1-2.8-.6,3.24,3.24,0,0,1-1.5-1.9,10.84,10.84,0,0,1-.5-3.5,10.4,10.4,0,0,1,.5-3.5,3.24,3.24,0,0,1,1.5-1.9,5.55,5.55,0,0,1,2.8-.6A3.78,3.78,0,0,1,155.9,145.8Z"/><path class="cls-10" d="M166.8,155.7l.1,1.6a15.48,15.48,0,0,1-2.2.1h-2.9a2.44,2.44,0,0,1-1.8-.6,2.18,2.18,0,0,1-.7-1.6V148a1.86,1.86,0,0,1,.7-1.6,2.44,2.44,0,0,1,1.8-.6h2.9c.8,0,1.5.1,2.2.1l-.1,1.6h-4.5a.85.85,0,0,0-.6.2,1.29,1.29,0,0,0-.2.8v2h4.7v1.6h-4.7v2.6a1.55,1.55,0,0,0,.2.8.85.85,0,0,0,.6.2Z"/><path class="cls-10" d="M177.1,147.7h-3.6v9.7h-2.1v-9.7H168v-1.8h9.2v1.8Z"/><path class="cls-10" d="M186.1,155.7l.1,1.6a15.48,15.48,0,0,1-2.2.1h-2.9a2.44,2.44,0,0,1-1.8-.6,2.18,2.18,0,0,1-.7-1.6V148a1.86,1.86,0,0,1,.7-1.6,2.44,2.44,0,0,1,1.8-.6H184c.8,0,1.5.1,2.2.1l-.1,1.6h-4.5a.85.85,0,0,0-.6.2,1.29,1.29,0,0,0-.2.8v2h4.7v1.6h-4.7v2.6a1.55,1.55,0,0,0,.2.8.85.85,0,0,0,.6.2Z"/><path class="cls-10" d="M197.4,157.4h-2v-7.5a8.08,8.08,0,0,1,.1-1.5h-.1a6.45,6.45,0,0,1-.6,1.4l-4.4,7.6h-2.1V145.9h2v7.4a6.62,6.62,0,0,1-.1,1.5h.1a14.67,14.67,0,0,1,.6-1.4l4.3-7.6h2.1l.1,11.6Zm-1.9-14.8v.2a2,2,0,0,1-.7,1.6,2.88,2.88,0,0,1-1.9.6,2.71,2.71,0,0,1-1.9-.6,2.36,2.36,0,0,1-.7-1.6v-.2h1.4c0,.9.4,1.4,1.2,1.4a1,1,0,0,0,.9-.4,1.61,1.61,0,0,0,.3-1.1l1.4.1Z"/><path class="cls-22" d="M265.7,300h-4.6V282.5h-7.3V300h-4.6V279.2h16.5Z"/><path class="cls-22" d="M283.5,279.7a5.5,5.5,0,0,1,2.8,3.3,18.76,18.76,0,0,1,.9,6.5,18.38,18.38,0,0,1-.9,6.5,5.5,5.5,0,0,1-2.8,3.3,12.48,12.48,0,0,1-5.3,1,11.12,11.12,0,0,1-5.3-1,5.5,5.5,0,0,1-2.8-3.3,18.62,18.62,0,0,1-.9-6.6,19.39,19.39,0,0,1,.9-6.6,6.13,6.13,0,0,1,2.8-3.3,12.48,12.48,0,0,1,5.3-1A16.63,16.63,0,0,1,283.5,279.7Zm-7.8,3.4a3.12,3.12,0,0,0-1.2,2.1,21.55,21.55,0,0,0-.4,4.3,16,16,0,0,0,.4,4.3,3.55,3.55,0,0,0,1.2,2.1,5.51,5.51,0,0,0,5,0,3.12,3.12,0,0,0,1.2-2.1,21.55,21.55,0,0,0,.4-4.3,16,16,0,0,0-.4-4.3,3.55,3.55,0,0,0-1.2-2.1,5.51,5.51,0,0,0-5,0Z"/><path class="cls-22" d="M309.4,296.7v7.9h-3.3l-.3-4.6H292l-.4,4.6h-3.3v-7.9h2.2a32.81,32.81,0,0,0,1.8-6.1,66.52,66.52,0,0,0,.9-7,5,5,0,0,1,1.4-3.2,4.87,4.87,0,0,1,3.4-1.2h8.5v17.5Zm-7.3,0V282.5h-2.7a1.7,1.7,0,0,0-1.3.4,2.29,2.29,0,0,0-.5,1.4,52,52,0,0,1-1,7.2,21.28,21.28,0,0,1-1.8,5.2Z"/><path class="cls-22" d="M323.5,294.5h-7.2l-1.5,5.5h-4.7l6-19.6a1.46,1.46,0,0,1,.6-.9,1.69,1.69,0,0,1,1-.3H322a1.69,1.69,0,0,1,1,.3,1.46,1.46,0,0,1,.6.9l6,19.6H325Zm-1-3.6-1.8-6.4c-.2-1-.4-1.7-.4-2h-.8l-.5,2-1.8,6.4Z"/><path class="cls-22" d="M345.6,282.9h-6.2V300h-4.6V282.9h-6.2v-3.7h17.1v3.7Z"/><path class="cls-22" d="M360.5,287.5a3.7,3.7,0,0,1,2.3,2.1,11.78,11.78,0,0,1,0,8,3.92,3.92,0,0,1-2.2,2,10.65,10.65,0,0,1-3.9.6h-4.8c-1.2,0-2.3-.1-3.5-.2h-.1V279.2h4.6v7.7H356A12.79,12.79,0,0,1,360.5,287.5Zm-2.6,8.9a1.42,1.42,0,0,0,.8-.9,5.29,5.29,0,0,0,.2-2,8.75,8.75,0,0,0-.2-2,1.65,1.65,0,0,0-.8-1,4.39,4.39,0,0,0-1.9-.3h-3.1v6.6H356A6.09,6.09,0,0,0,357.9,296.4Z"/><path class="cls-22" d="M223.4,317.7a5.5,5.5,0,0,1,2.8,3.3,18.76,18.76,0,0,1,.9,6.5,18.38,18.38,0,0,1-.9,6.5,5.5,5.5,0,0,1-2.8,3.3,12.48,12.48,0,0,1-5.3,1,11.12,11.12,0,0,1-5.3-1A5.5,5.5,0,0,1,210,334a18.62,18.62,0,0,1-.9-6.6,19.39,19.39,0,0,1,.9-6.6,6.13,6.13,0,0,1,2.8-3.3,12.48,12.48,0,0,1,5.3-1A19,19,0,0,1,223.4,317.7Zm-7.8,3.4a3.12,3.12,0,0,0-1.2,2.1,21.55,21.55,0,0,0-.4,4.3,16,16,0,0,0,.4,4.3,3.55,3.55,0,0,0,1.2,2.1,5.51,5.51,0,0,0,5,0,3.12,3.12,0,0,0,1.2-2.1,21.55,21.55,0,0,0,.4-4.3,16,16,0,0,0-.4-4.3,3.55,3.55,0,0,0-1.2-2.1,5.51,5.51,0,0,0-5,0Z"/><path class="cls-22" d="M243,326.2a4.22,4.22,0,0,1,2.4,1.9,8.06,8.06,0,0,1,.7,3.8,8.28,8.28,0,0,1-.8,4,4.3,4.3,0,0,1-2.4,1.8,17.47,17.47,0,0,1-4.5.5c-2.9,0-5.4-.1-7.6-.3h-.1V317.1c2.3-.1,4.6-.2,7.1-.2,2,0,4.4.1,7.1.2l-.4,3.5h-9.2v4.9h3.2A17.72,17.72,0,0,1,243,326.2Zm-2.7,8.3a1.76,1.76,0,0,0,.9-.8,4.72,4.72,0,0,0,.2-1.9,9.2,9.2,0,0,0-.2-1.9,2,2,0,0,0-.9-.9,4.7,4.7,0,0,0-1.9-.3h-3.2v6h3.2A5,5,0,0,0,240.3,334.5Z"/><path class="cls-22" d="M266.1,325.5a3.7,3.7,0,0,1,2.3,2.1,11.78,11.78,0,0,1,0,8,4.08,4.08,0,0,1-2.1,2,10.65,10.65,0,0,1-3.9.6h-4.8c-1.1,0-2.3-.1-3.5-.2H254V320.9h-6.4v-3.7h11v7.7h3A13.17,13.17,0,0,1,266.1,325.5Zm-2.6,8.9a1.42,1.42,0,0,0,.8-.9,5.29,5.29,0,0,0,.2-2,8.75,8.75,0,0,0-.2-2,1.65,1.65,0,0,0-.8-1,4.39,4.39,0,0,0-1.9-.3h-3v6.6h3A6.09,6.09,0,0,0,263.5,334.4Z"/><path class="cls-22" d="M283.9,316.9c1,0,2.1.1,3.3.2V338h-4.6v-8h-3.1a2,2,0,0,0-1.4.4,2.31,2.31,0,0,0-.7,1.4l-1.5,6.2H271l1.7-6.4a3.64,3.64,0,0,1,1.2-2.2,3.72,3.72,0,0,1,1.9-.9v-.2a4.26,4.26,0,0,1-3.1-1.6,6.53,6.53,0,0,1-.9-3.7,7.38,7.38,0,0,1,.8-3.6,4.22,4.22,0,0,1,2.4-1.9,12.69,12.69,0,0,1,4.3-.6Zm-1.3,9.6v-6h-3.1a4.18,4.18,0,0,0-1.8.3,2,2,0,0,0-.9.9,4.18,4.18,0,0,0-.3,1.8,3.65,3.65,0,0,0,.6,2.4,2.88,2.88,0,0,0,2.3.7h3.2Z"/><path class="cls-22" d="M306.4,328.8a6.39,6.39,0,0,1,1,4,6.23,6.23,0,0,1-.7,3.3,3.66,3.66,0,0,1-2.2,1.6,14.73,14.73,0,0,1-4.1.5h-5.1c-1.2,0-2.5-.1-3.7-.2V317.2c1.1-.1,2.2-.2,3.4-.2h4.5a16.63,16.63,0,0,1,4.4.5,4.37,4.37,0,0,1,2.3,1.6,6,6,0,0,1,.7,3.3,6.08,6.08,0,0,1-.8,3.4,3.57,3.57,0,0,1-2.8,1.3v.1A4.68,4.68,0,0,1,306.4,328.8Zm-4.4-7.4a1.65,1.65,0,0,0-1-.8,8.44,8.44,0,0,0-1.9-.2H296v5.3h3.4a4.11,4.11,0,0,0,2.3-.5,2.93,2.93,0,0,0,.6-2.1A3.69,3.69,0,0,0,302,321.4Zm-.5,13.1a1.65,1.65,0,0,0,1-.8,4.18,4.18,0,0,0,.3-1.8,5.25,5.25,0,0,0-.3-2,1.5,1.5,0,0,0-1-.9,5.62,5.62,0,0,0-2-.3H296v6h3.5A4,4,0,0,0,301.5,334.5Z"/><path class="cls-22" d="M327,338h-4.6V320.5h-2.7a1.71,1.71,0,0,0-1.9,1.8c-.3,3.1-.5,5.5-.7,7.1a21.61,21.61,0,0,1-1,4.2c-1.1,3.1-3,4.6-5.8,4.6a5.38,5.38,0,0,1-1.1-.1l-.3-3.6a4.72,4.72,0,0,0,1.9-.7,3,3,0,0,0,1.1-1.5,18.72,18.72,0,0,0,.9-3.9c.2-1.5.5-3.8.7-6.7a5.08,5.08,0,0,1,1.4-3.4,4.76,4.76,0,0,1,3.5-1.1h8.7V338Z"/><path class="cls-22" d="M345.1,334.4l.2,3.4c-1.2.1-2.6.2-4.1.3h-5.6a4.86,4.86,0,0,1-3.3-1.1,4.14,4.14,0,0,1-1.2-3.1V321.3a3.87,3.87,0,0,1,1.3-3.1,4.41,4.41,0,0,1,3.3-1.1h5.6a25.42,25.42,0,0,1,4.1.3l-.2,3.4h-8a1.25,1.25,0,0,0-1.1.4,1.74,1.74,0,0,0-.3,1.2v3.2h8.3v3.3h-8.3v4a1.74,1.74,0,0,0,.3,1.2,1.6,1.6,0,0,0,1.1.4h7.9Z"/><path class="cls-22" d="M365.3,317.2V338h-4.6v-9.3h-7.3V338h-4.6V317.2h4.6v8h7.3v-8Z"/><path class="cls-22" d="M386.7,338h-4.4V325.6a13.33,13.33,0,0,1,.3-2.8h-.2a16,16,0,0,1-1.2,2.7l-7,12.5h-4.6V317.2H374v12.2c0,.9-.1,1.8-.2,2.9h.2a28.55,28.55,0,0,1,1.2-2.7l7-12.4h4.6V338Z"/><path class="cls-22" d="M404.9,334.4l.2,3.4c-1.2.1-2.6.2-4.1.3h-5.6a4.86,4.86,0,0,1-3.3-1.1,4.14,4.14,0,0,1-1.2-3.1V321.3a3.87,3.87,0,0,1,1.3-3.1,4.41,4.41,0,0,1,3.3-1.1h5.6a25.42,25.42,0,0,1,4.1.3l-.2,3.4h-8a1.25,1.25,0,0,0-1.1.4,1.74,1.74,0,0,0-.3,1.2v3.2h8.3v3.3h-8.3v4a1.74,1.74,0,0,0,.3,1.2,1.6,1.6,0,0,0,1.1.4h7.9Z"/><path class="cls-22" d="M225.2,355c.9.1,1.8.3,2.8.5l-.4,3.4c-1.6-.1-3.6-.2-5.9-.2a4.27,4.27,0,0,0-2.4.6,3.12,3.12,0,0,0-1.2,2.1,21.45,21.45,0,0,0-.3,4.1,20.75,20.75,0,0,0,.3,4.1,3.12,3.12,0,0,0,1.2,2.1,4.27,4.27,0,0,0,2.4.6h3.6a21.12,21.12,0,0,0,2.6-.2l.4,3.4a15.94,15.94,0,0,1-3,.6,35.75,35.75,0,0,1-3.7.2,10.94,10.94,0,0,1-5.2-1,5.51,5.51,0,0,1-2.7-3.4,18.82,18.82,0,0,1-.8-6.4,21.73,21.73,0,0,1,.8-6.4,6.28,6.28,0,0,1,2.7-3.4,10.94,10.94,0,0,1,5.2-1C223.2,354.8,224.3,354.9,225.2,355Z"/><path class="cls-22" d="M243.9,355.5a4,4,0,0,1,2.3,2.1,9.16,9.16,0,0,1,.7,4.1,9.64,9.64,0,0,1-.7,4.2A3.79,3.79,0,0,1,244,368a11.68,11.68,0,0,1-4.2.6c-1.3,0-2.6-.1-3.9-.2v7.7h-4.6V355.3c1.2-.1,2.3-.2,3.4-.2h4.6A10.27,10.27,0,0,1,243.9,355.5Zm-2.8,9.2a1.79,1.79,0,0,0,.9-1,5.25,5.25,0,0,0,.3-2,4.92,4.92,0,0,0-.3-2,1.79,1.79,0,0,0-.9-1,4.7,4.7,0,0,0-1.9-.3H236V365h3.2A4.39,4.39,0,0,0,241.1,364.7Z"/><path class="cls-22" d="M261.3,370.6h-7.2l-1.5,5.5h-4.7l6-19.6a1.46,1.46,0,0,1,.6-.9,1.69,1.69,0,0,1,1-.3h4.3a1.69,1.69,0,0,1,1,.3,1.46,1.46,0,0,1,.6.9l6,19.6h-4.7Zm-1-3.6-1.8-6.4c-.2-1-.4-1.7-.4-2h-.8l-.5,2L255,367Z"/><path class="cls-22" d="M279.7,355.4a3.76,3.76,0,0,1,2.2,1.6,6.23,6.23,0,0,1,.7,3.3,6.08,6.08,0,0,1-.8,3.4,3.52,3.52,0,0,1-2.7,1.3v.1a4,4,0,0,1,3.2,1.6,7.11,7.11,0,0,1,1,4,6.23,6.23,0,0,1-.7,3.3,3.66,3.66,0,0,1-2.2,1.6,14,14,0,0,1-4,.5c-1.7,0-3.2-.1-4.4-.2a19.72,19.72,0,0,1-3.5-.7l.3-3.2a41.76,41.76,0,0,0,6.8.6,7.45,7.45,0,0,0,1.8-.2,1.76,1.76,0,0,0,.9-.8,4,4,0,0,0,.3-1.7,4.7,4.7,0,0,0-.3-1.9,1.5,1.5,0,0,0-1-.9,4.7,4.7,0,0,0-1.9-.3l-4-.1v-3.2l4-.1a3.36,3.36,0,0,0,2.1-.5,2.65,2.65,0,0,0,.6-2,2.93,2.93,0,0,0-.6-2.1,4.11,4.11,0,0,0-2.3-.5,45.93,45.93,0,0,0-5.9.4l-.4-3.3c1-.2,2-.3,3-.4s2.2-.1,3.6-.1A21,21,0,0,1,279.7,355.4Z"/><path class="cls-22" d="M302.3,355.2l-5.1,15.5a13.87,13.87,0,0,1-1.4,3.2,6.56,6.56,0,0,1-1.8,1.9,4.85,4.85,0,0,1-2.8.6,19.88,19.88,0,0,1-2.2-.2q-1.2-.15-2.1-.3l.5-3.3a3.75,3.75,0,0,1,1,.1h1.1a6.05,6.05,0,0,0,1.5-.2,1.56,1.56,0,0,0,.8-.6,6.66,6.66,0,0,0,.6-1.2l.2-.7h-1.1a2.86,2.86,0,0,1-1.7-.5,4,4,0,0,1-1-1.6l-4.3-12.8h4.7l3.3,11c0,.1.1.2.2.3a.37.37,0,0,0,.3.1h.8l3.6-11.4h4.9Z"/><path class="cls-22" d="M325.9,366.9a6.39,6.39,0,0,1,1,4,6.23,6.23,0,0,1-.7,3.3,3.66,3.66,0,0,1-2.2,1.6,14.73,14.73,0,0,1-4.1.5h-5.1c-1.2,0-2.5-.1-3.7-.2V355.3c1.1-.1,2.2-.2,3.4-.2H319a16.63,16.63,0,0,1,4.4.5,4.37,4.37,0,0,1,2.3,1.6,6.23,6.23,0,0,1,.7,3.3,6.08,6.08,0,0,1-.8,3.4,3.57,3.57,0,0,1-2.8,1.3v.1A3.68,3.68,0,0,1,325.9,366.9Zm-4.4-7.5a1.65,1.65,0,0,0-1-.8,8.44,8.44,0,0,0-1.9-.2h-3.1v5.3h3.4a4.11,4.11,0,0,0,2.3-.5,2.93,2.93,0,0,0,.6-2.1A3.69,3.69,0,0,0,321.5,359.4Zm-.4,13.2a1.65,1.65,0,0,0,1-.8,4.18,4.18,0,0,0,.3-1.8,5.25,5.25,0,0,0-.3-2,1.5,1.5,0,0,0-1-.9,5.62,5.62,0,0,0-2-.3h-3.4v6h3.5A10.07,10.07,0,0,0,321.1,372.6Z"/><path class="cls-22" d="M344.2,372.4l.2,3.4c-1.2.1-2.6.2-4.1.3h-5.6a4.86,4.86,0,0,1-3.3-1.1,4.14,4.14,0,0,1-1.2-3.1V359.3a3.87,3.87,0,0,1,1.3-3.1,4.41,4.41,0,0,1,3.3-1.1h5.6a25.42,25.42,0,0,1,4.1.3l-.2,3.4h-8a1.25,1.25,0,0,0-1.1.4,1.74,1.74,0,0,0-.3,1.2v3.2h8.3v3.3h-8.3v4a1.74,1.74,0,0,0,.3,1.2,1.6,1.6,0,0,0,1.1.4h7.9Z"/><path class="cls-22" d="M357.8,355.4A3.76,3.76,0,0,1,360,357a6.23,6.23,0,0,1,.7,3.3,6.08,6.08,0,0,1-.8,3.4,3.52,3.52,0,0,1-2.7,1.3v.1a4,4,0,0,1,3.2,1.6,7.11,7.11,0,0,1,1,4,6.23,6.23,0,0,1-.7,3.3,3.66,3.66,0,0,1-2.2,1.6,14,14,0,0,1-4,.5c-1.7,0-3.2-.1-4.4-.2a19.72,19.72,0,0,1-3.5-.7l.3-3.2a41.76,41.76,0,0,0,6.8.6,7.45,7.45,0,0,0,1.8-.2,1.76,1.76,0,0,0,.9-.8,4,4,0,0,0,.3-1.7,4.7,4.7,0,0,0-.3-1.9,1.5,1.5,0,0,0-1-.9,4.7,4.7,0,0,0-1.9-.3l-4-.1v-3.2l4-.1a3.36,3.36,0,0,0,2.1-.5,2.65,2.65,0,0,0,.6-2,2.93,2.93,0,0,0-.6-2.1,4.11,4.11,0,0,0-2.3-.5,45.93,45.93,0,0,0-5.9.4l-.4-3.3c1-.2,2-.3,3-.4s2.2-.1,3.6-.1A20,20,0,0,1,357.8,355.4Z"/><path class="cls-22" d="M384.3,372.7v7.9H381l-.3-4.6H366.9l-.4,4.6h-3.3v-7.9h2.2a32.81,32.81,0,0,0,1.8-6.1,66.52,66.52,0,0,0,.9-7,5,5,0,0,1,1.4-3.2,4.87,4.87,0,0,1,3.4-1.2h8.5v17.5Zm-7.4,0V358.5h-2.7a1.7,1.7,0,0,0-1.3.4,2.29,2.29,0,0,0-.5,1.4,52,52,0,0,1-1,7.2,21.28,21.28,0,0,1-1.8,5.2Z"/><path class="cls-22" d="M401,372.4l.2,3.4c-1.2.1-2.6.2-4.1.3h-5.6a4.86,4.86,0,0,1-3.3-1.1,4.14,4.14,0,0,1-1.2-3.1V359.3a3.87,3.87,0,0,1,1.3-3.1,4.41,4.41,0,0,1,3.3-1.1h5.6a25.42,25.42,0,0,1,4.1.3l-.2,3.4h-8a1.25,1.25,0,0,0-1.1.4,1.74,1.74,0,0,0-.3,1.2v3.2H400v3.3h-8.3v4a1.74,1.74,0,0,0,.3,1.2,1.6,1.6,0,0,0,1.1.4H401Z"/></g></svg>