<svg xmlns="http://www.w3.org/2000/svg" viewBox="0 0 80 80"><defs><style>.cls-1{fill:#0272b3;}.cls-2{fill:#ec1c24;}.cls-2,.cls-3,.cls-4{fill-rule:evenodd;}.cls-3,.cls-5{fill:#fff;}.cls-4{fill:#00adee;}</style></defs><title>Asset 3</title><g id="Layer_2" data-name="Layer 2"><g id="Layer_1-2" data-name="Layer 1"><circle class="cls-1" cx="40" cy="40" r="40"/><path class="cls-2" d="M47.91,49H20.5V30L47.91,40.36Z"/><path class="cls-3" d="M58,49H31V23.77L58,14Z"/><path id="Rectangle_8_copy" data-name="Rectangle 8 copy" class="cls-4" d="M31,34l17,6.45V49H31Z"/><path class="cls-5" d="M26.06,53.28h2.1V64h-2.1V57.24h0L22.59,64H20.5V53.28h2.09V60h0Z"/><path class="cls-5" d="M34.49,61.21h0l2-7.93H39.3V64H37.22V57.24h0l-2,6.74h-1.4l-1.94-6.69h0V64H29.75V53.28h2.73Z"/><path class="cls-5" d="M48.72,53.28V64H46.63V54.9H44.27l0,3.2a8.64,8.64,0,0,1-.86,4.5A2.9,2.9,0,0,1,40.8,64h-.27V62.36h.26a1.11,1.11,0,0,0,1.14-.88,13.4,13.4,0,0,0,.26-3.38l0-4.82Z"/><path class="cls-5" d="M57.47,60.65v.05a3.27,3.27,0,0,1-.88,2.57,3.71,3.71,0,0,1-2.62.86,3.75,3.75,0,0,1-2.77-1,3.9,3.9,0,0,1-1-2.89V57.05a4,4,0,0,1,1-2.9,3.55,3.55,0,0,1,2.67-1,4,4,0,0,1,2.73.85,3.23,3.23,0,0,1,.92,2.58l0,0h-2a2.15,2.15,0,0,0-.37-1.44,1.58,1.58,0,0,0-1.23-.41,1.37,1.37,0,0,0-1.18.56A3.06,3.06,0,0,0,52.28,57v3.19A2.88,2.88,0,0,0,52.7,62a1.51,1.51,0,0,0,1.28.56,1.36,1.36,0,0,0,1.12-.41,2.28,2.28,0,0,0,.34-1.45Z"/></g></g></svg>