<svg xmlns="http://www.w3.org/2000/svg" viewBox="0 0 18 18"><defs><style>.cls-1{fill:#152f46;}.cls-1,.cls-2{fill-rule:evenodd;}.cls-2{fill:#fff;}</style></defs><title>Asset 7</title><g id="Layer_2" data-name="Layer 2"><g id="Layer_1-2" data-name="Layer 1"><path class="cls-1" d="M9,0A5.08,5.08,0,0,0,3.82,5c0,4.74-1.49,6.64-3.11,8A2,2,0,0,0,0,14.43.57.57,0,0,0,.59,15H17.41a.57.57,0,0,0,.59-.57A1.92,1.92,0,0,0,17.29,13c-1.62-1.35-3.11-3.24-3.11-8A5.09,5.09,0,0,0,9,0Z"/><path class="cls-2" d="M9,1.5A3.59,3.59,0,0,1,12.68,5c0,4.7,1.41,7,3,8.53H2.34c1.57-1.51,3-3.83,3-8.53A3.59,3.59,0,0,1,9,1.5"/><path class="cls-1" d="M12,16H6c0,1.1,1.34,2,3,2s3-.9,3-2Z"/></g></g></svg>