<svg xmlns="http://www.w3.org/2000/svg" viewBox="0 0 18 16"><defs><style>.cls-1{fill:#152f46;}.cls-1,.cls-2{fill-rule:evenodd;}.cls-2{fill:#fff;}</style></defs><title>Asset 10</title><g id="Layer_2" data-name="Layer 2"><g id="Layer_1-2" data-name="Layer 1"><path class="cls-1" d="M9,14a11.46,11.46,0,0,1-3.57-.57L2,16l1.41-3.52A6.55,6.55,0,0,1,0,7C0,3.13,4,0,9,0s9,3.13,9,7S14,14,9,14Z"/><path class="cls-2" d="M9,1.5C4.86,1.5,1.5,4,1.5,7a5.07,5.07,0,0,0,2.7,4.2l.93.58,0,0,.75.25A9.67,9.67,0,0,0,9,12.5c4.14,0,7.5-2.47,7.5-5.5S13.14,1.5,9,1.5Z"/><path class="cls-1" d="M5,5.75H7v1.5H5Z"/><path class="cls-1" d="M8,5.75h2v1.5H8Z"/><path class="cls-1" d="M11,5.75h2v1.5H11Z"/></g></g></svg>