<svg xmlns="http://www.w3.org/2000/svg" viewBox="0 0 18 16"><defs><style>.cls-1{fill:#152f46;fill-rule:evenodd;}</style></defs><title>Asset 11</title><g id="Layer_2" data-name="Layer 2"><g id="Layer_1-2" data-name="Layer 1"><path class="cls-1" d="M9,0C4,0,0,3.13,0,7a6.55,6.55,0,0,0,3.41,5.48L2,16l3.43-2.57A11.46,11.46,0,0,0,9,14c5,0,9-3.13,9-7S14,0,9,0ZM9,12.5A9.67,9.67,0,0,1,5.91,12l-.75-.25,0,0L4.2,11.2A5.07,5.07,0,0,1,1.5,7C1.5,4,4.86,1.5,9,1.5S16.5,4,16.5,7,13.14,12.5,9,12.5Z"/><path class="cls-1" d="M5,5.75H7v1.5H5Z"/><path class="cls-1" d="M8,5.75h2v1.5H8Z"/><path class="cls-1" d="M11,5.75h2v1.5H11Z"/></g></g></svg>