<svg xmlns="http://www.w3.org/2000/svg" viewBox="0 0 19.98 18"><defs><style>.cls-1{fill:#152f46;}.cls-1,.cls-2{fill-rule:evenodd;}.cls-2{fill:#fff;}</style></defs><title>Asset 12</title><g id="Layer_2" data-name="Layer 2"><g id="Layer_1-2" data-name="Layer 1"><path class="cls-1" d="M18,9a8,8,0,0,1-3.44,6.57L16,17l-1,1-1.71-1.71A7.92,7.92,0,0,1,10,17a8.05,8.05,0,0,1-3.32-.73L5,18,4,17l1.43-1.44A8,8,0,1,1,18,9Z"/><path class="cls-1" d="M18.88,5,15,1.1,16.1,0,20,3.89Z"/><path class="cls-2" d="M9.46,11H6V9.5H9.46V5H11v6H9.46Z"/><path class="cls-1" d="M0,3.89,3.9,0,5,1.1,1.11,5Z"/></g></g></svg>