<svg xmlns="http://www.w3.org/2000/svg" viewBox="0 0 19.98 17.99"><defs><style>.cls-1{fill:#152f46;fill-rule:evenodd;}</style></defs><title>Asset 14</title><g id="Layer_2" data-name="Layer 2"><g id="Layer_1-2" data-name="Layer 1"><path class="cls-1" d="M18,9A8,8,0,1,0,5.44,15.56L4,17l1,1,1.7-1.72a7.9,7.9,0,0,0,6.61,0L15,18l1-1-1.44-1.44A8,8,0,0,0,18,9Zm-8,6.5A6.51,6.51,0,1,1,16.5,9,6.51,6.51,0,0,1,10,15.5Z"/><path class="cls-1" d="M18.88,5,15,1.1,16.1,0,20,3.89Z"/><path class="cls-1" d="M9.46,11H6V9.5H9.46V5H11v6H9.46Z"/><path class="cls-1" d="M0,3.89,3.9,0,5,1.1,1.11,5Z"/></g></g></svg>