<svg xmlns="http://www.w3.org/2000/svg" viewBox="0 0 17 16"><defs><style>.cls-1{fill:#152f46;}.cls-1,.cls-2{fill-rule:evenodd;}.cls-2{fill:#fff;}</style></defs><title>Asset 16</title><g id="Layer_2" data-name="Layer 2"><g id="Layer_1-2" data-name="Layer 1"><path class="cls-1" d="M4.63,0C2.21,0,.28,2,0,4.77A5,5,0,0,0,.17,6.58a7.82,7.82,0,0,0,2.36,4L8.45,16l6-5.44a7.82,7.82,0,0,0,2.36-4A5,5,0,0,0,17,4.77C16.72,2,14.79,0,12.37,0A4.57,4.57,0,0,0,8.45,2.29,4.38,4.38,0,0,0,4.63,0Z"/><path class="cls-2" d="M4.63,1.5A2.88,2.88,0,0,1,7.15,3L8.44,5.26l1.3-2.21A3.07,3.07,0,0,1,12.37,1.5c1.62,0,2.93,1.43,3.11,3.41V5a3.93,3.93,0,0,1-.12,1.25,6.4,6.4,0,0,1-1.9,3.21L8.46,14,3.54,9.45A6.34,6.34,0,0,1,1.63,6.24,3.76,3.76,0,0,1,1.51,5h0V4.91C1.7,2.93,3,1.5,4.63,1.5"/></g></g></svg>