<?xml version="1.0"?>
<svg xmlns="http://www.w3.org/2000/svg" xmlns:xlink="http://www.w3.org/1999/xlink" version="1.1" id="Capa_1" x="0px" y="0px" viewBox="0 0 407.98 407.98" style="enable-background:new 0 0 407.98 407.98;" xml:space="preserve" width="512px" height="512px"><g><g>
	<path d="M353.233,0H54.748c-4.142,0-7.5,3.358-7.5,7.5v392.98c0,4.142,3.358,7.5,7.5,7.5h298.485c4.143,0,7.5-3.358,7.5-7.5V7.5   C360.733,3.358,357.375,0,353.233,0z M345.733,392.98H62.248V15h283.485V392.98z" data-original="#000000" class="active-path" data-old_color="#ffffff" fill="#ffffff"/>
	<path d="M81.747,80.575h244.485c4.143,0,7.5-3.358,7.5-7.5V34.5c0-4.142-3.357-7.5-7.5-7.5H81.747c-4.142,0-7.5,3.358-7.5,7.5   v38.575C74.247,77.217,77.605,80.575,81.747,80.575z M89.247,42h229.485v23.575H89.247V42z" data-original="#000000" class="active-path" data-old_color="#ffffff" fill="#ffffff"/>
	<path d="M81.747,380.98h107.175c4.142,0,7.5-3.358,7.5-7.5s-3.358-7.5-7.5-7.5H81.747c-4.142,0-7.5,3.358-7.5,7.5   S77.605,380.98,81.747,380.98z" data-original="#000000" class="active-path" data-old_color="#ffffff" fill="#ffffff"/>
	<path d="M81.747,347.666h107.175c4.142,0,7.5-3.358,7.5-7.5s-3.358-7.5-7.5-7.5H81.747c-4.142,0-7.5,3.358-7.5,7.5   S77.605,347.666,81.747,347.666z" data-original="#000000" class="active-path" data-old_color="#ffffff" fill="#ffffff"/>
	<path d="M81.747,314.352h107.175c4.142,0,7.5-3.358,7.5-7.5s-3.358-7.5-7.5-7.5H81.747c-4.142,0-7.5,3.358-7.5,7.5   S77.605,314.352,81.747,314.352z" data-original="#000000" class="active-path" data-old_color="#ffffff" fill="#ffffff"/>
	<path d="M81.747,281.038h107.175c4.142,0,7.5-3.358,7.5-7.5s-3.358-7.5-7.5-7.5H81.747c-4.142,0-7.5,3.358-7.5,7.5   S77.605,281.038,81.747,281.038z" data-original="#000000" class="active-path" data-old_color="#ffffff" fill="#ffffff"/>
	<path d="M81.747,247.724h107.175c4.142,0,7.5-3.358,7.5-7.5v-66.628c0-4.142-3.358-7.5-7.5-7.5H81.747c-4.142,0-7.5,3.358-7.5,7.5   v66.628C74.247,244.366,77.605,247.724,81.747,247.724z M89.247,181.095h92.175v51.628H89.247V181.095z" data-original="#000000" class="active-path" data-old_color="#ffffff" fill="#ffffff"/>
	<path d="M81.747,147.781h107.175c4.142,0,7.5-3.358,7.5-7.5s-3.358-7.5-7.5-7.5H81.747c-4.142,0-7.5,3.358-7.5,7.5   S77.605,147.781,81.747,147.781z" data-original="#000000" class="active-path" data-old_color="#ffffff" fill="#ffffff"/>
	<path d="M81.747,114.467h107.175c4.142,0,7.5-3.358,7.5-7.5s-3.358-7.5-7.5-7.5H81.747c-4.142,0-7.5,3.358-7.5,7.5   S77.605,114.467,81.747,114.467z" data-original="#000000" class="active-path" data-old_color="#ffffff" fill="#ffffff"/>
	<path d="M326.233,299.352H219.058c-4.143,0-7.5,3.358-7.5,7.5v66.628c0,4.142,3.357,7.5,7.5,7.5h107.175c4.143,0,7.5-3.358,7.5-7.5   v-66.628C333.733,302.71,330.375,299.352,326.233,299.352z M318.733,365.98h-92.175v-51.628h92.175V365.98z" data-original="#000000" class="active-path" data-old_color="#ffffff" fill="#ffffff"/>
	<path d="M326.233,266.038H219.058c-4.143,0-7.5,3.358-7.5,7.5s3.357,7.5,7.5,7.5h107.175c4.143,0,7.5-3.358,7.5-7.5   S330.375,266.038,326.233,266.038z" data-original="#000000" class="active-path" data-old_color="#ffffff" fill="#ffffff"/>
	<path d="M326.233,232.724H219.058c-4.143,0-7.5,3.358-7.5,7.5s3.357,7.5,7.5,7.5h107.175c4.143,0,7.5-3.358,7.5-7.5   S330.375,232.724,326.233,232.724z" data-original="#000000" class="active-path" data-old_color="#ffffff" fill="#ffffff"/>
	<path d="M326.233,199.409H219.058c-4.143,0-7.5,3.358-7.5,7.5s3.357,7.5,7.5,7.5h107.175c4.143,0,7.5-3.358,7.5-7.5   S330.375,199.409,326.233,199.409z" data-original="#000000" class="active-path" data-old_color="#ffffff" fill="#ffffff"/>
	<path d="M326.233,166.095H219.058c-4.143,0-7.5,3.358-7.5,7.5s3.357,7.5,7.5,7.5h107.175c4.143,0,7.5-3.358,7.5-7.5   S330.375,166.095,326.233,166.095z" data-original="#000000" class="active-path" data-old_color="#ffffff" fill="#ffffff"/>
	<path d="M326.233,132.781H219.058c-4.143,0-7.5,3.358-7.5,7.5s3.357,7.5,7.5,7.5h107.175c4.143,0,7.5-3.358,7.5-7.5   S330.375,132.781,326.233,132.781z" data-original="#000000" class="active-path" data-old_color="#ffffff" fill="#ffffff"/>
	<path d="M326.233,99.467H219.058c-4.143,0-7.5,3.358-7.5,7.5s3.357,7.5,7.5,7.5h107.175c4.143,0,7.5-3.358,7.5-7.5   S330.375,99.467,326.233,99.467z" data-original="#000000" class="active-path" data-old_color="#ffffff" fill="#ffffff"/>
</g></g> </svg>
