<svg xmlns="http://www.w3.org/2000/svg" viewBox="0 0 18 13"><defs><style>.cls-1{fill:#152f46;fill-rule:evenodd;}</style></defs><title>Asset 17</title><g id="Layer_2" data-name="Layer 2"><g id="Layer_1-2" data-name="Layer 1"><path class="cls-1" d="M.35,1A2.11,2.11,0,0,0,0,2.17v8.66a2.12,2.12,0,0,0,.29,1.05L6,5.75Z"/><path class="cls-1" d="M18,10.83a2.12,2.12,0,0,1-.29,1.05L12,5.75,17.65,1A2.11,2.11,0,0,1,18,2.17Z"/><path class="cls-1" d="M9,6.86,16.82.27A2.26,2.26,0,0,0,15.75,0H2.25A2.26,2.26,0,0,0,1.18.27"/><path class="cls-1" d="M11.18,6.47,9.37,8a.59.59,0,0,1-.74,0L6.82,6.47l-5.75,6.2A2.23,2.23,0,0,0,2.25,13h13.5a2.29,2.29,0,0,0,1.19-.33Z"/></g></g></svg>