<svg xmlns="http://www.w3.org/2000/svg" viewBox="0 0 17 18"><defs><style>.cls-1{fill:#152f46;}.cls-1,.cls-2{fill-rule:evenodd;}.cls-2{fill:#fff;}</style></defs><title>Asset 2</title><g id="Layer_2" data-name="Layer 2"><g id="Layer_1-2" data-name="Layer 1"><path class="cls-1" d="M2,0h8a2,2,0,0,1,2,2v8a2,2,0,0,1-2,2H2a2,2,0,0,1-2-2V2A2,2,0,0,1,2,0Z"/><path class="cls-1" d="M6,5h9a2,2,0,0,1,2,2v9a2,2,0,0,1-2,2H6a2,2,0,0,1-2-2V7A2,2,0,0,1,6,5Z"/><path class="cls-2" d="M10.5,2a.5.5,0,0,0-.5-.5H2a.5.5,0,0,0-.5.5v8a.5.5,0,0,0,.5.5H4V7A2,2,0,0,1,6,5h4.5Z"/><path class="cls-2" d="M15.5,7a.5.5,0,0,0-.5-.5H6a.5.5,0,0,0-.5.5v9a.5.5,0,0,0,.5.5h9a.5.5,0,0,0,.5-.5Z"/></g></g></svg>