<svg xmlns="http://www.w3.org/2000/svg" width="18" height="16" viewBox="0 0 18 16"><g><g><path fill="#152f46" d="M9 1.5C4.866 1.5 1.5 3.967 1.5 7c0 1.612.983 3.144 2.697 4.203l.932.576.036-.026.747.251a9.664 9.664 0 0 0 3.089.496c4.135 0 7.499-2.467 7.499-5.5S13.136 1.5 9 1.5c0 0 4.136 0 0 0zM9 0c4.97 0 9 3.134 9 7s-4.03 7-9 7c-1.267 0-2.473-.206-3.567-.574L2.001 16l1.408-3.521C1.334 11.197-.001 9.221-.001 7c0-3.866 4.03-7 9.002-7zM7 5.75v1.5H5v-1.5zm3 0v1.5H8v-1.5zm3 0v1.5h-2v-1.5z"/></g></g></svg>