<svg xmlns="http://www.w3.org/2000/svg" viewBox="0 0 18 13"><defs><style>.cls-1{fill:#152f46;}.cls-1,.cls-2{fill-rule:evenodd;}.cls-2{fill:#fff;}</style></defs><title>Asset 1</title><g id="Layer_2" data-name="Layer 2"><g id="Layer_1-2" data-name="Layer 1"><path class="cls-1" d="M16,0H2A2,2,0,0,0,0,2v9a2,2,0,0,0,2,2H16a2,2,0,0,0,2-2V2A2,2,0,0,0,16,0Z"/><path class="cls-1" d="M16,1.5h-.27L9,7.05,2.27,1.5H2a.5.5,0,0,0-.5.5v.81L6,6.5,1.5,10.19V11a.5.5,0,0,0,.5.5h.27l4.88-4L9,9l1.85-1.53,4.88,4H16a.5.5,0,0,0,.5-.5v-.81L12,6.5,16.5,2.81V2A.5.5,0,0,0,16,1.5Z"/><polygon class="cls-2" points="9 9 7.15 7.47 2.27 11.5 15.73 11.5 10.85 7.47 9 9"/><polygon class="cls-2" points="12.03 6.5 16.5 10.19 16.5 2.81 12.03 6.5"/><polygon class="cls-2" points="1.5 2.81 1.5 10.19 5.97 6.5 1.5 2.81"/><polygon class="cls-2" points="15.73 1.5 2.27 1.5 9 7.05 15.73 1.5"/></g></g></svg>