<svg xmlns="http://www.w3.org/2000/svg" width="18" height="18" viewBox="0 0 18 18"><g><g><path fill="#152f46" d="M9 1.5c-2.028 0-3.677 1.558-3.677 3.473 0 4.7-1.415 7.016-2.98 8.527h13.315c-1.567-1.515-2.981-3.833-2.981-8.527C12.677 3.058 11.027 1.5 9 1.5c0 0 2.028 0 0 0zM9 0c2.855 0 5.177 2.231 5.177 4.973 0 4.735 1.497 6.631 3.115 7.976.45.371.708.913.708 1.485a.578.578 0 0 1-.589.566H.59a.578.578 0 0 1-.59-.566c0-.567.258-1.108.707-1.484 1.62-1.343 3.117-3.238 3.117-7.977C3.823 2.231 6.145 0 9 0zm3 16c0 1.105-1.343 2-3 2-1.656 0-3-.895-3-2z"/></g></g></svg>