<svg xmlns="http://www.w3.org/2000/svg" width="20" height="18" viewBox="0 0 20 18"><g><g><path fill="#152f46" d="M18.886 4.999l-3.88-3.895L16.104.002l3.88 3.894zm-.88 3.998a7.997 7.997 0 0 1-3.44 6.575l1.44 1.436-.988.985-1.713-1.707a7.943 7.943 0 0 1-3.295.718 7.944 7.944 0 0 1-3.315-.727L4.99 17.993l-.98-.985 1.434-1.443a7.996 7.996 0 0 1-3.43-6.568C2.014 4.575 5.593.99 10.01.99s7.995 3.585 7.995 8.007zM10.01 2.49c-3.583 0-6.497 2.919-6.497 6.506s2.914 6.505 6.497 6.505c3.581 0 6.496-2.918 6.496-6.505 0-3.587-2.915-6.506-6.496-6.506zM5.987 11V9.503h3.471V5.014h1.543V11zM.003 3.896L3.908.002l1.105 1.102-3.905 3.895z"/></g></g></svg>