<svg xmlns="http://www.w3.org/2000/svg" width="17" height="16" viewBox="0 0 17 16"><g><g><path fill="#152f46" d="M4.632 1.5c1.041 0 1.963.56 2.526 1.536l1.285 2.223 1.305-2.211c.572-.97 1.555-1.548 2.627-1.548 1.623 0 2.929 1.432 3.107 3.406l.003.04.006.039c.002.018.063.464-.121 1.258a6.294 6.294 0 0 1-1.898 3.204l-5.01 4.525-4.918-4.518C2.581 8.57 1.921 7.46 1.637 6.242c-.183-.782-.125-1.225-.125-1.225l.009-.056.005-.056C1.703 2.932 3.009 1.5 4.632 1.5c1.623 0 0 0 0 0zm-4.6 3.27c-.02.123-.1.765.146 1.814C.53 8.096 1.344 9.47 2.53 10.559L8.453 16l6.024-5.44c1.186-1.09 2-2.464 2.353-3.976.244-1.048.163-1.69.145-1.813-.249-2.765-2.181-4.77-4.6-4.77-1.613 0-3.088.877-3.918 2.285C7.633.86 6.219 0 4.632 0 2.214 0 .281 2.006.032 4.77z"/></g></g></svg>