<svg 
 xmlns="http://www.w3.org/2000/svg"
 xmlns:xlink="http://www.w3.org/1999/xlink"
 width="20px" height="20px">
<path fill-rule="evenodd"  fill="rgb(255, 255, 255)"
 d="M10.000,20.000 C4.477,20.000 -0.001,15.523 -0.001,10.000 C-0.001,4.477 4.477,-0.000 10.000,-0.000 C15.523,-0.000 20.000,4.477 20.000,10.000 C20.000,15.523 15.523,20.000 10.000,20.000 ZM10.000,2.000 C5.581,2.000 2.001,5.582 2.001,10.000 C2.001,14.418 5.581,18.000 10.000,18.000 C14.418,18.000 18.000,14.418 18.000,10.000 C18.000,5.582 14.418,2.000 10.000,2.000 ZM11.001,14.000 L9.000,14.000 L9.000,11.000 L6.000,11.000 L6.000,9.000 L9.000,9.000 L9.000,6.000 L11.001,6.000 L11.001,9.000 L14.000,9.000 L14.000,11.000 L11.001,11.000 L11.001,14.000 Z"/>
</svg>