<svg 
 xmlns="http://www.w3.org/2000/svg"
 xmlns:xlink="http://www.w3.org/1999/xlink"
 width="19px" height="18px">
<path fill-rule="evenodd"  fill="rgb(21, 47, 70)"
 d="M17.517,8.275 L17.517,3.051 L2.226,3.051 C1.819,3.051 1.485,2.709 1.485,2.288 C1.485,1.867 1.819,1.526 2.226,1.526 L16.031,1.526 L16.031,-0.000 L2.226,-0.000 C0.999,-0.000 -0.001,1.026 -0.001,2.288 L-0.001,15.712 C-0.001,16.974 0.999,18.000 2.226,18.000 L17.517,18.000 L17.517,12.852 L19.000,12.852 L19.000,8.275 L17.517,8.275 ZM16.031,16.475 L2.226,16.475 C1.819,16.475 1.485,16.132 1.485,15.712 L1.485,4.445 C1.717,4.530 1.969,4.577 2.226,4.577 L16.031,4.577 L16.031,8.275 L14.324,8.275 C13.098,8.275 12.097,9.302 12.097,10.563 C12.097,11.825 13.098,12.852 14.324,12.852 L16.031,12.852 L16.031,16.475 ZM17.517,11.326 L14.324,11.326 C13.915,11.326 13.582,10.984 13.582,10.563 C13.582,10.143 13.915,9.801 14.324,9.801 L17.517,9.801 L17.517,11.326 Z"/>
</svg>