<svg id="Layer_1" data-name="Layer 1" xmlns="http://www.w3.org/2000/svg" viewBox="0 0 365 309"><defs><style>.cls-1{fill:#e0f3e5;}.cls-2{opacity:0.08;}.cls-3{opacity:0.8;}.cls-4{opacity:0.3;}.cls-5,.cls-6{fill:#23b14d;}.cls-12,.cls-15,.cls-5{fill-rule:evenodd;}.cls-5{opacity:0.4;}.cls-7{fill:#ffd5b6;}.cls-8{fill:#fdc9c4;}.cls-9{fill:#cad9ce;}.cls-10{fill:#fff;}.cls-11{fill:#ff730e;}.cls-12{fill:#f84c3a;}.cls-13{opacity:0.6;}.cls-14,.cls-15{fill:#ff9d00;}</style></defs><title>Эффективность рекламы</title><rect class="cls-1" width="365" height="309"/><rect class="cls-2" x="20" y="241" width="325" height="1"/><rect class="cls-2" x="20" y="141" width="325" height="1"/><rect class="cls-2" x="20" y="40" width="325" height="1"/><g class="cls-3"><path d="M57.18,30.33h-2.6V25.15a5,5,0,0,1,.1-1.07l-1.91.37-.3-1.59,2.11-.81h2.6Z"/><path d="M64.09,22.28a2.28,2.28,0,0,1,1.1,1.32,7.72,7.72,0,0,1,.34,2.59,7.74,7.74,0,0,1-.34,2.6,2.31,2.31,0,0,1-1.1,1.32A4.73,4.73,0,0,1,62,30.5a4.62,4.62,0,0,1-2.1-.39,2.3,2.3,0,0,1-1.09-1.32,7.74,7.74,0,0,1-.34-2.6,7.72,7.72,0,0,1,.34-2.59,2.27,2.27,0,0,1,1.09-1.32,4.61,4.61,0,0,1,2.1-.4A4.71,4.71,0,0,1,64.09,22.28ZM61.37,24a1.1,1.1,0,0,0-.26.65A10,10,0,0,0,61,26.19a10.14,10.14,0,0,0,.08,1.58,1.07,1.07,0,0,0,.26.64.87.87,0,0,0,.59.16,1,1,0,0,0,.63-.16,1,1,0,0,0,.28-.64A11.59,11.59,0,0,0,63,26.19a11.42,11.42,0,0,0-.08-1.57,1,1,0,0,0-.28-.65,1,1,0,0,0-.63-.15A.93.93,0,0,0,61.37,24Z"/><path d="M72,22.28a2.3,2.3,0,0,1,1.11,1.32,8,8,0,0,1,.33,2.59,8.05,8.05,0,0,1-.33,2.6A2.33,2.33,0,0,1,72,30.11a5.88,5.88,0,0,1-4.21,0,2.34,2.34,0,0,1-1.09-1.32,8,8,0,0,1-.34-2.6,8,8,0,0,1,.34-2.59,2.31,2.31,0,0,1,1.09-1.32,5.74,5.74,0,0,1,4.21,0ZM69.27,24a1,1,0,0,0-.27.65,11.42,11.42,0,0,0-.08,1.57A11.59,11.59,0,0,0,69,27.77a1,1,0,0,0,.27.64.87.87,0,0,0,.59.16,1,1,0,0,0,.63-.16,1.06,1.06,0,0,0,.28-.64,12,12,0,0,0,.07-1.58,11.82,11.82,0,0,0-.07-1.57,1.1,1.1,0,0,0-.28-.65,1,1,0,0,0-.63-.15A.93.93,0,0,0,69.27,24Z"/><path d="M77.58,22.11a1.34,1.34,0,0,1,.67.75,4.27,4.27,0,0,1,.21,1.5,4.17,4.17,0,0,1-.21,1.49,1.33,1.33,0,0,1-.67.76,3.13,3.13,0,0,1-1.31.22A3,3,0,0,1,75,26.61a1.33,1.33,0,0,1-.67-.76,4.17,4.17,0,0,1-.21-1.49,4.27,4.27,0,0,1,.21-1.5,1.34,1.34,0,0,1,.67-.75,3,3,0,0,1,1.29-.23A3.11,3.11,0,0,1,77.58,22.11Zm-1.53,1.15a.44.44,0,0,0-.09.3,7.13,7.13,0,0,0,0,.8,7.47,7.47,0,0,0,0,.81.43.43,0,0,0,.09.29.3.3,0,0,0,.22.06.33.33,0,0,0,.23-.06.49.49,0,0,0,.1-.3,7.38,7.38,0,0,0,0-.8,7.13,7.13,0,0,0,0-.8.49.49,0,0,0-.1-.3.33.33,0,0,0-.23-.07A.3.3,0,0,0,76.05,23.26Zm1.78,7.07H76.32l4.56-8.28h1.51Zm5.91-4.55a1.31,1.31,0,0,1,.68.76A4.17,4.17,0,0,1,84.63,28a4.17,4.17,0,0,1-.21,1.49,1.31,1.31,0,0,1-.68.76,3,3,0,0,1-1.3.22,3,3,0,0,1-1.29-.22,1.35,1.35,0,0,1-.68-.76A4.17,4.17,0,0,1,80.26,28a4.17,4.17,0,0,1,.21-1.49,1.35,1.35,0,0,1,.68-.76,3,3,0,0,1,1.29-.22A3,3,0,0,1,83.74,25.78Zm-1.53,1.15a.53.53,0,0,0-.09.29c0,.16,0,.43,0,.81s0,.64,0,.8a.66.66,0,0,0,.09.3.35.35,0,0,0,.23.06.33.33,0,0,0,.23-.06.64.64,0,0,0,.1-.3,10.68,10.68,0,0,0,0-1.6.56.56,0,0,0-.1-.3.33.33,0,0,0-.23-.06A.35.35,0,0,0,82.21,26.93Z"/></g><g class="cls-4"><path d="M22.16,38.33h-1V34.26a4,4,0,0,1,0-.54l-1.29.37-.12-.72,1.37-.56h1Z"/><path d="M26.64,33a1.63,1.63,0,0,1,.63.91,7.11,7.11,0,0,1,0,3.35,1.61,1.61,0,0,1-.63.9,2.61,2.61,0,0,1-2.39,0,1.61,1.61,0,0,1-.63-.9,5.79,5.79,0,0,1-.19-1.68,5.76,5.76,0,0,1,.19-1.67,1.6,1.6,0,0,1,.63-.91,2.69,2.69,0,0,1,2.39,0Zm-1.83.74a1.13,1.13,0,0,0-.31.62,5.55,5.55,0,0,0-.1,1.22,5.49,5.49,0,0,0,.1,1.22,1.1,1.1,0,0,0,.31.62.92.92,0,0,0,.62.19.94.94,0,0,0,.64-.19,1.07,1.07,0,0,0,.32-.61,6.44,6.44,0,0,0,.09-1.23,6.32,6.32,0,0,0-.09-1.22,1.14,1.14,0,0,0-.32-.62,1,1,0,0,0-.64-.18A1,1,0,0,0,24.81,33.73Z"/><path d="M31.57,33a1.63,1.63,0,0,1,.63.91,5.85,5.85,0,0,1,.19,1.67,5.88,5.88,0,0,1-.19,1.68,1.61,1.61,0,0,1-.63.9,2.63,2.63,0,0,1-2.4,0,1.55,1.55,0,0,1-.62-.9,7.11,7.11,0,0,1,0-3.35,1.54,1.54,0,0,1,.62-.91,2.71,2.71,0,0,1,2.4,0Zm-1.83.74a1.13,1.13,0,0,0-.31.62,5.55,5.55,0,0,0-.1,1.22,5.49,5.49,0,0,0,.1,1.22,1.1,1.1,0,0,0,.31.62.92.92,0,0,0,.62.19.93.93,0,0,0,.63-.19,1,1,0,0,0,.32-.61,5.59,5.59,0,0,0,.1-1.23,5.49,5.49,0,0,0-.1-1.22,1.08,1.08,0,0,0-.32-.62,1,1,0,0,0-.63-.18A1,1,0,0,0,29.74,33.73Z"/><path d="M35.27,32.87a.93.93,0,0,1,.42.51,2.84,2.84,0,0,1,.13,1,2.77,2.77,0,0,1-.13,1,.92.92,0,0,1-.42.52,1.58,1.58,0,0,1-.79.16,1.6,1.6,0,0,1-.79-.16,1,1,0,0,1-.42-.52,3.08,3.08,0,0,1-.12-1,3.15,3.15,0,0,1,.12-1,1,1,0,0,1,.42-.51,1.6,1.6,0,0,1,.79-.16A1.58,1.58,0,0,1,35.27,32.87Zm-1.16.51a.51.51,0,0,0-.18.32,3.55,3.55,0,0,0,0,1.3.48.48,0,0,0,.18.32.6.6,0,0,0,.36.09.69.69,0,0,0,.38-.09A.52.52,0,0,0,35,35a2.7,2.7,0,0,0,.06-.65,2.6,2.6,0,0,0-.06-.64.55.55,0,0,0-.18-.33.69.69,0,0,0-.38-.09A.6.6,0,0,0,34.11,33.38ZM35,38.33h-.65l3.43-5.52h.64Zm4.14-3a.91.91,0,0,1,.41.52,2.81,2.81,0,0,1,.13,1,2.9,2.9,0,0,1-.13,1,.92.92,0,0,1-.41.51,1.6,1.6,0,0,1-.79.16,1.58,1.58,0,0,1-.79-.16.92.92,0,0,1-.41-.51,2.9,2.9,0,0,1-.13-1,2.81,2.81,0,0,1,.13-1,.91.91,0,0,1,.41-.52,1.7,1.7,0,0,1,.79-.16A1.73,1.73,0,0,1,39.18,35.29ZM38,35.81a.53.53,0,0,0-.19.31,5.38,5.38,0,0,0,0,1.31.5.5,0,0,0,.19.32.63.63,0,0,0,.37.1.59.59,0,0,0,.36-.1.53.53,0,0,0,.19-.32,3.61,3.61,0,0,0,.05-.66,3.56,3.56,0,0,0-.05-.65.53.53,0,0,0-.19-.31.6.6,0,0,0-.36-.09A.63.63,0,0,0,38,35.81Z"/></g><g class="cls-4"><path d="M23.43,156.64H21.16l-.06,1.17.69.08a2.32,2.32,0,0,1,1.42.52,1.64,1.64,0,0,1,.42,1.23,2,2,0,0,1-.4,1.29,1.79,1.79,0,0,1-1.45.5,9.64,9.64,0,0,1-1.76-.18l.1-.81a9.15,9.15,0,0,0,1.41.12,1.79,1.79,0,0,0,.7-.11.61.61,0,0,0,.33-.3,1.5,1.5,0,0,0,.08-.57.91.91,0,0,0-.14-.55.73.73,0,0,0-.43-.24,8.71,8.71,0,0,0-.95-.13l-.53,0a.38.38,0,0,1-.35-.4l.13-2.4h3.1Z"/><path d="M27.68,156a1.63,1.63,0,0,1,.63.91,7.11,7.11,0,0,1,0,3.35,1.61,1.61,0,0,1-.63.9,2.61,2.61,0,0,1-2.39,0,1.61,1.61,0,0,1-.63-.9,7.48,7.48,0,0,1,0-3.35,1.6,1.6,0,0,1,.63-.91,2.69,2.69,0,0,1,2.39,0Zm-1.83.74a1.13,1.13,0,0,0-.31.62,5.55,5.55,0,0,0-.1,1.22,5.49,5.49,0,0,0,.1,1.22,1.1,1.1,0,0,0,.31.62.92.92,0,0,0,.62.19.94.94,0,0,0,.64-.19,1.07,1.07,0,0,0,.32-.61,6.44,6.44,0,0,0,.09-1.23,6.32,6.32,0,0,0-.09-1.22,1.14,1.14,0,0,0-.32-.62,1,1,0,0,0-.64-.18A1,1,0,0,0,25.85,156.73Z"/><path d="M31.39,155.87a.92.92,0,0,1,.41.51,2.84,2.84,0,0,1,.13,1,2.77,2.77,0,0,1-.13,1,.91.91,0,0,1-.41.52,1.65,1.65,0,0,1-.8.16,1.6,1.6,0,0,1-.79-.16.91.91,0,0,1-.41-.52,2.77,2.77,0,0,1-.13-1,2.84,2.84,0,0,1,.13-1,.92.92,0,0,1,.41-.51,1.6,1.6,0,0,1,.79-.16A1.65,1.65,0,0,1,31.39,155.87Zm-1.17.51a.51.51,0,0,0-.18.32,4.25,4.25,0,0,0,0,1.3.48.48,0,0,0,.18.32.63.63,0,0,0,.37.09.65.65,0,0,0,.37-.09.53.53,0,0,0,.19-.32,3.48,3.48,0,0,0,.05-.65,3.36,3.36,0,0,0-.05-.64.56.56,0,0,0-.19-.33.65.65,0,0,0-.37-.09A.63.63,0,0,0,30.22,156.38Zm.93,5h-.64l3.42-5.52h.64Zm4.14-3a1,1,0,0,1,.42.52,3.12,3.12,0,0,1,.12,1,3.22,3.22,0,0,1-.12,1,1,1,0,0,1-.42.51,1.6,1.6,0,0,1-.79.16,1.63,1.63,0,0,1-.79-.16.92.92,0,0,1-.41-.51,2.9,2.9,0,0,1-.13-1,2.81,2.81,0,0,1,.13-1,.91.91,0,0,1,.41-.52,1.76,1.76,0,0,1,.79-.16A1.73,1.73,0,0,1,35.29,158.29Zm-1.16.52a.48.48,0,0,0-.18.31,4.32,4.32,0,0,0,0,1.31.46.46,0,0,0,.18.32.63.63,0,0,0,.37.1.65.65,0,0,0,.37-.1.58.58,0,0,0,.18-.32,2.79,2.79,0,0,0,.06-.66,2.75,2.75,0,0,0-.06-.65.58.58,0,0,0-.18-.31.65.65,0,0,0-.37-.09A.63.63,0,0,0,34.13,158.81Z"/></g><g class="cls-4"><path d="M23.33,234a1.63,1.63,0,0,1,.63.91,7.48,7.48,0,0,1,0,3.35,1.61,1.61,0,0,1-.63.9,2.17,2.17,0,0,1-1.2.29,2.17,2.17,0,0,1-1.2-.29,1.55,1.55,0,0,1-.62-.9,7.48,7.48,0,0,1,0-3.35,1.54,1.54,0,0,1,.62-.91,2.18,2.18,0,0,1,1.2-.28A2.18,2.18,0,0,1,23.33,234Zm-1.83.74a1.13,1.13,0,0,0-.31.62,5.55,5.55,0,0,0-.1,1.22,5.49,5.49,0,0,0,.1,1.22,1.1,1.1,0,0,0,.31.62,1.12,1.12,0,0,0,1.25,0,1,1,0,0,0,.32-.61,5.59,5.59,0,0,0,.1-1.23,5.49,5.49,0,0,0-.1-1.22,1.08,1.08,0,0,0-.32-.62,1.18,1.18,0,0,0-1.25,0Z"/><path d="M27,233.87a.92.92,0,0,1,.41.51,2.84,2.84,0,0,1,.13,1,2.77,2.77,0,0,1-.13,1,.91.91,0,0,1-.41.52,1.65,1.65,0,0,1-.8.16,1.6,1.6,0,0,1-.79-.16.91.91,0,0,1-.41-.52,2.77,2.77,0,0,1-.13-1,2.84,2.84,0,0,1,.13-1,.92.92,0,0,1,.41-.51,1.6,1.6,0,0,1,.79-.16A1.65,1.65,0,0,1,27,233.87Zm-1.17.51a.51.51,0,0,0-.18.32,3.55,3.55,0,0,0,0,1.3.48.48,0,0,0,.18.32.6.6,0,0,0,.36.09.69.69,0,0,0,.38-.09.48.48,0,0,0,.18-.32,2.7,2.7,0,0,0,.06-.65,2.6,2.6,0,0,0-.06-.64.51.51,0,0,0-.18-.33.69.69,0,0,0-.38-.09A.6.6,0,0,0,25.87,234.38Zm.93,5h-.65l3.43-5.52h.64Zm4.14-3a.91.91,0,0,1,.41.52,2.81,2.81,0,0,1,.13,1,2.9,2.9,0,0,1-.13,1,.92.92,0,0,1-.41.51,2,2,0,0,1-1.58,0,.92.92,0,0,1-.41-.51,2.9,2.9,0,0,1-.13-1,2.81,2.81,0,0,1,.13-1,.91.91,0,0,1,.41-.52,2,2,0,0,1,1.58,0Zm-1.16.52a.53.53,0,0,0-.19.31,5.38,5.38,0,0,0,0,1.31.5.5,0,0,0,.19.32.63.63,0,0,0,.37.1.59.59,0,0,0,.36-.1.53.53,0,0,0,.19-.32,2.89,2.89,0,0,0,.05-.66,2.84,2.84,0,0,0-.05-.65.53.53,0,0,0-.19-.31.6.6,0,0,0-.36-.09A.63.63,0,0,0,29.78,236.81Z"/></g><polygon class="cls-5" points="90 254 90 303 47 303 47 254 68.5 248 90 254"/><g class="cls-3"><path d="M115.46,138.3v1l-1,.15h0v1.87H113v-1.87h-3.25a.91.91,0,0,1-.7-.28.94.94,0,0,1-.27-.68,1.18,1.18,0,0,1,.09-.43l2.21-5h1.45l-2.1,4.82a.45.45,0,0,0,0,.2c0,.15.1.23.31.23H113V136l.25-1.34h1.17v3.65Z"/><path d="M121.64,133.21a.54.54,0,0,1,.18.43.86.86,0,0,1,0,.28l-2.54,7.41h-1.48l2.18-6.31a2.72,2.72,0,0,1,.31-.71h-3.88l-.08-1.26h4.83A.83.83,0,0,1,121.64,133.21Z"/><path d="M125.8,133.14a1.42,1.42,0,0,1,.62.77,4.39,4.39,0,0,1,.19,1.45,4.32,4.32,0,0,1-.19,1.44,1.41,1.41,0,0,1-.62.78,2.49,2.49,0,0,1-1.19.24,2.46,2.46,0,0,1-1.19-.24,1.33,1.33,0,0,1-.62-.78,4.29,4.29,0,0,1-.2-1.44,4.35,4.35,0,0,1,.2-1.45,1.34,1.34,0,0,1,.62-.77,2.46,2.46,0,0,1,1.19-.24A2.49,2.49,0,0,1,125.8,133.14Zm-1.76.77a.79.79,0,0,0-.26.47,4.16,4.16,0,0,0-.08,1,4.21,4.21,0,0,0,.08,1,.85.85,0,0,0,.26.48,1,1,0,0,0,.56.13,1,1,0,0,0,.55-.13.82.82,0,0,0,.29-.48,4.85,4.85,0,0,0,.08-1,4.74,4.74,0,0,0-.08-1,.76.76,0,0,0-.29-.48.88.88,0,0,0-.55-.15A.91.91,0,0,0,124,133.91Zm1.41,7.42h-1l5.13-8.28h1Zm6.2-4.56a1.38,1.38,0,0,1,.63.78,4.6,4.6,0,0,1,.19,1.44,4.65,4.65,0,0,1-.19,1.46,1.38,1.38,0,0,1-.63.78,3.14,3.14,0,0,1-2.36,0,1.38,1.38,0,0,1-.63-.78,4.65,4.65,0,0,1-.19-1.46,4.6,4.6,0,0,1,.19-1.44,1.38,1.38,0,0,1,.63-.78,3,3,0,0,1,2.36,0Zm-1.74.78a.8.8,0,0,0-.27.47,6,6,0,0,0,0,2,.79.79,0,0,0,.27.48.88.88,0,0,0,.55.14,1,1,0,0,0,.56-.14.86.86,0,0,0,.27-.49,5.33,5.33,0,0,0,0-1.95.8.8,0,0,0-.27-.47,1,1,0,0,0-.56-.14A1,1,0,0,0,129.91,137.55Z"/></g><g class="cls-3"><path d="M163.41,197.33h-1.5v-6.1a4.83,4.83,0,0,1,.06-.82L160,191l-.18-1.07,2.07-.84h1.5Z"/><path d="M170.36,189.21a.54.54,0,0,1,.19.43.87.87,0,0,1-.05.28L168,197.33h-1.49l2.18-6.31a3.1,3.1,0,0,1,.31-.71h-3.88l-.08-1.26h4.83A.81.81,0,0,1,170.36,189.21Z"/><path d="M174.52,189.14a1.38,1.38,0,0,1,.62.77,4.39,4.39,0,0,1,.19,1.45,4.32,4.32,0,0,1-.19,1.44,1.37,1.37,0,0,1-.62.78,3.07,3.07,0,0,1-2.38,0,1.37,1.37,0,0,1-.62-.78,4.32,4.32,0,0,1-.19-1.44,4.39,4.39,0,0,1,.19-1.45,1.38,1.38,0,0,1,.62-.77,3.07,3.07,0,0,1,2.38,0Zm-1.75.77a.75.75,0,0,0-.27.47,4.16,4.16,0,0,0-.08,1,4.21,4.21,0,0,0,.08,1,.8.8,0,0,0,.27.48.93.93,0,0,0,.55.13,1,1,0,0,0,.56-.13.87.87,0,0,0,.28-.48,4.85,4.85,0,0,0,.08-1,4.74,4.74,0,0,0-.08-1,.8.8,0,0,0-.28-.48.93.93,0,0,0-.56-.15A.86.86,0,0,0,172.77,189.91Zm1.4,7.42h-1l5.13-8.28h1Zm6.21-4.56a1.41,1.41,0,0,1,.62.78,4.32,4.32,0,0,1,.19,1.44,4.37,4.37,0,0,1-.19,1.46,1.41,1.41,0,0,1-.62.78,2.62,2.62,0,0,1-1.19.23,2.58,2.58,0,0,1-1.18-.23,1.33,1.33,0,0,1-.62-.78,4.34,4.34,0,0,1-.2-1.46,4.29,4.29,0,0,1,.2-1.44,1.33,1.33,0,0,1,.62-.78,2.44,2.44,0,0,1,1.18-.24A2.49,2.49,0,0,1,180.38,192.77Zm-1.75.78a.8.8,0,0,0-.27.47,3.72,3.72,0,0,0-.07,1,3.76,3.76,0,0,0,.07,1,.79.79,0,0,0,.27.48.91.91,0,0,0,.56.14,1,1,0,0,0,.55-.14A.8.8,0,0,0,180,196a5.33,5.33,0,0,0,0-1.95.75.75,0,0,0-.27-.47,1,1,0,0,0-.55-.14A1,1,0,0,0,178.63,193.55Z"/></g><g class="cls-3"><path d="M213.36,261.34a1.4,1.4,0,0,1,.79.74,4.65,4.65,0,0,1,0,3,1.33,1.33,0,0,1-.75.74A4,4,0,0,1,212,266a12.8,12.8,0,0,1-1.55-.09v2.9H209v-7.59c.42-.05.81-.07,1.17-.08s.89,0,1.58,0A4.64,4.64,0,0,1,213.36,261.34Zm-.85,3.43a.64.64,0,0,0,.38-.39,2.79,2.79,0,0,0,0-1.62.69.69,0,0,0-.38-.39,2,2,0,0,0-.75-.11h-1.35v2.62h1.35A2.24,2.24,0,0,0,212.51,264.77Z"/><path d="M221.33,268.82h-1.47l-.6-2.36a1.06,1.06,0,0,0-.32-.52.89.89,0,0,0-.56-.16H217v3h-1.36v-7.59c.41-.05.8-.07,1.17-.08s.9,0,1.59,0a4.87,4.87,0,0,1,1.54.2,1.48,1.48,0,0,1,.83.68,2.76,2.76,0,0,1,.27,1.34,2.32,2.32,0,0,1-.33,1.35,1.47,1.47,0,0,1-1.09.56v.06a1.34,1.34,0,0,1,.62.35,1.48,1.48,0,0,1,.39.77Zm-2.18-4.29a.69.69,0,0,0,.39-.36,1.81,1.81,0,0,0,.11-.73,1.78,1.78,0,0,0-.11-.73.67.67,0,0,0-.39-.35,2.28,2.28,0,0,0-.77-.1H217v2.39h1.37A2.48,2.48,0,0,0,219.15,264.53Z"/><path d="M227.28,261.45a2.11,2.11,0,0,1,1,1.21,9.47,9.47,0,0,1,0,4.73,2.14,2.14,0,0,1-1,1.21,5,5,0,0,1-3.72,0,2.1,2.1,0,0,1-1-1.21,9.47,9.47,0,0,1,0-4.73,2.07,2.07,0,0,1,1-1.21,4.86,4.86,0,0,1,3.72,0Zm-2.87,1.06a1.41,1.41,0,0,0-.51.85,7,7,0,0,0-.15,1.66,7.13,7.13,0,0,0,.15,1.67,1.41,1.41,0,0,0,.51.84,1.71,1.71,0,0,0,1,.25,1.75,1.75,0,0,0,1-.25,1.51,1.51,0,0,0,.51-.84,7.13,7.13,0,0,0,.15-1.67,7,7,0,0,0-.15-1.66,1.51,1.51,0,0,0-.51-.85,1.83,1.83,0,0,0-1-.25A1.79,1.79,0,0,0,224.41,262.51Z"/><path d="M234.6,266h-2v1.88h-1V266h-2v-1h2v-1.88h1V265h2Z"/></g><g class="cls-3"><path d="M214.11,208.33h-1.5v-6.1a4.83,4.83,0,0,1,.06-.82l-1.95.55-.18-1.07,2.07-.84h1.5Z"/><path d="M220.11,200.07a1.55,1.55,0,0,1,.88.56,1.85,1.85,0,0,1,.32,1.15,3.12,3.12,0,0,1-.29,1.36,6.42,6.42,0,0,1-1.09,1.48l-2.2,2.37a9,9,0,0,1,1.28-.07h2.56v1.41h-5.64v-.9a.84.84,0,0,1,.22-.62l2.16-2.39a9.31,9.31,0,0,0,1.12-1.4,2.18,2.18,0,0,0,.36-1.09c0-.3-.09-.49-.29-.58a2.66,2.66,0,0,0-1-.13c-.43,0-.81,0-1.15,0s-.77.06-1.28.11l-.08-1.15a12.12,12.12,0,0,1,1.4-.24q.6-.06,1.26-.06A5.36,5.36,0,0,1,220.11,200.07Z"/><path d="M225.82,200.14a1.38,1.38,0,0,1,.62.77,4.39,4.39,0,0,1,.19,1.45,4.32,4.32,0,0,1-.19,1.44,1.37,1.37,0,0,1-.62.78,3.07,3.07,0,0,1-2.38,0,1.37,1.37,0,0,1-.62-.78,4.32,4.32,0,0,1-.19-1.44,4.39,4.39,0,0,1,.19-1.45,1.38,1.38,0,0,1,.62-.77,3.07,3.07,0,0,1,2.38,0Zm-1.75.77a.75.75,0,0,0-.27.47,4.16,4.16,0,0,0-.08,1,4.21,4.21,0,0,0,.08,1,.8.8,0,0,0,.27.48.93.93,0,0,0,.55.13,1,1,0,0,0,.56-.13.87.87,0,0,0,.28-.48,4.85,4.85,0,0,0,.08-1,4.74,4.74,0,0,0-.08-1,.8.8,0,0,0-.28-.48.93.93,0,0,0-.56-.15A.86.86,0,0,0,224.07,200.91Zm1.4,7.42h-1l5.13-8.28h1Zm6.2-4.56a1.38,1.38,0,0,1,.63.78,4.32,4.32,0,0,1,.19,1.44,4.37,4.37,0,0,1-.19,1.46,1.38,1.38,0,0,1-.63.78,2.55,2.55,0,0,1-1.18.23,2.58,2.58,0,0,1-1.18-.23,1.33,1.33,0,0,1-.62-.78,4.34,4.34,0,0,1-.2-1.46,4.29,4.29,0,0,1,.2-1.44,1.33,1.33,0,0,1,.62-.78,2.44,2.44,0,0,1,1.18-.24A2.42,2.42,0,0,1,231.67,203.77Zm-1.74.78a.8.8,0,0,0-.27.47,3.72,3.72,0,0,0-.07,1,3.76,3.76,0,0,0,.07,1,.79.79,0,0,0,.27.48.91.91,0,0,0,.56.14,1,1,0,0,0,.55-.14.8.8,0,0,0,.27-.49,5.33,5.33,0,0,0,0-1.95.75.75,0,0,0-.27-.47,1,1,0,0,0-.55-.14A1,1,0,0,0,229.93,204.55Z"/></g><g class="cls-3"><path d="M267.36,261.34a1.42,1.42,0,0,1,.8.74,3.7,3.7,0,0,1,.24,1.49,3.87,3.87,0,0,1-.23,1.49,1.38,1.38,0,0,1-.76.74A4,4,0,0,1,266,266a12.68,12.68,0,0,1-1.55-.09v2.9H263v-7.59c.42-.05.81-.07,1.17-.08s.89,0,1.58,0A4.6,4.6,0,0,1,267.36,261.34Zm-.84,3.43a.69.69,0,0,0,.38-.39,3,3,0,0,0,0-1.62.76.76,0,0,0-.38-.39,2.14,2.14,0,0,0-.76-.11h-1.34v2.62h1.34A2.36,2.36,0,0,0,266.52,264.77Z"/><path d="M275.33,268.82h-1.46l-.61-2.36a1,1,0,0,0-.32-.52.87.87,0,0,0-.56-.16H271v3h-1.37v-7.59c.41-.05.8-.07,1.17-.08s.9,0,1.59,0a4.87,4.87,0,0,1,1.54.2,1.45,1.45,0,0,1,.83.68,2.76,2.76,0,0,1,.27,1.34,2.32,2.32,0,0,1-.33,1.35,1.47,1.47,0,0,1-1.09.56v.06a1.34,1.34,0,0,1,.62.35,1.57,1.57,0,0,1,.4.77Zm-2.18-4.29a.69.69,0,0,0,.39-.36,1.79,1.79,0,0,0,.12-.73,1.75,1.75,0,0,0-.12-.73.67.67,0,0,0-.39-.35,2.24,2.24,0,0,0-.77-.1H271v2.39h1.36A2.43,2.43,0,0,0,273.15,264.53Z"/><path d="M281.28,261.45a2.07,2.07,0,0,1,1,1.21,9.47,9.47,0,0,1,0,4.73,2.1,2.1,0,0,1-1,1.21,5,5,0,0,1-3.72,0,2.1,2.1,0,0,1-1-1.21,9.79,9.79,0,0,1,0-4.73,2.07,2.07,0,0,1,1-1.21,4.86,4.86,0,0,1,3.72,0Zm-2.87,1.06a1.46,1.46,0,0,0-.51.85,7,7,0,0,0-.15,1.66,7.13,7.13,0,0,0,.15,1.67,1.46,1.46,0,0,0,.51.84,2.19,2.19,0,0,0,2,0,1.41,1.41,0,0,0,.51-.84,7.13,7.13,0,0,0,.15-1.67,7,7,0,0,0-.15-1.66,1.41,1.41,0,0,0-.51-.85,2.19,2.19,0,0,0-2,0Z"/></g><g class="cls-3"><path d="M269.88,210.21a.54.54,0,0,1,.18.43.66.66,0,0,1-.05.28l-2.53,7.41H266l2.19-6.31a2.72,2.72,0,0,1,.31-.71H264.6l-.07-1.26h4.82A.84.84,0,0,1,269.88,210.21Z"/><path d="M274,210.14a1.42,1.42,0,0,1,.62.77,4.39,4.39,0,0,1,.19,1.45,4.32,4.32,0,0,1-.19,1.44,1.41,1.41,0,0,1-.62.78,2.49,2.49,0,0,1-1.19.24,2.46,2.46,0,0,1-1.19-.24,1.33,1.33,0,0,1-.62-.78,4.29,4.29,0,0,1-.2-1.44,4.35,4.35,0,0,1,.2-1.45,1.34,1.34,0,0,1,.62-.77,2.46,2.46,0,0,1,1.19-.24A2.49,2.49,0,0,1,274,210.14Zm-1.76.77a.75.75,0,0,0-.27.47,4.78,4.78,0,0,0-.08,1,4.85,4.85,0,0,0,.08,1,.8.8,0,0,0,.27.48,1,1,0,0,0,.55.13,1,1,0,0,0,.56-.13.81.81,0,0,0,.28-.48,4.12,4.12,0,0,0,.09-1,4,4,0,0,0-.09-1,.76.76,0,0,0-.28-.48.91.91,0,0,0-.56-.15A.88.88,0,0,0,272.28,210.91Zm1.41,7.42h-1l5.14-8.28h1Zm6.2-4.56a1.33,1.33,0,0,1,.62.78,4.29,4.29,0,0,1,.2,1.44,4.34,4.34,0,0,1-.2,1.46,1.33,1.33,0,0,1-.62.78,2.59,2.59,0,0,1-1.19.23,2.53,2.53,0,0,1-1.17-.23,1.38,1.38,0,0,1-.63-.78,4.37,4.37,0,0,1-.19-1.46,4.32,4.32,0,0,1,.19-1.44,1.38,1.38,0,0,1,.63-.78,2.4,2.4,0,0,1,1.17-.24A2.46,2.46,0,0,1,279.89,213.77Zm-1.74.78a.75.75,0,0,0-.27.47,3.64,3.64,0,0,0-.08,1,3.68,3.68,0,0,0,.08,1,.75.75,0,0,0,.27.48.88.88,0,0,0,.55.14.93.93,0,0,0,.55-.14.86.86,0,0,0,.28-.49,5.33,5.33,0,0,0,0-1.95.8.8,0,0,0-.28-.47.93.93,0,0,0-.55-.14A1,1,0,0,0,278.15,214.55Z"/></g><rect class="cls-6" x="-32.5" y="119.5" width="202" height="43" transform="translate(209.5 72.5) rotate(90)"/><rect class="cls-7" x="74" y="175" width="91" height="43" transform="translate(316 77) rotate(90)"/><rect class="cls-8" x="153.5" y="203.5" width="34" height="43" transform="translate(395.5 54.5) rotate(90)"/><rect class="cls-9" x="209.5" y="208.5" width="24" height="43" transform="translate(451.5 8.5) rotate(90)"/><rect class="cls-9" x="266" y="214" width="13" height="43" transform="translate(508 -37) rotate(90)"/><rect class="cls-9" x="320.5" y="217.5" width="6" height="43" transform="translate(562.5 -84.5) rotate(90)"/><g class="cls-3"><path d="M306.33,261.77l.29,7.05h-1.34l-.26-6.48h-.2l-1.31,5.05a.55.55,0,0,1-.58.46h-1.05a.56.56,0,0,1-.59-.46L300,262.34h-.2l-.23,6.48H298.2l.28-7.05q0-.54.54-.54h1.42a.53.53,0,0,1,.56.46l1.09,4.11c.07.28.14.63.22,1h.17l.06-.31c0-.09,0-.19.07-.31a3.21,3.21,0,0,1,.1-.43l1.08-4.1a.55.55,0,0,1,.58-.46h1.41C306.12,261.23,306.3,261.41,306.33,261.77Z"/><path d="M313.09,268.82h-1.2v-3.11a4.53,4.53,0,0,1,0-.52l0-.29h0a4.16,4.16,0,0,1-.39.73l-2.32,3.19h-1.1v-5.39h1.18v3.14a6.12,6.12,0,0,1,0,.76h0a3.82,3.82,0,0,1,.4-.68l2.32-3.22h1.1Z"/><path d="M319.62,263.43v5.39h-1.31v-2.37H316v2.37h-1.32v-5.39H316v2h2.35v-2Z"/><path d="M326.16,268.82H325v-3.11a4.53,4.53,0,0,1,0-.52l0-.29h0a3.71,3.71,0,0,1-.4.73l-2.32,3.19h-1.1v-5.39h1.19v3.14a6.12,6.12,0,0,1,0,.76h0a3.82,3.82,0,0,1,.4-.68l2.32-3.22h1.1Z"/><path d="M334.51,263.9l.2,4.92h-1.23l-.17-4.41h-.18l-1,3.34a.5.5,0,0,1-.51.42h-.87a.5.5,0,0,1-.51-.42l-1.05-3.34H329l-.16,4.41h-1.21l.19-4.92a.42.42,0,0,1,.48-.47h1.28a.47.47,0,0,1,.49.42l.84,2.68a7.12,7.12,0,0,1,.19.79h.14c.06-.34.12-.6.17-.79l.84-2.68a.5.5,0,0,1,.52-.42H334A.42.42,0,0,1,334.51,263.9Z"/><path d="M341.26,263.43l-2,5.55a3.19,3.19,0,0,1-1.19,1.71,2.47,2.47,0,0,1-1.41.38,5.81,5.81,0,0,1-.8-.06l.12-.93h.35a1.83,1.83,0,0,0,1-.21,2.11,2.11,0,0,0,.72-.95l0-.11h-.26a.48.48,0,0,1-.29-.09.4.4,0,0,1-.16-.24l-1.84-5.06H337l1.18,3.7c.09.34.15.58.17.72h.16q.12-.37.21-.72l1.15-3.7Z"/><path d="M349,263.9l.2,4.92H348l-.18-4.41h-.17l-1.05,3.34a.5.5,0,0,1-.5.42h-.87a.5.5,0,0,1-.52-.42l-1-3.34h-.17l-.16,4.41h-1.21l.18-4.92c0-.31.16-.47.49-.47H344a.48.48,0,0,1,.5.42l.83,2.68a4.29,4.29,0,0,1,.19.79h.14c.07-.34.13-.6.18-.79l.84-2.68a.5.5,0,0,1,.51-.42h1.29A.41.41,0,0,1,349,263.9Z"/></g><g class="cls-3"><path d="M319.59,218.08a1.52,1.52,0,0,1,.84.59,2.1,2.1,0,0,1,.27,1.15,3.2,3.2,0,0,1-.27,1.43,1.26,1.26,0,0,1-.94.66v0a1.5,1.5,0,0,1,1.11.66,3,3,0,0,1,.32,1.5,2.33,2.33,0,0,1-.63,1.82,3.13,3.13,0,0,1-2.1.56,19.49,19.49,0,0,1-2.74-.22l.07-1.17q1.44.09,2.28.09a3.1,3.1,0,0,0,1-.12.85.85,0,0,0,.5-.4,1.71,1.71,0,0,0,.16-.82,1.41,1.41,0,0,0-.29-1,1.5,1.5,0,0,0-1.11-.29h-1.54v-1.12H318a1.59,1.59,0,0,0,.81-.16.72.72,0,0,0,.35-.42,2.14,2.14,0,0,0,.08-.68,1.41,1.41,0,0,0-.13-.67.63.63,0,0,0-.42-.27,4,4,0,0,0-.89-.07c-.86,0-1.58,0-2.16.07l-.07-1.14a15.35,15.35,0,0,1,2.47-.21A5.17,5.17,0,0,1,319.59,218.08Z"/><path d="M325.29,218.14a1.42,1.42,0,0,1,.62.77,4.39,4.39,0,0,1,.19,1.45,4.32,4.32,0,0,1-.19,1.44,1.41,1.41,0,0,1-.62.78,2.49,2.49,0,0,1-1.19.24,2.46,2.46,0,0,1-1.19-.24,1.33,1.33,0,0,1-.62-.78,4.29,4.29,0,0,1-.2-1.44,4.35,4.35,0,0,1,.2-1.45,1.34,1.34,0,0,1,.62-.77,2.46,2.46,0,0,1,1.19-.24A2.49,2.49,0,0,1,325.29,218.14Zm-1.75.77a.8.8,0,0,0-.28.47,4.92,4.92,0,0,0-.07,1,5,5,0,0,0,.07,1,.87.87,0,0,0,.28.48.93.93,0,0,0,.55.13,1,1,0,0,0,.55-.13.82.82,0,0,0,.29-.48,4.85,4.85,0,0,0,.08-1,4.74,4.74,0,0,0-.08-1,.76.76,0,0,0-.29-.48.88.88,0,0,0-.55-.15A.86.86,0,0,0,323.54,218.91Zm1.4,7.42h-1l5.13-8.28h1Zm6.2-4.56a1.38,1.38,0,0,1,.63.78A4.6,4.6,0,0,1,332,224a4.65,4.65,0,0,1-.19,1.46,1.38,1.38,0,0,1-.63.78,3.14,3.14,0,0,1-2.36,0,1.38,1.38,0,0,1-.63-.78A4.65,4.65,0,0,1,328,224a4.6,4.6,0,0,1,.19-1.44,1.38,1.38,0,0,1,.63-.78,3,3,0,0,1,2.36,0Zm-1.74.78a.75.75,0,0,0-.27.47,6,6,0,0,0,0,2,.75.75,0,0,0,.27.48.89.89,0,0,0,.56.14,1,1,0,0,0,.55-.14.86.86,0,0,0,.27-.49,5.33,5.33,0,0,0,0-1.95.8.8,0,0,0-.27-.47,1.17,1.17,0,0,0-1.11,0Z"/></g><g class="cls-3"><path d="M116.39,267.93a.52.52,0,0,1-.2.28.49.49,0,0,1-.31.11h-1.3a.52.52,0,0,1-.32-.11.53.53,0,0,1-.17-.28l-2.16-7.2h1.42l1.55,5.7.2.84h.28c0-.23.11-.51.2-.84l1.53-5.7h1.42Z"/><path d="M120.88,268.32H119.5v-7.59h1.38Z"/><path d="M126.89,260.84a1.4,1.4,0,0,1,.79.74,4.65,4.65,0,0,1,0,3,1.33,1.33,0,0,1-.75.74,4,4,0,0,1-1.45.21,12.8,12.8,0,0,1-1.55-.09v2.9h-1.37v-7.59c.42-.05.81-.07,1.17-.08s.89,0,1.58,0A4.64,4.64,0,0,1,126.89,260.84Zm-.85,3.43a.64.64,0,0,0,.38-.39,2.79,2.79,0,0,0,0-1.62.69.69,0,0,0-.38-.39,2,2,0,0,0-.75-.11h-1.35v2.62h1.35A2.24,2.24,0,0,0,126,264.27Z"/></g><circle class="cls-10" cx="119" cy="225" r="15"/><circle class="cls-10" cx="68" cy="225" r="15"/><path class="cls-11" d="M119.47,217.83a1,1,0,0,1,1,1,1,1,0,0,1-.78,1l-.14,0-.19,0a1,1,0,0,1-.82-1,1,1,0,0,1,1-1m8.8,2.52a.65.65,0,0,1,.62.67.64.64,0,0,1-.55.65l-.11,0-.1,0a.67.67,0,0,1,.14-1.31m-17.54,0a.65.65,0,0,1,.63.67.67.67,0,0,1-.48.64l-.11,0h-.12a.66.66,0,0,1-.54-.65.65.65,0,0,1,.62-.67m8.74-3.62a2.14,2.14,0,0,0-.32,4.24,16.59,16.59,0,0,1-.7,2.82,7.93,7.93,0,0,1-1.18,2.12,3.43,3.43,0,0,1-1.62.9,1.83,1.83,0,0,1-.33,0,4.41,4.41,0,0,1-1.73-.42,6.34,6.34,0,0,1-1.44-1.45,7.67,7.67,0,0,1-1-2.16l0-.07a1.75,1.75,0,1,0-.65,0v.09l1.66,10.08a.82.82,0,0,0,.13.23.6.6,0,0,0,.22.13h14a.63.63,0,0,0,.22-.18.5.5,0,0,0,.09-.27l1.66-10,0,0a1.76,1.76,0,1,0-2-1.74,1.77,1.77,0,0,0,1.33,1.72v0a8.22,8.22,0,0,1-1.27,2.84,3.08,3.08,0,0,1-2.23,1.21h0a1.79,1.79,0,0,1-.29,0,2.89,2.89,0,0,1-1.25-.29,4.44,4.44,0,0,1-1.26-1.26,11.35,11.35,0,0,1-1.67-4.28v0a2.14,2.14,0,0,0-.42-4.23Z"/><g class="cls-3"><path d="M153,268.32h-1.38v-6.53h-3v6.53h-1.38v-7.59H153Z"/><path d="M159.43,263.52a4.24,4.24,0,0,1,.44,2.15,4.91,4.91,0,0,1-.23,1.65,1.69,1.69,0,0,1-.68.87,2.34,2.34,0,0,1-1.16.26,3.25,3.25,0,0,1-1.86-.53c0,.41,0,.79,0,1.12v1.42h-1.33v-7.53h1.1l.1.79a2.79,2.79,0,0,1,1-.67,3,3,0,0,1,1.21-.26A1.5,1.5,0,0,1,159.43,263.52Zm-1.38,3.71a.77.77,0,0,0,.34-.5,4.14,4.14,0,0,0,.1-1.07,4.94,4.94,0,0,0-.09-1.07.94.94,0,0,0-.3-.55.9.9,0,0,0-.55-.16,1.88,1.88,0,0,0-.73.16,5.16,5.16,0,0,0-.86.52v2.57l.22.06.66.13a3.48,3.48,0,0,0,.57,0A1.27,1.27,0,0,0,158.05,267.23Z"/><path d="M165.73,267.23l.12.86a3.75,3.75,0,0,1-1,.27,8.31,8.31,0,0,1-1.21.09,3.6,3.6,0,0,1-1.57-.29,1.74,1.74,0,0,1-.85-.9,4.17,4.17,0,0,1-.27-1.65,4.27,4.27,0,0,1,.27-1.68A1.68,1.68,0,0,1,162,263a3.47,3.47,0,0,1,1.5-.27,3,3,0,0,1,1.87.47,1.71,1.71,0,0,1,.58,1.4,1.66,1.66,0,0,1-.35,1.14,1.37,1.37,0,0,1-1.08.4h-2.2a1.63,1.63,0,0,0,.21.74.79.79,0,0,0,.45.35,2.69,2.69,0,0,0,.78.09A16.11,16.11,0,0,0,165.73,267.23ZM162.85,264a.71.71,0,0,0-.38.43,2.58,2.58,0,0,0-.15.87h1.86a.41.41,0,0,0,.39-.18,1,1,0,0,0,.1-.45.7.7,0,0,0-.24-.61,1.39,1.39,0,0,0-.83-.18A1.89,1.89,0,0,0,162.85,264Z"/><path d="M174,263.4l.2,4.92H173l-.17-4.41h-.18l-1,3.34a.5.5,0,0,1-.51.42h-.87a.5.5,0,0,1-.51-.42l-1-3.34h-.16l-.17,4.41h-1.21l.19-4.92a.42.42,0,0,1,.48-.47h1.28a.47.47,0,0,1,.49.42l.84,2.68a7.12,7.12,0,0,1,.19.79h.14c.06-.34.12-.6.17-.79l.84-2.68a.5.5,0,0,1,.52-.42h1.28A.42.42,0,0,1,174,263.4Z"/><path d="M180.67,268.32h-1.2v-3.11a4.53,4.53,0,0,1,0-.52l0-.29h0a4.16,4.16,0,0,1-.39.73l-2.32,3.19h-1.1v-5.39h1.18v3.14a6.12,6.12,0,0,1,0,.76h0a3.82,3.82,0,0,1,.4-.68l2.32-3.22h1.1Z"/><path d="M187.34,262.93l-2,5.55a3.17,3.17,0,0,1-1.18,1.71,2.47,2.47,0,0,1-1.41.38,5.7,5.7,0,0,1-.8-.06l.12-.93h.35a1.85,1.85,0,0,0,1-.21,2.1,2.1,0,0,0,.71-.95l.05-.11h-.27a.45.45,0,0,1-.28-.09.46.46,0,0,1-.17-.24l-1.84-5.06H183l1.18,3.7a6,6,0,0,1,.18.72h.15q.12-.37.21-.72l1.15-3.7Z"/><path d="M195.06,263.4l.2,4.92H194l-.18-4.41h-.18l-1,3.34a.5.5,0,0,1-.51.42h-.87a.5.5,0,0,1-.51-.42l-1.05-3.34h-.16l-.17,4.41h-1.21l.19-4.92a.42.42,0,0,1,.48-.47h1.28a.47.47,0,0,1,.49.42l.84,2.68a7.12,7.12,0,0,1,.19.79h.14c.07-.34.12-.6.18-.79l.83-2.68a.5.5,0,0,1,.52-.42h1.29A.42.42,0,0,1,195.06,263.4Z"/></g><circle class="cls-10" cx="170" cy="225" r="15"/><path class="cls-12" d="M176.8,235.43a.62.62,0,0,1-.32,0l-6.6-4.17-6.44,4.21a.36.36,0,0,1-.24,0,.63.63,0,0,1-.2-.23v-18a.7.7,0,0,1,.12-.19.27.27,0,0,1,.16-.08h13.44a.59.59,0,0,1,.2.12.3.3,0,0,1,.08.15v18A.44.44,0,0,1,176.8,235.43ZM171.06,223l-.16,0-.07-.11L170,221l-.78,1.73a.42.42,0,0,1-.11.15.69.69,0,0,1-.2.12h-2.36l1.67,1.66a.8.8,0,0,1,0,.15.79.79,0,0,1,0,.16l-.42,2.27,2-1.43a.45.45,0,0,1,.16,0,.74.74,0,0,1,.16,0l2,1.43-.43-2.27a.74.74,0,0,1,0-.16.35.35,0,0,1,0-.11l1.67-1.7Z"/><g class="cls-13"><path d="M152,32.3a1.79,1.79,0,0,1,.77,1,6.06,6.06,0,0,1,.24,1.9,6,6,0,0,1-.24,1.89,1.75,1.75,0,0,1-.77,1,3,3,0,0,1-1.48.31,9,9,0,0,1-1-.05,4.15,4.15,0,0,1-.78-.16l.08-.6a11.44,11.44,0,0,0,1.69.1,1.86,1.86,0,0,0,1-.23,1.27,1.27,0,0,0,.52-.73,5.29,5.29,0,0,0,.16-1.42h-2.66v-.61h2.66a3.81,3.81,0,0,0-.22-1.18,1.19,1.19,0,0,0-.52-.62,1.89,1.89,0,0,0-.93-.19h-.89l-.74.07-.09-.62a5.39,5.39,0,0,1,.77-.13,8.25,8.25,0,0,1,.95-.05A3.07,3.07,0,0,1,152,32.3Z"/><path d="M160.25,36.65a1.74,1.74,0,0,1-.89.82,4.58,4.58,0,0,1-1.67.3v.88h-.8v-.88a4.68,4.68,0,0,1-1.68-.3,1.74,1.74,0,0,1-.89-.82,3.49,3.49,0,0,1-.27-1.51,3.59,3.59,0,0,1,.27-1.53,1.74,1.74,0,0,1,.89-.84,5.16,5.16,0,0,1,1.68-.3V31.6h.79v.87a5,5,0,0,1,1.67.3,1.74,1.74,0,0,1,.89.84,3.73,3.73,0,0,1,.28,1.53A3.66,3.66,0,0,1,160.25,36.65Zm-5.2-.36a1.16,1.16,0,0,0,.63.6,3.49,3.49,0,0,0,1.24.22v-4a3.49,3.49,0,0,0-1.24.22,1.14,1.14,0,0,0-.63.61,2.85,2.85,0,0,0-.19,1.17A2.78,2.78,0,0,0,155.05,36.29Zm3.84.6a1.16,1.16,0,0,0,.63-.6,2.93,2.93,0,0,0,.2-1.15,3,3,0,0,0-.2-1.17,1.14,1.14,0,0,0-.63-.61,3.49,3.49,0,0,0-1.24-.22v4A3.49,3.49,0,0,0,158.89,36.89Z"/><path d="M167.64,36.65a1.68,1.68,0,0,1-.88.82,4.59,4.59,0,0,1-1.68.3v.88h-.79v-.88a4.59,4.59,0,0,1-1.68-.3,1.71,1.71,0,0,1-.89-.82,3.49,3.49,0,0,1-.27-1.51,3.59,3.59,0,0,1,.27-1.53,1.7,1.7,0,0,1,.89-.84,5.06,5.06,0,0,1,1.68-.3V31.6h.78v.87a5.06,5.06,0,0,1,1.68.3,1.68,1.68,0,0,1,.88.84,3.56,3.56,0,0,1,.29,1.53A3.49,3.49,0,0,1,167.64,36.65Zm-5.19-.36a1.16,1.16,0,0,0,.63.6,3.44,3.44,0,0,0,1.24.22v-4a3.44,3.44,0,0,0-1.24.22,1.14,1.14,0,0,0-.63.61,2.85,2.85,0,0,0-.19,1.17A2.78,2.78,0,0,0,162.45,36.29Zm3.84.6a1.23,1.23,0,0,0,.63-.6,3.13,3.13,0,0,0,.2-1.15,3.21,3.21,0,0,0-.2-1.17,1.21,1.21,0,0,0-.63-.61,3.49,3.49,0,0,0-1.24-.22v4A3.49,3.49,0,0,0,166.29,36.89Z"/><path d="M172.93,37.66l0,.61c-.55,0-1.44,0-2.66,0a1.3,1.3,0,0,1-.88-.29,1,1,0,0,1-.31-.79V33.17a1,1,0,0,1,.32-.78,1.24,1.24,0,0,1,.87-.3c1.22,0,2.11,0,2.66.06l0,.62h-2.49a.55.55,0,0,0-.41.14.71.71,0,0,0-.12.45v1.35h2.67v.64h-2.67v1.7a.7.7,0,0,0,.12.46.51.51,0,0,0,.41.15Z"/><path d="M177.19,35.45a2.54,2.54,0,0,1,.57.81c.15.34.35.84.59,1.5l.2.55h-.84l-.13-.38c-.24-.66-.43-1.16-.58-1.49a2.27,2.27,0,0,0-.55-.77,1.26,1.26,0,0,0-.84-.27h-.67a4.87,4.87,0,0,1,.05.65v2.26h-.78V32.1H175v1.95a5.52,5.52,0,0,1-.05.71h.67a1.18,1.18,0,0,0,.85-.33,2.61,2.61,0,0,0,.55-.83q.23-.51.57-1.5h.8a.72.72,0,0,1-.06.17c-.24.68-.43,1.19-.59,1.54a2.79,2.79,0,0,1-.56.85,1.23,1.23,0,0,1-.82.39v0A1.35,1.35,0,0,1,177.19,35.45Z"/><path d="M183.84,32.8h-2v5.51H181V32.8h-2v-.7h4.8Z"/><path d="M189.49,38.31h-.76V33.79a4.92,4.92,0,0,1,0-.72h0c-.09.21-.2.43-.33.68l-2.75,4.56h-.81V32.1h.76v4.48a6.58,6.58,0,0,1,0,.74h0a6.58,6.58,0,0,1,.36-.67l2.72-4.55h.82Z"/><path d="M195.05,35.58a2.06,2.06,0,0,1,.28,1.18,1.93,1.93,0,0,1-.2,1,1.08,1.08,0,0,1-.62.5,4,4,0,0,1-1.16.13H192l-1-.06V32.1l.86-.06h1.15a4.42,4.42,0,0,1,1.23.14,1.1,1.1,0,0,1,.65.49,2,2,0,0,1,.19,1,1.71,1.71,0,0,1-.25,1,1,1,0,0,1-.8.4v0A1.24,1.24,0,0,1,195.05,35.58Zm-3.22-2.87v2.08h1.33a2.28,2.28,0,0,0,.73-.1.64.64,0,0,0,.37-.31,1.35,1.35,0,0,0,.12-.64,1.22,1.22,0,0,0-.13-.64.66.66,0,0,0-.41-.31,2.85,2.85,0,0,0-.8-.08ZM194,37.62a.65.65,0,0,0,.4-.32,1.49,1.49,0,0,0,.12-.67,1.71,1.71,0,0,0-.13-.75.71.71,0,0,0-.41-.37,2.45,2.45,0,0,0-.82-.11h-1.34v2.3h1.4A2.6,2.6,0,0,0,194,37.62Z"/><path d="M201.08,32.1v6.21h-.79v-3h-2.86v3h-.79V32.1h.79v2.55h2.86V32.1Z"/><path d="M206.32,32.29a1.7,1.7,0,0,1,.77,1,6.42,6.42,0,0,1,.23,1.92,6.52,6.52,0,0,1-.23,1.92,1.73,1.73,0,0,1-.77,1,3.65,3.65,0,0,1-2.9,0,1.77,1.77,0,0,1-.77-1,6.2,6.2,0,0,1-.23-1.92,6.11,6.11,0,0,1,.23-1.92,1.74,1.74,0,0,1,.77-1,3.65,3.65,0,0,1,2.9,0Zm-2.42.64a1.31,1.31,0,0,0-.49.77,5.46,5.46,0,0,0-.16,1.51,5.39,5.39,0,0,0,.16,1.5,1.28,1.28,0,0,0,.49.77,1.72,1.72,0,0,0,1,.24,1.67,1.67,0,0,0,1-.24,1.29,1.29,0,0,0,.5-.77,5.87,5.87,0,0,0,.15-1.5,6,6,0,0,0-.15-1.51,1.32,1.32,0,0,0-.5-.77,1.68,1.68,0,0,0-1-.23A1.72,1.72,0,0,0,203.9,32.93Z"/><path d="M211.79,32a5.9,5.9,0,0,1,.77.13l-.08.61-.78-.07h-.83a1.68,1.68,0,0,0-1,.23,1.36,1.36,0,0,0-.49.77,6,6,0,0,0-.15,1.51,5.87,5.87,0,0,0,.15,1.5,1.33,1.33,0,0,0,.49.77,1.67,1.67,0,0,0,1,.24,11.94,11.94,0,0,0,1.73-.1l.08.59a4.64,4.64,0,0,1-.81.16,9.23,9.23,0,0,1-1,.05,2.8,2.8,0,0,1-1.44-.31,1.74,1.74,0,0,1-.76-1,6,6,0,0,1-.24-1.89,6.06,6.06,0,0,1,.24-1.9,1.77,1.77,0,0,1,.76-1,2.9,2.9,0,0,1,1.44-.31A7.57,7.57,0,0,1,211.79,32Z"/><path d="M218,32.8h-2v5.51h-.79V32.8h-2v-.7H218Z"/><path d="M222.34,34.79a1.14,1.14,0,0,1,.63.59,3.49,3.49,0,0,1,0,2.27,1.08,1.08,0,0,1-.6.57,3.15,3.15,0,0,1-1.13.16H220l-.93-.06h0V32.1h.79v2.5h1.32A3.26,3.26,0,0,1,222.34,34.79Zm-.45,2.8a.6.6,0,0,0,.37-.34,2,2,0,0,0,.11-.75,2,2,0,0,0-.11-.73.67.67,0,0,0-.36-.38,2,2,0,0,0-.77-.12h-1.32v2.41h1.32A2.14,2.14,0,0,0,221.89,37.59Z"/><path d="M229.7,32.19a1.1,1.1,0,0,1,.61.59A2.9,2.9,0,0,1,230.5,34a3.1,3.1,0,0,1-.18,1.19,1.1,1.1,0,0,1-.59.59,3.09,3.09,0,0,1-1.13.17c-.44,0-.92,0-1.43-.07v2.47h-.8V32.1c.33,0,.63-.06.91-.06l1.23,0A3.34,3.34,0,0,1,229.7,32.19Zm-.48,2.92a.66.66,0,0,0,.37-.38,1.93,1.93,0,0,0,.11-.77,2,2,0,0,0-.11-.77.69.69,0,0,0-.37-.38,2,2,0,0,0-.72-.1h-1.33v2.52h1.33A2.14,2.14,0,0,0,229.22,35.11Z"/><path d="M235.45,37.66l0,.61c-.55,0-1.44,0-2.65,0A1.26,1.26,0,0,1,232,38a1,1,0,0,1-.32-.79V33.17a1,1,0,0,1,.32-.78,1.25,1.25,0,0,1,.88-.3c1.21,0,2.1,0,2.65.06l0,.62H233a.52.52,0,0,0-.4.14.65.65,0,0,0-.13.45v1.35h2.67v.64h-2.67v1.7a.65.65,0,0,0,.13.46.49.49,0,0,0,.4.15Z"/><path d="M239.7,35.45a2.54,2.54,0,0,1,.57.81c.15.34.35.84.59,1.5l.2.55h-.84l-.13-.38c-.23-.66-.43-1.16-.58-1.49a2.27,2.27,0,0,0-.55-.77,1.24,1.24,0,0,0-.83-.27h-.68a3.66,3.66,0,0,1,.06.65v2.26h-.79V32.1h.79v1.95a4.17,4.17,0,0,1-.06.71h.68a1.17,1.17,0,0,0,.84-.33,2.81,2.81,0,0,0,.56-.83c.14-.34.33-.84.56-1.5h.81l-.06.17c-.24.68-.44,1.19-.59,1.54a3,3,0,0,1-.56.85,1.25,1.25,0,0,1-.82.39v0A1.34,1.34,0,0,1,239.7,35.45Z"/><path d="M246.42,38.31h-.8V32.75h-1.24a.69.69,0,0,0-.48.15.71.71,0,0,0-.18.48l0,.22c-.1,1.11-.19,1.89-.26,2.34a4.43,4.43,0,0,1-.37,1.2,1.7,1.7,0,0,1-1.57,1.18l-.07-.61a1.62,1.62,0,0,0,.52-.28,1.23,1.23,0,0,0,.37-.5,5.19,5.19,0,0,0,.28-.81,8.88,8.88,0,0,0,.17-1c0-.42.11-1,.17-1.83a1.11,1.11,0,0,1,1.23-1.14h2.25Z"/><path d="M251.28,36.37h-2.56l-.61,1.94h-.82l2-6a.25.25,0,0,1,.1-.16.33.33,0,0,1,.19-.06h.83a.3.3,0,0,1,.3.22l2,6h-.82Zm-.22-.69-.78-2.46c-.06-.16-.11-.33-.16-.51h-.25q-.08.27-.15.51l-.78,2.46Z"/><path d="M259.69,32.19a.37.37,0,0,1,.08.25l.26,5.87h-.79L259,32.76h-.19l-1.39,4.58a.32.32,0,0,1-.34.27h-.71a.34.34,0,0,1-.36-.27l-1.39-4.58h-.18l-.21,5.55h-.8l.25-5.87c0-.23.12-.34.33-.34h.9a.32.32,0,0,1,.33.27l1.16,3.79a4.21,4.21,0,0,1,.16.54l.08.3h.16c0-.1.06-.21.09-.34l.14-.52,1.16-3.77a.34.34,0,0,1,.35-.27h.89A.32.32,0,0,1,259.69,32.19Z"/><path d="M264.79,34.79a1.11,1.11,0,0,1,.63.59,3.49,3.49,0,0,1,0,2.27,1.05,1.05,0,0,1-.6.57,3.13,3.13,0,0,1-1.12.16h-1.27l-.94-.06h0V32.1h.8v2.5h1.31A3.26,3.26,0,0,1,264.79,34.79Zm-.45,2.8a.6.6,0,0,0,.37-.34,1.85,1.85,0,0,0,.11-.75,2,2,0,0,0-.1-.73.69.69,0,0,0-.37-.38,1.93,1.93,0,0,0-.77-.12h-1.31v2.41h1.31A2.1,2.1,0,0,0,264.34,37.59Zm3.18-5.49v6.21h-.78V32.1Z"/><path d="M274.77,32.29a1.69,1.69,0,0,1,.76,1,6.11,6.11,0,0,1,.23,1.92,6.2,6.2,0,0,1-.23,1.92,1.72,1.72,0,0,1-.76,1,3.68,3.68,0,0,1-2.91,0,1.76,1.76,0,0,1-.76-1,6.16,6.16,0,0,1-.24-1.92,6.07,6.07,0,0,1,.24-1.92,1.72,1.72,0,0,1,.76-1,3.68,3.68,0,0,1,2.91,0Zm-2.42.64a1.32,1.32,0,0,0-.5.77,6,6,0,0,0-.15,1.51,5.87,5.87,0,0,0,.15,1.5,1.29,1.29,0,0,0,.5.77,2.06,2.06,0,0,0,1.93,0,1.25,1.25,0,0,0,.5-.77,5.39,5.39,0,0,0,.16-1.5,5.46,5.46,0,0,0-.16-1.51,1.28,1.28,0,0,0-.5-.77,2.14,2.14,0,0,0-1.93,0Z"/><path d="M280.43,35a1.18,1.18,0,0,1,.63.57,2.46,2.46,0,0,1,.19,1.08,2.41,2.41,0,0,1-.22,1.17,1.12,1.12,0,0,1-.68.5,5.23,5.23,0,0,1-1.27.12c-.71,0-1.36,0-2-.08h0V32.1c.64,0,1.29-.05,1.92-.05s1.26,0,1.89.05l-.07.66h-3v2h1.31A3.33,3.33,0,0,1,280.43,35ZM280,37.62a.59.59,0,0,0,.36-.33,2,2,0,0,0,.1-.72,2.15,2.15,0,0,0-.09-.71.66.66,0,0,0-.37-.36,2.27,2.27,0,0,0-.78-.1H277.9v2.3h1.31A2.6,2.6,0,0,0,280,37.62Z"/><path d="M287.2,34.79a1.11,1.11,0,0,1,.63.59,3.49,3.49,0,0,1,0,2.27,1.05,1.05,0,0,1-.6.57,3.09,3.09,0,0,1-1.12.16h-1.27l-.95-.06V32.8h-2v-.7h2.77v2.5H286A3.26,3.26,0,0,1,287.2,34.79Zm-.45,2.8a.6.6,0,0,0,.37-.34,1.85,1.85,0,0,0,.11-.75,2,2,0,0,0-.1-.73.69.69,0,0,0-.37-.38,2,2,0,0,0-.77-.12h-1.3v2.41H286A2.14,2.14,0,0,0,286.75,37.59Z"/><path d="M292.28,32c.28,0,.58,0,.9.06v6.21h-.79V35.78H291a.76.76,0,0,0-.51.16.88.88,0,0,0-.31.5l-.54,1.86h-.85l.58-1.9a1.35,1.35,0,0,1,.34-.59,1.19,1.19,0,0,1,.5-.28v0a1.2,1.2,0,0,1-.88-.5,2,2,0,0,1-.28-1.12,1.93,1.93,0,0,1,.46-1.44,2.2,2.2,0,0,1,1.51-.42Zm.11,3.07v-2.4h-1.32a1.86,1.86,0,0,0-.69.1.69.69,0,0,0-.37.36,1.71,1.71,0,0,0-.12.71,1.36,1.36,0,0,0,.26.93,1.12,1.12,0,0,0,.89.3Z"/><path d="M298.74,35.58a2.06,2.06,0,0,1,.28,1.18,1.93,1.93,0,0,1-.2,1,1.08,1.08,0,0,1-.62.5,4,4,0,0,1-1.16.13h-1.32l-1-.06V32.1l.86-.06h1.15a4.42,4.42,0,0,1,1.23.14,1,1,0,0,1,.64.49,1.93,1.93,0,0,1,.2,1,1.71,1.71,0,0,1-.25,1,1.06,1.06,0,0,1-.8.4v0A1.24,1.24,0,0,1,298.74,35.58Zm-3.22-2.87v2.08h1.33a2.28,2.28,0,0,0,.73-.1.64.64,0,0,0,.37-.31,1.35,1.35,0,0,0,.12-.64,1.22,1.22,0,0,0-.13-.64.66.66,0,0,0-.41-.31,2.85,2.85,0,0,0-.8-.08Zm2.18,4.91a.68.68,0,0,0,.4-.32,1.49,1.49,0,0,0,.12-.67,1.71,1.71,0,0,0-.13-.75.71.71,0,0,0-.41-.37,2.49,2.49,0,0,0-.82-.11h-1.34v2.3h1.4A2.6,2.6,0,0,0,297.7,37.62Z"/><path d="M304.62,38.31h-.79V32.75h-1.25a.68.68,0,0,0-.47.15.71.71,0,0,0-.19.48l0,.22c-.1,1.11-.19,1.89-.26,2.34a4.11,4.11,0,0,1-.37,1.2,1.69,1.69,0,0,1-1.56,1.18l-.08-.61a1.52,1.52,0,0,0,.52-.28,1.23,1.23,0,0,0,.37-.5,4.33,4.33,0,0,0,.28-.81,7.2,7.2,0,0,0,.17-1c0-.42.11-1,.17-1.83a1.12,1.12,0,0,1,1.24-1.14h2.24Z"/><path d="M310,37.66l0,.61c-.55,0-1.43,0-2.65,0a1.28,1.28,0,0,1-.88-.29,1,1,0,0,1-.32-.79V33.17a1,1,0,0,1,.33-.78,1.21,1.21,0,0,1,.87-.3c1.22,0,2.1,0,2.65.06l0,.62h-2.5a.52.52,0,0,0-.4.14.65.65,0,0,0-.13.45v1.35h2.68v.64h-2.68v1.7a.65.65,0,0,0,.13.46.49.49,0,0,0,.4.15Z"/><path d="M315.67,32.1v6.21h-.79v-3H312v3h-.8V32.1h.8v2.55h2.86V32.1Z"/><path d="M321.89,38.31h-.77V33.79a4.77,4.77,0,0,1,.05-.72h-.05a6.66,6.66,0,0,1-.32.68l-2.75,4.56h-.81V32.1H318v4.48a6.58,6.58,0,0,1,0,.74h0c.09-.2.21-.42.35-.67l2.73-4.55h.82Z"/><path d="M326.51,32c.28,0,.58,0,.9.06v6.21h-.79V35.78h-1.36a.76.76,0,0,0-.51.16.93.93,0,0,0-.3.5l-.54,1.86h-.85l.58-1.9a1.26,1.26,0,0,1,.34-.59,1.19,1.19,0,0,1,.5-.28v0a1.2,1.2,0,0,1-.87-.5,1.91,1.91,0,0,1-.28-1.12,1.89,1.89,0,0,1,.46-1.44,2.18,2.18,0,0,1,1.51-.42Zm.11,3.07v-2.4H325.3a1.86,1.86,0,0,0-.69.1.69.69,0,0,0-.37.36,1.87,1.87,0,0,0-.13.71,1.41,1.41,0,0,0,.26.93,1.14,1.14,0,0,0,.89.3Z"/><path d="M333.15,31.57a2.68,2.68,0,0,0-1.31,1.4,6.65,6.65,0,0,0-.41,2.53,6.56,6.56,0,0,0,.41,2.5,2.78,2.78,0,0,0,1.31,1.43l-.1.37a3.31,3.31,0,0,1-1.8-1.51,5.85,5.85,0,0,1-.57-2.79,5.85,5.85,0,0,1,.57-2.79,3.31,3.31,0,0,1,1.8-1.51Z"/><path d="M336.15,32.17a1,1,0,0,1,.45.58,3.49,3.49,0,0,1,.14,1.08,3.38,3.38,0,0,1-.14,1.07,1.05,1.05,0,0,1-.45.59,1.75,1.75,0,0,1-.86.18,1.7,1.7,0,0,1-.85-.18,1.08,1.08,0,0,1-.45-.59,4.2,4.2,0,0,1,0-2.15,1,1,0,0,1,.45-.58,1.7,1.7,0,0,1,.85-.18A1.75,1.75,0,0,1,336.15,32.17Zm-1.53.6a2.24,2.24,0,0,0-.18,1.06,3,3,0,0,0,.08.81.74.74,0,0,0,.26.42.86.86,0,0,0,.51.13.87.87,0,0,0,.52-.13.74.74,0,0,0,.26-.42,4.14,4.14,0,0,0,0-1.62.74.74,0,0,0-.26-.42.87.87,0,0,0-.52-.13A.72.72,0,0,0,334.62,32.77Zm1.08,5.54h-.54l4-6.21h.54Zm4.75-3.41a1,1,0,0,1,.45.58,3.15,3.15,0,0,1,.14,1.07,3.11,3.11,0,0,1-.14,1.07,1,1,0,0,1-.45.59,1.68,1.68,0,0,1-.85.18,1.7,1.7,0,0,1-.85-.18,1,1,0,0,1-.45-.59,3.38,3.38,0,0,1-.14-1.07,3.42,3.42,0,0,1,.14-1.07,1,1,0,0,1,.45-.58,1.6,1.6,0,0,1,.85-.19A1.58,1.58,0,0,1,340.45,34.9Zm-1.37.42a.75.75,0,0,0-.27.42,3.1,3.1,0,0,0-.06.81,3,3,0,0,0,.06.81.75.75,0,0,0,.27.43.91.91,0,0,0,.51.13,1,1,0,0,0,.52-.13.8.8,0,0,0,.27-.43,3.32,3.32,0,0,0,.08-.81,3.44,3.44,0,0,0-.08-.81.81.81,0,0,0-.27-.42,1,1,0,0,0-.52-.12A.92.92,0,0,0,339.08,35.32Z"/><path d="M343.46,32.71A5.68,5.68,0,0,1,344,35.5a5.73,5.73,0,0,1-.58,2.79,3.31,3.31,0,0,1-1.8,1.51l-.09-.37a2.8,2.8,0,0,0,1.3-1.43,6.56,6.56,0,0,0,.41-2.5,6.65,6.65,0,0,0-.41-2.53,2.7,2.7,0,0,0-1.3-1.4l.09-.37A3.31,3.31,0,0,1,343.46,32.71Z"/></g><g class="cls-3"><path d="M56.48,263H54.36v5.81H52V263H49.85v-1.78h6.63Z"/><path d="M62.53,261.41a2.05,2.05,0,0,1,1.09,1.18,8.78,8.78,0,0,1,0,4.84,2.07,2.07,0,0,1-1.09,1.19,5.21,5.21,0,0,1-2.11.34,5.14,5.14,0,0,1-2.09-.34,2.09,2.09,0,0,1-1.1-1.19,8.78,8.78,0,0,1,0-4.84,2.07,2.07,0,0,1,1.1-1.18,5.12,5.12,0,0,1,2.09-.35A5.19,5.19,0,0,1,62.53,261.41ZM59.79,263a1.09,1.09,0,0,0-.3.63A7.66,7.66,0,0,0,59.4,265a7.58,7.58,0,0,0,.09,1.36,1.09,1.09,0,0,0,.3.64,1.19,1.19,0,0,0,1.26,0,1,1,0,0,0,.31-.64,7.58,7.58,0,0,0,.09-1.36,7.66,7.66,0,0,0-.09-1.36,1,1,0,0,0-.31-.63,1.14,1.14,0,0,0-1.26,0Z"/><path d="M71.59,268.81H69.2v-6H67.33v6H64.94v-7.59h6.65Z"/><path d="M78.86,268.81H76.48v-4.75a4.29,4.29,0,0,1,.09-1l-1.75.34L74.55,262l1.93-.74h2.38Z"/><path d="M85.19,261.43a2.1,2.1,0,0,1,1,1.21,7.34,7.34,0,0,1,.3,2.37,7.45,7.45,0,0,1-.3,2.38,2.13,2.13,0,0,1-1,1.21,5.35,5.35,0,0,1-3.86,0,2.14,2.14,0,0,1-1-1.21A7.41,7.41,0,0,1,80,265a7.3,7.3,0,0,1,.31-2.37,2.11,2.11,0,0,1,1-1.21,5.22,5.22,0,0,1,3.86,0ZM82.7,263a1,1,0,0,0-.24.59,14.85,14.85,0,0,0,0,2.88,1.06,1.06,0,0,0,.24.6.91.91,0,0,0,.55.14,1,1,0,0,0,.57-.14.93.93,0,0,0,.26-.6,14.85,14.85,0,0,0,0-2.88.71.71,0,0,0-.83-.74A.84.84,0,0,0,82.7,263Z"/></g><rect class="cls-14" x="67.47" y="228.68" width="1.05" height="1.05"/><path class="cls-15" d="M68,215a10,10,0,1,0,10,10A10,10,0,0,0,68,215Zm-1.58,6.32a1.05,1.05,0,0,1,1-1.06h4.21a1.05,1.05,0,0,1,1.06,1.06v3.15a1.06,1.06,0,0,1-1.06,1.06H67.47a1.06,1.06,0,0,1-1-1.06Zm-1,7.36H64.32v2.11H63.26v-2.11h-1v-1.05h3.16Zm0-3.15H64.32v-4.21l-1.06,2.1H62.15l1.67-3.16h1.55Zm4.21,5.26H66.42v-3.16h3.16Zm4.21,0H72.74v-2.11H71.68v2.11H70.63v-3.16h3.16Z"/><rect class="cls-14" x="67.47" y="221.32" width="4.21" height="3.16"/><g class="cls-13"><path d="M63.22,280.1a2.09,2.09,0,0,1,.29,1.19,1.8,1.8,0,0,1-.22,1,1.12,1.12,0,0,1-.66.49,4,4,0,0,1-1.22.15l-1.51,0-1.12-.06v-6.21l1-.06h1.34a4.92,4.92,0,0,1,1.31.14,1.09,1.09,0,0,1,.67.49,2,2,0,0,1,.21,1,1.71,1.71,0,0,1-.25,1,1.07,1.07,0,0,1-.83.4v0A1.3,1.3,0,0,1,63.22,280.1Zm-1.31-2.22a.46.46,0,0,0-.28-.23,2.14,2.14,0,0,0-.58-.06h-.93v1.57h1a1,1,0,0,0,.68-.16.82.82,0,0,0,.19-.64A1,1,0,0,0,61.91,277.88Zm-.14,3.92a.46.46,0,0,0,.29-.24,1.89,1.89,0,0,0,0-1.12.52.52,0,0,0-.3-.28,2.13,2.13,0,0,0-.61-.09h-1v1.8h1.05A1.89,1.89,0,0,0,61.77,281.8Z"/><path d="M67.89,281.21H65.76l-.45,1.62h-1.4L65.7,277a.44.44,0,0,1,.17-.26.54.54,0,0,1,.3-.1h1.3a.48.48,0,0,1,.31.1A.43.43,0,0,1,68,277l1.79,5.85h-1.4Zm-.29-1.07-.53-1.9c-.07-.3-.11-.49-.12-.58H66.7l-.13.58-.52,1.9Z"/><path d="M77.84,276.62v6.21H70.39v-6.21h1.35v5.22h1.71v-5.22h1.34v5.22H76.5v-5.22Z"/><path d="M58.17,288.54H56.31v5.09H54.94v-5.09H53.08v-1.12h5.09Z"/><path d="M62.33,292H60.19l-.45,1.63h-1.4l1.79-5.85a.44.44,0,0,1,.17-.26.55.55,0,0,1,.31-.1H61.9a.52.52,0,0,1,.31.1.39.39,0,0,1,.17.26l1.79,5.85H62.78Zm-.3-1.06-.52-1.9a4.86,4.86,0,0,1-.13-.58h-.24L61,289l-.52,1.9Z"/><path d="M68.55,287.52a1.23,1.23,0,0,1,.69.61,2.94,2.94,0,0,1,.2,1.24,3.16,3.16,0,0,1-.19,1.24,1.2,1.2,0,0,1-.65.62,3.63,3.63,0,0,1-1.23.17,9,9,0,0,1-1.17-.07v2.3H64.82v-6.21l1-.06,1.37,0A4.06,4.06,0,0,1,68.55,287.52Zm-.84,2.74A.53.53,0,0,0,68,290a1.84,1.84,0,0,0,.08-.6,1.87,1.87,0,0,0-.08-.61.51.51,0,0,0-.28-.28,1.38,1.38,0,0,0-.56-.08h-1v2h1A1.8,1.8,0,0,0,67.71,290.26Z"/><path d="M75.47,293.63H74.16v-3.7a4.6,4.6,0,0,1,.08-.84h-.06a5.77,5.77,0,0,1-.35.82l-2.1,3.72H70.37v-6.21h1.31v3.65a5.61,5.61,0,0,1-.08.86h.06a7.1,7.1,0,0,1,.36-.81l2.1-3.7h1.35Z"/><path d="M83.15,291.92a1.77,1.77,0,0,1-.89.81,4.79,4.79,0,0,1-1.66.33v.81H79.23v-.81a4.85,4.85,0,0,1-1.66-.33,1.77,1.77,0,0,1-.89-.81,3.31,3.31,0,0,1-.27-1.46,3.55,3.55,0,0,1,.27-1.51,1.76,1.76,0,0,1,.89-.83,4.85,4.85,0,0,1,1.66-.33V287H80.6v.81a4.79,4.79,0,0,1,1.66.33,1.76,1.76,0,0,1,.89.83,3.7,3.7,0,0,1,.28,1.51A3.44,3.44,0,0,1,83.15,291.92Zm-5.23-.57a.9.9,0,0,0,.45.47,2.72,2.72,0,0,0,.92.19v-3.17a2.47,2.47,0,0,0-.92.2.87.87,0,0,0-.45.49,2.75,2.75,0,0,0-.12.93A2.61,2.61,0,0,0,77.92,291.35Zm3.54.47a.86.86,0,0,0,.45-.47,2.58,2.58,0,0,0,.13-.89,2.71,2.71,0,0,0-.13-.93.84.84,0,0,0-.45-.49,2.47,2.47,0,0,0-.92-.2V292A2.72,2.72,0,0,0,81.46,291.82Z"/></g></svg>