<svg xmlns="http://www.w3.org/2000/svg" viewBox="0 0 224.17 258.14"><defs><style>.cls-1{fill:#eaeaea;fill-rule:evenodd;}.cls-2{fill:#fff;}.cls-3{fill:#ff730f;}</style></defs><title>Asset 4</title><g id="Layer_2" data-name="Layer 2"><g id="Layer_1-2" data-name="Layer 1"><path class="cls-1" d="M112.09,251.36a6.79,6.79,0,0,1-5.29-2.53c-.7-.62-2.21-1.88-3.67-3.11-63.93-53.66-96.34-98-96.34-131.8C6.79,54.85,54,6.79,112.09,6.79s105.3,48.06,105.3,107.13c0,46.93-62.11,104.32-99.14,134.35l-1.35,1.1A6.84,6.84,0,0,1,112.09,251.36Z"/><path class="cls-2" d="M112.09,13.57c54.41,0,98.51,44.93,98.51,100.35,0,54.78-96.85,128.94-98.5,130.62-.6-1.69-98.53-75.84-98.53-130.62,0-55.42,44.11-100.35,98.51-100.35m0,231s0,0,0,0,0,0,0,0M112.09,0A110.45,110.45,0,0,0,32.74,33.45,114.13,114.13,0,0,0,0,113.92c0,13.4,4.61,28.31,13.7,44.33,7,12.39,16.92,25.77,29.39,39.77,21.7,24.37,45.51,44.36,55.67,52.89,1.22,1,2.48,2.08,3.2,2.7a13.59,13.59,0,0,0,19.44.84l1.12-.91a509.88,509.88,0,0,0,54.9-51.06c31-33.92,46.75-63.72,46.75-88.57a114.13,114.13,0,0,0-32.74-80.46A110.45,110.45,0,0,0,112.09,0Z"/><path class="cls-3" d="M113.41,60.12a7.4,7.4,0,0,1,1.4,14.66l-1.39.27L112,74.79a7.4,7.4,0,0,1,1.37-14.66m47.2,13.15a5.52,5.52,0,0,1,.85,11l-1.12.17-1.09-.28a5.52,5.52,0,0,1,1.36-10.87m-94.16,0a5.52,5.52,0,0,1,1.36,10.87l-1.09.27-1.12-.17a5.52,5.52,0,0,1,.85-11m47-16.91a11.15,11.15,0,0,0-2.07,22.11c-.28,3.67-1.7,15-8.62,23.91-4.08,5.27-8.58,6.69-12.3,6.69A18.06,18.06,0,0,1,83,107.32c-2.07-.92-9.77-5.45-14.28-19.54A9.28,9.28,0,1,0,65,88l8.82,51.77s.47,3.05,2.35,3.05h74.51c.39,0,2.09-.18,2.5-3.29.44-3.29,7.85-46,8.82-51.53a9.27,9.27,0,1,0-3.7-.17c-.3,2.35-2.31,14-13.1,19.77a17,17,0,0,1-6.9,1.55c-9.5,0-14.7-9.3-14.7-9.3s-6.29-10.33-8.1-21.33a11.15,11.15,0,0,0-2.11-22.1Z"/></g></g></svg>